<?xml version="1.0" encoding="UTF-8"?>
<!--Generator: Apple Native CoreSVG 175-->
<!DOCTYPE svg
PUBLIC "-//W3C//DTD SVG 1.1//EN"
       "http://www.w3.org/Graphics/SVG/1.1/DTD/svg11.dtd">
<svg version="1.1" xmlns="http://www.w3.org/2000/svg" xmlns:xlink="http://www.w3.org/1999/xlink" width="3300" height="2200">
 <!--glyph: "uni1002AF.medium", point size: 100.0, font version: "17.1d1e1", template writer version: "65.1"-->
 <g id="Notes">
  <rect height="2200" id="artboard" style="fill:white;opacity:1" width="3300" x="0" y="0"/>
  <line style="fill:none;stroke:black;opacity:1;stroke-width:0.5;" x1="263" x2="3036" y1="292" y2="292"/>
  <text style="stroke:none;fill:black;font-family:sans-serif;font-size:13;font-weight:bold;" transform="matrix(1 0 0 1 263 322)">Weight/Scale Variations</text>
  <text style="stroke:none;fill:black;font-family:sans-serif;font-size:13;text-anchor:middle;" transform="matrix(1 0 0 1 559.711 322)">Ultralight</text>
  <text style="stroke:none;fill:black;font-family:sans-serif;font-size:13;text-anchor:middle;" transform="matrix(1 0 0 1 856.422 322)">Thin</text>
  <text style="stroke:none;fill:black;font-family:sans-serif;font-size:13;text-anchor:middle;" transform="matrix(1 0 0 1 1153.13 322)">Light</text>
  <text style="stroke:none;fill:black;font-family:sans-serif;font-size:13;text-anchor:middle;" transform="matrix(1 0 0 1 1449.84 322)">Regular</text>
  <text style="stroke:none;fill:black;font-family:sans-serif;font-size:13;text-anchor:middle;" transform="matrix(1 0 0 1 1746.56 322)">Medium</text>
  <text style="stroke:none;fill:black;font-family:sans-serif;font-size:13;text-anchor:middle;" transform="matrix(1 0 0 1 2043.27 322)">Semibold</text>
  <text style="stroke:none;fill:black;font-family:sans-serif;font-size:13;text-anchor:middle;" transform="matrix(1 0 0 1 2339.98 322)">Bold</text>
  <text style="stroke:none;fill:black;font-family:sans-serif;font-size:13;text-anchor:middle;" transform="matrix(1 0 0 1 2636.69 322)">Heavy</text>
  <text style="stroke:none;fill:black;font-family:sans-serif;font-size:13;text-anchor:middle;" transform="matrix(1 0 0 1 2933.4 322)">Black</text>
  <line style="fill:none;stroke:black;opacity:1;stroke-width:0.5;" x1="263" x2="3036" y1="1903" y2="1903"/>
  <g transform="matrix(1 0 0 1 263 1933)">
   <path d="M9.24805 0.830078Q10.8691 0.830078 12.2949 0.214844Q13.7207-0.400391 14.8096-1.49414Q15.8984-2.58789 16.5186-4.01367Q17.1387-5.43945 17.1387-7.05078Q17.1387-8.66211 16.5186-10.0879Q15.8984-11.5137 14.8047-12.6074Q13.7109-13.7012 12.2852-14.3164Q10.8594-14.9316 9.23828-14.9316Q7.62695-14.9316 6.20117-14.3164Q4.77539-13.7012 3.69141-12.6074Q2.60742-11.5137 1.9873-10.0879Q1.36719-8.66211 1.36719-7.05078Q1.36719-5.43945 1.9873-4.01367Q2.60742-2.58789 3.69629-1.49414Q4.78516-0.400391 6.21094 0.214844Q7.63672 0.830078 9.24805 0.830078ZM9.24805-0.654297Q7.91992-0.654297 6.7627-1.14746Q5.60547-1.64062 4.73145-2.51953Q3.85742-3.39844 3.36426-4.56055Q2.87109-5.72266 2.87109-7.05078Q2.87109-8.37891 3.35938-9.54102Q3.84766-10.7031 4.72168-11.582Q5.5957-12.4609 6.75293-12.9541Q7.91016-13.4473 9.23828-13.4473Q10.5762-13.4473 11.7334-12.9541Q12.8906-12.4609 13.7695-11.582Q14.6484-10.7031 15.1465-9.54102Q15.6445-8.37891 15.6445-7.05078Q15.6445-5.72266 15.1514-4.56055Q14.6582-3.39844 13.7842-2.51953Q12.9102-1.64062 11.748-1.14746Q10.5859-0.654297 9.24805-0.654297ZM5.6543-7.05078Q5.6543-6.72852 5.85938-6.52832Q6.06445-6.32812 6.40625-6.32812L8.51562-6.32812L8.51562-4.20898Q8.51562-3.88672 8.71094-3.67676Q8.90625-3.4668 9.23828-3.4668Q9.56055-3.4668 9.77051-3.67676Q9.98047-3.88672 9.98047-4.20898L9.98047-6.32812L12.0898-6.32812Q12.4219-6.32812 12.627-6.52832Q12.832-6.72852 12.832-7.05078Q12.832-7.38281 12.627-7.58789Q12.4219-7.79297 12.0898-7.79297L9.98047-7.79297L9.98047-9.90234Q9.98047-10.2344 9.77051-10.4443Q9.56055-10.6543 9.23828-10.6543Q8.90625-10.6543 8.71094-10.4443Q8.51562-10.2344 8.51562-9.90234L8.51562-7.79297L6.40625-7.79297Q6.06445-7.79297 5.85938-7.58789Q5.6543-7.38281 5.6543-7.05078Z"/>
  </g>
  <g transform="matrix(1 0 0 1 281.867 1933)">
   <path d="M11.709 2.91016Q13.75 2.91016 15.5518 2.12891Q17.3535 1.34766 18.7305-0.0292969Q20.1074-1.40625 20.8887-3.20801Q21.6699-5.00977 21.6699-7.05078Q21.6699-9.0918 20.8887-10.8936Q20.1074-12.6953 18.7305-14.0723Q17.3535-15.4492 15.5469-16.2305Q13.7402-17.0117 11.6992-17.0117Q9.6582-17.0117 7.85645-16.2305Q6.05469-15.4492 4.68262-14.0723Q3.31055-12.6953 2.5293-10.8936Q1.74805-9.0918 1.74805-7.05078Q1.74805-5.00977 2.5293-3.20801Q3.31055-1.40625 4.6875-0.0292969Q6.06445 1.34766 7.86621 2.12891Q9.66797 2.91016 11.709 2.91016ZM11.709 1.25Q9.98047 1.25 8.47656 0.605469Q6.97266-0.0390625 5.83496-1.17676Q4.69727-2.31445 4.05762-3.81836Q3.41797-5.32227 3.41797-7.05078Q3.41797-8.7793 4.05762-10.2832Q4.69727-11.7871 5.83008-12.9297Q6.96289-14.0723 8.4668-14.7119Q9.9707-15.3516 11.6992-15.3516Q13.4277-15.3516 14.9316-14.7119Q16.4355-14.0723 17.5781-12.9297Q18.7207-11.7871 19.3652-10.2832Q20.0098-8.7793 20.0098-7.05078Q20.0098-5.32227 19.3701-3.81836Q18.7305-2.31445 17.5928-1.17676Q16.4551-0.0390625 14.9463 0.605469Q13.4375 1.25 11.709 1.25ZM7.17773-7.05078Q7.17773-6.69922 7.41211-6.47461Q7.64648-6.25 8.01758-6.25L10.8887-6.25L10.8887-3.36914Q10.8887-2.99805 11.1133-2.76855Q11.3379-2.53906 11.6895-2.53906Q12.0605-2.53906 12.29-2.76855Q12.5195-2.99805 12.5195-3.36914L12.5195-6.25L15.4004-6.25Q15.7715-6.25 16.001-6.47461Q16.2305-6.69922 16.2305-7.05078Q16.2305-7.42188 16.001-7.65137Q15.7715-7.88086 15.4004-7.88086L12.5195-7.88086L12.5195-10.752Q12.5195-11.1328 12.29-11.3623Q12.0605-11.5918 11.6895-11.5918Q11.3379-11.5918 11.1133-11.3574Q10.8887-11.123 10.8887-10.752L10.8887-7.88086L8.01758-7.88086Q7.63672-7.88086 7.40723-7.65137Q7.17773-7.42188 7.17773-7.05078Z"/>
  </g>
  <g transform="matrix(1 0 0 1 305.646 1933)">
   <path d="M14.9707 5.66406Q17.0605 5.66406 18.96 5.01465Q20.8594 4.36523 22.4512 3.19336Q24.043 2.02148 25.2197 0.429688Q26.3965-1.16211 27.0459-3.06641Q27.6953-4.9707 27.6953-7.05078Q27.6953-9.14062 27.0459-11.04Q26.3965-12.9395 25.2197-14.5312Q24.043-16.123 22.4512-17.2998Q20.8594-18.4766 18.9551-19.126Q17.0508-19.7754 14.9609-19.7754Q12.8711-19.7754 10.9717-19.126Q9.07227-18.4766 7.48535-17.2998Q5.89844-16.123 4.72168-14.5312Q3.54492-12.9395 2.90039-11.04Q2.25586-9.14062 2.25586-7.05078Q2.25586-4.9707 2.90527-3.06641Q3.55469-1.16211 4.72656 0.429688Q5.89844 2.02148 7.49023 3.19336Q9.08203 4.36523 10.9814 5.01465Q12.8809 5.66406 14.9707 5.66406ZM14.9707 3.84766Q13.1641 3.84766 11.5283 3.2959Q9.89258 2.74414 8.53516 1.74805Q7.17773 0.751953 6.17676-0.610352Q5.17578-1.97266 4.62891-3.6084Q4.08203-5.24414 4.08203-7.05078Q4.08203-8.86719 4.62891-10.5029Q5.17578-12.1387 6.17188-13.501Q7.16797-14.8633 8.52539-15.8594Q9.88281-16.8555 11.5186-17.4023Q13.1543-17.9492 14.9609-17.9492Q16.7773-17.9492 18.4131-17.4023Q20.0488-16.8555 21.4111-15.8594Q22.7734-14.8633 23.7695-13.501Q24.7656-12.1387 25.3174-10.5029Q25.8691-8.86719 25.8691-7.05078Q25.8789-5.24414 25.332-3.6084Q24.7852-1.97266 23.7842-0.610352Q22.7832 0.751953 21.4209 1.74805Q20.0586 2.74414 18.4229 3.2959Q16.7871 3.84766 14.9707 3.84766ZM9.19922-7.05078Q9.19922-6.66992 9.45801-6.4209Q9.7168-6.17188 10.1172-6.17188L14.0625-6.17188L14.0625-2.2168Q14.0625-1.81641 14.3115-1.55762Q14.5605-1.29883 14.9512-1.29883Q15.3516-1.29883 15.6104-1.55273Q15.8691-1.80664 15.8691-2.2168L15.8691-6.17188L19.8242-6.17188Q20.2246-6.17188 20.4785-6.4209Q20.7324-6.66992 20.7324-7.05078Q20.7324-7.46094 20.4785-7.71484Q20.2246-7.96875 19.8242-7.96875L15.8691-7.96875L15.8691-11.9141Q15.8691-12.3242 15.6104-12.583Q15.3516-12.8418 14.9512-12.8418Q14.5605-12.8418 14.3115-12.583Q14.0625-12.3242 14.0625-11.9141L14.0625-7.96875L10.1172-7.96875Q9.70703-7.96875 9.45312-7.71484Q9.19922-7.46094 9.19922-7.05078Z"/>
  </g>
  <text style="stroke:none;fill:black;font-family:sans-serif;font-size:13;font-weight:bold;" transform="matrix(1 0 0 1 263 1953)">Design Variations</text>
  <text style="stroke:none;fill:black;font-family:sans-serif;font-size:13;" transform="matrix(1 0 0 1 263 1971)">Symbols are supported in up to nine weights and three scales.</text>
  <text style="stroke:none;fill:black;font-family:sans-serif;font-size:13;" transform="matrix(1 0 0 1 263 1989)">For optimal layout with text and other symbols, vertically align</text>
  <text style="stroke:none;fill:black;font-family:sans-serif;font-size:13;" transform="matrix(1 0 0 1 263 2007)">symbols with the adjacent text.</text>
  <line style="fill:none;stroke:#00AEEF;stroke-width:0.5;opacity:1.0;" x1="776" x2="776" y1="1919" y2="1933"/>
  <g transform="matrix(1 0 0 1 776 1933)">
   <path d="M3.31055 0.15625Q3.70117 0.15625 3.91602-0.00976562Q4.13086-0.175781 4.26758-0.585938L5.52734-4.0332L11.2891-4.0332L12.5488-0.585938Q12.6855-0.175781 12.9004-0.00976562Q13.1152 0.15625 13.4961 0.15625Q13.8867 0.15625 14.1162-0.0585938Q14.3457-0.273438 14.3457-0.644531Q14.3457-0.869141 14.2383-1.17188L9.6582-13.3691Q9.48242-13.8184 9.17969-14.043Q8.87695-14.2676 8.4082-14.2676Q7.5-14.2676 7.17773-13.3789L2.59766-1.16211Q2.49023-0.859375 2.49023-0.634766Q2.49023-0.263672 2.70996-0.0537109Q2.92969 0.15625 3.31055 0.15625ZM6.00586-5.51758L8.37891-12.0898L8.42773-12.0898L10.8008-5.51758Z"/>
  </g>
  <line style="fill:none;stroke:#00AEEF;stroke-width:0.5;opacity:1.0;" x1="793.197" x2="793.197" y1="1919" y2="1933"/>
  <text style="stroke:none;fill:black;font-family:sans-serif;font-size:13;font-weight:bold;" transform="matrix(1 0 0 1 776 1953)">Margins</text>
  <text style="stroke:none;fill:black;font-family:sans-serif;font-size:13;" transform="matrix(1 0 0 1 776 1971)">Leading and trailing margins on the left and right side of each symbol</text>
  <text style="stroke:none;fill:black;font-family:sans-serif;font-size:13;" transform="matrix(1 0 0 1 776 1989)">can be adjusted by modifying the x-location of the margin guidelines.</text>
  <text style="stroke:none;fill:black;font-family:sans-serif;font-size:13;" transform="matrix(1 0 0 1 776 2007)">Modifications are automatically applied proportionally to all</text>
  <text style="stroke:none;fill:black;font-family:sans-serif;font-size:13;" transform="matrix(1 0 0 1 776 2025)">scales and weights.</text>
  <g transform="matrix(1 0 0 1 1289 1933)">
   <path d="M2.8418 1.86523L4.54102 3.57422Q5.18555 4.22852 5.90332 4.17969Q6.62109 4.13086 7.31445 3.35938L18.0078-8.42773L17.041-9.4043L6.42578 2.27539Q6.16211 2.57812 5.89355 2.61719Q5.625 2.65625 5.27344 2.30469L4.10156 1.14258Q3.75 0.791016 3.79395 0.522461Q3.83789 0.253906 4.14062-0.0195312L15.6152-10.8203L14.6387-11.7871L3.04688-0.898438Q2.30469-0.214844 2.25098 0.498047Q2.19727 1.21094 2.8418 1.86523ZM9.25781-16.3281Q8.94531-16.0254 8.90625-15.6348Q8.86719-15.2441 9.04297-14.9512Q9.21875-14.6777 9.55566-14.541Q9.89258-14.4043 10.3809-14.5215Q11.4746-14.7754 12.5977-14.7314Q13.7207-14.6875 14.7949-13.9844L14.209-12.5293Q13.9551-11.9043 14.0674-11.4404Q14.1797-10.9766 14.5801-10.5664L16.875-8.25195Q17.2363-7.88086 17.5781-7.82227Q17.9199-7.76367 18.3398-7.8418L19.4043-8.03711L20.0684-7.36328L20.0293-6.80664Q20-6.43555 20.1221-6.12305Q20.2441-5.81055 20.6055-5.44922L21.3672-4.70703Q21.7285-4.3457 22.1533-4.33105Q22.5781-4.31641 22.9297-4.66797L25.8398-7.58789Q26.1914-7.93945 26.1816-8.35449Q26.1719-8.76953 25.8105-9.13086L25.0391-9.89258Q24.6875-10.2539 24.3799-10.3857Q24.0723-10.5176 23.7109-10.4883L23.1348-10.4395L22.4902-11.0742L22.7344-12.1973Q22.832-12.6172 22.6953-12.9834Q22.5586-13.3496 22.1191-13.7891L19.9219-15.9766Q18.6719-17.2168 17.2607-17.8369Q15.8496-18.457 14.4189-18.4814Q12.9883-18.5059 11.665-17.959Q10.3418-17.4121 9.25781-16.3281ZM10.752-15.957Q11.6602-16.6211 12.7002-16.9043Q13.7402-17.1875 14.8047-17.085Q15.8691-16.9824 16.8701-16.5137Q17.8711-16.0449 18.7012-15.2051L21.1328-12.793Q21.3086-12.6172 21.3525-12.4512Q21.3965-12.2852 21.3379-12.0312L21.0156-10.5469L22.5195-9.0625L23.5059-9.12109Q23.6914-9.13086 23.7891-9.09668Q23.8867-9.0625 24.0332-8.91602L24.6094-8.33984L22.168-5.89844L21.5918-6.47461Q21.4453-6.62109 21.4062-6.71875Q21.3672-6.81641 21.377-7.01172L21.4453-7.98828L19.9512-9.47266L18.4277-9.21875Q18.1836-9.16992 18.042-9.2041Q17.9004-9.23828 17.7148-9.41406L15.7129-11.416Q15.5176-11.5918 15.4932-11.7529Q15.4688-11.9141 15.5859-12.1875L16.4648-14.2773Q15.293-15.3711 13.8281-15.791Q12.3633-16.2109 10.8398-15.7617Q10.7227-15.7324 10.6885-15.8057Q10.6543-15.8789 10.752-15.957Z"/>
  </g>
  <text style="stroke:none;fill:black;font-family:sans-serif;font-size:13;font-weight:bold;" transform="matrix(1 0 0 1 1289 1953)">Exporting</text>
  <text style="stroke:none;fill:black;font-family:sans-serif;font-size:13;" transform="matrix(1 0 0 1 1289 1971)">Symbols should be outlined when exporting to ensure the</text>
  <text style="stroke:none;fill:black;font-family:sans-serif;font-size:13;" transform="matrix(1 0 0 1 1289 1989)">design is preserved when submitting to Xcode.</text>
  <text id="template-version" style="stroke:none;fill:black;font-family:sans-serif;font-size:13;text-anchor:end;" transform="matrix(1 0 0 1 3036 1933)">Template v.3.0</text>
  <text style="stroke:none;fill:black;font-family:sans-serif;font-size:13;text-anchor:end;" transform="matrix(1 0 0 1 3036 1951)">Requires Xcode 13 or greater</text>
  <text id="descriptive-name" style="stroke:none;fill:black;font-family:sans-serif;font-size:13;text-anchor:end;" transform="matrix(1 0 0 1 3036 1969)">Generated from arrow.triangle.2.circlepath</text>
  <text style="stroke:none;fill:black;font-family:sans-serif;font-size:13;text-anchor:end;" transform="matrix(1 0 0 1 3036 1987)">Typeset at 100 points</text>
  <text style="stroke:none;fill:black;font-family:sans-serif;font-size:13;" transform="matrix(1 0 0 1 263 726)">Small</text>
  <text style="stroke:none;fill:black;font-family:sans-serif;font-size:13;" transform="matrix(1 0 0 1 263 1156)">Medium</text>
  <text style="stroke:none;fill:black;font-family:sans-serif;font-size:13;" transform="matrix(1 0 0 1 263 1586)">Large</text>
 </g>
 <g id="Guides">
  <g id="H-reference" style="fill:#27AAE1;stroke:none;" transform="matrix(1 0 0 1 339 696)">
   <path d="M0.993347 0L3.6377 0L29.3282-67.1326L30.0301-67.1326L30.0301-70.459L28.1227-70.459ZM11.6882-24.4797L46.9818-24.4797L46.2311-26.7288L12.4382-26.7288ZM55.1193 0L57.7637 0L30.6381-70.459L29.4327-70.459L29.4327-67.1326Z"/>
  </g>
  <line id="Baseline-S" style="fill:none;stroke:#27AAE1;opacity:1;stroke-width:0.5;" x1="263" x2="3036" y1="696" y2="696"/>
  <line id="Capline-S" style="fill:none;stroke:#27AAE1;opacity:1;stroke-width:0.5;" x1="263" x2="3036" y1="625.541" y2="625.541"/>
  <g id="H-reference" style="fill:#27AAE1;stroke:none;" transform="matrix(1 0 0 1 339 1126)">
   <path d="M0.993347 0L3.6377 0L29.3282-67.1326L30.0301-67.1326L30.0301-70.459L28.1227-70.459ZM11.6882-24.4797L46.9818-24.4797L46.2311-26.7288L12.4382-26.7288ZM55.1193 0L57.7637 0L30.6381-70.459L29.4327-70.459L29.4327-67.1326Z"/>
  </g>
  <line id="Baseline-M" style="fill:none;stroke:#27AAE1;opacity:1;stroke-width:0.5;" x1="263" x2="3036" y1="1126" y2="1126"/>
  <line id="Capline-M" style="fill:none;stroke:#27AAE1;opacity:1;stroke-width:0.5;" x1="263" x2="3036" y1="1055.54" y2="1055.54"/>
  <g id="H-reference" style="fill:#27AAE1;stroke:none;" transform="matrix(1 0 0 1 339 1556)">
   <path d="M0.993347 0L3.6377 0L29.3282-67.1326L30.0301-67.1326L30.0301-70.459L28.1227-70.459ZM11.6882-24.4797L46.9818-24.4797L46.2311-26.7288L12.4382-26.7288ZM55.1193 0L57.7637 0L30.6381-70.459L29.4327-70.459L29.4327-67.1326Z"/>
  </g>
  <line id="Baseline-L" style="fill:none;stroke:#27AAE1;opacity:1;stroke-width:0.5;" x1="263" x2="3036" y1="1556" y2="1556"/>
  <line id="Capline-L" style="fill:none;stroke:#27AAE1;opacity:1;stroke-width:0.5;" x1="263" x2="3036" y1="1485.54" y2="1485.54"/>
  <line id="left-margin-Regular-M" style="fill:none;stroke:#00AEEF;stroke-width:0.5;opacity:1.0;" x1="1381.42" x2="1381.42" y1="1030.79" y2="1150.12"/>
  <line id="right-margin-Regular-M" style="fill:none;stroke:#00AEEF;stroke-width:0.5;opacity:1.0;" x1="1518.27" x2="1518.27" y1="1030.79" y2="1150.12"/>
 </g>
 <g id="Symbols">
  <g id="Black-L" transform="matrix(1 0 0 1 2839.22 1556)">
   <path d="M13.3369-35.4248Q10.445-31.4636 11.5677-28.1608Q12.6903-24.8581 17.1947-24.8581L26.7988-24.8581Q28.5836-12.9911 34.4156-2.57437Q40.2477 7.8424 49.2703 15.7838Q58.2929 23.7251 69.7741 28.2266Q81.2553 32.7281 94.2592 32.7281Q106.615 32.7281 117.536 28.4234Q128.457 24.1188 136.676 17.0706Q140.59 13.9679 141.063 9.92399Q141.536 5.88009 139.468 2.90869Q137.284-0.354726 133.156-1.17295Q129.029-1.99118 124.184 1.57358Q118.183 6.63275 110.513 9.60665Q102.844 12.5805 94.2592 12.5805Q85.3729 12.5805 77.5571 9.67579Q69.7413 6.77104 63.5487 1.60131Q57.3561-3.56843 53.1709-10.3484Q48.9856-17.1284 47.3384-24.8581L57.0604-24.8581Q61.5648-24.8581 62.7458-28.1504Q63.9269-31.4427 60.9379-35.404L42.7886-60.1849Q40.4693-63.3752 37.1666-63.3272Q33.8638-63.2792 31.5457-60.1849ZM51.8635-87.508Q48.0091-84.3857 47.5361-80.3522Q47.0631-76.3187 49.0717-73.3681Q51.3359-70.1047 55.4633-69.2761Q59.5908-68.4475 64.3769-72.0122Q70.3989-77.0506 78.0874-80.0245Q85.776-82.9983 94.2592-82.9983Q103.226-82.9983 111.013-80.0936Q118.799-77.1888 125.021-72.0087Q131.243-66.8286 135.399-60.059Q139.555-53.2894 141.181-45.5597L131.226-45.5597Q126.8-45.5597 125.619-42.2862Q124.438-39.0127 127.368-34.993L145.518-10.2329Q147.874-7.0802 151.188-7.10941Q154.501-7.13861 156.761-10.2329L174.97-34.9721Q177.92-38.9542 176.798-42.257Q175.675-45.5597 171.112-45.5597L161.741-45.5597Q160.015-57.4267 154.183-67.8434Q148.35-78.2602 139.299-86.1912Q130.248-94.1221 118.796-98.634Q107.344-103.146 94.2592-103.146Q81.9827-103.146 71.072-98.8808Q60.1613-94.6158 51.8635-87.508Z"/>
  </g>
  <g id="Heavy-L" transform="matrix(1 0 0 1 2543.96 1556)">
   <path d="M13.1411-35.3499Q10.504-31.7438 11.5541-28.7715Q12.6043-25.7991 16.8013-25.7991L26.2347-25.7991Q27.8882-13.9001 33.6182-3.47449Q39.3482 6.95111 48.2867 14.8853Q57.2252 22.8195 68.5829 27.3001Q79.9406 31.7806 92.7747 31.7806Q105.631 31.7806 116.945 27.0497Q128.258 22.3188 136.616 14.5003Q139.987 11.6971 140.31 8.10824Q140.633 4.51935 138.649 1.95436Q136.581-0.833646 132.971-1.37321Q129.361-1.91278 125.323 1.19596Q119.002 7.10492 110.628 10.5718Q102.255 14.0387 92.7747 14.0387Q83.5382 14.0387 75.397 10.9635Q67.2558 7.88833 60.8194 2.41169Q54.383-3.06495 50.1109-10.2936Q45.8387-17.5223 44.3047-25.7991L54.0215-25.7991Q58.2186-25.7991 59.3133-28.7563Q60.408-31.7136 57.7064-35.3198L40.5419-58.9696Q38.4184-61.8869 35.446-61.8574Q32.4737-61.8279 30.3557-58.9696ZM48.9636-84.9526Q45.6431-82.1248 45.3198-78.551Q44.9964-74.9772 46.9305-72.4424Q49.0788-69.6544 52.6886-69.0998Q56.2985-68.5452 60.2927-71.6538Q66.644-77.5326 75.0246-80.9995Q83.4052-84.4664 92.7747-84.4664Q102.092-84.4664 110.21-81.3912Q118.329-78.316 124.788-72.8243Q131.247-67.3325 135.497-60.119Q139.746-52.9054 141.25-44.6286L131.355-44.6286Q127.233-44.6286 126.138-41.6786Q125.043-38.7285 127.695-35.0778L144.865-11.4581Q146.997-8.55523 149.987-8.57754Q152.978-8.59985 155.051-11.4581L172.266-35.0476Q174.947-38.6839 173.897-41.6563Q172.847-44.6286 168.605-44.6286L159.345-44.6286Q157.742-56.5276 152.009-66.9532Q146.276-77.3788 137.318-85.2979Q128.36-93.217 117.025-97.7127Q105.689-102.208 92.7747-102.208Q79.9937-102.208 68.6948-97.5148Q57.3959-92.8213 48.9636-84.9526Z"/>
  </g>
  <g id="Bold-L" transform="matrix(1 0 0 1 2249.01 1556)">
   <path d="M12.8953-35.2875Q10.5807-32.127 11.535-29.5656Q12.4892-27.0043 16.2649-27.0043L25.5876-27.0043Q27.0648-15.0668 32.6606-4.62594Q38.2563 5.81489 47.0874 13.7451Q55.9184 21.6754 67.1299 26.1365Q78.3414 30.5975 90.983 30.5975Q104.409 30.5975 116.162 25.3738Q127.916 20.1501 136.413 11.4458Q139.122 9.03382 139.283 6.02085Q139.445 3.00788 137.605 0.934976Q135.72-1.28372 132.748-1.52229Q129.776-1.76087 126.684 0.786939Q119.979 7.71879 110.759 11.7853Q101.54 15.8518 90.983 15.8518Q81.301 15.8518 72.749 12.5579Q64.1969 9.26396 57.4571 3.39584Q50.7173-2.47229 46.3412-10.2617Q41.9652-18.0512 40.5845-27.0043L50.4427-27.0043Q54.2184-27.0043 55.2018-29.5466Q56.1853-32.0889 53.8373-35.2496L37.8198-57.5753Q35.9422-60.147 33.3809-60.1369Q30.8195-60.1267 28.9549-57.5753ZM45.5912-81.8986Q42.9241-79.4619 42.7628-76.4679Q42.6016-73.4738 44.3988-71.4391Q46.3638-69.2204 49.3358-68.9628Q52.3078-68.7053 55.3707-71.2529Q62.1143-78.1469 71.3294-82.2134Q80.5444-86.2799 90.983-86.2799Q100.745-86.2799 109.283-82.986Q117.82-79.6921 124.574-73.8049Q131.329-67.9177 135.69-60.1473Q140.052-52.3769 141.394-43.4238L131.419-43.4238Q127.711-43.4238 126.727-40.8771Q125.744-38.3303 128.05-35.1406L144.08-12.8528Q145.936-10.2722 148.523-10.2868Q151.11-10.3014 152.945-12.8528L169.005-35.1025Q171.349-38.3011 170.394-40.8625Q169.44-43.4238 165.635-43.4238L156.416-43.4238Q154.981-55.3613 149.379-65.8022Q143.776-76.243 134.937-84.1542Q126.098-92.0654 114.902-96.5455Q103.705-101.026 90.983-101.026Q77.6241-101.026 65.8896-95.8354Q54.1551-90.6452 45.5912-81.8986Z"/>
  </g>
  <g id="Semibold-L" transform="matrix(1 0 0 1 1953.52 1556)">
   <path d="M12.7259-35.2444Q10.6336-32.3911 11.5218-30.1131Q12.4099-27.8351 15.8951-27.8351L25.1416-27.8351Q26.4972-15.8711 32.0004-5.41974Q37.5036 5.03159 46.2606 12.9591Q55.0175 20.8866 66.1282 25.3343Q77.2389 29.782 89.7477 29.782Q103.567 29.782 115.623 24.2184Q127.679 18.6549 136.272 9.33998Q138.526 7.19776 138.575 4.58182Q138.625 1.96587 136.885 0.232218Q135.127-1.59399 132.594-1.62507Q130.062-1.65614 127.623 0.504961Q120.652 8.14198 110.849 12.6219Q101.047 17.1018 89.7477 17.1018Q79.7587 17.1018 70.9235 13.6571Q62.0882 10.2123 55.1391 4.0743Q48.1901-2.06371 43.7425-10.2397Q39.2948-18.4158 38.0199-27.8351L47.9754-27.8351Q51.4607-27.8351 52.3674-30.0914Q53.2741-32.3476 51.1699-35.2012L35.9432-56.6141Q34.2352-58.9476 31.9572-58.9508Q29.6792-58.954 27.9891-56.6141ZM43.2663-79.7932Q41.0496-77.6261 41.0001-75.0318Q40.9506-72.4374 42.6535-70.7473Q44.4921-68.9211 47.0244-68.8684Q49.5566-68.8157 51.9775-70.9765Q58.9916-78.5703 68.7819-83.0503Q78.5721-87.5302 89.7477-87.5302Q99.8168-87.5302 108.643-84.0854Q117.469-80.6407 124.427-74.4809Q131.385-68.3211 135.824-60.1668Q140.262-52.0126 141.494-42.5932L131.464-42.5932Q128.041-42.5932 127.134-40.3245Q126.227-38.0558 128.294-35.1839L143.539-13.8143Q145.204-11.4558 147.513-11.4651Q149.822-11.4744 151.494-13.8143L166.757-35.1404Q168.868-38.0372 167.98-40.3152Q167.091-42.5932 163.588-42.5932L154.397-42.5932Q153.078-54.5573 147.566-65.0086Q142.053-75.4599 133.296-83.3657Q124.539-91.2715 113.438-95.7409Q102.337-100.21 89.7477-100.21Q75.9905-100.21 63.9557-94.6777Q51.921-89.1451 43.2663-79.7932Z"/>
  </g>
  <g id="Medium-L" transform="matrix(1 0 0 1 1657.73 1556)">
   <path d="M12.5974-35.2118Q10.6737-32.5914 11.5117-30.5283Q12.3498-28.4651 15.6148-28.4651L24.8034-28.4651Q26.0668-16.4809 31.4998-6.02164Q36.9328 4.43765 45.6336 12.3631Q54.3345 20.2885 65.3687 24.726Q76.403 29.1635 88.8111 29.1635Q102.928 29.1635 115.214 23.3424Q127.5 17.5213 136.166 7.74327Q138.074 5.80557 138.039 3.49068Q138.004 1.17578 136.339-0.300643Q134.677-1.82926 132.478-1.70299Q130.279-1.57673 128.334 0.291153Q121.163 8.46286 110.918 13.2562Q100.673 18.0496 88.8111 18.0496Q78.5893 18.0496 69.5393 14.4905Q60.4893 10.9314 53.3816 4.58874Q46.2739-1.75391 41.772-10.2231Q37.27-18.6922 36.0753-28.4651L46.1047-28.4651Q49.3697-28.4651 50.2182-30.5044Q51.0668-32.5438 49.1474-35.1645L34.5203-55.8853Q32.9408-58.0381 30.8777-58.0514Q28.8145-58.0647 27.2569-55.8853ZM41.5035-78.1968Q39.6283-76.2341 39.6635-73.9429Q39.6988-71.6516 41.3301-70.2228Q43.0729-68.6942 45.2718-68.7968Q47.4706-68.8995 49.4046-70.767Q56.6239-78.8914 66.8503-83.6848Q77.0767-88.4782 88.8111-88.4782Q99.113-88.4782 108.158-84.9191Q117.203-81.3599 124.315-74.9935Q131.428-68.627 135.925-60.1817Q140.422-51.7363 141.569-41.9634L131.497-41.9634Q128.291-41.9634 127.442-39.9056Q126.593-37.8477 128.48-35.2168L143.129-14.5433Q144.65-12.3533 146.748-12.3586Q148.846-12.3638 150.393-14.5433L165.052-35.1691Q166.987-37.8372 166.149-39.9003Q165.31-41.9634 162.035-41.9634L152.866-41.9634Q151.636-53.9476 146.191-64.4069Q140.747-74.8662 132.052-82.7678Q123.357-90.6695 112.328-95.1308Q101.299-99.5921 88.8111-99.5921Q74.7519-99.5921 62.4894-93.7999Q50.227-88.0076 41.5035-78.1968Z"/>
  </g>
  <g id="Regular-L" transform="matrix(1 0 0 1 1362.21 1556)">
   <path d="M12.4299-35.1692Q10.726-32.8526 11.4987-31.0697Q12.2713-29.2868 15.249-29.2868L24.3622-29.2868Q25.5054-17.2764 30.8469-6.80672Q36.1884 3.66296 44.8159 11.5857Q53.4435 19.5084 64.378 23.9327Q75.3126 28.3569 87.5895 28.3569Q102.095 28.3569 114.681 22.1998Q127.267 16.0426 136.027 5.66061Q137.484 3.98968 137.339 2.06746Q137.193 0.145234 135.628-0.995678Q134.09-2.13613 132.326-1.80464Q130.562-1.47315 129.263 0.012274Q121.829 8.8814 111.007 14.0836Q100.185 19.2858 87.5895 19.2858Q77.064 19.2858 67.7338 15.5776Q58.4037 11.8693 51.0891 5.25975Q43.7745-1.34982 39.2018-10.2013Q34.629-19.0529 33.5388-29.2868L43.6646-29.2868Q46.6423-29.2868 47.415-31.0432Q48.1876-32.7996 46.5094-35.1167L32.6644-54.9346Q31.2525-56.8518 29.4696-56.8783Q27.6867-56.9048 26.3018-54.9346ZM39.2041-76.1145Q37.7744-74.4185 37.9202-72.5225Q38.0659-70.6266 39.6039-69.5387Q41.2218-68.3982 42.9857-68.7034Q44.7496-69.0087 46.0486-70.4936Q53.5355-79.3102 64.3308-84.5124Q75.1261-89.7147 87.5895-89.7147Q98.1949-89.7147 107.525-86.0064Q116.855-82.2981 124.17-75.6621Q131.484-69.026 136.057-60.201Q140.63-51.376 141.668-41.142L131.541-41.142Q128.617-41.142 127.844-39.3591Q127.071-37.5762 128.722-35.2596L142.595-15.4942Q143.926-13.524 145.749-13.524Q147.572-13.524 148.957-15.4942L162.829-35.2066Q164.533-37.5762 163.76-39.3591Q162.988-41.142 160.01-41.142L150.869-41.142Q149.754-53.1524 144.398-63.6221Q139.043-74.0918 130.429-81.988Q121.815-89.8842 110.881-94.335Q99.9463-98.7857 87.5895-98.7857Q73.1363-98.7857 60.5768-92.6548Q48.0174-86.5239 39.2041-76.1145Z"/>
  </g>
  <g id="Light-L" transform="matrix(1 0 0 1 1066.44 1556)">
   <path d="M12.2391-35.3218Q10.8023-33.349 11.47-31.8619Q12.1376-30.3748 14.5619-30.3748L24.2477-30.3748Q25.1809-18.3451 30.3792-7.8373Q35.5775 2.67053 44.1097 10.622Q52.6418 18.5734 63.5192 23.0262Q74.3965 27.479 86.6544 27.479Q101.237 27.479 113.822 21.2073Q126.408 14.9357 135.054 4.38184Q136.129 3.11173 136.022 1.66664Q135.914 0.22155 134.711-0.652256Q133.555-1.52528 132.211-1.27027Q130.867-1.01526 129.893 0.107829Q122.268 9.49225 111.026 15.0379Q99.7845 20.5835 86.6544 20.5835Q75.747 20.5835 66.0829 16.6749Q56.4188 12.7662 48.8848 5.8132Q41.3507-1.13979 36.7301-10.4112Q32.1096-19.6826 31.2105-30.3748L42.3858-30.3748Q44.8101-30.3748 45.4777-31.8449Q46.1454-33.3149 44.6964-35.2885L31.1756-54.6864Q29.9548-56.3173 28.4677-56.3344Q26.9806-56.3514 25.8054-54.6864ZM38.288-74.7213Q37.2591-73.4642 37.3667-72.0358Q37.4743-70.6073 38.6307-69.7676Q39.8667-68.8946 41.2107-69.133Q42.5548-69.3713 43.5292-70.4936Q51.188-79.8448 62.4126-85.3904Q73.6373-90.936 86.6544-90.936Q97.6415-90.936 107.306-87.0274Q116.97-83.1187 124.504-76.1487Q132.038-69.1786 136.658-59.9242Q141.279-50.6699 142.145-39.9777L130.969-39.9777Q128.578-39.9777 127.911-38.4906Q127.243-37.0035 128.646-35.0307L142.213-15.6661Q143.353-14.0011 144.881-14.0011Q146.408-14.0011 147.583-15.6661L161.149-34.9966Q162.586-37.0035 161.919-38.4906Q161.251-39.9777 158.827-39.9777L149.094-39.9777Q148.208-52.0074 142.986-62.5152Q137.764-73.023 129.255-80.9574Q120.747-88.8918 109.869-93.3616Q98.992-97.8315 86.6544-97.8315Q72.1057-97.8315 59.5366-91.5765Q46.9675-85.3215 38.288-74.7213Z"/>
  </g>
  <g id="Thin-L" transform="matrix(1 0 0 1 770.965 1556)">
   <path d="M11.9867-35.5237Q10.9033-34.0055 11.432-32.9096Q11.9608-31.8138 13.653-31.8138L24.0963-31.8138Q24.7517-19.7586 29.7607-9.20034Q34.7696 1.35796 43.1756 9.34736Q51.5816 17.3368 62.3832 21.8273Q73.1849 26.3178 85.4178 26.3178Q100.101 26.3178 112.687 19.8948Q125.272 13.4717 133.767 2.69055Q134.337 1.95056 134.28 1.13652Q134.223 0.322484 133.5-0.198052Q132.848-0.717379 132.059-0.563515Q131.271-0.409651 130.725 0.234209Q122.849 10.3001 111.051 16.3Q99.2544 22.2998 85.4178 22.2998Q74.0053 22.2998 63.8995 18.1261Q53.7937 13.9524 45.9693 6.54519Q38.145-0.862009 33.4612-10.6888Q28.7775-20.5155 28.1312-31.8138L40.6945-31.8138Q42.3868-31.8138 42.9156-32.9051Q43.4443-33.9964 42.2985-35.5158L29.2065-54.3582Q28.2385-55.6103 27.1426-55.6149Q26.0468-55.6194 25.1489-54.3582ZM37.0763-72.8786Q36.5776-72.2021 36.6347-71.392Q36.6919-70.5819 37.3436-70.0704Q38.0745-69.5511 38.8632-69.701Q39.6518-69.851 40.1971-70.4936Q48.0832-80.5517 59.8757-86.5516Q71.6682-92.5514 85.4178-92.5514Q96.9095-92.5514 107.015-88.3777Q117.121-84.2039 124.945-76.7922Q132.77-69.3805 137.454-59.5583Q142.137-49.736 142.776-38.4378L130.211-38.4378Q128.528-38.4378 127.999-37.3419Q127.47-36.2461 128.545-34.7279L141.708-15.8934Q142.596-14.6322 143.732-14.6322Q144.868-14.6322 145.766-15.8934L158.928-34.7188Q160.012-36.2461 159.483-37.3419Q158.954-38.4378 157.262-38.4378L146.747-38.4378Q146.163-50.4929 141.118-61.0512Q136.073-71.6095 127.703-79.5944Q119.333-87.5793 108.532-92.0743Q97.7299-96.5694 85.4178-96.5694Q70.7426-96.5694 58.1608-90.1502Q45.579-83.7311 37.0763-72.8786Z"/>
  </g>
  <g id="Ultralight-L" transform="matrix(1 0 0 1 474.887 1556)">
   <path d="M11.8575-35.6271Q10.955-34.3418 11.4126-33.4463Q11.8702-32.5508 13.1876-32.5508L24.0188-32.5508Q24.5319-20.4826 29.4439-9.89848Q34.3558 0.685671 42.6972 8.69451Q51.0385 16.7033 61.8014 21.2132Q72.5643 25.7231 84.7844 25.7231Q99.5191 25.7231 112.105 19.2225Q124.691 12.7219 133.108 1.82429Q133.419 1.35582 133.388 0.865Q133.357 0.374182 132.879 0.0345885Q132.486-0.303578 131.982-0.201521Q131.478-0.099463 131.152 0.29894Q123.146 10.714 111.064 16.9464Q98.9829 23.1789 84.7844 23.1789Q73.1132 23.1789 62.7812 18.8694Q52.4491 14.5599 44.4761 6.92011Q36.503-0.71973 31.7869-10.8309Q27.0708-20.9422 26.554-32.5508L39.8283-32.5508Q41.1456-32.5508 41.6032-33.4481Q42.0608-34.3455 41.0704-35.6323L28.198-54.19Q27.3594-55.2482 26.4639-55.2464Q25.5685-55.2445 24.8127-54.19ZM36.4558-71.9348Q36.2285-71.5557 36.2598-71.0623Q36.2911-70.5689 36.6843-70.2255Q37.1565-69.8874 37.6608-69.992Q38.165-70.0967 38.4905-70.4936Q46.4929-80.9138 58.5763-87.1463Q70.6597-93.3788 84.7844-93.3788Q96.5346-93.3788 106.867-89.0693Q117.199-84.7598 125.172-77.1218Q133.145-69.4839 137.861-59.3708Q142.577-49.2577 143.099-37.6491L129.823-37.6491Q128.502-37.6491 128.044-36.7536Q127.587-35.8581 128.493-34.5728L141.45-16.0098Q142.208-14.9554 143.144-14.9554Q144.079-14.9554 144.835-16.0098L157.79-34.5765Q158.693-35.8581 158.235-36.7536Q157.778-37.6491 156.46-37.6491L145.545-37.6491Q145.116-49.7172 140.161-60.3014Q135.206-70.8855 126.908-78.8962Q118.609-86.907 107.846-91.4149Q97.0834-95.9229 84.7844-95.9229Q70.0445-95.9229 57.4562-89.4197Q44.8679-82.9166 36.4558-71.9348Z"/>
  </g>
  <g id="Black-M" transform="matrix(1 0 0 1 2859.31 1126)">
   <path d="M10.475-35.4659Q8.0518-32.1382 8.9697-29.3356Q9.8876-26.533 13.5664-26.533L21.2314-26.533Q22.6986-17.3641 27.2852-9.29624Q31.8718-1.22835 38.9214 4.93418Q45.9709 11.0967 54.9643 14.6061Q63.9577 18.1155 74.1757 18.1155Q83.3288 18.1155 91.4522 15.1313Q99.5756 12.147 105.808 7.32531Q109.255 4.71839 109.756 1.259Q110.256-2.20038 108.631-4.81554Q106.891-7.71619 103.305-8.59995Q99.7196-9.48371 95.318-6.37912Q90.9176-3.12009 85.5234-1.19325Q80.1292 0.733586 74.1757 0.733586Q67.5404 0.733586 61.7196-1.39752Q55.8988-3.52863 51.2809-7.31661Q46.663-11.1046 43.4886-16.0286Q40.3143-20.9527 38.9668-26.533L46.6456-26.533Q50.3244-26.533 51.2994-29.3329Q52.2744-32.1328 49.7427-35.4604L34.8793-55.5743Q32.94-58.2418 30.1374-58.1875Q27.3348-58.1331 25.3953-55.5743ZM42.5489-77.7393Q39.1583-75.1266 38.658-71.67Q38.1577-68.2133 39.7262-65.6037Q41.5283-62.703 45.114-61.8165Q48.6996-60.93 53.0441-64.0346Q57.45-67.2881 62.87-69.215Q68.29-71.1418 74.1757-71.1418Q80.8733-71.1418 86.6656-69.0107Q92.4579-66.8796 97.1043-63.0889Q101.751-59.2982 104.897-54.3769Q108.042-49.4556 109.384-43.8752L101.477-43.8752Q97.861-43.8752 96.886-41.1011Q95.911-38.3271 98.3858-34.9423L113.249-14.8339Q115.24-12.218 118.045-12.2466Q120.851-12.2751 122.733-14.8339L137.653-34.9368Q140.134-38.27 139.216-41.0726Q138.298-43.8752 134.562-43.8752L127.126-43.8752Q125.715-53.0441 121.129-61.112Q116.542-69.1799 109.464-75.3397Q102.386-81.4995 93.4209-85.0116Q84.4561-88.5237 74.1757-88.5237Q65.0853-88.5237 56.9646-85.5708Q48.8439-82.6179 42.5489-77.7393Z"/>
  </g>
  <g id="Heavy-M" transform="matrix(1 0 0 1 2563.93 1126)">
   <path d="M10.3012-35.3786Q8.10245-32.3664 8.95911-29.8595Q9.81578-27.3525 13.2452-27.3525L20.6905-27.3525Q22.0487-18.1541 26.5488-10.0811Q31.0489-2.00809 38.025 4.14481Q45.0012 10.2977 53.8791 13.784Q62.757 17.2702 72.8108 17.2702Q82.4456 17.2702 90.9531 13.8799Q99.4606 10.4896 105.839 4.93066Q108.791 2.57956 109.141-0.479036Q109.492-3.53763 107.915-5.78014Q106.253-8.24072 103.135-8.84502Q100.017-9.44932 96.3726-6.75708Q91.6771-2.71487 85.6338-0.337775Q79.5904 2.03932 72.8108 2.03932Q65.8683 2.03932 59.7602-0.239916Q53.6521-2.51915 48.8161-6.57546Q43.9802-10.6318 40.7253-15.9557Q37.4705-21.2796 36.216-27.3525L43.7928-27.3525Q47.2223-27.3525 48.1226-29.8513Q49.0228-32.35 46.751-35.3622L32.8203-54.4092Q31.0549-56.8362 28.5479-56.8008Q26.041-56.7654 24.2777-54.4092ZM39.7986-75.3698Q36.8929-73.0045 36.5424-69.9541Q36.192-66.9037 37.7229-64.6776Q39.4468-62.2171 42.5652-61.6046Q45.6837-60.9921 49.284-63.6843Q53.9959-67.7101 60.0528-70.0872Q66.1098-72.4643 72.8108-72.4643Q79.8155-72.4643 85.9018-70.185Q91.9881-67.9058 96.8459-63.8413Q101.704-59.7767 104.937-54.4611Q108.17-49.1454 109.408-43.0724L101.656-43.0724Q98.2871-43.0724 97.3868-40.5873Q96.4865-38.1021 98.7125-35.0464L112.645-16.0158Q114.436-13.6159 116.952-13.6378Q119.468-13.6596 121.188-16.0158L135.164-35.0299Q137.407-38.0585 136.55-40.5655Q135.694-43.0724 132.22-43.0724L124.947-43.0724Q123.635-52.2709 119.134-60.3439Q114.633-68.4169 107.636-74.5615Q100.639-80.7062 91.7829-84.2007Q82.9269-87.6952 72.8108-87.6952Q63.2359-87.6952 54.7366-84.3349Q46.2374-80.9746 39.7986-75.3698Z"/>
  </g>
  <g id="Bold-M" transform="matrix(1 0 0 1 2268.72 1126)">
   <path d="M10.1068-35.2809Q8.1591-32.6217 8.94728-30.4455Q9.73545-28.2693 12.886-28.2693L20.0855-28.2693Q21.3218-19.0378 25.725-10.9591Q30.1283-2.88034 37.0223 3.26178Q43.9163 9.40391 52.6651 12.8643Q61.4138 16.3247 71.2839 16.3247Q81.4578 16.3247 90.3948 12.4801Q99.3319 8.63548 105.874 2.2519Q108.271 0.186972 108.454-2.42328Q108.637-5.03354 107.115-6.85918Q105.54-8.82748 102.944-9.11916Q100.349-9.41084 97.5522-7.17989Q92.5267-2.26156 85.7572 0.619201Q78.9877 3.49996 71.2839 3.49996Q63.9978 3.49996 57.5683 1.05504Q51.1388-1.38989 46.0589-5.74638Q40.9791-10.1029 37.6342-15.8741Q34.2893-21.6453 33.1388-28.2693L40.6015-28.2693Q43.7521-28.2693 44.5688-30.4312Q45.3856-32.593 43.4043-35.2523L30.5171-53.1058Q28.9461-55.2638 26.7698-55.2496Q24.5936-55.2354 23.0276-53.1058ZM36.722-72.7191Q34.3587-70.6306 34.1759-68.0347Q33.9931-65.4387 35.4818-63.6417Q37.1184-61.6734 39.7141-61.3675Q42.3099-61.0615 45.0778-63.2924Q50.132-68.1821 56.9014-71.0629Q63.6709-73.9436 71.2839-73.9436Q78.6322-73.9436 85.0474-71.4987Q91.4626-69.0538 96.5568-64.6829Q101.651-60.3121 104.982-54.5552Q108.312-48.7984 109.434-42.1744L101.857-42.1744Q98.7637-42.1744 97.947-40.0124Q97.1303-37.8505 99.0779-35.1628L111.97-17.3379Q113.536-15.1797 115.729-15.194Q117.922-15.2083 119.46-17.3379L132.38-35.1341Q134.357-37.822 133.569-39.9982Q132.78-42.1744 129.601-42.1744L122.511-42.1744Q121.308-51.4059 116.902-59.4846Q112.497-67.5633 105.591-73.6911Q98.6851-79.8189 89.9507-83.2936Q81.2162-86.7683 71.2839-86.7683Q61.1671-86.7683 52.2444-82.9523Q43.3216-79.1363 36.722-72.7191Z"/>
  </g>
  <g id="Semibold-M" transform="matrix(1 0 0 1 1973.04 1126)">
   <path d="M9.97283-35.2135Q8.19816-32.7977 8.93912-30.8495Q9.68007-28.9012 12.6384-28.9012L19.6684-28.9012Q20.8206-19.647 25.1571-11.5643Q29.4936-3.48167 36.331 2.65303Q43.1684 8.78773 51.8281 12.2303Q60.4878 15.6728 70.2313 15.6728Q80.7767 15.6728 90.01 11.515Q99.2432 7.35726 105.898 0.405184Q107.913-1.46246 107.98-3.76364Q108.048-6.06481 106.563-7.60307Q105.049-9.23199 102.813-9.30815Q100.578-9.38432 98.3655-7.47138Q93.1125-1.94905 85.8423 1.27894Q78.5722 4.50692 70.2313 4.50692Q62.7083 4.50692 56.0572 1.94777Q49.4062-0.611388 44.1582-5.17482Q38.9101-9.73826 35.5031-15.8178Q32.0962-21.8974 31.0173-28.9012L38.4015-28.9012Q41.3598-28.9012 42.1189-30.8309Q42.878-32.7606 41.0971-35.1765L28.9292-52.2073Q27.4923-54.1798 25.544-54.1802Q23.5958-54.1806 22.1658-52.2073ZM34.601-70.8917Q32.6116-68.9941 32.5444-66.7114Q32.4771-64.4287 33.9368-62.9276Q35.5132-61.2987 37.7486-61.204Q39.984-61.1093 42.1781-63.0222Q47.4682-68.5075 54.7289-71.7355Q61.9895-74.9635 70.2313-74.9635Q77.8164-74.9635 84.4584-72.4043Q91.1004-69.8452 96.3575-65.2632Q101.615-60.6812 105.012-54.6202Q108.41-48.5592 109.452-41.5553L101.995-41.5553Q99.0923-41.5553 98.3332-39.6162Q97.5741-37.677 99.3298-35.2431L111.505-18.2493Q112.916-16.2578 114.886-16.2669Q116.856-16.2759 118.268-18.2493L130.461-35.206Q132.254-37.6589 131.513-39.6071Q130.772-41.5553 127.796-41.5553L120.831-41.5553Q119.704-50.8096 115.364-58.8922Q111.024-66.9749 104.181-73.091Q97.3381-79.2072 88.6875-82.6683Q80.0369-86.1294 70.2313-86.1294Q59.7409-86.1294 50.5262-81.9992Q41.3115-77.869 34.601-70.8917Z"/>
  </g>
  <g id="Medium-M" transform="matrix(1 0 0 1 1677.11 1126)">
   <path d="M9.87121-35.1624Q8.22778-32.9311 8.93293-31.1558Q9.63808-29.3804 12.4506-29.3804L19.3522-29.3804Q20.4407-20.1089 24.7265-12.0233Q29.0124-3.93762 35.8069 2.19145Q42.6014 8.32052 51.1935 11.7495Q59.7857 15.1786 69.4331 15.1786Q80.2603 15.1786 89.7181 10.7833Q99.1759 6.38807 105.917-0.995077Q107.641-2.71314 107.621-4.77995Q107.601-6.84676 106.144-8.16711Q104.676-9.5387 102.714-9.45145Q100.751-9.3642 98.9821-7.69239Q93.5566-1.7121 85.9068 1.77917Q78.2571 5.27044 69.4331 5.27044Q61.7305 5.27044 54.9115 2.62467Q48.0925-0.0210954 42.7169-4.74144Q37.3414-9.46179 33.8873-15.7752Q30.4332-22.0886 29.4088-29.3804L36.7334-29.3804Q39.5459-29.3804 40.2613-31.134Q40.9767-32.8876 39.3477-35.1191L27.7253-51.526Q26.3899-53.3579 24.6146-53.3694Q22.8393-53.3809 21.5123-51.526ZM32.9928-69.5061Q31.2869-67.7532 31.3073-65.7081Q31.3277-63.6629 32.7654-62.3861Q34.296-61.0145 36.2583-61.0801Q38.2205-61.1456 39.9794-62.8173Q45.4484-68.7542 53.0815-72.2455Q60.7146-75.7368 69.4331-75.7368Q77.1979-75.7368 84.0118-73.091Q90.8257-70.4452 96.2064-65.7032Q101.587-60.9611 105.036-54.6694Q108.485-48.3778 109.466-41.0859L102.1-41.0859Q99.3414-41.0859 98.626-39.3157Q97.9106-37.5455 99.5208-35.3039L111.152-18.9404Q112.445-17.0752 114.247-17.0803Q116.048-17.0855 117.365-18.9404L129.006-35.2604Q130.66-37.5352 129.954-39.3106Q129.249-41.0859 126.426-41.0859L119.557-41.0859Q118.488-50.3574 114.198-58.4431Q109.907-66.5287 103.112-72.636Q96.3168-78.7434 87.7297-82.1941Q79.1427-85.6449 69.4331-85.6449Q58.6595-85.6449 49.2234-81.2765Q39.7873-76.908 32.9928-69.5061Z"/>
  </g>
  <g id="Regular-M" transform="matrix(1 0 0 1 1381.42 1126)">
   <path d="M9.73866-35.0958Q8.26641-33.1052 8.92486-31.5553Q9.5833-30.0055 12.2057-30.0055L18.9396-30.0055Q19.945-20.7114 24.1649-12.6219Q28.3848-4.53234 35.1232 1.58938Q41.8617 7.71111 50.3658 11.1225Q58.8699 14.5339 68.3921 14.5339Q79.5868 14.5339 89.3375 9.82889Q99.0882 5.1239 105.941-2.8215Q107.287-4.34445 107.153-6.10557Q107.018-7.8667 105.598-8.90282Q104.189-9.93877 102.584-9.63837Q100.978-9.33797 99.7864-7.98067Q94.1358-1.40302 85.991 2.43166Q77.8462 6.26634 68.3921 6.26634Q60.4552 6.26634 53.417 3.5076Q46.3789 0.748852 40.837-4.17616Q35.2952-9.10117 31.7797-15.7195Q28.2642-22.3379 27.3107-30.0055L34.5575-30.0055Q37.1799-30.0055 37.8383-31.5294Q38.4967-33.0533 37.0659-35.0441L26.1549-50.6373Q24.9521-52.2858 23.4023-52.3118Q21.8524-52.3377 20.66-50.6373ZM30.8951-67.6988Q29.5591-66.1347 29.6937-64.3994Q29.8284-62.6641 31.2374-61.6798Q32.7085-60.6438 34.3143-60.9184Q35.9202-61.193 37.1115-62.5501Q42.8139-69.0761 50.9328-72.9108Q59.0517-76.7454 68.3921-76.7454Q76.3911-76.7454 83.4292-73.9867Q90.4674-71.228 96.0092-66.277Q101.551-61.3261 105.067-54.7336Q108.582-48.1412 109.484-40.4736L102.237-40.4736Q99.6664-40.4736 99.008-38.9238Q98.3495-37.3739 99.7699-35.3833L110.691-19.8418Q111.832-18.1414 113.413-18.1414Q114.994-18.1414 116.186-19.8418L127.108-35.3314Q128.58-37.3739 127.921-38.9238Q127.263-40.4736 124.641-40.4736L117.896-40.4736Q116.901-49.7677 112.676-57.8572Q108.451-65.9468 101.718-72.0426Q94.9845-78.1384 86.4804-81.5757Q77.9764-85.013 68.3921-85.013Q57.249-85.013 47.5242-80.3338Q37.7993-75.6547 30.8951-67.6988Z"/>
  </g>
  <g id="Light-M" transform="matrix(1 0 0 1 1085.55 1126)">
   <path d="M9.56761-35.2326Q8.33483-33.5502 8.89913-32.2656Q9.46342-30.9809 11.5896-30.9809L18.837-30.9809Q19.6541-21.6696 23.7456-13.5459Q27.8371-5.42211 34.49 0.725348Q41.143 6.8728 49.5958 10.3098Q58.0486 13.7467 67.5538 13.7467Q78.8169 13.7467 88.5676 8.93912Q98.3183 4.13151 105.068-3.96799Q106.072-5.13158 105.972-6.46493Q105.871-7.79828 104.777-8.59492Q103.71-9.39111 102.481-9.15928Q101.251-8.92744 100.351-7.895Q94.5294-0.855365 86.0081 3.28721Q77.4868 7.42979 67.5538 7.42979Q59.2745 7.42979 51.9369 4.49137Q44.5993 1.55295 38.8607-3.67996Q33.1221-8.91287 29.5638-15.9077Q26.0055-22.9025 25.2233-30.9809L33.411-30.9809Q35.5372-30.9809 36.1015-32.2481Q36.6658-33.5153 35.4404-35.1982L24.8201-50.4148Q23.7887-51.8066 22.504-51.824Q21.2194-51.8415 20.2149-50.4148ZM30.0738-66.4497Q29.0971-65.2791 29.1975-63.963Q29.298-62.6468 30.3649-61.8851Q31.4936-61.0889 32.723-61.3035Q33.9523-61.5181 34.8527-62.5501Q40.7093-69.5553 49.2131-73.6979Q57.7169-77.8405 67.5538-77.8405Q75.8949-77.8405 83.2325-74.902Q90.57-71.9636 96.3087-66.7133Q102.047-61.4629 105.606-54.4855Q109.164-47.5082 109.912-39.4298L101.723-39.4298Q99.6322-39.4298 99.0679-38.1451Q98.5036-36.8605 99.7015-35.178L110.349-19.9959Q111.318-18.5692 112.634-18.5692Q113.95-18.5692 114.954-19.9959L125.602-35.1431Q126.835-36.8605 126.27-38.1451Q125.706-39.4298 123.58-39.4298L116.305-39.4298Q115.515-48.741 111.41-56.8648Q107.304-64.9886 100.665-71.1186Q94.0264-77.2486 85.5736-80.703Q77.1208-84.1574 67.5538-84.1574Q56.325-84.1574 46.5916-79.367Q36.8581-74.5766 30.0738-66.4497Z"/>
  </g>
  <g id="Thin-M" transform="matrix(1 0 0 1 789.946 1126)">
   <path d="M9.34138-35.4136Q8.42532-34.1388 8.8651-33.2049Q9.30487-32.271 10.7748-32.271L18.7013-32.271Q19.2693-22.9369 23.191-14.7679Q27.1128-6.59889 33.6526-0.417407Q40.1924 5.76408 48.5774 9.23489Q56.9623 12.7057 66.445 12.7057Q77.7987 12.7057 87.5494 7.76234Q97.3 2.81898 103.914-5.48431Q104.465-6.17263 104.41-6.9402Q104.355-7.70778 103.691-8.18771Q103.076-8.66679 102.345-8.52564Q101.613-8.38449 101.098-7.78169Q95.0499-0.131043 86.0307 4.41875Q77.0116 8.96854 66.445 8.96854Q57.7129 8.96854 49.9793 5.79248Q42.2458 2.61643 36.2469-3.0237Q30.248-8.66383 26.633-16.1566Q23.0181-23.6493 22.4625-32.271L31.8947-32.271Q33.3646-32.271 33.8044-33.1987Q34.2441-34.1263 33.2907-35.402L23.0547-50.1205Q22.2499-51.1728 21.316-51.179Q20.3821-51.1852 19.6264-50.1205ZM28.9875-64.7976Q28.4861-64.1476 28.5413-63.3858Q28.5965-62.624 29.2109-62.1565Q29.8867-61.6775 30.6182-61.8128Q31.3497-61.9481 31.8653-62.5501Q37.9256-70.1891 46.9386-74.7389Q55.9516-79.2887 66.445-79.2887Q75.2386-79.2887 82.9722-76.1127Q90.7058-72.9366 96.7047-67.2903Q102.704-61.6439 106.319-54.1574Q109.933-46.6709 110.477-38.0492L101.044-38.0492Q99.5869-38.0492 99.1472-37.1153Q98.7074-36.1814 99.611-34.9066L109.897-20.1997Q110.639-19.135 111.604-19.135Q112.569-19.135 113.325-20.1997L123.61-34.8941Q124.526-36.1814 124.086-37.1153Q123.647-38.0492 122.177-38.0492L114.2-38.0492Q113.682-47.3833 109.735-55.5523Q105.788-63.7213 99.2736-69.8966Q92.7591-76.0718 84.3742-79.5488Q75.9893-83.0259 66.445-83.0259Q55.103-83.0259 45.3581-78.0883Q35.6132-73.1508 28.9875-64.7976Z"/>
  </g>
  <g id="Ultralight-M" transform="matrix(1 0 0 1 493.803 1126)">
   <path d="M9.22551-35.5063Q8.47167-34.4403 8.84767-33.686Q9.22366-32.9318 10.3574-32.9318L18.6317-32.9318Q19.0722-23.586 22.907-15.3938Q26.7418-7.20164 33.2237-1.00272Q39.7056 5.19619 48.0557 8.68433Q56.4059 12.1725 65.8772 12.1725Q77.2771 12.1725 87.0278 7.15959Q96.7785 2.14671 103.323-6.26097Q103.642-6.70584 103.61-7.18364Q103.578-7.66143 103.134-7.97913Q102.752-8.29579 102.275-8.20109Q101.799-8.10639 101.48-7.72366Q95.3165 0.239951 86.0423 4.99832Q76.7681 9.75669 65.8772 9.75669Q56.9131 9.75669 48.9767 6.45891Q41.0403 3.16113 34.9081-2.68757Q28.7759-8.53627 25.1319-16.284Q21.4879-24.0318 21.0484-32.9318L31.118-32.9318Q32.2518-32.9318 32.6278-33.6855Q33.0038-34.4393 32.1896-35.5064L22.1505-49.9698Q21.4618-50.8481 20.7075-50.8486Q19.9533-50.8491 19.3249-49.9698ZM28.4311-63.9514Q28.1731-63.568 28.2051-63.0902Q28.2372-62.6123 28.6198-62.2956Q29.0637-61.9789 29.5402-62.0737Q30.0167-62.1684 30.3352-62.5501Q36.4999-70.5138 45.7736-75.2722Q55.0474-80.0305 65.8772-80.0305Q74.9025-80.0305 82.8389-76.7327Q90.7753-73.435 96.9075-67.5858Q103.04-61.7366 106.684-53.9893Q110.328-46.2421 110.767-37.342L100.697-37.342Q99.5638-37.342 99.1878-36.5878Q98.8118-35.8336 99.5647-34.7675L109.665-20.3041Q110.291-19.4247 111.077-19.4247Q111.862-19.4247 112.491-20.3041L122.59-34.7665Q123.344-35.8336 122.968-36.5878Q122.592-37.342 121.458-37.342L113.122-37.342Q112.743-46.6878 108.877-54.88Q105.011-63.0722 98.5607-69.2706Q92.11-75.4691 83.7598-78.9577Q75.4097-82.4463 65.8772-82.4463Q54.4771-82.4463 44.7264-77.4334Q34.9756-72.4205 28.4311-63.9514Z"/>
  </g>
  <g id="Black-S" transform="matrix(1 0 0 1 2874.98 696)">
   <path d="M8.25195-35.4492Q6.29883-32.7637 7.03125-30.4932Q7.76367-28.2227 10.6934-28.2227L16.7969-28.2227Q17.9688-21.0449 21.582-14.7217Q25.1953-8.39844 30.7373-3.56445Q36.2793 1.26953 43.3594 4.02832Q50.4395 6.78711 58.4961 6.78711Q65.5273 6.78711 71.7773 4.56543Q78.0273 2.34375 82.8613-1.2207Q85.6934-3.32031 86.1328-6.12793Q86.5723-8.93555 85.3027-11.084Q83.9355-13.4766 81.0059-14.2578Q78.0762-15.0391 74.4141-12.5Q71.0449-10.1562 66.9922-8.76465Q62.9395-7.37305 58.4961-7.37305Q53.3691-7.37305 48.877-9.00879Q44.3848-10.6445 40.8203-13.5498Q37.2559-16.4551 34.79-20.2148Q32.3242-23.9746 31.25-28.2227L37.3535-28.2227Q40.2832-28.2227 41.0645-30.4932Q41.8457-32.7637 39.7949-35.4492L27.8809-51.5137Q26.3184-53.6621 24.0479-53.6133Q21.7773-53.5645 20.2148-51.5137ZM34.1309-69.1895Q31.3477-67.0898 30.9082-64.2822Q30.4688-61.4746 31.6895-59.3262Q33.1055-56.9336 36.0352-56.1523Q38.9648-55.3711 42.5781-57.9102Q45.9473-60.2539 50.0244-61.6455Q54.1016-63.0371 58.4961-63.0371Q63.6719-63.0371 68.1396-61.4014Q72.6074-59.7656 76.1963-56.8604Q79.7852-53.9551 82.2266-50.1953Q84.668-46.4355 85.7422-42.1875L79.4434-42.1875Q76.5625-42.1875 75.7812-39.9414Q75-37.6953 77.002-34.9609L88.916-18.8965Q90.5273-16.7969 92.7979-16.8213Q95.0684-16.8457 96.582-18.8965L108.545-34.9609Q110.547-37.6465 109.814-39.917Q109.082-42.1875 106.104-42.1875L100.195-42.1875Q99.0723-49.3652 95.459-55.6885Q91.8457-62.0117 86.2793-66.8457Q80.7129-71.6797 73.6572-74.4385Q66.6016-77.1973 58.4961-77.1973Q51.5137-77.1973 45.2637-75Q39.0137-72.8027 34.1309-69.1895Z"/>
  </g>
  <g id="Heavy-S" transform="matrix(1 0 0 1 2579.3 696)">
   <path d="M8.12518-35.357Q6.3334-32.902 7.02549-30.8504Q7.71757-28.7989 10.4974-28.7989L16.3474-28.7989Q17.4501-21.5981 21.0058-15.2749Q24.5615-8.95161 30.0516-4.12915Q35.5417 0.693308 42.5296 3.42905Q49.5175 6.16479 57.4358 6.16479Q64.8704 6.16479 71.4489 3.6089Q78.0273 1.05301 82.9996-3.12224Q85.4513-5.04898 85.7583-7.56849Q86.0652-10.088 84.7957-11.9483Q83.4515-13.9952 80.8733-14.5286Q78.2951-15.0621 75.2438-12.8342Q71.6442-9.87966 67.0844-8.14233Q62.5246-6.40499 57.4358-6.40499Q52.0899-6.40499 47.3903-8.14445Q42.6907-9.88392 38.9649-12.9793Q35.2391-16.0748 32.7099-20.1284Q30.1807-24.182 29.1641-28.7989L35.0601-28.7989Q37.84-28.7989 38.5694-30.8447Q39.2988-32.8904 37.4439-35.3455L26.2905-50.5456Q24.8548-52.5212 22.8032-52.4896Q20.7517-52.4581 19.3159-50.5456ZM31.8836-67.3225Q29.4692-65.3842 29.1622-62.8705Q28.8553-60.3567 30.0876-58.5079Q31.4805-56.4611 34.0587-55.9219Q36.6369-55.3826 39.6509-57.6105Q43.2621-60.5535 47.8348-62.2909Q52.4075-64.0282 57.4358-64.0282Q62.8306-64.0282 67.5116-62.2888Q72.1925-60.5493 75.937-57.4481Q79.6814-54.3469 82.192-50.299Q84.7025-46.2512 85.7076-41.6343L79.6623-41.6343Q76.9313-41.6343 76.2019-39.6014Q75.4725-37.5685 77.2901-35.0762L88.4435-19.8876Q89.905-17.9378 91.9623-17.9564Q94.0196-17.9751 95.4181-19.8876L106.609-35.0647Q108.438-37.5312 107.746-39.5828Q107.054-41.6343 104.237-41.6343L98.5358-41.6343Q97.4704-48.8351 93.9147-55.1584Q90.359-61.4816 84.8503-66.2983Q79.3415-71.115 72.3722-73.8565Q65.403-76.598 57.4358-76.598Q50.0501-76.598 43.4774-74.0665Q36.9047-71.535 31.8836-67.3225Z"/>
  </g>
  <g id="Bold-S" transform="matrix(1 0 0 1 2283.75 696)">
   <path d="M7.9834-35.2539Q6.37207-33.0566 7.01904-31.25Q7.66602-29.4434 10.2783-29.4434L15.8447-29.4434Q16.8701-22.2168 20.3613-15.8936Q23.8525-9.57031 29.2847-4.76074Q34.7168 0.0488281 41.6016 2.75879Q48.4863 5.46875 56.25 5.46875Q64.1357 5.46875 71.0815 2.53906Q78.0273-0.390625 83.1543-5.24902Q85.1807-6.98242 85.3394-9.17969Q85.498-11.377 84.2285-12.915Q82.9102-14.5752 80.7251-14.8315Q78.54-15.0879 76.1719-13.208Q72.3145-9.57031 67.1875-7.44629Q62.0605-5.32227 56.25-5.32227Q50.6592-5.32227 45.7275-7.17773Q40.7959-9.0332 36.8896-12.3413Q32.9834-15.6494 30.3833-20.0317Q27.7832-24.4141 26.8311-29.4434L32.4951-29.4434Q35.1074-29.4434 35.7788-31.2378Q36.4502-33.0322 34.8145-35.2295L24.5117-49.4629Q23.2178-51.2451 21.4111-51.2329Q19.6045-51.2207 18.3105-49.4629ZM29.3701-65.2344Q27.3682-63.4766 27.2095-61.2915Q27.0508-59.1064 28.2959-57.5928Q29.6631-55.9326 31.8481-55.6641Q34.0332-55.3955 36.377-57.2754Q40.2588-60.8887 45.3857-63.0127Q50.5127-65.1367 56.25-65.1367Q61.8896-65.1367 66.8091-63.2812Q71.7285-61.4258 75.647-58.1055Q79.5654-54.7852 82.1533-50.415Q84.7412-46.0449 85.6689-41.0156L79.9072-41.0156Q77.3438-41.0156 76.6724-39.2212Q76.001-37.4268 77.6123-35.2051L87.915-20.9961Q89.209-19.2139 91.0278-19.2261Q92.8467-19.2383 94.1162-20.9961L104.443-35.1807Q106.079-37.4023 105.432-39.209Q104.785-41.0156 102.148-41.0156L96.6797-41.0156Q95.6787-48.2422 92.1875-54.5654Q88.6963-60.8887 83.252-65.686Q77.8076-70.4834 70.9351-73.2056Q64.0625-75.9277 56.25-75.9277Q48.4131-75.9277 41.4795-73.0225Q34.5459-70.1172 29.3701-65.2344Z"/>
  </g>
  <g id="Semibold-S" transform="matrix(1 0 0 1 1987.84 696)">
   <path d="M7.88564-35.1828Q6.39873-33.1633 7.0146-31.5255Q7.63047-29.8877 10.1272-29.8877L15.4981-29.8877Q16.4702-22.6434 19.917-16.3201Q23.3638-9.99687 28.7559-5.19619Q34.148-0.395508 40.9617 2.29668Q47.7754 4.98887 55.4324 4.98887Q63.6292 4.98887 70.8283 1.80146Q78.0273-1.38594 83.2609-6.71533Q84.994-8.31543 85.0505-10.2905Q85.107-12.2656 83.8375-13.5815Q82.5369-14.9751 80.6229-15.0404Q78.7089-15.1057 76.8117-13.4657Q72.7766-9.35703 67.2586-6.96641Q61.7406-4.57578 55.4324-4.57578Q49.6728-4.57578 44.5812-6.51123Q39.4896-8.44668 35.4589-11.9014Q31.4282-15.3562 28.7792-19.9651Q26.1303-24.574 25.2226-29.8877L30.7267-29.8877Q33.2234-29.8877 33.8548-31.5088Q34.4862-33.13 33.0016-35.1495L23.2854-48.7164Q22.0892-50.3653 20.4514-50.3665Q18.8136-50.3676 17.6174-48.7164ZM27.6372-63.7947Q25.9196-62.1613 25.8631-60.2029Q25.8066-58.2444 27.0606-56.9618Q28.4101-55.5683 30.3241-55.4863Q32.2381-55.4044 34.1197-57.0443Q38.1882-61.1197 43.6973-63.5104Q49.2063-65.901 55.4324-65.901Q61.2409-65.901 66.3248-63.9655Q71.4086-62.0301 75.447-58.5587Q79.4854-55.0873 82.1267-50.495Q84.7679-45.9027 85.6423-40.5891L80.0761-40.5891Q77.6281-40.5891 76.9967-38.959Q76.3653-37.329 77.8345-35.2939L87.5507-21.7604Q88.7291-20.0937 90.3835-20.1014Q92.038-20.1092 93.2187-21.7604L102.95-35.2606Q104.453-37.3135 103.837-38.9513Q103.221-40.5891 100.709-40.5891L95.4-40.5891Q94.4435-47.8334 90.9967-54.1566Q87.5499-60.4799 82.15-65.2639Q76.7501-70.0479 69.9442-72.7568Q63.1383-75.4656 55.4324-75.4656Q47.2845-75.4656 40.1021-72.3026Q32.9196-69.1396 27.6372-63.7947Z"/>
  </g>
  <g id="Medium-S" transform="matrix(1 0 0 1 1691.74 696)">
   <path d="M7.81152-35.1289Q6.41895-33.2441 7.01123-31.7344Q7.60352-30.2246 10.0127-30.2246L15.2354-30.2246Q16.167-22.9668 19.5801-16.6436Q22.9932-10.3203 28.355-5.52637Q33.7168-0.732422 40.4766 1.94629Q47.2363 4.625 54.8125 4.625Q63.2451 4.625 70.6362 1.24219Q78.0273-2.14062 83.3418-7.82715Q84.8525-9.32617 84.8315-11.1328Q84.8105-12.9395 83.541-14.0869Q82.2539-15.2783 80.5454-15.1987Q78.8369-15.1191 77.2969-13.6611Q73.127-9.19531 67.3125-6.60254Q61.498-4.00977 54.8125-4.00977Q48.9248-4.00977 43.7119-6.00586Q38.499-8.00195 34.374-11.5679Q30.249-15.1338 27.563-19.9146Q24.877-24.6953 24.0029-30.2246L29.3857-30.2246Q31.7949-30.2246 32.396-31.7144Q32.9971-33.2041 31.627-35.0889L22.3555-48.1504Q21.2334-49.6982 19.7236-49.7095Q18.2139-49.7207 17.0918-48.1504ZM26.3232-62.7031Q24.8213-61.1641 24.8423-59.3774Q24.8633-57.5908 26.124-56.4834Q27.46-55.292 29.1685-55.3516Q30.877-55.4111 32.4082-56.8691Q36.6182-61.2949 42.417-63.8877Q48.2158-66.4805 54.8125-66.4805Q60.749-66.4805 65.9575-64.4844Q71.166-62.4883 75.2954-58.9023Q79.4248-55.3164 82.1064-50.5557Q84.7881-45.7949 85.6221-40.2656L80.2041-40.2656Q77.8438-40.2656 77.2427-38.7603Q76.6416-37.2549 78.0029-35.3613L87.2744-22.3398Q88.3652-20.7607 89.895-20.7651Q91.4248-20.7695 92.5381-22.3398L101.818-35.3213Q103.22-37.2461 102.627-38.7559Q102.035-40.2656 99.6172-40.2656L94.4297-40.2656Q93.5068-47.5234 90.0938-53.8467Q86.6807-60.1699 81.3145-64.9438Q75.9482-69.7178 69.1929-72.4165Q62.4375-75.1152 54.8125-75.1152Q46.4287-75.1152 39.0576-71.7568Q31.6865-68.3984 26.3232-62.7031Z"/>
  </g>
  <g id="Regular-S" transform="matrix(1 0 0 1 1395.82 696)">
   <path d="M7.71484-35.0586Q6.44531-33.3496 7.00684-32.0068Q7.56836-30.6641 9.86328-30.6641L14.8926-30.6641Q15.7715-23.3887 19.1406-17.0654Q22.5098-10.7422 27.832-5.95703Q33.1543-1.17188 39.8438 1.48926Q46.5332 4.15039 54.0039 4.15039Q62.7441 4.15039 70.3857 0.512695Q78.0273-3.125 83.4473-9.27734Q84.668-10.6445 84.5459-12.2314Q84.4238-13.8184 83.1543-14.7461Q81.8848-15.6738 80.4443-15.4053Q79.0039-15.1367 77.9297-13.916Q73.584-8.98438 67.3828-6.12793Q61.1816-3.27148 54.0039-3.27148Q47.9492-3.27148 42.5781-5.34668Q37.207-7.42188 32.959-11.1328Q28.7109-14.8438 25.9766-19.8486Q23.2422-24.8535 22.4121-30.6641L27.6367-30.6641Q29.9316-30.6641 30.4932-31.9824Q31.0547-33.3008 29.834-35.0098L21.1426-47.4121Q20.1172-48.8281 18.7744-48.8525Q17.4316-48.877 16.4062-47.4121ZM24.6094-61.2793Q23.3887-59.8633 23.5107-58.3008Q23.6328-56.7383 24.9023-55.8594Q26.2207-54.9316 27.6611-55.1758Q29.1016-55.4199 30.1758-56.6406Q34.5703-61.5234 40.7471-64.3799Q46.9238-67.2363 54.0039-67.2363Q60.1074-67.2363 65.4785-65.1611Q70.8496-63.0859 75.0977-59.3506Q79.3457-55.6152 82.0801-50.6348Q84.8145-45.6543 85.5957-39.8438L80.3711-39.8438Q78.125-39.8438 77.5635-38.501Q77.002-37.1582 78.2227-35.4492L86.9141-23.0957Q87.8906-21.6309 89.2578-21.6309Q90.625-21.6309 91.6504-23.0957L100.342-35.4004Q101.611-37.1582 101.05-38.501Q100.488-39.8438 98.1934-39.8438L93.1641-39.8438Q92.2852-47.1191 88.916-53.4424Q85.5469-59.7656 80.2246-64.5264Q74.9023-69.2871 68.2129-71.9727Q61.5234-74.6582 54.0039-74.6582Q45.3125-74.6582 37.6953-71.0449Q30.0781-67.4316 24.6094-61.2793Z"/>
  </g>
  <g id="Light-S" transform="matrix(1 0 0 1 1099.85 696)">
   <path d="M7.56353-35.1796Q6.50584-33.7433 6.98407-32.6351Q7.46231-31.5269 9.31829-31.5269L14.8018-31.5269Q15.5141-24.2363 18.7697-17.8828Q22.0253-11.5293 27.2719-6.72137Q32.5185-1.91345 39.1626 0.770315Q45.8066 3.45408 53.2623 3.45408Q62.0631 3.45408 69.7047-0.274404Q77.3463-4.00289 82.6754-10.2915Q83.5932-11.3408 83.5014-12.5493Q83.4096-13.7578 82.4277-14.4737Q81.4608-15.1894 80.3534-14.9815Q79.246-14.7736 78.4292-13.8402Q73.9321-8.49991 67.3979-5.37109Q60.8637-2.24228 53.2623-2.24228Q46.9048-2.24228 41.2688-4.47642Q35.6328-6.71056 31.2107-10.6939Q26.7886-14.6772 24.0163-20.0151Q21.244-25.353 20.5655-31.5269L26.6225-31.5269Q28.4785-31.5269 28.9567-32.6182Q29.435-33.7095 28.3961-35.1461L19.9618-47.2153Q19.088-48.4042 17.9798-48.4211Q16.8716-48.438 16.0126-47.2153ZM23.8828-60.1743Q22.98-59.1064 23.0718-57.9147Q23.1636-56.723 24.1305-56.041Q25.146-55.3253 26.2534-55.5164Q27.3608-55.7076 28.1776-56.6406Q32.7085-61.9474 39.2258-65.0762Q45.7431-68.205 53.2623-68.205Q59.6685-68.205 65.3044-65.9709Q70.9404-63.7367 75.3625-59.7365Q79.7846-55.7363 82.5569-50.4153Q85.3292-45.0943 85.9741-38.9203L79.9169-38.9203Q78.0947-38.9203 77.6165-37.8122Q77.1383-36.704 78.1621-35.2676L86.6114-23.232Q87.4364-22.0093 88.569-22.0093Q89.7016-22.0093 90.5607-23.232L99.0097-35.2338Q100.067-36.704 99.5892-37.8122Q99.1109-38.9203 97.2549-38.9203L91.7564-38.9203Q91.0591-46.211 87.7959-52.5645Q84.5327-58.918 79.2937-63.709Q74.0547-68.5 67.4107-71.2007Q60.7666-73.9014 53.2623-73.9014Q44.4951-73.9014 36.8703-70.1897Q29.2455-66.478 23.8828-60.1743Z"/>
  </g>
  <g id="Thin-S" transform="matrix(1 0 0 1 804.117 696)">
   <path d="M7.3634-35.3397Q6.58589-34.264 6.95397-33.4661Q7.32205-32.6682 8.59749-32.6682L14.6817-32.6682Q15.1737-25.3574 18.2791-18.9638Q21.3846-12.5703 26.5311-7.73227Q31.6776-2.89425 38.2617-0.180546Q44.8457 2.53316 52.2815 2.53316Q61.1623 2.53316 68.8039-1.31541Q76.4455-5.16397 81.6546-11.6329Q82.1718-12.2618 82.12-12.9698Q82.0683-13.6778 81.4668-14.1135Q80.9001-14.5486 80.2332-14.4209Q79.5662-14.2933 79.0897-13.74Q74.3926-7.85916 67.418-4.37012Q60.4433-0.881072 52.2815-0.881072Q45.5234-0.881072 39.5371-3.32543Q33.5508-5.76979 28.8985-10.1133Q24.2461-14.4569 21.4237-20.2352Q18.6013-26.0136 18.1233-32.6682L25.2812-32.6682Q26.5566-32.6682 26.9247-33.4591Q27.2928-34.25 26.4944-35.3264L18.4001-46.9549Q17.7268-47.8435 16.9289-47.8505Q16.131-47.8575 15.4919-46.9549ZM22.9219-58.7129Q22.4395-58.1055 22.4913-57.4042Q22.543-56.7028 23.1097-56.2811Q23.7246-55.846 24.3915-55.967Q25.0585-56.088 25.5349-56.6406Q30.2461-62.5081 37.2137-65.9971Q44.1814-69.4862 52.2815-69.4862Q59.0879-69.4862 65.0742-67.0418Q71.0605-64.5974 75.7128-60.2469Q80.3652-55.8964 83.1876-50.125Q86.01-44.3537 86.4746-37.6991L79.3162-37.6991Q78.0547-37.6991 77.6866-36.9012Q77.3185-36.1033 78.0821-35.0275L86.2112-23.4123Q86.8357-22.5098 87.658-22.5098Q88.4803-22.5098 89.1194-23.4123L97.2479-35.0135Q98.0254-36.1033 97.6573-36.9012Q97.2893-37.6991 96.0138-37.6991L89.8947-37.6991Q89.4376-45.0099 86.3144-51.4034Q83.1913-57.7969 78.0625-62.628Q72.9337-67.459 66.3496-70.1797Q59.7656-72.9004 52.2815-72.9004Q43.4141-72.9004 35.7792-69.0585Q28.1443-65.2167 22.9219-58.7129Z"/>
  </g>
  <g id="Ultralight-S" transform="matrix(1 0 0 1 507.908 696)">
   <path d="M7.26089-35.4218Q6.62689-34.5306 6.93855-33.8917Q7.25021-33.2527 8.2283-33.2527L14.6202-33.2527Q14.9994-25.9315 18.0279-19.5175Q21.0564-13.1035 26.1517-8.25005Q31.2469-3.39661 37.8002-0.667572Q44.3535 2.06146 51.7792 2.06146Q60.701 2.06146 68.3426-1.8486Q75.9842-5.75867 81.1317-12.3199Q81.4438-12.7335 81.4125-13.1851Q81.3812-13.6368 80.9746-13.929Q80.6129-14.2204 80.1716-14.1338Q79.7302-14.0472 79.4281-13.6887Q74.6284-7.53098 67.4282-3.85742Q60.228-0.183868 51.7792-0.183868Q44.8158-0.183868 38.6501-2.7359Q32.4844-5.28793 27.7142-9.81598Q22.9439-14.344 20.0958-20.348Q17.2478-26.3519 16.8724-33.2527L24.5941-33.2527Q25.5722-33.2527 25.8839-33.8898Q26.1955-34.5268 25.5203-35.4187L17.6003-46.8216Q17.0296-47.5563 16.3906-47.5582Q15.7516-47.5601 15.2252-46.8216ZM22.4297-57.9643Q22.1626-57.5928 22.1939-57.1426Q22.2252-56.6925 22.5868-56.4041Q22.9965-56.1127 23.4379-56.1977Q23.8792-56.2828 24.1814-56.6406Q28.9848-62.7953 36.1832-66.4688Q43.3815-70.1424 51.7792-70.1424Q58.7906-70.1424 64.9563-67.5903Q71.122-65.0383 75.8923-60.5083Q80.6625-55.9784 83.5106-49.9763Q86.3586-43.9743 86.731-37.0735L79.0085-37.0735Q78.0342-37.0735 77.7225-36.4346Q77.4109-35.7956 78.0411-34.9045L86.0062-23.5046Q86.528-22.7661 87.1914-22.7661Q87.8548-22.7661 88.3812-23.5046L96.3455-34.9007Q96.9795-35.7956 96.6679-36.4346Q96.3562-37.0735 95.3781-37.0735L88.9412-37.0735Q88.607-44.3947 85.5556-50.8087Q82.5043-57.2227 77.4319-62.0743Q72.3595-66.9258 65.8062-69.6568Q59.2529-72.3877 51.7792-72.3877Q42.8604-72.3877 35.2203-68.4792Q27.5803-64.5706 22.4297-57.9643Z"/>
  </g>
 </g>
</svg>
