<?xml version="1.0" encoding="UTF-8"?>
<!--Generator: Apple Native CoreSVG 175-->
<!DOCTYPE svg
PUBLIC "-//W3C//DTD SVG 1.1//EN"
       "http://www.w3.org/Graphics/SVG/1.1/DTD/svg11.dtd">
<svg version="1.1" xmlns="http://www.w3.org/2000/svg" xmlns:xlink="http://www.w3.org/1999/xlink" width="3300" height="2200">
 <!--glyph: "uni101152.medium", point size: 100.0, font version: "17.1d1e1", template writer version: "65.1"-->
 <g id="Notes">
  <rect height="2200" id="artboard" style="fill:white;opacity:1" width="3300" x="0" y="0"/>
  <line style="fill:none;stroke:black;opacity:1;stroke-width:0.5;" x1="263" x2="3036" y1="292" y2="292"/>
  <text style="stroke:none;fill:black;font-family:sans-serif;font-size:13;font-weight:bold;" transform="matrix(1 0 0 1 263 322)">Weight/Scale Variations</text>
  <text style="stroke:none;fill:black;font-family:sans-serif;font-size:13;text-anchor:middle;" transform="matrix(1 0 0 1 559.711 322)">Ultralight</text>
  <text style="stroke:none;fill:black;font-family:sans-serif;font-size:13;text-anchor:middle;" transform="matrix(1 0 0 1 856.422 322)">Thin</text>
  <text style="stroke:none;fill:black;font-family:sans-serif;font-size:13;text-anchor:middle;" transform="matrix(1 0 0 1 1153.13 322)">Light</text>
  <text style="stroke:none;fill:black;font-family:sans-serif;font-size:13;text-anchor:middle;" transform="matrix(1 0 0 1 1449.84 322)">Regular</text>
  <text style="stroke:none;fill:black;font-family:sans-serif;font-size:13;text-anchor:middle;" transform="matrix(1 0 0 1 1746.56 322)">Medium</text>
  <text style="stroke:none;fill:black;font-family:sans-serif;font-size:13;text-anchor:middle;" transform="matrix(1 0 0 1 2043.27 322)">Semibold</text>
  <text style="stroke:none;fill:black;font-family:sans-serif;font-size:13;text-anchor:middle;" transform="matrix(1 0 0 1 2339.98 322)">Bold</text>
  <text style="stroke:none;fill:black;font-family:sans-serif;font-size:13;text-anchor:middle;" transform="matrix(1 0 0 1 2636.69 322)">Heavy</text>
  <text style="stroke:none;fill:black;font-family:sans-serif;font-size:13;text-anchor:middle;" transform="matrix(1 0 0 1 2933.4 322)">Black</text>
  <line style="fill:none;stroke:black;opacity:1;stroke-width:0.5;" x1="263" x2="3036" y1="1903" y2="1903"/>
  <g transform="matrix(1 0 0 1 263 1933)">
   <path d="M9.24805 0.830078Q10.8691 0.830078 12.2949 0.214844Q13.7207-0.400391 14.8096-1.49414Q15.8984-2.58789 16.5186-4.01367Q17.1387-5.43945 17.1387-7.05078Q17.1387-8.66211 16.5186-10.0879Q15.8984-11.5137 14.8047-12.6074Q13.7109-13.7012 12.2852-14.3164Q10.8594-14.9316 9.23828-14.9316Q7.62695-14.9316 6.20117-14.3164Q4.77539-13.7012 3.69141-12.6074Q2.60742-11.5137 1.9873-10.0879Q1.36719-8.66211 1.36719-7.05078Q1.36719-5.43945 1.9873-4.01367Q2.60742-2.58789 3.69629-1.49414Q4.78516-0.400391 6.21094 0.214844Q7.63672 0.830078 9.24805 0.830078ZM9.24805-0.654297Q7.91992-0.654297 6.7627-1.14746Q5.60547-1.64062 4.73145-2.51953Q3.85742-3.39844 3.36426-4.56055Q2.87109-5.72266 2.87109-7.05078Q2.87109-8.37891 3.35938-9.54102Q3.84766-10.7031 4.72168-11.582Q5.5957-12.4609 6.75293-12.9541Q7.91016-13.4473 9.23828-13.4473Q10.5762-13.4473 11.7334-12.9541Q12.8906-12.4609 13.7695-11.582Q14.6484-10.7031 15.1465-9.54102Q15.6445-8.37891 15.6445-7.05078Q15.6445-5.72266 15.1514-4.56055Q14.6582-3.39844 13.7842-2.51953Q12.9102-1.64062 11.748-1.14746Q10.5859-0.654297 9.24805-0.654297ZM5.6543-7.05078Q5.6543-6.72852 5.85938-6.52832Q6.06445-6.32812 6.40625-6.32812L8.51562-6.32812L8.51562-4.20898Q8.51562-3.88672 8.71094-3.67676Q8.90625-3.4668 9.23828-3.4668Q9.56055-3.4668 9.77051-3.67676Q9.98047-3.88672 9.98047-4.20898L9.98047-6.32812L12.0898-6.32812Q12.4219-6.32812 12.627-6.52832Q12.832-6.72852 12.832-7.05078Q12.832-7.38281 12.627-7.58789Q12.4219-7.79297 12.0898-7.79297L9.98047-7.79297L9.98047-9.90234Q9.98047-10.2344 9.77051-10.4443Q9.56055-10.6543 9.23828-10.6543Q8.90625-10.6543 8.71094-10.4443Q8.51562-10.2344 8.51562-9.90234L8.51562-7.79297L6.40625-7.79297Q6.06445-7.79297 5.85938-7.58789Q5.6543-7.38281 5.6543-7.05078Z"/>
  </g>
  <g transform="matrix(1 0 0 1 281.867 1933)">
   <path d="M11.709 2.91016Q13.75 2.91016 15.5518 2.12891Q17.3535 1.34766 18.7305-0.0292969Q20.1074-1.40625 20.8887-3.20801Q21.6699-5.00977 21.6699-7.05078Q21.6699-9.0918 20.8887-10.8936Q20.1074-12.6953 18.7305-14.0723Q17.3535-15.4492 15.5469-16.2305Q13.7402-17.0117 11.6992-17.0117Q9.6582-17.0117 7.85645-16.2305Q6.05469-15.4492 4.68262-14.0723Q3.31055-12.6953 2.5293-10.8936Q1.74805-9.0918 1.74805-7.05078Q1.74805-5.00977 2.5293-3.20801Q3.31055-1.40625 4.6875-0.0292969Q6.06445 1.34766 7.86621 2.12891Q9.66797 2.91016 11.709 2.91016ZM11.709 1.25Q9.98047 1.25 8.47656 0.605469Q6.97266-0.0390625 5.83496-1.17676Q4.69727-2.31445 4.05762-3.81836Q3.41797-5.32227 3.41797-7.05078Q3.41797-8.7793 4.05762-10.2832Q4.69727-11.7871 5.83008-12.9297Q6.96289-14.0723 8.4668-14.7119Q9.9707-15.3516 11.6992-15.3516Q13.4277-15.3516 14.9316-14.7119Q16.4355-14.0723 17.5781-12.9297Q18.7207-11.7871 19.3652-10.2832Q20.0098-8.7793 20.0098-7.05078Q20.0098-5.32227 19.3701-3.81836Q18.7305-2.31445 17.5928-1.17676Q16.4551-0.0390625 14.9463 0.605469Q13.4375 1.25 11.709 1.25ZM7.17773-7.05078Q7.17773-6.69922 7.41211-6.47461Q7.64648-6.25 8.01758-6.25L10.8887-6.25L10.8887-3.36914Q10.8887-2.99805 11.1133-2.76855Q11.3379-2.53906 11.6895-2.53906Q12.0605-2.53906 12.29-2.76855Q12.5195-2.99805 12.5195-3.36914L12.5195-6.25L15.4004-6.25Q15.7715-6.25 16.001-6.47461Q16.2305-6.69922 16.2305-7.05078Q16.2305-7.42188 16.001-7.65137Q15.7715-7.88086 15.4004-7.88086L12.5195-7.88086L12.5195-10.752Q12.5195-11.1328 12.29-11.3623Q12.0605-11.5918 11.6895-11.5918Q11.3379-11.5918 11.1133-11.3574Q10.8887-11.123 10.8887-10.752L10.8887-7.88086L8.01758-7.88086Q7.63672-7.88086 7.40723-7.65137Q7.17773-7.42188 7.17773-7.05078Z"/>
  </g>
  <g transform="matrix(1 0 0 1 305.646 1933)">
   <path d="M14.9707 5.66406Q17.0605 5.66406 18.96 5.01465Q20.8594 4.36523 22.4512 3.19336Q24.043 2.02148 25.2197 0.429688Q26.3965-1.16211 27.0459-3.06641Q27.6953-4.9707 27.6953-7.05078Q27.6953-9.14062 27.0459-11.04Q26.3965-12.9395 25.2197-14.5312Q24.043-16.123 22.4512-17.2998Q20.8594-18.4766 18.9551-19.126Q17.0508-19.7754 14.9609-19.7754Q12.8711-19.7754 10.9717-19.126Q9.07227-18.4766 7.48535-17.2998Q5.89844-16.123 4.72168-14.5312Q3.54492-12.9395 2.90039-11.04Q2.25586-9.14062 2.25586-7.05078Q2.25586-4.9707 2.90527-3.06641Q3.55469-1.16211 4.72656 0.429688Q5.89844 2.02148 7.49023 3.19336Q9.08203 4.36523 10.9814 5.01465Q12.8809 5.66406 14.9707 5.66406ZM14.9707 3.84766Q13.1641 3.84766 11.5283 3.2959Q9.89258 2.74414 8.53516 1.74805Q7.17773 0.751953 6.17676-0.610352Q5.17578-1.97266 4.62891-3.6084Q4.08203-5.24414 4.08203-7.05078Q4.08203-8.86719 4.62891-10.5029Q5.17578-12.1387 6.17188-13.501Q7.16797-14.8633 8.52539-15.8594Q9.88281-16.8555 11.5186-17.4023Q13.1543-17.9492 14.9609-17.9492Q16.7773-17.9492 18.4131-17.4023Q20.0488-16.8555 21.4111-15.8594Q22.7734-14.8633 23.7695-13.501Q24.7656-12.1387 25.3174-10.5029Q25.8691-8.86719 25.8691-7.05078Q25.8789-5.24414 25.332-3.6084Q24.7852-1.97266 23.7842-0.610352Q22.7832 0.751953 21.4209 1.74805Q20.0586 2.74414 18.4229 3.2959Q16.7871 3.84766 14.9707 3.84766ZM9.19922-7.05078Q9.19922-6.66992 9.45801-6.4209Q9.7168-6.17188 10.1172-6.17188L14.0625-6.17188L14.0625-2.2168Q14.0625-1.81641 14.3115-1.55762Q14.5605-1.29883 14.9512-1.29883Q15.3516-1.29883 15.6104-1.55273Q15.8691-1.80664 15.8691-2.2168L15.8691-6.17188L19.8242-6.17188Q20.2246-6.17188 20.4785-6.4209Q20.7324-6.66992 20.7324-7.05078Q20.7324-7.46094 20.4785-7.71484Q20.2246-7.96875 19.8242-7.96875L15.8691-7.96875L15.8691-11.9141Q15.8691-12.3242 15.6104-12.583Q15.3516-12.8418 14.9512-12.8418Q14.5605-12.8418 14.3115-12.583Q14.0625-12.3242 14.0625-11.9141L14.0625-7.96875L10.1172-7.96875Q9.70703-7.96875 9.45312-7.71484Q9.19922-7.46094 9.19922-7.05078Z"/>
  </g>
  <text style="stroke:none;fill:black;font-family:sans-serif;font-size:13;font-weight:bold;" transform="matrix(1 0 0 1 263 1953)">Design Variations</text>
  <text style="stroke:none;fill:black;font-family:sans-serif;font-size:13;" transform="matrix(1 0 0 1 263 1971)">Symbols are supported in up to nine weights and three scales.</text>
  <text style="stroke:none;fill:black;font-family:sans-serif;font-size:13;" transform="matrix(1 0 0 1 263 1989)">For optimal layout with text and other symbols, vertically align</text>
  <text style="stroke:none;fill:black;font-family:sans-serif;font-size:13;" transform="matrix(1 0 0 1 263 2007)">symbols with the adjacent text.</text>
  <line style="fill:none;stroke:#00AEEF;stroke-width:0.5;opacity:1.0;" x1="776" x2="776" y1="1919" y2="1933"/>
  <g transform="matrix(1 0 0 1 776 1933)">
   <path d="M3.31055 0.15625Q3.70117 0.15625 3.91602-0.00976562Q4.13086-0.175781 4.26758-0.585938L5.52734-4.0332L11.2891-4.0332L12.5488-0.585938Q12.6855-0.175781 12.9004-0.00976562Q13.1152 0.15625 13.4961 0.15625Q13.8867 0.15625 14.1162-0.0585938Q14.3457-0.273438 14.3457-0.644531Q14.3457-0.869141 14.2383-1.17188L9.6582-13.3691Q9.48242-13.8184 9.17969-14.043Q8.87695-14.2676 8.4082-14.2676Q7.5-14.2676 7.17773-13.3789L2.59766-1.16211Q2.49023-0.859375 2.49023-0.634766Q2.49023-0.263672 2.70996-0.0537109Q2.92969 0.15625 3.31055 0.15625ZM6.00586-5.51758L8.37891-12.0898L8.42773-12.0898L10.8008-5.51758Z"/>
  </g>
  <line style="fill:none;stroke:#00AEEF;stroke-width:0.5;opacity:1.0;" x1="793.197" x2="793.197" y1="1919" y2="1933"/>
  <text style="stroke:none;fill:black;font-family:sans-serif;font-size:13;font-weight:bold;" transform="matrix(1 0 0 1 776 1953)">Margins</text>
  <text style="stroke:none;fill:black;font-family:sans-serif;font-size:13;" transform="matrix(1 0 0 1 776 1971)">Leading and trailing margins on the left and right side of each symbol</text>
  <text style="stroke:none;fill:black;font-family:sans-serif;font-size:13;" transform="matrix(1 0 0 1 776 1989)">can be adjusted by modifying the x-location of the margin guidelines.</text>
  <text style="stroke:none;fill:black;font-family:sans-serif;font-size:13;" transform="matrix(1 0 0 1 776 2007)">Modifications are automatically applied proportionally to all</text>
  <text style="stroke:none;fill:black;font-family:sans-serif;font-size:13;" transform="matrix(1 0 0 1 776 2025)">scales and weights.</text>
  <g transform="matrix(1 0 0 1 1289 1933)">
   <path d="M2.8418 1.86523L4.54102 3.57422Q5.18555 4.22852 5.90332 4.17969Q6.62109 4.13086 7.31445 3.35938L18.0078-8.42773L17.041-9.4043L6.42578 2.27539Q6.16211 2.57812 5.89355 2.61719Q5.625 2.65625 5.27344 2.30469L4.10156 1.14258Q3.75 0.791016 3.79395 0.522461Q3.83789 0.253906 4.14062-0.0195312L15.6152-10.8203L14.6387-11.7871L3.04688-0.898438Q2.30469-0.214844 2.25098 0.498047Q2.19727 1.21094 2.8418 1.86523ZM9.25781-16.3281Q8.94531-16.0254 8.90625-15.6348Q8.86719-15.2441 9.04297-14.9512Q9.21875-14.6777 9.55566-14.541Q9.89258-14.4043 10.3809-14.5215Q11.4746-14.7754 12.5977-14.7314Q13.7207-14.6875 14.7949-13.9844L14.209-12.5293Q13.9551-11.9043 14.0674-11.4404Q14.1797-10.9766 14.5801-10.5664L16.875-8.25195Q17.2363-7.88086 17.5781-7.82227Q17.9199-7.76367 18.3398-7.8418L19.4043-8.03711L20.0684-7.36328L20.0293-6.80664Q20-6.43555 20.1221-6.12305Q20.2441-5.81055 20.6055-5.44922L21.3672-4.70703Q21.7285-4.3457 22.1533-4.33105Q22.5781-4.31641 22.9297-4.66797L25.8398-7.58789Q26.1914-7.93945 26.1816-8.35449Q26.1719-8.76953 25.8105-9.13086L25.0391-9.89258Q24.6875-10.2539 24.3799-10.3857Q24.0723-10.5176 23.7109-10.4883L23.1348-10.4395L22.4902-11.0742L22.7344-12.1973Q22.832-12.6172 22.6953-12.9834Q22.5586-13.3496 22.1191-13.7891L19.9219-15.9766Q18.6719-17.2168 17.2607-17.8369Q15.8496-18.457 14.4189-18.4814Q12.9883-18.5059 11.665-17.959Q10.3418-17.4121 9.25781-16.3281ZM10.752-15.957Q11.6602-16.6211 12.7002-16.9043Q13.7402-17.1875 14.8047-17.085Q15.8691-16.9824 16.8701-16.5137Q17.8711-16.0449 18.7012-15.2051L21.1328-12.793Q21.3086-12.6172 21.3525-12.4512Q21.3965-12.2852 21.3379-12.0312L21.0156-10.5469L22.5195-9.0625L23.5059-9.12109Q23.6914-9.13086 23.7891-9.09668Q23.8867-9.0625 24.0332-8.91602L24.6094-8.33984L22.168-5.89844L21.5918-6.47461Q21.4453-6.62109 21.4062-6.71875Q21.3672-6.81641 21.377-7.01172L21.4453-7.98828L19.9512-9.47266L18.4277-9.21875Q18.1836-9.16992 18.042-9.2041Q17.9004-9.23828 17.7148-9.41406L15.7129-11.416Q15.5176-11.5918 15.4932-11.7529Q15.4688-11.9141 15.5859-12.1875L16.4648-14.2773Q15.293-15.3711 13.8281-15.791Q12.3633-16.2109 10.8398-15.7617Q10.7227-15.7324 10.6885-15.8057Q10.6543-15.8789 10.752-15.957Z"/>
  </g>
  <text style="stroke:none;fill:black;font-family:sans-serif;font-size:13;font-weight:bold;" transform="matrix(1 0 0 1 1289 1953)">Exporting</text>
  <text style="stroke:none;fill:black;font-family:sans-serif;font-size:13;" transform="matrix(1 0 0 1 1289 1971)">Symbols should be outlined when exporting to ensure the</text>
  <text style="stroke:none;fill:black;font-family:sans-serif;font-size:13;" transform="matrix(1 0 0 1 1289 1989)">design is preserved when submitting to Xcode.</text>
  <text id="template-version" style="stroke:none;fill:black;font-family:sans-serif;font-size:13;text-anchor:end;" transform="matrix(1 0 0 1 3036 1933)">Template v.3.0</text>
  <text style="stroke:none;fill:black;font-family:sans-serif;font-size:13;text-anchor:end;" transform="matrix(1 0 0 1 3036 1951)">Requires Xcode 13 or greater</text>
  <text id="descriptive-name" style="stroke:none;fill:black;font-family:sans-serif;font-size:13;text-anchor:end;" transform="matrix(1 0 0 1 3036 1969)">Generated from antenna.radiowaves.left.and.right.slash</text>
  <text style="stroke:none;fill:black;font-family:sans-serif;font-size:13;text-anchor:end;" transform="matrix(1 0 0 1 3036 1987)">Typeset at 100 points</text>
  <text style="stroke:none;fill:black;font-family:sans-serif;font-size:13;" transform="matrix(1 0 0 1 263 726)">Small</text>
  <text style="stroke:none;fill:black;font-family:sans-serif;font-size:13;" transform="matrix(1 0 0 1 263 1156)">Medium</text>
  <text style="stroke:none;fill:black;font-family:sans-serif;font-size:13;" transform="matrix(1 0 0 1 263 1586)">Large</text>
 </g>
 <g id="Guides">
  <g id="H-reference" style="fill:#27AAE1;stroke:none;" transform="matrix(1 0 0 1 339 696)">
   <path d="M0.993347 0L3.6377 0L29.3282-67.1326L30.0301-67.1326L30.0301-70.459L28.1227-70.459ZM11.6882-24.4797L46.9818-24.4797L46.2311-26.7288L12.4382-26.7288ZM55.1193 0L57.7637 0L30.6381-70.459L29.4327-70.459L29.4327-67.1326Z"/>
  </g>
  <line id="Baseline-S" style="fill:none;stroke:#27AAE1;opacity:1;stroke-width:0.5;" x1="263" x2="3036" y1="696" y2="696"/>
  <line id="Capline-S" style="fill:none;stroke:#27AAE1;opacity:1;stroke-width:0.5;" x1="263" x2="3036" y1="625.541" y2="625.541"/>
  <g id="H-reference" style="fill:#27AAE1;stroke:none;" transform="matrix(1 0 0 1 339 1126)">
   <path d="M0.993347 0L3.6377 0L29.3282-67.1326L30.0301-67.1326L30.0301-70.459L28.1227-70.459ZM11.6882-24.4797L46.9818-24.4797L46.2311-26.7288L12.4382-26.7288ZM55.1193 0L57.7637 0L30.6381-70.459L29.4327-70.459L29.4327-67.1326Z"/>
  </g>
  <line id="Baseline-M" style="fill:none;stroke:#27AAE1;opacity:1;stroke-width:0.5;" x1="263" x2="3036" y1="1126" y2="1126"/>
  <line id="Capline-M" style="fill:none;stroke:#27AAE1;opacity:1;stroke-width:0.5;" x1="263" x2="3036" y1="1055.54" y2="1055.54"/>
  <g id="H-reference" style="fill:#27AAE1;stroke:none;" transform="matrix(1 0 0 1 339 1556)">
   <path d="M0.993347 0L3.6377 0L29.3282-67.1326L30.0301-67.1326L30.0301-70.459L28.1227-70.459ZM11.6882-24.4797L46.9818-24.4797L46.2311-26.7288L12.4382-26.7288ZM55.1193 0L57.7637 0L30.6381-70.459L29.4327-70.459L29.4327-67.1326Z"/>
  </g>
  <line id="Baseline-L" style="fill:none;stroke:#27AAE1;opacity:1;stroke-width:0.5;" x1="263" x2="3036" y1="1556" y2="1556"/>
  <line id="Capline-L" style="fill:none;stroke:#27AAE1;opacity:1;stroke-width:0.5;" x1="263" x2="3036" y1="1485.54" y2="1485.54"/>
  <line id="left-margin-Regular-M" style="fill:none;stroke:#00AEEF;stroke-width:0.5;opacity:1.0;" x1="1389.29" x2="1389.29" y1="1030.79" y2="1150.12"/>
  <line id="right-margin-Regular-M" style="fill:none;stroke:#00AEEF;stroke-width:0.5;opacity:1.0;" x1="1510.39" x2="1510.39" y1="1030.79" y2="1150.12"/>
 </g>
 <g id="Symbols">
  <g id="Black-L" transform="matrix(1 0 0 1 2846.52 1556)">
   <path d="M40.2157-3.17483Q42.3524-5.74624 41.8082-8.67697Q41.2639-11.6077 39.0053-14.1245Q33.1103-20.6576 30.0351-29.651Q26.9599-38.6444 26.9599-48.7694Q26.9599-56.8981 28.9332-64.2947Q30.9065-71.6912 34.7234-77.7419L23.3361-89.128Q17.5796-81.2351 14.4192-70.628Q11.2588-60.021 11.2588-48.7694Q11.2588-35.5799 15.3088-23.7349Q19.3589-11.89 27.353-3.51209Q30.7044-0.0388004 34.3229-0.203657Q37.9413-0.368513 40.2157-3.17483ZM60.8393-22.7348Q62.7425-25.2283 62.354-28.0611Q61.9655-30.8938 60.1195-33.4885Q58.2225-36.1521 56.8963-40.459Q55.5701-44.7659 55.5701-48.7694Q55.5701-50.477 55.8617-52.2917Q56.1534-54.1065 56.5927-55.8714L44.1245-68.3616Q39.8702-59.8617 39.8702-48.7694Q39.8702-41.1758 42.0065-34.3437Q44.1427-27.5115 48.2273-22.9772Q51.2465-19.8336 54.983-19.8817Q58.7195-19.9297 60.8393-22.7348ZM86.8736 26.4225Q90.4117 26.4225 92.4674 24.0989Q94.5232 21.7752 94.5232 17.844L94.5232-17.9409L79.2435-33.2193L79.2435 17.844Q79.2435 21.6013 81.3979 24.0119Q83.5522 26.4225 86.8736 26.4225ZM128.431-27.1218Q131.112-31.3156 132.505-36.9581Q133.898-42.6007 133.898-48.7694Q133.898-56.402 131.761-63.2348Q129.624-70.0676 125.519-74.5422Q122.521-77.7662 118.804-77.6785Q115.086-77.5909 112.927-74.7833Q111.024-72.2923 111.413-69.4596Q111.802-66.6268 113.648-64.0296Q115.516-61.418 116.857-57.1143Q118.198-52.8106 118.198-48.7694Q118.198-46.4672 117.678-43.9462Q117.158-41.4252 116.372-39.1811ZM148.989-6.54256Q155.788-14.7093 159.149-25.6994Q162.509-36.6896 162.509-48.7694Q162.509-61.8811 158.284-73.9889Q154.059-86.0967 146.415-93.9489Q143.062-97.4209 139.474-97.256Q135.885-97.0912 133.551-94.2861Q131.474-91.7147 131.979-88.784Q132.483-85.8533 134.761-83.3365Q140.599-76.8618 143.704-67.8678Q146.809-58.8737 146.809-48.7694Q146.809-39.9292 144.567-31.9835Q142.324-24.0377 137.677-17.8545ZM138.625 12.5107Q140.334 14.1608 142.699 14.1024Q145.065 14.044 146.578 12.5107Q148.286 10.8022 148.238 8.53472Q148.19 6.2672 146.578 4.67681L32.1611-109.702Q30.4332-111.409 28.0781-111.41Q25.7229-111.412 24.1313-109.819Q22.5396-108.227 22.5688-105.832Q22.598-103.438 24.1313-101.868Z"/>
  </g>
  <g id="Heavy-L" transform="matrix(1 0 0 1 2552.05 1556)">
   <path d="M39.0092-4.01113Q40.9644-6.35922 40.4689-9.05712Q39.9733-11.755 37.8781-14.1032Q31.8662-20.7608 28.6932-29.7713Q25.5201-38.7817 25.5201-48.9452Q25.5201-57.1646 27.5989-64.621Q29.6776-72.0774 33.6589-78.226L23.3351-88.5438Q17.5681-80.6752 14.4135-70.335Q11.2588-59.9948 11.2588-48.9452Q11.2588-35.9962 15.3621-24.3622Q19.4653-12.7282 27.4176-4.33843Q30.3756-1.24055 33.6552-1.35954Q36.9349-1.47852 39.0092-4.01113ZM59.1729-23.1785Q60.9497-25.4583 60.5642-28.0743Q60.1788-30.6904 58.4407-33.1069Q56.288-35.9821 54.9307-40.3391Q53.5734-44.6961 53.5734-48.9452Q53.5734-50.9379 53.9498-52.9745Q54.3263-55.0111 54.9299-56.949L43.6777-68.237Q39.3181-59.7603 39.3181-48.9452Q39.3181-41.5089 41.4866-34.8113Q43.6552-28.1136 47.7449-23.4524Q50.4263-20.5925 53.8145-20.6222Q57.2027-20.6519 59.1729-23.1785ZM84.6278 25.5158Q87.827 25.5158 89.6856 23.4057Q91.5441 21.2957 91.5441 17.7632L91.5441-20.3348L77.7351-34.1377L77.7351 17.7632Q77.7351 21.1679 79.6785 23.3418Q81.6219 25.5158 84.6278 25.5158ZM124.817-28.363Q127.331-32.4792 128.649-37.813Q129.967-43.1468 129.967-48.9452Q129.967-56.4025 127.796-63.1031Q125.624-69.8038 121.505-74.4144Q118.859-77.3547 115.478-77.2878Q112.097-77.2209 110.106-74.6822Q108.33-72.4145 108.718-69.7985Q109.106-67.1824 110.845-64.7538Q112.925-61.8931 114.319-57.5512Q115.712-53.2093 115.712-48.9452Q115.712-46.578 115.194-44.0683Q114.677-41.5586 113.85-39.3294ZM145.025-8.12435Q151.5-16.1984 154.763-26.7705Q158.026-37.3426 158.026-48.9452Q158.026-61.8259 153.789-73.6607Q149.552-85.4955 141.868-93.4837Q138.904-96.5756 135.649-96.4566Q132.395-96.3376 130.27-93.811Q128.365-91.4629 128.824-88.765Q129.282-86.0671 131.401-83.719Q137.374-77.106 140.573-68.0925Q143.771-59.079 143.771-48.9452Q143.771-40.262 141.521-32.4487Q139.272-24.6354 134.731-18.4185ZM137.262 12.2816Q138.882 13.8562 141.141 13.8116Q143.4 13.7669 144.855 12.2816Q146.475 10.6624 146.445 8.48515Q146.415 6.30785 144.855 4.78395L30.7329-109.324Q29.09-110.937 26.8458-110.943Q24.6016-110.949 23.0716-109.413Q21.5417-107.883 21.564-105.602Q21.5863-103.32 23.0716-101.826Z"/>
  </g>
  <g id="Bold-L" transform="matrix(1 0 0 1 2258.17 1556)">
   <path d="M37.4379-5.11934Q39.147-7.16581 38.7145-9.5457Q38.2821-11.9256 36.4186-14.0246Q30.2386-20.8302 26.9302-29.8785Q23.6217-38.9268 23.6217-49.165Q23.6217-57.5491 25.8573-65.1171Q28.0929-72.685 32.3242-78.9689L23.4001-87.8789Q17.5985-80.0603 14.4286-70.0259Q11.2588-59.9914 11.2588-49.165Q11.2588-36.5137 15.4288-25.1517Q19.5988-13.7897 27.4957-5.42111Q29.9588-2.80361 32.7961-2.87273Q35.6334-2.94184 37.4379-5.11934ZM56.9921-23.8102Q58.5843-25.8047 58.2168-28.1223Q57.8492-30.4399 56.2719-32.5909Q53.7786-35.7055 52.3635-40.1531Q50.9484-44.6007 50.9484-49.165Q50.9484-51.5657 51.4585-53.9181Q51.9686-56.2706 52.8224-58.4566L43.1578-68.1724Q38.5997-59.7275 38.5997-49.165Q38.5997-41.9248 40.8072-35.4006Q43.0148-28.8763 47.1219-24.1048Q49.3792-21.6255 52.3088-21.6362Q55.2383-21.6469 56.9921-23.8102ZM81.7902 24.3864Q84.5471 24.3864 86.1491 22.557Q87.7511 20.7276 87.7511 17.7073L87.7511-23.5279L75.8521-35.4126L75.8521 17.7073Q75.8521 20.6542 77.5235 22.5203Q79.1949 24.3864 81.7902 24.3864ZM120.12-29.6765Q122.496-33.7176 123.757-38.7319Q125.018-43.7463 125.018-49.165Q125.018-56.4116 122.803-62.9429Q120.588-69.4742 116.444-74.2024Q114.238-76.7621 111.305-76.7183Q108.371-76.6745 106.611-74.4828Q105.019-72.5167 105.394-70.1991Q105.768-67.8815 107.346-65.7021Q109.702-62.5455 111.186-58.1335Q112.669-53.7215 112.669-49.165Q112.669-46.6272 112.119-44.0409Q111.568-41.4546 110.621-39.1758ZM139.843-9.91684Q145.992-17.8729 149.175-27.9788Q152.359-38.0847 152.359-49.165Q152.359-61.7642 148.101-73.2577Q143.843-84.7511 136.122-92.8569Q133.644-95.4601 130.829-95.391Q128.013-95.3219 126.165-93.1586Q124.5-91.1122 124.899-88.7323Q125.298-86.3524 127.185-84.2533Q133.35-77.4769 136.68-68.4216Q140.01-59.3662 140.01-49.165Q140.01-40.5854 137.706-32.8627Q135.403-25.14 130.903-18.8566ZM135.597 12.0368Q137.079 13.4895 139.163 13.4603Q141.247 13.4311 142.604 12.0368Q144.086 10.555 144.075 8.5333Q144.064 6.51163 142.604 5.10239L28.7209-108.788Q27.2162-110.256 25.1507-110.27Q23.0853-110.284 21.6618-108.847Q20.2384-107.423 20.253-105.325Q20.2676-103.226 21.6618-101.854Z"/>
  </g>
  <g id="Semibold-L" transform="matrix(1 0 0 1 1963.41 1556)">
   <path d="M36.3547-5.88334Q37.894-7.72186 37.5051-9.88253Q37.1162-12.0432 35.4125-13.9705Q29.1165-20.8781 25.7147-29.9524Q22.313-39.0268 22.313-49.3164Q22.313-57.8142 24.6567-65.459Q27.0003-73.1038 31.4041-79.4811L23.4449-87.4205Q17.6194-79.6364 14.4391-69.8128Q11.2588-59.9891 11.2588-49.3164Q11.2588-36.8705 15.4748-25.696Q19.6908-14.5215 27.5495-6.1675Q29.6714-3.88118 32.2038-3.91592Q34.7362-3.95065 36.3547-5.88334ZM55.4887-24.2457Q56.9537-26.0435 56.5984-28.1553Q56.2431-30.2671 54.7768-32.2351Q52.0487-35.5149 50.5937-40.0249Q49.1387-44.5349 49.1387-49.3164Q49.1387-51.9985 49.741-54.5687Q50.3433-57.1389 51.3695-59.4959L42.7994-68.1278Q38.1044-59.7049 38.1044-49.3164Q38.1044-42.2114 40.3389-35.8068Q42.5734-29.4022 46.6924-24.5545Q48.6574-22.3377 51.2707-22.3353Q53.884-22.3328 55.4887-24.2457ZM79.834 23.6077Q82.286 23.6077 83.7111 21.9719Q85.1362 20.336 85.1362 17.6687L85.1362-25.7292L74.554-36.2915L74.554 17.6687Q74.554 20.3001 76.0378 21.9539Q77.5217 23.6077 79.834 23.6077ZM116.882-30.5821Q119.163-34.5713 120.384-39.3654Q121.606-44.1595 121.606-49.3164Q121.606-56.4179 119.361-62.8325Q117.117-69.247 112.956-74.0563Q111.053-76.3535 108.428-76.3257Q105.803-76.2978 104.201-74.3452Q102.736-72.5871 103.102-70.4753Q103.467-68.3635 104.933-66.3558Q107.48-62.9952 109.026-58.5349Q110.571-54.0746 110.571-49.3164Q110.571-46.6611 109.998-44.022Q109.425-41.3829 108.395-39.0699ZM136.27-11.1526Q142.195-19.0272 145.323-28.8117Q148.451-38.5962 148.451-49.3164Q148.451-61.7217 144.18-72.9798Q139.908-84.2378 132.161-92.4247Q130.019-94.6911 127.506-94.6564Q124.992-94.6217 123.336-92.7089Q121.835-90.8703 122.193-88.7097Q122.552-86.549 124.278-84.6217Q130.575-77.7327 133.996-68.6484Q137.417-59.5641 137.417-49.3164Q137.417-40.8083 135.076-33.148Q132.735-25.4878 128.264-19.1586ZM134.448 11.8681Q135.836 13.2367 137.799 13.2181Q139.762 13.1996 141.052 11.8681Q142.439 10.4809 142.441 8.56649Q142.444 6.65211 141.052 5.32192L27.3337-108.419Q25.9244-109.787 23.9822-109.807Q22.0399-109.826 20.6899-108.456Q19.3398-107.106 19.3491-105.134Q19.3584-103.161 20.6899-101.873Z"/>
  </g>
  <g id="Medium-L" transform="matrix(1 0 0 1 1668.18 1556)">
   <path d="M35.5333-6.46263Q36.944-8.14349 36.588-10.1379Q36.2321-12.1324 34.6496-13.9294Q28.2657-20.9143 24.7932-30.0085Q21.3206-39.1026 21.3206-49.4313Q21.3206-58.0152 23.7463-65.7183Q26.1719-73.4214 30.7064-79.8695L23.4789-87.0729Q17.6353-79.315 14.447-69.6512Q11.2588-59.9873 11.2588-49.4313Q11.2588-37.141 15.5097-26.1087Q19.7606-15.0764 27.5903-6.73344Q29.4536-4.69824 31.7548-4.7069Q34.056-4.71557 35.5333-6.46263ZM54.3488-24.5758Q55.7173-26.2246 55.3713-28.1804Q55.0254-30.1362 53.6432-31.9654Q50.7369-35.3703 49.2517-39.9277Q47.7665-44.485 47.7665-49.4313Q47.7665-52.3267 48.4387-55.062Q49.1109-57.7972 50.2678-60.284L42.5276-68.0941Q37.7289-59.6878 37.7289-49.4313Q37.7289-42.4288 39.9837-36.1148Q42.2386-29.8009 46.3668-24.8955Q48.1101-22.8777 50.4836-22.8653Q52.8571-22.8529 54.3488-24.5758ZM78.3508 23.0174Q80.5716 23.0174 81.8625 21.5282Q83.1535 20.039 83.1535 17.6395L83.1535-27.3983L73.5697-36.958L73.5697 17.6395Q73.5697 20.0316 74.9114 21.5245Q76.2531 23.0174 78.3508 23.0174ZM114.427-31.2687Q116.636-35.2187 117.827-39.8458Q119.018-44.4729 119.018-49.4313Q119.018-56.4227 116.752-62.7487Q114.485-69.0748 110.311-73.9454Q108.637-76.0437 106.246-76.028Q103.855-76.0122 102.374-74.241Q101.006-72.6405 101.364-70.6848Q101.722-68.729 103.104-66.8515Q105.796-63.3363 107.388-58.8393Q108.981-54.3423 108.981-49.4313Q108.981-46.6868 108.39-44.0077Q107.8-41.3285 106.707-38.9896ZM133.561-12.0896Q139.316-19.9025 142.402-29.4433Q145.489-38.9841 145.489-49.4313Q145.489-61.6895 141.206-72.7691Q136.924-83.8487 129.157-92.097Q127.27-94.1081 124.986-94.0994Q122.702-94.0907 121.19-92.3678Q119.814-90.687 120.142-88.6925Q120.469-86.6981 122.074-84.901Q128.471-77.9266 131.961-68.8204Q135.451-59.7142 135.451-49.4313Q135.451-40.9773 133.082-33.3644Q130.713-25.7515 126.263-19.3876ZM133.578 11.7401Q134.893 13.045 136.765 13.0345Q138.636 13.024 139.875 11.7401Q141.19 10.4247 141.202 8.59166Q141.215 6.75862 139.875 5.48838L26.282-108.14Q24.9449-109.431 23.0961-109.455Q21.2473-109.479 19.9529-108.161Q18.6585-106.866 18.6638-104.989Q18.669-103.112 19.9529-101.888Z"/>
  </g>
  <g id="Regular-L" transform="matrix(1 0 0 1 1373.4 1556)">
   <path d="M34.462-7.21823Q35.7048-8.69343 35.3919-10.471Q35.079-12.2487 33.6545-13.8759Q27.156-20.9617 23.5911-30.0816Q20.0262-39.2015 20.0262-49.5811Q20.0262-58.2773 22.5588-66.0565Q25.0914-73.8357 29.7964-80.3761L23.5232-86.6195Q17.6559-78.8958 14.4574-69.4404Q11.2588-59.985 11.2588-49.5811Q11.2588-37.4938 15.5552-26.647Q19.8516-15.8001 27.6435-7.47163Q29.1694-5.76397 31.169-5.73863Q33.1686-5.71328 34.462-7.21823ZM52.8619-25.0065Q54.1046-26.4608 53.7708-28.2131Q53.4369-29.9653 52.1645-31.6135Q49.026-35.1817 47.5014-39.8009Q45.9767-44.42 45.9767-49.5811Q45.9767-52.7548 46.7401-55.7054Q47.5035-58.656 48.8308-61.3119L42.1731-68.05Q37.239-59.6654 37.239-49.5811Q37.239-42.7123 39.5205-36.5166Q41.802-30.3209 45.942-25.3404Q47.3962-23.582 49.457-23.5567Q51.5178-23.5313 52.8619-25.0065ZM76.4161 22.2473Q78.3353 22.2473 79.4513 20.9495Q80.5674 19.6517 80.5674 17.6014L80.5674-29.5754L72.2858-37.8272L72.2858 17.6014Q72.2858 19.6814 73.442 20.9643Q74.5983 22.2473 76.4161 22.2473ZM111.225-32.1643Q113.339-36.063 114.492-40.4723Q115.644-44.8816 115.644-49.5811Q115.644-56.4289 113.347-62.6395Q111.051-68.85 106.86-73.8009Q105.487-75.6397 103.401-75.6397Q101.314-75.6397 99.9913-74.105Q98.7485-72.7102 99.0972-70.9579Q99.4459-69.2057 100.718-67.498Q103.598-63.7811 105.252-59.2363Q106.906-54.6915 106.906-49.5811Q106.906-46.7203 106.293-43.989Q105.68-41.2576 104.505-38.8848ZM130.027-13.3117Q135.561-21.0442 138.592-30.2671Q141.624-39.4901 141.624-49.5811Q141.624-61.6474 137.328-72.4943Q133.031-83.3411 125.239-91.6696Q123.684-93.3475 121.699-93.3729Q119.714-93.3982 118.391-91.923Q117.178-90.4478 117.466-88.6702Q117.753-86.8926 119.199-85.2653Q125.727-78.1796 129.307-69.0448Q132.886-59.91 132.886-49.5811Q132.886-41.1977 130.48-33.6466Q128.075-26.0955 123.653-19.6862ZM132.442 11.5732Q133.664 12.795 135.416 12.795Q137.168 12.795 138.339 11.5732Q139.561 10.3514 139.587 8.6245Q139.612 6.89756 138.339 5.7055L24.9101-107.775Q23.6673-108.967 21.9404-108.996Q20.2135-109.026 18.9917-107.775Q17.7699-106.553 17.7699-104.8Q17.7699-103.048 18.9917-101.907Z"/>
  </g>
  <g id="Light-L" transform="matrix(1 0 0 1 1079.02 1556)">
   <path d="M32.8818-8.44954Q33.8168-9.55535 33.5654-10.9225Q33.3141-12.2897 32.2385-13.486Q25.4732-20.6333 21.7236-29.8866Q17.974-39.1399 17.974-49.7453Q17.974-58.893 20.7837-66.9902Q23.5933-75.0875 28.7703-81.8126L23.9953-86.5374Q17.9638-78.9779 14.6113-69.5738Q11.2588-60.1697 11.2588-49.7453Q11.2588-37.8632 15.6065-27.2729Q19.9542-16.6826 27.6846-8.60034Q28.8205-7.32364 30.3686-7.30856Q31.9168-7.29348 32.8818-8.44954ZM50.6044-25.9711Q51.5394-27.097 51.3081-28.4491Q51.0769-29.8012 50.0918-30.9773Q46.5634-34.5661 44.8746-39.4315Q43.1858-44.2968 43.1858-49.7453Q43.1858-53.5551 44.2262-56.988Q45.2666-60.4209 47.0659-63.4667L42.0295-68.5836Q36.5208-60.24 36.5208-49.7453Q36.5208-43.0201 38.8228-36.9886Q41.1248-30.9571 45.3468-26.2023Q46.4727-24.8954 48.041-24.8803Q49.6092-24.8653 50.6044-25.9711ZM74.0971 21.4264Q75.5648 21.4264 76.4243 20.4262Q77.2838 19.4259 77.2838 17.8476L77.2838-33.2488L70.8903-39.5921L70.8903 17.8476Q70.8903 19.4762 71.79 20.4513Q72.6897 21.4264 74.0971 21.4264ZM106.567-31.6308Q109.03-35.6115 110.367-40.2055Q111.704-44.7995 111.704-49.7453Q111.704-56.4905 109.376-62.5471Q107.049-68.6038 102.797-73.3084Q101.752-74.6957 100.168-74.6957Q98.585-74.6957 97.5697-73.4893Q96.6348-72.4639 96.8911-71.1118Q97.1475-69.7597 98.1326-68.483Q101.279-64.643 103.159-59.9033Q105.039-55.1635 105.039-49.7453Q105.039-46.1868 104.169-42.8192Q103.3-39.4517 101.591-36.6069ZM124.692-13.4759Q130.492-21.1057 133.729-30.3389Q136.966-39.5722 136.966-49.7453Q136.966-61.6474 132.618-72.2378Q128.27-82.8281 120.54-90.9103Q119.354-92.1368 117.831-92.1518Q116.308-92.1669 115.292-91.0611Q114.408-89.9553 114.644-88.5881Q114.88-87.2209 115.936-86.0247Q122.751-78.8773 126.526-69.5989Q130.301-60.3205 130.301-49.7453Q130.301-40.8489 127.566-32.8873Q124.832-24.9258 119.856-18.3113ZM131.436 11.6553Q132.391 12.6103 133.744 12.6103Q135.096 12.6103 136.02 11.6553Q136.975 10.7003 136.991 9.36329Q137.006 8.02627 136.02 7.12152L21.9549-106.974Q21.02-107.879 19.683-107.929Q18.346-107.979 17.391-106.974Q16.4359-106.019 16.4359-104.667Q16.4359-103.315 17.391-102.44Z"/>
  </g>
  <g id="Thin-L" transform="matrix(1 0 0 1 785.387 1556)">
   <path d="M30.7919-10.0781Q31.3197-10.6953 31.1498-11.5197Q30.9799-12.344 30.3657-12.9703Q23.2475-20.199 19.2537-29.6288Q15.2598-39.0585 15.2598-49.9624Q15.2598-59.7073 18.4359-68.2252Q21.612-76.7432 27.4132-83.7125L24.6195-86.4288Q18.3709-79.0865 14.8148-69.7502Q11.2588-60.414 11.2588-49.9624Q11.2588-38.3518 15.6743-28.1007Q20.0899-17.8497 27.7388-10.0931Q28.3591-9.38642 29.3101-9.38491Q30.2611-9.38341 30.7919-10.0781ZM47.6188-27.2467Q48.1466-27.9384 48.0511-28.7612Q47.9556-29.584 47.3504-30.1359Q43.3063-33.7518 41.4004-38.9429Q39.4945-44.134 39.4945-49.9624Q39.4945-54.6136 40.9013-58.6844Q42.3081-62.7551 44.7317-66.3166L41.8395-69.2893Q35.5708-61 35.5708-49.9624Q35.5708-43.4273 37.9-37.6129Q40.2291-31.7985 44.5597-27.3422Q45.2514-26.6325 46.1682-26.631Q47.085-26.6295 47.6188-27.2467ZM71.0301 20.3407Q71.9007 20.3407 72.4209 19.734Q72.9411 19.1274 72.9411 18.1733L72.9411-38.1072L69.0446-41.9263L69.0446 18.1733Q69.0446 19.2048 69.6051 19.7727Q70.1655 20.3407 71.0301 20.3407ZM100.406-30.9251Q103.33-35.0144 104.911-39.8527Q106.492-44.6909 106.492-49.9624Q106.492-56.5719 104.125-62.425Q101.757-68.2781 97.423-72.657Q96.8118-73.4471 95.8935-73.4471Q94.9751-73.4471 94.3669-72.6751Q93.8392-72.1382 93.9734-71.3154Q94.1076-70.4926 94.7128-69.7859Q98.212-65.783 100.39-60.7854Q102.569-55.7878 102.569-49.9624Q102.569-45.4811 101.36-41.2721Q100.151-37.0632 97.7366-33.5941ZM117.635-13.693Q123.788-21.1872 127.296-30.4339Q130.804-39.6807 130.804-49.9624Q130.804-61.6474 126.389-71.8985Q121.973-82.1495 114.324-89.9061Q113.627-90.5354 112.714-90.5369Q111.802-90.5384 111.194-89.9211Q110.743-89.3039 110.912-88.4796Q111.08-87.6552 111.62-87.0289Q118.816-79.8002 122.848-70.3317Q126.881-60.8633 126.881-49.9624Q126.881-40.3875 123.712-31.8831Q120.544-23.3787 114.835-16.4928ZM130.106 11.7639Q130.709 12.366 131.531 12.366Q132.354 12.366 132.953 11.7639Q133.556 11.1617 133.557 10.3404Q133.559 9.51908 132.953 8.99431L18.0465-105.916Q17.5187-106.44 16.6974-106.518Q15.876-106.595 15.2739-105.916Q14.6717-105.313 14.6717-104.491Q14.6717-103.668 15.2739-103.146Z"/>
  </g>
  <g id="Ultralight-L" transform="matrix(1 0 0 1 490.254 1556)">
   <path d="M29.7215-10.9122Q30.0407-11.2792 29.9125-11.8255Q29.7843-12.3718 29.4064-12.7062Q22.1076-19.9766 17.9886-29.4967Q13.8696-39.0168 13.8696-50.0736Q13.8696-60.1243 17.2334-68.8577Q20.5971-77.5912 26.7181-84.6857L24.9393-86.3732Q18.5794-79.1421 14.9191-69.8406Q11.2588-60.5391 11.2588-50.0736Q11.2588-38.602 15.7091-28.5247Q20.1594-18.4475 27.7666-10.8578Q28.1228-10.443 28.7679-10.4484Q29.4131-10.4539 29.7215-10.9122ZM46.0896-27.9001Q46.4089-28.3693 46.3829-28.9211Q46.3569-29.4728 45.9463-29.705Q41.6381-33.3348 39.6209-38.6927Q37.6038-44.0506 37.6038-50.0736Q37.6038-55.1558 39.1983-59.5532Q40.7928-63.9506 43.5361-67.7764L41.7422-69.6507Q35.0842-61.3893 35.0842-50.0736Q35.0842-43.6358 37.4273-37.9326Q39.7704-32.2295 44.1566-27.9261Q44.6258-27.5222 45.209-27.5277Q45.7921-27.5331 46.0896-27.9001ZM69.4592 19.7847Q70.0239 19.7847 70.3704 19.3795Q70.7168 18.9744 70.7168 18.3402L70.7168-40.5957L68.0993-43.1219L68.0993 18.3402Q68.0993 19.0657 68.486 19.4252Q68.8726 19.7847 69.4592 19.7847ZM97.2499-30.5636Q100.41-34.7086 102.117-39.6719Q103.823-44.6353 103.823-50.0736Q103.823-56.6136 101.434-62.3624Q99.0458-68.1113 94.6704-72.3233Q94.2817-72.8076 93.7039-72.8076Q93.1262-72.8076 92.7265-72.258Q92.4073-71.9714 92.4789-71.4197Q92.5506-70.8679 92.9611-70.4531Q96.6411-66.3668 98.9724-61.2372Q101.304-56.1075 101.304-50.0736Q101.304-45.1196 99.9211-40.4797Q98.5385-35.8398 95.7625-32.051ZM114.02-13.8042Q120.354-21.2289 124.001-30.4826Q127.649-39.7363 127.649-50.0736Q127.649-61.6474 123.198-71.7247Q118.748-81.802 111.141-89.3917Q110.693-89.7152 110.094-89.7097Q109.494-89.7043 109.095-89.3373Q108.867-88.9702 109-88.4239Q109.134-87.8776 109.41-87.5433Q116.8-80.2728 120.964-70.7071Q125.129-61.1413 125.129-50.0736Q125.129-40.1511 121.738-31.3687Q118.347-22.5863 112.263-15.5613ZM129.425 11.8195Q129.847 12.2409 130.398 12.2409Q130.95 12.2409 131.382 11.8195Q131.804 11.3981 131.798 10.8409Q131.793 10.2837 131.382 9.95355L16.0446-105.373Q15.7253-105.704 15.1682-105.795Q14.611-105.886 14.1895-105.373Q13.7681-104.952 13.7681-104.4Q13.7681-103.849 14.1895-103.508Z"/>
  </g>
  <g id="Black-M" transform="matrix(1 0 0 1 2864.48 1126)">
   <path d="M31.9796-9.84349Q33.7493-11.9775 33.2941-14.3926Q32.8389-16.8076 30.9959-18.844Q26.4931-23.8069 24.1697-30.7778Q21.8463-37.7487 21.8463-45.5906Q21.8463-51.8714 23.322-57.5935Q24.7977-63.3156 27.6775-67.9443L18.1443-77.4778Q13.6712-71.3643 11.1969-62.9242Q8.72266-54.484 8.72266-45.5906Q8.72266-35.1933 11.8216-25.8699Q14.9205-16.5465 21.1415-10.0994Q24.0233-7.14428 27.0567-7.31282Q30.0901-7.48135 31.9796-9.84349ZM48.2611-25.2986Q49.8025-27.3698 49.5128-29.6964Q49.2231-32.023 47.7391-34.1224Q46.4363-36.007 45.4133-39.3341Q44.3904-42.6611 44.3904-45.5906Q44.3904-46.7547 44.581-48.0353Q44.7716-49.3159 45.0346-50.5875L34.5496-61.0777Q31.2664-54.478 31.2664-45.5906Q31.2664-39.5918 32.8964-34.2053Q34.5265-28.8188 37.6976-25.4456Q40.2826-22.8275 43.41-22.8818Q46.5375-22.9362 48.2611-25.2986ZM68.9206 13.203Q71.8917 13.203 73.6191 11.2595Q75.3465 9.31601 75.3465 5.99163L75.3465-20.2756L62.5005-33.1219L62.5005 5.99163Q62.5005 9.14442 64.3162 11.1737Q66.1318 13.203 68.9206 13.203ZM101.976-27.8092Q104.244-31.136 105.412-35.7979Q106.58-40.4598 106.58-45.5906Q106.58-51.6407 104.95-57.027Q103.321-62.4133 100.144-65.7297Q97.5641-68.4101 94.4625-68.3245Q91.3608-68.2388 89.5859-65.877Q88.0445-63.8052 88.3341-61.4786Q88.6236-59.152 90.1076-57.0533Q91.407-55.2272 92.4317-51.8994Q93.4563-48.5716 93.4563-45.5906Q93.4563-43.7682 93.0163-41.7192Q92.5763-39.6702 91.9301-37.8549ZM118.112-11.6673Q123.694-18.0602 126.409-26.9354Q129.124-35.8105 129.124-45.5906Q129.124-55.925 125.854-65.5053Q122.584-75.0856 116.705-81.0188Q113.824-83.9742 110.819-83.8057Q107.814-83.6372 105.867-81.2747Q104.155-79.1407 104.578-76.7256Q105.002-74.3106 106.851-72.2742Q111.297-67.3685 113.648-60.3977Q116-53.4269 116-45.5906Q116-38.5373 114.224-32.2119Q112.448-25.8866 108.682-21.0974ZM108.434 1.9649Q109.798 3.27204 111.668 3.21495Q113.538 3.15785 114.726 1.9649Q116.09 0.600653 116.035-1.18081Q115.981-2.96228 114.726-4.21264L25.7436-93.143Q24.3736-94.5075 22.5065-94.5072Q20.6394-94.5069 19.3893-93.2572Q18.1393-92.0071 18.1678-90.1087Q18.1963-88.2103 19.3893-86.9654Z"/>
  </g>
  <g id="Heavy-M" transform="matrix(1 0 0 1 2569.74 1126)">
   <path d="M30.9459-10.5474Q32.5666-12.4973 32.1534-14.7226Q31.7401-16.9479 30.0246-18.8592Q25.4322-23.938 23.0302-30.9134Q20.6282-37.8887 20.6282-45.7473Q20.6282-52.0752 22.1814-57.8264Q23.7346-63.5777 26.7316-68.285L18.0997-76.9144Q13.6316-70.8094 11.1771-62.6254Q8.72266-54.4414 8.72266-45.7473Q8.72266-35.5661 11.8689-26.4254Q15.0151-17.2846 21.2009-10.8031Q23.7341-8.17519 26.4779-8.29794Q29.2217-8.42068 30.9459-10.5474ZM46.8403-25.6434Q48.2865-27.5358 47.9904-29.6876Q47.6942-31.8393 46.2892-33.8081Q44.7724-35.8976 43.7342-39.2509Q42.6959-42.6042 42.6959-45.7473Q42.6959-47.1314 42.9439-48.5844Q43.1918-50.0374 43.572-51.4421L34.1261-60.9067Q30.7929-54.3259 30.7929-45.7473Q30.7929-39.889 32.4526-34.6188Q34.1123-29.3487 37.281-25.8305Q39.566-23.4481 42.3984-23.4836Q45.2308-23.5191 46.8403-25.6434ZM66.9391 12.3923Q69.6206 12.3923 71.1789 10.6302Q72.7372 8.86805 72.7372 5.88987L72.7372-22.2769L61.1547-33.8569L61.1547 5.88987Q61.1547 8.73963 62.7878 10.566Q64.4209 12.3923 66.9391 12.3923ZM98.8723-29.0717Q100.945-32.3152 102.023-36.6582Q103.101-41.0012 103.101-45.7473Q103.101-51.6354 101.441-56.9068Q99.7796-62.1782 96.5947-65.6503Q94.3284-68.095 91.5097-68.0296Q88.691-67.9641 87.0516-65.8349Q85.6054-63.9474 85.9028-61.7957Q86.2001-59.6439 87.6052-57.6703Q89.0886-55.6122 90.1435-52.265Q91.1984-48.9178 91.1984-45.7473Q91.1984-43.9258 90.7846-41.9465Q90.3709-39.9672 89.7341-38.21ZM114.729-13.1985Q119.97-19.5102 122.571-27.9758Q125.172-36.4414 125.172-45.7473Q125.172-55.8711 121.895-65.2081Q118.617-74.5452 112.693-80.6341Q110.158-83.2596 107.437-83.1368Q104.716-83.0141 102.946-80.8898Q101.371-78.9399 101.755-76.7146Q102.138-74.4893 103.867-72.578Q108.419-67.5428 110.844-60.5662Q113.269-53.5897 113.269-45.7473Q113.269-38.8948 111.516-32.7368Q109.764-26.5788 106.152-21.7756ZM107.194 1.73335Q108.496 2.99128 110.299 2.94766Q112.102 2.90404 113.256 1.73335Q114.558 0.431795 114.522-1.29743Q114.487-3.02666 113.256-4.23853L24.6201-92.8471Q23.3047-94.1462 21.5101-94.1486Q19.7154-94.1511 18.5011-92.9343Q17.2868-91.72 17.3086-89.8954Q17.3304-88.0708 18.5011-86.8752Z"/>
  </g>
  <g id="Bold-M" transform="matrix(1 0 0 1 2275.24 1126)">
   <path d="M29.7896-11.3349Q31.2436-13.0786 30.8772-15.0917Q30.5109-17.1048 28.9382-18.8761Q24.2454-24.0848 21.7555-31.065Q19.2655-38.0453 19.2655-45.9226Q19.2655-52.3031 20.9054-58.087Q22.5454-63.8708 25.6734-68.6661L18.0499-76.284Q13.5873-70.1886 11.155-62.2911Q8.72266-54.3937 8.72266-45.9226Q8.72266-35.9833 11.9218-27.0467Q15.121-18.1102 21.2674-11.5903Q23.4104-9.32841 25.8304-9.39994Q28.2503-9.47146 29.7896-11.3349ZM45.2509-26.0292Q46.5907-27.7216 46.2873-29.6777Q45.9839-31.6339 44.6671-33.4565Q42.9111-35.7752 41.8558-39.1578Q40.8005-42.5405 40.8005-45.9226Q40.8005-47.5528 41.1125-49.1987Q41.4246-50.8446 41.9358-52.3981L33.6524-60.7153Q30.2632-54.1558 30.2632-45.9226Q30.2632-40.2215 31.9561-35.0815Q33.6491-29.9414 36.8149-26.2612Q38.7643-24.1424 41.2667-24.1568Q43.769-24.1712 45.2509-26.0292ZM64.7224 11.4855Q67.08 11.4855 68.4491 9.9262Q69.8183 8.36694 69.8183 5.77604L69.8183-24.5157L59.6493-34.6791L59.6493 5.77604Q59.6493 8.28682 61.0781 9.88614Q62.5069 11.4855 64.7224 11.4855ZM95.4007-30.484Q97.2545-33.6342 98.2322-37.6206Q99.2099-41.607 99.2099-45.9226Q99.2099-51.6296 97.5142-56.7724Q95.8185-61.9152 92.6244-65.5614Q90.7087-67.7425 88.2065-67.6997Q85.7044-67.6569 84.2166-65.7879Q82.8768-64.1065 83.183-62.1504Q83.4892-60.1942 84.8059-58.3606Q86.4951-56.0428 87.5839-52.674Q88.6726-49.3051 88.6726-45.9226Q88.6726-44.1021 88.2882-42.2008Q87.9038-40.2995 87.2775-38.6072ZM110.945-14.9113Q115.804-21.1323 118.277-29.1397Q120.75-37.147 120.75-45.9226Q120.75-55.8108 117.466-64.8758Q114.181-73.9408 108.206-80.2038Q106.057-82.4601 103.654-82.3886Q101.251-82.317 99.6779-80.4591Q98.258-78.7154 98.596-76.7023Q98.9339-74.6893 100.529-72.9179Q105.199-67.7378 107.706-60.7548Q110.213-53.7718 110.213-45.9226Q110.213-39.2947 108.487-33.3239Q106.76-27.3531 103.322-22.5342ZM105.808 1.47433Q107.039 2.6772 108.767 2.64866Q110.495 2.62011 111.612 1.47433Q112.844 0.242904 112.829-1.42789Q112.815-3.09869 111.612-4.26749L23.3633-92.5161Q22.1091-93.742 20.3955-93.7475Q18.6819-93.7531 17.5076-92.5732Q16.3332-91.3989 16.3475-89.6569Q16.3618-87.9149 17.5076-86.7743Z"/>
  </g>
  <g id="Semibold-M" transform="matrix(1 0 0 1 1980.05 1126)">
   <path d="M28.9925-11.8778Q30.3315-13.4794 29.9975-15.3462Q29.6635-17.2129 28.1892-18.8878Q23.4273-24.186 20.8767-31.1696Q18.326-38.1532 18.326-46.0435Q18.326-52.4602 20.0258-58.2666Q21.7255-64.0729 24.9439-68.9288L18.0155-75.8495Q13.5568-69.7606 11.1397-62.0607Q8.72266-54.3608 8.72266-46.0435Q8.72266-36.2708 11.9583-27.4751Q15.1939-18.6794 21.3132-12.1329Q23.1874-10.1234 25.384-10.1596Q27.5806-10.1959 28.9925-11.8778ZM44.1552-26.2951Q45.4216-27.8497 45.1132-29.671Q44.8048-31.4922 43.5489-33.2141Q41.6279-35.6908 40.5608-39.0937Q39.4937-42.4966 39.4937-46.0435Q39.4937-47.8434 39.85-49.6222Q40.2063-51.401 40.8078-53.0572L33.3258-60.5834Q29.898-54.0385 29.898-46.0435Q29.898-40.4508 31.6139-35.4004Q33.3297-30.3501 36.4937-26.5581Q38.2117-24.621 40.4865-24.6209Q42.7613-24.6208 44.1552-26.2951ZM63.1943 10.8603Q65.3286 10.8603 66.5673 9.44089Q67.806 8.02148 67.806 5.69757L67.806-26.059L58.6114-35.2459L58.6114 5.69757Q58.6114 7.97465 59.8994 9.41747Q61.1874 10.8603 63.1943 10.8603ZM93.0074-31.4576Q94.7102-34.5436 95.6186-38.2841Q96.5271-42.0245 96.5271-46.0435Q96.5271-51.6256 94.8074-56.6797Q93.0877-61.7339 89.8872-65.5001Q88.2134-67.4995 85.9294-67.4723Q83.6454-67.445 82.2622-65.7555Q80.9958-64.2161 81.308-62.3949Q81.6202-60.5736 82.8761-58.8365Q84.7072-56.3397 85.8192-52.9559Q86.9313-49.5721 86.9313-46.0435Q86.9313-44.2236 86.5672-42.3761Q86.2031-40.5286 85.5839-38.8811ZM108.336-16.0921Q112.932-22.2506 115.317-29.9421Q117.702-37.6335 117.702-46.0435Q117.702-55.7692 114.412-64.6466Q111.122-73.5241 105.112-79.9071Q103.23-81.909 101.046-81.8727Q98.8626-81.8365 97.425-80.1622Q96.1117-78.5606 96.4184-76.6939Q96.725-74.8271 98.2283-73.1523Q102.98-67.8722 105.543-60.8848Q108.107-53.8973 108.107-46.0435Q108.107-39.5704 106.398-33.7287Q104.69-27.8869 101.371-23.0572ZM104.852 1.29576Q106.035 2.46068 107.711 2.44253Q109.387 2.42437 110.479 1.29576Q111.662 0.112683 111.662-1.51783Q111.662-3.14834 110.479-4.28746L22.4968-92.2879Q21.2849-93.4634 19.6271-93.471Q17.9694-93.4787 16.8226-92.3243Q15.6758-91.1775 15.6849-89.4924Q15.694-87.8073 16.8226-86.7047Z"/>
  </g>
  <g id="Medium-M" transform="matrix(1 0 0 1 1684.5 1126)">
   <path d="M28.388-12.2894Q29.6399-13.7833 29.3305-15.5391Q29.021-17.2949 27.6212-18.8966Q22.807-24.2627 20.2103-31.2489Q17.6137-38.2351 17.6137-46.1352Q17.6137-52.5794 19.3588-58.4027Q21.1039-64.2261 24.3907-69.128L17.9895-75.52Q13.5336-69.4361 11.1281-61.886Q8.72266-54.3359 8.72266-46.1352Q8.72266-36.4889 11.9859-27.7999Q15.2492-19.111 21.3479-12.5444Q23.0182-10.7262 25.0455-10.7357Q27.0728-10.7451 28.388-12.2894ZM43.3244-26.4967Q44.5352-27.9468 44.223-29.6658Q43.9108-31.3848 42.7011-33.0303Q40.6549-35.6268 39.5789-39.0451Q38.5029-42.4633 38.5029-46.1352Q38.5029-48.0636 38.8927-49.9433Q39.2825-51.8229 39.9526-53.5569L33.0782-60.4834Q29.6211-53.9496 29.6211-46.1352Q29.6211-40.6246 31.3543-35.6423Q33.0876-30.6599 36.2501-26.7832Q37.7927-24.9839 39.8949-24.9728Q41.9972-24.9617 43.3244-26.4967ZM62.0356 10.3863Q64.0006 10.3863 65.1404 9.0729Q66.2802 7.75954 66.2802 5.63807L66.2802-27.2293L57.8245-35.6757L57.8245 5.63807Q57.8245 7.73796 59.0057 9.06211Q60.187 10.3863 62.0356 10.3863ZM91.1926-32.1959Q92.7809-35.2331 93.6369-38.7871Q94.4928-42.3411 94.4928-46.1352Q94.4928-51.6225 92.755-56.6094Q91.0171-61.5964 87.8118-65.4536Q86.3213-67.3152 84.2027-67.2998Q82.0842-67.2844 80.7803-65.7309Q79.5695-64.2993 79.8863-62.5803Q80.2031-60.8613 81.4129-59.1973Q83.3515-56.5648 84.4813-53.1697Q85.611-49.7745 85.611-46.1352Q85.611-44.3158 85.2622-42.509Q84.9135-40.7023 84.2998-39.0887ZM106.358-16.9875Q110.754-23.0985 113.073-30.5504Q115.391-38.0024 115.391-46.1352Q115.391-55.7377 112.097-64.4729Q108.803-73.2081 102.766-79.6821Q101.086-81.4911 99.0689-81.4816Q97.0514-81.4722 95.7166-79.9371Q94.4843-78.4432 94.7672-76.6874Q95.0502-74.9316 96.4835-73.3299Q101.297-67.9742 103.903-60.9833Q106.509-53.9925 106.509-46.1352Q106.509-39.7795 104.815-34.0356Q103.12-28.2917 99.892-23.4538ZM104.127 1.16036Q105.273 2.29651 106.91 2.28623Q108.547 2.27595 109.62 1.16036Q110.766 0.0139447 110.777-1.58602Q110.788-3.18599 109.62-4.3026L21.8398-92.1149Q20.6599-93.2521 19.0445-93.2614Q17.4291-93.2706 16.3032-92.1355Q15.1774-91.0096 15.1825-89.3677Q15.1877-87.7258 16.3032-86.652Z"/>
  </g>
  <g id="Regular-M" transform="matrix(1 0 0 1 1389.29 1126)">
   <path d="M27.5997-12.8263Q28.7379-14.1797 28.4604-15.7908Q28.1829-17.4019 26.8805-18.9082Q21.9978-24.3627 19.3412-31.3523Q16.6846-38.3418 16.6846-46.2547Q16.6846-52.7348 18.4888-58.5804Q20.2931-64.4259 23.6693-69.3878L17.9555-75.0903Q13.5034-69.0129 11.113-61.6581Q8.72266-54.3034 8.72266-46.2547Q8.72266-36.7733 12.022-28.2236Q15.3214-19.6739 21.3932-13.0811Q22.7976-11.5125 24.604-11.4871Q26.4105-11.4616 27.5997-12.8263ZM42.2407-26.7597Q43.3789-28.0735 43.0618-29.6591Q42.7447-31.2447 41.5951-32.7906Q39.3858-35.5433 38.2982-38.9816Q37.2106-42.4199 37.2106-46.2547Q37.2106-48.351 37.6441-50.3621Q38.0776-52.3733 38.837-54.2087L32.7552-60.3529Q29.2599-53.8336 29.2599-46.2547Q29.2599-40.8513 31.0158-35.9577Q32.7717-31.0641 35.9323-27.0768Q37.2461-25.4573 39.1233-25.4318Q41.0006-25.4063 42.2407-26.7597ZM60.5242 9.76797Q62.2684 9.76797 63.2792 8.59292Q64.29 7.41788 64.29 5.56046L64.29-28.7557L56.7981-36.2363L56.7981 5.56046Q56.7981 7.42922 57.84 8.59859Q58.882 9.76797 60.5242 9.76797ZM88.8256-33.1588Q90.2646-36.1325 91.052-39.4433Q91.8395-42.7541 91.8395-46.2547Q91.8395-51.6185 90.0779-56.5178Q88.3164-61.4171 85.1048-65.393Q83.8533-67.0749 81.9506-67.0749Q80.0479-67.0749 78.8474-65.6988Q77.7092-64.4077 78.0319-62.8221Q78.3547-61.2365 79.5043-59.6679Q81.5832-56.8584 82.736-53.4485Q83.8889-50.0386 83.8889-46.2547Q83.8889-44.436 83.5601-42.6824Q83.2314-40.9289 82.6249-39.3595ZM103.778-18.1553Q107.913-24.2044 110.145-31.344Q112.377-38.4836 112.377-46.2547Q112.377-55.6966 109.077-64.2463Q105.778-72.796 99.7062-79.3887Q98.2905-80.946 96.4897-80.9714Q94.6889-80.9969 93.4884-79.6435Q92.3615-78.2901 92.6136-76.679Q92.8656-75.068 94.2076-73.5617Q99.1016-68.1071 101.764-61.1119Q104.426-54.1167 104.426-46.2547Q104.426-40.0521 102.749-34.4359Q101.072-28.8196 97.9624-23.971ZM103.181 0.98376Q104.28 2.08237 105.866 2.08237Q107.451 2.08237 108.499 0.98376Q109.597-0.114845 109.623-1.67497Q109.648-3.23509 108.499-4.32235L20.9829-91.8893Q19.8447-92.9765 18.2845-92.9879Q16.7244-92.9992 15.6258-91.8893Q14.5272-90.7907 14.5272-89.2051Q14.5272-87.6195 15.6258-86.5832Z"/>
  </g>
  <g id="Light-M" transform="matrix(1 0 0 1 1094.67 1126)">
   <path d="M26.1829-13.9303Q27.0452-14.9525 26.8229-16.1956Q26.6006-17.4387 25.6109-18.5586Q20.4891-24.0683 17.6669-31.1775Q14.8447-38.2866 14.8447-46.4019Q14.8447-53.2868 16.8973-59.4175Q18.95-65.5483 22.7493-70.6758L18.3787-75.0167Q13.7794-69.0865 11.251-61.7777Q8.72266-54.469 8.72266-46.4019Q8.72266-37.1044 12.068-28.7847Q15.4134-20.465 21.43-14.0931Q22.4848-12.9109 23.8865-12.8946Q25.2881-12.8783 26.1829-13.9303ZM40.2168-27.6244Q41.079-28.6439 40.8539-29.8707Q40.6288-31.0975 39.7368-32.2202Q37.178-34.9914 35.9431-38.6504Q34.7083-42.3095 34.7083-46.4019Q34.7083-49.0685 35.3902-51.512Q36.0721-53.9556 37.2547-56.1406L32.6264-60.8313Q28.616-54.3488 28.616-46.4019Q28.616-41.1273 30.3903-36.3809Q32.1645-31.6345 35.3987-27.8496Q36.4181-26.6348 37.8538-26.6185Q39.2894-26.6022 40.2168-27.6244ZM58.4451 9.03201Q59.7845 9.03201 60.5654 8.12375Q61.3462 7.21549 61.3462 5.78125L61.3462-32.0491L55.5469-37.8187L55.5469 5.78125Q55.5469 7.24523 56.3589 8.13862Q57.1709 9.03201 58.4451 9.03201ZM84.649-32.6805Q86.4008-35.7278 87.3538-39.2041Q88.3069-42.6805 88.3069-46.4019Q88.3069-51.6737 86.5177-56.435Q84.7286-61.1963 81.4618-64.9515Q80.5047-66.2285 79.0528-66.2285Q77.6008-66.2285 76.6763-65.1468Q75.8141-64.1869 76.0541-62.9601Q76.294-61.7333 77.186-60.5511Q79.5041-57.6312 80.8593-54.0465Q82.2146-50.4618 82.2146-46.4019Q82.2146-43.9576 81.6558-41.6337Q81.0971-39.3097 80.0122-37.3172ZM98.9944-18.3025Q103.369-24.2596 105.784-31.4084Q108.2-38.5572 108.2-46.4019Q108.2-55.6966 104.855-64.0163Q101.509-72.336 95.4929-78.708Q94.4083-79.8604 93.0215-79.8767Q91.6347-79.893 90.7102-78.8708Q89.8777-77.8485 90.0837-76.6054Q90.2897-75.3623 91.2822-74.2424Q96.4338-68.7327 99.2708-61.6087Q102.108-54.4846 102.108-46.4019Q102.108-39.7394 100.137-33.7551Q98.1654-27.7709 94.5586-22.7383ZM102.28 1.05736Q103.139 1.91677 104.366 1.91677Q105.593 1.91677 106.42 1.05736Q107.279 0.197938 107.295-1.0126Q107.312-2.22315 106.42-3.05282L18.3334-91.1717Q17.4712-92.0014 16.2606-92.0311Q15.0501-92.0609 14.1907-91.1717Q13.3313-90.3123 13.3313-89.0855Q13.3313-87.8586 14.1907-87.0615Z"/>
  </g>
  <g id="Thin-M" transform="matrix(1 0 0 1 800.721 1126)">
   <path d="M24.3092-15.3903Q24.8064-15.9745 24.6571-16.7309Q24.5078-17.4874 23.9319-18.0962Q18.4937-23.679 15.4525-30.9463Q12.4113-38.2136 12.4113-46.5966Q12.4113-54.0168 14.7924-60.5247Q17.1736-67.0327 21.5326-72.3791L18.9383-74.9193Q14.1444-69.1838 11.4335-61.9359Q8.72266-54.688 8.72266-46.5966Q8.72266-37.5425 12.1288-29.5269Q15.535-21.5114 21.4787-15.4314Q22.0711-14.7603 22.9374-14.7561Q23.8038-14.752 24.3092-15.3903ZM37.54-28.7682Q38.0373-29.3982 37.9338-30.1505Q37.8304-30.9028 37.2791-31.4659Q34.2579-34.2613 32.8283-38.2124Q31.3988-42.1635 31.3988-46.5966Q31.3988-50.0176 32.4093-53.0329Q33.4197-56.0483 35.1619-58.6957L32.456-61.464Q27.7643-55.0301 27.7643-46.5966Q27.7643-41.4923 29.5629-36.9406Q31.3615-32.3888 34.6931-28.8716Q35.3231-28.1922 36.1747-28.1881Q37.0264-28.1839 37.54-28.7682ZM55.6954 8.05864Q56.4994 8.05864 56.9761 7.50323Q57.4527 6.94781 57.4527 6.07326L57.4527-36.4049L53.8922-39.9114L53.8922 6.07326Q53.8922 7.00189 54.4 7.53027Q54.9078 8.05864 55.6954 8.05864ZM79.1252-32.0478Q81.2906-35.1924 82.4627-38.8878Q83.6347-42.5832 83.6347-46.5966Q83.6347-51.7467 81.8091-56.3255Q79.9834-60.9043 76.6436-64.3674Q76.0759-65.1092 75.2201-65.1092Q74.3644-65.1092 73.8049-64.4168Q73.3077-63.8949 73.4381-63.1426Q73.5686-62.3903 74.1199-61.7191Q76.7544-58.6532 78.3773-54.8373Q80.0001-51.0214 80.0001-46.5966Q80.0001-43.3249 79.1373-40.2466Q78.2744-37.1683 76.5568-34.6161ZM92.6675-18.4972Q97.358-24.3326 100.017-31.4936Q102.676-38.6545 102.676-46.5966Q102.676-55.6966 99.2701-63.7121Q95.864-71.7276 89.9203-77.8076Q89.2738-78.4247 88.4345-78.4288Q87.5952-78.4329 87.0357-77.8487Q86.5926-77.2645 86.7377-76.5081Q86.8829-75.7517 87.413-75.1428Q92.9053-69.5601 95.9735-62.2657Q99.0418-54.9713 99.0418-46.5966Q99.0418-39.3257 96.6812-32.8548Q94.3206-26.3838 90.0568-21.1079ZM101.087 1.15469Q101.631 1.69777 102.383 1.69777Q103.135 1.69777 103.67 1.15469Q104.213 0.611619 104.217-0.136574Q104.221-0.884767 103.67-1.37376L14.8293-90.2227Q14.3321-90.7117 13.5839-90.7658Q12.8357-90.8198 12.2926-90.2227Q11.7495-89.6796 11.7495-88.9273Q11.7495-88.175 12.2926-87.6942Z"/>
  </g>
  <g id="Ultralight-M" transform="matrix(1 0 0 1 505.424 1126)">
   <path d="M23.3495-16.1381Q23.6597-16.498 23.5479-17.0051Q23.436-17.5123 23.0719-17.8594Q17.4717-23.4796 14.3183-30.8279Q11.1649-38.1763 11.1649-46.6963Q11.1649-54.3907 13.7143-61.0918Q16.2637-67.793 20.9094-73.2516L19.225-74.8695Q14.3313-69.2336 11.527-62.0169Q8.72266-54.8002 8.72266-46.6963Q8.72266-37.7668 12.16-29.9071Q15.5974-22.0474 21.5036-16.117Q21.8592-15.7075 22.4513-15.7096Q23.0435-15.7117 23.3495-16.1381ZM36.169-29.354Q36.4793-29.7846 36.4382-30.2938Q36.397-30.8031 36.0202-31.0795Q32.7622-33.8874 31.233-37.9881Q29.7038-42.0887 29.7038-46.6963Q29.7038-50.5036 30.8825-53.8119Q32.0611-57.1202 34.0901-60.0044L32.3688-61.788Q27.3281-55.3791 27.3281-46.6963Q27.3281-41.6793 29.1391-37.2273Q30.9502-32.7752 34.3316-29.3951Q34.7622-28.9899 35.3147-28.992Q35.8672-28.9941 36.169-29.354ZM54.287 7.56009Q54.8168 7.56009 55.1376 7.1854Q55.4585 6.81071 55.4585 6.22282L55.4585-38.636L53.0447-40.9833L53.0447 6.22282Q53.0447 6.87725 53.3967 7.21867Q53.7487 7.56009 54.287 7.56009ZM76.2959-31.7237Q78.6732-34.9182 79.9574-38.7258Q81.2417-42.5333 81.2417-46.6963Q81.2417-51.7841 79.3973-56.2694Q77.553-60.7547 74.1758-64.0683Q73.8075-64.5358 73.2571-64.5358Q72.7067-64.5358 72.3341-64.0429Q72.0239-63.7453 72.0983-63.2361Q72.1727-62.7268 72.5495-62.3174Q75.346-59.1767 77.1059-55.2424Q78.8659-51.3081 78.8659-46.6963Q78.8659-43.0009 77.8472-39.5362Q76.8286-36.0715 74.7869-33.2327ZM89.4269-18.5969Q94.2795-24.37 97.0633-31.5372Q99.847-38.7044 99.847-46.6963Q99.847-55.6966 96.4097-63.5563Q92.9723-71.416 87.0661-77.3464Q86.6439-77.6893 86.0851-77.6872Q85.5262-77.6851 85.1537-77.3252Q84.91-76.9654 85.024-76.4582Q85.138-75.9511 85.4313-75.604Q91.098-69.9838 94.2847-62.6022Q97.4713-55.2206 97.4713-46.6963Q97.4713-39.1138 94.9113-32.3936Q92.3514-25.6734 87.751-20.2728ZM100.477 1.20455Q100.858 1.58559 101.367 1.58559Q101.876 1.58559 102.262 1.20455Q102.643 0.823504 102.641 0.312124Q102.638-0.199255 102.262-0.513757L13.0345-89.7366Q12.7242-90.0511 12.2129-90.1176Q11.7015-90.1842 11.3204-89.7366Q10.9394-89.3555 10.9394-88.8463Q10.9394-88.337 11.3204-88.0183Z"/>
  </g>
  <g id="Black-S" transform="matrix(1 0 0 1 2878.91 696)">
   <path d="M25.293-15.1855Q26.709-16.8945 26.3428-18.8232Q25.9766-20.752 24.5117-22.3633Q20.9961-26.2207 19.1895-31.6895Q17.3828-37.1582 17.3828-43.3105Q17.3828-48.2422 18.5303-52.7344Q19.6777-57.2266 21.9238-60.8398L14.2578-68.5059Q10.7422-63.7207 8.78906-57.0312Q6.83594-50.3418 6.83594-43.3105Q6.83594-35.1074 9.25293-27.7588Q11.6699-20.4102 16.5527-15.3809Q18.8965-12.9883 21.3379-13.1348Q23.7793-13.2812 25.293-15.1855ZM38.1348-27.3926Q39.3555-29.0527 39.1357-30.9082Q38.916-32.7637 37.7441-34.4238Q36.7676-35.8398 35.9619-38.4521Q35.1562-41.0645 35.1562-43.3105Q35.1562-44.1895 35.3027-45.166Q35.4492-46.1426 35.6445-47.1191L27.1973-55.5664Q24.6094-50.3906 24.6094-43.3105Q24.6094-38.5742 25.8789-34.3262Q27.1484-30.0781 29.6387-27.4902Q31.7383-25.3906 34.2529-25.4395Q36.7676-25.4883 38.1348-27.3926ZM54.4922 2.92969Q56.8848 2.92969 58.2764 1.36719Q59.668-0.195312 59.668-2.88086L59.668-23.0957L49.3164-33.4473L49.3164-2.88086Q49.3164-0.341797 50.7812 1.29395Q52.2461 2.92969 54.4922 2.92969ZM80.6152-29.0039Q82.4707-31.6406 83.4229-35.4004Q84.375-39.1602 84.375-43.3105Q84.375-48.0957 83.1055-52.3438Q81.8359-56.5918 79.3457-59.1309Q77.2461-61.2793 74.7559-61.2061Q72.2656-61.1328 70.8496-59.2285Q69.6289-57.5684 69.8486-55.7129Q70.0684-53.8574 71.2402-52.1973Q72.2168-50.8301 73.0225-48.2178Q73.8281-45.6055 73.8281-43.3105Q73.8281-41.8457 73.4619-40.1855Q73.0957-38.5254 72.5586-37.0605ZM93.3105-16.3086Q97.8027-21.3379 99.9756-28.418Q102.148-35.498 102.148-43.3105Q102.148-51.4648 99.585-59.0332Q97.0215-66.6016 92.4316-71.1914Q90.0879-73.584 87.6709-73.4375Q85.2539-73.291 83.6914-71.3867Q82.3242-69.6777 82.666-67.749Q83.0078-65.8203 84.4727-64.209Q87.9395-60.4004 89.7705-54.9316Q91.6016-49.4629 91.6016-43.3105Q91.6016-37.6953 90.1855-32.666Q88.7695-27.6367 85.7422-23.877ZM85.3027-6.00586Q86.377-4.98047 87.8418-5.0293Q89.3066-5.07812 90.2344-6.00586Q91.3086-7.08008 91.2598-8.47168Q91.2109-9.86328 90.2344-10.8398L20.3613-80.6641Q19.2871-81.7383 17.8223-81.7383Q16.3574-81.7383 15.3809-80.7617Q14.4043-79.7852 14.4287-78.2959Q14.4531-76.8066 15.3809-75.8301Z"/>
  </g>
  <g id="Heavy-S" transform="matrix(1 0 0 1 2583.62 696)">
   <path d="M24.59-15.6465Q25.9138-17.2403 25.5764-19.0537Q25.239-20.8672 23.8433-22.4209Q20.2816-26.3705 18.4288-31.8277Q16.5761-37.285 16.5761-43.4258Q16.5761-48.3459 17.7581-52.8266Q18.9402-57.3072 21.2324-60.9666L14.1656-68.0334Q10.673-63.2367 8.75449-56.7604Q6.83594-50.2842 6.83594-43.4258Q6.83594-35.384 9.2875-28.1621Q11.7391-20.9403 16.5988-15.8534Q18.689-13.6913 20.9345-13.7974Q23.18-13.9036 24.59-15.6465ZM37.1782-27.577Q38.3528-29.1219 38.1158-30.8736Q37.8788-32.6254 36.7415-34.2279Q35.6267-35.8168 34.8268-38.4233Q34.0269-41.0299 34.0269-43.4258Q34.0269-44.4199 34.1906-45.4887Q34.3544-46.5575 34.5958-47.6032L26.8515-55.359Q24.2867-50.1947 24.2867-43.4258Q24.2867-38.7932 25.5793-34.6258Q26.8719-30.4584 29.3506-27.7207Q31.2312-25.7709 33.5499-25.8025Q35.8687-25.834 37.1782-27.577ZM53.0632 2.33042Q55.2598 2.33042 56.5362 0.888922Q57.8125-0.552571 57.8125-2.9961L57.8125-24.3864L48.3253-33.8737L48.3253-2.9961Q48.3253-0.664482 49.6634 0.832967Q51.0015 2.33042 53.0632 2.33042ZM78.4947-30.1448Q80.1428-32.7009 80.997-36.1668Q81.8511-39.6327 81.8511-43.4258Q81.8511-48.0842 80.5586-52.2516Q79.266-56.4189 76.7757-59.1193Q74.9066-61.118 72.6008-61.062Q70.2949-61.006 68.9596-59.2631Q67.785-57.7182 68.022-55.9664Q68.259-54.2147 69.3963-52.6121Q70.4997-51.0606 71.3053-48.454Q72.111-45.8475 72.111-43.4258Q72.111-42.0416 71.7966-40.514Q71.4823-38.9864 71.0143-37.6252ZM91.0287-17.5993Q95.1982-22.571 97.25-29.2996Q99.3019-36.0282 99.3019-43.4258Q99.3019-51.4187 96.7384-58.8085Q94.1749-66.1982 89.539-70.9494Q87.4488-73.1115 85.2219-73.0053Q82.9951-72.8992 81.5479-71.1562Q80.2613-69.5625 80.5743-67.749Q80.8873-65.9356 82.2945-64.3819Q85.819-60.4695 87.6903-55.0123Q89.5617-49.5551 89.5617-43.4258Q89.5617-38.041 88.2033-33.2019Q86.8449-28.3628 84.0135-24.6145ZM84.3577-6.2133Q85.4089-5.19943 86.8622-5.23674Q88.3155-5.27404 89.2433-6.2133Q90.2944-7.26447 90.2629-8.65607Q90.2314-10.0477 89.2433-11.0242L19.739-80.5027Q18.6763-81.5539 17.2288-81.5539Q15.7812-81.5539 14.8046-80.5773Q13.8281-79.6008 13.8467-78.1288Q13.8654-76.6568 14.8046-75.6918Z"/>
  </g>
  <g id="Bold-S" transform="matrix(1 0 0 1 2288.5 696)">
   <path d="M23.8037-16.1621Q25.0244-17.627 24.7192-19.3115Q24.4141-20.9961 23.0957-22.4854Q19.4824-26.5381 17.5781-31.9824Q15.6738-37.4268 15.6738-43.5547Q15.6738-48.4619 16.8945-52.9297Q18.1152-57.3975 20.459-61.1084L14.0625-67.5049Q10.5957-62.6953 8.71582-56.4575Q6.83594-50.2197 6.83594-43.5547Q6.83594-35.6934 9.32617-28.6133Q11.8164-21.5332 16.6504-16.3818Q18.457-14.4775 20.4834-14.5386Q22.5098-14.5996 23.8037-16.1621ZM36.1084-27.7832Q37.2314-29.1992 36.9751-30.835Q36.7188-32.4707 35.6201-34.0088Q34.3506-35.791 33.5571-38.3911Q32.7637-40.9912 32.7637-43.5547Q32.7637-44.6777 32.9468-45.8496Q33.1299-47.0215 33.4229-48.1445L26.4648-55.127Q23.9258-49.9756 23.9258-43.5547Q23.9258-39.0381 25.2441-34.9609Q26.5625-30.8838 29.0283-27.9785Q30.6641-26.1963 32.7637-26.2085Q34.8633-26.2207 36.1084-27.7832ZM51.4648 1.66016Q53.4424 1.66016 54.5898 0.354004Q55.7373-0.952148 55.7373-3.125L55.7373-25.8301L47.2168-34.3506L47.2168-3.125Q47.2168-1.02539 48.4131 0.317383Q49.6094 1.66016 51.4648 1.66016ZM76.123-31.4209Q77.5391-33.8867 78.2837-37.0239Q79.0283-40.1611 79.0283-43.5547Q79.0283-48.0713 77.71-52.1484Q76.3916-56.2256 73.9014-59.1064Q72.29-60.9375 70.1904-60.9009Q68.0908-60.8643 66.8457-59.3018Q65.7227-57.8857 65.979-56.25Q66.2354-54.6143 67.334-53.0762Q68.5791-51.3184 69.3848-48.7183Q70.1904-46.1182 70.1904-43.5547Q70.1904-42.2607 69.9341-40.8813Q69.6777-39.502 69.2871-38.2568ZM88.4766-19.043Q92.2852-23.9502 94.2017-30.2856Q96.1182-36.6211 96.1182-43.5547Q96.1182-51.3672 93.5547-58.5571Q90.9912-65.7471 86.3037-70.6787Q84.4971-72.583 82.4829-72.522Q80.4688-72.4609 79.1504-70.8984Q77.9541-69.4336 78.2349-67.749Q78.5156-66.0645 79.8584-64.5752Q83.4473-60.5469 85.3638-55.1025Q87.2803-49.6582 87.2803-43.5547Q87.2803-38.4277 85.9863-33.8013Q84.6924-29.1748 82.0801-25.4395ZM83.3008-6.44531Q84.3262-5.44434 85.7666-5.46875Q87.207-5.49316 88.1348-6.44531Q89.1602-7.4707 89.1479-8.8623Q89.1357-10.2539 88.1348-11.2305L19.043-80.3223Q17.9932-81.3477 16.5649-81.3477Q15.1367-81.3477 14.1602-80.3711Q13.1836-79.3945 13.1958-77.9419Q13.208-76.4893 14.1602-75.5371Z"/>
  </g>
  <g id="Semibold-S" transform="matrix(1 0 0 1 1992.89 696)">
   <path d="M23.2616-16.5176Q24.4112-17.8936 24.1283-19.4893Q23.8453-21.085 22.5803-22.5298Q18.9314-26.6536 16.9916-32.0891Q15.0518-37.5245 15.0518-43.6436Q15.0518-48.5419 16.2991-53.0008Q17.5465-57.4597 19.9258-61.2062L13.9914-67.1405Q10.5424-62.3221 8.68916-56.2487Q6.83594-50.1753 6.83594-43.6436Q6.83594-35.9066 9.35283-28.9243Q11.8697-21.942 16.6859-16.7462Q18.2971-15.0196 20.1724-15.0496Q22.0477-15.0795 23.2616-16.5176ZM35.3708-27.9254Q36.4583-29.2525 36.1886-30.8083Q35.9189-32.3641 34.847-33.8577Q33.4708-35.7732 32.6818-38.3689Q31.8928-40.9646 31.8928-43.6436Q31.8928-44.8555 32.0892-46.0984Q32.2856-47.3414 32.6142-48.5178L26.1982-54.967Q23.677-49.8245 23.677-43.6436Q23.677-39.2069 25.0131-35.192Q26.3492-31.1771 28.8062-28.1562Q30.273-26.4896 32.2216-26.4884Q34.1701-26.4873 35.3708-27.9254ZM50.3629 1.19805Q52.1894 1.19805 53.2479-0.0147949Q54.3065-1.22764 54.3065-3.21387L54.3065-26.8254L46.4525-34.6794L46.4525-3.21387Q46.4525-1.27422 47.5511-0.0380859Q48.6496 1.19805 50.3629 1.19805ZM74.4879-32.3007Q75.7439-34.7043 76.413-37.6149Q77.0821-40.5255 77.0821-43.6436Q77.0821-48.0624 75.746-52.0773Q74.4099-56.0923 71.9196-59.0976Q70.486-60.8131 68.5286-60.7898Q66.5712-60.7665 65.3883-59.3284Q64.3008-58.0013 64.5705-56.4455Q64.8401-54.8897 65.9121-53.3961Q67.255-51.4961 68.0606-48.9004Q68.8663-46.3048 68.8663-43.6436Q68.8663-42.4118 68.65-41.1346Q68.4336-39.8574 68.0963-38.6923ZM86.717-20.0383Q90.2768-24.9011 92.1-30.9655Q93.9231-37.0299 93.9231-43.6436Q93.9231-51.3316 91.3597-58.3838Q88.7962-65.436 84.0731-70.4921Q82.462-72.2187 80.5945-72.1887Q78.727-72.1588 77.4975-70.7207Q76.3634-69.3447 76.6219-67.749Q76.8805-66.1533 78.1788-64.7085Q81.8121-60.6002 83.7597-55.1647Q85.7073-49.7293 85.7073-43.6436Q85.7073-38.6943 84.4578-34.2145Q83.2083-29.7347 80.7471-26.0082ZM82.5721-6.60527Q83.5797-5.61318 85.0112-5.62871Q86.4428-5.64424 87.3705-6.60527Q88.3781-7.61289 88.3792-9.00449Q88.3804-10.3961 87.3705-11.3727L18.5631-80.1979Q17.5222-81.2055 16.1073-81.2055Q14.6924-81.2055 13.7158-80.2289Q12.7393-79.2523 12.747-77.813Q12.7548-76.3737 13.7158-75.4305Z"/>
  </g>
  <g id="Medium-S" transform="matrix(1 0 0 1 1697.01 696)">
   <path d="M22.8506-16.7871Q23.9463-18.0957 23.6802-19.624Q23.4141-21.1523 22.1895-22.5635Q18.5137-26.7412 16.5469-32.1699Q14.5801-37.5986 14.5801-43.7109Q14.5801-48.6025 15.8477-53.0547Q17.1152-57.5068 19.5215-61.2803L13.9375-66.8643Q10.502-62.0391 8.66895-56.0903Q6.83594-50.1416 6.83594-43.7109Q6.83594-36.0684 9.37305-29.1602Q11.9102-22.252 16.7129-17.0225Q18.1758-15.4307 19.9365-15.437Q21.6973-15.4434 22.8506-16.7871ZM34.8115-28.0332Q35.8721-29.293 35.5923-30.7881Q35.3125-32.2832 34.2607-33.7432Q32.8037-35.7598 32.0181-38.3521Q31.2324-40.9443 31.2324-43.7109Q31.2324-44.9902 31.439-46.2871Q31.6455-47.584 32.001-48.8008L25.9961-54.8457Q23.4883-49.71 23.4883-43.7109Q23.4883-39.335 24.8379-35.3672Q26.1875-31.3994 28.6377-28.291Q29.9766-26.7119 31.8105-26.7007Q33.6445-26.6895 34.8115-28.0332ZM49.5273 0.847656Q51.2393 0.847656 52.2305-0.294434Q53.2217-1.43652 53.2217-3.28125L53.2217-27.5801L45.873-34.9287L45.873-3.28125Q45.873-1.46289 46.8975-0.307617Q47.9219 0.847656 49.5273 0.847656ZM73.248-32.9678Q74.3828-35.3242 74.9946-38.063Q75.6064-40.8018 75.6064-43.7109Q75.6064-48.0557 74.2568-52.0234Q72.9072-55.9912 70.417-59.0908Q69.1182-60.7188 67.2686-60.7056Q65.4189-60.6924 64.2832-59.3486Q63.2227-58.0889 63.5024-56.5938Q63.7822-55.0986 64.834-53.6387Q66.251-51.6309 67.0566-49.0386Q67.8623-46.4463 67.8623-43.7109Q67.8623-42.5264 67.6763-41.3267Q67.4902-40.127 67.1934-39.0225ZM85.3828-20.793Q88.7539-25.6221 90.5063-31.481Q92.2588-37.3398 92.2588-43.7109Q92.2588-51.3047 89.6953-58.2524Q87.1318-65.2002 82.3818-70.3506Q80.9189-71.9424 79.1626-71.936Q77.4062-71.9297 76.2441-70.5859Q75.1572-69.2773 75.3989-67.749Q75.6406-66.2207 76.9053-64.8096Q80.5723-60.6406 82.5435-55.2119Q84.5146-49.7832 84.5146-43.7109Q84.5146-38.8965 83.2988-34.5278Q82.083-30.1592 79.7363-26.4395ZM82.0195-6.72656Q83.0137-5.74121 84.4385-5.75Q85.8633-5.75879 86.791-6.72656Q87.7852-7.7207 87.7964-9.1123Q87.8076-10.5039 86.791-11.4805L18.1992-80.1035Q17.165-81.0977 15.7603-81.0977Q14.3555-81.0977 13.3789-80.1211Q12.4023-79.1445 12.4067-77.7153Q12.4111-76.2861 13.3789-75.3496Z"/>
  </g>
  <g id="Regular-S" transform="matrix(1 0 0 1 1401.38 696)">
   <path d="M22.3145-17.1387Q23.3398-18.3594 23.0957-19.7998Q22.8516-21.2402 21.6797-22.6074Q17.9688-26.8555 15.9668-32.2754Q13.9648-37.6953 13.9648-43.7988Q13.9648-48.6816 15.2588-53.125Q16.5527-57.5684 18.9941-61.377L13.8672-66.5039Q10.4492-61.6699 8.64258-55.8838Q6.83594-50.0977 6.83594-43.7988Q6.83594-36.2793 9.39941-29.4678Q11.9629-22.6562 16.748-17.3828Q18.0176-15.9668 19.6289-15.9424Q21.2402-15.918 22.3145-17.1387ZM34.082-28.1738Q35.1074-29.3457 34.8145-30.7617Q34.5215-32.1777 33.4961-33.5938Q31.9336-35.7422 31.1523-38.3301Q30.3711-40.918 30.3711-43.7988Q30.3711-45.166 30.5908-46.5332Q30.8105-47.9004 31.2012-49.1699L25.7324-54.6875Q23.2422-49.5605 23.2422-43.7988Q23.2422-39.502 24.6094-35.5957Q25.9766-31.6895 28.418-28.4668Q29.5898-27.002 31.2744-26.9775Q32.959-26.9531 34.082-28.1738ZM48.4375 0.390625Q50 0.390625 50.9033-0.65918Q51.8066-1.70898 51.8066-3.36914L51.8066-28.5645L45.1172-35.2539L45.1172-3.36914Q45.1172-1.70898 46.0449-0.65918Q46.9727 0.390625 48.4375 0.390625ZM71.6309-33.8379Q72.6074-36.1328 73.1445-38.6475Q73.6816-41.1621 73.6816-43.7988Q73.6816-48.0469 72.3145-51.9531Q70.9473-55.8594 68.457-59.082Q67.334-60.5957 65.625-60.5957Q63.916-60.5957 62.8418-59.375Q61.8164-58.2031 62.1094-56.7871Q62.4023-55.3711 63.4277-53.9551Q64.9414-51.8066 65.7471-49.2188Q66.5527-46.6309 66.5527-43.7988Q66.5527-42.6758 66.4062-41.5771Q66.2598-40.4785 66.0156-39.4531ZM83.6426-21.7773Q86.7676-26.5625 88.4277-32.1533Q90.0879-37.7441 90.0879-43.7988Q90.0879-51.2695 87.5244-58.0811Q84.9609-64.8926 80.1758-70.166Q78.9062-71.582 77.2949-71.6064Q75.6836-71.6309 74.6094-70.4102Q73.584-69.1895 73.8037-67.749Q74.0234-66.3086 75.2441-64.9414Q78.9551-60.6934 80.957-55.2734Q82.959-49.8535 82.959-43.7988Q82.959-39.1602 81.7871-34.9365Q80.6152-30.7129 78.418-27.002ZM81.2988-6.88477Q82.2754-5.9082 83.6914-5.9082Q85.1074-5.9082 86.0352-6.88477Q87.0117-7.86133 87.0361-9.25293Q87.0605-10.6445 86.0352-11.6211L17.7246-79.9805Q16.6992-80.957 15.3076-80.957Q13.916-80.957 12.9395-79.9805Q11.9629-79.0039 11.9629-77.5879Q11.9629-76.1719 12.9395-75.2441Z"/>
  </g>
  <g id="Light-S" transform="matrix(1 0 0 1 1106.52 696)">
   <path d="M21.0612-18.1152Q21.8424-19.043 21.6471-20.1579Q21.4518-21.2728 20.5566-22.2982Q16.6341-26.5951 14.4857-32.1208Q12.3372-37.6465 12.3372-43.929Q12.3372-49.1699 13.8509-53.8656Q15.3646-58.5612 18.1803-62.5163L14.2415-66.4388Q10.6934-61.735 8.76465-55.9896Q6.83594-50.2441 6.83594-43.929Q6.83594-36.5723 9.4401-29.9642Q12.0443-23.3561 16.7806-18.278Q17.7409-17.2038 18.9941-17.1875Q20.2474-17.1712 21.0612-18.1152ZM32.2917-28.9388Q33.0729-29.8503 32.8613-30.9489Q32.6497-32.0475 31.8522-33.0892Q29.9805-35.2539 29.069-38.0371Q28.1576-40.8203 28.1576-43.929Q28.1576-45.8008 28.597-47.5505Q29.0365-49.3001 29.8014-50.8789L25.6185-55.1107Q22.6725-50.0163 22.6725-43.929Q22.6725-39.7461 24.056-35.9701Q25.4395-32.194 27.946-29.1504Q28.8574-28.0436 30.1514-28.0273Q31.4453-28.0111 32.2917-28.9388ZM46.5983-0.260417Q47.8027-0.260417 48.5026-1.07422Q49.2025-1.88802 49.2025-3.17383L49.2025-31.4779L44.0104-36.6536L44.0104-3.17383Q44.0104-1.87174 44.7347-1.06608Q45.459-0.260417 46.5983-0.260417ZM67.9362-33.4147Q69.1895-35.7747 69.873-38.4359Q70.5566-41.097 70.5566-43.929Q70.5566-48.0957 69.165-51.8799Q67.7734-55.6641 65.2344-58.6914Q64.3717-59.847 63.0615-59.847Q61.7513-59.847 60.9212-58.8867Q60.14-58.0078 60.3597-56.9092Q60.5794-55.8105 61.377-54.7363Q63.1022-52.4902 64.0869-49.7477Q65.0716-47.0052 65.0716-43.929Q65.0716-42.2526 64.7217-40.6494Q64.3717-39.0462 63.7044-37.6465ZM79.4108-21.9076Q82.7474-26.6113 84.5703-32.2103Q86.3932-37.8092 86.3932-43.929Q86.3932-51.2695 83.7891-57.8776Q81.1849-64.4857 76.4486-69.5638Q75.472-70.6217 74.2269-70.638Q72.9818-70.6543 72.1517-69.7266Q71.3867-68.7988 71.5658-67.6839Q71.7448-66.569 72.6562-65.5436Q76.5951-61.2467 78.7516-55.7129Q80.9082-50.179 80.9082-43.929Q80.9082-38.8835 79.4759-34.3343Q78.0436-29.7852 75.4069-25.9115ZM80.5013-6.81966Q81.2663-6.05469 82.3649-6.05469Q83.4635-6.05469 84.196-6.81966Q84.9609-7.58464 84.9772-8.66699Q84.9935-9.74935 84.196-10.498L15.3809-79.3457Q14.5996-80.0944 13.5173-80.1107Q12.4349-80.127 11.6699-79.3457Q10.9049-78.5807 10.9049-77.4821Q10.9049-76.3835 11.6699-75.6673Z"/>
  </g>
  <g id="Thin-S" transform="matrix(1 0 0 1 812.249 696)">
   <path d="M19.4037-19.4068Q19.862-19.9471 19.7313-20.6315Q19.6006-21.3158 19.0713-21.8892Q14.869-26.2506 12.5268-31.9163Q10.1846-37.5819 10.1846-44.1012Q10.1846-49.8157 11.9889-54.845Q13.7932-59.8743 17.104-64.0231L14.7366-66.3527Q11.0163-61.8211 8.9261-56.1295Q6.83594-50.4379 6.83594-44.1012Q6.83594-36.9597 9.49392-30.6207Q12.1519-24.2818 16.8237-19.4619Q17.3749-18.8398 18.1546-18.8343Q18.9343-18.8288 19.4037-19.4068ZM29.9238-29.9505Q30.3821-30.5176 30.2782-31.1964Q30.1742-31.8753 29.678-32.4219Q27.3973-34.6081 26.3136-37.6496Q25.23-40.6912 25.23-44.1012Q25.23-46.6403 25.96-48.8959Q26.6901-51.1514 27.9502-53.1392L25.4678-55.6704Q21.9191-50.619 21.9191-44.1012Q21.9191-40.069 23.3241-36.4652Q24.7291-32.8613 27.3217-30.0545Q27.8887-29.4213 28.666-29.4158Q29.4434-29.4103 29.9238-29.9505ZM44.1658-1.12147Q44.8967-1.12147 45.3275-1.62314Q45.7583-2.12481 45.7583-2.91551L45.7583-35.3311L42.5466-38.5049L42.5466-2.91551Q42.5466-2.08701 43.0018-1.60424Q43.457-1.12147 44.1658-1.12147ZM63.0497-32.855Q64.6689-35.3012 65.5462-38.156Q66.4236-41.0109 66.4236-44.1012Q66.4236-48.1603 64.9997-51.783Q63.5758-55.4057 60.9722-58.1748Q60.4539-58.8568 59.6711-58.8568Q58.8883-58.8568 58.3811-58.2409Q57.9228-57.7495 58.0456-57.0706Q58.1685-56.3918 58.6646-55.7696Q60.6697-53.3943 61.8912-50.4473Q63.1127-47.5003 63.1127-44.1012Q63.1127-41.6929 62.4937-39.4224Q61.8747-37.1519 60.6477-35.2571ZM73.8139-22.0798Q77.4304-26.6759 79.4686-32.2856Q81.5067-37.8954 81.5067-44.1012Q81.5067-51.2695 78.8488-57.6085Q76.1908-63.9475 71.519-68.7673Q70.9299-69.3517 70.1692-69.3572Q69.4084-69.3627 68.9012-68.8225Q68.4807-68.2822 68.6059-67.5978Q68.7311-66.9134 69.2336-66.3401Q73.4737-61.9786 75.8348-56.2941Q78.1959-50.6096 78.1959-44.1012Q78.1959-38.5175 76.4192-33.5378Q74.6425-28.5582 71.4245-24.4692ZM79.4465-6.73356Q79.9316-6.24842 80.6105-6.24842Q81.2894-6.24842 81.7635-6.73356Q82.2486-7.21869 82.2541-7.89204Q82.2596-8.5654 81.7635-9.01273L12.2811-78.5062Q11.8227-78.9535 11.1494-78.9913Q10.476-79.0291 9.99086-78.5062Q9.50573-78.021 9.50573-77.3422Q9.50573-76.6633 9.99086-76.227Z"/>
  </g>
  <g id="Ultralight-S" transform="matrix(1 0 0 1 516.789 696)">
   <path d="M18.5547-20.0684Q18.8477-20.4102 18.75-20.874Q18.6523-21.3379 18.3105-21.6797Q13.9648-26.0742 11.5234-31.8115Q9.08203-37.5488 9.08203-44.1895Q9.08203-50.1465 11.0352-55.3467Q12.9883-60.5469 16.5527-64.7949L14.9902-66.3086Q11.1816-61.8652 9.00879-56.2012Q6.83594-50.5371 6.83594-44.1895Q6.83594-37.1582 9.52148-30.957Q12.207-24.7559 16.8457-20.0684Q17.1875-19.6777 17.7246-19.6777Q18.2617-19.6777 18.5547-20.0684ZM28.7109-30.4688Q29.0039-30.8594 28.9551-31.3232Q28.9062-31.7871 28.5645-32.0801Q26.0742-34.2773 24.9023-37.4512Q23.7305-40.625 23.7305-44.1895Q23.7305-47.0703 24.6094-49.585Q25.4883-52.0996 27.002-54.2969L25.3906-55.957Q21.5332-50.9277 21.5332-44.1895Q21.5332-40.2344 22.9492-36.7188Q24.3652-33.2031 27.002-30.5176Q27.3926-30.127 27.9053-30.127Q28.418-30.127 28.7109-30.4688ZM42.9199-1.5625Q43.4082-1.5625 43.7012-1.9043Q43.9941-2.24609 43.9941-2.7832L43.9941-37.3047L41.7969-39.4531L41.7969-2.7832Q41.7969-2.19727 42.1143-1.87988Q42.4316-1.5625 42.9199-1.5625ZM60.5469-32.5684Q62.3535-35.0586 63.3301-38.0127Q64.3066-40.9668 64.3066-44.1895Q64.3066-48.1934 62.8662-51.7334Q61.4258-55.2734 58.7891-57.9102Q58.4473-58.3496 57.9346-58.3496Q57.4219-58.3496 57.0801-57.9102Q56.7871-57.6172 56.8604-57.1533Q56.9336-56.6895 57.2754-56.2988Q59.4238-53.8574 60.7666-50.8057Q62.1094-47.7539 62.1094-44.1895Q62.1094-41.4062 61.3525-38.7939Q60.5957-36.1816 59.082-34.0332ZM70.9473-22.168Q74.707-26.709 76.8555-32.3242Q79.0039-37.9395 79.0039-44.1895Q79.0039-51.2695 76.3184-57.4707Q73.6328-63.6719 68.9941-68.3594Q68.6035-68.7012 68.0908-68.7012Q67.5781-68.7012 67.2363-68.3594Q66.9922-68.0176 67.0898-67.5537Q67.1875-67.0898 67.4805-66.748Q71.875-62.3535 74.3408-56.5918Q76.8066-50.8301 76.8066-44.1895Q76.8066-38.3301 74.8535-33.1299Q72.9004-27.9297 69.3848-23.7305ZM78.9062-6.68945Q79.248-6.34766 79.7119-6.34766Q80.1758-6.34766 80.5176-6.68945Q80.8594-7.03125 80.8594-7.49512Q80.8594-7.95898 80.5176-8.25195L10.6934-78.0762Q10.4004-78.3691 9.93652-78.418Q9.47266-78.4668 9.13086-78.0762Q8.78906-77.7344 8.78906-77.2705Q8.78906-76.8066 9.13086-76.5137Z"/>
  </g>
 </g>
</svg>
