<?xml version="1.0" encoding="UTF-8"?>
<!--Generator: Apple Native CoreSVG 175-->
<!DOCTYPE svg
PUBLIC "-//W3C//DTD SVG 1.1//EN"
       "http://www.w3.org/Graphics/SVG/1.1/DTD/svg11.dtd">
<svg version="1.1" xmlns="http://www.w3.org/2000/svg" xmlns:xlink="http://www.w3.org/1999/xlink" width="3300" height="2200">
 <!--glyph: "uni1003BB.medium", point size: 100.0, font version: "17.1d1e1", template writer version: "65.1"-->
 <g id="Notes">
  <rect height="2200" id="artboard" style="fill:white;opacity:1" width="3300" x="0" y="0"/>
  <line style="fill:none;stroke:black;opacity:1;stroke-width:0.5;" x1="263" x2="3036" y1="292" y2="292"/>
  <text style="stroke:none;fill:black;font-family:sans-serif;font-size:13;font-weight:bold;" transform="matrix(1 0 0 1 263 322)">Weight/Scale Variations</text>
  <text style="stroke:none;fill:black;font-family:sans-serif;font-size:13;text-anchor:middle;" transform="matrix(1 0 0 1 559.711 322)">Ultralight</text>
  <text style="stroke:none;fill:black;font-family:sans-serif;font-size:13;text-anchor:middle;" transform="matrix(1 0 0 1 856.422 322)">Thin</text>
  <text style="stroke:none;fill:black;font-family:sans-serif;font-size:13;text-anchor:middle;" transform="matrix(1 0 0 1 1153.13 322)">Light</text>
  <text style="stroke:none;fill:black;font-family:sans-serif;font-size:13;text-anchor:middle;" transform="matrix(1 0 0 1 1449.84 322)">Regular</text>
  <text style="stroke:none;fill:black;font-family:sans-serif;font-size:13;text-anchor:middle;" transform="matrix(1 0 0 1 1746.56 322)">Medium</text>
  <text style="stroke:none;fill:black;font-family:sans-serif;font-size:13;text-anchor:middle;" transform="matrix(1 0 0 1 2043.27 322)">Semibold</text>
  <text style="stroke:none;fill:black;font-family:sans-serif;font-size:13;text-anchor:middle;" transform="matrix(1 0 0 1 2339.98 322)">Bold</text>
  <text style="stroke:none;fill:black;font-family:sans-serif;font-size:13;text-anchor:middle;" transform="matrix(1 0 0 1 2636.69 322)">Heavy</text>
  <text style="stroke:none;fill:black;font-family:sans-serif;font-size:13;text-anchor:middle;" transform="matrix(1 0 0 1 2933.4 322)">Black</text>
  <line style="fill:none;stroke:black;opacity:1;stroke-width:0.5;" x1="263" x2="3036" y1="1903" y2="1903"/>
  <g transform="matrix(1 0 0 1 263 1933)">
   <path d="M9.24805 0.830078Q10.8691 0.830078 12.2949 0.214844Q13.7207-0.400391 14.8096-1.49414Q15.8984-2.58789 16.5186-4.01367Q17.1387-5.43945 17.1387-7.05078Q17.1387-8.66211 16.5186-10.0879Q15.8984-11.5137 14.8047-12.6074Q13.7109-13.7012 12.2852-14.3164Q10.8594-14.9316 9.23828-14.9316Q7.62695-14.9316 6.20117-14.3164Q4.77539-13.7012 3.69141-12.6074Q2.60742-11.5137 1.9873-10.0879Q1.36719-8.66211 1.36719-7.05078Q1.36719-5.43945 1.9873-4.01367Q2.60742-2.58789 3.69629-1.49414Q4.78516-0.400391 6.21094 0.214844Q7.63672 0.830078 9.24805 0.830078ZM9.24805-0.654297Q7.91992-0.654297 6.7627-1.14746Q5.60547-1.64062 4.73145-2.51953Q3.85742-3.39844 3.36426-4.56055Q2.87109-5.72266 2.87109-7.05078Q2.87109-8.37891 3.35938-9.54102Q3.84766-10.7031 4.72168-11.582Q5.5957-12.4609 6.75293-12.9541Q7.91016-13.4473 9.23828-13.4473Q10.5762-13.4473 11.7334-12.9541Q12.8906-12.4609 13.7695-11.582Q14.6484-10.7031 15.1465-9.54102Q15.6445-8.37891 15.6445-7.05078Q15.6445-5.72266 15.1514-4.56055Q14.6582-3.39844 13.7842-2.51953Q12.9102-1.64062 11.748-1.14746Q10.5859-0.654297 9.24805-0.654297ZM5.6543-7.05078Q5.6543-6.72852 5.85938-6.52832Q6.06445-6.32812 6.40625-6.32812L8.51562-6.32812L8.51562-4.20898Q8.51562-3.88672 8.71094-3.67676Q8.90625-3.4668 9.23828-3.4668Q9.56055-3.4668 9.77051-3.67676Q9.98047-3.88672 9.98047-4.20898L9.98047-6.32812L12.0898-6.32812Q12.4219-6.32812 12.627-6.52832Q12.832-6.72852 12.832-7.05078Q12.832-7.38281 12.627-7.58789Q12.4219-7.79297 12.0898-7.79297L9.98047-7.79297L9.98047-9.90234Q9.98047-10.2344 9.77051-10.4443Q9.56055-10.6543 9.23828-10.6543Q8.90625-10.6543 8.71094-10.4443Q8.51562-10.2344 8.51562-9.90234L8.51562-7.79297L6.40625-7.79297Q6.06445-7.79297 5.85938-7.58789Q5.6543-7.38281 5.6543-7.05078Z"/>
  </g>
  <g transform="matrix(1 0 0 1 281.867 1933)">
   <path d="M11.709 2.91016Q13.75 2.91016 15.5518 2.12891Q17.3535 1.34766 18.7305-0.0292969Q20.1074-1.40625 20.8887-3.20801Q21.6699-5.00977 21.6699-7.05078Q21.6699-9.0918 20.8887-10.8936Q20.1074-12.6953 18.7305-14.0723Q17.3535-15.4492 15.5469-16.2305Q13.7402-17.0117 11.6992-17.0117Q9.6582-17.0117 7.85645-16.2305Q6.05469-15.4492 4.68262-14.0723Q3.31055-12.6953 2.5293-10.8936Q1.74805-9.0918 1.74805-7.05078Q1.74805-5.00977 2.5293-3.20801Q3.31055-1.40625 4.6875-0.0292969Q6.06445 1.34766 7.86621 2.12891Q9.66797 2.91016 11.709 2.91016ZM11.709 1.25Q9.98047 1.25 8.47656 0.605469Q6.97266-0.0390625 5.83496-1.17676Q4.69727-2.31445 4.05762-3.81836Q3.41797-5.32227 3.41797-7.05078Q3.41797-8.7793 4.05762-10.2832Q4.69727-11.7871 5.83008-12.9297Q6.96289-14.0723 8.4668-14.7119Q9.9707-15.3516 11.6992-15.3516Q13.4277-15.3516 14.9316-14.7119Q16.4355-14.0723 17.5781-12.9297Q18.7207-11.7871 19.3652-10.2832Q20.0098-8.7793 20.0098-7.05078Q20.0098-5.32227 19.3701-3.81836Q18.7305-2.31445 17.5928-1.17676Q16.4551-0.0390625 14.9463 0.605469Q13.4375 1.25 11.709 1.25ZM7.17773-7.05078Q7.17773-6.69922 7.41211-6.47461Q7.64648-6.25 8.01758-6.25L10.8887-6.25L10.8887-3.36914Q10.8887-2.99805 11.1133-2.76855Q11.3379-2.53906 11.6895-2.53906Q12.0605-2.53906 12.29-2.76855Q12.5195-2.99805 12.5195-3.36914L12.5195-6.25L15.4004-6.25Q15.7715-6.25 16.001-6.47461Q16.2305-6.69922 16.2305-7.05078Q16.2305-7.42188 16.001-7.65137Q15.7715-7.88086 15.4004-7.88086L12.5195-7.88086L12.5195-10.752Q12.5195-11.1328 12.29-11.3623Q12.0605-11.5918 11.6895-11.5918Q11.3379-11.5918 11.1133-11.3574Q10.8887-11.123 10.8887-10.752L10.8887-7.88086L8.01758-7.88086Q7.63672-7.88086 7.40723-7.65137Q7.17773-7.42188 7.17773-7.05078Z"/>
  </g>
  <g transform="matrix(1 0 0 1 305.646 1933)">
   <path d="M14.9707 5.66406Q17.0605 5.66406 18.96 5.01465Q20.8594 4.36523 22.4512 3.19336Q24.043 2.02148 25.2197 0.429688Q26.3965-1.16211 27.0459-3.06641Q27.6953-4.9707 27.6953-7.05078Q27.6953-9.14062 27.0459-11.04Q26.3965-12.9395 25.2197-14.5312Q24.043-16.123 22.4512-17.2998Q20.8594-18.4766 18.9551-19.126Q17.0508-19.7754 14.9609-19.7754Q12.8711-19.7754 10.9717-19.126Q9.07227-18.4766 7.48535-17.2998Q5.89844-16.123 4.72168-14.5312Q3.54492-12.9395 2.90039-11.04Q2.25586-9.14062 2.25586-7.05078Q2.25586-4.9707 2.90527-3.06641Q3.55469-1.16211 4.72656 0.429688Q5.89844 2.02148 7.49023 3.19336Q9.08203 4.36523 10.9814 5.01465Q12.8809 5.66406 14.9707 5.66406ZM14.9707 3.84766Q13.1641 3.84766 11.5283 3.2959Q9.89258 2.74414 8.53516 1.74805Q7.17773 0.751953 6.17676-0.610352Q5.17578-1.97266 4.62891-3.6084Q4.08203-5.24414 4.08203-7.05078Q4.08203-8.86719 4.62891-10.5029Q5.17578-12.1387 6.17188-13.501Q7.16797-14.8633 8.52539-15.8594Q9.88281-16.8555 11.5186-17.4023Q13.1543-17.9492 14.9609-17.9492Q16.7773-17.9492 18.4131-17.4023Q20.0488-16.8555 21.4111-15.8594Q22.7734-14.8633 23.7695-13.501Q24.7656-12.1387 25.3174-10.5029Q25.8691-8.86719 25.8691-7.05078Q25.8789-5.24414 25.332-3.6084Q24.7852-1.97266 23.7842-0.610352Q22.7832 0.751953 21.4209 1.74805Q20.0586 2.74414 18.4229 3.2959Q16.7871 3.84766 14.9707 3.84766ZM9.19922-7.05078Q9.19922-6.66992 9.45801-6.4209Q9.7168-6.17188 10.1172-6.17188L14.0625-6.17188L14.0625-2.2168Q14.0625-1.81641 14.3115-1.55762Q14.5605-1.29883 14.9512-1.29883Q15.3516-1.29883 15.6104-1.55273Q15.8691-1.80664 15.8691-2.2168L15.8691-6.17188L19.8242-6.17188Q20.2246-6.17188 20.4785-6.4209Q20.7324-6.66992 20.7324-7.05078Q20.7324-7.46094 20.4785-7.71484Q20.2246-7.96875 19.8242-7.96875L15.8691-7.96875L15.8691-11.9141Q15.8691-12.3242 15.6104-12.583Q15.3516-12.8418 14.9512-12.8418Q14.5605-12.8418 14.3115-12.583Q14.0625-12.3242 14.0625-11.9141L14.0625-7.96875L10.1172-7.96875Q9.70703-7.96875 9.45312-7.71484Q9.19922-7.46094 9.19922-7.05078Z"/>
  </g>
  <text style="stroke:none;fill:black;font-family:sans-serif;font-size:13;font-weight:bold;" transform="matrix(1 0 0 1 263 1953)">Design Variations</text>
  <text style="stroke:none;fill:black;font-family:sans-serif;font-size:13;" transform="matrix(1 0 0 1 263 1971)">Symbols are supported in up to nine weights and three scales.</text>
  <text style="stroke:none;fill:black;font-family:sans-serif;font-size:13;" transform="matrix(1 0 0 1 263 1989)">For optimal layout with text and other symbols, vertically align</text>
  <text style="stroke:none;fill:black;font-family:sans-serif;font-size:13;" transform="matrix(1 0 0 1 263 2007)">symbols with the adjacent text.</text>
  <line style="fill:none;stroke:#00AEEF;stroke-width:0.5;opacity:1.0;" x1="776" x2="776" y1="1919" y2="1933"/>
  <g transform="matrix(1 0 0 1 776 1933)">
   <path d="M3.31055 0.15625Q3.70117 0.15625 3.91602-0.00976562Q4.13086-0.175781 4.26758-0.585938L5.52734-4.0332L11.2891-4.0332L12.5488-0.585938Q12.6855-0.175781 12.9004-0.00976562Q13.1152 0.15625 13.4961 0.15625Q13.8867 0.15625 14.1162-0.0585938Q14.3457-0.273438 14.3457-0.644531Q14.3457-0.869141 14.2383-1.17188L9.6582-13.3691Q9.48242-13.8184 9.17969-14.043Q8.87695-14.2676 8.4082-14.2676Q7.5-14.2676 7.17773-13.3789L2.59766-1.16211Q2.49023-0.859375 2.49023-0.634766Q2.49023-0.263672 2.70996-0.0537109Q2.92969 0.15625 3.31055 0.15625ZM6.00586-5.51758L8.37891-12.0898L8.42773-12.0898L10.8008-5.51758Z"/>
  </g>
  <line style="fill:none;stroke:#00AEEF;stroke-width:0.5;opacity:1.0;" x1="793.197" x2="793.197" y1="1919" y2="1933"/>
  <text style="stroke:none;fill:black;font-family:sans-serif;font-size:13;font-weight:bold;" transform="matrix(1 0 0 1 776 1953)">Margins</text>
  <text style="stroke:none;fill:black;font-family:sans-serif;font-size:13;" transform="matrix(1 0 0 1 776 1971)">Leading and trailing margins on the left and right side of each symbol</text>
  <text style="stroke:none;fill:black;font-family:sans-serif;font-size:13;" transform="matrix(1 0 0 1 776 1989)">can be adjusted by modifying the x-location of the margin guidelines.</text>
  <text style="stroke:none;fill:black;font-family:sans-serif;font-size:13;" transform="matrix(1 0 0 1 776 2007)">Modifications are automatically applied proportionally to all</text>
  <text style="stroke:none;fill:black;font-family:sans-serif;font-size:13;" transform="matrix(1 0 0 1 776 2025)">scales and weights.</text>
  <g transform="matrix(1 0 0 1 1289 1933)">
   <path d="M2.8418 1.86523L4.54102 3.57422Q5.18555 4.22852 5.90332 4.17969Q6.62109 4.13086 7.31445 3.35938L18.0078-8.42773L17.041-9.4043L6.42578 2.27539Q6.16211 2.57812 5.89355 2.61719Q5.625 2.65625 5.27344 2.30469L4.10156 1.14258Q3.75 0.791016 3.79395 0.522461Q3.83789 0.253906 4.14062-0.0195312L15.6152-10.8203L14.6387-11.7871L3.04688-0.898438Q2.30469-0.214844 2.25098 0.498047Q2.19727 1.21094 2.8418 1.86523ZM9.25781-16.3281Q8.94531-16.0254 8.90625-15.6348Q8.86719-15.2441 9.04297-14.9512Q9.21875-14.6777 9.55566-14.541Q9.89258-14.4043 10.3809-14.5215Q11.4746-14.7754 12.5977-14.7314Q13.7207-14.6875 14.7949-13.9844L14.209-12.5293Q13.9551-11.9043 14.0674-11.4404Q14.1797-10.9766 14.5801-10.5664L16.875-8.25195Q17.2363-7.88086 17.5781-7.82227Q17.9199-7.76367 18.3398-7.8418L19.4043-8.03711L20.0684-7.36328L20.0293-6.80664Q20-6.43555 20.1221-6.12305Q20.2441-5.81055 20.6055-5.44922L21.3672-4.70703Q21.7285-4.3457 22.1533-4.33105Q22.5781-4.31641 22.9297-4.66797L25.8398-7.58789Q26.1914-7.93945 26.1816-8.35449Q26.1719-8.76953 25.8105-9.13086L25.0391-9.89258Q24.6875-10.2539 24.3799-10.3857Q24.0723-10.5176 23.7109-10.4883L23.1348-10.4395L22.4902-11.0742L22.7344-12.1973Q22.832-12.6172 22.6953-12.9834Q22.5586-13.3496 22.1191-13.7891L19.9219-15.9766Q18.6719-17.2168 17.2607-17.8369Q15.8496-18.457 14.4189-18.4814Q12.9883-18.5059 11.665-17.959Q10.3418-17.4121 9.25781-16.3281ZM10.752-15.957Q11.6602-16.6211 12.7002-16.9043Q13.7402-17.1875 14.8047-17.085Q15.8691-16.9824 16.8701-16.5137Q17.8711-16.0449 18.7012-15.2051L21.1328-12.793Q21.3086-12.6172 21.3525-12.4512Q21.3965-12.2852 21.3379-12.0312L21.0156-10.5469L22.5195-9.0625L23.5059-9.12109Q23.6914-9.13086 23.7891-9.09668Q23.8867-9.0625 24.0332-8.91602L24.6094-8.33984L22.168-5.89844L21.5918-6.47461Q21.4453-6.62109 21.4062-6.71875Q21.3672-6.81641 21.377-7.01172L21.4453-7.98828L19.9512-9.47266L18.4277-9.21875Q18.1836-9.16992 18.042-9.2041Q17.9004-9.23828 17.7148-9.41406L15.7129-11.416Q15.5176-11.5918 15.4932-11.7529Q15.4688-11.9141 15.5859-12.1875L16.4648-14.2773Q15.293-15.3711 13.8281-15.791Q12.3633-16.2109 10.8398-15.7617Q10.7227-15.7324 10.6885-15.8057Q10.6543-15.8789 10.752-15.957Z"/>
  </g>
  <text style="stroke:none;fill:black;font-family:sans-serif;font-size:13;font-weight:bold;" transform="matrix(1 0 0 1 1289 1953)">Exporting</text>
  <text style="stroke:none;fill:black;font-family:sans-serif;font-size:13;" transform="matrix(1 0 0 1 1289 1971)">Symbols should be outlined when exporting to ensure the</text>
  <text style="stroke:none;fill:black;font-family:sans-serif;font-size:13;" transform="matrix(1 0 0 1 1289 1989)">design is preserved when submitting to Xcode.</text>
  <text id="template-version" style="stroke:none;fill:black;font-family:sans-serif;font-size:13;text-anchor:end;" transform="matrix(1 0 0 1 3036 1933)">Template v.3.0</text>
  <text style="stroke:none;fill:black;font-family:sans-serif;font-size:13;text-anchor:end;" transform="matrix(1 0 0 1 3036 1951)">Requires Xcode 13 or greater</text>
  <text id="descriptive-name" style="stroke:none;fill:black;font-family:sans-serif;font-size:13;text-anchor:end;" transform="matrix(1 0 0 1 3036 1969)">Generated from qrcode.viewfinder</text>
  <text style="stroke:none;fill:black;font-family:sans-serif;font-size:13;text-anchor:end;" transform="matrix(1 0 0 1 3036 1987)">Typeset at 100 points</text>
  <text style="stroke:none;fill:black;font-family:sans-serif;font-size:13;" transform="matrix(1 0 0 1 263 726)">Small</text>
  <text style="stroke:none;fill:black;font-family:sans-serif;font-size:13;" transform="matrix(1 0 0 1 263 1156)">Medium</text>
  <text style="stroke:none;fill:black;font-family:sans-serif;font-size:13;" transform="matrix(1 0 0 1 263 1586)">Large</text>
 </g>
 <g id="Guides">
  <g id="H-reference" style="fill:#27AAE1;stroke:none;" transform="matrix(1 0 0 1 339 696)">
   <path d="M0.993347 0L3.6377 0L29.3282-67.1326L30.0301-67.1326L30.0301-70.459L28.1227-70.459ZM11.6882-24.4797L46.9818-24.4797L46.2311-26.7288L12.4382-26.7288ZM55.1193 0L57.7637 0L30.6381-70.459L29.4327-70.459L29.4327-67.1326Z"/>
  </g>
  <line id="Baseline-S" style="fill:none;stroke:#27AAE1;opacity:1;stroke-width:0.5;" x1="263" x2="3036" y1="696" y2="696"/>
  <line id="Capline-S" style="fill:none;stroke:#27AAE1;opacity:1;stroke-width:0.5;" x1="263" x2="3036" y1="625.541" y2="625.541"/>
  <g id="H-reference" style="fill:#27AAE1;stroke:none;" transform="matrix(1 0 0 1 339 1126)">
   <path d="M0.993347 0L3.6377 0L29.3282-67.1326L30.0301-67.1326L30.0301-70.459L28.1227-70.459ZM11.6882-24.4797L46.9818-24.4797L46.2311-26.7288L12.4382-26.7288ZM55.1193 0L57.7637 0L30.6381-70.459L29.4327-70.459L29.4327-67.1326Z"/>
  </g>
  <line id="Baseline-M" style="fill:none;stroke:#27AAE1;opacity:1;stroke-width:0.5;" x1="263" x2="3036" y1="1126" y2="1126"/>
  <line id="Capline-M" style="fill:none;stroke:#27AAE1;opacity:1;stroke-width:0.5;" x1="263" x2="3036" y1="1055.54" y2="1055.54"/>
  <g id="H-reference" style="fill:#27AAE1;stroke:none;" transform="matrix(1 0 0 1 339 1556)">
   <path d="M0.993347 0L3.6377 0L29.3282-67.1326L30.0301-67.1326L30.0301-70.459L28.1227-70.459ZM11.6882-24.4797L46.9818-24.4797L46.2311-26.7288L12.4382-26.7288ZM55.1193 0L57.7637 0L30.6381-70.459L29.4327-70.459L29.4327-67.1326Z"/>
  </g>
  <line id="Baseline-L" style="fill:none;stroke:#27AAE1;opacity:1;stroke-width:0.5;" x1="263" x2="3036" y1="1556" y2="1556"/>
  <line id="Capline-L" style="fill:none;stroke:#27AAE1;opacity:1;stroke-width:0.5;" x1="263" x2="3036" y1="1485.54" y2="1485.54"/>
  <line id="left-margin-Regular-M" style="fill:none;stroke:#00AEEF;stroke-width:0.5;opacity:1.0;" x1="1389.61" x2="1389.61" y1="1030.79" y2="1150.12"/>
  <line id="right-margin-Regular-M" style="fill:none;stroke:#00AEEF;stroke-width:0.5;opacity:1.0;" x1="1510.08" x2="1510.08" y1="1030.79" y2="1150.12"/>
 </g>
 <g id="Symbols">
  <g id="Black-L" transform="matrix(1 0 0 1 2852.32 1556)">
   <path d="M26.0749-51.5293Q36.0645-51.5293 36.0645-61.5994L36.0645-73.6474Q36.0645-77.1292 37.7216-78.6592Q39.3787-80.1891 42.5866-80.1891L54.7371-80.1891Q64.8071-80.1891 64.8071-90.18Q64.8071-100.19 54.7371-100.19L39.8559-100.19Q28.5079-100.19 22.2959-93.999Q16.084-87.8078 16.084-76.4818L16.084-61.5994Q16.084-51.5293 26.0749-51.5293ZM136.077-51.5293Q146.068-51.5293 146.068-61.5994L146.068-76.4818Q146.068-87.8065 139.866-93.9984Q133.665-100.19 122.296-100.19L107.415-100.19Q97.3447-100.19 97.3447-90.18Q97.3447-80.1891 107.415-80.1891L119.565-80.1891Q122.828-80.1891 124.458-78.6592Q126.087-77.1292 126.087-73.6474L126.087-61.5994Q126.087-51.5293 136.077-51.5293ZM39.8559 29.8143L54.7371 29.8143Q64.8071 29.8143 64.8071 19.8247Q64.8071 9.81309 54.7371 9.81309L42.5866 9.81309Q39.3787 9.81309 37.7216 8.26432Q36.0645 6.71556 36.0645 3.27017L36.0645-8.75591Q36.0645-18.8479 26.0749-18.8479Q16.084-18.8479 16.084-8.75591L16.084 6.10582Q16.084 17.4318 22.2959 23.6231Q28.5079 29.8143 39.8559 29.8143ZM107.415 29.8143L122.296 29.8143Q133.665 29.8143 139.866 23.6224Q146.068 17.4305 146.068 6.10582L146.068-8.75591Q146.068-18.8479 136.077-18.8479Q126.087-18.8479 126.087-8.75591L126.087 3.27017Q126.087 6.71556 124.458 8.26432Q122.828 9.81309 119.565 9.81309L107.415 9.81309Q97.3447 9.81309 97.3447 19.8247Q97.3447 29.8143 107.415 29.8143ZM54.0059-5.37588L75.6658-5.37588Q78.343-5.37588 78.343-8.11144L78.343-29.7921Q78.343-32.4706 75.6658-32.4706L54.0059-32.4706Q52.8203-32.4706 52.0446-31.6949Q51.269-30.9193 51.269-29.7921L51.269-8.11144Q51.269-5.37588 54.0059-5.37588ZM56.6636-10.8496L56.6636-27.0566L72.89-27.0566L72.89-10.8496ZM61.4342-15.6008L68.1985-15.6008L68.1985-22.3651L61.4342-22.3651ZM54.0059-37.9054L75.6658-37.9054Q78.343-37.9054 78.343-40.5826L78.343-62.2425Q78.343-65.0001 75.6658-65.0001L54.0059-65.0001Q52.8203-65.0001 52.0446-64.2245Q51.269-63.4488 51.269-62.2425L51.269-40.5826Q51.269-37.9054 54.0059-37.9054ZM56.6636-43.3571L56.6636-59.5848L72.89-59.5848L72.89-43.3571ZM61.4342-48.0706L68.1985-48.0706L68.1985-54.8349L61.4342-54.8349ZM86.4757-37.9054L108.134-37.9054Q110.87-37.9054 110.87-40.5826L110.87-62.2425Q110.87-65.0001 108.134-65.0001L86.4757-65.0001Q85.3485-65.0001 84.5729-64.2245Q83.7972-63.4488 83.7972-62.2425L83.7972-40.5826Q83.7972-37.9054 86.4757-37.9054ZM89.1905-43.3571L89.1905-59.5848L105.417-59.5848L105.417-43.3571ZM93.8833-48.0706L100.668-48.0706L100.668-54.8349L93.8833-54.8349ZM84.543-6.18136L91.3644-6.18136L91.3644-12.9092L84.543-12.9092ZM103.36-6.18136L110.066-6.18136L110.066-12.9092L103.36-12.9092ZM93.882-15.5424L100.667-15.5424L100.667-22.3067L93.882-22.3067ZM84.543-24.884L91.3644-24.884L91.3644-31.7261L84.543-31.7261ZM103.36-24.884L110.066-24.884L110.066-31.7261L103.36-31.7261Z"/>
  </g>
  <g id="Heavy-L" transform="matrix(1 0 0 1 2556.49 1556)">
   <path d="M24.8359-52.7708Q33.5818-52.7708 33.5818-61.5972L33.5818-74.3861Q33.5818-78.2252 35.4659-80.0051Q37.3499-81.785 40.957-81.785L53.8887-81.785Q62.7151-81.785 62.7151-90.537Q62.7151-99.3126 53.8887-99.3126L38.8328-99.3126Q27.8839-99.3126 21.984-93.4424Q16.084-87.5722 16.084-76.6592L16.084-61.5972Q16.084-52.7708 24.8359-52.7708ZM135.561-52.7708Q144.313-52.7708 144.313-61.5972L144.313-76.6592Q144.313-87.5662 138.428-93.4394Q132.543-99.3126 121.564-99.3126L106.508-99.3126Q97.6819-99.3126 97.6819-90.537Q97.6819-81.785 106.508-81.785L119.44-81.785Q123.074-81.785 124.944-80.0051Q126.815-78.2252 126.815-74.3861L126.815-61.5972Q126.815-52.7708 135.561-52.7708ZM38.8328 28.9461L53.8887 28.9461Q62.7151 28.9461 62.7151 20.2002Q62.7151 11.4185 53.8887 11.4185L40.957 11.4185Q37.3499 11.4185 35.4659 9.63119Q33.5818 7.84388 33.5818 4.01358L33.5818-8.73958Q33.5818-17.6017 24.8359-17.6017Q16.084-17.6017 16.084-8.73958L16.084 6.29266Q16.084 17.2057 21.984 23.0759Q27.8839 28.9461 38.8328 28.9461ZM106.508 28.9461L121.564 28.9461Q132.543 28.9461 138.428 23.0729Q144.313 17.1997 144.313 6.29266L144.313-8.73958Q144.313-17.6017 135.561-17.6017Q126.815-17.6017 126.815-8.73958L126.815 4.01358Q126.815 7.84388 124.944 9.63119Q123.074 11.4185 119.44 11.4185L106.508 11.4185Q97.6819 11.4185 97.6819 20.2002Q97.6819 28.9461 106.508 28.9461ZM52.9814-5.22912L74.7411-5.22912Q77.4368-5.22912 77.4368-7.96943L77.4368-29.7589Q77.4368-32.4606 74.7411-32.4606L52.9814-32.4606Q51.8049-32.4606 51.02-31.6757Q50.2351-30.8908 50.2351-29.7589L50.2351-7.96943Q50.2351-5.22912 52.9814-5.22912ZM55.6534-10.7218L55.6534-27.0186L71.9739-27.0186L71.9739-10.7218ZM60.4521-15.4968L67.2496-15.4968L67.2496-22.2943L60.4521-22.2943ZM52.9814-37.9059L74.7411-37.9059Q77.4368-37.9059 77.4368-40.6016L77.4368-62.3613Q77.4368-65.1374 74.7411-65.1374L52.9814-65.1374Q51.8049-65.1374 51.02-64.3525Q50.2351-63.5676 50.2351-62.3613L50.2351-40.6016Q50.2351-37.9059 52.9814-37.9059ZM55.6534-43.3628L55.6534-59.6893L71.9739-59.6893L71.9739-43.3628ZM60.4521-48.1229L67.2496-48.1229L67.2496-54.9204L60.4521-54.9204ZM85.6075-37.9059L107.361-37.9059Q110.102-37.9059 110.102-40.6016L110.102-62.3613Q110.102-65.1374 107.361-65.1374L85.6075-65.1374Q84.4756-65.1374 83.6907-64.3525Q82.9058-63.5676 82.9058-62.3613L82.9058-40.6016Q82.9058-37.9059 85.6075-37.9059ZM88.3181-43.3628L88.3181-59.6893L104.639-59.6893L104.639-43.3628ZM93.0484-48.1229L99.8757-48.1229L99.8757-54.9204L93.0484-54.9204ZM83.6654-6.03936L90.5015-6.03936L90.5015-12.8281L83.6654-12.8281ZM102.544-6.03936L109.297-6.03936L109.297-12.8281L102.544-12.8281ZM93.0424-15.4521L99.8697-15.4521L99.8697-22.2497L93.0424-22.2497ZM83.6654-24.8412L90.5015-24.8412L90.5015-31.7071L83.6654-31.7071ZM102.544-24.8412L109.297-24.8412L109.297-31.7071L102.544-31.7071Z"/>
  </g>
  <g id="Bold-L" transform="matrix(1 0 0 1 2260.93 1556)">
   <path d="M23.309-54.1769Q30.5198-54.1769 30.5198-61.4681L30.5198-75.1923Q30.5198-79.4973 32.6907-81.5914Q34.8616-83.6854 38.9901-83.6854L52.8851-83.6854Q60.1762-83.6854 60.1762-90.9104Q60.1762-98.1582 52.8851-98.1582L37.5443-98.1582Q27.1168-98.1582 21.6004-92.6787Q16.084-87.1993 16.084-76.823L16.084-61.4681Q16.084-54.1769 23.309-54.1769ZM134.788-54.1769Q142.013-54.1769 142.013-61.4681L142.013-76.823Q142.013-87.1851 136.515-92.6716Q131.017-98.1582 120.553-98.1582L105.212-98.1582Q97.9209-98.1582 97.9209-90.9104Q97.9209-83.6854 105.212-83.6854L119.107-83.6854Q123.222-83.6854 125.4-81.5914Q127.577-79.4973 127.577-75.1923L127.577-61.4681Q127.577-54.1769 134.788-54.1769ZM37.5443 27.808L52.8851 27.808Q60.1762 27.808 60.1762 20.5973Q60.1762 13.3353 52.8851 13.3353L38.9901 13.3353Q34.8616 13.3353 32.6907 11.2451Q30.5198 9.15499 30.5198 4.82792L30.5198-8.84506Q30.5198-16.1875 23.309-16.1875Q16.084-16.1875 16.084-8.84506L16.084 6.47288Q16.084 16.8492 21.6004 22.3286Q27.1168 27.808 37.5443 27.808ZM105.212 27.808L120.553 27.808Q131.017 27.808 136.515 22.3215Q142.013 16.835 142.013 6.47288L142.013-8.84506Q142.013-16.1875 134.788-16.1875Q127.577-16.1875 127.577-8.84506L127.577 4.82792Q127.577 9.15499 125.4 11.2451Q123.222 13.3353 119.107 13.3353L105.212 13.3353Q97.9209 13.3353 97.9209 20.5973Q97.9209 27.808 105.212 27.808ZM51.5822-4.98436L73.5139-4.98436Q76.2332-4.98436 76.2332-7.73287L76.2332-29.7016Q76.2332-32.4351 73.5139-32.4351L51.5822-32.4351Q50.4129-32.4351 49.6162-31.6384Q48.8195-30.8417 48.8195-29.7016L48.8195-7.73287Q48.8195-4.98436 51.5822-4.98436ZM54.2788-10.5098L54.2788-26.9531L70.7448-26.9531L70.7448-10.5098ZM59.1174-15.3257L65.9723-15.3257L65.9723-22.1806L59.1174-22.1806ZM51.5822-37.915L73.5139-37.915Q76.2332-37.915 76.2332-40.6343L76.2332-62.566Q76.2332-65.3657 73.5139-65.3657L51.5822-65.3657Q50.4129-65.3657 49.6162-64.569Q48.8195-63.7723 48.8195-62.566L48.8195-40.6343Q48.8195-37.915 51.5822-37.915ZM54.2788-43.3893L54.2788-59.8695L70.7448-59.8695L70.7448-43.3893ZM59.1174-48.213L65.9723-48.213L65.9723-55.0678L59.1174-55.0678ZM84.4694-37.915L106.387-37.915Q109.135-37.915 109.135-40.6343L109.135-62.566Q109.135-65.3657 106.387-65.3657L84.4694-65.3657Q83.3293-65.3657 82.5326-64.569Q81.7359-63.7723 81.7359-62.566L81.7359-40.6343Q81.7359-37.915 84.4694-37.915ZM87.181-43.3893L87.181-59.8695L103.647-59.8695L103.647-43.3893ZM91.9677-48.213L98.8595-48.213L98.8595-55.0678L91.9677-55.0678ZM82.5109-5.80279L89.3808-5.80279L89.3808-12.6797L82.5109-12.6797ZM101.506-5.80279L108.331-5.80279L108.331-12.6797L101.506-12.6797ZM91.9534-15.2965L98.8453-15.2965L98.8453-22.1514L91.9534-22.1514ZM82.5109-24.7675L89.3808-24.7675L89.3808-31.6743L82.5109-31.6743ZM101.506-24.7675L108.331-24.7675L108.331-31.6743L101.506-31.6743Z"/>
  </g>
  <g id="Semibold-L" transform="matrix(1 0 0 1 1965.01 1556)">
   <path d="M22.2563-55.1462Q28.4088-55.1462 28.4088-61.3791L28.4088-75.748Q28.4088-80.3743 30.7775-82.6849Q33.1463-84.9955 37.6342-84.9955L52.1931-84.9955Q58.426-84.9955 58.426-91.1678Q58.426-97.3623 52.1931-97.3623L36.6561-97.3623Q26.588-97.3623 21.336-92.1522Q16.084-86.9422 16.084-76.9359L16.084-61.3791Q16.084-55.1462 22.2563-55.1462ZM134.255-55.1462Q140.428-55.1462 140.428-61.3791L140.428-76.9359Q140.428-86.9223 135.197-92.1423Q129.966-97.3623 119.856-97.3623L104.319-97.3623Q98.0857-97.3623 98.0857-91.1678Q98.0857-84.9955 104.319-84.9955L118.878-84.9955Q123.324-84.9955 125.714-82.6849Q128.103-80.3743 128.103-75.748L128.103-61.3791Q128.103-55.1462 134.255-55.1462ZM36.6561 27.0235L52.1931 27.0235Q58.426 27.0235 58.426 20.871Q58.426 14.6567 52.1931 14.6567L37.6342 14.6567Q33.1463 14.6567 30.7775 12.3578Q28.4088 10.0589 28.4088 5.38932L28.4088-8.91778Q28.4088-15.2125 22.2563-15.2125Q16.084-15.2125 16.084-8.91778L16.084 6.59712Q16.084 16.6034 21.336 21.8134Q26.588 27.0235 36.6561 27.0235ZM104.319 27.0235L119.856 27.0235Q129.966 27.0235 135.197 21.8035Q140.428 16.5835 140.428 6.59712L140.428-8.91778Q140.428-15.2125 134.255-15.2125Q128.103-15.2125 128.103-8.91778L128.103 5.38932Q128.103 10.0589 125.714 12.3578Q123.324 14.6567 118.878 14.6567L104.319 14.6567Q98.0857 14.6567 98.0857 20.871Q98.0857 27.0235 104.319 27.0235ZM50.6176-4.81563L72.6679-4.81563Q75.4035-4.81563 75.4035-7.56978L75.4035-29.662Q75.4035-32.4175 72.6679-32.4175L50.6176-32.4175Q49.4533-32.4175 48.6484-31.6126Q47.8436-30.8078 47.8436-29.662L47.8436-7.56978Q47.8436-4.81563 50.6176-4.81563ZM53.3311-10.3637L53.3311-26.9079L69.8974-26.9079L69.8974-10.3637ZM58.1973-15.2078L65.0917-15.2078L65.0917-22.1022L58.1973-22.1022ZM50.6176-37.9213L72.6679-37.9213Q75.4035-37.9213 75.4035-40.6569L75.4035-62.7072Q75.4035-65.5232 72.6679-65.5232L50.6176-65.5232Q49.4533-65.5232 48.6484-64.7183Q47.8436-63.9135 47.8436-62.7072L47.8436-40.6569Q47.8436-37.9213 50.6176-37.9213ZM53.3311-43.4075L53.3311-59.9937L69.8974-59.9937L69.8974-43.4075ZM58.1973-48.2751L65.0917-48.2751L65.0917-55.1695L58.1973-55.1695ZM83.6849-37.9213L105.715-37.9213Q108.469-37.9213 108.469-40.6569L108.469-62.7072Q108.469-65.5232 105.715-65.5232L83.6849-65.5232Q82.5391-65.5232 81.7343-64.7183Q80.9294-63.9135 80.9294-62.7072L80.9294-40.6569Q80.9294-37.9213 83.6849-37.9213ZM86.397-43.4075L86.397-59.9937L102.963-59.9937L102.963-43.4075ZM91.2226-48.2751L98.159-48.2751L98.159-55.1695L91.2226-55.1695ZM81.715-5.6397L88.6081-5.6397L88.6081-12.5774L81.715-12.5774ZM100.789-5.6397L107.665-5.6397L107.665-12.5774L100.789-12.5774ZM91.2027-15.1892L98.1391-15.1892L98.1391-22.0836L91.2027-22.0836ZM81.715-24.7167L88.6081-24.7167L88.6081-31.6517L81.715-31.6517ZM100.789-24.7167L107.665-24.7167L107.665-31.6517L100.789-31.6517Z"/>
  </g>
  <g id="Medium-L" transform="matrix(1 0 0 1 1668.9 1556)">
   <path d="M21.4581-55.8812Q26.8081-55.8812 26.8081-61.3116L26.8081-76.1694Q26.8081-81.0392 29.3269-83.5141Q31.8456-85.9889 36.606-85.9889L51.6685-85.9889Q57.0989-85.9889 57.0989-91.3631Q57.0989-96.7588 51.6685-96.7588L35.9826-96.7588Q26.187-96.7588 21.1355-91.753Q16.084-86.7473 16.084-77.0216L16.084-61.3116Q16.084-55.8812 21.4581-55.8812ZM133.851-55.8812Q139.226-55.8812 139.226-61.3116L139.226-77.0216Q139.226-86.7231 134.197-91.741Q129.168-96.7588 119.327-96.7588L103.641-96.7588Q98.2107-96.7588 98.2107-91.3631Q98.2107-85.9889 103.641-85.9889L118.704-85.9889Q123.402-85.9889 125.952-83.5141Q128.501-81.0392 128.501-76.1694L128.501-61.3116Q128.501-55.8812 133.851-55.8812ZM35.9826 26.4285L51.6685 26.4285Q57.0989 26.4285 57.0989 21.0786Q57.0989 15.6587 51.6685 15.6587L36.606 15.6587Q31.8456 15.6587 29.3269 13.2014Q26.8081 10.7442 26.8081 5.81499L26.8081-8.97293Q26.8081-14.4732 21.4581-14.4732Q16.084-14.4732 16.084-8.97293L16.084 6.69133Q16.084 16.417 21.1355 21.4228Q26.187 26.4285 35.9826 26.4285ZM103.641 26.4285L119.327 26.4285Q129.168 26.4285 134.197 21.4107Q139.226 16.3929 139.226 6.69133L139.226-8.97293Q139.226-14.4732 133.851-14.4732Q128.501-14.4732 128.501-8.97293L128.501 5.81499Q128.501 10.7442 125.952 13.2014Q123.402 15.6587 118.704 15.6587L103.641 15.6587Q98.2107 15.6587 98.2107 21.0786Q98.2107 26.4285 103.641 26.4285ZM49.8862-4.68769L72.0264-4.68769Q74.7743-4.68769 74.7743-7.44612L74.7743-29.6321Q74.7743-32.4041 72.0264-32.4041L49.8862-32.4041Q48.7256-32.4041 47.9146-31.5931Q47.1036-30.7821 47.1036-29.6321L47.1036-7.44612Q47.1036-4.68769 49.8862-4.68769ZM52.6125-10.2529L52.6125-26.8736L69.2549-26.8736L69.2549-10.2529ZM57.4997-15.1184L64.424-15.1184L64.424-22.0428L57.4997-22.0428ZM49.8862-37.9261L72.0264-37.9261Q74.7743-37.9261 74.7743-40.674L74.7743-62.8142Q74.7743-65.6426 72.0264-65.6426L49.8862-65.6426Q48.7256-65.6426 47.9146-64.8315Q47.1036-64.0205 47.1036-62.8142L47.1036-40.674Q47.1036-37.9261 49.8862-37.9261ZM52.6125-43.4214L52.6125-60.0879L69.2549-60.0879L69.2549-43.4214ZM57.4997-48.3222L64.424-48.3222L64.424-55.2465L57.4997-55.2465ZM83.0899-37.9261L105.206-37.9261Q107.964-37.9261 107.964-40.674L107.964-62.8142Q107.964-65.6426 105.206-65.6426L83.0899-65.6426Q81.9399-65.6426 81.1289-64.8315Q80.3179-64.0205 80.3179-62.8142L80.3179-40.674Q80.3179-37.9261 83.0899-37.9261ZM85.8026-43.4214L85.8026-60.0879L102.445-60.0879L102.445-43.4214ZM90.6577-48.3222L97.6278-48.3222L97.6278-55.2465L90.6577-55.2465ZM81.1116-5.51604L88.0223-5.51604L88.0223-12.4998L81.1116-12.4998ZM100.246-5.51604L107.16-5.51604L107.16-12.4998L100.246-12.4998ZM90.6335-15.1079L97.6036-15.1079L97.6036-22.0322L90.6335-22.0322ZM81.1116-24.6781L88.0223-24.6781L88.0223-31.6346L81.1116-31.6346ZM100.246-24.6781L107.16-24.6781L107.16-31.6346L100.246-31.6346Z"/>
  </g>
  <g id="Regular-L" transform="matrix(1 0 0 1 1372.98 1556)">
   <path d="M20.417-56.8398Q24.7203-56.8398 24.7203-61.2236L24.7203-76.7191Q24.7203-81.9066 27.4347-84.5956Q30.1491-87.2846 35.265-87.2846L50.9841-87.2846Q55.3679-87.2846 55.3679-91.6177Q55.3679-95.9717 50.9841-95.9717L35.1041-95.9717Q25.664-95.9717 20.874-91.2323Q16.084-86.493 16.084-77.1333L16.084-61.2236Q16.084-56.8398 20.417-56.8398ZM133.325-56.8398Q137.658-56.8398 137.658-61.2236L137.658-77.1333Q137.658-86.4633 132.893-91.2175Q128.128-95.9717 118.637-95.9717L102.757-95.9717Q98.3737-95.9717 98.3737-91.6177Q98.3737-87.2846 102.757-87.2846L118.477-87.2846Q123.503-87.2846 126.262-84.5956Q129.021-81.9066 129.021-76.7191L129.021-61.2236Q129.021-56.8398 133.325-56.8398ZM35.1041 25.6526L50.9841 25.6526Q55.3679 25.6526 55.3679 21.3493Q55.3679 16.9655 50.9841 16.9655L35.265 16.9655Q30.1491 16.9655 27.4347 14.3018Q24.7203 11.6381 24.7203 6.37023L24.7203-9.04485Q24.7203-13.509 20.417-13.509Q16.084-13.509 16.084-9.04485L16.084 6.81421Q16.084 16.1739 20.874 20.9132Q25.664 25.6526 35.1041 25.6526ZM102.757 25.6526L118.637 25.6526Q128.128 25.6526 132.893 20.8984Q137.658 16.1442 137.658 6.81421L137.658-9.04485Q137.658-13.509 133.325-13.509Q129.021-13.509 129.021-9.04485L129.021 6.37023Q129.021 11.6381 126.262 14.3018Q123.503 16.9655 118.477 16.9655L102.757 16.9655Q98.3737 16.9655 98.3737 21.3493Q98.3737 25.6526 102.757 25.6526ZM48.9322-4.52081L71.1896-4.52081Q73.9537-4.52081 73.9537-7.28483L73.9537-29.593Q73.9537-32.3867 71.1896-32.3867L48.9322-32.3867Q47.7766-32.3867 46.9575-31.5677Q46.1384-30.7486 46.1384-29.593L46.1384-7.28483Q46.1384-4.52081 48.9322-4.52081ZM51.6752-10.1083L51.6752-26.829L68.4168-26.829L68.4168-10.1083ZM56.5897-15.0018L63.5531-15.0018L63.5531-21.9652L56.5897-21.9652ZM48.9322-37.9324L71.1896-37.9324Q73.9537-37.9324 73.9537-40.6964L73.9537-62.9538Q73.9537-65.7983 71.1896-65.7983L48.9322-65.7983Q47.7766-65.7983 46.9575-64.9792Q46.1384-64.1601 46.1384-62.9538L46.1384-40.6964Q46.1384-37.9324 48.9322-37.9324ZM51.6752-43.4394L51.6752-60.2108L68.4168-60.2108L68.4168-43.4394ZM56.5897-48.3836L63.5531-48.3836L63.5531-55.347L56.5897-55.347ZM82.314-37.9324L104.542-37.9324Q107.306-37.9324 107.306-40.6964L107.306-62.9538Q107.306-65.7983 104.542-65.7983L82.314-65.7983Q81.1584-65.7983 80.3393-64.9792Q79.5202-64.1601 79.5202-62.9538L79.5202-40.6964Q79.5202-37.9324 82.314-37.9324ZM85.0273-43.4394L85.0273-60.2108L101.769-60.2108L101.769-43.4394ZM89.9208-48.3836L96.9349-48.3836L96.9349-55.347L89.9208-55.347ZM80.3244-5.35475L87.2581-5.35475L87.2581-12.3986L80.3244-12.3986ZM99.5381-5.35475L106.502-5.35475L106.502-12.3986L99.5381-12.3986ZM89.891-15.0018L96.9052-15.0018L96.9052-21.9652L89.891-21.9652ZM80.3244-24.6279L87.2581-24.6279L87.2581-31.6123L80.3244-31.6123ZM99.5381-24.6279L106.502-24.6279L106.502-31.6123L99.5381-31.6123Z"/>
  </g>
  <g id="Light-L" transform="matrix(1 0 0 1 1077.47 1556)">
   <path d="M19.4115-56.963Q22.6887-56.963 22.6887-60.3206L22.6887-76.5754Q22.6887-82.2349 25.639-85.1702Q28.5894-88.1055 34.2389-88.1055L50.5942-88.1055Q53.9518-88.1055 53.9518-91.433Q53.9518-94.7403 50.5942-94.7403L34.078-94.7403Q25.1715-94.7403 20.6277-90.2268Q16.084-85.7132 16.084-76.887L16.084-60.3206Q16.084-56.963 19.4115-56.963ZM131.929-56.963Q135.256-56.963 135.256-60.3206L135.256-76.887Q135.256-85.6629 130.728-90.2016Q126.199-94.7403 117.262-94.7403L100.746-94.7403Q97.3886-94.7403 97.3886-91.433Q97.3886-88.1055 100.746-88.1055L117.102-88.1055Q122.6-88.1055 125.626-85.1702Q128.652-82.2349 128.652-76.5754L128.652-60.3206Q128.652-56.963 131.929-56.963ZM34.078 24.4623L50.5942 24.4623Q53.9518 24.4623 53.9518 21.1851Q53.9518 17.8275 50.5942 17.8275L34.2389 17.8275Q28.5894 17.8275 25.639 14.9072Q22.6887 11.987 22.6887 6.24709L22.6887-9.92729Q22.6887-13.3653 19.4115-13.3653Q16.084-13.3653 16.084-9.92729L16.084 6.60899Q16.084 15.4351 20.6277 19.9487Q25.1715 24.4623 34.078 24.4623ZM100.746 24.4623L117.262 24.4623Q126.199 24.4623 130.728 19.9236Q135.256 15.3849 135.256 6.60899L135.256-9.92729Q135.256-13.3653 131.929-13.3653Q128.652-13.3653 128.652-9.92729L128.652 6.24709Q128.652 11.987 125.626 14.9072Q122.6 17.8275 117.102 17.8275L100.746 17.8275Q97.3886 17.8275 97.3886 21.1851Q97.3886 24.4623 100.746 24.4623ZM47.1262-3.9462L69.8147-3.9462Q72.5992-3.9462 72.5992-6.73073L72.5992-29.4493Q72.5992-32.2841 69.8147-32.2841L47.1262-32.2841Q45.9501-32.2841 45.1208-31.4548Q44.2914-30.6255 44.2914-29.4493L44.2914-6.73073Q44.2914-3.9462 47.1262-3.9462ZM49.9309-9.61579L49.9309-26.6648L66.9598-26.6648L66.9598-9.61579ZM54.9069-14.6119L62.014-14.6119L62.014-21.719L54.9069-21.719ZM47.1262-37.9939L69.8147-37.9939Q72.5992-37.9939 72.5992-40.7785L72.5992-63.4669Q72.5992-66.3318 69.8147-66.3318L47.1262-66.3318Q45.9501-66.3318 45.1208-65.5025Q44.2914-64.6732 44.2914-63.4669L44.2914-40.7785Q44.2914-37.9939 47.1262-37.9939ZM49.9309-43.5831L49.9309-60.6623L66.9598-60.6623L66.9598-43.5831ZM54.9069-48.6093L62.014-48.6093L62.014-55.7164L54.9069-55.7164ZM81.1237-37.9939L103.762-37.9939Q106.546-37.9939 106.546-40.7785L106.546-63.4669Q106.546-66.3318 103.762-66.3318L81.1237-66.3318Q79.9476-66.3318 79.1182-65.5025Q78.2889-64.6732 78.2889-63.4669L78.2889-40.7785Q78.2889-37.9939 81.1237-37.9939ZM83.8781-43.5831L83.8781-60.6623L100.907-60.6623L100.907-43.5831ZM88.8742-48.6093L96.0114-48.6093L96.0114-55.7164L88.8742-55.7164ZM79.0931-4.80066L86.1499-4.80066L86.1499-11.9882L79.0931-11.9882ZM98.6351-4.80066L105.742-4.80066L105.742-11.9882L98.6351-11.9882ZM88.8239-14.6119L95.9612-14.6119L95.9612-21.719L88.8239-21.719ZM79.0931-24.4432L86.1499-24.4432L86.1499-31.5302L79.0931-31.5302ZM98.6351-24.4432L105.742-24.4432L105.742-31.5302L98.6351-31.5302Z"/>
  </g>
  <g id="Thin-L" transform="matrix(1 0 0 1 782.347 1556)">
   <path d="M18.0815-57.1258Q20.0016-57.1258 20.0016-59.1263L20.0016-76.3854Q20.0016-82.6692 23.2641-85.9302Q26.5266-89.1912 32.8818-89.1912L50.0785-89.1912Q52.0791-89.1912 52.0791-91.1887Q52.0791-93.1118 50.0785-93.1118L32.7209-93.1118Q24.5201-93.1118 20.302-88.8968Q16.084-84.6818 16.084-76.5613L16.084-59.1263Q16.084-57.1258 18.0815-57.1258ZM130.083-57.1258Q132.081-57.1258 132.081-59.1263L132.081-76.5613Q132.081-84.6044 127.864-88.8581Q123.648-93.1118 115.444-93.1118L98.0863-93.1118Q96.0858-93.1118 96.0858-91.1887Q96.0858-89.1912 98.0863-89.1912L115.283-89.1912Q121.406-89.1912 124.785-85.9302Q128.163-82.6692 128.163-76.3854L128.163-59.1263Q128.163-57.1258 130.083-57.1258ZM32.7209 22.8881L50.0785 22.8881Q52.0791 22.8881 52.0791 20.968Q52.0791 18.9674 50.0785 18.9674L32.8818 18.9674Q26.5266 18.9674 23.2641 15.7079Q20.0016 12.4484 20.0016 6.08424L20.0016-11.0944Q20.0016-13.1753 18.0815-13.1753Q16.084-13.1753 16.084-11.0944L16.084 6.33757Q16.084 14.458 20.302 18.673Q24.5201 22.8881 32.7209 22.8881ZM98.0863 22.8881L115.444 22.8881Q123.648 22.8881 127.864 18.6343Q132.081 14.3806 132.081 6.33757L132.081-11.0944Q132.081-13.1753 130.083-13.1753Q128.163-13.1753 128.163-11.0944L128.163 6.08424Q128.163 12.4484 124.785 15.7079Q121.406 18.9674 115.283 18.9674L98.0863 18.9674Q96.0858 18.9674 96.0858 20.968Q96.0858 22.8881 98.0863 22.8881ZM44.7377-3.18622L67.9962-3.18622Q70.8078-3.18622 70.8078-5.9979L70.8078-29.2593Q70.8078-32.1484 67.9962-32.1484L44.7377-32.1484Q43.5345-32.1484 42.6916-31.3055Q41.8487-30.4626 41.8487-29.2593L41.8487-5.9979Q41.8487-3.18622 44.7377-3.18622ZM47.6238-8.96439L47.6238-26.4477L65.0327-26.4477L65.0327-8.96439ZM52.6812-14.0962L59.9783-14.0962L59.9783-21.3933L52.6812-21.3933ZM44.7377-38.0753L67.9962-38.0753Q70.8078-38.0753 70.8078-40.887L70.8078-64.1454Q70.8078-67.0375 67.9962-67.0375L44.7377-67.0375Q43.5345-67.0375 42.6916-66.1946Q41.8487-65.3517 41.8487-64.1454L41.8487-40.887Q41.8487-38.0753 44.7377-38.0753ZM47.6238-43.7731L47.6238-61.2594L65.0327-61.2594L65.0327-43.7731ZM52.6812-48.9079L59.9783-48.9079L59.9783-56.205L52.6812-56.205ZM79.5495-38.0753L102.73-38.0753Q105.542-38.0753 105.542-40.887L105.542-64.1454Q105.542-67.0375 102.73-67.0375L79.5495-67.0375Q78.3462-67.0375 77.5033-66.1946Q76.6604-65.3517 76.6604-64.1454L76.6604-40.887Q76.6604-38.0753 79.5495-38.0753ZM82.3581-43.7731L82.3581-61.2594L99.767-61.2594L99.767-43.7731ZM87.4899-48.9079L94.79-48.9079L94.79-56.205L87.4899-56.205ZM77.4646-4.06782L84.6843-4.06782L84.6843-11.4453L77.4646-11.4453ZM97.4409-4.06782L104.738-4.06782L104.738-11.4453L97.4409-11.4453ZM87.4125-14.0962L94.7126-14.0962L94.7126-21.3933L87.4125-21.3933ZM77.4646-24.1989L84.6843-24.1989L84.6843-31.4216L77.4646-31.4216ZM97.4409-24.1989L104.738-24.1989L104.738-31.4216L97.4409-31.4216Z"/>
  </g>
  <g id="Ultralight-L" transform="matrix(1 0 0 1 486.45 1556)">
   <path d="M17.4003-57.2092Q18.6253-57.2092 18.6253-58.5147L18.6253-76.2881Q18.6253-82.8916 22.0477-86.3194Q25.4701-89.7473 32.1867-89.7473L49.8144-89.7473Q51.1198-89.7473 51.1198-91.0636Q51.1198-92.2777 49.8144-92.2777L32.0258-92.2777Q24.1864-92.2777 20.1352-88.2156Q16.084-84.1535 16.084-76.3945L16.084-58.5147Q16.084-57.2092 17.4003-57.2092ZM129.138-57.2092Q130.454-57.2092 130.454-58.5147L130.454-76.3945Q130.454-84.0622 126.398-88.17Q122.341-92.2777 114.512-92.2777L96.7239-92.2777Q95.4185-92.2777 95.4185-91.0636Q95.4185-89.7473 96.7239-89.7473L114.352-89.7473Q120.794-89.7473 124.354-86.3194Q127.913-82.8916 127.913-76.2881L127.913-58.5147Q127.913-57.2092 129.138-57.2092ZM32.0258 22.0818L49.8144 22.0818Q51.1198 22.0818 51.1198 20.8567Q51.1198 19.5513 49.8144 19.5513L32.1867 19.5513Q25.4701 19.5513 22.0477 16.118Q18.6253 12.6848 18.6253 6.00083L18.6253-11.6922Q18.6253-13.078 17.4003-13.078Q16.084-13.078 16.084-11.6922L16.084 6.19855Q16.084 13.9575 20.1352 18.0197Q24.1864 22.0818 32.0258 22.0818ZM96.7239 22.0818L114.512 22.0818Q122.341 22.0818 126.398 17.974Q130.454 13.8662 130.454 6.19855L130.454-11.6922Q130.454-13.078 129.138-13.078Q127.913-13.078 127.913-11.6922L127.913 6.00083Q127.913 12.6848 124.354 16.118Q120.794 19.5513 114.352 19.5513L96.7239 19.5513Q95.4185 19.5513 95.4185 20.8567Q95.4185 22.0818 96.7239 22.0818ZM43.5144-2.79697L67.0647-2.79697Q69.8903-2.79697 69.8903-5.62255L69.8903-29.162Q69.8903-32.0789 67.0647-32.0789L43.5144-32.0789Q42.2972-32.0789 41.4473-31.2291Q40.5975-30.3792 40.5975-29.162L40.5975-5.62255Q40.5975-2.79697 43.5144-2.79697ZM46.4421-8.63074L46.4421-26.3364L64.0457-26.3364L64.0457-8.63074ZM51.5413-13.832L58.9357-13.832L58.9357-21.2264L51.5413-21.2264ZM43.5144-38.1171L67.0647-38.1171Q69.8903-38.1171 69.8903-40.9426L69.8903-64.493Q69.8903-67.399 67.0647-67.399L43.5144-67.399Q42.2972-67.399 41.4473-66.5491Q40.5975-65.6993 40.5975-64.493L40.5975-40.9426Q40.5975-38.1171 43.5144-38.1171ZM46.4421-43.8704L46.4421-61.5652L64.0457-61.5652L64.0457-43.8704ZM51.5413-49.0608L58.9357-49.0608L58.9357-56.4552L51.5413-56.4552ZM78.7432-38.1171L102.202-38.1171Q105.028-38.1171 105.028-40.9426L105.028-64.493Q105.028-67.399 102.202-67.399L78.7432-67.399Q77.526-67.399 76.6761-66.5491Q75.8263-65.6993 75.8263-64.493L75.8263-40.9426Q75.8263-38.1171 78.7432-38.1171ZM81.5796-43.8704L81.5796-61.5652L99.1831-61.5652L99.1831-43.8704ZM86.7809-49.0608L94.1644-49.0608L94.1644-56.4552L86.7809-56.4552ZM76.6305-3.69247L83.9336-3.69247L83.9336-11.1673L76.6305-11.1673ZM96.8292-3.69247L104.224-3.69247L104.224-11.1673L96.8292-11.1673ZM86.6896-13.832L94.0731-13.832L94.0731-21.2264L86.6896-21.2264ZM76.6305-24.0738L83.9336-24.0738L83.9336-31.366L76.6305-31.366ZM96.8292-24.0738L104.224-24.0738L104.224-31.366L96.8292-31.366Z"/>
  </g>
  <g id="Black-M" transform="matrix(1 0 0 1 2870 1126)">
   <path d="M21.1298-46.8074Q29.799-46.8074 29.799-55.5389L29.799-64.3392Q29.799-66.7935 30.9198-67.7974Q32.0406-68.8012 34.2552-68.8012L43.0834-68.8012Q51.8149-68.8012 51.8149-77.4701Q51.8149-86.1448 43.0834-86.1448L31.6183-86.1448Q22.5558-86.1448 17.5084-81.1029Q12.4609-76.0609 12.4609-67.0036L12.4609-55.5389Q12.4609-46.8074 21.1298-46.8074ZM105.679-46.8074Q114.348-46.8074 114.348-55.5389L114.348-67.0036Q114.348-76.0613 109.303-81.103Q104.258-86.1448 95.1903-86.1448L83.7253-86.1448Q74.9938-86.1448 74.9938-77.4701Q74.9938-68.8012 83.7253-68.8012L92.5535-68.8012Q94.8261-68.8012 95.9179-67.7974Q97.0096-66.7935 97.0096-64.3392L97.0096-55.5389Q97.0096-46.8074 105.679-46.8074ZM31.6183 15.7475L43.0834 15.7475Q51.8149 15.7475 51.8149 7.07831Q51.8149-1.59608 43.0834-1.59608L34.2552-1.59608Q32.0406-1.59608 30.9198-2.62571Q29.799-3.65534 29.799-6.05778L29.799-14.8529Q29.799-23.5896 21.1298-23.5896Q12.4609-23.5896 12.4609-14.8529L12.4609-3.39367Q12.4609 5.66366 17.5084 10.7056Q22.5558 15.7475 31.6183 15.7475ZM83.7253 15.7475L95.1903 15.7475Q104.258 15.7475 109.303 10.7057Q114.348 5.66396 114.348-3.39367L114.348-14.8529Q114.348-23.5896 105.679-23.5896Q97.0096-23.5896 97.0096-14.8529L97.0096-6.05778Q97.0096-3.65534 95.9179-2.62571Q94.8261-1.59608 92.5535-1.59608L83.7253-1.59608Q74.9938-1.59608 74.9938 7.07831Q74.9938 15.7475 83.7253 15.7475ZM42.4763-12.1489L59.2299-12.1489Q61.2909-12.1489 61.2909-14.267L61.2909-31.0261Q61.2909-33.0867 59.2299-33.0867L42.4763-33.0867Q41.5473-33.0867 40.9529-32.4924Q40.3586-31.898 40.3586-31.0261L40.3586-14.267Q40.3586-12.1489 42.4763-12.1489ZM44.5315-16.3844L44.5315-28.908L57.0609-28.908L57.0609-16.3844ZM48.2117-20.0589L53.4432-20.0589L53.4432-25.2903L48.2117-25.2903ZM42.4763-37.3106L59.2299-37.3106Q61.2909-37.3106 61.2909-39.3715L61.2909-56.1251Q61.2909-58.2484 59.2299-58.2484L42.4763-58.2484Q41.5473-58.2484 40.9529-57.654Q40.3586-57.0597 40.3586-56.1251L40.3586-39.3715Q40.3586-37.3106 42.4763-37.3106ZM44.5315-41.5409L44.5315-54.07L57.0609-54.07L57.0609-41.5409ZM48.2117-45.1637L53.4432-45.1637L53.4432-50.3952L48.2117-50.3952ZM67.5812-37.3106L84.3351-37.3106Q86.4531-37.3106 86.4531-39.3715L86.4531-56.1251Q86.4531-58.2484 84.3351-58.2484L67.5812-58.2484Q66.7092-58.2484 66.1149-57.654Q65.5205-57.0597 65.5205-56.1251L65.5205-39.3715Q65.5205-37.3106 67.5812-37.3106ZM69.6937-41.5409L69.6937-54.07L82.2231-54.07L82.2231-41.5409ZM73.3111-45.1637L78.5481-45.1637L78.5481-50.3952L73.3111-50.3952ZM66.0865-12.7717L71.3754-12.7717L71.3754-17.9512L66.0865-17.9512ZM80.6557-12.7717L85.8301-12.7717L85.8301-17.9512L80.6557-17.9512ZM73.3114-20.0018L78.5484-20.0018L78.5484-25.2332L73.3114-25.2332ZM66.0865-27.2261L71.3754-27.2261L71.3754-32.5205L66.0865-32.5205ZM80.6557-27.2261L85.8301-27.2261L85.8301-32.5205L80.6557-32.5205Z"/>
  </g>
  <g id="Heavy-M" transform="matrix(1 0 0 1 2574.03 1126)">
   <path d="M20.0115-48.0097Q27.5595-48.0097 27.5595-55.62L27.5595-65.0745Q27.5595-67.8347 28.8804-69.0601Q30.2012-70.2856 32.7568-70.2856L42.29-70.2856Q49.9004-70.2856 49.9004-77.8361Q49.9004-85.4004 42.29-85.4004L30.7128-85.4004Q21.9913-85.4004 17.2261-80.6515Q12.4609-75.9026 12.4609-67.1997L12.4609-55.62Q12.4609-48.0097 20.0115-48.0097ZM105.303-48.0097Q112.854-48.0097 112.854-55.62L112.854-67.1997Q112.854-75.9001 108.097-80.6503Q103.34-85.4004 94.6019-85.4004L83.0246-85.4004Q75.4143-85.4004 75.4143-77.8361Q75.4143-70.2856 83.0246-70.2856L92.5579-70.2856Q95.1498-70.2856 96.4525-69.0601Q97.7552-67.8347 97.7552-65.0745L97.7552-55.62Q97.7552-48.0097 105.303-48.0097ZM30.7128 15.0086L42.29 15.0086Q49.9004 15.0086 49.9004 7.46056Q49.9004-0.106189 42.29-0.106189L32.7568-0.106189Q30.2012-0.106189 28.8804-1.34535Q27.5595-2.58452 27.5595-5.31969L27.5595-14.7555Q27.5595-22.3846 20.0115-22.3846Q12.4609-22.3846 12.4609-14.7555L12.4609-3.19209Q12.4609 5.51078 17.2261 10.2597Q21.9913 15.0086 30.7128 15.0086ZM83.0246 15.0086L94.6019 15.0086Q103.34 15.0086 108.097 10.2585Q112.854 5.50834 112.854-3.19209L112.854-14.7555Q112.854-22.3846 105.303-22.3846Q97.7552-22.3846 97.7552-14.7555L97.7552-5.31969Q97.7552-2.58452 96.4525-1.34535Q95.1498-0.106189 92.5579-0.106189L83.0246-0.106189Q75.4143-0.106189 75.4143 7.46056Q75.4143 15.0086 83.0246 15.0086ZM41.6415-12.0585L58.4528-12.0585Q60.53-12.0585 60.53-14.1793L60.53-31.0068Q60.53-33.0864 58.4528-33.0864L41.6415-33.0864Q40.7232-33.0864 40.1207-32.484Q39.5183-31.8815 39.5183-31.0068L39.5183-14.1793Q39.5183-12.0585 41.6415-12.0585ZM43.7049-16.305L43.7049-28.886L56.2997-28.886L56.2997-16.305ZM47.4069-19.9932L52.6576-19.9932L52.6576-25.2439L47.4069-25.2439ZM41.6415-37.3054L58.4528-37.3054Q60.53-37.3054 60.53-39.3825L60.53-56.1938Q60.53-58.3333 58.4528-58.3333L41.6415-58.3333Q40.7232-58.3333 40.1207-57.7309Q39.5183-57.1284 39.5183-56.1938L39.5183-39.3825Q39.5183-37.3054 41.6415-37.3054ZM43.7049-41.5332L43.7049-54.1304L56.2997-54.1304L56.2997-41.5332ZM47.4069-45.194L52.6576-45.194L52.6576-50.4447L47.4069-50.4447ZM66.8423-37.3054L83.6512-37.3054Q85.772-37.3054 85.772-39.3825L85.772-56.1938Q85.772-58.3333 83.6512-58.3333L66.8423-58.3333Q65.9676-58.3333 65.3652-57.7309Q64.7627-57.1284 64.7627-56.1938L64.7627-39.3825Q64.7627-37.3054 66.8423-37.3054ZM68.9469-41.5332L68.9469-54.1304L81.5417-54.1304L81.5417-41.5332ZM72.5915-45.194L77.8584-45.194L77.8584-50.4447L72.5915-50.4447ZM65.3421-12.684L70.634-12.684L70.634-17.9097L65.3421-17.9097ZM79.9419-12.684L85.1489-12.684L85.1489-17.9097L79.9419-17.9097ZM72.589-19.9495L77.856-19.9495L77.856-25.2003L72.589-25.2003ZM65.3421-27.2013L70.634-27.2013L70.634-32.5095L65.3421-32.5095ZM79.9419-27.2013L85.1489-27.2013L85.1489-32.5095L79.9419-32.5095Z"/>
  </g>
  <g id="Bold-M" transform="matrix(1 0 0 1 2278.16 1126)">
   <path d="M18.7604-49.3546Q25.0543-49.3546 25.0543-55.7108L25.0543-65.8971Q25.0543-68.9993 26.5989-70.4727Q28.1436-71.9461 31.0806-71.9461L41.4026-71.9461Q47.7588-71.9461 47.7588-78.2456Q47.7588-84.5677 41.4026-84.5677L29.6999-84.5677Q21.3597-84.5677 16.9103-80.1466Q12.4609-75.7254 12.4609-67.419L12.4609-55.7108Q12.4609-49.3546 18.7604-49.3546ZM104.883-49.3546Q111.183-49.3546 111.183-55.7108L111.183-67.419Q111.183-75.7199 106.747-80.1438Q102.312-84.5677 93.9436-84.5677L82.2409-84.5677Q75.8847-84.5677 75.8847-78.2456Q75.8847-71.9461 82.2409-71.9461L92.5629-71.9461Q95.5119-71.9461 97.0505-70.4727Q98.5891-68.9993 98.5891-65.8971L98.5891-55.7108Q98.5891-49.3546 104.883-49.3546ZM29.6999 14.1821L41.4026 14.1821Q47.7588 14.1821 47.7588 7.88816Q47.7588 1.56047 41.4026 1.56047L31.0806 1.56047Q28.1436 1.56047 26.5989 0.0869096Q25.0543-1.38665 25.0543-4.49403L25.0543-14.6466Q25.0543-21.0366 18.7604-21.0366Q12.4609-21.0366 12.4609-14.6466L12.4609-2.9666Q12.4609 5.33977 16.9103 9.76093Q21.3597 14.1821 29.6999 14.1821ZM82.2409 14.1821L93.9436 14.1821Q102.312 14.1821 106.747 9.75817Q111.183 5.33425 111.183-2.9666L111.183-14.6466Q111.183-21.0366 104.883-21.0366Q98.5891-21.0366 98.5891-14.6466L98.5891-4.49403Q98.5891-1.38665 97.0505 0.0869096Q95.5119 1.56047 92.5629 1.56047L82.2409 1.56047Q75.8847 1.56047 75.8847 7.88816Q75.8847 14.1821 82.2409 14.1821ZM40.7076-11.9573L57.5835-11.9573Q59.6788-11.9573 59.6788-14.0812L59.6788-30.9853Q59.6788-33.0861 57.5835-33.0861L40.7076-33.0861Q39.8013-33.0861 39.1898-32.4746Q38.5782-31.8631 38.5782-30.9853L38.5782-14.0812Q38.5782-11.9573 40.7076-11.9573ZM42.7802-16.2161L42.7802-28.8614L55.4483-28.8614L55.4483-16.2161ZM46.5065-19.9197L51.7788-19.9197L51.7788-25.1919L46.5065-25.1919ZM40.7076-37.2995L57.5835-37.2995Q59.6788-37.2995 59.6788-39.3948L59.6788-56.2707Q59.6788-58.4284 57.5835-58.4284L40.7076-58.4284Q39.8013-58.4284 39.1898-57.8168Q38.5782-57.2053 38.5782-56.2707L38.5782-39.3948Q38.5782-37.2995 40.7076-37.2995ZM42.7802-41.5245L42.7802-54.1981L55.4483-54.1981L55.4483-41.5245ZM46.5065-45.2278L51.7788-45.2278L51.7788-50.5001L46.5065-50.5001ZM66.0158-37.2995L82.8862-37.2995Q85.01-37.2995 85.01-39.3948L85.01-56.2707Q85.01-58.4284 82.8862-58.4284L66.0158-58.4284Q65.138-58.4284 64.5265-57.8168Q63.9149-57.2053 63.9149-56.2707L63.9149-39.3948Q63.9149-37.2995 66.0158-37.2995ZM68.1114-41.5245L68.1114-54.1981L80.7795-54.1981L80.7795-41.5245ZM71.7865-45.2278L77.0869-45.2278L77.0869-50.5001L71.7865-50.5001ZM64.5094-12.5858L69.8047-12.5858L69.8047-17.8633L64.5094-17.8633ZM79.1433-12.5858L84.387-12.5858L84.387-17.8633L79.1433-17.8633ZM71.7809-19.8911L77.0814-19.8911L77.0814-25.1633L71.7809-25.1633ZM64.5094-27.1737L69.8047-27.1737L69.8047-32.4972L64.5094-32.4972ZM79.1433-27.1737L84.387-27.1737L84.387-32.4972L79.1433-32.4972Z"/>
  </g>
  <g id="Semibold-M" transform="matrix(1 0 0 1 1982.02 1126)">
   <path d="M17.8979-50.2818Q23.3273-50.2818 23.3273-55.7734L23.3273-66.4642Q23.3273-69.8022 25.0262-71.4465Q26.725-73.0909 29.925-73.0909L40.7907-73.0909Q46.2824-73.0909 46.2824-78.5278Q46.2824-83.9937 40.7907-83.9937L29.0015-83.9937Q20.9244-83.9937 16.6926-79.7985Q12.4609-75.6033 12.4609-67.5703L12.4609-55.7734Q12.4609-50.2818 17.8979-50.2818ZM104.593-50.2818Q110.03-50.2818 110.03-55.7734L110.03-67.5703Q110.03-75.5956 105.817-79.7947Q101.603-83.9937 93.4898-83.9937L81.7006-83.9937Q76.2089-83.9937 76.2089-78.5278Q76.2089-73.0909 81.7006-73.0909L92.5663-73.0909Q95.7615-73.0909 97.4628-71.4465Q99.1641-69.8022 99.1641-66.4642L99.1641-55.7734Q99.1641-50.2818 104.593-50.2818ZM29.0015 13.6123L40.7907 13.6123Q46.2824 13.6123 46.2824 8.18294Q46.2824 2.70946 40.7907 2.70946L29.925 2.70946Q26.725 2.70946 25.0262 1.0743Q23.3273-0.560853 23.3273-3.92482L23.3273-14.5715Q23.3273-20.1073 17.8979-20.1073Q12.4609-20.1073 12.4609-14.5715L12.4609-2.81114Q12.4609 5.22188 16.6926 9.41708Q20.9244 13.6123 29.0015 13.6123ZM81.7006 13.6123L93.4898 13.6123Q101.603 13.6123 105.817 9.41326Q110.03 5.21424 110.03-2.81114L110.03-14.5715Q110.03-20.1073 104.593-20.1073Q99.1641-20.1073 99.1641-14.5715L99.1641-3.92482Q99.1641-0.560853 97.4628 1.0743Q95.7615 2.70946 92.5663 2.70946L81.7006 2.70946Q76.2089 2.70946 76.2089 8.18294Q76.2089 13.6123 81.7006 13.6123ZM40.0638-11.8875L56.9842-11.8875Q59.0921-11.8875 59.0921-14.0135L59.0921-30.9704Q59.0921-33.0859 56.9842-33.0859L40.0638-33.0859Q39.1658-33.0859 38.548-32.4681Q37.9302-31.8503 37.9302-30.9704L37.9302-14.0135Q37.9302-11.8875 40.0638-11.8875ZM42.1428-16.1548L42.1428-28.8444L54.8613-28.8444L54.8613-16.1548ZM45.8858-19.869L51.1729-19.869L51.1729-25.1561L45.8858-25.1561ZM40.0638-37.2955L56.9842-37.2955Q59.0921-37.2955 59.0921-39.4033L59.0921-56.3237Q59.0921-58.4939 56.9842-58.4939L40.0638-58.4939Q39.1658-58.4939 38.548-57.8761Q37.9302-57.2583 37.9302-56.3237L37.9302-39.4033Q37.9302-37.2955 40.0638-37.2955ZM42.1428-41.5186L42.1428-54.2448L54.8613-54.2448L54.8613-41.5186ZM45.8858-45.2511L51.1729-45.2511L51.1729-50.5382L45.8858-50.5382ZM65.446-37.2955L82.3587-37.2955Q84.4847-37.2955 84.4847-39.4033L84.4847-56.3237Q84.4847-58.4939 82.3587-58.4939L65.446-58.4939Q64.5661-58.4939 63.9483-57.8761Q63.3305-57.2583 63.3305-56.3237L63.3305-39.4033Q63.3305-37.2955 65.446-37.2955ZM67.5355-41.5186L67.5355-54.2448L80.254-54.2448L80.254-41.5186ZM71.2315-45.2511L76.5551-45.2511L76.5551-50.5382L71.2315-50.5382ZM63.9354-12.5182L69.233-12.5182L69.233-17.8313L63.9354-17.8313ZM78.5928-12.5182L83.8617-12.5182L83.8617-17.8313L78.5928-17.8313ZM71.2238-19.8508L76.5474-19.8508L76.5474-25.1379L71.2238-25.1379ZM63.9354-27.1546L69.233-27.1546L69.233-32.4887L63.9354-32.4887ZM78.5928-27.1546L83.8617-27.1546L83.8617-32.4887L78.5928-32.4887Z"/>
  </g>
  <g id="Medium-M" transform="matrix(1 0 0 1 1685.75 1126)">
   <path d="M17.244-50.9848Q22.0177-50.9848 22.0177-55.8208L22.0177-66.8942Q22.0177-70.411 23.8336-72.1849Q25.6495-73.9589 29.0488-73.9589L40.3268-73.9589Q45.1629-73.9589 45.1629-78.7419Q45.1629-83.5584 40.3268-83.5584L28.472-83.5584Q20.5942-83.5584 16.5276-79.5345Q12.4609-75.5107 12.4609-67.6849L12.4609-55.8208Q12.4609-50.9848 17.244-50.9848ZM104.374-50.9848Q109.157-50.9848 109.157-55.8208L109.157-67.6849Q109.157-75.5014 105.112-79.5299Q101.066-83.5584 93.1457-83.5584L81.2909-83.5584Q76.4548-83.5584 76.4548-78.7419Q76.4548-73.9589 81.2909-73.9589L92.5689-73.9589Q95.9508-73.9589 97.7754-72.1849Q99.6-70.411 99.6-66.8942L99.6-55.8208Q99.6-50.9848 104.374-50.9848ZM28.472 13.1802L40.3268 13.1802Q45.1629 13.1802 45.1629 8.40646Q45.1629 3.58067 40.3268 3.58067L29.0488 3.58067Q25.6495 3.58067 23.8336 1.82299Q22.0177 0.065304 22.0177-3.49323L22.0177-14.5146Q22.0177-19.4027 17.244-19.4027Q12.4609-19.4027 12.4609-14.5146L12.4609-2.69327Q12.4609 5.13249 16.5276 9.15636Q20.5942 13.1802 28.472 13.1802ZM81.2909 13.1802L93.1457 13.1802Q101.066 13.1802 105.112 9.15173Q109.157 5.12324 109.157-2.69327L109.157-14.5146Q109.157-19.4027 104.374-19.4027Q99.6-19.4027 99.6-14.5146L99.6-3.49323Q99.6 0.065304 97.7754 1.82299Q95.9508 3.58067 92.5689 3.58067L81.2909 3.58067Q76.4548 3.58067 76.4548 8.40646Q76.4548 13.1802 81.2909 13.1802ZM39.5757-11.8346L56.5298-11.8346Q58.6472-11.8346 58.6472-13.9622L58.6472-30.9592Q58.6472-33.0858 56.5298-33.0858L39.5757-33.0858Q38.6839-33.0858 38.0613-32.4632Q37.4388-31.8407 37.4388-30.9592L37.4388-13.9622Q37.4388-11.8346 39.5757-11.8346ZM41.6595-16.1083L41.6595-28.8316L54.4162-28.8316L54.4162-16.1083ZM45.4152-19.8306L50.7135-19.8306L50.7135-25.1289L45.4152-25.1289ZM39.5757-37.2924L56.5298-37.2924Q58.6472-37.2924 58.6472-39.4097L58.6472-56.3639Q58.6472-58.5436 56.5298-58.5436L39.5757-58.5436Q38.6839-58.5436 38.0613-57.921Q37.4388-57.2985 37.4388-56.3639L37.4388-39.4097Q37.4388-37.2924 39.5757-37.2924ZM41.6595-41.5141L41.6595-54.2801L54.4162-54.2801L54.4162-41.5141ZM45.4152-45.2688L50.7135-45.2688L50.7135-50.5672L45.4152-50.5672ZM65.0139-37.2924L81.9588-37.2924Q84.0865-37.2924 84.0865-39.4097L84.0865-56.3639Q84.0865-58.5436 81.9588-58.5436L65.0139-58.5436Q64.1324-58.5436 63.5099-57.921Q62.8873-57.2985 62.8873-56.3639L62.8873-39.4097Q62.8873-37.2924 65.0139-37.2924ZM67.0987-41.5141L67.0987-54.2801L79.8555-54.2801L79.8555-41.5141ZM70.8107-45.2688L76.1518-45.2688L76.1518-50.5672L70.8107-50.5672ZM63.5001-12.4669L68.7995-12.4669L68.7995-17.807L63.5001-17.807ZM78.1754-12.4669L83.4634-12.4669L83.4634-17.807L78.1754-17.807ZM70.8014-19.8203L76.1426-19.8203L76.1426-25.1186L70.8014-25.1186ZM63.5001-27.1401L68.7995-27.1401L68.7995-32.4822L63.5001-32.4822ZM78.1754-27.1401L83.4634-27.1401L83.4634-32.4822L78.1754-32.4822Z"/>
  </g>
  <g id="Regular-M" transform="matrix(1 0 0 1 1389.61 1126)">
   <path d="M16.391-51.9018Q20.3096-51.9018 20.3096-55.8827L20.3096-67.4551Q20.3096-71.2051 22.2781-73.148Q24.2465-75.091 27.906-75.091L39.7217-75.091Q43.7027-75.091 43.7027-79.021Q43.7027-82.9907 39.7217-82.9907L27.7814-82.9907Q20.1637-82.9907 16.3123-79.1903Q12.4609-75.3899 12.4609-67.8345L12.4609-55.8827Q12.4609-51.9018 16.391-51.9018ZM104.087-51.9018Q108.017-51.9018 108.017-55.8827L108.017-67.8345Q108.017-75.3785 104.191-79.1846Q100.366-82.9907 92.6969-82.9907L80.7565-82.9907Q76.7755-82.9907 76.7755-79.021Q76.7755-75.091 80.7565-75.091L92.5723-75.091Q96.1977-75.091 98.1832-73.148Q100.169-71.2051 100.169-67.4551L100.169-55.8827Q100.169-51.9018 104.087-51.9018ZM27.7814 12.6167L39.7217 12.6167Q43.7027 12.6167 43.7027 8.69801Q43.7027 4.71703 39.7217 4.71703L27.906 4.71703Q24.2465 4.71703 22.2781 2.79953Q20.3096 0.88203 20.3096-2.93028L20.3096-14.4403Q20.3096-18.4836 16.391-18.4836Q12.4609-18.4836 12.4609-14.4403L12.4609-2.53953Q12.4609 5.01589 16.3123 8.81628Q20.1637 12.6167 27.7814 12.6167ZM80.7565 12.6167L92.6969 12.6167Q100.366 12.6167 104.191 8.81061Q108.017 5.00454 108.017-2.53953L108.017-14.4403Q108.017-18.4836 104.087-18.4836Q100.169-18.4836 100.169-14.4403L100.169-2.93028Q100.169 0.88203 98.1832 2.79953Q96.1977 4.71703 92.5723 4.71703L80.7565 4.71703Q76.7755 4.71703 76.7755 8.69801Q76.7755 12.6167 80.7565 12.6167ZM38.9389-11.7656L55.9371-11.7656Q58.0668-11.7656 58.0668-13.8953L58.0668-30.9445Q58.0668-33.0856 55.9371-33.0856L38.9389-33.0856Q38.0553-33.0856 37.4266-32.4568Q36.7979-31.8281 36.7979-30.9445L36.7979-13.8953Q36.7979-11.7656 38.9389-11.7656ZM41.029-16.0477L41.029-28.8148L53.8357-28.8148L53.8357-16.0477ZM44.8013-19.7804L50.1143-19.7804L50.1143-25.0934L44.8013-25.0934ZM38.9389-37.2884L55.9371-37.2884Q58.0668-37.2884 58.0668-39.4181L58.0668-56.4163Q58.0668-58.6084 55.9371-58.6084L38.9389-58.6084Q38.0553-58.6084 37.4266-57.9796Q36.7979-57.3509 36.7979-56.4163L36.7979-39.4181Q36.7979-37.2884 38.9389-37.2884ZM41.029-41.5082L41.029-54.3263L53.8357-54.3263L53.8357-41.5082ZM44.8013-45.2919L50.1143-45.2919L50.1143-50.6049L44.8013-50.6049ZM64.4504-37.2884L81.4372-37.2884Q83.5669-37.2884 83.5669-39.4181L83.5669-56.4163Q83.5669-58.6084 81.4372-58.6084L64.4504-58.6084Q63.5668-58.6084 62.938-57.9796Q62.3093-57.3509 62.3093-56.4163L62.3093-39.4181Q62.3093-37.2884 64.4504-37.2884ZM66.5291-41.5082L66.5291-54.3263L79.3358-54.3263L79.3358-41.5082ZM70.2618-45.2919L75.6258-45.2919L75.6258-50.6049L70.2618-50.6049ZM62.9324-12.4L68.234-12.4L68.234-17.7753L62.9324-17.7753ZM77.6309-12.4L82.9439-12.4L82.9439-17.7753L77.6309-17.7753ZM70.2505-19.7804L75.6144-19.7804L75.6144-25.0934L70.2505-25.0934ZM62.9324-27.1212L68.234-27.1212L68.234-32.4739L62.9324-32.4739ZM77.6309-27.1212L82.9439-27.1212L82.9439-32.4739L77.6309-32.4739Z"/>
  </g>
  <g id="Light-M" transform="matrix(1 0 0 1 1093.97 1126)">
   <path d="M15.4894-52.0122Q18.4881-52.0122 18.4881-55.0732L18.4881-67.3263Q18.4881-71.4994 20.6682-73.6632Q22.8482-75.827 26.986-75.827L39.3722-75.827Q42.4332-75.827 42.4332-78.8554Q42.4332-81.8867 39.3722-81.8867L26.8614-81.8867Q19.7221-81.8867 16.0915-78.2887Q12.4609-74.6907 12.4609-67.6137L12.4609-55.0732Q12.4609-52.0122 15.4894-52.0122ZM102.836-52.0122Q105.865-52.0122 105.865-55.0732L105.865-67.6137Q105.865-74.661 102.25-78.2738Q98.6361-81.8867 91.4642-81.8867L78.9534-81.8867Q75.8924-81.8867 75.8924-78.8554Q75.8924-75.827 78.9534-75.827L91.3396-75.827Q95.3881-75.827 97.6128-73.6632Q99.8375-71.4994 99.8375-67.3263L99.8375-55.0732Q99.8375-52.0122 102.836-52.0122ZM26.8614 11.5495L39.3722 11.5495Q42.4332 11.5495 42.4332 8.55082Q42.4332 5.48979 39.3722 5.48979L26.986 5.48979Q22.8482 5.48979 20.6682 3.3423Q18.4881 1.19481 18.4881-3.04067L18.4881-15.2314Q18.4881-18.3548 15.4894-18.3548Q12.4609-18.3548 12.4609-15.2314L12.4609-2.72352Q12.4609 4.35352 16.0915 7.95153Q19.7221 11.5495 26.8614 11.5495ZM78.9534 11.5495L91.4642 11.5495Q98.6361 11.5495 102.25 7.93666Q105.865 4.32378 105.865-2.72352L105.865-15.2314Q105.865-18.3548 102.836-18.3548Q99.8375-18.3548 99.8375-15.2314L99.8375-3.04067Q99.8375 1.19481 97.6128 3.3423Q95.3881 5.48979 91.3396 5.48979L78.9534 5.48979Q75.8924 5.48979 75.8924 8.55082Q75.8924 11.5495 78.9534 11.5495ZM37.3198-11.2505L54.7044-11.2505Q56.8525-11.2505 56.8525-13.3986L56.8525-30.8157Q56.8525-32.9936 54.7044-32.9936L37.3198-32.9936Q36.4178-32.9936 35.7799-32.3556Q35.142-31.7177 35.142-30.8157L35.142-13.3986Q35.142-11.2505 37.3198-11.2505ZM39.4651-15.6062L39.4651-28.6676L52.5294-28.6676L52.5294-15.6062ZM43.2926-19.4309L48.7344-19.4309L48.7344-24.8727L43.2926-24.8727ZM37.3198-37.3436L54.7044-37.3436Q56.8525-37.3436 56.8525-39.4917L56.8525-56.8763Q56.8525-59.0867 54.7044-59.0867L37.3198-59.0867Q36.4178-59.0867 35.7799-58.4488Q35.142-57.8109 35.142-56.8763L35.142-39.4917Q35.142-37.3436 37.3198-37.3436ZM39.4651-41.637L39.4651-54.731L52.5294-54.731L52.5294-41.637ZM43.2926-45.4943L48.7344-45.4943L48.7344-50.9361L43.2926-50.9361ZM63.3832-37.3436L80.7381-37.3436Q82.8862-37.3436 82.8862-39.4917L82.8862-56.8763Q82.8862-59.0867 80.7381-59.0867L63.3832-59.0867Q62.4812-59.0867 61.8433-58.4488Q61.2054-57.8109 61.2054-56.8763L61.2054-39.4917Q61.2054-37.3436 63.3832-37.3436ZM65.4988-41.637L65.4988-54.731L78.563-54.731L78.563-41.637ZM69.3235-45.4943L74.7978-45.4943L74.7978-50.9361L69.3235-50.9361ZM61.8284-11.9033L67.2405-11.9033L67.2405-17.4074L61.8284-17.4074ZM76.8213-11.9033L82.2631-11.9033L82.2631-17.4074L76.8213-17.4074ZM69.2937-19.4309L74.7681-19.4309L74.7681-24.8727L69.2937-24.8727ZM61.8284-26.9556L67.2405-26.9556L67.2405-32.4003L61.8284-32.4003ZM76.8213-26.9556L82.2631-26.9556L82.2631-32.4003L76.8213-32.4003Z"/>
  </g>
  <g id="Thin-M" transform="matrix(1 0 0 1 798.688 1126)">
   <path d="M14.297-52.1582Q16.079-52.1582 16.079-54.0025L16.079-67.1559Q16.079-71.8888 18.5389-74.3446Q20.9988-76.8003 25.7693-76.8003L38.9098-76.8003Q40.7541-76.8003 40.7541-78.6364Q40.7541-80.4267 38.9098-80.4267L25.6447-80.4267Q19.1381-80.4267 15.7995-77.0963Q12.4609-73.766 12.4609-67.3217L12.4609-54.0025Q12.4609-52.1582 14.297-52.1582ZM101.181-52.1582Q103.018-52.1582 103.018-54.0025L103.018-67.3217Q103.018-73.7119 99.6831-77.0693Q96.3487-80.4267 89.8338-80.4267L76.5687-80.4267Q74.7244-80.4267 74.7244-78.6364Q74.7244-76.8003 76.5687-76.8003L89.7092-76.8003Q94.3174-76.8003 96.8584-74.3446Q99.3994-71.8888 99.3994-67.1559L99.3994-54.0025Q99.3994-52.1582 101.181-52.1582ZM25.6447 10.1382L38.9098 10.1382Q40.7541 10.1382 40.7541 8.35614Q40.7541 6.51182 38.9098 6.51182L25.7693 6.51182Q20.9988 6.51182 18.5389 4.06016Q16.079 1.60849 16.079-3.18668L16.079-16.2778Q16.079-18.1844 14.297-18.1844Q12.4609-18.1844 12.4609-16.2778L12.4609-2.96686Q12.4609 3.47749 15.7995 6.80782Q19.1381 10.1382 25.6447 10.1382ZM76.5687 10.1382L89.8338 10.1382Q96.3487 10.1382 99.6831 6.78078Q103.018 3.42341 103.018-2.96686L103.018-16.2778Q103.018-18.1844 101.181-18.1844Q99.3994-18.1844 99.3994-16.2778L99.3994-3.18668Q99.3994 1.60849 96.8584 4.06016Q94.3174 6.51182 89.7092 6.51182L76.5687 6.51182Q74.7244 6.51182 74.7244 8.35614Q74.7244 10.1382 76.5687 10.1382ZM35.1784-10.5691L53.074-10.5691Q55.2464-10.5691 55.2464-12.7415L55.2464-30.6454Q55.2464-32.8719 53.074-32.8719L35.1784-32.8719Q34.2521-32.8719 33.602-32.2218Q32.9519-31.5717 32.9519-30.6454L32.9519-12.7415Q32.9519-10.5691 35.1784-10.5691ZM37.3967-15.0221L37.3967-28.4729L50.8016-28.4729L50.8016-15.0221ZM41.2972-18.9685L46.9093-18.9685L46.9093-24.5806L41.2972-24.5806ZM35.1784-37.4166L53.074-37.4166Q55.2464-37.4166 55.2464-39.5891L55.2464-57.4847Q55.2464-59.7194 53.074-59.7194L35.1784-59.7194Q34.2521-59.7194 33.602-59.0693Q32.9519-58.4192 32.9519-57.4847L32.9519-39.5891Q32.9519-37.4166 35.1784-37.4166ZM37.3967-41.8074L37.3967-55.2664L50.8016-55.2664L50.8016-41.8074ZM41.2972-45.762L46.9093-45.762L46.9093-51.3741L41.2972-51.3741ZM61.9718-37.4166L79.8134-37.4166Q81.9858-37.4166 81.9858-39.5891L81.9858-57.4847Q81.9858-59.7194 79.8134-59.7194L61.9718-59.7194Q61.0455-59.7194 60.3954-59.0693Q59.7453-58.4192 59.7453-57.4847L59.7453-39.5891Q59.7453-37.4166 61.9718-37.4166ZM64.1361-41.8074L64.1361-55.2664L77.541-55.2664L77.541-41.8074ZM68.0824-45.762L73.7028-45.762L73.7028-51.3741L68.0824-51.3741ZM60.3684-11.2462L65.9264-11.2462L65.9264-16.9207L60.3684-16.9207ZM75.7506-11.2462L81.3628-11.2462L81.3628-16.9207L75.7506-16.9207ZM68.0283-18.9685L73.6487-18.9685L73.6487-24.5806L68.0283-24.5806ZM60.3684-26.7366L65.9264-26.7366L65.9264-32.3029L60.3684-32.3029ZM75.7506-26.7366L81.3628-26.7366L81.3628-32.3029L75.7506-32.3029Z"/>
  </g>
  <g id="Ultralight-M" transform="matrix(1 0 0 1 502.707 1126)">
   <path d="M13.6863-52.2329Q14.8451-52.2329 14.8451-53.4541L14.8451-67.0687Q14.8451-72.0882 17.4483-74.6936Q20.0516-77.2989 25.1461-77.2989L38.673-77.2989Q39.8941-77.2989 39.8941-78.5243Q39.8941-79.6788 38.673-79.6788L25.0215-79.6788Q18.8389-79.6788 15.6499-76.4856Q12.4609-73.2924 12.4609-67.1721L12.4609-53.4541Q12.4609-52.2329 13.6863-52.2329ZM100.334-52.2329Q101.559-52.2329 101.559-53.4541L101.559-67.1721Q101.559-73.2258 98.3682-76.4523Q95.1771-79.6788 88.9987-79.6788L75.3472-79.6788Q74.1261-79.6788 74.1261-78.5243Q74.1261-77.2989 75.3472-77.2989L88.8741-77.2989Q93.769-77.2989 96.4721-74.6936Q99.1751-72.0882 99.1751-67.0687L99.1751-53.4541Q99.1751-52.2329 100.334-52.2329ZM25.0215 9.41525L38.673 9.41525Q39.8941 9.41525 39.8941 8.25643Q39.8941 7.0353 38.673 7.0353L25.1461 7.0353Q20.0516 7.0353 17.4483 4.42784Q14.8451 1.82038 14.8451-3.26146L14.8451-16.8138Q14.8451-18.0972 13.6863-18.0972Q12.4609-18.0972 12.4609-16.8138L12.4609-3.0915Q12.4609 3.02879 15.6499 6.22202Q18.8389 9.41525 25.0215 9.41525ZM75.3472 9.41525L88.9987 9.41525Q95.1771 9.41525 98.3682 6.18875Q101.559 2.96225 101.559-3.0915L101.559-16.8138Q101.559-18.0972 100.334-18.0972Q99.1751-18.0972 99.1751-16.8138L99.1751-3.26146Q99.1751 1.82038 96.4721 4.42784Q93.769 7.0353 88.8741 7.0353L75.3472 7.0353Q74.1261 7.0353 74.1261 8.25643Q74.1261 9.41525 75.3472 9.41525ZM34.0816-10.2201L52.2389-10.2201Q54.4238-10.2201 54.4238-12.405L54.4238-30.5581Q54.4238-32.8096 52.2389-32.8096L34.0816-32.8096Q33.1428-32.8096 32.4865-32.1533Q31.8301-31.4969 31.8301-30.5581L31.8301-12.405Q31.8301-10.2201 34.0816-10.2201ZM36.3373-14.723L36.3373-28.3732L49.9167-28.3732L49.9167-14.723ZM40.2752-18.7317L45.9746-18.7317L45.9746-24.4311L40.2752-24.4311ZM34.0816-37.454L52.2389-37.454Q54.4238-37.454 54.4238-39.6389L54.4238-57.7963Q54.4238-60.0435 52.2389-60.0435L34.0816-60.0435Q33.1428-60.0435 32.4865-59.3872Q31.8301-58.7308 31.8301-57.7963L31.8301-39.6389Q31.8301-37.454 34.0816-37.454ZM36.3373-41.8946L36.3373-55.5406L49.9167-55.5406L49.9167-41.8946ZM40.2752-45.8991L45.9746-45.8991L45.9746-51.5984L40.2752-51.5984ZM61.2489-37.454L79.3398-37.454Q81.5247-37.454 81.5247-39.6389L81.5247-57.7963Q81.5247-60.0435 79.3398-60.0435L61.2489-60.0435Q60.3101-60.0435 59.6538-59.3872Q58.9975-58.7308 58.9975-57.7963L58.9975-39.6389Q58.9975-37.454 61.2489-37.454ZM63.4381-41.8946L63.4381-55.5406L77.0175-55.5406L77.0175-41.8946ZM67.4468-45.8991L73.1419-45.8991L73.1419-51.5984L67.4468-51.5984ZM59.6205-10.9097L65.2534-10.9097L65.2534-16.6714L59.6205-16.6714ZM75.2022-10.9097L80.9016-10.9097L80.9016-16.6714L75.2022-16.6714ZM67.3802-18.7317L73.0754-18.7317L73.0754-24.4311L67.3802-24.4311ZM59.6205-26.6245L65.2534-26.6245L65.2534-32.2531L59.6205-32.2531ZM75.2022-26.6245L80.9016-26.6245L80.9016-32.2531L75.2022-32.2531Z"/>
  </g>
  <g id="Black-S" transform="matrix(1 0 0 1 2883.55 696)">
   <path d="M16.8457-43.9453Q23.9258-43.9453 23.9258-51.0742L23.9258-57.8125Q23.9258-59.668 24.7559-60.4004Q25.5859-61.1328 27.2461-61.1328L33.9844-61.1328Q41.1133-61.1328 41.1133-68.2129Q41.1133-75.293 33.9844-75.293L25-75.293Q17.8223-75.293 13.7939-71.2646Q9.76562-67.2363 9.76562-60.0586L9.76562-51.0742Q9.76562-43.9453 16.8457-43.9453ZM82.8613-43.9453Q89.9414-43.9453 89.9414-51.0742L89.9414-60.0586Q89.9414-67.2363 85.9131-71.2646Q81.8848-75.293 74.707-75.293L65.7227-75.293Q58.5938-75.293 58.5938-68.2129Q58.5938-61.1328 65.7227-61.1328L72.4609-61.1328Q74.1699-61.1328 74.9756-60.4004Q75.7812-59.668 75.7812-57.8125L75.7812-51.0742Q75.7812-43.9453 82.8613-43.9453ZM25 4.88281L33.9844 4.88281Q41.1133 4.88281 41.1133-2.19727Q41.1133-9.27734 33.9844-9.27734L27.2461-9.27734Q25.5859-9.27734 24.7559-10.0342Q23.9258-10.791 23.9258-12.5977L23.9258-19.3359Q23.9258-26.4648 16.8457-26.4648Q9.76562-26.4648 9.76562-19.3359L9.76562-10.3516Q9.76562-3.17383 13.7939 0.854492Q17.8223 4.88281 25 4.88281ZM65.7227 4.88281L74.707 4.88281Q81.8848 4.88281 85.9131 0.854492Q89.9414-3.17383 89.9414-10.3516L89.9414-19.3359Q89.9414-26.4648 82.8613-26.4648Q75.7812-26.4648 75.7812-19.3359L75.7812-12.5977Q75.7812-10.791 74.9756-10.0342Q74.1699-9.27734 72.4609-9.27734L65.7227-9.27734Q58.5938-9.27734 58.5938-2.19727Q58.5938 4.88281 65.7227 4.88281ZM33.4473-17.1387L46.582-17.1387Q48.1934-17.1387 48.1934-18.7988L48.1934-31.9336Q48.1934-33.5449 46.582-33.5449L33.4473-33.5449Q32.7148-33.5449 32.251-33.0811Q31.7871-32.6172 31.7871-31.9336L31.7871-18.7988Q31.7871-17.1387 33.4473-17.1387ZM35.0586-20.459L35.0586-30.2734L44.873-30.2734L44.873-20.459ZM37.9395-23.3398L42.041-23.3398L42.041-27.4414L37.9395-27.4414ZM33.4473-36.8652L46.582-36.8652Q48.1934-36.8652 48.1934-38.4766L48.1934-51.6113Q48.1934-53.2715 46.582-53.2715L33.4473-53.2715Q32.7148-53.2715 32.251-52.8076Q31.7871-52.3438 31.7871-51.6113L31.7871-38.4766Q31.7871-36.8652 33.4473-36.8652ZM35.0586-40.1855L35.0586-50L44.873-50L44.873-40.1855ZM37.9395-43.0176L42.041-43.0176L42.041-47.1191L37.9395-47.1191ZM53.125-36.8652L66.2598-36.8652Q67.9199-36.8652 67.9199-38.4766L67.9199-51.6113Q67.9199-53.2715 66.2598-53.2715L53.125-53.2715Q52.4414-53.2715 51.9775-52.8076Q51.5137-52.3438 51.5137-51.6113L51.5137-38.4766Q51.5137-36.8652 53.125-36.8652ZM54.7852-40.1855L54.7852-50L64.5996-50L64.5996-40.1855ZM57.6172-43.0176L61.7188-43.0176L61.7188-47.1191L57.6172-47.1191ZM51.9531-17.627L56.1035-17.627L56.1035-21.6797L51.9531-21.6797ZM63.3789-17.627L67.4316-17.627L67.4316-21.6797L63.3789-21.6797ZM57.6172-23.291L61.7188-23.291L61.7188-27.3926L57.6172-27.3926ZM51.9531-28.9551L56.1035-28.9551L56.1035-33.1055L51.9531-33.1055ZM63.3789-28.9551L67.4316-28.9551L67.4316-33.1055L63.3789-33.1055Z"/>
  </g>
  <g id="Heavy-S" transform="matrix(1 0 0 1 2587.34 696)">
   <path d="M16.0044-44.9595Q22.2432-44.9595 22.2432-51.2471L22.2432-58.4579Q22.2432-60.5208 23.2173-61.4145Q24.1915-62.3083 26.0821-62.3083L33.3505-62.3083Q39.6381-62.3083 39.6381-68.5471Q39.6381-74.7974 33.3505-74.7974L24.3431-74.7974Q17.3959-74.7974 13.5807-70.9938Q9.76562-67.1902 9.76562-60.2545L9.76562-51.2471Q9.76562-44.9595 16.0044-44.9595ZM82.7-44.9595Q88.9388-44.9595 88.9388-51.2471L88.9388-60.2545Q88.9388-67.1902 85.1294-70.9938Q81.3201-74.7974 74.3613-74.7974L65.3539-74.7974Q59.0663-74.7974 59.0663-68.5471Q59.0663-62.3083 65.3539-62.3083L72.6223-62.3083Q74.5502-62.3083 75.5057-61.4145Q76.4612-60.5208 76.4612-58.4579L76.4612-51.2471Q76.4612-44.9595 82.7-44.9595ZM24.3431 4.38726L33.3505 4.38726Q39.6381 4.38726 39.6381-1.85153Q39.6381-8.10185 33.3505-8.10185L26.0821-8.10185Q24.1915-8.10185 23.2173-9.0085Q22.2432-9.91516 22.2432-11.9523L22.2432-19.1515Q22.2432-25.4507 16.0044-25.4507Q9.76562-25.4507 9.76562-19.1515L9.76562-10.1556Q9.76562-3.21993 13.5807 0.583667Q17.3959 4.38726 24.3431 4.38726ZM65.3539 4.38726L74.3613 4.38726Q81.3201 4.38726 85.1294 0.583667Q88.9388-3.21993 88.9388-10.1556L88.9388-19.1515Q88.9388-25.4507 82.7-25.4507Q76.4612-25.4507 76.4612-19.1515L76.4612-11.9523Q76.4612-9.91516 75.5057-9.0085Q74.5502-8.10185 72.6223-8.10185L65.3539-8.10185Q59.0663-8.10185 59.0663-1.85153Q59.0663 4.38726 65.3539 4.38726ZM32.9402-17.1271L46.075-17.1271Q47.6978-17.1271 47.6978-18.7873L47.6978-31.9336Q47.6978-33.5564 46.075-33.5564L32.9402-33.5564Q32.2193-33.5564 31.7497-33.0868Q31.28-32.6172 31.28-31.9336L31.28-18.7873Q31.28-17.1271 32.9402-17.1271ZM34.5515-20.4475L34.5515-30.2734L44.389-30.2734L44.389-20.4475ZM37.4439-23.3283L41.5455-23.3283L41.5455-27.4299L37.4439-27.4299ZM32.9402-36.8537L46.075-36.8537Q47.6978-36.8537 47.6978-38.4766L47.6978-51.6113Q47.6978-53.283 46.075-53.283L32.9402-53.283Q32.2193-53.283 31.7497-52.8134Q31.28-52.3438 31.28-51.6113L31.28-38.4766Q31.28-36.8537 32.9402-36.8537ZM34.5515-40.1625L34.5515-50L44.389-50L44.389-40.1625ZM37.4439-43.0176L41.5455-43.0176L41.5455-47.1191L37.4439-47.1191ZM52.6294-36.8537L65.7642-36.8537Q67.4244-36.8537 67.4244-38.4766L67.4244-51.6113Q67.4244-53.283 65.7642-53.283L52.6294-53.283Q51.9459-53.283 51.4762-52.8134Q51.0066-52.3438 51.0066-51.6113L51.0066-38.4766Q51.0066-36.8537 52.6294-36.8537ZM54.2781-40.1625L54.2781-50L64.1156-50L64.1156-40.1625ZM57.1216-43.0176L61.2347-43.0176L61.2347-47.1191L57.1216-47.1191ZM51.4576-17.6154L55.5964-17.6154L55.5964-21.6912L51.4576-21.6912ZM62.8718-17.6154L66.9361-17.6154L66.9361-21.6912L62.8718-21.6912ZM57.1216-23.291L61.2347-23.291L61.2347-27.3926L57.1216-27.3926ZM51.4576-28.9551L55.5964-28.9551L55.5964-33.1055L51.4576-33.1055ZM62.8718-28.9551L66.9361-28.9551L66.9361-33.1055L62.8718-33.1055Z"/>
  </g>
  <g id="Bold-S" transform="matrix(1 0 0 1 2291.19 696)">
   <path d="M15.0635-46.0938Q20.3613-46.0938 20.3613-51.4404L20.3613-59.1797Q20.3613-61.4746 21.4966-62.5488Q22.6318-63.623 24.7803-63.623L32.6416-63.623Q37.9883-63.623 37.9883-68.9209Q37.9883-74.2432 32.6416-74.2432L23.6084-74.2432Q16.9189-74.2432 13.3423-70.6909Q9.76562-67.1387 9.76562-60.4736L9.76562-51.4404Q9.76562-46.0938 15.0635-46.0938ZM82.5195-46.0938Q87.8174-46.0938 87.8174-51.4404L87.8174-60.4736Q87.8174-67.1387 84.2529-70.6909Q80.6885-74.2432 73.9746-74.2432L64.9414-74.2432Q59.5947-74.2432 59.5947-68.9209Q59.5947-63.623 64.9414-63.623L72.8027-63.623Q74.9756-63.623 76.0986-62.5488Q77.2217-61.4746 77.2217-59.1797L77.2217-51.4404Q77.2217-46.0938 82.5195-46.0938ZM23.6084 3.83301L32.6416 3.83301Q37.9883 3.83301 37.9883-1.46484Q37.9883-6.78711 32.6416-6.78711L24.7803-6.78711Q22.6318-6.78711 21.4966-7.86133Q20.3613-8.93555 20.3613-11.2305L20.3613-18.9453Q20.3613-24.3164 15.0635-24.3164Q9.76562-24.3164 9.76562-18.9453L9.76562-9.93652Q9.76562-3.27148 13.3423 0.280762Q16.9189 3.83301 23.6084 3.83301ZM64.9414 3.83301L73.9746 3.83301Q80.6885 3.83301 84.2529 0.280762Q87.8174-3.27148 87.8174-9.93652L87.8174-18.9453Q87.8174-24.3164 82.5195-24.3164Q77.2217-24.3164 77.2217-18.9453L77.2217-11.2305Q77.2217-8.93555 76.0986-7.86133Q74.9756-6.78711 72.8027-6.78711L64.9414-6.78711Q59.5947-6.78711 59.5947-1.46484Q59.5947 3.83301 64.9414 3.83301ZM32.373-17.1143L45.5078-17.1143Q47.1436-17.1143 47.1436-18.7744L47.1436-31.9336Q47.1436-33.5693 45.5078-33.5693L32.373-33.5693Q31.665-33.5693 31.189-33.0933Q30.7129-32.6172 30.7129-31.9336L30.7129-18.7744Q30.7129-17.1143 32.373-17.1143ZM33.9844-20.4346L33.9844-30.2734L43.8477-30.2734L43.8477-20.4346ZM36.8896-23.3154L40.9912-23.3154L40.9912-27.417L36.8896-27.417ZM32.373-36.8408L45.5078-36.8408Q47.1436-36.8408 47.1436-38.4766L47.1436-51.6113Q47.1436-53.2959 45.5078-53.2959L32.373-53.2959Q31.665-53.2959 31.189-52.8198Q30.7129-52.3438 30.7129-51.6113L30.7129-38.4766Q30.7129-36.8408 32.373-36.8408ZM33.9844-40.1367L33.9844-50L43.8477-50L43.8477-40.1367ZM36.8896-43.0176L40.9912-43.0176L40.9912-47.1191L36.8896-47.1191ZM52.0752-36.8408L65.21-36.8408Q66.8701-36.8408 66.8701-38.4766L66.8701-51.6113Q66.8701-53.2959 65.21-53.2959L52.0752-53.2959Q51.3916-53.2959 50.9155-52.8198Q50.4395-52.3438 50.4395-51.6113L50.4395-38.4766Q50.4395-36.8408 52.0752-36.8408ZM53.7109-40.1367L53.7109-50L63.5742-50L63.5742-40.1367ZM56.5674-43.0176L60.6934-43.0176L60.6934-47.1191L56.5674-47.1191ZM50.9033-17.6025L55.0293-17.6025L55.0293-21.7041L50.9033-21.7041ZM62.3047-17.6025L66.3818-17.6025L66.3818-21.7041L62.3047-21.7041ZM56.5674-23.291L60.6934-23.291L60.6934-27.3926L56.5674-27.3926ZM50.9033-28.9551L55.0293-28.9551L55.0293-33.1055L50.9033-33.1055ZM62.3047-28.9551L66.3818-28.9551L66.3818-33.1055L62.3047-33.1055Z"/>
  </g>
  <g id="Semibold-S" transform="matrix(1 0 0 1 1994.86 696)">
   <path d="M14.4147-46.8758Q19.0639-46.8758 19.0639-51.5737L19.0639-59.6773Q19.0639-62.1322 20.3102-63.3309Q21.5565-64.5295 23.8827-64.5295L32.1528-64.5295Q36.8508-64.5295 36.8508-69.1786Q36.8508-73.861 32.1528-73.861L23.1019-73.861Q16.5901-73.861 13.1779-70.4821Q9.76562-67.1031 9.76562-60.6247L9.76562-51.5737Q9.76562-46.8758 14.4147-46.8758ZM82.3951-46.8758Q87.0442-46.8758 87.0442-51.5737L87.0442-60.6247Q87.0442-67.1031 83.6486-70.4821Q80.253-73.861 73.708-73.861L64.657-73.861Q59.9591-73.861 59.9591-69.1786Q59.9591-64.5295 64.657-64.5295L72.9271-64.5295Q75.2688-64.5295 76.5074-63.3309Q77.746-62.1322 77.746-59.6773L77.746-51.5737Q77.746-46.8758 82.3951-46.8758ZM23.1019 3.45088L32.1528 3.45088Q36.8508 3.45088 36.8508-1.19824Q36.8508-5.88066 32.1528-5.88066L23.8827-5.88066Q21.5565-5.88066 20.3102-7.07041Q19.0639-8.26016 19.0639-10.7328L19.0639-18.8031Q19.0639-23.5344 14.4147-23.5344Q9.76562-23.5344 9.76562-18.8031L9.76562-9.78545Q9.76562-3.30703 13.1779 0.0719238Q16.5901 3.45088 23.1019 3.45088ZM64.657 3.45088L73.708 3.45088Q80.253 3.45088 83.6486 0.0719238Q87.0442-3.30703 87.0442-9.78545L87.0442-18.8031Q87.0442-23.5344 82.3951-23.5344Q77.746-23.5344 77.746-18.8031L77.746-10.7328Q77.746-8.26016 76.5074-7.07041Q75.2688-5.88066 72.9271-5.88066L64.657-5.88066Q59.9591-5.88066 59.9591-1.19824Q59.9591 3.45088 64.657 3.45088ZM31.982-17.1054L45.1168-17.1054Q46.7614-17.1054 46.7614-18.7655L46.7614-31.9336Q46.7614-33.5782 45.1168-33.5782L31.982-33.5782Q31.2829-33.5782 30.8024-33.0977Q30.3219-32.6172 30.3219-31.9336L30.3219-18.7655Q30.3219-17.1054 31.982-17.1054ZM33.5934-20.4257L33.5934-30.2734L43.4744-30.2734L43.4744-20.4257ZM36.5075-23.3065L40.6091-23.3065L40.6091-27.4081L36.5075-27.4081ZM31.982-36.8319L45.1168-36.8319Q46.7614-36.8319 46.7614-38.4766L46.7614-51.6113Q46.7614-53.3048 45.1168-53.3048L31.982-53.3048Q31.2829-53.3048 30.8024-52.8243Q30.3219-52.3438 30.3219-51.6113L30.3219-38.4766Q30.3219-36.8319 31.982-36.8319ZM33.5934-40.1189L33.5934-50L43.4744-50L43.4744-40.1189ZM36.5075-43.0176L40.6091-43.0176L40.6091-47.1191L36.5075-47.1191ZM51.6931-36.8319L64.8278-36.8319Q66.488-36.8319 66.488-38.4766L66.488-51.6113Q66.488-53.3048 64.8278-53.3048L51.6931-53.3048Q51.0095-53.3048 50.529-52.8243Q50.0484-52.3438 50.0484-51.6113L50.0484-38.4766Q50.0484-36.8319 51.6931-36.8319ZM53.3199-40.1189L53.3199-50L63.201-50L63.201-40.1189ZM56.1853-43.0176L60.3201-43.0176L60.3201-47.1191L56.1853-47.1191ZM50.5212-17.5937L54.6383-17.5937L54.6383-21.713L50.5212-21.713ZM61.9137-17.5937L65.9997-17.5937L65.9997-21.713L61.9137-21.713ZM56.1853-23.291L60.3201-23.291L60.3201-27.3926L56.1853-27.3926ZM50.5212-28.9551L54.6383-28.9551L54.6383-33.1055L50.5212-33.1055ZM61.9137-28.9551L65.9997-28.9551L65.9997-33.1055L61.9137-33.1055Z"/>
  </g>
  <g id="Medium-S" transform="matrix(1 0 0 1 1698.44 696)">
   <path d="M13.9229-47.4688Q18.0801-47.4688 18.0801-51.6748L18.0801-60.0547Q18.0801-62.6309 19.4106-63.9238Q20.7412-65.2168 23.2021-65.2168L31.7822-65.2168Q35.9883-65.2168 35.9883-69.374Q35.9883-73.5713 31.7822-73.5713L22.7178-73.5713Q16.3408-73.5713 13.0532-70.3237Q9.76562-67.0762 9.76562-60.7393L9.76562-51.6748Q9.76562-47.4688 13.9229-47.4688ZM82.3008-47.4688Q86.458-47.4688 86.458-51.6748L86.458-60.7393Q86.458-67.0762 83.1904-70.3237Q79.9229-73.5713 73.5059-73.5713L64.4414-73.5713Q60.2354-73.5713 60.2354-69.374Q60.2354-65.2168 64.4414-65.2168L73.0215-65.2168Q75.4912-65.2168 76.8174-63.9238Q78.1436-62.6309 78.1436-60.0547L78.1436-51.6748Q78.1436-47.4688 82.3008-47.4688ZM22.7178 3.16113L31.7822 3.16113Q35.9883 3.16113 35.9883-0.996094Q35.9883-5.19336 31.7822-5.19336L23.2021-5.19336Q20.7412-5.19336 19.4106-6.4707Q18.0801-7.74805 18.0801-10.3555L18.0801-18.6953Q18.0801-22.9414 13.9229-22.9414Q9.76562-22.9414 9.76562-18.6953L9.76562-9.6709Q9.76562-3.33398 13.0532-0.0864258Q16.3408 3.16113 22.7178 3.16113ZM64.4414 3.16113L73.5059 3.16113Q79.9229 3.16113 83.1904-0.0864258Q86.458-3.33398 86.458-9.6709L86.458-18.6953Q86.458-22.9414 82.3008-22.9414Q78.1436-22.9414 78.1436-18.6953L78.1436-10.3555Q78.1436-7.74805 76.8174-6.4707Q75.4912-5.19336 73.0215-5.19336L64.4414-5.19336Q60.2354-5.19336 60.2354-0.996094Q60.2354 3.16113 64.4414 3.16113ZM31.6855-17.0986L44.8203-17.0986Q46.4717-17.0986 46.4717-18.7588L46.4717-31.9336Q46.4717-33.585 44.8203-33.585L31.6855-33.585Q30.9932-33.585 30.5093-33.1011Q30.0254-32.6172 30.0254-31.9336L30.0254-18.7588Q30.0254-17.0986 31.6855-17.0986ZM33.2969-20.4189L33.2969-30.2734L43.1914-30.2734L43.1914-20.4189ZM36.2178-23.2998L40.3193-23.2998L40.3193-27.4014L36.2178-27.4014ZM31.6855-36.8252L44.8203-36.8252Q46.4717-36.8252 46.4717-38.4766L46.4717-51.6113Q46.4717-53.3115 44.8203-53.3115L31.6855-53.3115Q30.9932-53.3115 30.5093-52.8276Q30.0254-52.3438 30.0254-51.6113L30.0254-38.4766Q30.0254-36.8252 31.6855-36.8252ZM33.2969-40.1055L33.2969-50L43.1914-50L43.1914-40.1055ZM36.2178-43.0176L40.3193-43.0176L40.3193-47.1191L36.2178-47.1191ZM51.4033-36.8252L64.5381-36.8252Q66.1982-36.8252 66.1982-38.4766L66.1982-51.6113Q66.1982-53.3115 64.5381-53.3115L51.4033-53.3115Q50.7197-53.3115 50.2358-52.8276Q49.752-52.3438 49.752-51.6113L49.752-38.4766Q49.752-36.8252 51.4033-36.8252ZM53.0234-40.1055L53.0234-50L62.918-50L62.918-40.1055ZM55.8955-43.0176L60.0371-43.0176L60.0371-47.1191L55.8955-47.1191ZM50.2314-17.5869L54.3418-17.5869L54.3418-21.7197L50.2314-21.7197ZM61.6172-17.5869L65.71-17.5869L65.71-21.7197L61.6172-21.7197ZM55.8955-23.291L60.0371-23.291L60.0371-27.3926L55.8955-27.3926ZM50.2314-28.9551L54.3418-28.9551L54.3418-33.1055L50.2314-33.1055ZM61.6172-28.9551L65.71-28.9551L65.71-33.1055L61.6172-33.1055Z"/>
  </g>
  <g id="Regular-S" transform="matrix(1 0 0 1 1402.11 696)">
   <path d="M13.2812-48.2422Q16.7969-48.2422 16.7969-51.8066L16.7969-60.5469Q16.7969-63.2812 18.2373-64.6973Q19.6777-66.1133 22.3145-66.1133L31.2988-66.1133Q34.8633-66.1133 34.8633-69.6289Q34.8633-73.1934 31.2988-73.1934L22.2168-73.1934Q16.0156-73.1934 12.8906-70.1172Q9.76562-67.041 9.76562-60.8887L9.76562-51.8066Q9.76562-48.2422 13.2812-48.2422ZM82.1777-48.2422Q85.6934-48.2422 85.6934-51.8066L85.6934-60.8887Q85.6934-67.041 82.5928-70.1172Q79.4922-73.1934 73.2422-73.1934L64.1602-73.1934Q60.5957-73.1934 60.5957-69.6289Q60.5957-66.1133 64.1602-66.1133L73.1445-66.1133Q75.7812-66.1133 77.2217-64.6973Q78.6621-63.2812 78.6621-60.5469L78.6621-51.8066Q78.6621-48.2422 82.1777-48.2422ZM22.2168 2.7832L31.2988 2.7832Q34.8633 2.7832 34.8633-0.732422Q34.8633-4.29688 31.2988-4.29688L22.3145-4.29688Q19.6777-4.29688 18.2373-5.68848Q16.7969-7.08008 16.7969-9.86328L16.7969-18.5547Q16.7969-22.168 13.2812-22.168Q9.76562-22.168 9.76562-18.5547L9.76562-9.52148Q9.76562-3.36914 12.8906-0.292969Q16.0156 2.7832 22.2168 2.7832ZM64.1602 2.7832L73.2422 2.7832Q79.4922 2.7832 82.5928-0.292969Q85.6934-3.36914 85.6934-9.52148L85.6934-18.5547Q85.6934-22.168 82.1777-22.168Q78.6621-22.168 78.6621-18.5547L78.6621-9.86328Q78.6621-7.08008 77.2217-5.68848Q75.7812-4.29688 73.1445-4.29688L64.1602-4.29688Q60.5957-4.29688 60.5957-0.732422Q60.5957 2.7832 64.1602 2.7832ZM31.2988-17.0898L44.4336-17.0898Q46.0938-17.0898 46.0938-18.75L46.0938-31.9336Q46.0938-33.5938 44.4336-33.5938L31.2988-33.5938Q30.6152-33.5938 30.127-33.1055Q29.6387-32.6172 29.6387-31.9336L29.6387-18.75Q29.6387-17.0898 31.2988-17.0898ZM32.9102-20.4102L32.9102-30.2734L42.8223-30.2734L42.8223-20.4102ZM35.8398-23.291L39.9414-23.291L39.9414-27.3926L35.8398-27.3926ZM31.2988-36.8164L44.4336-36.8164Q46.0938-36.8164 46.0938-38.4766L46.0938-51.6113Q46.0938-53.3203 44.4336-53.3203L31.2988-53.3203Q30.6152-53.3203 30.127-52.832Q29.6387-52.3438 29.6387-51.6113L29.6387-38.4766Q29.6387-36.8164 31.2988-36.8164ZM32.9102-40.0879L32.9102-50L42.8223-50L42.8223-40.0879ZM35.8398-43.0176L39.9414-43.0176L39.9414-47.1191L35.8398-47.1191ZM51.0254-36.8164L64.1602-36.8164Q65.8203-36.8164 65.8203-38.4766L65.8203-51.6113Q65.8203-53.3203 64.1602-53.3203L51.0254-53.3203Q50.3418-53.3203 49.8535-52.832Q49.3652-52.3438 49.3652-51.6113L49.3652-38.4766Q49.3652-36.8164 51.0254-36.8164ZM52.6367-40.0879L52.6367-50L62.5488-50L62.5488-40.0879ZM55.5176-43.0176L59.668-43.0176L59.668-47.1191L55.5176-47.1191ZM49.8535-17.5781L53.9551-17.5781L53.9551-21.7285L49.8535-21.7285ZM61.2305-17.5781L65.332-17.5781L65.332-21.7285L61.2305-21.7285ZM55.5176-23.291L59.668-23.291L59.668-27.3926L55.5176-27.3926ZM49.8535-28.9551L53.9551-28.9551L53.9551-33.1055L49.8535-33.1055ZM61.2305-28.9551L65.332-28.9551L65.332-33.1055L61.2305-33.1055Z"/>
  </g>
  <g id="Light-S" transform="matrix(1 0 0 1 1106.36 696)">
   <path d="M12.4837-48.3398Q15.1855-48.3398 15.1855-51.0905L15.1855-60.4329Q15.1855-63.5417 16.8132-65.153Q18.4408-66.7643 21.5007-66.7643L30.9896-66.7643Q33.7402-66.7643 33.7402-69.4824Q33.7402-72.2168 30.9896-72.2168L21.403-72.2168Q15.625-72.2168 12.6953-69.3197Q9.76562-66.4225 9.76562-60.6934L9.76562-51.0905Q9.76562-48.3398 12.4837-48.3398ZM81.071-48.3398Q83.7891-48.3398 83.7891-51.0905L83.7891-60.6934Q83.7891-66.4062 80.8757-69.3115Q77.9622-72.2168 72.1517-72.2168L62.5651-72.2168Q59.8145-72.2168 59.8145-69.4824Q59.8145-66.7643 62.5651-66.7643L72.054-66.7643Q75.0651-66.7643 76.7171-65.153Q78.3691-63.5417 78.3691-60.4329L78.3691-51.0905Q78.3691-48.3398 81.071-48.3398ZM21.403 1.83919L30.9896 1.83919Q33.7402 1.83919 33.7402-0.86263Q33.7402-3.61328 30.9896-3.61328L21.5007-3.61328Q18.4408-3.61328 16.8132-5.20833Q15.1855-6.80339 15.1855-9.96094L15.1855-19.2546Q15.1855-22.054 12.4837-22.054Q9.76562-22.054 9.76562-19.2546L9.76562-9.68424Q9.76562-3.95508 12.6953-1.05794Q15.625 1.83919 21.403 1.83919ZM62.5651 1.83919L72.1517 1.83919Q77.9622 1.83919 80.8757-1.06608Q83.7891-3.97135 83.7891-9.68424L83.7891-19.2546Q83.7891-22.054 81.071-22.054Q78.3691-22.054 78.3691-19.2546L78.3691-9.96094Q78.3691-6.80339 76.7171-5.20833Q75.0651-3.61328 72.054-3.61328L62.5651-3.61328Q59.8145-3.61328 59.8145-0.86263Q59.8145 1.83919 62.5651 1.83919ZM29.8665-16.6341L43.3431-16.6341Q45.0195-16.6341 45.0195-18.3105L45.0195-31.8197Q45.0195-33.5124 43.3431-33.5124L29.8665-33.5124Q29.1667-33.5124 28.6702-33.016Q28.1738-32.5195 28.1738-31.8197L28.1738-18.3105Q28.1738-16.6341 29.8665-16.6341ZM31.5267-20.0195L31.5267-30.1432L41.6667-30.1432L41.6667-20.0195ZM34.5052-22.9818L38.7207-22.9818L38.7207-27.1973L34.5052-27.1973ZM29.8665-36.8652L43.3431-36.8652Q45.0195-36.8652 45.0195-38.5417L45.0195-52.0182Q45.0195-53.7435 43.3431-53.7435L29.8665-53.7435Q29.1667-53.7435 28.6702-53.2471Q28.1738-52.7507 28.1738-52.0182L28.1738-38.5417Q28.1738-36.8652 29.8665-36.8652ZM31.5267-40.2018L31.5267-50.3581L41.6667-50.3581L41.6667-40.2018ZM34.5052-43.1966L38.7207-43.1966L38.7207-47.4121L34.5052-47.4121ZM50.0814-36.8652L63.5417-36.8652Q65.2181-36.8652 65.2181-38.5417L65.2181-52.0182Q65.2181-53.7435 63.5417-53.7435L50.0814-53.7435Q49.3815-53.7435 48.8851-53.2471Q48.3887-52.7507 48.3887-52.0182L48.3887-38.5417Q48.3887-36.8652 50.0814-36.8652ZM51.7253-40.2018L51.7253-50.3581L61.8652-50.3581L61.8652-40.2018ZM54.6875-43.1966L58.9355-43.1966L58.9355-47.4121L54.6875-47.4121ZM48.877-17.1387L53.0762-17.1387L53.0762-21.403L48.877-21.403ZM60.5143-17.1387L64.7298-17.1387L64.7298-21.403L60.5143-21.403ZM54.6712-22.9818L58.9193-22.9818L58.9193-27.1973L54.6712-27.1973ZM48.877-28.8086L53.0762-28.8086L53.0762-33.0404L48.877-33.0404ZM60.5143-28.8086L64.7298-28.8086L64.7298-33.0404L60.5143-33.0404Z"/>
  </g>
  <g id="Thin-S" transform="matrix(1 0 0 1 810.908 696)">
   <path d="M11.4289-48.469Q13.0544-48.469 13.0544-50.1433L13.0544-60.2823Q13.0544-63.8861 14.9296-65.7557Q16.8048-67.6254 20.4243-67.6254L30.5806-67.6254Q32.2549-67.6254 32.2549-69.2887Q32.2549-70.9252 30.5806-70.9252L20.3267-70.9252Q15.1084-70.9252 12.437-68.2649Q9.76562-65.6045 9.76562-60.435L9.76562-50.1433Q9.76562-48.469 11.4289-48.469ZM79.6072-48.469Q81.2705-48.469 81.2705-50.1433L81.2705-60.435Q81.2705-65.5667 78.6046-68.246Q75.9388-70.9252 70.7094-70.9252L60.4555-70.9252Q58.7812-70.9252 58.7812-69.2887Q58.7812-67.6254 60.4555-67.6254L70.6118-67.6254Q74.1179-67.6254 76.0498-65.7557Q77.9817-63.8861 77.9817-60.2823L77.9817-50.1433Q77.9817-48.469 79.6072-48.469ZM20.3267 0.590663L30.5806 0.590663Q32.2549 0.590663 32.2549-1.03484Q32.2549-2.70917 30.5806-2.70917L20.4243-2.70917Q16.8048-2.70917 14.9296-4.57331Q13.0544-6.43744 13.0544-10.0901L13.0544-20.1802Q13.0544-21.9034 11.4289-21.9034Q9.76562-21.9034 9.76562-20.1802L9.76562-9.89951Q9.76562-4.73003 12.437-2.06968Q15.1084 0.590663 20.3267 0.590663ZM60.4555 0.590663L70.7094 0.590663Q75.9388 0.590663 78.6046-2.08858Q81.2705-4.76783 81.2705-9.89951L81.2705-20.1802Q81.2705-21.9034 79.6072-21.9034Q77.9817-21.9034 77.9817-20.1802L77.9817-10.0901Q77.9817-6.43744 76.0498-4.57331Q74.1179-2.70917 70.6118-2.70917L60.4555-2.70917Q58.7812-2.70917 58.7812-1.03484Q58.7812 0.590663 60.4555 0.590663ZM27.9722-16.0314L41.9008-16.0314Q43.5988-16.0314 43.5988-17.7293L43.5988-31.669Q43.5988-33.4047 41.9008-33.4047L27.9722-33.4047Q27.2508-33.4047 26.7436-32.8976Q26.2365-32.3904 26.2365-31.669L26.2365-17.7293Q26.2365-16.0314 27.9722-16.0314ZM29.697-19.5029L29.697-29.971L40.1383-29.971L40.1383-19.5029ZM32.74-22.5728L37.1062-22.5728L37.1062-26.9389L32.74-26.9389ZM27.9722-36.9298L41.9008-36.9298Q43.5988-36.9298 43.5988-38.6278L43.5988-52.5564Q43.5988-54.3032 41.9008-54.3032L27.9722-54.3032Q27.2508-54.3032 26.7436-53.796Q26.2365-53.2888 26.2365-52.5564L26.2365-38.6278Q26.2365-36.9298 27.9722-36.9298ZM29.697-40.3525L29.697-50.8317L40.1383-50.8317L40.1383-40.3525ZM32.74-43.4334L37.1062-43.4334L37.1062-47.7996L32.74-47.7996ZM48.8329-36.9298L62.7237-36.9298Q64.4216-36.9298 64.4216-38.6278L64.4216-52.5564Q64.4216-54.3032 62.7237-54.3032L48.8329-54.3032Q48.1115-54.3032 47.6043-53.796Q47.0971-53.2888 47.0971-52.5564L47.0971-38.6278Q47.0971-36.9298 48.8329-36.9298ZM50.5198-40.3525L50.5198-50.8317L60.9611-50.8317L60.9611-40.3525ZM53.5897-43.4334L57.9669-43.4334L57.9669-47.7996L53.5897-47.7996ZM47.5854-16.5575L51.9137-16.5575L51.9137-20.9725L47.5854-20.9725ZM59.5672-16.5575L63.9333-16.5575L63.9333-20.9725L59.5672-20.9725ZM53.5519-22.5728L57.9291-22.5728L57.9291-26.9389L53.5519-26.9389ZM47.5854-28.6149L51.9137-28.6149L51.9137-32.9543L47.5854-32.9543ZM59.5672-28.6149L63.9333-28.6149L63.9333-32.9543L59.5672-32.9543Z"/>
  </g>
  <g id="Ultralight-S" transform="matrix(1 0 0 1 514.842 696)">
   <path d="M10.8887-48.5352Q11.9629-48.5352 11.9629-49.6582L11.9629-60.2051Q11.9629-64.0625 13.9648-66.0645Q15.9668-68.0664 19.873-68.0664L30.3711-68.0664Q31.4941-68.0664 31.4941-69.1895Q31.4941-70.2637 30.3711-70.2637L19.7754-70.2637Q14.8438-70.2637 12.3047-67.7246Q9.76562-65.1855 9.76562-60.3027L9.76562-49.6582Q9.76562-48.5352 10.8887-48.5352ZM78.8574-48.5352Q79.9805-48.5352 79.9805-49.6582L79.9805-60.3027Q79.9805-65.1367 77.4414-67.7002Q74.9023-70.2637 69.9707-70.2637L59.375-70.2637Q58.252-70.2637 58.252-69.1895Q58.252-68.0664 59.375-68.0664L69.873-68.0664Q73.6328-68.0664 75.708-66.0645Q77.7832-64.0625 77.7832-60.2051L77.7832-49.6582Q77.7832-48.5352 78.8574-48.5352ZM19.7754-0.0488281L30.3711-0.0488281Q31.4941-0.0488281 31.4941-1.12305Q31.4941-2.24609 30.3711-2.24609L19.873-2.24609Q15.9668-2.24609 13.9648-4.24805Q11.9629-6.25 11.9629-10.1562L11.9629-20.6543Q11.9629-21.8262 10.8887-21.8262Q9.76562-21.8262 9.76562-20.6543L9.76562-10.0098Q9.76562-5.12695 12.3047-2.58789Q14.8438-0.0488281 19.7754-0.0488281ZM59.375-0.0488281L69.9707-0.0488281Q74.9023-0.0488281 77.4414-2.6123Q79.9805-5.17578 79.9805-10.0098L79.9805-20.6543Q79.9805-21.8262 78.8574-21.8262Q77.7832-21.8262 77.7832-20.6543L77.7832-10.1562Q77.7832-6.25 75.708-4.24805Q73.6328-2.24609 69.873-2.24609L59.375-2.24609Q58.252-2.24609 58.252-1.12305Q58.252-0.0488281 59.375-0.0488281ZM27.002-15.7227L41.1621-15.7227Q42.8711-15.7227 42.8711-17.4316L42.8711-31.5918Q42.8711-33.3496 41.1621-33.3496L27.002-33.3496Q26.2695-33.3496 25.7568-32.8369Q25.2441-32.3242 25.2441-31.5918L25.2441-17.4316Q25.2441-15.7227 27.002-15.7227ZM28.7598-19.2383L28.7598-29.8828L39.3555-29.8828L39.3555-19.2383ZM31.8359-22.3633L36.2793-22.3633L36.2793-26.8066L31.8359-26.8066ZM27.002-36.9629L41.1621-36.9629Q42.8711-36.9629 42.8711-38.6719L42.8711-52.832Q42.8711-54.5898 41.1621-54.5898L27.002-54.5898Q26.2695-54.5898 25.7568-54.0771Q25.2441-53.5645 25.2441-52.832L25.2441-38.6719Q25.2441-36.9629 27.002-36.9629ZM28.7598-40.4297L28.7598-51.0742L39.3555-51.0742L39.3555-40.4297ZM31.8359-43.5547L36.2793-43.5547L36.2793-47.998L31.8359-47.998ZM48.1934-36.9629L62.3047-36.9629Q64.0137-36.9629 64.0137-38.6719L64.0137-52.832Q64.0137-54.5898 62.3047-54.5898L48.1934-54.5898Q47.4609-54.5898 46.9482-54.0771Q46.4355-53.5645 46.4355-52.832L46.4355-38.6719Q46.4355-36.9629 48.1934-36.9629ZM49.9023-40.4297L49.9023-51.0742L60.498-51.0742L60.498-40.4297ZM53.0273-43.5547L57.4707-43.5547L57.4707-47.998L53.0273-47.998ZM46.9238-16.2598L51.3184-16.2598L51.3184-20.752L46.9238-20.752ZM59.082-16.2598L63.5254-16.2598L63.5254-20.752L59.082-20.752ZM52.9785-22.3633L57.4219-22.3633L57.4219-26.8066L52.9785-26.8066ZM46.9238-28.5156L51.3184-28.5156L51.3184-32.9102L46.9238-32.9102ZM59.082-28.5156L63.5254-28.5156L63.5254-32.9102L59.082-32.9102Z"/>
  </g>
 </g>
</svg>
