<?xml version="1.0" encoding="UTF-8"?>
<!--Generator: Apple Native CoreSVG 175-->
<!DOCTYPE svg
PUBLIC "-//W3C//DTD SVG 1.1//EN"
       "http://www.w3.org/Graphics/SVG/1.1/DTD/svg11.dtd">
<svg version="1.1" xmlns="http://www.w3.org/2000/svg" xmlns:xlink="http://www.w3.org/1999/xlink" width="3300" height="2200">
 <!--glyph: "uni100355.medium", point size: 100.0, font version: "17.1d1e1", template writer version: "65.1"-->
 <g id="Notes">
  <rect height="2200" id="artboard" style="fill:white;opacity:1" width="3300" x="0" y="0"/>
  <line style="fill:none;stroke:black;opacity:1;stroke-width:0.5;" x1="263" x2="3036" y1="292" y2="292"/>
  <text style="stroke:none;fill:black;font-family:sans-serif;font-size:13;font-weight:bold;" transform="matrix(1 0 0 1 263 322)">Weight/Scale Variations</text>
  <text style="stroke:none;fill:black;font-family:sans-serif;font-size:13;text-anchor:middle;" transform="matrix(1 0 0 1 559.711 322)">Ultralight</text>
  <text style="stroke:none;fill:black;font-family:sans-serif;font-size:13;text-anchor:middle;" transform="matrix(1 0 0 1 856.422 322)">Thin</text>
  <text style="stroke:none;fill:black;font-family:sans-serif;font-size:13;text-anchor:middle;" transform="matrix(1 0 0 1 1153.13 322)">Light</text>
  <text style="stroke:none;fill:black;font-family:sans-serif;font-size:13;text-anchor:middle;" transform="matrix(1 0 0 1 1449.84 322)">Regular</text>
  <text style="stroke:none;fill:black;font-family:sans-serif;font-size:13;text-anchor:middle;" transform="matrix(1 0 0 1 1746.56 322)">Medium</text>
  <text style="stroke:none;fill:black;font-family:sans-serif;font-size:13;text-anchor:middle;" transform="matrix(1 0 0 1 2043.27 322)">Semibold</text>
  <text style="stroke:none;fill:black;font-family:sans-serif;font-size:13;text-anchor:middle;" transform="matrix(1 0 0 1 2339.98 322)">Bold</text>
  <text style="stroke:none;fill:black;font-family:sans-serif;font-size:13;text-anchor:middle;" transform="matrix(1 0 0 1 2636.69 322)">Heavy</text>
  <text style="stroke:none;fill:black;font-family:sans-serif;font-size:13;text-anchor:middle;" transform="matrix(1 0 0 1 2933.4 322)">Black</text>
  <line style="fill:none;stroke:black;opacity:1;stroke-width:0.5;" x1="263" x2="3036" y1="1903" y2="1903"/>
  <g transform="matrix(1 0 0 1 263 1933)">
   <path d="M9.24805 0.830078Q10.8691 0.830078 12.2949 0.214844Q13.7207-0.400391 14.8096-1.49414Q15.8984-2.58789 16.5186-4.01367Q17.1387-5.43945 17.1387-7.05078Q17.1387-8.66211 16.5186-10.0879Q15.8984-11.5137 14.8047-12.6074Q13.7109-13.7012 12.2852-14.3164Q10.8594-14.9316 9.23828-14.9316Q7.62695-14.9316 6.20117-14.3164Q4.77539-13.7012 3.69141-12.6074Q2.60742-11.5137 1.9873-10.0879Q1.36719-8.66211 1.36719-7.05078Q1.36719-5.43945 1.9873-4.01367Q2.60742-2.58789 3.69629-1.49414Q4.78516-0.400391 6.21094 0.214844Q7.63672 0.830078 9.24805 0.830078ZM9.24805-0.654297Q7.91992-0.654297 6.7627-1.14746Q5.60547-1.64062 4.73145-2.51953Q3.85742-3.39844 3.36426-4.56055Q2.87109-5.72266 2.87109-7.05078Q2.87109-8.37891 3.35938-9.54102Q3.84766-10.7031 4.72168-11.582Q5.5957-12.4609 6.75293-12.9541Q7.91016-13.4473 9.23828-13.4473Q10.5762-13.4473 11.7334-12.9541Q12.8906-12.4609 13.7695-11.582Q14.6484-10.7031 15.1465-9.54102Q15.6445-8.37891 15.6445-7.05078Q15.6445-5.72266 15.1514-4.56055Q14.6582-3.39844 13.7842-2.51953Q12.9102-1.64062 11.748-1.14746Q10.5859-0.654297 9.24805-0.654297ZM5.6543-7.05078Q5.6543-6.72852 5.85938-6.52832Q6.06445-6.32812 6.40625-6.32812L8.51562-6.32812L8.51562-4.20898Q8.51562-3.88672 8.71094-3.67676Q8.90625-3.4668 9.23828-3.4668Q9.56055-3.4668 9.77051-3.67676Q9.98047-3.88672 9.98047-4.20898L9.98047-6.32812L12.0898-6.32812Q12.4219-6.32812 12.627-6.52832Q12.832-6.72852 12.832-7.05078Q12.832-7.38281 12.627-7.58789Q12.4219-7.79297 12.0898-7.79297L9.98047-7.79297L9.98047-9.90234Q9.98047-10.2344 9.77051-10.4443Q9.56055-10.6543 9.23828-10.6543Q8.90625-10.6543 8.71094-10.4443Q8.51562-10.2344 8.51562-9.90234L8.51562-7.79297L6.40625-7.79297Q6.06445-7.79297 5.85938-7.58789Q5.6543-7.38281 5.6543-7.05078Z"/>
  </g>
  <g transform="matrix(1 0 0 1 281.867 1933)">
   <path d="M11.709 2.91016Q13.75 2.91016 15.5518 2.12891Q17.3535 1.34766 18.7305-0.0292969Q20.1074-1.40625 20.8887-3.20801Q21.6699-5.00977 21.6699-7.05078Q21.6699-9.0918 20.8887-10.8936Q20.1074-12.6953 18.7305-14.0723Q17.3535-15.4492 15.5469-16.2305Q13.7402-17.0117 11.6992-17.0117Q9.6582-17.0117 7.85645-16.2305Q6.05469-15.4492 4.68262-14.0723Q3.31055-12.6953 2.5293-10.8936Q1.74805-9.0918 1.74805-7.05078Q1.74805-5.00977 2.5293-3.20801Q3.31055-1.40625 4.6875-0.0292969Q6.06445 1.34766 7.86621 2.12891Q9.66797 2.91016 11.709 2.91016ZM11.709 1.25Q9.98047 1.25 8.47656 0.605469Q6.97266-0.0390625 5.83496-1.17676Q4.69727-2.31445 4.05762-3.81836Q3.41797-5.32227 3.41797-7.05078Q3.41797-8.7793 4.05762-10.2832Q4.69727-11.7871 5.83008-12.9297Q6.96289-14.0723 8.4668-14.7119Q9.9707-15.3516 11.6992-15.3516Q13.4277-15.3516 14.9316-14.7119Q16.4355-14.0723 17.5781-12.9297Q18.7207-11.7871 19.3652-10.2832Q20.0098-8.7793 20.0098-7.05078Q20.0098-5.32227 19.3701-3.81836Q18.7305-2.31445 17.5928-1.17676Q16.4551-0.0390625 14.9463 0.605469Q13.4375 1.25 11.709 1.25ZM7.17773-7.05078Q7.17773-6.69922 7.41211-6.47461Q7.64648-6.25 8.01758-6.25L10.8887-6.25L10.8887-3.36914Q10.8887-2.99805 11.1133-2.76855Q11.3379-2.53906 11.6895-2.53906Q12.0605-2.53906 12.29-2.76855Q12.5195-2.99805 12.5195-3.36914L12.5195-6.25L15.4004-6.25Q15.7715-6.25 16.001-6.47461Q16.2305-6.69922 16.2305-7.05078Q16.2305-7.42188 16.001-7.65137Q15.7715-7.88086 15.4004-7.88086L12.5195-7.88086L12.5195-10.752Q12.5195-11.1328 12.29-11.3623Q12.0605-11.5918 11.6895-11.5918Q11.3379-11.5918 11.1133-11.3574Q10.8887-11.123 10.8887-10.752L10.8887-7.88086L8.01758-7.88086Q7.63672-7.88086 7.40723-7.65137Q7.17773-7.42188 7.17773-7.05078Z"/>
  </g>
  <g transform="matrix(1 0 0 1 305.646 1933)">
   <path d="M14.9707 5.66406Q17.0605 5.66406 18.96 5.01465Q20.8594 4.36523 22.4512 3.19336Q24.043 2.02148 25.2197 0.429688Q26.3965-1.16211 27.0459-3.06641Q27.6953-4.9707 27.6953-7.05078Q27.6953-9.14062 27.0459-11.04Q26.3965-12.9395 25.2197-14.5312Q24.043-16.123 22.4512-17.2998Q20.8594-18.4766 18.9551-19.126Q17.0508-19.7754 14.9609-19.7754Q12.8711-19.7754 10.9717-19.126Q9.07227-18.4766 7.48535-17.2998Q5.89844-16.123 4.72168-14.5312Q3.54492-12.9395 2.90039-11.04Q2.25586-9.14062 2.25586-7.05078Q2.25586-4.9707 2.90527-3.06641Q3.55469-1.16211 4.72656 0.429688Q5.89844 2.02148 7.49023 3.19336Q9.08203 4.36523 10.9814 5.01465Q12.8809 5.66406 14.9707 5.66406ZM14.9707 3.84766Q13.1641 3.84766 11.5283 3.2959Q9.89258 2.74414 8.53516 1.74805Q7.17773 0.751953 6.17676-0.610352Q5.17578-1.97266 4.62891-3.6084Q4.08203-5.24414 4.08203-7.05078Q4.08203-8.86719 4.62891-10.5029Q5.17578-12.1387 6.17188-13.501Q7.16797-14.8633 8.52539-15.8594Q9.88281-16.8555 11.5186-17.4023Q13.1543-17.9492 14.9609-17.9492Q16.7773-17.9492 18.4131-17.4023Q20.0488-16.8555 21.4111-15.8594Q22.7734-14.8633 23.7695-13.501Q24.7656-12.1387 25.3174-10.5029Q25.8691-8.86719 25.8691-7.05078Q25.8789-5.24414 25.332-3.6084Q24.7852-1.97266 23.7842-0.610352Q22.7832 0.751953 21.4209 1.74805Q20.0586 2.74414 18.4229 3.2959Q16.7871 3.84766 14.9707 3.84766ZM9.19922-7.05078Q9.19922-6.66992 9.45801-6.4209Q9.7168-6.17188 10.1172-6.17188L14.0625-6.17188L14.0625-2.2168Q14.0625-1.81641 14.3115-1.55762Q14.5605-1.29883 14.9512-1.29883Q15.3516-1.29883 15.6104-1.55273Q15.8691-1.80664 15.8691-2.2168L15.8691-6.17188L19.8242-6.17188Q20.2246-6.17188 20.4785-6.4209Q20.7324-6.66992 20.7324-7.05078Q20.7324-7.46094 20.4785-7.71484Q20.2246-7.96875 19.8242-7.96875L15.8691-7.96875L15.8691-11.9141Q15.8691-12.3242 15.6104-12.583Q15.3516-12.8418 14.9512-12.8418Q14.5605-12.8418 14.3115-12.583Q14.0625-12.3242 14.0625-11.9141L14.0625-7.96875L10.1172-7.96875Q9.70703-7.96875 9.45312-7.71484Q9.19922-7.46094 9.19922-7.05078Z"/>
  </g>
  <text style="stroke:none;fill:black;font-family:sans-serif;font-size:13;font-weight:bold;" transform="matrix(1 0 0 1 263 1953)">Design Variations</text>
  <text style="stroke:none;fill:black;font-family:sans-serif;font-size:13;" transform="matrix(1 0 0 1 263 1971)">Symbols are supported in up to nine weights and three scales.</text>
  <text style="stroke:none;fill:black;font-family:sans-serif;font-size:13;" transform="matrix(1 0 0 1 263 1989)">For optimal layout with text and other symbols, vertically align</text>
  <text style="stroke:none;fill:black;font-family:sans-serif;font-size:13;" transform="matrix(1 0 0 1 263 2007)">symbols with the adjacent text.</text>
  <line style="fill:none;stroke:#00AEEF;stroke-width:0.5;opacity:1.0;" x1="776" x2="776" y1="1919" y2="1933"/>
  <g transform="matrix(1 0 0 1 776 1933)">
   <path d="M3.31055 0.15625Q3.70117 0.15625 3.91602-0.00976562Q4.13086-0.175781 4.26758-0.585938L5.52734-4.0332L11.2891-4.0332L12.5488-0.585938Q12.6855-0.175781 12.9004-0.00976562Q13.1152 0.15625 13.4961 0.15625Q13.8867 0.15625 14.1162-0.0585938Q14.3457-0.273438 14.3457-0.644531Q14.3457-0.869141 14.2383-1.17188L9.6582-13.3691Q9.48242-13.8184 9.17969-14.043Q8.87695-14.2676 8.4082-14.2676Q7.5-14.2676 7.17773-13.3789L2.59766-1.16211Q2.49023-0.859375 2.49023-0.634766Q2.49023-0.263672 2.70996-0.0537109Q2.92969 0.15625 3.31055 0.15625ZM6.00586-5.51758L8.37891-12.0898L8.42773-12.0898L10.8008-5.51758Z"/>
  </g>
  <line style="fill:none;stroke:#00AEEF;stroke-width:0.5;opacity:1.0;" x1="793.197" x2="793.197" y1="1919" y2="1933"/>
  <text style="stroke:none;fill:black;font-family:sans-serif;font-size:13;font-weight:bold;" transform="matrix(1 0 0 1 776 1953)">Margins</text>
  <text style="stroke:none;fill:black;font-family:sans-serif;font-size:13;" transform="matrix(1 0 0 1 776 1971)">Leading and trailing margins on the left and right side of each symbol</text>
  <text style="stroke:none;fill:black;font-family:sans-serif;font-size:13;" transform="matrix(1 0 0 1 776 1989)">can be adjusted by modifying the x-location of the margin guidelines.</text>
  <text style="stroke:none;fill:black;font-family:sans-serif;font-size:13;" transform="matrix(1 0 0 1 776 2007)">Modifications are automatically applied proportionally to all</text>
  <text style="stroke:none;fill:black;font-family:sans-serif;font-size:13;" transform="matrix(1 0 0 1 776 2025)">scales and weights.</text>
  <g transform="matrix(1 0 0 1 1289 1933)">
   <path d="M2.8418 1.86523L4.54102 3.57422Q5.18555 4.22852 5.90332 4.17969Q6.62109 4.13086 7.31445 3.35938L18.0078-8.42773L17.041-9.4043L6.42578 2.27539Q6.16211 2.57812 5.89355 2.61719Q5.625 2.65625 5.27344 2.30469L4.10156 1.14258Q3.75 0.791016 3.79395 0.522461Q3.83789 0.253906 4.14062-0.0195312L15.6152-10.8203L14.6387-11.7871L3.04688-0.898438Q2.30469-0.214844 2.25098 0.498047Q2.19727 1.21094 2.8418 1.86523ZM9.25781-16.3281Q8.94531-16.0254 8.90625-15.6348Q8.86719-15.2441 9.04297-14.9512Q9.21875-14.6777 9.55566-14.541Q9.89258-14.4043 10.3809-14.5215Q11.4746-14.7754 12.5977-14.7314Q13.7207-14.6875 14.7949-13.9844L14.209-12.5293Q13.9551-11.9043 14.0674-11.4404Q14.1797-10.9766 14.5801-10.5664L16.875-8.25195Q17.2363-7.88086 17.5781-7.82227Q17.9199-7.76367 18.3398-7.8418L19.4043-8.03711L20.0684-7.36328L20.0293-6.80664Q20-6.43555 20.1221-6.12305Q20.2441-5.81055 20.6055-5.44922L21.3672-4.70703Q21.7285-4.3457 22.1533-4.33105Q22.5781-4.31641 22.9297-4.66797L25.8398-7.58789Q26.1914-7.93945 26.1816-8.35449Q26.1719-8.76953 25.8105-9.13086L25.0391-9.89258Q24.6875-10.2539 24.3799-10.3857Q24.0723-10.5176 23.7109-10.4883L23.1348-10.4395L22.4902-11.0742L22.7344-12.1973Q22.832-12.6172 22.6953-12.9834Q22.5586-13.3496 22.1191-13.7891L19.9219-15.9766Q18.6719-17.2168 17.2607-17.8369Q15.8496-18.457 14.4189-18.4814Q12.9883-18.5059 11.665-17.959Q10.3418-17.4121 9.25781-16.3281ZM10.752-15.957Q11.6602-16.6211 12.7002-16.9043Q13.7402-17.1875 14.8047-17.085Q15.8691-16.9824 16.8701-16.5137Q17.8711-16.0449 18.7012-15.2051L21.1328-12.793Q21.3086-12.6172 21.3525-12.4512Q21.3965-12.2852 21.3379-12.0312L21.0156-10.5469L22.5195-9.0625L23.5059-9.12109Q23.6914-9.13086 23.7891-9.09668Q23.8867-9.0625 24.0332-8.91602L24.6094-8.33984L22.168-5.89844L21.5918-6.47461Q21.4453-6.62109 21.4062-6.71875Q21.3672-6.81641 21.377-7.01172L21.4453-7.98828L19.9512-9.47266L18.4277-9.21875Q18.1836-9.16992 18.042-9.2041Q17.9004-9.23828 17.7148-9.41406L15.7129-11.416Q15.5176-11.5918 15.4932-11.7529Q15.4688-11.9141 15.5859-12.1875L16.4648-14.2773Q15.293-15.3711 13.8281-15.791Q12.3633-16.2109 10.8398-15.7617Q10.7227-15.7324 10.6885-15.8057Q10.6543-15.8789 10.752-15.957Z"/>
  </g>
  <text style="stroke:none;fill:black;font-family:sans-serif;font-size:13;font-weight:bold;" transform="matrix(1 0 0 1 1289 1953)">Exporting</text>
  <text style="stroke:none;fill:black;font-family:sans-serif;font-size:13;" transform="matrix(1 0 0 1 1289 1971)">Symbols should be outlined when exporting to ensure the</text>
  <text style="stroke:none;fill:black;font-family:sans-serif;font-size:13;" transform="matrix(1 0 0 1 1289 1989)">design is preserved when submitting to Xcode.</text>
  <text id="template-version" style="stroke:none;fill:black;font-family:sans-serif;font-size:13;text-anchor:end;" transform="matrix(1 0 0 1 3036 1933)">Template v.3.0</text>
  <text style="stroke:none;fill:black;font-family:sans-serif;font-size:13;text-anchor:end;" transform="matrix(1 0 0 1 3036 1951)">Requires Xcode 13 or greater</text>
  <text id="descriptive-name" style="stroke:none;fill:black;font-family:sans-serif;font-size:13;text-anchor:end;" transform="matrix(1 0 0 1 3036 1969)">Generated from envelope</text>
  <text style="stroke:none;fill:black;font-family:sans-serif;font-size:13;text-anchor:end;" transform="matrix(1 0 0 1 3036 1987)">Typeset at 100 points</text>
  <text style="stroke:none;fill:black;font-family:sans-serif;font-size:13;" transform="matrix(1 0 0 1 263 726)">Small</text>
  <text style="stroke:none;fill:black;font-family:sans-serif;font-size:13;" transform="matrix(1 0 0 1 263 1156)">Medium</text>
  <text style="stroke:none;fill:black;font-family:sans-serif;font-size:13;" transform="matrix(1 0 0 1 263 1586)">Large</text>
 </g>
 <g id="Guides">
  <g id="H-reference" style="fill:#27AAE1;stroke:none;" transform="matrix(1 0 0 1 339 696)">
   <path d="M0.993347 0L3.6377 0L29.3282-67.1326L30.0301-67.1326L30.0301-70.459L28.1227-70.459ZM11.6882-24.4797L46.9818-24.4797L46.2311-26.7288L12.4382-26.7288ZM55.1193 0L57.7637 0L30.6381-70.459L29.4327-70.459L29.4327-67.1326Z"/>
  </g>
  <line id="Baseline-S" style="fill:none;stroke:#27AAE1;opacity:1;stroke-width:0.5;" x1="263" x2="3036" y1="696" y2="696"/>
  <line id="Capline-S" style="fill:none;stroke:#27AAE1;opacity:1;stroke-width:0.5;" x1="263" x2="3036" y1="625.541" y2="625.541"/>
  <g id="H-reference" style="fill:#27AAE1;stroke:none;" transform="matrix(1 0 0 1 339 1126)">
   <path d="M0.993347 0L3.6377 0L29.3282-67.1326L30.0301-67.1326L30.0301-70.459L28.1227-70.459ZM11.6882-24.4797L46.9818-24.4797L46.2311-26.7288L12.4382-26.7288ZM55.1193 0L57.7637 0L30.6381-70.459L29.4327-70.459L29.4327-67.1326Z"/>
  </g>
  <line id="Baseline-M" style="fill:none;stroke:#27AAE1;opacity:1;stroke-width:0.5;" x1="263" x2="3036" y1="1126" y2="1126"/>
  <line id="Capline-M" style="fill:none;stroke:#27AAE1;opacity:1;stroke-width:0.5;" x1="263" x2="3036" y1="1055.54" y2="1055.54"/>
  <g id="H-reference" style="fill:#27AAE1;stroke:none;" transform="matrix(1 0 0 1 339 1556)">
   <path d="M0.993347 0L3.6377 0L29.3282-67.1326L30.0301-67.1326L30.0301-70.459L28.1227-70.459ZM11.6882-24.4797L46.9818-24.4797L46.2311-26.7288L12.4382-26.7288ZM55.1193 0L57.7637 0L30.6381-70.459L29.4327-70.459L29.4327-67.1326Z"/>
  </g>
  <line id="Baseline-L" style="fill:none;stroke:#27AAE1;opacity:1;stroke-width:0.5;" x1="263" x2="3036" y1="1556" y2="1556"/>
  <line id="Capline-L" style="fill:none;stroke:#27AAE1;opacity:1;stroke-width:0.5;" x1="263" x2="3036" y1="1485.54" y2="1485.54"/>
  <line id="left-margin-Regular-M" style="fill:none;stroke:#00AEEF;stroke-width:0.5;opacity:1.0;" x1="1383.48" x2="1383.48" y1="1030.79" y2="1150.12"/>
  <line id="right-margin-Regular-M" style="fill:none;stroke:#00AEEF;stroke-width:0.5;opacity:1.0;" x1="1516.21" x2="1516.21" y1="1030.79" y2="1150.12"/>
 </g>
 <g id="Symbols">
  <g id="Black-L" transform="matrix(1 0 0 1 2842.78 1556)">
   <path d="M39.8556 23.4193L141.972 23.4193Q152.903 23.4193 159.033 17.2375Q165.162 11.0557 165.162-0.269058L165.162-70.1071Q165.162-81.4318 158.949-87.6137Q152.737-93.7955 141.39-93.7955L39.2728-93.7955Q28.3423-93.7955 22.2132-87.6143Q16.084-81.4331 16.084-70.1071L16.084-0.269058Q16.084 11.0569 22.2958 17.2381Q28.5077 23.4193 39.8556 23.4193ZM41.0181 4.65615Q37.7516 4.65615 36.0762 3.09751Q34.4007 1.53888 34.4007-2.02365L34.4007-68.3733Q34.4007-71.915 36.0762-73.4737Q37.7516-75.0323 41.0181-75.0323L140.207-75.0323Q143.468-75.0323 145.157-73.4737Q146.845-71.915 146.845-68.3525L146.845-2.00284Q146.845 1.53888 145.157 3.09751Q143.468 4.65615 140.207 4.65615ZM90.6404-16.8051Q94.8023-16.8051 98.6254-18.5881Q102.448-20.3711 106.128-24.0288L155.235-72.379L144.211-83.4611L96.4525-36.1956Q94.6548-34.4772 93.3376-33.719Q92.0205-32.9608 90.6404-32.9608Q89.2396-32.9608 87.9218-33.7196Q86.6041-34.4784 84.8076-36.1956L36.9656-83.5443L25.9627-72.4622L75.0735-24.0288Q78.8116-20.3711 82.6451-18.5881Q86.4786-16.8051 90.6404-16.8051ZM142.885 9.85125L153.944-1.21241L115.5-39.602L104.44-28.5431ZM27.3098-1.22725L38.3883 9.85843L76.8406-28.5431L65.7597-39.602Z"/>
  </g>
  <g id="Heavy-L" transform="matrix(1 0 0 1 2547.31 1556)">
   <path d="M38.8315 22.3296L140.763 22.3296Q151.108 22.3296 156.889 16.4698Q162.671 10.61 162.671-0.297128L162.671-70.0702Q162.671-80.9773 156.768-86.8371Q150.866-92.6969 139.923-92.6969L37.9862-92.6969Q27.647-92.6969 21.8655-86.84Q16.084-80.983 16.084-70.0702L16.084-0.297128Q16.084 10.6157 21.9834 16.4726Q27.8828 22.3296 38.8315 22.3296ZM39.6433 5.8738Q35.9913 5.8738 34.1021 4.07391Q32.2129 2.27402 32.2129-1.64703L32.2129-68.7505Q32.2129-72.6413 34.1021-74.4412Q35.9913-76.2411 39.6433-76.2411L139.081-76.2411Q142.711-76.2411 144.626-74.4412Q146.542-72.6413 146.542-68.7202L146.542-1.61689Q146.542 2.27402 144.626 4.07391Q142.711 5.8738 139.081 5.8738ZM89.4261-17.2602Q93.3656-17.2602 97.0318-18.9525Q100.698-20.6448 104.278-24.1894L153.922-73.0232L144.036-82.9543L95.6693-35.1207Q93.8072-33.3333 92.3574-32.5357Q90.9075-31.7381 89.4261-31.7381Q87.9145-31.7381 86.4619-32.5386Q85.0093-33.339 83.1527-35.1207L34.6654-83.075L24.8092-73.144L74.499-24.1894Q78.124-20.6448 81.8053-18.9525Q85.4865-17.2602 89.4261-17.2602ZM142.876 10.0734L152.766 0.161314L113.69-38.7274L103.794-28.8378ZM26.0283 0.159184L35.9425 10.107L75.0578-28.8378L65.1324-38.7274Z"/>
  </g>
  <g id="Bold-L" transform="matrix(1 0 0 1 2252.13 1556)">
   <path d="M37.5412 20.9848L139.212 20.9848Q148.879 20.9848 154.249 15.5133Q159.619 10.0418 159.619-0.320478L159.619-70.0316Q159.619-80.3939 154.097-85.8654Q148.576-91.3369 138.162-91.3369L36.4775-91.3369Q26.8236-91.3369 21.4538-85.8721Q16.084-80.4073 16.084-70.0316L16.084-0.320478Q16.084 10.0552 21.5991 15.52Q27.1142 20.9848 37.5412 20.9848ZM37.9822 7.37241Q33.8241 7.37241 31.6624 5.26921Q29.5006 3.166 29.5006-1.22303L29.5006-69.167Q29.5006-73.5179 31.6624-75.6212Q33.8241-77.7245 37.9822-77.7245L137.683-77.7245Q141.788-77.7245 143.995-75.6212Q146.203-73.5179 146.203-69.1289L146.203-1.18515Q146.203 3.166 143.995 5.26921Q141.788 7.37241 137.683 7.37241ZM87.9499-17.9032Q91.598-17.9032 95.0645-19.4766Q98.531-21.05 101.974-24.4414L152.293-73.867L143.85-82.3392L94.6862-33.7764Q92.7546-31.9119 91.147-31.0756Q89.5395-30.2394 87.9499-30.2394Q86.3224-30.2394 84.7083-31.0823Q83.0942-31.9252 81.1757-33.7764L31.8595-82.4912L23.4546-74.019L73.8591-24.4414Q77.3307-21.05 80.8162-19.4766Q84.3018-17.9032 87.9499-17.9032ZM142.868 10.2977L151.276 1.83721L111.327-37.7036L102.906-29.2959ZM24.5197 1.86535L32.9523 10.3771L72.994-29.2959L64.5351-37.7036Z"/>
  </g>
  <g id="Semibold-L" transform="matrix(1 0 0 1 1956.47 1556)">
   <path d="M36.6518 20.0577L138.143 20.0577Q147.343 20.0577 152.429 14.8539Q157.515 9.65012 157.515-0.336575L157.515-70.005Q157.515-79.9917 152.256-85.1955Q146.997-90.3993 136.948-90.3993L35.4374-90.3993Q26.2559-90.3993 21.17-85.2049Q16.084-80.0104 16.084-70.005L16.084-0.336575Q16.084 9.66875 21.3341 14.8632Q26.5843 20.0577 36.6518 20.0577ZM36.8371 8.40554Q32.33 8.40554 29.9804 6.09323Q27.6308 3.78093 27.6308-0.930724L27.6308-69.4541Q27.6308-74.1222 29.9804-76.4347Q32.33-78.7471 36.8371-78.7471L136.719-78.7471Q141.152-78.7471 143.56-76.4347Q145.969-74.1222 145.969-69.4106L145.969-0.887508Q145.969 3.78093 143.56 6.09323Q141.152 8.40554 136.719 8.40554ZM86.9322-18.3465Q90.3794-18.3465 93.7082-19.8379Q97.0371-21.3293 100.385-24.615L151.171-74.4488L143.723-81.9152L94.0084-32.8496Q92.0289-30.9319 90.3126-30.069Q88.5963-29.2061 86.9322-29.2061Q85.2249-29.2061 83.4994-30.0783Q81.7739-30.9506 79.8128-32.8496L29.925-82.0887L22.5207-74.6223L73.4179-24.615Q76.7838-21.3293 80.1344-19.8379Q83.485-18.3465 86.9322-18.3465ZM142.863 10.4524L150.249 2.99257L109.698-36.9978L102.293-29.6118ZM23.4797 3.04157L30.8909 10.5633L71.5712-29.6118L64.1234-36.9978Z"/>
  </g>
  <g id="Medium-L" transform="matrix(1 0 0 1 1660.55 1556)">
   <path d="M35.9773 19.3548L137.333 19.3548Q146.178 19.3548 151.049 14.3539Q155.92 9.35312 155.92-0.34878L155.92-69.9849Q155.92-79.6868 150.86-84.6876Q145.799-89.6884 136.027-89.6884L34.6487-89.6884Q25.8255-89.6884 20.9548-84.6989Q16.084-79.7094 16.084-69.9849L16.084-0.34878Q16.084 9.37577 21.1332 14.3653Q26.1825 19.3548 35.9773 19.3548ZM35.9688 9.1889Q31.1971 9.1889 28.7051 6.71805Q26.213 4.24719 26.213-0.709087L26.213-69.6718Q26.213-74.5805 28.7051-77.0515Q31.1971-79.5226 35.9688-79.5226L135.988-79.5226Q140.67-79.5226 143.231-77.0515Q145.791-74.5805 145.791-69.6242L145.791-0.661825Q145.791 4.24719 143.231 6.71805Q140.67 9.1889 135.988 9.1889ZM86.1605-18.6826Q89.4554-18.6826 92.6799-20.1118Q95.9044-21.5411 99.1799-24.7467L150.319-74.8899L143.626-81.5937L93.4944-32.1468Q91.4787-30.1889 89.68-29.3058Q87.8812-28.4226 86.1605-28.4226Q84.3926-28.4226 82.5827-29.3171Q80.7728-30.2116 78.7794-32.1468L28.4583-81.7835L21.8126-75.0797L73.0834-24.7467Q76.3691-21.5411 79.6174-20.1118Q82.8657-18.6826 86.1605-18.6826ZM142.859 10.5697L149.47 3.8686L108.463-36.4626L101.829-29.8513ZM22.6911 3.93343L29.3278 10.7044L70.4924-29.8513L63.8112-36.4626Z"/>
  </g>
  <g id="Regular-L" transform="matrix(1 0 0 1 1364.88 1556)">
   <path d="M35.0976 18.4379L136.276 18.4379Q144.659 18.4379 149.249 13.7018Q153.84 8.96573 153.84-0.364701L153.84-69.9586Q153.84-79.289 149.039-84.0251Q144.237-88.7611 134.826-88.7611L33.62-88.7611Q25.2641-88.7611 20.6741-84.039Q16.084-79.3169 16.084-69.9586L16.084-0.364701Q16.084 8.99361 20.8712 13.7157Q25.6584 18.4379 35.0976 18.4379ZM34.8363 10.2107Q29.7195 10.2107 27.0416 7.53302Q24.3637 4.85536 24.3637-0.419996L24.3637-69.9558Q24.3637-75.1782 27.0416-77.8561Q29.7195-80.5339 34.8363-80.5339L135.034-80.5339Q140.041-80.5339 142.8-77.8561Q145.56-75.1782 145.56-69.9028L145.56-0.367456Q145.56 4.85536 142.8 7.53302Q140.041 10.2107 135.034 10.2107ZM85.154-19.121Q88.2502-19.121 91.3385-20.4692Q94.4269-21.8173 97.6085-24.9185L149.208-75.4652L143.499-81.1743L92.8241-31.2302Q90.7611-29.2197 88.8547-28.3102Q86.9484-27.4007 85.154-27.4007Q83.3071-27.4007 81.3871-28.3242Q79.4671-29.2476 77.4314-31.2302L26.5451-81.3854L20.889-75.6763L72.6471-24.9185Q75.8282-21.8173 78.9431-20.4692Q82.0579-19.121 85.154-19.121ZM142.854 10.7227L148.455 5.01126L106.852-35.7645L101.223-30.1637ZM21.6626 5.09673L27.289 10.8886L69.0852-30.1637L63.4039-35.7645Z"/>
  </g>
  <g id="Light-L" transform="matrix(1 0 0 1 1069.12 1556)">
   <path d="M34.067 17.541L134.864 17.541Q143.094 17.541 147.522 13.0052Q151.95 8.46936 151.95-0.307303L151.95-69.9778Q151.95-78.7545 147.388-83.2903Q142.825-87.8261 133.967-87.8261L33.1236-87.8261Q24.9396-87.8261 20.5118-83.3138Q16.084-78.8016 16.084-69.9778L16.084-0.307303Q16.084 8.51648 20.623 13.0287Q25.1621 17.541 34.067 17.541ZM33.9583 11.1839Q28.3073 11.1839 25.3909 8.2678Q22.4744 5.35174 22.4744-0.400757L22.4744-69.9177Q22.4744-75.6361 25.3909-78.5525Q28.3073-81.469 33.9583-81.469L134.042-81.469Q139.506-81.469 142.533-78.5525Q145.56-75.6361 145.56-69.8836L145.56-0.367456Q145.56 5.35174 142.533 8.2678Q139.506 11.1839 134.042 11.1839ZM84.3142-20.0753Q87.1051-20.0753 90.0216-21.2993Q92.9381-22.5234 95.9289-25.4338L148.063-76.3432L143.576-80.8309L92.0606-30.2186Q90.0168-28.2081 88.0436-27.3369Q86.0704-26.4657 84.3142-26.4657Q82.5247-26.4657 80.5284-27.3604Q78.532-28.2552 76.5346-30.2186L24.8848-80.9657L20.4311-76.4779L72.6663-25.4338Q75.6563-22.5234 78.5899-21.2993Q81.5234-20.0753 84.3142-20.0753ZM142.873 10.5508L147.233 6.00369L104.447-35.44L100.04-31.0798ZM21.128 6.20363L25.476 10.8312L68.5888-31.0798L64.1482-35.44Z"/>
  </g>
  <g id="Thin-L" transform="matrix(1 0 0 1 773.655 1556)">
   <path d="M32.704 16.3548L132.996 16.3548Q141.024 16.3548 145.238 12.0838Q149.452 7.81286 149.452-0.231391L149.452-70.0033Q149.452-78.0475 145.205-82.3185Q140.958-86.5894 132.832-86.5894L32.4671-86.5894Q24.5104-86.5894 20.2972-82.3548Q16.084-78.1201 16.084-70.0033L16.084-0.231391Q16.084 7.88543 20.2948 12.1201Q24.5056 16.3548 32.704 16.3548ZM32.7972 12.471Q26.4396 12.471 23.2076 9.23961Q19.9756 6.00823 19.9756-0.375311L19.9756-69.8672Q19.9756-76.2417 23.2076-79.4736Q26.4396-82.7056 32.7972-82.7056L132.729-82.7056Q138.799-82.7056 142.18-79.4736Q145.56-76.2417 145.56-69.8581L145.56-0.367456Q145.56 6.00823 142.18 9.23961Q138.799 12.471 132.729 12.471ZM83.2035-21.3374Q85.5907-21.3374 88.2798-22.3973Q90.969-23.4572 93.7075-26.1153L146.549-77.5043L143.677-80.3767L91.0509-28.8806Q89.0325-26.8701 86.9709-26.0496Q84.9093-25.229 83.2035-25.229Q81.4899-25.229 79.3927-26.0858Q77.2954-26.9426 75.3484-28.8806L22.6888-80.4106L19.8255-77.5382L72.6918-26.1153Q75.429-23.4572 78.1227-22.3973Q80.8164-21.3374 83.2035-21.3374ZM142.898 10.3235L145.618 7.31626L101.267-35.0108L98.4748-32.2914ZM20.4211 7.6676L23.0782 10.7553L67.9323-32.2914L65.1325-35.0108Z"/>
  </g>
  <g id="Ultralight-L" transform="matrix(1 0 0 1 477.583 1556)">
   <path d="M32.0059 15.7472L132.039 15.7472Q139.964 15.7472 144.068 11.6119Q148.172 7.47661 148.172-0.192509L148.172-70.0163Q148.172-77.6854 144.086-81.8207Q140.001-85.956 132.25-85.956L32.1309-85.956Q24.2906-85.956 20.1873-81.8635Q16.084-77.771 16.084-70.0163L16.084-0.192509Q16.084 7.5622 20.1266 11.6547Q24.1693 15.7472 32.0059 15.7472ZM32.2024 13.1302Q25.483 13.1302 22.0894 9.73737Q18.6958 6.34449 18.6958-0.362278L18.6958-69.8413Q18.6958-76.5519 22.0894-79.9454Q25.483-83.339 32.2024-83.339L132.057-83.339Q138.437-83.339 141.999-79.9454Q145.56-76.5519 145.56-69.8451L145.56-0.367456Q145.56 6.34449 141.999 9.73737Q138.437 13.1302 132.057 13.1302ZM82.6346-21.9838Q84.815-21.9838 87.3877-22.9597Q89.9605-23.9356 92.5697-26.4644L145.773-78.0991L143.728-80.1441L90.5337-28.1952Q88.5283-26.1847 86.4214-25.3902Q84.3145-24.5956 82.6346-24.5956Q80.9599-24.5956 78.8109-25.433Q76.662-26.2703 74.7408-28.1952L21.5641-80.1262L19.5153-78.0812L72.7048-26.4644Q75.3126-23.9356 77.8834-22.9597Q80.4543-21.9838 82.6346-21.9838ZM142.911 10.2071L144.79 7.98855L99.6378-34.791L97.6732-32.912ZM20.059 8.41744L21.85 10.7164L67.5961-32.912L65.6367-34.791Z"/>
  </g>
  <g id="Black-M" transform="matrix(1 0 0 1 2862.25 1126)">
   <path d="M31.6184 11.0232L110.839 11.0232Q119.792 11.0232 124.817 5.98429Q129.843 0.94535 129.843-8.11228L129.843-62.285Q129.843-71.3426 124.795-76.3815Q119.748-81.4205 110.685-81.4205L31.4647-81.4205Q22.5116-81.4205 17.4863-76.3814Q12.4609-71.3423 12.4609-62.285L12.4609-8.11228Q12.4609 0.945065 17.5084 5.98415Q22.5559 11.0232 31.6184 11.0232ZM32.841-5.24305Q30.5693-5.24305 29.4226-6.27555Q28.2759-7.30805 28.2759-9.8246L28.2759-60.5781Q28.2759-63.0892 29.4226-64.1217Q30.5693-65.1542 32.841-65.1542L109.457-65.1542Q111.73-65.1542 112.879-64.1217Q114.028-63.0892 114.028-60.5726L114.028-9.81911Q114.028-7.30805 112.879-6.27555Q111.73-5.24305 109.457-5.24305ZM71.1528-20.6934Q74.5268-20.6934 77.6003-22.136Q80.6738-23.5786 83.5842-26.4837L121.24-63.576L111.887-72.9855L75.2954-36.7648Q73.9607-35.4926 73.0452-34.9443Q72.1296-34.3959 71.1528-34.3959Q70.1705-34.3959 69.2551-34.9441Q68.3397-35.4924 67.0047-36.7648L30.3907-73.0075L21.0438-63.598L58.6589-26.4837Q61.6263-23.5786 64.7026-22.136Q67.7788-20.6934 71.1528-20.6934ZM110.71-0.517731L120.115-9.9212L90.7135-39.3247L81.3092-29.9201ZM22.187-9.9281L31.5974-0.519429L60.9965-29.9201L51.5867-39.3247Z"/>
  </g>
  <g id="Heavy-M" transform="matrix(1 0 0 1 2566.67 1126)">
   <path d="M30.7123 10.0407L109.788 10.0407Q118.181 10.0407 122.881 5.29808Q127.582 0.555457 127.582-8.14501L127.582-62.2471Q127.582-70.9476 122.816-75.6902Q118.05-80.4328 109.33-80.4328L30.2528-80.4328Q21.8618-80.4328 17.1614-75.6914Q12.4609-70.9499 12.4609-62.2471L12.4609-8.14501Q12.4609 0.557749 17.2259 5.29922Q21.9908 10.0407 30.7123 10.0407ZM31.578-4.14249Q28.9788-4.14249 27.6451-5.38884Q26.3115-6.63518 26.3115-9.45821L26.3115-60.9503Q26.3115-63.7569 27.6451-65.0033Q28.9788-66.2496 31.578-66.2496L108.448-66.2496Q111.038-66.2496 112.385-65.0033Q113.731-63.7569 113.731-60.9339L113.731-9.44182Q113.731-6.63518 112.385-5.38884Q111.038-4.14249 108.448-4.14249ZM70.0432-21.0503Q73.2281-21.0503 76.164-22.4156Q79.1-23.7809 81.9308-26.5931L120.062-64.1248L111.709-72.5218L74.6003-35.8073Q73.2007-34.4678 72.1617-33.8774Q71.1227-33.2869 70.0432-33.2869Q68.9473-33.2869 67.9071-33.8785Q66.867-34.4701 65.4697-35.8073L28.2953-72.5874L19.9583-64.1905L58.0955-26.5931Q60.97-23.7809 63.9141-22.4156Q66.8583-21.0503 70.0432-21.0503ZM110.699-0.284736L119.075-8.66984L89.1651-38.4997L80.7868-30.1237ZM20.9835-8.67488L29.3737-0.271098L59.2995-30.1237L50.9049-38.4997Z"/>
  </g>
  <g id="Bold-M" transform="matrix(1 0 0 1 2271.22 1126)">
   <path d="M29.6986 8.94158L108.611 8.94158Q116.379 8.94158 120.716 4.53044Q125.053 0.119306 125.053-8.18163L125.053-62.2048Q125.053-70.5057 120.601-74.9169Q116.15-79.328 107.815-79.328L28.8972-79.328Q21.1349-79.328 16.7979-74.9194Q12.4609-70.5109 12.4609-62.2048L12.4609-8.18163Q12.4609 0.124481 16.9098 4.53303Q21.3587 8.94158 29.6986 8.94158ZM30.1652-2.91135Q27.1995-2.91135 25.6568-4.39692Q24.1141-5.88249 24.1141-9.04834L24.1141-61.3667Q24.1141-64.5038 25.6568-65.9895Q27.1995-67.4751 30.1652-67.4751L107.32-67.4751Q110.265-67.4751 111.832-65.9895Q113.4-64.5038 113.4-61.338L113.4-9.01976Q113.4-5.88249 111.832-4.39692Q110.265-2.91135 107.32-2.91135ZM68.8019-21.4496Q71.7752-21.4496 74.5573-22.7285Q77.3394-24.0074 80.0813-26.7156L118.745-64.7387L111.509-72.0031L73.8226-34.7362Q72.3506-33.3213 71.1734-32.6839Q69.9962-32.0465 68.8019-32.0465Q67.579-32.0465 66.3992-32.6865Q65.2195-33.3265 63.7526-34.7362L25.9512-72.1176L18.7441-64.8532L57.4653-26.7156Q60.2358-24.0074 63.0322-22.7285Q65.8286-21.4496 68.8019-21.4496ZM110.687-0.0240985L117.912-7.27001L87.4331-37.5768L80.2025-30.3514ZM19.6373-7.27298L26.8862 0.00669537L57.4013-30.3514L50.1421-37.5768Z"/>
  </g>
  <g id="Semibold-M" transform="matrix(1 0 0 1 1975.38 1126)">
   <path d="M28.9999 8.18386L107.8 8.18386Q115.136 8.18386 119.223 4.00124Q123.309-0.181374 123.309-8.20687L123.309-62.1756Q123.309-70.2011 119.075-74.3837Q114.84-78.5663 106.77-78.5663L27.9626-78.5663Q20.6337-78.5663 16.5473-74.3873Q12.4609-70.2083 12.4609-62.1756L12.4609-8.20687Q12.4609-0.174211 16.6919 4.00483Q20.9229 8.18386 28.9999 8.18386ZM29.1912-2.06262Q25.9729-2.06262 24.286-3.7131Q22.5992-5.36359 22.5992-8.76578L22.5992-61.6537Q22.5992-65.0188 24.286-66.6693Q25.9729-68.3199 29.1912-68.3199L106.542-68.3199Q109.732-68.3199 111.451-66.6693Q113.171-65.0188 113.171-61.6166L113.171-8.7288Q113.171-5.36359 111.451-3.7131Q109.732-2.06262 106.542-2.06262ZM67.9462-21.7249Q70.7736-21.7249 73.4496-22.9441Q76.1256-24.1634 78.8063-26.8L117.837-65.162L111.372-71.6454L73.2865-33.9978Q71.7645-32.531 70.4921-31.8611Q69.2197-31.1913 67.9462-31.1913Q66.6356-31.1913 65.3597-31.8647Q64.0837-32.5381 62.5688-33.9978L24.3353-71.7936L17.9071-65.3102L57.0309-26.8Q59.7296-24.1634 62.4241-22.9441Q65.1187-21.7249 67.9462-21.7249ZM110.678 0.155584L117.111-6.30498L86.239-36.9406L79.7997-30.5084ZM18.7091-6.30651L25.1714 0.198205L56.0926-30.5084L49.6163-36.9406Z"/>
  </g>
  <g id="Medium-M" transform="matrix(1 0 0 1 1679.33 1126)">
   <path d="M28.47 7.60933L107.185 7.60933Q114.194 7.60933 118.091 3.59998Q121.987-0.409362 121.987-8.22602L121.987-62.1535Q121.987-69.9701 117.917-73.9795Q113.847-77.9888 105.978-77.9888L27.254-77.9888Q20.2537-77.9888 16.3573-73.9838Q12.4609-69.9788 12.4609-62.1535L12.4609-8.22602Q12.4609-0.400692 16.5267 3.60432Q20.5925 7.60933 28.47 7.60933ZM28.4527-1.41907Q25.0428-1.41907 23.2466-3.1946Q21.4505-4.97013 21.4505-8.55153L21.4505-61.8713Q21.4505-65.4092 23.2466-67.1848Q25.0428-68.9604 28.4527-68.9604L105.952-68.9604Q109.327-68.9604 111.162-67.1848Q112.998-65.4092 112.998-61.8278L112.998-8.50818Q112.998-4.97013 111.162-3.1946Q109.327-1.41907 105.952-1.41907ZM67.2973-21.9336Q70.0142-21.9336 72.6097-23.1077Q75.2053-24.2818 77.8395-26.864L117.149-65.4829L111.268-71.3743L72.88-33.4379Q71.3201-31.9317 69.9755-31.2373Q68.6309-30.5428 67.2973-30.5428Q65.9203-30.5428 64.5715-31.2416Q63.2226-31.9403 61.6712-33.4379L23.11-71.548L17.2724-65.6566L56.7015-26.864Q59.3458-24.2818 61.9631-23.1077Q64.5804-21.9336 67.2973-21.9336ZM110.672 0.291826L116.503-5.57326L85.3336-36.4581L79.4943-30.6275ZM18.0054-5.57369L23.8711 0.343415L55.1003-30.6275L49.2176-36.4581Z"/>
  </g>
  <g id="Regular-M" transform="matrix(1 0 0 1 1383.48 1126)">
   <path d="M27.7789 6.85994L106.383 6.85994Q112.965 6.85994 116.614 3.0766Q120.263-0.706738 120.263-8.25098L120.263-62.1246Q120.263-69.6688 116.407-73.4522Q112.552-77.2355 104.945-77.2355L26.3297-77.2355Q19.7581-77.2355 16.1095-73.4575Q12.4609-69.6795 12.4609-62.1246L12.4609-8.25098Q12.4609-0.696102 16.3112 3.08192Q20.1615 6.85994 27.7789 6.85994ZM27.4894-0.579661Q23.8297-0.579661 21.8909-2.5183Q19.9522-4.45693 19.9522-8.27208L19.9522-62.1552Q19.9522-65.9185 21.8909-67.8572Q23.8297-69.7959 27.4894-69.7959L105.182-69.7959Q108.8-69.7959 110.786-67.8572Q112.771-65.9185 112.771-62.1033L112.771-8.22041Q112.771-4.45693 110.786-2.5183Q108.8-0.579661 105.182-0.579661ZM66.451-22.2058Q69.0236-22.2058 71.5142-23.321Q74.0049-24.4361 76.5785-26.9475L116.251-65.9015L111.131-71.0206L72.3498-32.7076Q70.7405-31.15 69.3017-30.4235Q67.8629-29.697 66.451-29.697Q64.9874-29.697 63.5433-30.4288Q62.0993-31.1606 60.5005-32.7076L21.5118-71.2276L16.4445-66.1085L56.2718-26.9475Q58.8452-24.4361 61.3618-23.321Q63.8783-22.2058 66.451-22.2058ZM110.664 0.469534L115.71-4.61883L84.1527-35.8289L79.0959-30.7827ZM17.0875-4.61785L22.1751 0.532819L53.8061-30.7827L48.6976-35.8289Z"/>
  </g>
  <g id="Light-M" transform="matrix(1 0 0 1 1087.62 1126)">
   <path d="M26.8549 6.05584L105.117 6.05584Q111.562 6.05584 115.066 2.45204Q118.569-1.15176 118.569-8.19952L118.569-62.1419Q118.569-69.1896 114.927-72.7934Q111.285-76.3972 104.175-76.3972L25.8847-76.3972Q19.4672-76.3972 15.9641-72.8074Q12.4609-69.2175 12.4609-62.1419L12.4609-8.19952Q12.4609-1.12388 16.0887 2.46598Q19.7165 6.05584 26.8549 6.05584ZM26.7023 0.292854Q22.5636 0.292854 20.411-1.85953Q18.2583-4.01191 18.2583-8.25483L18.2583-62.121Q18.2583-66.329 20.411-68.4816Q22.5636-70.6342 26.7023-70.6342L104.293-70.6342Q108.321-70.6342 110.546-68.4816Q112.771-66.329 112.771-62.0861L112.771-8.22041Q112.771-4.01191 110.546-1.85953Q108.321 0.292854 104.293 0.292854ZM65.698-23.0613Q67.997-23.0613 70.3335-24.0653Q72.6701-25.0692 75.0726-27.4095L115.224-66.6886L111.2-70.7127L71.6653-31.8006Q70.0733-30.243 68.5745-29.5509Q67.0757-28.8587 65.698-28.8587Q64.2859-28.8587 62.7735-29.5648Q61.261-30.2709 59.6964-31.8006L20.0232-70.8513L16.034-66.8272L56.289-27.4095Q58.6911-25.0692 61.0451-24.0653Q63.3991-23.0613 65.698-23.0613ZM110.681 0.315442L114.615-3.72906L81.9968-35.538L78.0351-31.6041ZM16.6083-3.62545L20.5496 0.48136L53.361-31.6041L49.3648-35.538Z"/>
  </g>
  <g id="Thin-M" transform="matrix(1 0 0 1 792.028 1126)">
   <path d="M25.6329 4.99236L103.443 4.99236Q109.706 4.99236 113.017 1.62601Q116.329-1.74035 116.329-8.13146L116.329-62.1647Q116.329-68.5558 112.97-71.9221Q109.611-75.2885 103.157-75.2885L25.2961-75.2885Q19.0824-75.2885 15.7717-71.9475Q12.4609-68.6065 12.4609-62.1647L12.4609-8.13146Q12.4609-1.68965 15.7944 1.65136Q19.1279 4.99236 25.6329 4.99236ZM25.6613 1.44683Q20.8891 1.44683 18.4536-0.988249Q16.0181-3.42332 16.0181-8.23202L16.0181-62.0757Q16.0181-66.872 18.4536-69.3075Q20.8891-71.743 25.6613-71.743L103.116-71.743Q107.687-71.743 110.229-69.3075Q112.771-66.872 112.771-62.0633L112.771-8.22041Q112.771-3.42332 110.229-0.988249Q107.687 1.44683 103.116 1.44683ZM64.7022-24.1929Q66.6392-24.1929 68.772-25.0497Q70.9047-25.9064 73.081-28.0205L113.866-67.7297L111.29-70.3055L70.76-30.601Q69.1908-29.0434 67.6127-28.3967Q66.0347-27.75 64.7022-27.75Q63.3582-27.75 61.7552-28.422Q60.1523-29.0941 58.6329-30.601L18.0544-70.3536L15.491-67.7778L56.3118-28.0205Q58.4873-25.9064 60.6263-25.0497Q62.7653-24.1929 64.7022-24.1929ZM110.704 0.111644L113.167-2.55228L79.1456-35.1532L76.632-32.6904ZM15.9744-2.31293L18.3998 0.4133L52.7724-32.6904L50.2473-35.1532Z"/>
  </g>
  <g id="Ultralight-M" transform="matrix(1 0 0 1 495.89 1126)">
   <path d="M25.007 4.44766L102.585 4.44766Q108.756 4.44766 111.968 1.20292Q115.181-2.04182 115.181-8.0966L115.181-62.1763Q115.181-68.2311 111.967-71.4759Q108.753-74.7206 102.635-74.7206L24.9946-74.7206Q18.8853-74.7206 15.6731-71.5071Q12.4609-68.2935 12.4609-62.1763L12.4609-8.0966Q12.4609-1.97943 15.6437 1.23411Q18.8264 4.44766 25.007 4.44766ZM25.128 2.03788Q20.0314 2.03788 17.451-0.541985Q14.8706-3.12186 14.8706-8.22033L14.8706-62.0525Q14.8706-67.1501 17.451-69.7304Q20.0314-72.3108 25.128-72.3108L102.513-72.3108Q107.362-72.3108 110.067-69.7304Q112.771-67.1501 112.771-62.0516L112.771-8.22041Q112.771-3.12186 110.067-0.541985Q107.362 2.03788 102.513 2.03788ZM64.1922-24.7724Q65.9438-24.7724 67.9721-25.5539Q70.0005-26.3353 72.061-28.3334L113.171-68.2629L111.337-70.0969L70.2963-29.9866Q68.7388-28.4289 67.1201-27.8055Q65.5015-27.1821 64.1922-27.1821Q62.883-27.1821 61.2337-27.8367Q59.5844-28.4913 58.0882-29.9866L17.046-70.0987L15.2129-68.2646L56.3235-28.3334Q58.3829-26.3353 60.4118-25.5539Q62.4406-24.7724 64.1922-24.7724ZM110.716 0.007259L112.425-1.94954L77.6851-34.9561L75.9134-33.2468ZM15.6498-1.64066L17.2987 0.37844L52.471-33.2468L50.6993-34.9561Z"/>
  </g>
  <g id="Black-S" transform="matrix(1 0 0 1 2877.35 696)">
   <path d="M25 1.26953L87.1094 1.26953Q94.2871 1.26953 98.3154-2.75879Q102.344-6.78711 102.344-13.9648L102.344-56.4453Q102.344-63.623 98.3154-67.6514Q94.2871-71.6797 87.1094-71.6797L25-71.6797Q17.8223-71.6797 13.7939-67.6514Q9.76562-63.623 9.76562-56.4453L9.76562-13.9648Q9.76562-6.78711 13.7939-2.75879Q17.8223 1.26953 25 1.26953ZM26.0742-12.0117Q24.3652-12.0117 23.5107-12.7686Q22.6562-13.5254 22.6562-15.4297L22.6562-54.9805Q22.6562-56.8848 23.5107-57.6416Q24.3652-58.3984 26.0742-58.3984L86.0352-58.3984Q87.7441-58.3984 88.5986-57.6416Q89.4531-56.8848 89.4531-54.9805L89.4531-15.4297Q89.4531-13.5254 88.5986-12.7686Q87.7441-12.0117 86.0352-12.0117ZM56.0547-23.7793Q58.7402-23.7793 61.1816-24.9268Q63.623-26.0742 65.918-28.3691L95.3125-57.3242L87.7441-64.9414L59.1797-36.6699Q58.1543-35.6934 57.4707-35.2783Q56.7871-34.8633 56.0547-34.8633Q55.3223-34.8633 54.6387-35.2783Q53.9551-35.6934 52.9297-36.6699L24.3652-64.9414L16.7969-57.3242L46.1426-28.3691Q48.4863-26.0742 50.9277-24.9268Q53.3691-23.7793 56.0547-23.7793ZM86.7676-8.10547L94.3848-15.7227L71.4355-38.6719L63.8184-31.0547ZM17.7246-15.7227L25.3418-8.10547L48.291-31.0547L40.6738-38.6719Z"/>
  </g>
  <g id="Heavy-S" transform="matrix(1 0 0 1 2581.49 696)">
   <path d="M24.3431 0.531965L86.3718 0.531965Q93.0886 0.531965 96.8576-3.26587Q100.627-7.0637 100.627-13.9994L100.627-56.4107Q100.627-63.3465 96.8115-67.1443Q92.9964-70.9421 86.0491-70.9421L24.0204-70.9421Q17.3037-70.9421 13.5346-67.1443Q9.76562-63.3465 9.76562-56.4107L9.76562-13.9994Q9.76562-7.0637 13.5807-3.26587Q17.3959 0.531965 24.3431 0.531965ZM25.0946-11.182Q23.1667-11.182 22.1797-12.0944Q21.1926-13.0068 21.1926-15.1185L21.1926-55.3032Q21.1926-57.4034 22.1797-58.3158Q23.1667-59.2282 25.0946-59.2282L85.2861-59.2282Q87.214-59.2282 88.2068-58.3158Q89.1996-57.4034 89.1996-55.2916L89.1996-15.107Q89.1996-13.0068 88.2068-12.0944Q87.214-11.182 85.2861-11.182ZM55.2019-23.9752Q57.7607-23.9752 60.1041-25.0708Q62.4476-26.1664 64.6964-28.4037L94.4366-57.693L87.5828-64.5841L58.6726-35.9669Q57.5896-34.9327 56.808-34.4774Q56.0265-34.022 55.2019-34.022Q54.3657-34.022 53.5842-34.4774Q52.8026-34.9327 51.7196-35.9669L22.7633-64.6302L15.921-57.7391L45.6586-28.4037Q47.9447-26.1664 50.2939-25.0708Q52.6431-23.9752 55.2019-23.9752ZM86.7561-7.8865L93.6357-14.7661L70.3868-38.0035L63.5072-31.1238ZM16.7566-14.7777L23.6477-7.8865L46.8966-31.1238L40.0054-38.0035Z"/>
  </g>
  <g id="Bold-S" transform="matrix(1 0 0 1 2285.74 696)">
   <path d="M23.6084-0.292969L85.5469-0.292969Q91.748-0.292969 95.2271-3.83301Q98.7061-7.37305 98.7061-14.0381L98.7061-56.3721Q98.7061-63.0371 95.1294-66.5771Q91.5527-70.1172 84.8633-70.1172L22.9248-70.1172Q16.7236-70.1172 13.2446-66.5771Q9.76562-63.0371 9.76562-56.3721L9.76562-14.0381Q9.76562-7.37305 13.3423-3.83301Q16.9189-0.292969 23.6084-0.292969ZM23.999-10.2539Q21.8262-10.2539 20.6909-11.3403Q19.5557-12.4268 19.5557-14.7705L19.5557-55.6641Q19.5557-57.9834 20.6909-59.0698Q21.8262-60.1562 23.999-60.1562L84.4482-60.1562Q86.6211-60.1562 87.7686-59.0698Q88.916-57.9834 88.916-55.6396L88.916-14.7461Q88.916-12.4268 87.7686-11.3403Q86.6211-10.2539 84.4482-10.2539ZM54.248-24.1943Q56.665-24.1943 58.8989-25.2319Q61.1328-26.2695 63.3301-28.4424L93.457-58.1055L87.4023-64.1846L58.1055-35.1807Q56.958-34.082 56.0669-33.5815Q55.1758-33.0811 54.248-33.0811Q53.2959-33.0811 52.4048-33.5815Q51.5137-34.082 50.3662-35.1807L20.9717-64.2822L14.9414-58.2031L45.1172-28.4424Q47.3389-26.2695 49.585-25.2319Q51.8311-24.1943 54.248-24.1943ZM86.7432-7.6416L92.7979-13.6963L69.2139-37.2559L63.1592-31.2012ZM15.6738-13.7207L21.7529-7.6416L45.3369-31.2012L39.2578-37.2559Z"/>
  </g>
  <g id="Semibold-S" transform="matrix(1 0 0 1 1989.69 696)">
   <path d="M23.1019-0.861719L84.9781-0.861719Q90.8238-0.861719 94.1029-4.22402Q97.3819-7.58633 97.3819-14.0647L97.3819-56.3454Q97.3819-62.8238 93.9697-66.1861Q90.5574-69.5484 84.0457-69.5484L22.1694-69.5484Q16.3237-69.5484 13.0447-66.1861Q9.76562-62.8238 9.76562-56.3454L9.76562-14.0647Q9.76562-7.58633 13.1779-4.22402Q16.5901-0.861719 23.1019-0.861719ZM23.2437-9.61406Q20.902-9.61406 19.6645-10.8205Q18.4271-12.0269 18.4271-14.5306L18.4271-55.9129Q18.4271-58.3833 19.6645-59.5897Q20.902-60.7961 23.2437-60.7961L83.8706-60.7961Q86.2123-60.7961 87.4664-59.5897Q88.7205-58.3833 88.7205-55.8796L88.7205-14.4973Q88.7205-12.0269 87.4664-10.8205Q86.2123-9.61406 83.8706-9.61406ZM53.5904-24.3454Q55.9097-24.3454 58.068-25.343Q60.2264-26.3406 62.3881-28.469L92.7816-58.3898L87.2779-63.9091L57.7145-34.6386Q56.5226-33.4955 55.5559-32.9639Q54.5893-32.4323 53.5904-32.4323Q52.5583-32.4323 51.5917-32.9639Q50.625-33.4955 49.4331-34.6386L19.7364-64.0423L14.266-58.523L44.7439-28.469Q46.9212-26.3406 49.0962-25.343Q51.2712-24.3454 53.5904-24.3454ZM86.7343-7.47275L92.2202-12.9587L68.4052-36.7404L62.9192-31.2545ZM14.9273-12.992L20.4466-7.47275L44.2616-31.2545L38.7424-36.7404Z"/>
  </g>
  <g id="Medium-S" transform="matrix(1 0 0 1 1693.48 696)">
   <path d="M22.7178-1.29297L84.5469-1.29297Q90.123-1.29297 93.2505-4.52051Q96.3779-7.74805 96.3779-14.085L96.3779-56.3252Q96.3779-62.6621 93.0903-65.8896Q89.8027-69.1172 83.4258-69.1172L21.5967-69.1172Q16.0205-69.1172 12.8931-65.8896Q9.76562-62.6621 9.76562-56.3252L9.76562-14.085Q9.76562-7.74805 13.0532-4.52051Q16.3408-1.29297 22.7178-1.29297ZM22.6709-9.12891Q20.2012-9.12891 18.8862-10.4263Q17.5713-11.7236 17.5713-14.3486L17.5713-56.1016Q17.5713-58.6865 18.8862-59.9839Q20.2012-61.2812 22.6709-61.2812L83.4326-61.2812Q85.9023-61.2812 87.2373-59.9839Q88.5723-58.6865 88.5723-56.0615L88.5723-14.3086Q88.5723-11.7236 87.2373-10.4263Q85.9023-9.12891 83.4326-9.12891ZM53.0918-24.46Q55.3369-24.46 57.438-25.4272Q59.5391-26.3945 61.6738-28.4893L92.2695-58.6055L87.1836-63.7002L57.418-34.2275Q56.1924-33.0508 55.1685-32.4956Q54.1445-31.9404 53.0918-31.9404Q51.999-31.9404 50.9751-32.4956Q49.9512-33.0508 48.7256-34.2275L18.7998-63.8604L13.7539-58.7656L44.4609-28.4893Q46.6045-26.3945 48.7256-25.4272Q50.8467-24.46 53.0918-24.46ZM86.7275-7.34473L91.7822-12.3994L67.792-36.3496L62.7373-31.2949ZM14.3613-12.4395L19.4561-7.34473L43.4463-31.2949L38.3516-36.3496Z"/>
  </g>
  <g id="Regular-S" transform="matrix(1 0 0 1 1397.43 696)">
   <path d="M22.2168-1.85547L83.9844-1.85547Q89.209-1.85547 92.1387-4.90723Q95.0684-7.95898 95.0684-14.1113L95.0684-56.2988Q95.0684-62.4512 91.9434-65.5029Q88.8184-68.5547 82.6172-68.5547L20.8496-68.5547Q15.625-68.5547 12.6953-65.5029Q9.76562-62.4512 9.76562-56.2988L9.76562-14.1113Q9.76562-7.95898 12.8906-4.90723Q16.0156-1.85547 22.2168-1.85547ZM21.9238-8.49609Q19.2871-8.49609 17.8711-9.91211Q16.4551-11.3281 16.4551-14.1113L16.4551-56.3477Q16.4551-59.082 17.8711-60.498Q19.2871-61.9141 21.9238-61.9141L82.8613-61.9141Q85.498-61.9141 86.9385-60.498Q88.3789-59.082 88.3789-56.2988L88.3789-14.0625Q88.3789-11.3281 86.9385-9.91211Q85.498-8.49609 82.8613-8.49609ZM52.4414-24.6094Q54.5898-24.6094 56.6162-25.5371Q58.6426-26.4648 60.7422-28.5156L91.6016-58.8867L87.0605-63.4277L57.0312-33.6914Q55.7617-32.4707 54.6631-31.8848Q53.5645-31.2988 52.4414-31.2988Q51.2695-31.2988 50.1709-31.8848Q49.0723-32.4707 47.8027-33.6914L17.5781-63.623L13.0859-59.082L44.0918-28.5156Q46.1914-26.4648 48.2422-25.5371Q50.293-24.6094 52.4414-24.6094ZM86.7188-7.17773L91.2109-11.6699L66.9922-35.8398L62.5-31.3477ZM13.623-11.7188L18.1641-7.17773L42.3828-31.3477L37.8418-35.8398Z"/>
  </g>
  <g id="Light-S" transform="matrix(1 0 0 1 1101.47 696)">
   <path d="M21.3994-2.56678L82.8644-2.56678Q87.9677-2.56678 90.7688-5.45972Q93.5699-8.35266 93.5699-14.0658L93.5699-56.3141Q93.5699-62.0272 90.6342-64.9202Q87.6984-67.8131 81.9361-67.8131L20.4559-67.8131Q15.3676-67.8131 12.5666-64.9278Q9.76562-62.0425 9.76562-56.3141L9.76562-14.0658Q9.76562-8.3374 12.6938-5.45209Q15.6219-2.56678 21.3994-2.56678ZM21.2275-7.72425Q18.1671-7.72425 16.5619-9.32935Q14.9567-10.9344 14.9567-14.0961L14.9567-56.3174Q14.9567-59.4452 16.5619-61.0504Q18.1671-62.6556 21.2275-62.6556L82.0742-62.6556Q85.0741-62.6556 86.7265-61.0504Q88.3789-59.4452 88.3789-56.2836L88.3789-14.0625Q88.3789-10.9344 86.7265-9.32935Q85.0741-7.72425 82.0742-7.72425ZM51.7754-25.3662Q53.6817-25.3662 55.5717-26.1955Q57.4618-27.0248 59.4101-28.9243L90.6934-59.583L87.1211-63.1554L56.4257-32.889Q55.1715-31.6683 54.0198-31.1128Q52.8681-30.5573 51.7754-30.5573Q50.649-30.5573 49.4898-31.1204Q48.3307-31.6836 47.0914-32.889L16.2613-63.2902L12.7228-59.7178L44.1071-28.9243Q46.0551-27.0248 47.9621-26.1955Q49.869-25.3662 51.7754-25.3662ZM86.734-7.31405L90.2423-10.8828L65.0851-35.5825L61.5616-32.0742ZM13.1991-10.8409L16.7262-7.22326L41.9891-32.0742L38.4321-35.5825Z"/>
  </g>
  <g id="Thin-S" transform="matrix(1 0 0 1 805.745 696)">
   <path d="M20.3184-3.50755L81.3831-3.50755Q86.326-3.50755 88.9571-6.19044Q91.5882-8.87333 91.5882-14.0056L91.5882-56.3343Q91.5882-61.4665 88.9026-64.1494Q86.2171-66.8323 81.0354-66.8323L19.9353-66.8323Q15.0272-66.8323 12.3964-64.1671Q9.76562-61.502 9.76562-56.3343L9.76562-14.0056Q9.76562-8.83789 12.4335-6.17272Q15.1013-3.50755 20.3184-3.50755ZM20.3066-6.70343Q16.6858-6.70343 14.8304-8.55861Q12.9749-10.4138 12.9749-14.0759L12.9749-56.2774Q12.9749-59.9255 14.8304-61.781Q16.6858-63.6364 20.3066-63.6364L81.0332-63.6364Q84.5134-63.6364 86.4462-61.781Q88.3789-59.9255 88.3789-56.2634L88.3789-14.0625Q88.3789-10.4138 86.4462-8.55861Q84.5134-6.70343 81.0332-6.70343ZM50.8945-26.3672Q52.4806-26.3672 54.1904-27.0663Q55.9001-27.7655 57.6483-29.4648L89.4923-60.504L87.2011-62.7951L55.6249-31.8279Q54.3908-30.6072 53.169-30.0918Q51.9472-29.5765 50.8945-29.5765Q49.8283-29.5765 48.5891-30.1095Q47.3499-30.6426 46.1507-31.8279L14.5197-62.8499L12.2425-60.5587L44.1272-29.4648Q45.8748-27.7655 47.5916-27.0663Q49.3083-26.3672 50.8945-26.3672ZM86.7542-7.49433L88.9611-9.84182L62.5628-35.2421L60.3205-33.0352ZM12.6384-9.67978L14.8245-7.28346L41.4685-33.0352L39.2127-35.2421Z"/>
  </g>
  <g id="Ultralight-S" transform="matrix(1 0 0 1 509.542 696)">
   <path d="M19.7647-3.98941L80.6244-3.98941Q85.4851-3.98941 88.0291-6.56471Q90.5731-9.14001 90.5731-13.9748L90.5731-56.3446Q90.5731-61.1794 88.0157-63.7547Q85.4584-66.33 80.574-66.33L19.6686-66.33Q14.8529-66.33 12.3093-63.7775Q9.76562-61.2251 9.76562-56.3446L9.76562-13.9748Q9.76562-9.09424 12.3001-6.54182Q14.8346-3.98941 19.7647-3.98941ZM19.8349-6.18057Q15.9271-6.18057 13.9435-8.16383Q11.9598-10.1471 11.9598-14.0656L11.9598-56.2569Q11.9598-60.1715 13.9435-62.1552Q15.9271-64.1388 19.8349-64.1388L80.5-64.1388Q84.2262-64.1388 86.3026-62.1552Q88.3789-60.1715 88.3789-56.2531L88.3789-14.0625Q88.3789-10.1471 86.3026-8.16383Q84.2262-6.18057 80.5-6.18057ZM50.4433-26.8799Q51.8654-26.8799 53.4828-27.5124Q55.1003-28.1448 56.7459-29.7417L88.8771-60.9756L87.2421-62.6106L55.2147-31.2843Q53.9909-30.0636 52.7332-29.5689Q51.4755-29.0741 50.4433-29.0741Q49.408-29.0741 48.1277-29.5918Q46.8475-30.1094 45.6688-31.2843L13.6276-62.6244L11.9965-60.9894L44.1376-29.7417Q45.7825-28.1448 47.4018-27.5124Q49.0211-26.8799 50.4433-26.8799ZM86.7645-7.58667L88.3049-9.30862L61.2709-35.0677L59.6848-33.5274ZM12.3512-9.08508L13.8504-7.3143L41.2018-33.5274L39.6126-35.0677Z"/>
  </g>
 </g>
</svg>
