<?xml version="1.0" encoding="UTF-8"?>
<!--Generator: Apple Native CoreSVG 175-->
<!DOCTYPE svg
PUBLIC "-//W3C//DTD SVG 1.1//EN"
       "http://www.w3.org/Graphics/SVG/1.1/DTD/svg11.dtd">
<svg version="1.1" xmlns="http://www.w3.org/2000/svg" xmlns:xlink="http://www.w3.org/1999/xlink" width="3300" height="2200">
 <!--glyph: "uni100441.medium", point size: 100.0, font version: "17.1d1e1", template writer version: "65.1"-->
 <g id="Notes">
  <rect height="2200" id="artboard" style="fill:white;opacity:1" width="3300" x="0" y="0"/>
  <line style="fill:none;stroke:black;opacity:1;stroke-width:0.5;" x1="263" x2="3036" y1="292" y2="292"/>
  <text style="stroke:none;fill:black;font-family:sans-serif;font-size:13;font-weight:bold;" transform="matrix(1 0 0 1 263 322)">Weight/Scale Variations</text>
  <text style="stroke:none;fill:black;font-family:sans-serif;font-size:13;text-anchor:middle;" transform="matrix(1 0 0 1 559.711 322)">Ultralight</text>
  <text style="stroke:none;fill:black;font-family:sans-serif;font-size:13;text-anchor:middle;" transform="matrix(1 0 0 1 856.422 322)">Thin</text>
  <text style="stroke:none;fill:black;font-family:sans-serif;font-size:13;text-anchor:middle;" transform="matrix(1 0 0 1 1153.13 322)">Light</text>
  <text style="stroke:none;fill:black;font-family:sans-serif;font-size:13;text-anchor:middle;" transform="matrix(1 0 0 1 1449.84 322)">Regular</text>
  <text style="stroke:none;fill:black;font-family:sans-serif;font-size:13;text-anchor:middle;" transform="matrix(1 0 0 1 1746.56 322)">Medium</text>
  <text style="stroke:none;fill:black;font-family:sans-serif;font-size:13;text-anchor:middle;" transform="matrix(1 0 0 1 2043.27 322)">Semibold</text>
  <text style="stroke:none;fill:black;font-family:sans-serif;font-size:13;text-anchor:middle;" transform="matrix(1 0 0 1 2339.98 322)">Bold</text>
  <text style="stroke:none;fill:black;font-family:sans-serif;font-size:13;text-anchor:middle;" transform="matrix(1 0 0 1 2636.69 322)">Heavy</text>
  <text style="stroke:none;fill:black;font-family:sans-serif;font-size:13;text-anchor:middle;" transform="matrix(1 0 0 1 2933.4 322)">Black</text>
  <line style="fill:none;stroke:black;opacity:1;stroke-width:0.5;" x1="263" x2="3036" y1="1903" y2="1903"/>
  <g transform="matrix(1 0 0 1 263 1933)">
   <path d="M9.24805 0.830078Q10.8691 0.830078 12.2949 0.214844Q13.7207-0.400391 14.8096-1.49414Q15.8984-2.58789 16.5186-4.01367Q17.1387-5.43945 17.1387-7.05078Q17.1387-8.66211 16.5186-10.0879Q15.8984-11.5137 14.8047-12.6074Q13.7109-13.7012 12.2852-14.3164Q10.8594-14.9316 9.23828-14.9316Q7.62695-14.9316 6.20117-14.3164Q4.77539-13.7012 3.69141-12.6074Q2.60742-11.5137 1.9873-10.0879Q1.36719-8.66211 1.36719-7.05078Q1.36719-5.43945 1.9873-4.01367Q2.60742-2.58789 3.69629-1.49414Q4.78516-0.400391 6.21094 0.214844Q7.63672 0.830078 9.24805 0.830078ZM9.24805-0.654297Q7.91992-0.654297 6.7627-1.14746Q5.60547-1.64062 4.73145-2.51953Q3.85742-3.39844 3.36426-4.56055Q2.87109-5.72266 2.87109-7.05078Q2.87109-8.37891 3.35938-9.54102Q3.84766-10.7031 4.72168-11.582Q5.5957-12.4609 6.75293-12.9541Q7.91016-13.4473 9.23828-13.4473Q10.5762-13.4473 11.7334-12.9541Q12.8906-12.4609 13.7695-11.582Q14.6484-10.7031 15.1465-9.54102Q15.6445-8.37891 15.6445-7.05078Q15.6445-5.72266 15.1514-4.56055Q14.6582-3.39844 13.7842-2.51953Q12.9102-1.64062 11.748-1.14746Q10.5859-0.654297 9.24805-0.654297ZM5.6543-7.05078Q5.6543-6.72852 5.85938-6.52832Q6.06445-6.32812 6.40625-6.32812L8.51562-6.32812L8.51562-4.20898Q8.51562-3.88672 8.71094-3.67676Q8.90625-3.4668 9.23828-3.4668Q9.56055-3.4668 9.77051-3.67676Q9.98047-3.88672 9.98047-4.20898L9.98047-6.32812L12.0898-6.32812Q12.4219-6.32812 12.627-6.52832Q12.832-6.72852 12.832-7.05078Q12.832-7.38281 12.627-7.58789Q12.4219-7.79297 12.0898-7.79297L9.98047-7.79297L9.98047-9.90234Q9.98047-10.2344 9.77051-10.4443Q9.56055-10.6543 9.23828-10.6543Q8.90625-10.6543 8.71094-10.4443Q8.51562-10.2344 8.51562-9.90234L8.51562-7.79297L6.40625-7.79297Q6.06445-7.79297 5.85938-7.58789Q5.6543-7.38281 5.6543-7.05078Z"/>
  </g>
  <g transform="matrix(1 0 0 1 281.867 1933)">
   <path d="M11.709 2.91016Q13.75 2.91016 15.5518 2.12891Q17.3535 1.34766 18.7305-0.0292969Q20.1074-1.40625 20.8887-3.20801Q21.6699-5.00977 21.6699-7.05078Q21.6699-9.0918 20.8887-10.8936Q20.1074-12.6953 18.7305-14.0723Q17.3535-15.4492 15.5469-16.2305Q13.7402-17.0117 11.6992-17.0117Q9.6582-17.0117 7.85645-16.2305Q6.05469-15.4492 4.68262-14.0723Q3.31055-12.6953 2.5293-10.8936Q1.74805-9.0918 1.74805-7.05078Q1.74805-5.00977 2.5293-3.20801Q3.31055-1.40625 4.6875-0.0292969Q6.06445 1.34766 7.86621 2.12891Q9.66797 2.91016 11.709 2.91016ZM11.709 1.25Q9.98047 1.25 8.47656 0.605469Q6.97266-0.0390625 5.83496-1.17676Q4.69727-2.31445 4.05762-3.81836Q3.41797-5.32227 3.41797-7.05078Q3.41797-8.7793 4.05762-10.2832Q4.69727-11.7871 5.83008-12.9297Q6.96289-14.0723 8.4668-14.7119Q9.9707-15.3516 11.6992-15.3516Q13.4277-15.3516 14.9316-14.7119Q16.4355-14.0723 17.5781-12.9297Q18.7207-11.7871 19.3652-10.2832Q20.0098-8.7793 20.0098-7.05078Q20.0098-5.32227 19.3701-3.81836Q18.7305-2.31445 17.5928-1.17676Q16.4551-0.0390625 14.9463 0.605469Q13.4375 1.25 11.709 1.25ZM7.17773-7.05078Q7.17773-6.69922 7.41211-6.47461Q7.64648-6.25 8.01758-6.25L10.8887-6.25L10.8887-3.36914Q10.8887-2.99805 11.1133-2.76855Q11.3379-2.53906 11.6895-2.53906Q12.0605-2.53906 12.29-2.76855Q12.5195-2.99805 12.5195-3.36914L12.5195-6.25L15.4004-6.25Q15.7715-6.25 16.001-6.47461Q16.2305-6.69922 16.2305-7.05078Q16.2305-7.42188 16.001-7.65137Q15.7715-7.88086 15.4004-7.88086L12.5195-7.88086L12.5195-10.752Q12.5195-11.1328 12.29-11.3623Q12.0605-11.5918 11.6895-11.5918Q11.3379-11.5918 11.1133-11.3574Q10.8887-11.123 10.8887-10.752L10.8887-7.88086L8.01758-7.88086Q7.63672-7.88086 7.40723-7.65137Q7.17773-7.42188 7.17773-7.05078Z"/>
  </g>
  <g transform="matrix(1 0 0 1 305.646 1933)">
   <path d="M14.9707 5.66406Q17.0605 5.66406 18.96 5.01465Q20.8594 4.36523 22.4512 3.19336Q24.043 2.02148 25.2197 0.429688Q26.3965-1.16211 27.0459-3.06641Q27.6953-4.9707 27.6953-7.05078Q27.6953-9.14062 27.0459-11.04Q26.3965-12.9395 25.2197-14.5312Q24.043-16.123 22.4512-17.2998Q20.8594-18.4766 18.9551-19.126Q17.0508-19.7754 14.9609-19.7754Q12.8711-19.7754 10.9717-19.126Q9.07227-18.4766 7.48535-17.2998Q5.89844-16.123 4.72168-14.5312Q3.54492-12.9395 2.90039-11.04Q2.25586-9.14062 2.25586-7.05078Q2.25586-4.9707 2.90527-3.06641Q3.55469-1.16211 4.72656 0.429688Q5.89844 2.02148 7.49023 3.19336Q9.08203 4.36523 10.9814 5.01465Q12.8809 5.66406 14.9707 5.66406ZM14.9707 3.84766Q13.1641 3.84766 11.5283 3.2959Q9.89258 2.74414 8.53516 1.74805Q7.17773 0.751953 6.17676-0.610352Q5.17578-1.97266 4.62891-3.6084Q4.08203-5.24414 4.08203-7.05078Q4.08203-8.86719 4.62891-10.5029Q5.17578-12.1387 6.17188-13.501Q7.16797-14.8633 8.52539-15.8594Q9.88281-16.8555 11.5186-17.4023Q13.1543-17.9492 14.9609-17.9492Q16.7773-17.9492 18.4131-17.4023Q20.0488-16.8555 21.4111-15.8594Q22.7734-14.8633 23.7695-13.501Q24.7656-12.1387 25.3174-10.5029Q25.8691-8.86719 25.8691-7.05078Q25.8789-5.24414 25.332-3.6084Q24.7852-1.97266 23.7842-0.610352Q22.7832 0.751953 21.4209 1.74805Q20.0586 2.74414 18.4229 3.2959Q16.7871 3.84766 14.9707 3.84766ZM9.19922-7.05078Q9.19922-6.66992 9.45801-6.4209Q9.7168-6.17188 10.1172-6.17188L14.0625-6.17188L14.0625-2.2168Q14.0625-1.81641 14.3115-1.55762Q14.5605-1.29883 14.9512-1.29883Q15.3516-1.29883 15.6104-1.55273Q15.8691-1.80664 15.8691-2.2168L15.8691-6.17188L19.8242-6.17188Q20.2246-6.17188 20.4785-6.4209Q20.7324-6.66992 20.7324-7.05078Q20.7324-7.46094 20.4785-7.71484Q20.2246-7.96875 19.8242-7.96875L15.8691-7.96875L15.8691-11.9141Q15.8691-12.3242 15.6104-12.583Q15.3516-12.8418 14.9512-12.8418Q14.5605-12.8418 14.3115-12.583Q14.0625-12.3242 14.0625-11.9141L14.0625-7.96875L10.1172-7.96875Q9.70703-7.96875 9.45312-7.71484Q9.19922-7.46094 9.19922-7.05078Z"/>
  </g>
  <text style="stroke:none;fill:black;font-family:sans-serif;font-size:13;font-weight:bold;" transform="matrix(1 0 0 1 263 1953)">Design Variations</text>
  <text style="stroke:none;fill:black;font-family:sans-serif;font-size:13;" transform="matrix(1 0 0 1 263 1971)">Symbols are supported in up to nine weights and three scales.</text>
  <text style="stroke:none;fill:black;font-family:sans-serif;font-size:13;" transform="matrix(1 0 0 1 263 1989)">For optimal layout with text and other symbols, vertically align</text>
  <text style="stroke:none;fill:black;font-family:sans-serif;font-size:13;" transform="matrix(1 0 0 1 263 2007)">symbols with the adjacent text.</text>
  <line style="fill:none;stroke:#00AEEF;stroke-width:0.5;opacity:1.0;" x1="776" x2="776" y1="1919" y2="1933"/>
  <g transform="matrix(1 0 0 1 776 1933)">
   <path d="M3.31055 0.15625Q3.70117 0.15625 3.91602-0.00976562Q4.13086-0.175781 4.26758-0.585938L5.52734-4.0332L11.2891-4.0332L12.5488-0.585938Q12.6855-0.175781 12.9004-0.00976562Q13.1152 0.15625 13.4961 0.15625Q13.8867 0.15625 14.1162-0.0585938Q14.3457-0.273438 14.3457-0.644531Q14.3457-0.869141 14.2383-1.17188L9.6582-13.3691Q9.48242-13.8184 9.17969-14.043Q8.87695-14.2676 8.4082-14.2676Q7.5-14.2676 7.17773-13.3789L2.59766-1.16211Q2.49023-0.859375 2.49023-0.634766Q2.49023-0.263672 2.70996-0.0537109Q2.92969 0.15625 3.31055 0.15625ZM6.00586-5.51758L8.37891-12.0898L8.42773-12.0898L10.8008-5.51758Z"/>
  </g>
  <line style="fill:none;stroke:#00AEEF;stroke-width:0.5;opacity:1.0;" x1="793.197" x2="793.197" y1="1919" y2="1933"/>
  <text style="stroke:none;fill:black;font-family:sans-serif;font-size:13;font-weight:bold;" transform="matrix(1 0 0 1 776 1953)">Margins</text>
  <text style="stroke:none;fill:black;font-family:sans-serif;font-size:13;" transform="matrix(1 0 0 1 776 1971)">Leading and trailing margins on the left and right side of each symbol</text>
  <text style="stroke:none;fill:black;font-family:sans-serif;font-size:13;" transform="matrix(1 0 0 1 776 1989)">can be adjusted by modifying the x-location of the margin guidelines.</text>
  <text style="stroke:none;fill:black;font-family:sans-serif;font-size:13;" transform="matrix(1 0 0 1 776 2007)">Modifications are automatically applied proportionally to all</text>
  <text style="stroke:none;fill:black;font-family:sans-serif;font-size:13;" transform="matrix(1 0 0 1 776 2025)">scales and weights.</text>
  <g transform="matrix(1 0 0 1 1289 1933)">
   <path d="M2.8418 1.86523L4.54102 3.57422Q5.18555 4.22852 5.90332 4.17969Q6.62109 4.13086 7.31445 3.35938L18.0078-8.42773L17.041-9.4043L6.42578 2.27539Q6.16211 2.57812 5.89355 2.61719Q5.625 2.65625 5.27344 2.30469L4.10156 1.14258Q3.75 0.791016 3.79395 0.522461Q3.83789 0.253906 4.14062-0.0195312L15.6152-10.8203L14.6387-11.7871L3.04688-0.898438Q2.30469-0.214844 2.25098 0.498047Q2.19727 1.21094 2.8418 1.86523ZM9.25781-16.3281Q8.94531-16.0254 8.90625-15.6348Q8.86719-15.2441 9.04297-14.9512Q9.21875-14.6777 9.55566-14.541Q9.89258-14.4043 10.3809-14.5215Q11.4746-14.7754 12.5977-14.7314Q13.7207-14.6875 14.7949-13.9844L14.209-12.5293Q13.9551-11.9043 14.0674-11.4404Q14.1797-10.9766 14.5801-10.5664L16.875-8.25195Q17.2363-7.88086 17.5781-7.82227Q17.9199-7.76367 18.3398-7.8418L19.4043-8.03711L20.0684-7.36328L20.0293-6.80664Q20-6.43555 20.1221-6.12305Q20.2441-5.81055 20.6055-5.44922L21.3672-4.70703Q21.7285-4.3457 22.1533-4.33105Q22.5781-4.31641 22.9297-4.66797L25.8398-7.58789Q26.1914-7.93945 26.1816-8.35449Q26.1719-8.76953 25.8105-9.13086L25.0391-9.89258Q24.6875-10.2539 24.3799-10.3857Q24.0723-10.5176 23.7109-10.4883L23.1348-10.4395L22.4902-11.0742L22.7344-12.1973Q22.832-12.6172 22.6953-12.9834Q22.5586-13.3496 22.1191-13.7891L19.9219-15.9766Q18.6719-17.2168 17.2607-17.8369Q15.8496-18.457 14.4189-18.4814Q12.9883-18.5059 11.665-17.959Q10.3418-17.4121 9.25781-16.3281ZM10.752-15.957Q11.6602-16.6211 12.7002-16.9043Q13.7402-17.1875 14.8047-17.085Q15.8691-16.9824 16.8701-16.5137Q17.8711-16.0449 18.7012-15.2051L21.1328-12.793Q21.3086-12.6172 21.3525-12.4512Q21.3965-12.2852 21.3379-12.0312L21.0156-10.5469L22.5195-9.0625L23.5059-9.12109Q23.6914-9.13086 23.7891-9.09668Q23.8867-9.0625 24.0332-8.91602L24.6094-8.33984L22.168-5.89844L21.5918-6.47461Q21.4453-6.62109 21.4062-6.71875Q21.3672-6.81641 21.377-7.01172L21.4453-7.98828L19.9512-9.47266L18.4277-9.21875Q18.1836-9.16992 18.042-9.2041Q17.9004-9.23828 17.7148-9.41406L15.7129-11.416Q15.5176-11.5918 15.4932-11.7529Q15.4688-11.9141 15.5859-12.1875L16.4648-14.2773Q15.293-15.3711 13.8281-15.791Q12.3633-16.2109 10.8398-15.7617Q10.7227-15.7324 10.6885-15.8057Q10.6543-15.8789 10.752-15.957Z"/>
  </g>
  <text style="stroke:none;fill:black;font-family:sans-serif;font-size:13;font-weight:bold;" transform="matrix(1 0 0 1 1289 1953)">Exporting</text>
  <text style="stroke:none;fill:black;font-family:sans-serif;font-size:13;" transform="matrix(1 0 0 1 1289 1971)">Symbols should be outlined when exporting to ensure the</text>
  <text style="stroke:none;fill:black;font-family:sans-serif;font-size:13;" transform="matrix(1 0 0 1 1289 1989)">design is preserved when submitting to Xcode.</text>
  <text id="template-version" style="stroke:none;fill:black;font-family:sans-serif;font-size:13;text-anchor:end;" transform="matrix(1 0 0 1 3036 1933)">Template v.3.0</text>
  <text style="stroke:none;fill:black;font-family:sans-serif;font-size:13;text-anchor:end;" transform="matrix(1 0 0 1 3036 1951)">Requires Xcode 13 or greater</text>
  <text id="descriptive-name" style="stroke:none;fill:black;font-family:sans-serif;font-size:13;text-anchor:end;" transform="matrix(1 0 0 1 3036 1969)">Generated from chart.line.uptrend.xyaxis</text>
  <text style="stroke:none;fill:black;font-family:sans-serif;font-size:13;text-anchor:end;" transform="matrix(1 0 0 1 3036 1987)">Typeset at 100 points</text>
  <text style="stroke:none;fill:black;font-family:sans-serif;font-size:13;" transform="matrix(1 0 0 1 263 726)">Small</text>
  <text style="stroke:none;fill:black;font-family:sans-serif;font-size:13;" transform="matrix(1 0 0 1 263 1156)">Medium</text>
  <text style="stroke:none;fill:black;font-family:sans-serif;font-size:13;" transform="matrix(1 0 0 1 263 1586)">Large</text>
 </g>
 <g id="Guides">
  <g id="H-reference" style="fill:#27AAE1;stroke:none;" transform="matrix(1 0 0 1 339 696)">
   <path d="M0.993347 0L3.6377 0L29.3282-67.1326L30.0301-67.1326L30.0301-70.459L28.1227-70.459ZM11.6882-24.4797L46.9818-24.4797L46.2311-26.7288L12.4382-26.7288ZM55.1193 0L57.7637 0L30.6381-70.459L29.4327-70.459L29.4327-67.1326Z"/>
  </g>
  <line id="Baseline-S" style="fill:none;stroke:#27AAE1;opacity:1;stroke-width:0.5;" x1="263" x2="3036" y1="696" y2="696"/>
  <line id="Capline-S" style="fill:none;stroke:#27AAE1;opacity:1;stroke-width:0.5;" x1="263" x2="3036" y1="625.541" y2="625.541"/>
  <g id="H-reference" style="fill:#27AAE1;stroke:none;" transform="matrix(1 0 0 1 339 1126)">
   <path d="M0.993347 0L3.6377 0L29.3282-67.1326L30.0301-67.1326L30.0301-70.459L28.1227-70.459ZM11.6882-24.4797L46.9818-24.4797L46.2311-26.7288L12.4382-26.7288ZM55.1193 0L57.7637 0L30.6381-70.459L29.4327-70.459L29.4327-67.1326Z"/>
  </g>
  <line id="Baseline-M" style="fill:none;stroke:#27AAE1;opacity:1;stroke-width:0.5;" x1="263" x2="3036" y1="1126" y2="1126"/>
  <line id="Capline-M" style="fill:none;stroke:#27AAE1;opacity:1;stroke-width:0.5;" x1="263" x2="3036" y1="1055.54" y2="1055.54"/>
  <g id="H-reference" style="fill:#27AAE1;stroke:none;" transform="matrix(1 0 0 1 339 1556)">
   <path d="M0.993347 0L3.6377 0L29.3282-67.1326L30.0301-67.1326L30.0301-70.459L28.1227-70.459ZM11.6882-24.4797L46.9818-24.4797L46.2311-26.7288L12.4382-26.7288ZM55.1193 0L57.7637 0L30.6381-70.459L29.4327-70.459L29.4327-67.1326Z"/>
  </g>
  <line id="Baseline-L" style="fill:none;stroke:#27AAE1;opacity:1;stroke-width:0.5;" x1="263" x2="3036" y1="1556" y2="1556"/>
  <line id="Capline-L" style="fill:none;stroke:#27AAE1;opacity:1;stroke-width:0.5;" x1="263" x2="3036" y1="1485.54" y2="1485.54"/>
  <line id="left-margin-Regular-M" style="fill:none;stroke:#00AEEF;stroke-width:0.5;opacity:1.0;" x1="1384.92" x2="1384.92" y1="1030.79" y2="1150.12"/>
  <line id="right-margin-Regular-M" style="fill:none;stroke:#00AEEF;stroke-width:0.5;opacity:1.0;" x1="1514.77" x2="1514.77" y1="1030.79" y2="1150.12"/>
 </g>
 <g id="Symbols">
  <g id="Black-L" transform="matrix(1 0 0 1 2843.79 1556)">
   <path d="M16.084 22.1087Q16.084 25.1094 17.94 26.9654Q19.7961 28.8215 22.7968 28.8215L151.862 28.8215Q156.233 28.8215 159.159 26.0427Q162.086 23.2639 162.086 18.8322Q162.086 14.4213 159.159 11.6321Q156.233 8.84286 151.862 8.84286L37.7667 8.84286Q36.065 8.84286 36.065 7.16078L36.065-90.0527Q36.065-94.4028 33.2862-97.3404Q30.5074-100.278 26.0757-100.278Q21.6428-100.278 18.8634-97.3404Q16.084-94.4028 16.084-90.0527ZM34.3239-13.6038L60.3046-41.0656Q60.9523-41.8301 61.7316-41.8301Q62.5109-41.8301 63.217-41.0656L83.3069-19.5322Q85.9359-16.7656 88.6733-15.5106Q91.4108-14.2557 94.2566-14.2557Q99.93-14.2557 105.149-19.4738L131.459-45.9857L139.686-37.7Q141.778-35.6088 144.31-35.5888Q146.842-35.5688 148.919-37.2156Q150.997-38.8623 151.765-41.7234L161.839-79.3896Q162.588-82.1518 161.396-84.4579Q160.205-86.7639 157.859-87.9556Q155.512-89.1472 152.751-88.3775L115.185-78.4412Q112.266-77.6519 110.608-75.6035Q108.951-73.555 108.982-71.0627Q109.012-68.5704 111.103-66.4219L118.937-58.5279L95.742-34.4447Q95.154-33.7399 94.3151-33.7399Q93.5357-33.7399 92.8297-34.5031L72.7398-56.095Q70.1692-58.9212 67.4025-60.1177Q64.6359-61.3142 61.79-61.3142Q59.0025-61.3142 56.3443-60.1281Q53.6861-58.9421 50.8986-56.095L21.6858-26.2031Z"/>
  </g>
  <g id="Heavy-L" transform="matrix(1 0 0 1 2548.48 1556)">
   <path d="M16.084 21.268Q16.084 24.0784 17.8085 25.8029Q19.533 27.5274 22.3434 27.5274L150.592 27.5274Q154.393 27.5274 156.957 25.0833Q159.521 22.6393 159.521 18.7828Q159.521 14.9565 156.957 12.4973Q154.393 10.0382 150.592 10.0382L35.2932 10.0382Q33.5844 10.0382 33.5844 8.35403L33.5844-89.6571Q33.5844-93.4277 31.1403-96.0095Q28.6963-98.5914 24.8398-98.5914Q20.9776-98.5914 18.5308-96.0095Q16.084-93.4277 16.084-89.6571ZM32.055-14.062L58.3107-41.5451Q59.0418-42.3654 59.8642-42.3654Q60.6867-42.3654 61.4623-41.5451L82.3597-19.4348Q84.8431-16.8319 87.4236-15.6404Q90.0042-14.4489 92.6818-14.4489Q98.0182-14.4489 102.965-19.3902L129.268-45.8849L138.071-37.0372Q139.921-35.1875 142.131-35.1747Q144.341-35.1618 146.147-36.6197Q147.953-38.0776 148.63-40.6104L158.459-78.0625Q159.112-80.496 158.076-82.517Q157.039-84.538 154.978-85.5744Q152.917-86.6108 150.489-85.9277L113.142-76.2182Q110.564-75.5106 109.092-73.7268Q107.619-71.9431 107.647-69.7704Q107.674-67.5976 109.524-65.7089L118.017-57.1602L94.2799-32.6684Q93.599-31.8983 92.7264-31.8983Q91.904-31.8983 91.1284-32.713L70.231-54.8681Q67.7922-57.5211 65.1893-58.6679Q62.5865-59.8148 59.9088-59.8148Q57.2757-59.8148 54.7701-58.6831Q52.2644-57.5513 49.6313-54.8681L20.7208-25.3761Z"/>
  </g>
  <g id="Bold-L" transform="matrix(1 0 0 1 2253.41 1556)">
   <path d="M16.084 20.3945Q16.084 22.9518 17.6359 24.5037Q19.1878 26.0556 21.7451 26.0556L149.189 26.0556Q152.29 26.0556 154.408 24.0302Q156.527 22.0048 156.527 18.848Q156.527 15.7292 154.408 13.6848Q152.29 11.6403 149.189 11.6403L32.2051 11.6403Q30.5258 11.6403 30.5258 9.98597L30.5258-89.3592Q30.5258-92.4225 28.5004-94.5663Q26.475-96.7101 23.3181-96.7101Q20.1479-96.7101 18.1159-94.5663Q16.084-92.4225 16.084-89.3592ZM29.2278-14.5934L55.7322-41.9878Q56.6155-42.9294 57.5289-42.9294Q58.4425-42.9294 59.3548-41.9878L81.3108-19.1331Q83.6099-16.7375 85.9909-15.6303Q88.3718-14.5232 90.8343-14.5232Q95.7484-14.5232 100.342-19.1039L126.883-45.8364L136.445-36.2448Q137.996-34.6949 139.814-34.686Q141.632-34.6771 143.107-35.8969Q144.583-37.1168 145.145-39.2424L154.584-76.3585Q155.122-78.3923 154.274-80.0635Q153.426-81.7347 151.715-82.5828Q150.003-83.4309 147.983-82.8553L110.972-73.512Q108.817-72.9118 107.578-71.4509Q106.339-69.99 106.367-68.2056Q106.395-66.4211 107.945-64.8551L117.275-55.4696L92.6603-30.2397Q91.8195-29.3405 90.8636-29.3405Q89.9502-29.3405 89.0379-30.2689L67.0819-53.153Q64.812-55.5908 62.4164-56.6687Q60.0209-57.7467 57.5581-57.7467Q55.1246-57.7467 52.8109-56.6878Q50.4973-55.6289 48.0637-53.153L19.5743-24.2422Z"/>
  </g>
  <g id="Semibold-L" transform="matrix(1 0 0 1 1957.83 1556)">
   <path d="M16.084 19.7923Q16.084 22.1752 17.5169 23.6081Q18.9498 25.041 21.3327 25.041L148.221 25.041Q150.84 25.041 152.651 23.3042Q154.462 21.5674 154.462 18.8929Q154.462 16.2619 152.651 14.5033Q150.84 12.7448 148.221 12.7448L30.0761 12.7448Q28.4171 12.7448 28.4171 11.111L28.4171-89.1537Q28.4171-91.7295 26.6804-93.5713Q24.9436-95.4131 22.269-95.4131Q19.5759-95.4131 17.8299-93.5713Q16.084-91.7295 16.084-89.1537ZM27.2788-14.9597L53.9546-42.2931Q54.9429-43.3182 55.919-43.3182Q56.8954-43.3182 57.902-42.2931L80.5877-18.9251Q82.7598-16.6724 85.0031-15.6233Q87.2465-14.5743 89.5608-14.5743Q94.1837-14.5743 98.5339-18.9066L125.239-45.8029L135.325-35.6986Q136.669-34.3552 138.216-34.3491Q139.764-34.3429 141.011-35.3987Q142.259-36.4544 142.742-38.2992L151.913-75.1838Q152.371-76.9419 151.653-78.3721Q150.935-79.8022 149.465-80.5205Q147.994-81.2387 146.255-80.7372L109.475-71.6463Q107.612-71.1202 106.534-69.8819Q105.457-68.6436 105.485-67.1268Q105.513-65.61 106.856-64.2664L116.763-54.3042L91.5437-28.5653Q90.5926-27.5771 89.5793-27.5771Q88.6032-27.5771 87.5967-28.5839L64.911-51.9707Q62.7574-54.26 60.5048-55.2905Q58.2522-56.3209 55.9376-56.3209Q53.6416-56.3209 51.4603-55.3122Q49.2791-54.3036 46.983-51.9707L18.784-23.4605Z"/>
  </g>
  <g id="Medium-L" transform="matrix(1 0 0 1 1661.97 1556)">
   <path d="M16.084 19.3357Q16.084 21.5863 17.4267 22.929Q18.7693 24.2717 21.02 24.2717L147.487 24.2717Q149.741 24.2717 151.319 22.7537Q152.897 21.2358 152.897 18.927Q152.897 16.6658 151.319 15.124Q149.741 13.5823 147.487 13.5823L28.4619 13.5823Q26.8183 13.5823 26.8183 11.9641L26.8183-88.998Q26.8183-91.2041 25.3004-92.8169Q23.7824-94.4297 21.4736-94.4297Q19.1422-94.4297 17.6131-92.8169Q16.084-91.2041 16.084-88.998ZM25.801-15.2375L52.6068-42.5245Q53.6746-43.613 54.6983-43.613Q55.7224-43.613 56.8003-42.5245L80.0394-18.7675Q82.1152-16.623 84.2542-15.6181Q86.3932-14.6131 88.5951-14.6131Q92.9972-14.6131 97.1629-18.7569L123.993-45.7776L134.475-35.2844Q135.662-34.0977 137.005-34.0936Q138.348-34.0895 139.423-35.0208Q140.497-35.9521 140.92-37.5841L149.888-74.293Q150.285-75.8422 149.666-77.0896Q149.046-78.3369 147.759-78.9567Q146.471-79.5765 144.945-79.1312L108.341-70.2316Q106.698-69.7617 105.743-68.6922Q104.788-67.6227 104.816-66.3089Q104.844-64.9951 106.031-63.8201L116.375-53.4205L90.6971-27.2957Q89.6624-26.24 88.6056-26.24Q87.5819-26.24 86.5039-27.3062L63.2649-51.0741Q61.1996-53.251 59.0553-54.2454Q56.9111-55.2398 54.7088-55.2398Q52.5171-55.2398 50.4362-54.2692Q48.3554-53.2987 46.1636-51.0741L18.1847-22.8678Z"/>
  </g>
  <g id="Regular-L" transform="matrix(1 0 0 1 1366.38 1556)">
   <path d="M16.084 18.7401Q16.084 20.8182 17.309 22.0432Q18.534 23.2682 20.6121 23.2682L146.53 23.2682Q148.307 23.2682 149.581 22.0357Q150.855 20.8032 150.855 18.9714Q150.855 17.1926 149.581 15.9336Q148.307 14.6746 146.53 14.6746L26.3563 14.6746Q24.7329 14.6746 24.7329 13.0768L24.7329-88.7948Q24.7329-90.5188 23.5004-91.8328Q22.2678-93.1469 20.4361-93.1469Q18.5764-93.1469 17.3302-91.8328Q16.084-90.5188 16.084-88.7948ZM23.8734-15.5997L50.8487-42.8263Q52.0204-43.9975 53.1061-43.9975Q54.1923-43.9975 55.3635-42.8263L79.3242-18.5618Q81.2744-16.5586 83.2773-15.6112Q85.2802-14.6637 87.3355-14.6637Q91.4496-14.6637 95.3746-18.5618L122.367-45.7445L133.367-34.7442Q134.35-33.7618 135.425-33.7604Q136.501-33.759 137.35-34.528Q138.199-35.297 138.543-36.6513L147.246-73.1312Q147.565-74.4078 147.074-75.4167Q146.583-76.4256 145.534-76.917Q144.484-77.4084 143.236-77.0365L106.861-68.3864Q105.507-67.9898 104.711-67.1404Q103.916-66.291 103.944-65.242Q103.971-64.1929 104.954-63.2379L115.869-52.2678L89.5928-25.6398Q88.4491-24.496 87.3355-24.496Q86.2497-24.496 85.0786-25.6398L61.1178-49.9048Q59.1676-51.9349 57.1647-52.8823Q55.1618-53.8298 53.1061-53.8298Q51.0504-53.8298 49.1005-52.9088Q47.1505-51.9879 45.0948-49.9048L17.4031-22.0947Z"/>
  </g>
  <g id="Light-L" transform="matrix(1 0 0 1 1070.11 1556)">
   <path d="M16.084 19.2173Q16.084 21.009 17.1277 22.0527Q18.1713 23.0963 19.963 23.0963L146.645 23.0963Q147.982 23.0963 148.97 22.1787Q149.958 21.2611 149.958 19.8301Q149.958 18.4333 148.97 17.4986Q147.982 16.5639 146.645 16.5639L24.0662 16.5639Q22.7099 16.5639 22.7099 15.1953L22.7099-89.8254Q22.7099-91.1296 21.7922-92.1573Q20.8746-93.1851 19.4436-93.1851Q17.9656-93.1851 17.0248-92.1573Q16.084-91.1296 16.084-89.8254ZM21.8122-15.7335L48.3675-42.1584Q49.9592-43.7493 51.3502-43.7493Q52.7419-43.7493 54.3329-42.1584L79.4005-17.1878Q81.1981-15.3561 83.0293-14.5041Q84.8605-13.6521 86.7246-13.6521Q90.5146-13.6521 94.0958-17.1878L122.844-46.2024L134.665-34.3815Q135.438-33.6092 136.284-33.5791Q137.13-33.549 137.789-34.1272Q138.448-34.7054 138.696-35.7734L146.578-71.5661Q146.84-72.6138 146.453-73.4031Q146.067-74.1925 145.238-74.5791Q144.408-74.9656 143.408-74.67L107.681-66.8213Q106.613-66.5395 106.019-65.8809Q105.424-65.2223 105.471-64.3927Q105.517-63.5631 106.29-62.8371L117.911-51.1227L89.7073-22.4906Q88.1627-20.946 86.7246-20.946Q85.3336-20.946 83.7427-22.4906L58.675-47.462Q56.8775-49.3392 55.0463-50.1912Q53.2151-51.0433 51.3502-51.0433Q49.4853-51.0433 47.6881-50.2083Q45.891-49.3733 44.0261-47.462L16.9259-20.6059Z"/>
  </g>
  <g id="Thin-L" transform="matrix(1 0 0 1 773.995 1556)">
   <path d="M16.084 19.8483Q16.084 21.2613 16.8878 22.0652Q17.6917 22.869 19.1047 22.869L146.796 22.869Q147.553 22.869 148.162 22.3678Q148.772 21.8667 148.772 20.9658Q148.772 20.0741 148.162 19.5684Q147.553 19.0627 146.796 19.0627L21.0373 19.0627Q20.0343 19.0627 20.0343 17.9973L20.0343-91.1884Q20.0343-91.9375 19.5331-92.5865Q19.0319-93.2355 18.1311-93.2355Q17.1577-93.2355 16.6208-92.5865Q16.084-91.9375 16.084-91.1884ZM19.0861-15.9103L45.0858-41.275Q47.2331-43.4211 49.0278-43.4211Q50.8238-43.4211 52.9698-41.275L79.5015-15.3705Q81.0971-13.7658 82.7012-13.0399Q84.3054-12.3141 85.9167-12.3141Q89.2779-12.3141 92.4045-15.3705L123.475-46.808L136.381-33.9019Q136.877-33.4073 137.42-33.3393Q137.963-33.2712 138.37-33.5971Q138.776-33.923 138.898-34.6122L145.695-69.4961Q145.88-70.241 145.633-70.7401Q145.386-71.2391 144.846-71.487Q144.307-71.7349 143.635-71.5402L108.767-64.7513Q108.077-64.6213 107.748-64.2151Q107.418-63.8088 107.49-63.2695Q107.562-62.7302 108.056-62.307L120.612-49.6083L89.8587-18.3256Q87.784-16.2509 85.9167-16.2509Q84.122-16.2509 81.9759-18.3256L55.4443-44.2313Q53.8486-45.9062 52.2445-46.632Q50.6404-47.3579 49.0278-47.3579Q47.4153-47.3579 45.8202-46.6366Q44.2252-45.9152 42.6126-44.2313L16.2949-18.6369Z"/>
  </g>
  <g id="Ultralight-L" transform="matrix(1 0 0 1 477.587 1556)">
   <path d="M16.084 20.1715Q16.084 21.3906 16.765 22.0716Q17.446 22.7526 18.665 22.7526L146.874 22.7526Q147.333 22.7526 147.749 22.4647Q148.164 22.1769 148.164 21.5475Q148.164 20.9145 147.749 20.6285Q147.333 20.3425 146.874 20.3425L19.4859 20.3425Q18.6638 20.3425 18.6638 19.4325L18.6638-91.8866Q18.6638-92.3513 18.376-92.8063Q18.0881-93.2614 17.4588-93.2614Q16.7439-93.2614 16.4139-92.8063Q16.084-92.3513 16.084-91.8866ZM17.6899-16.0009L43.405-40.8225Q45.8368-43.2529 47.8383-43.2529Q49.8413-43.2529 52.2717-40.8225L79.5532-14.4397Q81.0454-12.9512 82.5332-12.29Q84.021-11.6287 85.5029-11.6287Q88.6445-11.6287 91.5383-14.4397L123.798-47.1182L137.26-33.6562Q137.614-33.3039 138.002-33.2164Q138.39-33.129 138.667-33.3256Q138.944-33.5222 139.001-34.0174L145.242-68.4358Q145.389-69.0256 145.213-69.376Q145.037-69.7264 144.646-69.9033Q144.255-70.0801 143.751-69.9371L109.323-63.6911Q108.827-63.6389 108.633-63.3618Q108.439-63.0848 108.524-62.6942Q108.609-62.3036 108.961-62.0355L121.996-48.8326L89.9363-16.1923Q87.59-13.8461 85.5029-13.8461Q83.5014-13.8461 81.071-16.1923L53.7895-42.5765Q52.2973-44.1478 50.8095-44.809Q49.3217-45.4703 47.8383-45.4703Q46.355-45.4703 44.8635-44.8071Q43.3719-44.144 41.8886-42.5765L15.9717-17.6283Z"/>
  </g>
  <g id="Black-M" transform="matrix(1 0 0 1 2862.83 1126)">
   <path d="M12.4609 9.97994Q12.4609 12.4295 13.9874 13.9559Q15.5138 15.4824 17.9634 15.4824L118.76 15.4824Q122.577 15.4824 125.117 13.0845Q127.657 10.6866 127.657 6.81314Q127.657 2.94517 125.117 0.544531Q122.577-1.85611 118.76-1.85611L31.075-1.85611Q29.7989-1.85611 29.7989-3.12644L29.7989-78.1829Q29.7989-81.9944 27.401-84.5372Q25.0031-87.08 21.1296-87.08Q17.2565-87.08 14.8587-84.5372Q12.4609-81.9944 12.4609-78.1829ZM28.2629-18.0994L48.098-39.2484Q48.585-39.8496 49.1931-39.8496Q49.8012-39.8496 50.3453-39.2484L65.3657-22.9657Q67.507-20.7048 69.7394-19.691Q71.9718-18.6771 74.2953-18.6771Q78.9363-18.6771 83.1675-22.9086L103.795-43.7115L109.785-37.6641Q111.585-35.8647 113.792-35.8392Q115.999-35.8137 117.816-37.226Q119.633-38.6383 120.294-41.0981L128.198-70.3706Q128.853-72.7621 127.811-74.764Q126.768-76.7659 124.735-77.8083Q122.702-78.8507 120.31-78.1903L91.1058-70.4059Q88.5889-69.7397 87.1739-67.9511Q85.7588-66.1624 85.7871-63.9866Q85.8154-61.8108 87.6147-59.9541L93.2122-54.3L75.4475-35.7215Q75.0173-35.1771 74.3524-35.1771Q73.7443-35.1771 73.2002-35.7786L58.1798-52.1184Q56.0956-54.4361 53.8347-55.3928Q51.5737-56.3496 49.2502-56.3496Q46.9838-56.3496 44.8139-55.3956Q42.6441-54.4416 40.3777-52.1184L17.5656-28.7454Z"/>
  </g>
  <g id="Heavy-M" transform="matrix(1 0 0 1 2567.45 1126)">
   <path d="M12.4609 9.1141Q12.4609 11.404 13.8755 12.8186Q15.2901 14.2332 17.58 14.2332L117.509 14.2332Q120.809 14.2332 123.021 12.1335Q125.233 10.0338 125.233 6.68564Q125.233 3.35392 123.021 1.24602Q120.809-0.861893 117.509-0.861893L28.8682-0.861893Q27.5605-0.861893 27.5605-2.1554L27.5605-77.7012Q27.5605-80.9847 25.4609-83.2062Q23.3612-85.4277 20.013-85.4277Q16.6626-85.4277 14.5618-83.2062Q12.4609-80.9847 12.4609-77.7012ZM26.235-18.535L46.3777-39.7788Q46.9075-40.3958 47.5295-40.3958Q48.1516-40.3958 48.725-39.7788L64.4327-22.9972Q66.4457-20.8806 68.5406-19.9199Q70.6355-18.9593 72.8121-18.9593Q77.1537-18.9593 81.1502-22.9536L101.609-43.5707L108.086-37.0495Q109.669-35.467 111.582-35.4511Q113.496-35.4352 115.065-36.6805Q116.635-37.9257 117.215-40.0911L124.955-69.2177Q125.522-71.309 124.622-73.0524Q123.721-74.7959 121.947-75.6962Q120.172-76.5966 118.083-76.0137L89.0328-68.3772Q86.8238-67.7802 85.5703-66.2327Q84.3169-64.6853 84.341-62.8016Q84.3651-60.918 85.9476-59.294L92.1249-53.0686L74.0076-34.2755Q73.5237-33.7044 72.8557-33.7044Q72.2337-33.7044 71.6603-34.3191L55.9526-51.1443Q53.9832-53.3068 51.8665-54.2238Q49.7499-55.1408 47.5732-55.1408Q45.4401-55.1408 43.4053-54.232Q41.3705-53.3233 39.2374-51.1443L16.6662-28.0743Z"/>
  </g>
  <g id="Bold-M" transform="matrix(1 0 0 1 2272.23 1126)">
   <path d="M12.4609 8.14554Q12.4609 10.2569 13.7504 11.5463Q15.0398 12.8357 17.1511 12.8357L116.109 12.8357Q118.831 12.8357 120.676 11.0696Q122.521 9.30351 122.521 6.54301Q122.521 3.81117 120.676 2.03073Q118.831 0.250285 116.109 0.250285L26.3997 0.250285Q25.0566 0.250285 25.0566-1.06916L25.0566-77.1622Q25.0566-79.8553 23.2905-81.7174Q21.5244-83.5794 18.7639-83.5794Q15.9982-83.5794 14.2296-81.7174Q12.4609-79.8553 12.4609-77.1622ZM23.9666-19.0224L44.4533-40.3721Q45.031-41.0067 45.6686-41.0067Q46.3063-41.0067 46.9125-40.3721L63.389-23.0325Q65.2586-21.0772 67.1996-20.1761Q69.1406-19.275 71.1529-19.275Q75.1595-19.275 78.8935-23.004L99.1629-43.4132L106.185-36.3621Q107.526-35.0221 109.111-35.0169Q110.696-35.0118 111.988-36.0702Q113.28-37.1286 113.771-38.9647L121.328-67.928Q121.796-69.6835 121.054-71.1378Q120.313-72.5921 118.827-73.3335Q117.342-74.075 115.592-73.5789L86.7139-66.1077Q84.8493-65.5882 83.7766-64.3105Q82.7039-63.0328 82.7233-61.476Q82.7427-59.9192 84.0828-58.5557L90.9085-51.6912L72.3968-32.658Q71.8529-32.0569 71.1815-32.0569Q70.5438-32.0569 69.9377-32.6865L53.4612-50.0547Q51.6201-52.0436 49.6649-52.9161Q47.7096-53.7887 45.6972-53.7887Q43.7133-53.7887 41.8295-52.9305Q39.9457-52.0722 37.9618-50.0547L15.6602-27.3236Z"/>
  </g>
  <g id="Semibold-M" transform="matrix(1 0 0 1 1976.55 1126)">
   <path d="M12.4609 7.47782Q12.4609 9.46606 13.6641 10.6692Q14.8672 11.8723 16.8555 11.8723L115.144 11.8723Q117.467 11.8723 119.059 10.3362Q120.651 8.80007 120.651 6.44468Q120.651 4.12639 119.059 2.5717Q117.467 1.01701 115.144 1.01701L24.6979 1.01701Q23.3305 1.01701 23.3305-0.320311L23.3305-76.7907Q23.3305-79.0767 21.7943-80.691Q20.2582-82.3052 17.9028-82.3052Q15.5403-82.3052 14.0006-80.691Q12.4609-79.0767 12.4609-76.7907ZM22.4027-19.3583L43.1266-40.7811Q43.7373-41.4279 44.3857-41.4279Q45.0342-41.4279 45.6629-40.7811L62.6695-23.0568Q64.4401-21.2127 66.2751-20.3527Q68.11-19.4926 70.0091-19.4926Q73.7847-19.4926 77.3377-23.0387L97.4768-43.3046L104.875-35.8882Q106.048-34.7153 107.407-34.7176Q108.766-34.7199 109.867-35.6495Q110.968-36.5791 111.397-38.1882L118.828-67.0389Q119.227-68.5629 118.595-69.8179Q117.963-71.0729 116.677-71.7047Q115.391-72.3366 113.874-71.9004L85.1152-64.5431Q83.488-64.0771 82.54-62.9854Q81.5919-61.8936 81.6081-60.5621Q81.6243-59.2306 82.7971-58.0466L90.07-50.7415L71.2864-31.5429Q70.701-30.9212 70.0273-30.9212Q69.3789-30.9212 68.7501-31.561L51.7436-49.3035Q49.9911-51.1727 48.1471-52.0146Q46.3031-52.8565 44.4038-52.8565Q42.5228-52.8565 40.7431-52.0332Q38.9635-51.2098 37.0824-49.3035L14.9666-26.8061Z"/>
  </g>
  <g id="Medium-M" transform="matrix(1 0 0 1 1680.62 1126)">
   <path d="M12.4609 6.97152Q12.4609 8.86642 13.5987 10.0041Q14.7364 11.1419 16.6313 11.1419L114.412 11.1419Q116.433 11.1419 117.833 9.7801Q119.234 8.41834 119.234 6.37012Q119.234 4.36541 117.833 2.98189Q116.433 1.59838 114.412 1.59838L23.4075 1.59838Q22.0216 1.59838 22.0216 0.247498L22.0216-76.509Q22.0216-78.4864 20.6599-79.9127Q19.2981-81.339 17.2499-81.339Q15.193-81.339 13.827-79.9127Q12.4609-78.4864 12.4609-76.509ZM21.2169-19.613L42.1207-41.0912Q42.7564-41.7473 43.4129-41.7473Q44.0696-41.7473 44.7155-41.0912L62.1239-23.0752Q63.8196-21.3155 65.5741-20.4866Q67.3286-19.6576 69.1418-19.6576Q72.7423-19.6576 76.1581-23.065L96.1983-43.2223L103.882-35.5289Q104.928-34.4828 106.115-34.4907Q107.303-34.4986 108.259-35.3305Q109.214-36.1624 109.597-37.5993L116.931-66.3648Q117.279-67.7132 116.73-68.8171Q116.181-69.9209 115.046-70.4697Q113.911-71.0185 112.572-70.6277L83.9031-63.3568Q82.4559-62.9313 81.6023-61.9806Q80.7487-61.0299 80.7625-59.8692Q80.7762-58.7085 81.8223-57.6607L89.4341-50.0215L70.4444-30.6973Q69.8276-30.06 69.1521-30.06Q68.4955-30.06 67.8497-30.7076L50.4412-48.734Q48.7558-50.5123 46.9962-51.331Q45.2366-52.1497 43.4232-52.1497Q41.6201-52.1497 39.9194-51.3528Q38.2187-50.5559 36.4156-48.734L14.4407-26.4137Z"/>
  </g>
  <g id="Regular-M" transform="matrix(1 0 0 1 1384.92 1126)">
   <path d="M12.4609 6.31114Q12.4609 8.08428 13.5133 9.13667Q14.5657 10.1891 16.3389 10.1891L113.458 10.1891Q115.084 10.1891 116.234 9.05475Q117.385 7.92043 117.385 6.27287Q117.385 4.67717 116.234 3.51692Q115.084 2.35668 113.458 2.35668L21.7244 2.35668Q20.3144 2.35668 20.3144 0.988119L20.3144-76.1415Q20.3144-77.7163 19.1801-78.8976Q18.0458-80.0788 16.3982-80.0788Q14.74-80.0788 13.6005-78.8976Q12.4609-77.7163 12.4609-76.1415ZM19.6703-19.9453L40.8086-41.4957Q41.4769-42.1639 42.1441-42.1639Q42.8115-42.1639 43.4797-41.4957L61.4123-23.0993Q63.0102-21.4496 64.6598-20.6612Q66.3094-19.8728 68.0105-19.8728Q71.3827-19.8728 74.6194-23.0993L94.5308-43.115L102.586-35.0602Q103.467-34.1794 104.43-34.1947Q105.394-34.21 106.161-34.9144Q106.927-35.6189 107.248-36.8313L114.458-65.4854Q114.738-66.605 114.298-67.5116Q113.857-68.4183 112.919-68.8588Q111.982-69.2993 110.873-68.9676L82.322-61.8095Q81.1096-61.4368 80.3793-60.67Q79.649-59.9032 79.6595-58.9654Q79.67-58.0275 80.5508-57.1572L88.6048-49.0823L69.3461-29.5945Q68.6884-28.9368 68.0105-28.9368Q67.3433-28.9368 66.6752-29.5945L48.7425-47.9911Q47.1447-49.651 45.4951-50.4394Q43.8455-51.2278 42.1441-51.2278Q40.4428-51.2278 38.845-50.4653Q37.2472-49.7029 35.5459-47.9911L13.7548-25.9018Z"/>
  </g>
  <g id="Light-M" transform="matrix(1 0 0 1 1088.61 1126)">
   <path d="M12.4609 6.73892Q12.4609 8.25534 13.3508 9.14516Q14.2406 10.035 15.757 10.035L113.56 10.035Q114.793 10.035 115.687 9.18296Q116.581 8.33095 116.581 7.04276Q116.581 5.78944 115.687 4.91999Q114.793 4.05054 113.56 4.05054L19.6712 4.05054Q18.5007 4.05054 18.5007 2.88753L18.5007-77.0655Q18.5007-78.264 17.6487-79.1885Q16.7967-80.113 15.5085-80.113Q14.1924-80.113 13.3267-79.1885Q12.4609-78.264 12.4609-77.0655ZM17.8223-20.0652L38.584-40.8969Q39.629-41.9414 40.5698-41.9414Q41.5112-41.9414 42.5557-40.8969L61.4807-21.8674Q62.9417-20.3715 64.4374-19.6687Q65.933-18.9658 67.4629-18.9658Q70.5444-18.9658 73.4729-21.8674L94.9585-43.5255L103.749-34.735Q104.442-34.0425 105.2-34.0321Q105.958-34.0217 106.554-34.5551Q107.15-35.0885 107.385-36.0442L113.859-64.0822Q114.088-64.9965 113.742-65.7064Q113.395-66.4163 112.654-66.7627Q111.913-67.1092 111.027-66.846L83.0577-60.4062Q82.102-60.1365 81.5513-59.5408Q81.0007-58.945 81.0284-58.204Q81.056-57.4629 81.7485-56.7979L90.4358-48.0557L69.4487-26.7711Q68.4317-25.754 67.4629-25.754Q66.522-25.754 65.4775-26.7711L46.5525-45.801Q45.0915-47.3238 43.5958-48.0267Q42.1002-48.7295 40.5698-48.7295Q39.0395-48.7295 37.5788-48.0441Q36.118-47.3587 34.5877-45.801L13.327-24.567Z"/>
  </g>
  <g id="Thin-M" transform="matrix(1 0 0 1 792.433 1126)">
   <path d="M12.4609 7.30469Q12.4609 8.48157 13.1357 9.15637Q13.8105 9.83117 14.9874 9.83117L113.696 9.83117Q114.409 9.83117 114.963 9.35254Q115.517 8.87391 115.517 8.06099Q115.517 7.26052 114.963 6.77566Q114.409 6.29081 113.696 6.29081L16.9556 6.29081Q16.1019 6.29081 16.1019 5.39965L16.1019-78.2875Q16.1019-78.9883 15.6232-79.5733Q15.1446-80.1583 14.3317-80.1583Q13.4681-80.1583 12.9645-79.5733Q12.4609-78.9883 12.4609-78.2875ZM15.3783-20.2237L35.6418-40.1049Q37.1849-41.6471 38.4878-41.6471Q39.7915-41.6471 41.3337-40.1049L61.5712-20.2382Q62.8512-18.9457 64.1433-18.356Q65.4353-17.7662 66.7386-17.7662Q69.4357-17.7662 71.9566-20.2382L95.5243-44.0684L105.288-34.305Q105.732-33.8616 106.219-33.8171Q106.705-33.7726 107.075-34.0798Q107.444-34.387 107.566-35.0032L113.067-62.2264Q113.228-62.8691 113.006-63.3188Q112.784-63.7684 112.304-63.9905Q111.823-64.2127 111.231-64.04L84.0307-58.5504Q83.4145-58.4167 83.1015-58.0472Q82.7885-57.6777 82.8388-57.1969Q82.8891-56.7162 83.3325-56.3226L92.8574-46.6979L69.5845-23.0369Q68.0921-21.5446 66.7386-21.5446Q65.4357-21.5446 63.8935-23.0369L43.6559-42.9045Q42.3759-44.246 41.0839-44.8357Q39.7918-45.4254 38.4878-45.4254Q37.1837-45.4254 35.9041-44.8419Q34.6245-44.2584 33.3204-42.9045L12.7612-22.8017Z"/>
  </g>
  <g id="Ultralight-M" transform="matrix(1 0 0 1 495.995 1126)">
   <path d="M12.4609 7.59447Q12.4609 8.59744 13.0256 9.16212Q13.5903 9.72679 14.5933 9.72679L113.766 9.72679Q114.211 9.72679 114.592 9.4394Q114.972 9.15201 114.972 8.58252Q114.972 8.014 114.592 7.72613Q114.211 7.43826 113.766 7.43826L15.5647 7.43826Q14.8732 7.43826 14.8732 6.68635L14.8732-78.9134Q14.8732-79.3593 14.5858-79.7704Q14.2984-80.1814 13.7289-80.1814Q13.0971-80.1814 12.779-79.7704Q12.4609-79.3593 12.4609-78.9134ZM14.1264-20.305L34.1349-39.6992Q35.9331-41.4963 37.4213-41.4963Q38.9106-41.4963 40.7077-39.6992L61.6176-19.4037Q62.8049-18.2154 63.9926-17.6836Q65.1804-17.1518 66.3676-17.1518Q68.8678-17.1518 71.18-19.4037L95.8141-44.3465L106.076-34.0847Q106.393-33.7689 106.74-33.707Q107.088-33.6451 107.341-33.8364Q107.595-34.0277 107.659-34.4699L112.662-61.2758Q112.787-61.7795 112.629-62.0959Q112.471-62.4122 112.124-62.5706Q111.776-62.7291 111.335-62.6027L84.529-57.5998Q84.0868-57.5359 83.8955-57.2823Q83.7042-57.0286 83.7661-56.6812Q83.8279-56.3337 84.1438-56.0792L94.0978-46.0025L69.654-21.1243Q67.9182-19.3885 66.3676-19.3885Q64.8793-19.3885 63.0822-21.1243L42.1724-41.4209Q40.985-42.6695 39.7973-43.2013Q38.6095-43.7331 37.4213-43.7331Q36.2331-43.7331 35.0463-43.2017Q33.8595-42.6704 32.6713-41.4209L12.4714-21.8975Z"/>
  </g>
  <g id="Black-S" transform="matrix(1 0 0 1 2877.71 696)">
   <path d="M9.76562 0.488281Q9.76562 2.44141 10.9863 3.66211Q12.207 4.88281 14.1602 4.88281L93.457 4.88281Q96.582 4.88281 98.6572 2.92969Q100.732 0.976562 100.732-2.19727Q100.732-5.37109 98.6572-7.32422Q96.582-9.27734 93.457-9.27734L24.9023-9.27734Q23.9258-9.27734 23.9258-10.2539L23.9258-69.0918Q23.9258-72.2168 21.9727-74.292Q20.0195-76.3672 16.8457-76.3672Q13.6719-76.3672 11.7188-74.292Q9.76562-72.2168 9.76562-69.0918ZM22.6562-21.6797L38.0859-38.1836Q38.4766-38.6719 38.9648-38.6719Q39.4531-38.6719 39.8926-38.1836L51.5137-25.5371Q53.2227-23.7305 55.0049-22.9248Q56.7871-22.1191 58.6426-22.1191Q62.3535-22.1191 65.7227-25.4883L82.0312-41.9434L86.6211-37.3047Q88.0859-35.8398 89.8926-35.8154Q91.6992-35.791 93.1885-36.9385Q94.6777-38.0859 95.2148-40.0879L101.416-63.0371Q101.953-64.9902 101.099-66.626Q100.244-68.2617 98.584-69.1162Q96.9238-69.9707 94.9707-69.4336L72.0703-63.3301Q70.0195-62.793 68.8721-61.3281Q67.7246-59.8633 67.749-58.0811Q67.7734-56.2988 69.2383-54.7852L73.4863-50.4883L59.5703-35.8887Q59.2285-35.4492 58.6914-35.4492Q58.2031-35.4492 57.7637-35.9375L46.1426-48.6328Q44.4824-50.4883 42.6758-51.2451Q40.8691-52.002 39.0137-52.002Q37.207-52.002 35.4736-51.2451Q33.7402-50.4883 31.9336-48.6328L14.0137-30.2734Z"/>
  </g>
  <g id="Heavy-S" transform="matrix(1 0 0 1 2582.09 696)">
   <path d="M9.76562-0.306907Q9.76562 1.5425 10.9114 2.68829Q12.0572 3.83409 13.9066 3.83409L92.3737 3.83409Q95.1069 3.83409 96.9343 2.09993Q98.7617 0.365766 98.7617-2.40471Q98.7617-5.16365 96.9343-6.90358Q95.1069-8.6435 92.3737-8.6435L23.2774-8.6435Q22.2432-8.6435 22.2432-9.66616L22.2432-68.5617Q22.2432-71.2833 20.509-73.1165Q18.7749-74.9497 16.0044-74.9497Q13.2339-74.9497 11.4998-73.1165Q9.76562-71.2833 9.76562-68.5617ZM21.1581-22.0369L36.8989-38.7137Q37.278-39.1674 37.7433-39.1674Q38.2085-39.1674 38.6249-38.7137L50.707-25.7215Q52.3237-24.0186 54.008-23.2475Q55.6923-22.4764 57.444-22.4764Q60.936-22.4764 64.1438-25.6842L80.1067-41.7705L85.0192-36.8207Q86.3227-35.5172 87.9046-35.5043Q89.4865-35.4914 90.7856-36.5178Q92.0847-37.5443 92.5642-39.3273L98.7193-62.2304Q99.1873-63.953 98.4422-65.3929Q97.6972-66.8327 96.233-67.5777Q94.7688-68.3227 93.0461-67.8432L70.2033-61.7743Q68.3831-61.2833 67.3508-60.0028Q66.3186-58.7224 66.3373-57.1649Q66.3559-55.6074 67.6594-54.2666L72.3224-49.5663L58.3257-35.0128Q57.9839-34.5964 57.4813-34.5964Q57.0161-34.5964 56.5997-35.0501L44.5176-48.0796Q42.9381-49.8199 41.2352-50.5536Q39.5323-51.2874 37.7806-51.2874Q36.0661-51.2874 34.4307-50.5594Q32.7952-49.8314 31.0808-48.0796L13.2992-29.8701Z"/>
  </g>
  <g id="Bold-S" transform="matrix(1 0 0 1 2286.6 696)">
   <path d="M9.76562-1.19629Q9.76562 0.537109 10.8276 1.59912Q11.8896 2.66113 13.623 2.66113L91.1621 2.66113Q93.457 2.66113 95.0073 1.17188Q96.5576-0.317383 96.5576-2.63672Q96.5576-4.93164 95.0073-6.43311Q93.457-7.93457 91.1621-7.93457L21.46-7.93457Q20.3613-7.93457 20.3613-9.00879L20.3613-67.9688Q20.3613-70.2393 18.8721-71.8018Q17.3828-73.3643 15.0635-73.3643Q12.7441-73.3643 11.2549-71.8018Q9.76562-70.2393 9.76562-67.9688ZM19.4824-22.4365L35.5713-39.3066Q35.9375-39.7217 36.377-39.7217Q36.8164-39.7217 37.207-39.3066L49.8047-25.9277Q51.3184-24.3408 52.8931-23.6084Q54.4678-22.876 56.1035-22.876Q59.3506-22.876 62.3779-25.9033L77.9541-41.5771L83.2275-36.2793Q84.3506-35.1562 85.6812-35.1562Q87.0117-35.1562 88.0981-36.0474Q89.1846-36.9385 89.5996-38.4766L95.7031-61.3281Q96.0938-62.793 95.4712-64.0137Q94.8486-65.2344 93.6035-65.8569Q92.3584-66.4795 90.8936-66.0645L68.1152-60.0342Q66.5527-59.5947 65.6494-58.5205Q64.7461-57.4463 64.7583-56.1401Q64.7705-54.834 65.8936-53.6865L71.0205-48.5352L56.9336-34.0332Q56.5918-33.6426 56.1279-33.6426Q55.6885-33.6426 55.2979-34.0576L42.7002-47.4609Q41.2109-49.0723 39.624-49.7803Q38.0371-50.4883 36.4014-50.4883Q34.79-50.4883 33.2642-49.7925Q31.7383-49.0967 30.127-47.4609L12.5-29.4189Z"/>
  </g>
  <g id="Semibold-S" transform="matrix(1 0 0 1 1990.73 696)">
   <path d="M9.76562-1.80947Q9.76562-0.156055 10.7699 0.848193Q11.7741 1.85244 13.4275 1.85244L90.3268 1.85244Q92.3195 1.85244 93.6788 0.532031Q95.038-0.788379 95.038-2.79668Q95.038-4.77168 93.6788-6.10874Q92.3195-7.4458 90.3268-7.4458L20.2069-7.4458Q19.0639-7.4458 19.0639-8.55557L19.0639-67.56Q19.0639-69.5194 17.7435-70.8953Q16.423-72.2712 14.4147-72.2712Q12.4064-72.2712 11.086-70.8953Q9.76562-69.5194 9.76562-67.56ZM18.3271-22.712L34.656-39.7154Q35.0133-40.1038 35.435-40.1038Q35.8566-40.1038 36.2295-39.7154L49.1826-26.0699Q50.6252-24.563 52.1244-23.8572Q53.6235-23.1515 55.1793-23.1515Q58.2575-23.1515 61.1604-26.0544L76.47-41.4438L81.9923-35.9061Q82.9909-34.9074 84.1482-34.9163Q85.3055-34.9252 86.2453-35.723Q87.1851-36.5208 87.5557-37.89L93.6236-60.7061Q93.9609-61.9932 93.4228-63.0628Q92.8847-64.1324 91.7906-64.6706Q90.6966-65.2087 89.4095-64.8381L66.6756-58.8345Q65.2908-58.4306 64.4764-57.4985Q63.6619-56.5665 63.6697-55.4336Q63.6774-54.3008 64.6761-53.2866L70.1229-47.8242L55.9738-33.3578Q55.632-32.985 55.1948-32.985Q54.7731-32.985 54.4003-33.3733L41.4472-47.0344Q40.0201-48.5568 38.5132-49.2471Q37.0063-49.9373 35.4505-49.9373Q33.9103-49.9373 32.4599-49.2637Q31.0096-48.5901 29.4693-47.0344L11.949-29.1079Z"/>
  </g>
  <g id="Medium-S" transform="matrix(1 0 0 1 1694.65 696)">
   <path d="M9.76562-2.27441Q9.76562-0.681641 10.7261 0.278809Q11.6865 1.23926 13.2793 1.23926L89.6934 1.23926Q91.457 1.23926 92.6714 0.046875Q93.8857-1.14551 93.8857-2.91797Q93.8857-4.65039 92.6714-5.86279Q91.457-7.0752 89.6934-7.0752L19.2568-7.0752Q18.0801-7.0752 18.0801-8.21191L18.0801-67.25Q18.0801-68.9736 16.8877-70.208Q15.6953-71.4424 13.9229-71.4424Q12.1504-71.4424 10.958-70.208Q9.76562-68.9736 9.76562-67.25ZM17.4512-22.9209L33.9619-40.0254Q34.3125-40.3936 34.7207-40.3936Q35.1289-40.3936 35.4883-40.0254L48.7109-26.1777Q50.0996-24.7314 51.5415-24.0459Q52.9834-23.3604 54.4785-23.3604Q57.4287-23.3604 60.2373-26.1689L75.3447-41.3428L81.0557-35.623Q81.96-34.7188 82.9858-34.7344Q84.0117-34.75 84.8403-35.4771Q85.6689-36.2041 86.0059-37.4453L92.0469-60.2344Q92.3438-61.3867 91.8696-62.3418Q91.3955-63.2969 90.416-63.771Q89.4365-64.2451 88.2842-63.9082L65.584-57.9248Q64.334-57.5479 63.5869-56.7236Q62.8398-55.8994 62.8442-54.8979Q62.8486-53.8965 63.7529-52.9834L69.4424-47.2852L55.2461-32.8457Q54.9043-32.4863 54.4873-32.4863Q54.0791-32.4863 53.7197-32.8545L40.4971-46.7109Q39.1172-48.166 37.6709-48.8428Q36.2246-49.5195 34.7295-49.5195Q33.2432-49.5195 31.8501-48.8628Q30.457-48.2061 28.9707-46.7109L11.5312-28.8721Z"/>
  </g>
  <g id="Regular-S" transform="matrix(1 0 0 1 1398.77 696)">
   <path d="M9.76562-2.88086Q9.76562-1.36719 10.6689-0.463867Q11.5723 0.439453 13.0859 0.439453L88.8672 0.439453Q90.332 0.439453 91.3574-0.585938Q92.3828-1.61133 92.3828-3.07617Q92.3828-4.49219 91.3574-5.54199Q90.332-6.5918 88.8672-6.5918L18.0176-6.5918Q16.7969-6.5918 16.7969-7.76367L16.7969-66.8457Q16.7969-68.2617 15.7715-69.3115Q14.7461-70.3613 13.2812-70.3613Q11.8164-70.3613 10.791-69.3115Q9.76562-68.2617 9.76562-66.8457ZM16.3086-23.1934L33.0566-40.4297Q33.3984-40.7715 33.7891-40.7715Q34.1797-40.7715 34.5215-40.4297L48.0957-26.3184Q49.4141-24.9512 50.7812-24.292Q52.1484-23.6328 53.5645-23.6328Q56.3477-23.6328 59.0332-26.3184L73.877-41.2109L79.834-35.2539Q80.6152-34.4727 81.4697-34.4971Q82.3242-34.5215 83.0078-35.1562Q83.6914-35.791 83.9844-36.8652L89.9902-59.6191Q90.2344-60.5957 89.8438-61.4014Q89.4531-62.207 88.623-62.5977Q87.793-62.9883 86.8164-62.6953L64.1602-56.7383Q63.0859-56.3965 62.4268-55.7129Q61.7676-55.0293 61.7676-54.1992Q61.7676-53.3691 62.5488-52.5879L68.5547-46.582L54.2969-32.1777Q53.9551-31.8359 53.5645-31.8359Q53.1738-31.8359 52.832-32.1777L39.2578-46.2891Q37.9395-47.6562 36.5723-48.3154Q35.2051-48.9746 33.7891-48.9746Q32.373-48.9746 31.0547-48.3398Q29.7363-47.7051 28.3203-46.2891L10.9863-28.5645Z"/>
  </g>
  <g id="Light-S" transform="matrix(1 0 0 1 1102.41 696)">
   <path d="M9.76562-2.50244Q9.76562-1.21587 10.5251-0.456365Q11.2846 0.303141 12.5712 0.303141L88.958 0.303141Q90.0747 0.303141 90.8731-0.472514Q91.6715-1.24817 91.6715-2.39512Q91.6715-3.50825 90.8731-4.30082Q90.0747-5.09338 88.958-5.09338L16.2013-5.09338Q15.1924-5.09338 15.1924-6.08342L15.1924-67.6631Q15.1924-68.7462 14.4168-69.5689Q13.6411-70.3916 12.4942-70.3916Q11.3319-70.3916 10.5488-69.5689Q9.76562-68.7462 9.76562-67.6631ZM14.6739-23.2994L31.0888-39.9Q31.7637-40.5746 32.3964-40.5746Q33.0294-40.5746 33.7041-39.9L48.1562-25.2286Q49.3535-23.9975 50.5845-23.414Q51.8155-22.8305 53.08-22.8305Q55.6061-22.8305 58.019-25.2286L74.2554-41.5741L80.8632-34.9663Q81.4781-34.3516 82.1509-34.3533Q82.8237-34.3549 83.356-34.8384Q83.8882-35.3218 84.1054-36.1689L89.4605-58.3778Q89.6591-59.1728 89.3518-59.8044Q89.0444-60.436 88.3884-60.7435Q87.7324-61.0509 86.9527-60.8185L64.8109-55.497Q63.9638-55.2462 63.4636-54.7139Q62.9634-54.1817 62.9785-53.5257Q62.9936-52.8697 63.6083-52.27L70.1744-45.6739L54.3877-29.6801Q53.728-29.0204 53.08-29.0204Q52.4473-29.0204 51.7726-29.6801L37.3205-44.3517Q36.1231-45.5976 34.8921-46.1811Q33.6611-46.7646 32.3964-46.7646Q31.1317-46.7646 29.9346-46.198Q28.7374-45.6314 27.4727-44.3517L10.6079-27.3837Z"/>
  </g>
  <g id="Thin-S" transform="matrix(1 0 0 1 806.174 696)">
   <path d="M9.76562-2.00195Q9.76562-1.01574 10.3349-0.446443Q10.9042 0.122858 11.8904 0.122858L89.0781 0.122858Q89.7343 0.122858 90.2325-0.322502Q90.7307-0.767862 90.7307-1.49438Q90.7307-2.20691 90.2325-2.65926Q89.7343-3.11161 89.0781-3.11161L13.7991-3.11161Q13.0704-3.11161 13.0704-3.86116L13.0704-68.7441Q13.0704-69.3869 12.625-69.9093Q12.1797-70.4316 11.4531-70.4316Q10.6912-70.4316 10.2284-69.9093Q9.76562-69.3869 9.76562-68.7441ZM12.5118-23.4397L28.4861-39.1993Q29.6017-40.3143 30.5546-40.3143Q31.5081-40.3143 32.6231-39.1993L48.2363-23.7874Q49.2735-22.7362 50.3244-22.2527Q51.3753-21.7693 52.4392-21.7693Q54.6253-21.7693 56.6776-23.7874L74.7559-42.0544L82.2244-34.5859Q82.6194-34.1915 83.0518-34.1631Q83.4843-34.1346 83.8164-34.4179Q84.1486-34.7012 84.2655-35.248L88.7599-56.7361Q88.8983-57.2909 88.7011-57.6923Q88.5039-58.0937 88.0782-58.2911Q87.6524-58.4886 87.133-58.3362L65.6717-53.8553Q65.1249-53.7249 64.8349-53.3928Q64.5449-53.0606 64.58-52.6348Q64.6152-52.2091 65.0095-51.8496L72.3166-44.4728L54.5077-26.3768Q53.4276-25.2967 52.4392-25.2967Q51.4863-25.2967 50.3713-26.3768L34.7581-41.7894Q33.7209-42.8748 32.6701-43.3583Q31.6192-43.8417 30.5546-43.8417Q29.49-43.8417 28.4531-43.3653Q27.4162-42.8888 26.3516-41.7894L10.1074-25.822Z"/>
  </g>
  <g id="Ultralight-S" transform="matrix(1 0 0 1 509.704 696)">
   <path d="M9.76562-1.74561Q9.76562-0.913239 10.2375-0.44136Q10.7094 0.0305176 11.5417 0.0305176L89.1396 0.0305176Q89.5599 0.0305176 89.9044-0.245667Q90.2489-0.521851 90.2489-1.03302Q90.2489-1.54037 89.9044-1.81847Q89.5599-2.09656 89.1396-2.09656L12.5687-2.09656Q11.9835-2.09656 11.9835-2.72293L11.9835-69.2978Q11.9835-69.7151 11.7073-70.0836Q11.4311-70.4521 10.92-70.4521Q10.363-70.4521 10.0643-70.0836Q9.76562-69.7151 9.76562-69.2978ZM11.4044-23.5115L27.153-38.8405Q28.4943-40.181 29.6112-40.181Q30.7289-40.181 32.0694-38.8405L48.2773-23.0492Q49.2325-22.0901 50.1911-21.6579Q51.1497-21.2257 52.1111-21.2257Q54.1229-21.2257 55.9906-23.0492L75.0122-42.3004L82.9216-34.391Q83.2039-34.1095 83.5133-34.0656Q83.8226-34.0218 84.0523-34.2026Q84.2819-34.3834 84.3475-34.7763L88.401-55.8952Q88.5086-56.3271 88.3678-56.6105Q88.2271-56.8939 87.9192-57.0351Q87.6114-57.1762 87.2253-57.0648L66.1125-53.0144Q65.7196-52.9457 65.5373-52.7161Q65.3549-52.4864 65.4003-52.1786Q65.4457-51.8707 65.7272-51.6342L73.4138-43.8576L54.5692-24.6849Q53.2738-23.3894 52.1111-23.3894Q50.9941-23.3894 49.6536-24.6849L33.4457-40.477Q32.4905-41.4803 31.5319-41.9125Q30.5733-42.3447 29.6112-42.3447Q28.6491-42.3447 27.6943-41.9144Q26.7395-41.4841 25.7774-40.477L9.85107-25.0221Z"/>
  </g>
 </g>
</svg>
