<?xml version="1.0" encoding="UTF-8"?>
<!--Generator: Apple Native CoreSVG 175-->
<!DOCTYPE svg
PUBLIC "-//W3C//DTD SVG 1.1//EN"
       "http://www.w3.org/Graphics/SVG/1.1/DTD/svg11.dtd">
<svg version="1.1" xmlns="http://www.w3.org/2000/svg" xmlns:xlink="http://www.w3.org/1999/xlink" width="3300" height="2200">
 <!--glyph: "uni10026B.medium", point size: 100.0, font version: "17.1d1e1", template writer version: "65.1"-->
 <g id="Notes">
  <rect height="2200" id="artboard" style="fill:white;opacity:1" width="3300" x="0" y="0"/>
  <line style="fill:none;stroke:black;opacity:1;stroke-width:0.5;" x1="263" x2="3036" y1="292" y2="292"/>
  <text style="stroke:none;fill:black;font-family:sans-serif;font-size:13;font-weight:bold;" transform="matrix(1 0 0 1 263 322)">Weight/Scale Variations</text>
  <text style="stroke:none;fill:black;font-family:sans-serif;font-size:13;text-anchor:middle;" transform="matrix(1 0 0 1 559.711 322)">Ultralight</text>
  <text style="stroke:none;fill:black;font-family:sans-serif;font-size:13;text-anchor:middle;" transform="matrix(1 0 0 1 856.422 322)">Thin</text>
  <text style="stroke:none;fill:black;font-family:sans-serif;font-size:13;text-anchor:middle;" transform="matrix(1 0 0 1 1153.13 322)">Light</text>
  <text style="stroke:none;fill:black;font-family:sans-serif;font-size:13;text-anchor:middle;" transform="matrix(1 0 0 1 1449.84 322)">Regular</text>
  <text style="stroke:none;fill:black;font-family:sans-serif;font-size:13;text-anchor:middle;" transform="matrix(1 0 0 1 1746.56 322)">Medium</text>
  <text style="stroke:none;fill:black;font-family:sans-serif;font-size:13;text-anchor:middle;" transform="matrix(1 0 0 1 2043.27 322)">Semibold</text>
  <text style="stroke:none;fill:black;font-family:sans-serif;font-size:13;text-anchor:middle;" transform="matrix(1 0 0 1 2339.98 322)">Bold</text>
  <text style="stroke:none;fill:black;font-family:sans-serif;font-size:13;text-anchor:middle;" transform="matrix(1 0 0 1 2636.69 322)">Heavy</text>
  <text style="stroke:none;fill:black;font-family:sans-serif;font-size:13;text-anchor:middle;" transform="matrix(1 0 0 1 2933.4 322)">Black</text>
  <line style="fill:none;stroke:black;opacity:1;stroke-width:0.5;" x1="263" x2="3036" y1="1903" y2="1903"/>
  <g transform="matrix(1 0 0 1 263 1933)">
   <path d="M9.24805 0.830078Q10.8691 0.830078 12.2949 0.214844Q13.7207-0.400391 14.8096-1.49414Q15.8984-2.58789 16.5186-4.01367Q17.1387-5.43945 17.1387-7.05078Q17.1387-8.66211 16.5186-10.0879Q15.8984-11.5137 14.8047-12.6074Q13.7109-13.7012 12.2852-14.3164Q10.8594-14.9316 9.23828-14.9316Q7.62695-14.9316 6.20117-14.3164Q4.77539-13.7012 3.69141-12.6074Q2.60742-11.5137 1.9873-10.0879Q1.36719-8.66211 1.36719-7.05078Q1.36719-5.43945 1.9873-4.01367Q2.60742-2.58789 3.69629-1.49414Q4.78516-0.400391 6.21094 0.214844Q7.63672 0.830078 9.24805 0.830078ZM9.24805-0.654297Q7.91992-0.654297 6.7627-1.14746Q5.60547-1.64062 4.73145-2.51953Q3.85742-3.39844 3.36426-4.56055Q2.87109-5.72266 2.87109-7.05078Q2.87109-8.37891 3.35938-9.54102Q3.84766-10.7031 4.72168-11.582Q5.5957-12.4609 6.75293-12.9541Q7.91016-13.4473 9.23828-13.4473Q10.5762-13.4473 11.7334-12.9541Q12.8906-12.4609 13.7695-11.582Q14.6484-10.7031 15.1465-9.54102Q15.6445-8.37891 15.6445-7.05078Q15.6445-5.72266 15.1514-4.56055Q14.6582-3.39844 13.7842-2.51953Q12.9102-1.64062 11.748-1.14746Q10.5859-0.654297 9.24805-0.654297ZM5.6543-7.05078Q5.6543-6.72852 5.85938-6.52832Q6.06445-6.32812 6.40625-6.32812L8.51562-6.32812L8.51562-4.20898Q8.51562-3.88672 8.71094-3.67676Q8.90625-3.4668 9.23828-3.4668Q9.56055-3.4668 9.77051-3.67676Q9.98047-3.88672 9.98047-4.20898L9.98047-6.32812L12.0898-6.32812Q12.4219-6.32812 12.627-6.52832Q12.832-6.72852 12.832-7.05078Q12.832-7.38281 12.627-7.58789Q12.4219-7.79297 12.0898-7.79297L9.98047-7.79297L9.98047-9.90234Q9.98047-10.2344 9.77051-10.4443Q9.56055-10.6543 9.23828-10.6543Q8.90625-10.6543 8.71094-10.4443Q8.51562-10.2344 8.51562-9.90234L8.51562-7.79297L6.40625-7.79297Q6.06445-7.79297 5.85938-7.58789Q5.6543-7.38281 5.6543-7.05078Z"/>
  </g>
  <g transform="matrix(1 0 0 1 281.867 1933)">
   <path d="M11.709 2.91016Q13.75 2.91016 15.5518 2.12891Q17.3535 1.34766 18.7305-0.0292969Q20.1074-1.40625 20.8887-3.20801Q21.6699-5.00977 21.6699-7.05078Q21.6699-9.0918 20.8887-10.8936Q20.1074-12.6953 18.7305-14.0723Q17.3535-15.4492 15.5469-16.2305Q13.7402-17.0117 11.6992-17.0117Q9.6582-17.0117 7.85645-16.2305Q6.05469-15.4492 4.68262-14.0723Q3.31055-12.6953 2.5293-10.8936Q1.74805-9.0918 1.74805-7.05078Q1.74805-5.00977 2.5293-3.20801Q3.31055-1.40625 4.6875-0.0292969Q6.06445 1.34766 7.86621 2.12891Q9.66797 2.91016 11.709 2.91016ZM11.709 1.25Q9.98047 1.25 8.47656 0.605469Q6.97266-0.0390625 5.83496-1.17676Q4.69727-2.31445 4.05762-3.81836Q3.41797-5.32227 3.41797-7.05078Q3.41797-8.7793 4.05762-10.2832Q4.69727-11.7871 5.83008-12.9297Q6.96289-14.0723 8.4668-14.7119Q9.9707-15.3516 11.6992-15.3516Q13.4277-15.3516 14.9316-14.7119Q16.4355-14.0723 17.5781-12.9297Q18.7207-11.7871 19.3652-10.2832Q20.0098-8.7793 20.0098-7.05078Q20.0098-5.32227 19.3701-3.81836Q18.7305-2.31445 17.5928-1.17676Q16.4551-0.0390625 14.9463 0.605469Q13.4375 1.25 11.709 1.25ZM7.17773-7.05078Q7.17773-6.69922 7.41211-6.47461Q7.64648-6.25 8.01758-6.25L10.8887-6.25L10.8887-3.36914Q10.8887-2.99805 11.1133-2.76855Q11.3379-2.53906 11.6895-2.53906Q12.0605-2.53906 12.29-2.76855Q12.5195-2.99805 12.5195-3.36914L12.5195-6.25L15.4004-6.25Q15.7715-6.25 16.001-6.47461Q16.2305-6.69922 16.2305-7.05078Q16.2305-7.42188 16.001-7.65137Q15.7715-7.88086 15.4004-7.88086L12.5195-7.88086L12.5195-10.752Q12.5195-11.1328 12.29-11.3623Q12.0605-11.5918 11.6895-11.5918Q11.3379-11.5918 11.1133-11.3574Q10.8887-11.123 10.8887-10.752L10.8887-7.88086L8.01758-7.88086Q7.63672-7.88086 7.40723-7.65137Q7.17773-7.42188 7.17773-7.05078Z"/>
  </g>
  <g transform="matrix(1 0 0 1 305.646 1933)">
   <path d="M14.9707 5.66406Q17.0605 5.66406 18.96 5.01465Q20.8594 4.36523 22.4512 3.19336Q24.043 2.02148 25.2197 0.429688Q26.3965-1.16211 27.0459-3.06641Q27.6953-4.9707 27.6953-7.05078Q27.6953-9.14062 27.0459-11.04Q26.3965-12.9395 25.2197-14.5312Q24.043-16.123 22.4512-17.2998Q20.8594-18.4766 18.9551-19.126Q17.0508-19.7754 14.9609-19.7754Q12.8711-19.7754 10.9717-19.126Q9.07227-18.4766 7.48535-17.2998Q5.89844-16.123 4.72168-14.5312Q3.54492-12.9395 2.90039-11.04Q2.25586-9.14062 2.25586-7.05078Q2.25586-4.9707 2.90527-3.06641Q3.55469-1.16211 4.72656 0.429688Q5.89844 2.02148 7.49023 3.19336Q9.08203 4.36523 10.9814 5.01465Q12.8809 5.66406 14.9707 5.66406ZM14.9707 3.84766Q13.1641 3.84766 11.5283 3.2959Q9.89258 2.74414 8.53516 1.74805Q7.17773 0.751953 6.17676-0.610352Q5.17578-1.97266 4.62891-3.6084Q4.08203-5.24414 4.08203-7.05078Q4.08203-8.86719 4.62891-10.5029Q5.17578-12.1387 6.17188-13.501Q7.16797-14.8633 8.52539-15.8594Q9.88281-16.8555 11.5186-17.4023Q13.1543-17.9492 14.9609-17.9492Q16.7773-17.9492 18.4131-17.4023Q20.0488-16.8555 21.4111-15.8594Q22.7734-14.8633 23.7695-13.501Q24.7656-12.1387 25.3174-10.5029Q25.8691-8.86719 25.8691-7.05078Q25.8789-5.24414 25.332-3.6084Q24.7852-1.97266 23.7842-0.610352Q22.7832 0.751953 21.4209 1.74805Q20.0586 2.74414 18.4229 3.2959Q16.7871 3.84766 14.9707 3.84766ZM9.19922-7.05078Q9.19922-6.66992 9.45801-6.4209Q9.7168-6.17188 10.1172-6.17188L14.0625-6.17188L14.0625-2.2168Q14.0625-1.81641 14.3115-1.55762Q14.5605-1.29883 14.9512-1.29883Q15.3516-1.29883 15.6104-1.55273Q15.8691-1.80664 15.8691-2.2168L15.8691-6.17188L19.8242-6.17188Q20.2246-6.17188 20.4785-6.4209Q20.7324-6.66992 20.7324-7.05078Q20.7324-7.46094 20.4785-7.71484Q20.2246-7.96875 19.8242-7.96875L15.8691-7.96875L15.8691-11.9141Q15.8691-12.3242 15.6104-12.583Q15.3516-12.8418 14.9512-12.8418Q14.5605-12.8418 14.3115-12.583Q14.0625-12.3242 14.0625-11.9141L14.0625-7.96875L10.1172-7.96875Q9.70703-7.96875 9.45312-7.71484Q9.19922-7.46094 9.19922-7.05078Z"/>
  </g>
  <text style="stroke:none;fill:black;font-family:sans-serif;font-size:13;font-weight:bold;" transform="matrix(1 0 0 1 263 1953)">Design Variations</text>
  <text style="stroke:none;fill:black;font-family:sans-serif;font-size:13;" transform="matrix(1 0 0 1 263 1971)">Symbols are supported in up to nine weights and three scales.</text>
  <text style="stroke:none;fill:black;font-family:sans-serif;font-size:13;" transform="matrix(1 0 0 1 263 1989)">For optimal layout with text and other symbols, vertically align</text>
  <text style="stroke:none;fill:black;font-family:sans-serif;font-size:13;" transform="matrix(1 0 0 1 263 2007)">symbols with the adjacent text.</text>
  <line style="fill:none;stroke:#00AEEF;stroke-width:0.5;opacity:1.0;" x1="776" x2="776" y1="1919" y2="1933"/>
  <g transform="matrix(1 0 0 1 776 1933)">
   <path d="M3.31055 0.15625Q3.70117 0.15625 3.91602-0.00976562Q4.13086-0.175781 4.26758-0.585938L5.52734-4.0332L11.2891-4.0332L12.5488-0.585938Q12.6855-0.175781 12.9004-0.00976562Q13.1152 0.15625 13.4961 0.15625Q13.8867 0.15625 14.1162-0.0585938Q14.3457-0.273438 14.3457-0.644531Q14.3457-0.869141 14.2383-1.17188L9.6582-13.3691Q9.48242-13.8184 9.17969-14.043Q8.87695-14.2676 8.4082-14.2676Q7.5-14.2676 7.17773-13.3789L2.59766-1.16211Q2.49023-0.859375 2.49023-0.634766Q2.49023-0.263672 2.70996-0.0537109Q2.92969 0.15625 3.31055 0.15625ZM6.00586-5.51758L8.37891-12.0898L8.42773-12.0898L10.8008-5.51758Z"/>
  </g>
  <line style="fill:none;stroke:#00AEEF;stroke-width:0.5;opacity:1.0;" x1="793.197" x2="793.197" y1="1919" y2="1933"/>
  <text style="stroke:none;fill:black;font-family:sans-serif;font-size:13;font-weight:bold;" transform="matrix(1 0 0 1 776 1953)">Margins</text>
  <text style="stroke:none;fill:black;font-family:sans-serif;font-size:13;" transform="matrix(1 0 0 1 776 1971)">Leading and trailing margins on the left and right side of each symbol</text>
  <text style="stroke:none;fill:black;font-family:sans-serif;font-size:13;" transform="matrix(1 0 0 1 776 1989)">can be adjusted by modifying the x-location of the margin guidelines.</text>
  <text style="stroke:none;fill:black;font-family:sans-serif;font-size:13;" transform="matrix(1 0 0 1 776 2007)">Modifications are automatically applied proportionally to all</text>
  <text style="stroke:none;fill:black;font-family:sans-serif;font-size:13;" transform="matrix(1 0 0 1 776 2025)">scales and weights.</text>
  <g transform="matrix(1 0 0 1 1289 1933)">
   <path d="M2.8418 1.86523L4.54102 3.57422Q5.18555 4.22852 5.90332 4.17969Q6.62109 4.13086 7.31445 3.35938L18.0078-8.42773L17.041-9.4043L6.42578 2.27539Q6.16211 2.57812 5.89355 2.61719Q5.625 2.65625 5.27344 2.30469L4.10156 1.14258Q3.75 0.791016 3.79395 0.522461Q3.83789 0.253906 4.14062-0.0195312L15.6152-10.8203L14.6387-11.7871L3.04688-0.898438Q2.30469-0.214844 2.25098 0.498047Q2.19727 1.21094 2.8418 1.86523ZM9.25781-16.3281Q8.94531-16.0254 8.90625-15.6348Q8.86719-15.2441 9.04297-14.9512Q9.21875-14.6777 9.55566-14.541Q9.89258-14.4043 10.3809-14.5215Q11.4746-14.7754 12.5977-14.7314Q13.7207-14.6875 14.7949-13.9844L14.209-12.5293Q13.9551-11.9043 14.0674-11.4404Q14.1797-10.9766 14.5801-10.5664L16.875-8.25195Q17.2363-7.88086 17.5781-7.82227Q17.9199-7.76367 18.3398-7.8418L19.4043-8.03711L20.0684-7.36328L20.0293-6.80664Q20-6.43555 20.1221-6.12305Q20.2441-5.81055 20.6055-5.44922L21.3672-4.70703Q21.7285-4.3457 22.1533-4.33105Q22.5781-4.31641 22.9297-4.66797L25.8398-7.58789Q26.1914-7.93945 26.1816-8.35449Q26.1719-8.76953 25.8105-9.13086L25.0391-9.89258Q24.6875-10.2539 24.3799-10.3857Q24.0723-10.5176 23.7109-10.4883L23.1348-10.4395L22.4902-11.0742L22.7344-12.1973Q22.832-12.6172 22.6953-12.9834Q22.5586-13.3496 22.1191-13.7891L19.9219-15.9766Q18.6719-17.2168 17.2607-17.8369Q15.8496-18.457 14.4189-18.4814Q12.9883-18.5059 11.665-17.959Q10.3418-17.4121 9.25781-16.3281ZM10.752-15.957Q11.6602-16.6211 12.7002-16.9043Q13.7402-17.1875 14.8047-17.085Q15.8691-16.9824 16.8701-16.5137Q17.8711-16.0449 18.7012-15.2051L21.1328-12.793Q21.3086-12.6172 21.3525-12.4512Q21.3965-12.2852 21.3379-12.0312L21.0156-10.5469L22.5195-9.0625L23.5059-9.12109Q23.6914-9.13086 23.7891-9.09668Q23.8867-9.0625 24.0332-8.91602L24.6094-8.33984L22.168-5.89844L21.5918-6.47461Q21.4453-6.62109 21.4062-6.71875Q21.3672-6.81641 21.377-7.01172L21.4453-7.98828L19.9512-9.47266L18.4277-9.21875Q18.1836-9.16992 18.042-9.2041Q17.9004-9.23828 17.7148-9.41406L15.7129-11.416Q15.5176-11.5918 15.4932-11.7529Q15.4688-11.9141 15.5859-12.1875L16.4648-14.2773Q15.293-15.3711 13.8281-15.791Q12.3633-16.2109 10.8398-15.7617Q10.7227-15.7324 10.6885-15.8057Q10.6543-15.8789 10.752-15.957Z"/>
  </g>
  <text style="stroke:none;fill:black;font-family:sans-serif;font-size:13;font-weight:bold;" transform="matrix(1 0 0 1 1289 1953)">Exporting</text>
  <text style="stroke:none;fill:black;font-family:sans-serif;font-size:13;" transform="matrix(1 0 0 1 1289 1971)">Symbols should be outlined when exporting to ensure the</text>
  <text style="stroke:none;fill:black;font-family:sans-serif;font-size:13;" transform="matrix(1 0 0 1 1289 1989)">design is preserved when submitting to Xcode.</text>
  <text id="template-version" style="stroke:none;fill:black;font-family:sans-serif;font-size:13;text-anchor:end;" transform="matrix(1 0 0 1 3036 1933)">Template v.3.0</text>
  <text style="stroke:none;fill:black;font-family:sans-serif;font-size:13;text-anchor:end;" transform="matrix(1 0 0 1 3036 1951)">Requires Xcode 13 or greater</text>
  <text id="descriptive-name" style="stroke:none;fill:black;font-family:sans-serif;font-size:13;text-anchor:end;" transform="matrix(1 0 0 1 3036 1969)">Generated from person.2</text>
  <text style="stroke:none;fill:black;font-family:sans-serif;font-size:13;text-anchor:end;" transform="matrix(1 0 0 1 3036 1987)">Typeset at 100 points</text>
  <text style="stroke:none;fill:black;font-family:sans-serif;font-size:13;" transform="matrix(1 0 0 1 263 726)">Small</text>
  <text style="stroke:none;fill:black;font-family:sans-serif;font-size:13;" transform="matrix(1 0 0 1 263 1156)">Medium</text>
  <text style="stroke:none;fill:black;font-family:sans-serif;font-size:13;" transform="matrix(1 0 0 1 263 1586)">Large</text>
 </g>
 <g id="Guides">
  <g id="H-reference" style="fill:#27AAE1;stroke:none;" transform="matrix(1 0 0 1 339 696)">
   <path d="M0.993347 0L3.6377 0L29.3282-67.1326L30.0301-67.1326L30.0301-70.459L28.1227-70.459ZM11.6882-24.4797L46.9818-24.4797L46.2311-26.7288L12.4382-26.7288ZM55.1193 0L57.7637 0L30.6381-70.459L29.4327-70.459L29.4327-67.1326Z"/>
  </g>
  <line id="Baseline-S" style="fill:none;stroke:#27AAE1;opacity:1;stroke-width:0.5;" x1="263" x2="3036" y1="696" y2="696"/>
  <line id="Capline-S" style="fill:none;stroke:#27AAE1;opacity:1;stroke-width:0.5;" x1="263" x2="3036" y1="625.541" y2="625.541"/>
  <g id="H-reference" style="fill:#27AAE1;stroke:none;" transform="matrix(1 0 0 1 339 1126)">
   <path d="M0.993347 0L3.6377 0L29.3282-67.1326L30.0301-67.1326L30.0301-70.459L28.1227-70.459ZM11.6882-24.4797L46.9818-24.4797L46.2311-26.7288L12.4382-26.7288ZM55.1193 0L57.7637 0L30.6381-70.459L29.4327-70.459L29.4327-67.1326Z"/>
  </g>
  <line id="Baseline-M" style="fill:none;stroke:#27AAE1;opacity:1;stroke-width:0.5;" x1="263" x2="3036" y1="1126" y2="1126"/>
  <line id="Capline-M" style="fill:none;stroke:#27AAE1;opacity:1;stroke-width:0.5;" x1="263" x2="3036" y1="1055.54" y2="1055.54"/>
  <g id="H-reference" style="fill:#27AAE1;stroke:none;" transform="matrix(1 0 0 1 339 1556)">
   <path d="M0.993347 0L3.6377 0L29.3282-67.1326L30.0301-67.1326L30.0301-70.459L28.1227-70.459ZM11.6882-24.4797L46.9818-24.4797L46.2311-26.7288L12.4382-26.7288ZM55.1193 0L57.7637 0L30.6381-70.459L29.4327-70.459L29.4327-67.1326Z"/>
  </g>
  <line id="Baseline-L" style="fill:none;stroke:#27AAE1;opacity:1;stroke-width:0.5;" x1="263" x2="3036" y1="1556" y2="1556"/>
  <line id="Capline-L" style="fill:none;stroke:#27AAE1;opacity:1;stroke-width:0.5;" x1="263" x2="3036" y1="1485.54" y2="1485.54"/>
  <line id="left-margin-Regular-M" style="fill:none;stroke:#00AEEF;stroke-width:0.5;opacity:1.0;" x1="1369.4" x2="1369.4" y1="1030.79" y2="1150.12"/>
  <line id="right-margin-Regular-M" style="fill:none;stroke:#00AEEF;stroke-width:0.5;opacity:1.0;" x1="1530.29" x2="1530.29" y1="1030.79" y2="1150.12"/>
 </g>
 <g id="Symbols">
  <g id="Black-L" transform="matrix(1 0 0 1 2827.04 1556)">
   <path d="M101.792 26.4107L178.217 26.4107Q196.633 26.4107 196.633 13.0556Q196.633 5.63794 192.407-1.55044Q188.18-8.73882 180.549-14.5577Q172.917-20.3766 162.584-23.8854Q152.251-27.3941 139.994-27.3941Q127.759-27.3941 117.426-23.8854Q107.092-20.3766 99.461-14.5577Q91.8296-8.73882 87.6032-1.55044Q83.3768 5.63794 83.3768 13.0556Q83.3768 26.4107 101.792 26.4107ZM102.763 10.7055Q102.129 10.7055 101.867 10.3646Q101.606 10.0238 101.606 9.58536Q101.606 6.89187 104.205 3.27228Q106.805-0.347313 111.735-3.77568Q116.665-7.20405 123.803-9.4471Q130.94-11.6901 139.994-11.6901Q149.069-11.6901 156.207-9.4471Q163.345-7.20405 168.264-3.77568Q173.184-0.347313 175.784 3.27228Q178.384 6.89187 178.384 9.58536Q178.384 10.0238 178.161 10.3646Q177.939 10.7055 177.246 10.7055ZM140.017-33.1397Q148.037-33.1397 154.563-37.3117Q161.09-41.4837 164.95-48.5349Q168.81-55.586 168.81-64.1929Q168.81-72.6174 164.901-79.5271Q160.992-86.4368 154.465-90.5866Q147.938-94.7364 140.017-94.7364Q132.097-94.7364 125.541-90.5658Q118.984-86.3951 115.094-79.475Q111.203-72.555 111.204-64.1513Q111.264-55.5652 115.095-48.5141Q118.926-41.4629 125.452-37.3013Q131.978-33.1397 140.017-33.1397ZM140.017-48.8241Q136.523-48.8241 133.575-50.8132Q130.627-52.8023 128.872-56.3062Q127.118-59.8101 127.118-64.2097Q127.117-68.3684 128.89-71.7121Q130.664-75.0558 133.614-77.0435Q136.563-79.0312 140.017-79.0312Q143.53-79.0312 146.439-77.0545Q149.348-75.0778 151.122-71.7043Q152.897-68.3308 152.897-64.1929Q152.897-59.8518 151.142-56.3667Q149.388-52.8815 146.468-50.8528Q143.549-48.8241 140.017-48.8241ZM32.1355 26.4691L79.264 26.4691Q75.6656 24.2194 73.9517 19.6518Q72.2379 15.0842 72.6465 11.0028L34.3822 11.0028Q33.8006 11.0028 33.5626 10.6887Q33.3245 10.3747 33.3245 9.95349Q33.3245 4.62399 37.6159-0.436417Q41.9072-5.49682 49.2342-8.75432Q56.5611-12.0118 65.5654-12.0118Q68.7867-12.0118 73.1195-11.2137Q77.4523-10.4155 80.0071-9.42521Q81.8556-13.0108 84.6914-15.9998Q87.5273-18.9889 91.5478-21.4191Q85.9751-24.1554 78.7649-25.7584Q71.5546-27.3614 65.5654-27.3614Q55.3542-27.3614 46.3798-24.1598Q37.4054-20.9582 30.5843-15.3872Q23.7631-9.81618 19.9236-2.68097Q16.084 4.45424 16.084 12.3019Q16.084 19.0947 20.0966 22.7819Q24.1091 26.4691 32.1355 26.4691ZM65.5886-32.0223Q72.6235-32.0223 78.3471-35.7118Q84.0707-39.4014 87.4683-45.6185Q90.866-51.8356 90.866-59.3983Q90.866-66.7797 87.4191-72.8852Q83.9723-78.9907 78.2591-82.6398Q72.5459-86.2888 65.5886-86.2888Q58.6533-86.2888 52.8999-82.6189Q47.1465-78.949 43.719-72.8331Q40.2916-66.7172 40.2928-59.3774Q40.3524-51.7356 43.7306-45.5289Q47.1089-39.3221 52.8507-35.6722Q58.5925-32.0223 65.5886-32.0223ZM65.5886-47.4523Q61.5639-47.4523 58.6433-50.85Q55.7227-54.2477 55.7227-59.3774Q55.7227-62.5295 57.0757-65.1384Q58.4286-67.7473 60.7135-69.3031Q62.9983-70.8589 65.5886-70.8589Q68.1997-70.8589 70.4559-69.3141Q72.7121-67.7693 74.0845-65.1604Q75.4568-62.5515 75.4568-59.3983Q75.4568-54.2685 72.5642-50.8604Q69.6717-47.4523 65.5886-47.4523Z"/>
  </g>
  <g id="Heavy-L" transform="matrix(1 0 0 1 2530.97 1556)">
   <path d="M100.534 25.8243L177.74 25.8243Q195.349 25.8243 195.349 13.2993Q195.349 6.17551 191.228-0.965411Q187.107-8.10634 179.594-14.0041Q172.081-19.9018 161.797-23.5032Q151.513-27.1045 139.122-27.1045Q126.766-27.1045 116.482-23.5032Q106.198-19.9018 98.685-14.0041Q91.1724-8.10634 87.0513-0.965411Q82.9302 6.17551 82.9302 13.2993Q82.9302 25.8243 100.534 25.8243ZM100.623 11.7192Q99.7944 11.7192 99.4432 11.3549Q99.092 10.9905 99.092 10.391Q99.092 7.37589 101.783 3.38955Q104.473-0.596788 109.608-4.34721Q114.743-8.09763 122.19-10.5513Q129.638-13.005 139.122-13.005Q148.635-13.005 156.086-10.5513Q163.536-8.09763 168.656-4.34721Q173.776-0.596788 176.466 3.38955Q179.157 7.37589 179.157 10.391Q179.157 10.9905 178.843 11.3549Q178.529 11.7192 177.65 11.7192ZM139.163-33.4Q147.046-33.4 153.477-37.5223Q159.909-41.6447 163.722-48.6073Q167.535-55.5699 167.535-64.0627Q167.535-72.3879 163.686-79.1997Q159.838-86.0115 153.407-90.0835Q146.975-94.1556 139.163-94.1556Q131.356-94.1556 124.9-90.0533Q118.443-85.9511 114.602-79.1242Q110.761-72.2974 110.767-64.0023Q110.817-55.5398 114.608-48.5772Q118.398-41.6145 124.827-37.5073Q131.256-33.4 139.163-33.4ZM139.163-47.4749Q135.361-47.4749 132.169-49.6348Q128.978-51.7946 127.076-55.5621Q125.174-59.3297 125.174-64.0469Q125.168-68.5521 127.08-72.1616Q128.993-75.7711 132.189-77.9107Q135.386-80.0504 139.163-80.0504Q142.984-80.0504 146.141-77.9286Q149.297-75.8069 151.213-72.1722Q153.128-68.5376 153.128-64.0627Q153.128-59.3901 151.225-55.6298Q149.323-51.8694 146.151-49.6722Q142.98-47.4749 139.163-47.4749ZM31.2871 25.869L79.1265 25.869Q75.8733 23.8697 74.229 19.8142Q72.5847 15.7586 72.9497 11.9939L32.6656 11.9939Q31.9476 11.9939 31.6406 11.6406Q31.3336 11.2874 31.3336 10.7012Q31.3336 4.75178 35.8739-0.771862Q40.4143-6.2955 48.1038-9.81109Q55.7934-13.3267 65.1246-13.3267Q69.0641-13.3267 73.6775-12.3619Q78.2909-11.3971 81.3569-9.9495Q83.1066-13.0884 85.6631-15.7429Q88.2196-18.3975 91.7525-20.5823Q86.0388-23.6633 78.8085-25.388Q71.5783-27.1126 65.1246-27.1126Q54.9752-27.1126 46.0807-23.8862Q37.1862-20.6597 30.4325-15.075Q23.6787-9.49018 19.8814-2.34233Q16.084 4.80552 16.084 12.6239Q16.084 19.029 19.8834 22.449Q23.6828 25.869 31.2871 25.869ZM65.1661-32.395Q72.0593-32.395 77.6921-36.0349Q83.325-39.6747 86.6683-45.808Q90.0116-51.9413 90.0116-59.3942Q90.0116-66.6852 86.6332-72.6928Q83.2547-78.7004 77.637-82.2855Q72.0192-85.8707 65.1661-85.8707Q58.3488-85.8707 52.6908-82.2554Q47.0328-78.6401 43.6644-72.6173Q40.296-66.5946 40.3016-59.364Q40.3519-51.8364 43.6852-45.7182Q47.0184-39.6 52.6557-35.9975Q58.293-32.395 65.1661-32.395ZM65.1661-46.2613Q60.6692-46.2613 57.4186-50.0164Q54.1679-53.7715 54.1679-59.364Q54.1679-62.8437 55.6709-65.7116Q57.1739-68.5794 59.7088-70.2919Q62.2437-72.0043 65.1661-72.0043Q68.1186-72.0043 70.634-70.3098Q73.1495-68.6152 74.6625-65.7474Q76.1755-62.8795 76.1755-59.3942Q76.1755-53.8018 72.9415-50.0315Q69.7076-46.2613 65.1661-46.2613Z"/>
  </g>
  <g id="Bold-L" transform="matrix(1 0 0 1 2235.06 1556)">
   <path d="M98.9141 25.0721L177.26 25.0721Q193.743 25.0721 193.743 13.5691Q193.743 6.77687 189.745-0.29892Q185.747-7.37471 178.377-13.3499Q171.007-19.3251 160.795-23.0194Q150.584-26.7137 138.068-26.7137Q125.603-26.7137 115.392-23.0194Q105.18-19.3251 97.8102-13.3499Q90.4399-7.37471 86.442-0.29892Q82.4441 6.77687 82.4441 13.5691Q82.4441 25.0721 98.9141 25.0721ZM98.1436 13.0166Q96.9871 13.0166 96.4984 12.5991Q96.0098 12.1817 96.0098 11.3377Q96.0098 7.89323 98.8192 3.44979Q101.629-0.993641 107.021-5.13244Q112.413-9.27123 120.241-11.9712Q128.069-14.6713 138.068-14.6713Q148.105-14.6713 155.94-11.9712Q163.774-9.27123 169.147-5.13244Q174.521-0.993641 177.33 3.44979Q180.14 7.89323 180.14 11.3377Q180.14 12.1817 179.685 12.5991Q179.229 13.0166 178.03 13.0166ZM138.132-33.7153Q145.846-33.7153 152.151-37.7687Q158.456-41.822 162.2-48.6696Q165.944-55.5171 165.944-63.8715Q165.944-72.0589 162.177-78.7478Q158.409-85.4367 152.104-89.4164Q145.799-93.3962 138.132-93.3962Q130.479-93.3962 124.153-89.3784Q117.827-85.3607 114.055-78.6529Q110.283-71.945 110.296-63.7955Q110.338-55.4792 114.068-48.6317Q117.797-41.7842 124.096-37.7497Q130.394-33.7153 138.132-33.7153ZM138.132-45.7329Q133.924-45.7329 130.418-48.1078Q126.912-50.4826 124.822-54.5879Q122.731-58.6933 122.731-63.8247Q122.718-68.7602 124.811-72.7112Q126.903-76.6623 130.422-79.0014Q133.941-81.3404 138.132-81.3404Q142.353-81.3404 145.832-79.027Q149.311-76.7135 151.41-72.7412Q153.509-68.7689 153.509-63.8715Q153.509-58.7693 151.418-54.6596Q149.328-50.5499 145.83-48.1414Q142.333-45.7329 138.132-45.7329ZM30.1748 25.1013L79.1064 25.1013Q76.2983 23.4169 74.7572 20.0065Q73.2161 16.5961 73.4976 13.2606L30.6489 13.2606Q29.6875 13.2606 29.2699 12.8313Q28.8522 12.402 28.8522 11.5564Q28.8522 4.83851 33.6925-1.25016Q38.5327-7.33882 46.6681-11.1659Q54.8034-14.9929 64.5566-14.9929Q69.4172-14.9929 74.4436-13.7909Q79.4699-12.5888 83.1587-10.5279Q84.763-13.1136 86.9588-15.3458Q89.1546-17.578 92.0806-19.4481Q86.1902-22.9818 78.8921-24.8786Q71.5941-26.7755 64.5566-26.7755Q54.4468-26.7755 45.6485-23.5145Q36.8501-20.2536 30.1958-14.6534Q23.5415-9.05323 19.8127-1.90865Q16.084 5.23593 16.084 12.9787Q16.084 18.9073 19.6034 22.0043Q23.1228 25.1013 30.1748 25.1013ZM64.6212-32.8038Q71.3451-32.8038 76.8591-36.3748Q82.373-39.9458 85.6435-45.9678Q88.9139-51.9899 88.9139-59.3121Q88.9139-66.4805 85.6201-72.3652Q82.3263-78.25 76.8313-81.7582Q71.3363-85.2664 64.6212-85.2664Q57.9574-85.2664 52.4221-81.7202Q46.8869-78.174 43.5953-72.2702Q40.3037-66.3664 40.3168-59.274Q40.3594-51.8849 43.6276-45.8818Q46.8958-39.8787 52.3988-36.3412Q57.9017-32.8038 64.6212-32.8038ZM64.6212-44.6668Q59.5105-44.6668 55.8451-48.8712Q52.1798-53.0755 52.1798-59.274Q52.1798-63.1685 53.8746-66.3702Q55.5695-69.5718 58.423-71.4876Q61.2766-73.4034 64.6212-73.4034Q68.0037-73.4034 70.8493-71.5132Q73.6949-69.6231 75.392-66.4214Q77.0891-63.2197 77.0891-59.3121Q77.0891-53.1136 73.4251-48.8902Q69.7611-44.6668 64.6212-44.6668Z"/>
  </g>
  <g id="Semibold-L" transform="matrix(1 0 0 1 1938.91 1556)">
   <path d="M97.7977 24.5535L176.929 24.5535Q192.636 24.5535 192.636 13.7552Q192.636 7.19144 188.723 0.160554Q184.81-6.87033 177.538-12.899Q170.266-18.9276 160.105-22.6859Q149.944-26.4442 137.342-26.4442Q124.802-26.4442 114.641-22.6859Q104.479-18.9276 97.2071-12.899Q89.935-6.87033 86.022 0.160554Q82.109 7.19144 82.109 13.7552Q82.109 24.5535 97.7977 24.5535ZM96.4342 13.911Q95.0517 13.911 94.4683 13.4569Q93.8849 13.0029 93.8849 11.9904Q93.8849 8.24988 96.7763 3.49132Q99.6676-1.26723 105.237-5.67377Q110.807-10.0803 118.897-12.9501Q126.987-15.82 137.342-15.82Q147.739-15.82 155.839-12.9501Q163.938-10.0803 169.486-5.67377Q175.034-1.26723 177.926 3.49132Q180.817 8.24988 180.817 11.9904Q180.817 13.0029 180.265 13.4569Q179.712 13.911 178.292 13.911ZM137.422-33.9327Q145.019-33.9327 151.237-37.9385Q157.455-41.9443 161.151-48.7125Q164.848-55.4807 164.848-63.7397Q164.848-71.832 161.136-78.4363Q157.424-85.0405 151.206-88.9565Q144.989-92.8726 137.422-92.8726Q129.874-92.8726 123.638-88.9132Q117.402-84.9537 113.677-78.3279Q109.953-71.7021 109.971-63.6529Q110.008-55.4375 113.696-48.6693Q117.383-41.9011 123.592-37.9169Q129.8-33.9327 137.422-33.9327ZM137.422-44.532Q132.933-44.532 129.21-47.055Q125.488-49.5781 123.268-53.9163Q121.047-58.2545 121.047-63.6715Q121.029-68.9037 123.246-73.0902Q125.463-77.2767 129.204-79.7532Q132.945-82.2298 137.422-82.2298Q141.918-82.2298 145.619-79.7842Q149.32-77.3386 151.546-73.1334Q153.772-68.9283 153.772-63.7397Q153.772-58.3412 151.552-53.9907Q149.332-49.6402 145.609-47.0861Q141.886-44.532 137.422-44.532ZM29.408 24.5721L79.0926 24.5721Q76.5913 23.1048 75.1214 20.1391Q73.6514 17.1735 73.8753 14.1338L29.2587 14.1338Q28.1294 14.1338 27.6355 13.6521Q27.1416 13.1705 27.1416 12.1459Q27.1416 4.89831 32.1886-1.57989Q37.2356-8.05809 45.6783-12.0999Q54.1209-16.1416 64.1651-16.1416Q69.6607-16.1416 74.9717-14.776Q80.2827-13.4104 84.4008-10.9267Q85.905-13.131 87.8521-15.072Q89.7992-17.013 92.3067-18.6663Q86.2947-22.5119 78.9498-24.5275Q71.6049-26.543 64.1651-26.543Q54.0826-26.543 45.3505-23.2583Q36.6184-19.9736 30.0326-14.3628Q23.4468-8.752 19.7654-1.60967Q16.084 5.53265 16.084 13.2233Q16.084 18.8235 19.4104 21.6978Q22.7368 24.5721 29.408 24.5721ZM64.2456-33.0857Q70.8528-33.0857 76.2848-36.6091Q81.7168-40.1326 84.937-46.078Q88.1572-52.0234 88.1572-59.2555Q88.1572-66.3394 84.9217-72.1394Q81.6862-77.9394 76.2758-81.3946Q70.8655-84.8498 64.2456-84.8498Q57.6875-84.8498 52.2369-81.3512Q46.7864-77.8527 43.5477-72.0309Q40.309-66.2091 40.3273-59.212Q40.3645-51.9184 43.5879-45.9946Q46.8113-40.0708 52.2216-36.5782Q57.632-33.0857 64.2456-33.0857ZM64.2456-43.5675Q58.7117-43.5675 54.7604-48.0816Q50.8091-52.5957 50.8091-59.212Q50.8091-63.3924 52.6363-66.8242Q54.4634-70.256 57.5366-72.312Q60.6098-74.368 64.2456-74.368Q67.9245-74.368 70.9978-72.3429Q74.071-70.3179 75.895-66.886Q77.7189-63.4542 77.7189-59.2555Q77.7189-52.6393 73.7585-48.1034Q69.798-43.5675 64.2456-43.5675Z"/>
  </g>
  <g id="Medium-L" transform="matrix(1 0 0 1 1642.61 1556)">
   <path d="M96.9512 24.1603L176.678 24.1603Q191.797 24.1603 191.797 13.8962Q191.797 7.50578 187.948 0.508947Q184.1-6.48789 176.902-12.557Q169.704-18.6261 159.581-22.433Q149.458-26.2399 136.791-26.2399Q124.194-26.2399 114.071-22.433Q103.948-18.6261 96.7499-12.557Q89.5521-6.48789 85.7035 0.508947Q81.8549 7.50578 81.8549 13.8962Q81.8549 24.1603 96.9512 24.1603ZM95.138 14.5891Q93.5843 14.5891 92.9291 14.1073Q92.2738 13.6256 92.2738 12.4853Q92.2738 8.5203 95.2273 3.52281Q98.1807-1.47467 103.885-6.08423Q109.589-10.6938 117.878-13.6924Q126.167-16.691 136.791-16.691Q147.462-16.691 155.762-13.6924Q164.063-10.6938 169.743-6.08423Q175.424-1.47467 178.377 3.52281Q181.331 8.5203 181.331 12.4853Q181.331 13.6256 180.705 14.1073Q180.078 14.5891 178.491 14.5891ZM136.883-34.0975Q144.392-34.0975 150.544-38.0672Q156.696-42.037 160.356-48.7451Q164.017-55.4531 164.017-63.6397Q164.017-71.6601 160.347-78.2Q156.677-84.74 150.525-88.6078Q144.374-92.4756 136.883-92.4756Q129.416-92.4756 123.248-88.5604Q117.079-84.6451 113.391-78.0815Q109.702-71.5179 109.725-63.5448Q109.758-55.4059 113.413-48.6978Q117.069-41.9898 123.209-38.0436Q129.35-34.0975 136.883-34.0975ZM136.883-43.6214Q132.182-43.6214 128.295-46.2568Q124.408-48.8923 122.089-53.407Q119.771-57.9218 119.771-63.5553Q119.748-69.0125 122.059-73.3775Q124.37-77.7426 128.28-80.3233Q132.19-82.9041 136.883-82.9041Q141.588-82.9041 145.457-80.3583Q149.326-77.8125 151.649-73.4308Q153.971-69.0492 153.971-63.6397Q153.971-58.0167 151.653-53.4836Q149.334-48.9504 145.441-46.2859Q141.548-43.6214 136.883-43.6214ZM28.8266 24.1708L79.0822 24.1708Q76.8135 22.8681 75.3975 20.2397Q73.9815 17.6112 74.1618 14.796L28.2045 14.796Q26.948 14.796 26.3962 14.2745Q25.8445 13.7531 25.8445 12.5929Q25.8445 4.94365 31.0483-1.82991Q36.252-8.60346 44.9277-12.8081Q53.6035-17.0126 63.8682-17.0126Q69.8452-17.0126 75.3721-15.523Q80.899-14.0334 85.3426-11.2291Q86.7708-13.1442 88.5294-14.8644Q90.2879-16.5846 92.4782-18.0734Q86.3738-22.1556 78.9935-24.2612Q71.6132-26.3668 63.8682-26.3668Q53.8064-26.3668 45.1246-23.0641Q36.4427-19.7614 29.9089-14.1425Q23.3751-8.52359 19.7295-1.38297Q16.084 5.75764 16.084 13.4088Q16.084 18.7599 19.2641 21.4653Q22.4441 24.1708 28.8266 24.1708ZM63.9607-33.2994Q70.4795-33.2994 75.8494-36.7868Q81.2192-40.2742 84.4013-46.1615Q87.5834-52.0488 87.5834-59.2126Q87.5834-66.2324 84.3922-71.9682Q81.2009-77.7039 75.8547-81.1189Q70.5085-84.5339 63.9607-84.5339Q57.4829-84.5339 52.0965-81.0715Q46.7101-77.609 43.5116-71.8494Q40.313-66.0898 40.3353-59.165Q40.3684-51.9438 43.5578-46.0801Q46.7472-40.2165 52.0873-36.7579Q57.4274-33.2994 63.9607-33.2994ZM63.9607-42.734Q58.106-42.734 53.9379-47.4829Q49.7699-52.2319 49.7699-59.165Q49.7699-63.5621 51.6973-67.1685Q53.6248-70.7748 56.8645-72.9371Q60.1042-75.0993 63.9607-75.0993Q67.8645-75.0993 71.1103-72.972Q74.3561-70.8447 76.2763-67.2384Q78.1965-63.632 78.1965-59.2126Q78.1965-52.2796 74.0113-47.5068Q69.826-42.734 63.9607-42.734Z"/>
  </g>
  <g id="Regular-L" transform="matrix(1 0 0 1 1346.45 1556)">
   <path d="M95.847 23.6474L176.351 23.6474Q190.702 23.6474 190.702 14.0802Q190.702 7.9158 186.938 0.963373Q183.173-5.98905 176.072-12.111Q168.972-18.233 158.898-22.1032Q148.824-25.9733 136.073-25.9733Q123.402-25.9733 113.328-22.1032Q103.254-18.233 96.1534-12.111Q89.0527-5.98905 85.2881 0.963373Q81.5234 7.9158 81.5234 14.0802Q81.5234 23.6474 95.847 23.6474ZM93.4474 15.4737Q91.6702 15.4737 90.9213 14.9557Q90.1723 14.4377 90.1723 13.1308Q90.1723 8.87303 93.2068 3.56389Q96.2413-1.74525 102.121-6.61961Q108.001-11.494 116.549-14.6605Q125.098-17.8271 136.073-17.8271Q147.1-17.8271 155.663-14.6605Q164.225-11.494 170.078-6.61961Q175.931-1.74525 178.966 3.56389Q182.001 8.87303 182.001 13.1308Q182.001 14.4377 181.278 14.9557Q180.556 15.4737 178.751 15.4737ZM136.181-34.3125Q143.574-34.3125 149.64-38.2352Q155.705-42.1579 159.319-48.7875Q162.932-55.4171 162.932-63.5094Q162.932-71.4357 159.317-77.8919Q155.702-84.3481 149.637-88.153Q143.572-91.9578 136.181-91.9578Q128.818-91.9578 122.738-88.1002Q116.659-84.2426 113.018-77.7601Q109.376-71.2776 109.404-63.4038Q109.431-55.3646 113.045-48.735Q116.659-42.1054 122.711-38.2089Q128.762-34.3125 136.181-34.3125ZM136.181-42.4336Q131.202-42.4336 127.1-45.2157Q122.999-47.9977 120.552-52.7428Q118.105-57.4879 118.105-63.4038Q118.078-69.1544 120.512-73.7523Q122.946-78.3502 127.075-81.0669Q131.204-83.7837 136.181-83.7837Q141.157-83.7837 145.246-81.1072Q149.335-78.4306 151.783-73.8188Q154.231-69.2069 154.231-63.5094Q154.231-57.5934 151.784-52.8221Q149.338-48.0508 145.222-45.2422Q141.107-42.4336 136.181-42.4336ZM28.0682 23.6474L79.0685 23.6474Q77.1033 22.5595 75.7577 20.3708Q74.412 18.1822 74.5354 15.6596L26.8295 15.6596Q25.407 15.6596 24.7798 15.0864Q24.1526 14.5131 24.1526 13.176Q24.1526 5.00279 29.5609-2.15602Q34.9691-9.31482 43.9488-13.7318Q52.9285-18.1487 63.4809-18.1487Q70.086-18.1487 75.8944-16.4973Q81.7028-14.8459 86.571-11.6235Q87.9002-13.1615 89.4128-14.5936Q90.9254-16.0258 92.7019-17.3002Q86.4771-21.6909 79.0505-23.9139Q71.624-26.1369 63.4809-26.1369Q53.4462-26.1369 44.8299-22.8107Q36.2135-19.4845 29.7475-13.8551Q23.2815-8.22567 19.6827-1.08728Q16.084 6.0511 16.084 13.6507Q16.084 18.6769 19.0732 21.1621Q22.0624 23.6474 28.0682 23.6474ZM63.5892-33.5781Q69.9926-33.5781 75.2814-37.0186Q80.5701-40.459 83.7026-46.2705Q86.8351-52.0819 86.8351-59.1566Q86.8351-66.0928 83.7014-71.7448Q80.5678-77.3968 75.3054-80.7593Q70.0429-84.1219 63.5892-84.1219Q57.216-84.1219 51.9133-80.7066Q46.6106-77.2912 43.4644-71.6127Q40.3183-65.9342 40.3457-59.1036Q40.3736-51.9769 43.5186-46.1917Q46.6636-40.4065 51.9122-36.9923Q57.1607-33.5781 63.5892-33.5781ZM63.5892-41.6468Q57.3159-41.6468 52.8651-46.7021Q48.4143-51.7574 48.4143-59.1036Q48.4143-63.7836 50.4726-67.6175Q52.5309-71.4514 55.9878-73.7523Q59.4448-76.0533 63.5892-76.0533Q67.7862-76.0533 71.2571-73.7926Q74.728-71.5319 76.7737-67.6979Q78.8194-63.864 78.8194-59.1566Q78.8194-51.8104 74.341-46.7286Q69.8625-41.6468 63.5892-41.6468Z"/>
  </g>
  <g id="Light-L" transform="matrix(1 0 0 1 1050.34 1556)">
   <path d="M94.3393 22.9602L176.732 22.9602Q189.5 22.9602 189.5 14.061Q189.5 7.9158 185.773 1.04931Q182.047-5.81718 175.013-11.8628Q167.979-17.9085 158.03-21.7023Q148.08-25.4962 135.519-25.4962Q123.039-25.4962 113.089-21.7023Q103.14-17.9085 96.1058-11.8628Q89.072-5.81718 85.3455 1.04931Q81.619 7.9158 81.619 14.061Q81.619 22.9602 94.3393 22.9602ZM92.8365 16.638Q90.277 16.638 89.2609 15.929Q88.2449 15.2201 88.2449 13.4553Q88.2449 8.70116 91.4033 3.05806Q94.5617-2.58505 100.642-7.65981Q106.722-12.7346 115.509-15.9774Q124.296-19.2203 135.519-19.2203Q146.776-19.2203 155.586-15.9774Q164.397-12.7346 170.46-7.65981Q176.523-2.58505 179.682 3.05806Q182.841 8.70116 182.841 13.4553Q182.841 15.2201 181.841 15.929Q180.842 16.638 178.235 16.638ZM135.646-34.4843Q142.925-34.4843 148.848-38.3115Q154.77-42.1387 158.269-48.6538Q161.768-55.1689 161.768-63.1849Q161.768-70.9204 158.239-77.2812Q154.71-83.642 148.788-87.4087Q142.866-91.1754 135.646-91.1754Q128.474-91.1754 122.528-87.375Q116.583-83.5746 113.037-77.1972Q109.491-70.8197 109.538-63.1175Q109.584-55.1356 113.083-48.6205Q116.583-42.1054 122.482-38.2949Q128.381-34.4843 135.646-34.4843ZM135.646-40.7733Q130.229-40.7733 125.822-43.727Q121.415-46.6808 118.806-51.7313Q116.197-56.7818 116.197-63.1175Q116.151-69.1736 118.766-74.0864Q121.381-78.9992 125.835-81.9258Q130.288-84.8524 135.646-84.8524Q141.004-84.8524 145.418-81.966Q149.832-79.0797 152.47-74.1433Q155.109-69.2069 155.109-63.1849Q155.109-56.8492 152.5-51.782Q149.891-46.7149 145.461-43.7441Q141.03-40.7733 135.646-40.7733ZM26.9039 22.9602L80.0228 22.9602Q78.4773 22.1205 77.313 20.4472Q76.1487 18.7738 76.0242 16.7858L26.1423 16.7858Q24.0711 16.7858 23.2054 15.9834Q22.3396 15.181 22.3396 13.3097Q22.3396 4.60197 27.9005-2.8908Q33.4614-10.3836 42.7274-14.9628Q51.9935-19.542 62.9464-19.542Q70.3913-19.542 76.9059-17.5279Q83.4206-15.5138 88.6515-11.5661Q89.7324-12.7225 90.9015-13.8111Q92.0705-14.8997 93.408-15.888Q87.0498-20.7559 79.2987-23.2365Q71.5477-25.7172 62.9464-25.7172Q52.702-25.7172 44.1332-22.3432Q35.5645-18.9692 29.2704-13.3398Q22.9763-7.71038 19.5301-0.696083Q16.084 6.31821 16.084 13.6126Q16.084 18.3335 18.7774 20.6469Q21.4708 22.9602 26.9039 22.9602ZM63.0739-33.5207Q69.401-33.5207 74.5657-36.8658Q79.7303-40.2108 82.7768-45.8982Q85.8234-51.5856 85.8234-58.6032Q85.8234-65.3867 82.7472-70.9433Q79.6709-76.4999 74.523-79.8243Q69.375-83.1487 63.0739-83.1487Q56.8533-83.1487 51.6651-79.7906Q46.4769-76.4325 43.4072-70.8589Q40.3375-65.2852 40.3838-58.5691Q40.431-51.519 43.471-45.8483Q46.511-40.1775 51.6354-36.8491Q56.7599-33.5207 63.0739-33.5207ZM63.0739-39.7764Q56.1898-39.7764 51.4146-45.1847Q46.6395-50.5931 46.6395-58.5691Q46.6395-63.5928 48.8695-67.7416Q51.0995-71.8904 54.8331-74.3917Q58.5668-76.8931 63.0739-76.8931Q67.6143-76.8931 71.3716-74.4319Q75.1288-71.9708 77.3653-67.822Q79.6018-63.6732 79.6018-58.6032Q79.6018-50.6272 74.78-45.2018Q69.9581-39.7764 63.0739-39.7764Z"/>
  </g>
  <g id="Thin-L" transform="matrix(1 0 0 1 754.425 1556)">
   <path d="M92.3452 22.0514L177.237 22.0514Q187.91 22.0514 187.91 14.0356Q187.91 7.9158 184.234 1.16297Q180.558-5.58986 173.612-11.5346Q166.667-17.4793 156.881-21.1722Q147.096-24.8652 134.787-24.8652Q122.559-24.8652 112.774-21.1722Q102.988-17.4793 96.0428-11.5346Q89.0974-5.58986 85.4214 1.16297Q81.7454 7.9158 81.7454 14.0356Q81.7454 22.0514 92.3452 22.0514ZM92.0286 18.1778Q88.4343 18.1778 87.065 17.2164Q85.6956 16.2549 85.6956 13.8845Q85.6956 8.47385 89.018 2.38905Q92.3403-3.69575 98.6854-9.03557Q105.03-14.3754 114.133-17.7192Q123.236-21.063 134.787-21.063Q146.347-21.063 155.486-17.7192Q164.624-14.3754 170.965-9.03557Q177.306-3.69575 180.628 2.38905Q183.951 8.47385 183.951 13.8845Q183.951 16.2549 182.586 17.2164Q181.221 18.1778 177.554 18.1778ZM134.939-34.7116Q142.067-34.7116 147.8-38.4124Q153.533-42.1133 156.881-48.477Q160.228-54.8407 160.228-62.7557Q160.228-70.2389 156.813-76.4736Q153.397-82.7082 147.665-86.4244Q141.932-90.1407 134.939-90.1407Q128.02-90.1407 122.251-86.416Q116.482-82.6913 113.062-76.4527Q109.642-70.2141 109.715-62.7388Q109.786-54.8328 113.134-48.4691Q116.482-42.1054 122.179-38.4085Q127.876-34.7116 134.939-34.7116ZM134.939-38.5773Q128.942-38.5773 124.131-41.7582Q119.32-44.9391 116.496-50.3935Q113.673-55.8479 113.673-62.7388Q113.601-69.1991 116.456-74.5283Q119.311-79.8576 124.194-83.0618Q129.077-86.2659 134.939-86.2659Q140.803-86.2659 145.645-83.102Q150.488-79.938 153.379-74.5725Q156.27-69.2069 156.27-62.7557Q156.27-55.8648 153.447-50.4065Q150.623-44.9481 145.776-41.7627Q140.93-38.5773 134.939-38.5773ZM25.364 22.0514L81.2849 22.0514Q80.2945 21.5399 79.3701 20.5481Q78.4456 19.5563 77.9932 18.2752L25.2335 18.2752Q22.3044 18.2752 21.1231 17.1698Q19.9418 16.0644 19.9418 13.4866Q19.9418 4.07185 25.7046-3.86261Q31.4673-11.7971 41.1121-16.5909Q50.7568-21.3847 62.2394-21.3847Q70.795-21.3847 78.2437-18.8909Q85.6925-16.3972 91.403-11.4902Q92.1557-12.1419 92.8703-12.7761Q93.5849-13.4103 94.3418-14.0203Q87.8072-19.5192 79.627-22.3406Q71.4467-25.1621 62.2394-25.1621Q51.7177-25.1621 43.2119-21.7249Q34.7061-18.2876 28.6393-12.6583Q22.5725-7.02886 19.3282-0.178689Q16.084 6.67148 16.084 13.5621Q16.084 17.8793 18.3861 19.9653Q20.6883 22.0514 25.364 22.0514ZM62.3924-33.4448Q68.6186-33.4448 73.6191-36.6637Q78.6196-39.8826 81.5525-45.4058Q84.4854-50.9291 84.4854-57.8712Q84.4854-64.4529 81.4851-69.8833Q78.4847-75.3137 73.4882-78.5877Q68.4916-81.8616 62.3924-81.8616Q56.3737-81.8616 51.3369-78.5792Q46.3001-75.2968 43.3315-69.8618Q40.3629-64.4269 40.4343-57.8621Q40.5069-50.9134 43.408-45.394Q46.3091-39.8747 51.2694-36.6598Q56.2297-33.4448 62.3924-33.4448ZM62.3924-37.3026Q54.7003-37.3026 49.4962-43.1779Q44.2921-49.0532 44.2921-57.8621Q44.2921-63.3404 46.7492-67.9057Q49.2063-72.471 53.306-75.2374Q57.4057-78.0038 62.3924-78.0038Q67.387-78.0038 71.523-75.2776Q75.6589-72.5514 78.1478-67.9861Q80.6366-63.4209 80.6366-57.8712Q80.6366-49.0623 75.3605-43.1825Q70.0845-37.3026 62.3924-37.3026Z"/>
  </g>
  <g id="Ultralight-L" transform="matrix(1 0 0 1 458.121 1556)">
   <path d="M91.3239 21.5859L177.496 21.5859Q187.095 21.5859 187.095 14.0225Q187.095 7.9158 183.445 1.22118Q179.795-5.47344 172.895-11.3664Q165.994-17.2594 156.293-20.9007Q146.592-24.5419 134.412-24.5419Q122.314-24.5419 112.612-20.9007Q102.911-17.2594 96.0106-11.3664Q89.1105-5.47344 85.4603 1.22118Q81.8101 7.9158 81.8101 14.0225Q81.8101 21.5859 91.3239 21.5859ZM91.6148 18.9666Q87.4905 18.9666 85.9402 17.8757Q84.3899 16.7849 84.3899 14.1043Q84.3899 8.35742 87.7962 2.04639Q91.2025-4.26465 97.6834-9.74023Q104.164-15.2158 113.428-18.6113Q122.693-22.0068 134.412-22.0068Q146.127-22.0068 155.434-18.6113Q164.741-15.2158 171.224-9.74023Q177.706-4.26465 181.113 2.04639Q184.52 8.35742 184.52 14.1043Q184.52 16.7849 182.967 17.8757Q181.415 18.9666 177.205 18.9666ZM134.577-34.8281Q141.627-34.8281 147.264-38.4641Q152.9-42.1002 156.17-48.3864Q159.439-54.6726 159.439-62.5359Q159.439-69.8898 156.082-76.0599Q152.725-82.2299 147.089-85.9203Q141.454-89.6106 134.577-89.6106Q127.787-89.6106 122.109-85.9247Q116.43-82.2388 113.075-76.0714Q109.72-69.904 109.805-62.5448Q109.889-54.6777 113.16-48.3916Q116.43-42.1054 122.024-38.4667Q127.618-34.8281 134.577-34.8281ZM134.577-37.4526Q128.283-37.4526 123.265-40.7498Q118.247-44.0469 115.313-49.7083Q112.38-55.3696 112.38-62.5448Q112.296-69.2121 115.273-74.7547Q118.25-80.2972 123.353-83.6436Q128.456-86.9899 134.577-86.9899Q140.699-86.9899 145.762-83.6838Q150.824-80.3777 153.845-74.7923Q156.865-69.2069 156.865-62.5359Q156.865-55.3607 153.931-49.7019Q150.998-44.0432 145.938-40.7479Q140.878-37.4526 134.577-37.4526ZM24.5753 21.5859L81.9313 21.5859Q81.2253 21.2425 80.4237 20.5998Q79.6221 19.9571 79.0018 19.038L24.768 19.038Q21.3994 19.038 20.0565 17.7775Q18.7137 16.5169 18.7137 13.5772Q18.7137 3.80033 24.5798-4.36036Q30.446-12.5211 40.2847-17.4248Q50.1234-22.3285 61.8773-22.3285Q71.0018-22.3285 78.929-19.5891Q86.8561-16.8497 92.8123-11.4513Q93.3969-11.8445 93.8788-12.246Q94.3606-12.6474 94.8202-13.0637Q88.1952-18.8858 79.7951-21.8818Q71.395-24.8777 61.8773-24.8777Q51.2135-24.8777 42.74-21.4082Q34.2665-17.9386 28.3161-12.3092Q22.3657-6.67979 19.2249 0.0863169Q16.084 6.85242 16.084 13.5363Q16.084 17.6467 18.1858 19.6163Q20.2875 21.5859 24.5753 21.5859ZM62.0433-33.4059Q68.2178-33.4059 73.1343-36.5602Q78.0507-39.7145 80.9254-45.1536Q83.8-50.5928 83.8-57.4963Q83.8-63.9745 80.8386-69.3404Q77.8772-74.7062 72.9582-77.9542Q68.0391-81.2023 62.0433-81.2023Q56.128-81.2023 51.1687-77.9587Q46.2095-74.7151 43.2927-69.3512Q40.376-63.9872 40.4602-57.5Q40.5457-50.6032 43.3757-45.1614Q46.2057-39.7196 51.082-36.5628Q55.9582-33.4059 62.0433-33.4059ZM62.0433-36.0356Q53.9375-36.0356 48.5136-42.1501Q43.0898-48.2645 43.0898-57.5Q43.0898-63.2112 45.6632-67.9898Q48.2366-72.7684 52.5238-75.6705Q56.8109-78.5727 62.0433-78.5727Q67.2706-78.5727 71.6005-75.7107Q75.9305-72.8488 78.5485-68.0702Q81.1666-63.2916 81.1666-57.4963Q81.1666-48.2608 75.6579-42.1482Q70.1492-36.0356 62.0433-36.0356Z"/>
  </g>
  <g id="Black-M" transform="matrix(1 0 0 1 2850.53 1126)">
   <path d="M79.7401 12.9365L138.533 12.9365Q153.281 12.9365 153.281 1.96698Q153.281-4.02979 149.921-9.62806Q146.562-15.2263 140.556-19.6564Q134.551-24.0865 126.519-26.7149Q118.488-29.3434 109.134-29.3434Q99.7853-29.3434 91.7539-26.7149Q83.7226-24.0865 77.7171-19.6564Q71.7116-15.2263 68.3519-9.62806Q64.9922-4.02979 64.9922 1.96698Q64.9922 12.9365 79.7401 12.9365ZM81.3714-0.355256Q80.9417-0.355256 80.7795-0.624983Q80.6173-0.894709 80.6173-1.15797Q80.6173-3.03557 82.5703-5.56987Q84.5233-8.10418 88.1939-10.5106Q91.8645-12.9171 97.1598-14.4842Q102.455-16.0513 109.134-16.0513Q115.818-16.0513 121.114-14.4842Q126.409-12.9171 130.076-10.5106Q133.744-8.10418 135.697-5.56987Q137.65-3.03557 137.65-1.15797Q137.65-0.894709 137.52-0.624983Q137.389-0.355256 136.902-0.355256ZM109.139-33.41Q115.454-33.41 120.573-36.672Q125.692-39.934 128.707-45.4574Q131.723-50.9807 131.723-57.7366Q131.723-64.3229 128.653-69.7473Q125.584-75.1718 120.465-78.4484Q115.346-81.7251 109.139-81.7251Q102.932-81.7251 97.7844-78.4429Q92.6372-75.1608 89.5933-69.7336Q86.5493-64.3064 86.5491-57.7256Q86.6059-50.9752 89.593-45.4519Q92.5801-39.9285 97.6991-36.6692Q102.818-33.41 109.139-33.41ZM109.139-46.6963Q106.637-46.6963 104.521-48.1139Q102.404-49.5315 101.15-52.061Q99.8958-54.5904 99.8958-57.7827Q99.896-60.7484 101.176-63.1531Q102.456-65.5577 104.572-66.9955Q106.688-68.4333 109.139-68.4333Q111.646-68.4333 113.732-66.9981Q115.817-65.5629 117.097-63.1299Q118.376-60.6968 118.376-57.7366Q118.376-54.6014 117.122-52.0977Q115.868-49.5941 113.78-48.1452Q111.692-46.6963 109.139-46.6963ZM25.468 12.9936L61.6567 12.9936Q58.629 11.0691 57.266 7.1601Q55.903 3.25109 56.2234-0.11068L28.0195-0.11068Q27.5982-0.11068 27.4408-0.351292Q27.2833-0.591905 27.2833-0.848826Q27.2833-4.51746 30.4147-8.0851Q33.5461-11.6527 38.9498-13.9766Q44.3534-16.3005 51.1026-16.3005Q53.0949-16.3005 56.3062-15.7762Q59.5176-15.2519 61.1066-14.7795Q62.59-17.8896 64.9806-20.4462Q67.3712-23.0029 70.8456-25.0578Q66.6315-26.9461 61.0186-28.1184Q55.4056-29.2906 51.1026-29.2906Q43.1101-29.2906 36.095-26.8251Q29.0799-24.3596 23.7607-20.0553Q18.4415-15.7511 15.4512-10.2508Q12.4609-4.75054 12.4609 1.31316Q12.4609 6.86763 15.7128 9.93062Q18.9646 12.9936 25.468 12.9936ZM51.1075-32.4167Q56.6692-32.4167 61.1647-35.3049Q65.6602-38.193 68.3275-43.065Q70.9949-47.9369 70.9949-53.8825Q70.9949-59.6583 68.2735-64.4597Q65.552-69.2611 61.0593-72.138Q56.5665-75.0149 51.1075-75.0149Q45.6537-75.0149 41.1298-72.1325Q36.6059-69.2501 33.9101-64.4459Q31.2144-59.6418 31.2141-53.877Q31.2709-47.8688 33.9126-42.9996Q36.5543-38.1304 41.0757-35.2736Q45.5972-32.4167 51.1075-32.4167ZM51.1075-45.4691Q48.3125-45.4691 46.2895-47.8422Q44.2665-50.2152 44.2665-53.877Q44.2665-56.084 45.209-57.9254Q46.1516-59.7667 47.7442-60.8646Q49.3369-61.9624 51.1075-61.9624Q52.8836-61.9624 54.4476-60.8672Q56.0116-59.7719 56.9798-57.9306Q57.948-56.0893 57.948-53.8825Q57.948-50.2207 55.9538-47.8449Q53.9597-45.4691 51.1075-45.4691Z"/>
  </g>
  <g id="Heavy-M" transform="matrix(1 0 0 1 2554.39 1126)">
   <path d="M78.6488 12.4268L138.032 12.4268Q152.136 12.4268 152.136 2.20695Q152.136-3.50427 148.876-9.06409Q145.616-14.6239 139.72-19.1381Q133.825-23.6522 125.83-26.3783Q117.836-29.1043 108.332-29.1043Q98.8473-29.1043 90.8528-26.3783Q82.8584-23.6522 76.9629-19.1381Q71.0674-14.6239 67.8071-9.06409Q64.5469-3.50427 64.5469 2.20695Q64.5469 12.4268 78.6488 12.4268ZM79.3358 0.52836Q78.7877 0.52836 78.5628 0.253264Q78.3378-0.0218315 78.3378-0.400336Q78.3378-2.54655 80.3681-5.40857Q82.3984-8.27059 86.2508-10.9734Q90.1032-13.6762 95.6797-15.4422Q101.256-17.2081 108.332-17.2081Q115.425-17.2081 121.002-15.4422Q126.58-13.6762 130.424-10.9734Q134.268-8.27059 136.299-5.40857Q138.329-2.54655 138.329-0.400336Q138.329-0.0218315 138.134 0.253264Q137.939 0.52836 137.345 0.52836ZM108.353-33.6486Q114.545-33.6486 119.584-36.8709Q124.623-40.0931 127.603-45.5405Q130.583-50.9879 130.583-57.6392Q130.583-64.1461 127.566-69.4836Q124.548-74.8212 119.509-78.0253Q114.47-81.2295 108.353-81.2295Q102.239-81.2295 97.1769-78.0089Q92.1149-74.7883 89.1107-69.4426Q86.1065-64.0969 86.1088-57.6064Q86.1547-50.9715 89.113-45.5241Q92.0713-40.0767 97.1092-36.8627Q102.147-33.6486 108.353-33.6486ZM108.353-45.5306Q105.591-45.5306 103.265-47.0993Q100.939-48.6679 99.5551-51.4269Q98.1713-54.1859 98.1713-57.65Q98.1691-60.9261 99.5675-63.5616Q100.966-66.1971 103.294-67.7641Q105.622-69.3311 108.353-69.3311Q111.127-69.3311 113.425-67.7735Q115.722-66.2158 117.121-63.5574Q118.521-60.8989 118.521-57.6392Q118.521-54.2187 117.137-51.4733Q115.753-48.728 113.448-47.1293Q111.143-45.5306 108.353-45.5306ZM24.7461 12.4704L61.4342 12.4704Q58.7052 10.7678 57.3935 7.31181Q56.0818 3.85586 56.3825 0.75435L26.4048 0.75435Q25.9101 0.75435 25.7072 0.496519Q25.5043 0.238688 25.5043-0.130226Q25.5043-4.35556 28.865-8.34523Q32.2257-12.3349 37.9574-14.8961Q43.6891-17.4574 50.7211-17.4574Q53.3379-17.4574 56.7584-16.8036Q60.1789-16.1499 62.2343-15.2973Q63.644-18.0059 65.7932-20.2673Q67.9424-22.5287 70.9806-24.3701Q66.6408-26.5514 61.0383-27.8188Q55.4358-29.0862 50.7211-29.0862Q42.8082-29.0862 35.8669-26.6008Q28.9256-24.1154 23.6563-19.7977Q18.3871-15.4799 15.424-9.95587Q12.4609-4.43179 12.4609 1.63145Q12.4609 6.83509 15.5317 9.65273Q18.6024 12.4704 24.7461 12.4704ZM50.742-32.7863Q56.1722-32.7863 60.5904-35.6347Q65.0087-38.4832 67.6308-43.2846Q70.253-48.086 70.253-53.9297Q70.253-59.6311 67.5932-64.3456Q64.9333-69.0601 60.5233-71.8779Q56.1132-74.6958 50.742-74.6958Q45.3895-74.6958 40.9483-71.8615Q36.5071-69.0272 33.862-64.3045Q31.2169-59.5818 31.2192-53.9132Q31.2651-48.0096 33.8725-43.2164Q36.4799-38.4232 40.9106-35.6047Q45.3413-32.7863 50.742-32.7863ZM50.742-44.4774Q47.5418-44.4774 45.226-47.1673Q42.9103-49.8571 42.9103-53.9132Q42.9103-56.4088 43.9837-58.4743Q45.057-60.5397 46.8687-61.7722Q48.6803-63.0047 50.742-63.0047Q52.8202-63.0047 54.6111-61.7815Q56.4021-60.5584 57.4902-58.4929Q58.5783-56.4275 58.5783-53.9297Q58.5783-49.8735 56.2821-47.1755Q53.9859-44.4774 50.742-44.4774Z"/>
  </g>
  <g id="Bold-M" transform="matrix(1 0 0 1 2258.32 1126)">
   <path d="M77.428 11.8565L137.471 11.8565Q150.856 11.8565 150.856 2.47539Q150.856-2.91641 147.707-8.4332Q144.558-13.95 138.785-18.5582Q133.013-23.1665 125.059-26.0017Q117.106-28.8368 107.435-28.8368Q97.7981-28.8368 89.8449-26.0017Q81.8916-23.1665 76.1192-18.5582Q70.3468-13.95 67.1977-8.4332Q64.0487-2.91641 64.0487 2.47539Q64.0487 11.8565 77.428 11.8565ZM77.0586 1.51681Q76.3782 1.51681 76.0831 1.23571Q75.788 0.954608 75.788 0.447188Q75.788-1.99952 77.9046-5.22813Q80.0213-8.45673 84.0771-11.491Q88.1329-14.5254 94.024-16.5138Q99.9151-18.5022 107.435-18.5022Q114.984-18.5022 120.878-16.5138Q126.771-14.5254 130.813-11.491Q134.854-8.45673 136.971-5.22813Q139.088-1.99952 139.088 0.447188Q139.088 0.954608 138.821 1.23571Q138.555 1.51681 137.841 1.51681ZM107.474-33.9155Q113.528-33.9155 118.478-37.0933Q123.428-40.2711 126.368-45.6335Q129.309-50.9959 129.309-57.5303Q129.309-63.9483 126.349-69.1886Q123.389-74.4289 118.439-77.552Q113.49-80.6751 107.474-80.6751Q101.464-80.6751 96.4973-77.5234Q91.5307-74.3717 88.571-69.1171Q85.6112-63.8624 85.6164-57.4731Q85.65-50.9674 88.5761-45.6049Q91.5022-40.2425 96.4493-37.079Q101.397-33.9155 107.474-33.9155ZM107.474-44.2266Q104.42-44.2266 101.86-45.9642Q99.2996-47.7018 97.7709-50.7176Q96.2423-53.7334 96.2423-57.5016Q96.2372-61.125 97.7683-64.0187Q99.2995-66.9124 101.865-68.6239Q104.43-70.3354 107.474-70.3354Q110.547-70.3354 113.081-68.6408Q115.615-66.9462 117.149-64.0356Q118.683-61.125 118.683-57.5303Q118.683-53.7906 117.154-50.7748Q115.625-47.759 113.077-45.9928Q110.528-44.2266 107.474-44.2266ZM23.9386 11.885L61.1853 11.885Q58.7906 10.4306 57.5362 7.48152Q56.2818 4.53239 56.5604 1.72201L24.5985 1.72201Q24.0216 1.72201 23.7679 1.44492Q23.5143 1.16782 23.5143 0.673632Q23.5143-4.17446 27.1315-8.63623Q30.7487-13.098 36.8474-15.9247Q42.9461-18.7514 50.2943-18.7514Q53.6098-18.7514 57.2642-17.9529Q60.9187-17.1544 63.4957-15.8766Q64.823-18.1361 66.7021-20.0671Q68.5812-21.9981 71.1316-23.6007Q66.6513-26.1098 61.0604-27.4836Q55.4696-28.8575 50.2943-28.8575Q42.4706-28.8575 35.6118-26.3498Q28.7529-23.8422 23.5396-19.5094Q18.3263-15.1766 15.3936-9.62592Q12.4609-4.07522 12.4609 1.98749Q12.4609 6.7987 15.3291 9.34187Q18.1972 11.885 23.9386 11.885ZM50.3332-33.1998Q55.6163-33.1998 59.9481-36.0038Q64.2799-38.8077 66.8515-43.5303Q69.4231-48.2528 69.4231-53.9824Q69.4231-59.6006 66.8321-64.2179Q64.2412-68.8352 59.9237-71.5871Q55.6062-74.339 50.3332-74.339Q45.094-74.339 40.7453-71.5585Q36.3966-68.778 33.8082-64.1463Q31.2198-59.5147 31.2249-53.9537Q31.2586-48.1671 33.8277-43.4588Q36.3968-38.7506 40.726-35.9752Q45.0552-33.1998 50.3332-33.1998ZM50.3332-43.3681Q46.6796-43.3681 44.0364-46.4123Q41.3932-49.4565 41.3932-53.9537Q41.3932-56.7721 42.6129-59.0882Q43.8326-61.4043 45.8892-62.7875Q47.9458-64.1706 50.3332-64.1706Q52.7492-64.1706 54.7941-62.8044Q56.839-61.4381 58.0612-59.122Q59.2834-56.8059 59.2834-53.9824Q59.2834-49.4852 56.6494-46.4266Q54.0153-43.3681 50.3332-43.3681Z"/>
  </g>
  <g id="Semibold-M" transform="matrix(1 0 0 1 1962.05 1126)">
   <path d="M76.5864 11.4634L137.085 11.4634Q149.973 11.4634 149.973 2.66045Q149.973-2.51114 146.9-7.99827Q143.828-13.4854 138.141-18.1585Q132.453-22.8316 124.528-25.742Q116.603-28.6524 106.817-28.6524Q97.0748-28.6524 89.15-25.742Q81.2251-22.8316 75.5375-18.1585Q69.85-13.4854 66.7776-7.99827Q63.7052-2.51114 63.7052 2.66045Q63.7052 11.4634 76.5864 11.4634ZM75.4887 2.19825Q74.7171 2.19825 74.3736 1.913Q74.0301 1.62776 74.0301 1.03147Q74.0301-1.6224 76.2063-5.10373Q78.3826-8.58506 82.5786-11.8479Q86.7746-15.1108 92.8826-17.2526Q98.9906-19.3944 106.817-19.3944Q114.68-19.3944 120.792-17.2526Q126.904-15.1108 131.081-11.8479Q135.258-8.58506 137.435-5.10373Q139.611-1.6224 139.611 1.03147Q139.611 1.62776 139.295 1.913Q138.979 2.19825 138.182 2.19825ZM106.868-34.0996Q112.827-34.0996 117.716-37.2467Q122.604-40.3938 125.517-45.6976Q128.43-51.0015 128.43-57.4552Q128.43-63.8119 125.51-68.9852Q122.59-74.1586 117.702-77.2258Q112.814-80.293 106.868-80.293Q100.93-80.293 96.0288-77.1887Q91.1279-74.0845 88.1988-68.8926Q85.2697-63.7008 85.2769-57.3811Q85.3021-50.9645 88.2059-45.6607Q91.1098-40.3568 95.9944-37.2282Q100.879-34.0996 106.868-34.0996ZM106.868-43.3277Q103.613-43.3277 100.891-45.1817Q98.1695-47.0358 96.541-50.2286Q94.9124-53.4214 94.9124-57.3993Q94.9054-61.262 96.528-64.3338Q98.1506-67.4055 100.879-69.2166Q103.608-71.0277 106.868-71.0277Q110.147-71.0277 112.844-69.2387Q115.542-67.4497 117.168-64.3653Q118.794-61.2809 118.794-57.4552Q118.794-53.4955 117.166-50.2933Q115.537-47.091 112.821-45.2094Q110.105-43.3277 106.868-43.3277ZM23.3818 11.4815L61.0137 11.4815Q58.8494 10.1982 57.6345 7.59851Q56.4196 4.99878 56.683 2.38911L23.3533 2.38911Q22.7198 2.38911 22.431 2.09874Q22.1423 1.80837 22.1423 1.22781Q22.1423-4.0496 25.9364-8.83685Q29.7304-13.6241 36.0821-16.6338Q42.4338-19.6436 50-19.6436Q53.7972-19.6436 57.6129-18.7452Q61.4287-17.8469 64.3653-16.2759Q65.6357-18.2258 67.3287-19.9291Q69.0217-21.6324 71.2358-23.0703Q66.6585-25.8053 61.0757-27.2526Q55.4929-28.6998 50-28.6998Q42.2378-28.6998 35.4359-26.1768Q28.6339-23.6539 23.4591-19.3107Q18.2844-14.9675 15.3727-9.39845Q12.4609-3.8294 12.4609 2.23294Q12.4609 6.77361 15.1894 9.12756Q17.9179 11.4815 23.3818 11.4815ZM50.0513-33.4848Q55.233-33.4848 59.5052-36.2581Q63.7775-39.0315 66.3142-43.6996Q68.8509-48.3678 68.8509-54.0187Q68.8509-59.5796 66.3075-64.1299Q63.764-68.6802 59.5103-71.3866Q55.2566-74.0929 50.0513-74.0929Q44.8902-74.0929 40.6054-71.3495Q36.3205-68.6061 33.7711-64.0373Q31.2218-59.4684 31.2289-53.9816Q31.2542-48.2756 33.7968-43.626Q36.3394-38.9764 40.5987-36.2306Q44.8579-33.4848 50.0513-33.4848ZM50.0513-42.6033Q46.0853-42.6033 43.2163-45.8918Q40.3474-49.1804 40.3474-53.9816Q40.3474-57.0226 41.6679-59.5115Q42.9884-62.0005 45.2139-63.4874Q47.4394-64.9744 50.0513-64.9744Q52.7002-64.9744 54.9202-63.5095Q57.1402-62.0446 58.4549-59.5557Q59.7695-57.0668 59.7695-54.0187Q59.7695-49.2175 56.9026-45.9104Q54.0356-42.6033 50.0513-42.6033Z"/>
  </g>
  <g id="Medium-M" transform="matrix(1 0 0 1 1665.67 1126)">
   <path d="M75.9483 11.1653L136.791 11.1653Q149.303 11.1653 149.303 2.80077Q149.303-2.20384 146.289-7.66848Q143.275-13.1331 137.652-17.8554Q132.029-22.5777 124.125-25.5452Q116.222-28.5126 106.348-28.5126Q96.5264-28.5126 88.6231-25.5452Q80.7197-22.5777 75.0965-17.8554Q69.4733-13.1331 66.4591-7.66848Q63.4448-2.20384 63.4448 2.80077Q63.4448 11.1653 75.9483 11.1653ZM74.2983 2.71494Q73.4576 2.71494 73.0774 2.42655Q72.6972 2.13817 72.6972 1.47449Q72.6972-1.33645 74.9186-5.00941Q77.14-8.68237 81.4423-12.1185Q85.7446-15.5546 92.0171-17.8127Q98.2896-20.0708 106.348-20.0708Q114.45-20.0708 120.727-17.8127Q127.004-15.5546 131.284-12.1185Q135.565-8.68237 137.786-5.00941Q140.008-1.33645 140.008 1.47449Q140.008 2.13817 139.654 2.42655Q139.301 2.71494 138.441 2.71494ZM106.409-34.2391Q112.296-34.2391 117.138-37.363Q121.979-40.4868 124.871-45.7463Q127.763-51.0057 127.763-57.3983Q127.763-63.7085 124.874-68.831Q121.985-73.9535 117.143-76.9783Q112.302-80.0032 106.409-80.0032Q100.524-80.0032 95.6735-76.9349Q90.8226-73.8667 87.9167-68.7225Q85.0108-63.5783 85.0195-57.3114Q85.0383-50.9623 87.9253-45.7029Q90.8123-40.4435 95.6495-37.3413Q100.487-34.2391 106.409-34.2391ZM106.409-42.6461Q103.001-42.6461 100.157-44.5884Q97.3126-46.5308 95.6084-49.8578Q93.9041-53.1849 93.9041-57.3217Q93.8956-61.366 95.5875-64.5727Q97.2794-67.7794 100.132-69.666Q102.985-71.5527 106.409-71.5527Q109.843-71.5527 112.665-69.6921Q115.486-67.8314 117.182-64.6152Q118.879-61.3991 118.879-57.3983Q118.879-53.2717 117.174-49.9281Q115.47-46.5845 112.627-44.6153Q109.784-42.6461 106.409-42.6461ZM22.9597 11.1755L60.8836 11.1755Q58.894 10.022 57.7091 7.68722Q56.5241 5.35242 56.776 2.89493L22.4091 2.89493Q21.7326 2.89493 21.4173 2.59449Q21.102 2.29405 21.102 1.648Q21.102-3.95493 25.0302-8.98896Q28.9583-14.023 35.5019-17.1715Q42.0454-20.32 49.7769-20.32Q53.9393-20.32 57.8773-19.346Q61.8154-18.372 65.0246-16.5787Q66.252-18.2939 67.8038-19.8245Q69.3556-21.3551 71.3147-22.6682Q66.664-25.5745 61.0873-27.0774Q55.5106-28.5802 49.7769-28.5802Q42.0613-28.5802 35.3025-26.0456Q28.5437-23.5111 23.3981-19.16Q18.2526-14.809 15.3568-9.22598Q12.4609-3.64301 12.4609 2.41906Q12.4609 6.75459 15.0835 8.96507Q17.706 11.1755 22.9597 11.1755ZM49.8376-33.7009Q54.9424-33.7009 59.1695-36.451Q63.3965-39.2012 65.9068-43.828Q68.4171-48.4549 68.4171-54.0463Q68.4171-59.5637 65.9097-64.0632Q63.4023-68.5627 59.1969-71.2345Q54.9915-73.9064 49.8376-73.9064Q44.7358-73.9064 40.4993-71.1911Q36.2627-68.4758 33.743-63.9546Q31.2233-59.4334 31.2318-54.0028Q31.2508-48.3579 33.7734-43.7527Q36.296-39.1475 40.5021-36.4242Q44.7083-33.7009 49.8376-33.7009ZM49.8376-42.0234Q45.6346-42.0234 42.5945-45.4972Q39.5544-48.971 39.5544-54.0028Q39.5544-57.2125 40.9514-59.8325Q42.3484-62.4524 44.7019-64.0182Q47.0555-65.5839 49.8376-65.5839Q52.6631-65.5839 55.0159-64.0442Q57.3686-62.5045 58.7534-59.8845Q60.1381-57.2646 60.1381-54.0463Q60.1381-49.0145 57.0945-45.5189Q54.0509-42.0234 49.8376-42.0234Z"/>
  </g>
  <g id="Regular-M" transform="matrix(1 0 0 1 1369.4 1126)">
   <path d="M75.1159 10.7765L136.409 10.7765Q148.43 10.7765 148.43 2.9838Q148.43-1.80303 145.492-7.23833Q142.554-12.6736 137.014-17.4601Q131.475-22.2465 123.6-25.2884Q115.724-28.3303 105.737-28.3303Q95.811-28.3303 87.9358-25.2884Q80.0605-22.2465 74.5212-17.4601Q68.9819-12.6736 66.0435-7.23833Q63.1052-1.80303 63.1052 2.9838Q63.1052 10.7765 75.1159 10.7765ZM72.7457 3.38888Q71.8147 3.38888 71.3867 3.0964Q70.9586 2.80393 70.9586 2.05235Q70.9586-0.963474 73.239-4.88638Q75.5193-8.80929 79.9603-12.4715Q84.4012-16.1336 90.8882-18.5434Q97.3752-20.9531 105.737-20.9531Q114.15-20.9531 120.642-18.5434Q127.134-16.1336 131.549-12.4715Q135.964-8.80929 138.245-4.88638Q140.525-0.963474 140.525 2.05235Q140.525 2.80393 140.123 3.0964Q139.721 3.38888 138.779 3.38888ZM105.809-34.4211Q111.603-34.4211 116.383-37.5147Q121.164-40.6082 124.029-45.8097Q126.894-51.0111 126.894-57.324Q126.894-63.5736 124.044-68.6299Q121.195-73.6861 116.414-76.6556Q111.633-79.6252 105.809-79.6252Q99.9961-79.6252 95.2101-76.6039Q90.4242-73.5826 87.5486-68.5005Q84.6731-63.4184 84.6837-57.2205Q84.6941-50.9595 87.5592-45.758Q90.4242-40.5565 95.1996-37.4888Q99.975-34.4211 105.809-34.4211ZM105.809-41.757Q102.202-41.757 99.1987-43.8145Q96.195-45.872 94.3919-49.3742Q92.5888-52.8764 92.5888-57.2205Q92.5784-61.5016 94.3608-64.8843Q96.1431-68.2671 99.1574-70.2523Q102.172-72.2374 105.809-72.2374Q109.447-72.2374 112.43-70.2834Q115.413-68.3294 117.201-64.9413Q118.989-61.5532 118.989-57.324Q118.989-52.9799 117.186-49.4519Q115.383-45.9239 112.374-43.8404Q109.365-41.757 105.809-41.757ZM22.4091 10.7765L60.7139 10.7765Q58.9522 9.79218 57.8063 7.80293Q56.6605 5.81368 56.8973 3.5547L21.1775 3.5547Q20.4451 3.5547 20.0951 3.24113Q19.7452 2.92755 19.7452 2.19609Q19.7452-3.83145 23.8482-9.18737Q27.9512-14.5433 34.745-17.8728Q41.5387-21.2024 49.4859-21.2024Q54.1246-21.2024 58.2222-20.1296Q62.3198-19.0569 65.8847-16.9736Q67.0559-18.3826 68.4236-19.688Q69.7912-20.9933 71.4177-22.1436Q66.6711-25.2734 61.1023-26.8489Q55.5336-28.4243 49.4859-28.4243Q41.8311-28.4243 35.1286-25.8745Q28.426-23.3248 23.3185-18.9635Q18.2111-14.6021 15.336-9.00102Q12.4609-3.39989 12.4609 2.66182Q12.4609 6.72977 14.9454 8.75312Q17.4298 10.7765 22.4091 10.7765ZM49.5589-33.9828Q54.5634-33.9828 58.7315-36.7026Q62.8996-39.4225 65.3754-43.9956Q67.8513-48.5687 67.8513-54.0822Q67.8513-59.543 65.3908-63.9762Q62.9303-68.4094 58.7881-71.0362Q54.6458-73.6631 49.5589-73.6631Q44.5343-73.6631 40.3608-70.9844Q36.1874-68.3058 33.7063-63.8467Q31.2253-59.3876 31.2357-54.0304Q31.2464-48.4653 33.7428-43.9181Q36.2393-39.3708 40.3762-36.6768Q44.5132-33.9828 49.5589-33.9828ZM49.5589-41.2671Q45.0468-41.2671 41.7834-44.9824Q38.52-48.6978 38.52-54.0304Q38.52-57.4602 40.0168-60.2511Q41.5135-63.042 44.0341-64.7104Q46.5547-66.3788 49.5589-66.3788Q52.6147-66.3788 55.1406-64.7416Q57.6665-63.1043 59.1427-60.3134Q60.6189-57.5226 60.6189-54.0822Q60.6189-48.7497 57.3449-45.0084Q54.071-41.2671 49.5589-41.2671Z"/>
  </g>
  <g id="Light-M" transform="matrix(1 0 0 1 1073.23 1126)">
   <path d="M73.7641 10.1604L136.751 10.1604Q147.352 10.1604 147.352 2.96655Q147.352-1.80303 144.448-7.16129Q141.544-12.5195 136.065-17.2375Q130.585-21.9555 122.821-24.929Q115.057-27.9025 105.24-27.9025Q95.4859-27.9025 87.7219-24.929Q79.9579-21.9555 74.4785-17.2375Q68.9992-12.5195 66.095-7.16129Q63.1908-1.80303 63.1908 2.96655Q63.1908 10.1604 73.7641 10.1604ZM72.198 4.43274Q70.5656 4.43274 69.8981 3.96906Q69.2306 3.50539 69.2306 2.34328Q69.2306-1.11757 71.622-5.33989Q74.0135-9.56221 78.6341-13.4041Q83.2548-17.2459 89.9556-19.7241Q96.6565-22.2023 105.24-22.2023Q113.859-22.2023 120.574-19.7241Q127.288-17.2459 131.892-13.4041Q136.495-9.56221 138.886-5.33989Q141.278-1.11757 141.278 2.34328Q141.278 3.50539 140.628 3.96906Q139.978 4.43274 138.317 4.43274ZM105.33-34.5752Q111.021-34.5752 115.673-37.5831Q120.326-40.591 123.088-45.6898Q125.85-50.7886 125.85-57.0331Q125.85-63.1116 123.078-68.0824Q120.305-73.0531 115.653-75.9884Q111-78.9237 105.33-78.9237Q99.6882-78.9237 95.022-75.9537Q90.3558-72.9838 87.5657-67.9958Q84.7757-63.0079 84.8036-56.9638Q84.831-50.7542 87.5934-45.6554Q90.3558-40.5565 94.9943-37.5659Q99.6329-34.5752 105.33-34.5752ZM105.33-40.2684Q101.33-40.2684 98.0524-42.4799Q94.7748-44.6914 92.8263-48.4673Q90.8777-52.2433 90.8777-56.9638Q90.8503-61.5188 92.7951-65.1839Q94.7399-68.849 98.0451-71.0223Q101.35-73.1956 105.33-73.1956Q109.31-73.1956 112.584-71.0534Q115.859-68.9113 117.817-65.2322Q119.776-61.5532 119.776-57.0331Q119.776-52.3126 117.827-48.5194Q115.879-44.7262 112.588-42.4973Q109.296-40.2684 105.33-40.2684ZM21.3652 10.1604L61.5694 10.1604Q60.1841 9.39861 59.2008 7.87135Q58.2175 6.34409 58.2321 4.56435L20.5615 4.56435Q19.2474 4.56435 18.6836 4.04537Q18.1197 3.52638 18.1197 2.31597Q18.1197-4.19081 22.3596-9.84614Q26.5995-15.5015 33.65-18.9765Q40.7004-22.4515 49.0067-22.4515Q54.3983-22.4515 59.1291-21.0536Q63.8598-19.6557 67.7499-16.9222Q68.6986-17.989 69.7582-18.9864Q70.8178-19.9837 72.0507-20.8775Q67.1845-24.4351 61.3249-26.2415Q55.4652-28.048 49.0067-28.048Q41.1639-28.048 34.504-25.4554Q27.8441-22.8628 22.8908-18.5015Q17.9374-14.1402 15.1992-8.65028Q12.4609-3.16042 12.4609 2.6276Q12.4609 6.42188 14.6802 8.29113Q16.8994 10.1604 21.3652 10.1604ZM49.0969-33.9314Q54.033-33.9314 58.0898-36.5657Q62.1467-39.1999 64.5455-43.6618Q66.9442-48.1236 66.9442-53.586Q66.9442-58.9099 64.5352-63.2576Q62.1263-67.6053 58.0866-70.1979Q54.047-72.7905 49.0969-72.7905Q44.2091-72.7905 40.1383-70.1632Q36.0675-67.536 33.655-63.1708Q31.2425-58.8057 31.27-53.5511Q31.2978-48.0548 33.7001-43.6102Q36.1024-39.1655 40.1281-36.5484Q44.1538-33.9314 49.0969-33.9314ZM49.0969-39.5902Q44.0371-39.5902 40.4829-43.6221Q36.9288-47.654 36.9288-53.5511Q36.9288-57.2892 38.5795-60.3624Q40.2302-63.4356 42.9989-65.2837Q45.7675-67.1317 49.0969-67.1317Q52.4607-67.1317 55.2433-65.3148Q58.0259-63.4979 59.6731-60.4247Q61.3203-57.3515 61.3203-53.586Q61.3203-47.6889 57.7385-43.6395Q54.1567-39.5902 49.0969-39.5902Z"/>
  </g>
  <g id="Thin-M" transform="matrix(1 0 0 1 777.228 1126)">
   <path d="M71.9763 9.34556L137.204 9.34556Q145.926 9.34556 145.926 2.94374Q145.926-1.80303 143.068-7.05939Q140.209-12.3157 134.809-16.9433Q129.408-21.5708 121.792-24.4537Q114.175-27.3367 104.584-27.3367Q95.0559-27.3367 87.439-24.4537Q79.8222-21.5708 74.4221-16.9433Q69.022-12.3157 66.1631-7.05939Q63.3041-1.80303 63.3041 2.94374Q63.3041 9.34556 71.9763 9.34556ZM71.4737 5.81332Q68.9135 5.81332 67.9293 5.12323Q66.9451 4.43313 66.9451 2.72806Q66.9451-1.32136 69.4835-5.93969Q72.0219-10.558 76.8802-14.6375Q81.7384-18.717 88.7222-21.2856Q95.7059-23.8543 104.584-23.8543Q113.474-23.8543 120.483-21.2856Q127.492-18.717 132.344-14.6375Q137.196-10.558 139.735-5.93969Q142.274-1.32136 142.274 2.72806Q142.274 4.43313 141.295 5.12323Q140.317 5.81332 137.706 5.81332ZM104.696-34.779Q110.251-34.779 114.734-37.6736Q119.217-40.5681 121.843-45.5312Q124.47-50.4943 124.47-56.6483Q124.47-62.5006 121.799-67.3582Q119.128-72.2158 114.646-75.1059Q110.163-77.996 104.696-77.996Q99.281-77.996 94.7731-75.0939Q90.2653-72.1918 87.5884-67.3284Q84.9114-62.465 84.9621-56.6242Q85.012-50.4827 87.6386-45.5196Q90.2653-40.5565 94.7229-37.6678Q99.1804-34.779 104.696-34.779ZM104.696-38.2996Q100.176-38.2996 96.5362-40.7147Q92.8965-43.1298 90.7556-47.2679Q88.6146-51.4061 88.6146-56.6242Q88.5648-61.5416 90.7244-65.5801Q92.8841-69.6185 96.574-72.0407Q100.264-74.4629 104.696-74.4629Q109.129-74.4629 112.788-72.0719Q116.447-69.6808 118.632-65.617Q120.817-61.5532 120.817-56.6483Q120.817-51.4301 118.676-47.2862Q116.535-43.1422 112.871-40.7209Q109.206-38.2996 104.696-38.2996ZM19.9846 9.34556L62.701 9.34556Q61.8133 8.87809 61.045 7.96185Q60.2768 7.0456 59.9974 5.89968L19.7466 5.89968Q17.6634 5.89968 16.8167 5.10904Q15.97 4.31839 15.97 2.47452Q15.97-4.66608 20.3908-10.7174Q24.8117-16.7687 32.2017-20.4361Q39.5917-24.1035 48.3729-24.1035Q54.7603-24.1035 60.3285-22.2756Q65.8967-20.4477 70.2168-16.8541Q70.8712-17.4685 71.5234-18.0584Q72.1756-18.6484 72.888-19.203Q67.8636-23.3264 61.6191-25.4383Q55.3747-27.5503 48.3729-27.5503Q40.2814-27.5503 33.678-24.901Q27.0745-22.2518 22.325-17.8905Q17.5755-13.5291 15.0182-8.18641Q12.4609-2.84369 12.4609 2.58236Q12.4609 6.01466 14.3294 7.68011Q16.1979 9.34556 19.9846 9.34556ZM48.4859-33.8633Q53.3314-33.8633 57.2412-36.3845Q61.1509-38.9057 63.4478-43.2204Q65.7446-47.535 65.7446-52.9298Q65.7446-58.0727 63.4037-62.3072Q61.0628-66.5418 57.1589-69.0892Q53.255-71.6366 48.4859-71.6366Q43.7791-71.6366 39.844-69.0771Q35.909-66.5177 33.5872-62.2769Q31.2653-58.0362 31.3152-52.9173Q31.3659-47.5118 33.6437-43.2029Q35.9214-38.8941 39.8-36.3787Q43.6785-33.8633 48.4859-33.8633ZM48.4859-37.3723Q42.7018-37.3723 38.763-41.8229Q34.8242-46.2734 34.8242-52.9173Q34.8242-57.063 36.6786-60.5095Q38.5329-63.9561 41.6297-66.0418Q44.7265-68.1275 48.4859-68.1275Q52.2569-68.1275 55.379-66.073Q58.5011-64.0184 60.3746-60.5718Q62.2481-57.1253 62.2481-52.9298Q62.2481-46.2858 58.259-41.8291Q54.27-37.3723 48.4859-37.3723Z"/>
  </g>
  <g id="Ultralight-M" transform="matrix(1 0 0 1 480.882 1126)">
   <path d="M71.0606 8.92822L137.435 8.92822Q145.196 8.92822 145.196 2.93205Q145.196-1.80303 142.36-7.00719Q139.525-12.2114 134.165-16.7925Q128.806-21.3737 121.264-24.2103Q113.723-27.0469 104.248-27.0469Q94.8356-27.0469 87.2941-24.2103Q79.7526-21.3737 74.3932-16.7925Q69.0337-12.2114 66.1979-7.00719Q63.3622-1.80303 63.3622 2.93205Q63.3622 8.92822 71.0606 8.92822ZM71.1027 6.52045Q68.0674 6.52045 66.9209 5.71438Q65.7744 4.90831 65.7744 2.92515Q65.7744-1.42575 68.3881-6.2469Q71.0018-11.0681 75.9818-15.2692Q80.9618-19.4704 88.0904-22.0855Q95.2191-24.7005 104.248-24.7005Q113.277-24.7005 120.437-22.0855Q127.597-19.4704 132.576-15.2692Q137.556-11.0681 140.17-6.2469Q142.784-1.42575 142.784 2.92515Q142.784 4.90831 141.637 5.71438Q140.491 6.52045 137.393 6.52045ZM104.372-34.8834Q109.857-34.8834 114.253-37.7199Q118.649-40.5565 121.206-45.45Q123.762-50.3436 123.762-56.4512Q123.762-62.1877 121.144-66.9873Q118.525-71.787 114.13-74.6539Q109.734-77.5208 104.372-77.5208Q99.0724-77.5208 94.6457-74.6535Q90.219-71.7861 87.5999-66.9865Q84.9809-62.1869 85.0433-56.4503Q85.1047-50.3437 87.6618-45.4501Q90.219-40.5565 94.5838-37.72Q98.9487-34.8834 104.372-34.8834ZM104.372-37.2912Q99.5849-37.2912 95.7597-39.8106Q91.9345-42.33 89.695-46.6536Q87.4555-50.9772 87.4555-56.4503Q87.3942-61.5533 89.6638-65.783Q91.9335-70.0127 95.8206-72.5623Q99.7076-75.112 104.372-75.112Q109.037-75.112 112.893-72.5935Q116.749-70.075 119.049-65.8141Q121.35-61.5532 121.35-56.4512Q121.35-50.9781 119.111-46.6545Q116.871-42.3309 113.015-39.8111Q109.16-37.2912 104.372-37.2912ZM19.2775 8.92822L63.2805 8.92822Q62.6478 8.61148 61.9897 8.0082Q61.3315 7.40491 60.9017 6.58364L19.3293 6.58364Q16.8521 6.58364 15.8605 5.65384Q14.8689 4.72404 14.8689 2.55573Q14.8689-4.90952 19.3824-11.1637Q23.896-17.4178 31.4599-21.1838Q39.0238-24.9497 48.0482-24.9497Q54.9457-24.9497 60.9428-22.9015Q66.9399-20.8533 71.4803-16.8193Q71.9839-17.2019 72.4275-17.5832Q72.8711-17.9644 73.3168-18.3454Q68.2114-22.7585 61.7699-25.0269Q55.3283-27.2953 48.0482-27.2953Q39.8294-27.2953 33.2549-24.6171Q26.6804-21.9388 22.0352-17.5775Q17.3901-13.2162 14.9255-7.94882Q12.4609-2.68147 12.4609 2.55918Q12.4609 5.80609 14.1497 7.36715Q15.8385 8.92822 19.2775 8.92822ZM48.1729-33.8284Q52.9721-33.8284 56.8065-36.2917Q60.6408-38.7549 62.8855-42.9942Q65.1302-47.2336 65.1302-52.5936Q65.1302-57.6438 62.8241-61.8204Q60.5181-65.9971 56.6837-68.5213Q52.8493-71.0455 48.1729-71.0455Q43.5588-71.0455 39.6933-68.5209Q35.8278-65.9962 33.5524-61.8191Q31.277-57.642 31.3384-52.5927Q31.4008-47.2337 33.6147-42.9944Q35.8287-38.755 39.6319-36.2917Q43.4351-33.8284 48.1729-33.8284ZM48.1729-36.2364Q42.0178-36.2364 37.8821-40.9013Q33.7463-45.5663 33.7463-52.5927Q33.7463-56.9471 35.7049-60.5849Q37.6636-64.2227 40.9284-66.4301Q44.1933-68.6376 48.1729-68.6376Q52.1525-68.6376 55.4485-66.4613Q58.7446-64.285 60.7339-60.6472Q62.7233-57.0094 62.7233-52.5936Q62.7233-45.5672 58.5256-40.9018Q54.328-36.2364 48.1729-36.2364Z"/>
  </g>
  <g id="Black-S" transform="matrix(1 0 0 1 2868.31 696)">
   <path d="M62.7441 2.63672L108.74 2.63672Q120.41 2.63672 120.41-6.15234Q120.41-10.9375 117.749-15.332Q115.088-19.7266 110.352-23.1689Q105.615-26.6113 99.3164-28.6377Q93.0176-30.6641 85.7422-30.6641Q78.4668-30.6641 72.168-28.6377Q65.8691-26.6113 61.1328-23.1689Q56.3965-19.7266 53.7354-15.332Q51.0742-10.9375 51.0742-6.15234Q51.0742 2.63672 62.7441 2.63672ZM64.3555-8.10547Q64.0137-8.10547 63.8916-8.3252Q63.7695-8.54492 63.7695-8.74023Q63.7695-10.1562 65.2832-12.0605Q66.7969-13.9648 69.6289-15.7715Q72.4609-17.5781 76.5381-18.75Q80.6152-19.9219 85.7422-19.9219Q90.8691-19.9219 94.9463-18.75Q99.0234-17.5781 101.855-15.7715Q104.688-13.9648 106.201-12.0605Q107.715-10.1562 107.715-8.74023Q107.715-8.54492 107.617-8.3252Q107.52-8.10547 107.129-8.10547ZM85.7422-33.7402Q90.7227-33.7402 94.751-36.3037Q98.7793-38.8672 101.147-43.2129Q103.516-47.5586 103.516-52.8809Q103.516-58.0566 101.099-62.3291Q98.6816-66.6016 94.6533-69.1895Q90.625-71.7773 85.7422-71.7773Q80.8594-71.7773 76.8066-69.1895Q72.7539-66.6016 70.3613-62.3291Q67.9688-58.0566 67.9688-52.8809Q68.0176-47.5586 70.3613-43.2129Q72.7051-38.8672 76.7334-36.3037Q80.7617-33.7402 85.7422-33.7402ZM85.7422-44.4824Q83.8379-44.4824 82.2266-45.5566Q80.6152-46.6309 79.6631-48.5596Q78.7109-50.4883 78.7109-52.9297Q78.7109-55.1758 79.6875-57.0068Q80.6641-58.8379 82.2754-59.9365Q83.8867-61.0352 85.7422-61.0352Q87.6465-61.0352 89.2334-59.9365Q90.8203-58.8379 91.7969-56.9824Q92.7734-55.127 92.7734-52.8809Q92.7734-50.4883 91.8213-48.584Q90.8691-46.6797 89.2822-45.5811Q87.6953-44.4824 85.7422-44.4824ZM20.1172 2.68555L48.4375 2.68555Q45.9961 1.12305 44.9219-2.05078Q43.8477-5.22461 44.0918-7.91016L22.4121-7.91016Q22.0703-7.91016 21.9482-8.10547Q21.8262-8.30078 21.8262-8.49609Q21.8262-11.2305 24.2188-13.916Q26.6113-16.6016 30.7617-18.3594Q34.9121-20.1172 40.1367-20.1172Q41.5527-20.1172 44.043-19.7266Q46.5332-19.3359 47.6562-19.043Q48.8281-21.582 50.7568-23.6572Q52.6855-25.7324 55.5176-27.3926Q52.2461-28.8086 47.8271-29.7119Q43.4082-30.6152 40.1367-30.6152Q33.8379-30.6152 28.3203-28.6865Q22.8027-26.7578 18.6279-23.3887Q14.4531-20.0195 12.1094-15.7227Q9.76562-11.4258 9.76562-6.68945Q9.76562-2.24609 12.3535 0.219727Q14.9414 2.68555 20.1172 2.68555ZM40.1367-32.9102Q44.5312-32.9102 48.0713-35.1807Q51.6113-37.4512 53.7109-41.2842Q55.8105-45.1172 55.8105-49.8047Q55.8105-54.3457 53.6621-58.1299Q51.5137-61.9141 47.9736-64.1846Q44.4336-66.4551 40.1367-66.4551Q35.8398-66.4551 32.2754-64.1846Q28.7109-61.9141 26.5869-58.1299Q24.4629-54.3457 24.4629-49.8047Q24.5117-45.0684 26.5869-41.2354Q28.6621-37.4023 32.2266-35.1562Q35.791-32.9102 40.1367-32.9102ZM40.1367-43.457Q38.0371-43.457 36.5234-45.2393Q35.0098-47.0215 35.0098-49.8047Q35.0098-51.4648 35.7178-52.8564Q36.4258-54.248 37.6221-55.0781Q38.8184-55.9082 40.1367-55.9082Q41.4551-55.9082 42.627-55.0781Q43.7988-54.248 44.5312-52.8564Q45.2637-51.4648 45.2637-49.8047Q45.2637-47.0215 43.7744-45.2393Q42.2852-43.457 40.1367-43.457Z"/>
  </g>
  <g id="Heavy-S" transform="matrix(1 0 0 1 2572.02 696)">
   <path d="M61.9835 2.27946L108.268 2.27946Q119.569 2.27946 119.569-5.9449Q119.569-10.488 116.988-14.8595Q114.408-19.231 109.758-22.7541Q105.108-26.2771 98.8266-28.3957Q92.5451-30.5142 85.1199-30.5142Q77.7062-30.5142 71.4246-28.3957Q65.1431-26.2771 60.4932-22.7541Q55.8433-19.231 53.2628-14.8595Q50.6824-10.488 50.6824-5.9449Q50.6824 2.27946 61.9835 2.27946ZM62.6844-7.48315Q62.3311-7.48315 62.186-7.68559Q62.0409-7.88803 62.0409-8.12944Q62.0409-9.71832 63.6064-11.8646Q65.1719-14.0109 68.1365-16.0481Q71.1011-18.0852 75.3914-19.4184Q79.6818-20.7516 85.1199-20.7516Q90.5695-20.7516 94.8599-19.4184Q99.1502-18.0852 102.109-16.0481Q105.068-14.0109 106.633-11.8646Q108.199-9.71832 108.199-8.12944Q108.199-7.88803 108.078-7.68559Q107.957-7.48315 107.567-7.48315ZM85.1314-33.9246Q90.0197-33.9246 93.9961-36.4651Q97.9726-39.0055 100.323-43.2993Q102.674-47.5932 102.674-52.8348Q102.674-57.9644 100.292-62.1735Q97.9095-66.3826 93.933-68.9129Q89.9566-71.4431 85.1314-71.4431Q80.3062-71.4431 76.3111-68.9013Q72.316-66.3595 69.9464-62.1447Q67.5769-57.9299 67.5769-52.8117Q67.6142-47.5816 69.9464-43.2878Q72.2787-38.994 76.2551-36.4593Q80.2316-33.9246 85.1314-33.9246ZM85.1314-43.6757Q83.0542-43.6757 81.2988-44.8594Q79.5435-46.0431 78.4991-48.1332Q77.4548-50.2232 77.4548-52.849Q77.4548-55.3256 78.512-57.318Q79.5692-59.3104 81.3246-60.4955Q83.08-61.6805 85.1314-61.6805Q87.2201-61.6805 88.951-60.5012Q90.682-59.3219 91.7393-57.3109Q92.7965-55.2998 92.7965-52.8348Q92.7965-50.2463 91.7521-48.1691Q90.7078-46.0919 88.9711-44.8838Q87.2343-43.6757 85.1314-43.6757ZM19.6332 2.31676L48.1379 2.31676Q45.9039 0.915606 44.8527-1.92977Q43.8016-4.77516 44.0572-7.29936L21.1098-7.29936Q20.7796-7.29936 20.646-7.48315Q20.5124-7.66694 20.5124-7.89682Q20.5124-11.0461 23.0836-14.0543Q25.6548-17.0625 30.053-19.0047Q34.4511-20.9469 39.8717-20.9469Q41.7256-20.9469 44.3138-20.4872Q46.902-20.0274 48.3823-19.4924Q49.5196-21.7318 51.2812-23.5938Q53.0428-25.4558 55.5522-26.9662Q52.1885-28.5781 47.8156-29.5333Q43.4428-30.4885 39.8717-30.4885Q33.665-30.4885 28.2051-28.5482Q22.7451-26.608 18.5934-23.2273Q14.4416-19.8467 12.1036-15.5152Q9.76562-11.1838 9.76562-6.41287Q9.76562-2.23457 12.2325 0.0410973Q14.6994 2.31676 19.6332 2.31676ZM39.8832-33.2328Q44.174-33.2328 47.6622-35.4803Q51.1503-37.7278 53.2211-41.5147Q55.2919-45.3016 55.2919-49.9084Q55.2919-54.4033 53.1896-58.1241Q51.0873-61.8449 47.6048-64.0693Q44.1224-66.2937 39.8832-66.2937Q35.6555-66.2937 32.1486-64.0578Q28.6418-61.8219 26.5523-58.0953Q24.4629-54.3688 24.4629-49.8969Q24.5002-45.2412 26.5581-41.4601Q28.616-37.6789 32.1171-35.4559Q35.6181-33.2328 39.8832-33.2328ZM39.8832-42.8232Q37.507-42.8232 35.7801-44.8359Q34.0532-46.8486 34.0532-49.8969Q34.0532-51.7645 34.8534-53.3117Q35.6536-54.8588 37.0055-55.7811Q38.3574-56.7034 39.8832-56.7034Q41.4205-56.7034 42.7537-55.7869Q44.0869-54.8704 44.9-53.3232Q45.7131-51.776 45.7131-49.9084Q45.7131-46.8601 44.0049-44.8417Q42.2967-42.8232 39.8832-42.8232Z"/>
  </g>
  <g id="Bold-S" transform="matrix(1 0 0 1 2275.78 696)">
   <path d="M61.1328 1.87988L107.739 1.87988Q118.628 1.87988 118.628-5.71289Q118.628-9.98535 116.138-14.3311Q113.647-18.6768 109.094-22.29Q104.541-25.9033 98.2788-28.125Q92.0166-30.3467 84.4238-30.3467Q76.8555-30.3467 70.5933-28.125Q64.3311-25.9033 59.7778-22.29Q55.2246-18.6768 52.7344-14.3311Q50.2441-9.98535 50.2441-5.71289Q50.2441 1.87988 61.1328 1.87988ZM60.8154-6.78711Q60.4492-6.78711 60.2783-6.97021Q60.1074-7.15332 60.1074-7.44629Q60.1074-9.22852 61.731-11.6455Q63.3545-14.0625 66.4673-16.3574Q69.5801-18.6523 74.1089-20.166Q78.6377-21.6797 84.4238-21.6797Q90.2344-21.6797 94.7632-20.166Q99.292-18.6523 102.393-16.3574Q105.493-14.0625 107.117-11.6455Q108.74-9.22852 108.74-7.44629Q108.74-7.15332 108.594-6.97021Q108.447-6.78711 108.057-6.78711ZM84.4482-34.1309Q89.2334-34.1309 93.1519-36.6455Q97.0703-39.1602 99.4019-43.396Q101.733-47.6318 101.733-52.7832Q101.733-57.8613 99.3896-61.9995Q97.0459-66.1377 93.1274-68.6035Q89.209-71.0693 84.4482-71.0693Q79.6875-71.0693 75.7568-68.5791Q71.8262-66.0889 69.4824-61.9385Q67.1387-57.7881 67.1387-52.7344Q67.1631-47.6074 69.4824-43.3716Q71.8018-39.1357 75.7202-36.6333Q79.6387-34.1309 84.4482-34.1309ZM84.4482-42.7734Q82.1777-42.7734 80.2612-44.0796Q78.3447-45.3857 77.1973-47.6562Q76.0498-49.9268 76.0498-52.7588Q76.0498-55.4932 77.1973-57.666Q78.3447-59.8389 80.2612-61.1206Q82.1777-62.4023 84.4482-62.4023Q86.7432-62.4023 88.6353-61.1328Q90.5273-59.8633 91.6748-57.6782Q92.8223-55.4932 92.8223-52.7832Q92.8223-49.9756 91.6748-47.7051Q90.5273-45.4346 88.623-44.104Q86.7188-42.7734 84.4482-42.7734ZM19.0918 1.9043L47.8027 1.9043Q45.8008 0.683594 44.7754-1.79443Q43.75-4.27246 44.0186-6.61621L19.6533-6.61621Q19.3359-6.61621 19.1895-6.78711Q19.043-6.95801 19.043-7.22656Q19.043-10.8398 21.814-14.209Q24.585-17.5781 29.2603-19.7266Q33.9355-21.875 39.5752-21.875Q41.9189-21.875 44.6167-21.3379Q47.3145-20.8008 49.1943-19.9951Q50.293-21.8994 51.8677-23.5229Q53.4424-25.1465 55.5908-26.4893Q52.124-28.3203 47.8027-29.3335Q43.4814-30.3467 39.5752-30.3467Q33.4717-30.3467 28.0762-28.3936Q22.6807-26.4404 18.5547-23.0469Q14.4287-19.6533 12.0972-15.2832Q9.76562-10.9131 9.76562-6.10352Q9.76562-2.22168 12.0972-0.158691Q14.4287 1.9043 19.0918 1.9043ZM39.5996-33.5938Q43.7744-33.5938 47.2046-35.8154Q50.6348-38.0371 52.6733-41.7725Q54.7119-45.5078 54.7119-50.0244Q54.7119-54.4678 52.6611-58.1177Q50.6104-61.7676 47.1924-63.9404Q43.7744-66.1133 39.5996-66.1133Q35.4492-66.1133 32.0068-63.916Q28.5645-61.7188 26.5137-58.0566Q24.4629-54.3945 24.4629-50Q24.4873-45.4346 26.5259-41.7114Q28.5645-37.9883 31.9946-35.791Q35.4248-33.5938 39.5996-33.5938ZM39.5996-42.1143Q36.9141-42.1143 34.9487-44.3848Q32.9834-46.6553 32.9834-50Q32.9834-52.0996 33.8867-53.8208Q34.79-55.542 36.3159-56.5674Q37.8418-57.5928 39.5996-57.5928Q41.3818-57.5928 42.8955-56.5796Q44.4092-55.5664 45.3125-53.8452Q46.2158-52.124 46.2158-50.0244Q46.2158-46.6797 44.2627-44.397Q42.3096-42.1143 39.5996-42.1143Z"/>
  </g>
  <g id="Semibold-S" transform="matrix(1 0 0 1 1979.39 696)">
   <path d="M60.5463 1.60439L107.375 1.60439Q117.979 1.60439 117.979-5.55293Q117.979-9.63877 115.551-13.9667Q113.123-18.2946 108.637-21.9701Q104.15-25.6456 97.9011-27.9384Q91.6522-30.2312 83.9439-30.2312Q76.2689-30.2312 70.0201-27.9384Q63.7712-25.6456 59.2846-21.9701Q54.798-18.2946 52.37-13.9667Q49.942-9.63877 49.942-5.55293Q49.942 1.60439 60.5463 1.60439ZM59.5269-6.30723Q59.1518-6.30723 58.9631-6.477Q58.7744-6.64678 58.7744-6.97529Q58.7744-8.89082 60.4379-11.4944Q62.1015-14.098 65.3165-16.5707Q68.5314-19.0434 73.2247-20.6814Q77.9179-22.3195 83.9439-22.3195Q90.0033-22.3195 94.6965-20.6814Q99.3897-19.0434 102.588-16.5707Q105.786-14.098 107.45-11.4944Q109.113-8.89082 109.113-6.97529Q109.113-6.64678 108.949-6.477Q108.785-6.30723 108.394-6.30723ZM83.9772-34.273Q88.6913-34.273 92.5698-36.7699Q96.4482-39.2668 98.7665-43.4626Q101.085-47.6585 101.085-52.7477Q101.085-57.7902 98.7676-61.8795Q96.4505-65.9688 92.572-68.3902Q88.6936-70.8116 83.9772-70.8116Q79.2609-70.8116 75.3747-68.3569Q71.4885-65.9022 69.1625-61.7963Q66.8365-57.6903 66.8365-52.6811Q66.8521-47.6252 69.1625-43.4293Q71.4729-39.2335 75.3514-36.7533Q79.2299-34.273 83.9772-34.273ZM83.9772-42.1514Q81.5734-42.1514 79.5458-43.5419Q77.5183-44.9325 76.2997-47.3274Q75.0812-49.7224 75.0812-52.6966Q75.0812-55.6087 76.2908-57.906Q77.5005-60.2032 79.5281-61.5516Q81.5557-62.9 83.9772-62.9Q86.4144-62.9 88.4175-61.5683Q90.4207-60.2365 91.6304-57.9315Q92.84-55.6265 92.84-52.7477Q92.84-49.789 91.6215-47.3852Q90.4029-44.9813 88.3831-43.5664Q86.3633-42.1514 83.9772-42.1514ZM18.7186 1.61992L47.5717 1.61992Q45.7297 0.523633 44.7221-1.70112Q43.7145-3.92588 43.9919-6.14521L18.6491-6.14521Q18.3406-6.14521 18.1853-6.30723Q18.0299-6.46924 18.0299-6.76445Q18.0299-10.6977 20.9386-14.3156Q23.8474-17.9336 28.7137-20.2242Q33.5801-22.5148 39.3708-22.5148Q42.0522-22.5148 44.8255-21.9244Q47.5988-21.334 49.7542-20.3417Q50.8262-22.0149 52.272-23.4741Q53.7179-24.9332 55.6175-26.1604Q52.0796-28.1426 47.7938-29.1958Q43.5081-30.2489 39.3708-30.2489Q33.3384-30.2489 27.9873-28.2869Q22.6362-26.3249 18.528-22.9225Q14.4198-19.52 12.0927-15.1232Q9.76562-10.7265 9.76562-5.89023Q9.76562-2.21279 12.0039-0.296436Q14.2421 1.61992 18.7186 1.61992ZM39.4041-33.8426Q43.4989-33.8426 46.8891-36.0465Q50.2793-38.2504 52.2957-41.9502Q54.312-45.65 54.312-50.1044Q54.312-54.5122 52.2968-58.1132Q50.2815-61.7143 46.908-63.8516Q43.5345-65.9889 39.4041-65.9889Q35.307-65.9889 31.9091-63.8183Q28.5111-61.6477 26.487-58.03Q24.4629-54.4123 24.4629-50.0711Q24.4784-45.5679 26.5037-41.8847Q28.5289-38.2016 31.9102-36.0221Q35.2915-33.8426 39.4041-33.8426ZM39.4041-41.6255Q36.5053-41.6255 34.3755-44.0737Q32.2458-46.522 32.2458-50.0711Q32.2458-52.3307 33.2202-54.1718Q34.1946-56.013 35.8405-57.1095Q37.4863-58.206 39.4041-58.206Q41.3552-58.206 42.9933-57.1261Q44.6313-56.0463 45.5969-54.2051Q46.5624-52.364 46.5624-50.1044Q46.5624-46.5553 44.4404-44.0904Q42.3185-41.6255 39.4041-41.6255Z"/>
  </g>
  <g id="Medium-S" transform="matrix(1 0 0 1 1682.93 696)">
   <path d="M60.1016 1.39551L107.099 1.39551Q117.487 1.39551 117.487-5.43164Q117.487-9.37598 115.106-13.6904Q112.726-18.0049 108.29-21.7275Q103.854-25.4502 97.6147-27.7969Q91.376-30.1436 83.5801-30.1436Q75.8242-30.1436 69.5854-27.7969Q63.3467-25.4502 58.9106-21.7275Q54.4746-18.0049 52.0938-13.6904Q49.7129-9.37598 49.7129-5.43164Q49.7129 1.39551 60.1016 1.39551ZM58.5498-5.94336Q58.168-5.94336 57.9658-6.10303Q57.7637-6.2627 57.7637-6.61816Q57.7637-8.63477 59.4575-11.3799Q61.1514-14.125 64.4438-16.7324Q67.7363-19.3398 72.5542-21.0723Q77.3721-22.8047 83.5801-22.8047Q89.8281-22.8047 94.646-21.0723Q99.4639-19.3398 102.736-16.7324Q106.009-14.125 107.703-11.3799Q109.396-8.63477 109.396-6.61816Q109.396-6.2627 109.219-6.10303Q109.041-5.94336 108.65-5.94336ZM83.6201-34.3809Q88.2803-34.3809 92.1284-36.8643Q95.9766-39.3477 98.2847-43.5132Q100.593-47.6787 100.593-52.7207Q100.593-57.7363 98.2959-61.7886Q95.999-65.8408 92.1509-68.2285Q88.3027-70.6162 83.6201-70.6162Q78.9375-70.6162 75.085-68.1885Q71.2324-65.7607 68.9199-61.6885Q66.6074-57.6162 66.6074-52.6406Q66.6162-47.6387 68.9199-43.4731Q71.2236-39.3076 75.0718-36.8442Q78.9199-34.3809 83.6201-34.3809ZM83.6201-41.6797Q81.1152-41.6797 79.0034-43.1343Q76.8916-44.5889 75.6191-47.0781Q74.3467-49.5674 74.3467-52.6494Q74.3467-55.6963 75.6035-58.0879Q76.8604-60.4795 78.9722-61.8784Q81.084-63.2773 83.6201-63.2773Q86.165-63.2773 88.2524-61.8984Q90.3398-60.5195 91.5967-58.1235Q92.8535-55.7275 92.8535-52.7207Q92.8535-49.6475 91.5811-47.1426Q90.3086-44.6377 88.2012-43.1587Q86.0938-41.6797 83.6201-41.6797ZM18.4355 1.4043L47.3965 1.4043Q45.6758 0.402344 44.6816-1.63037Q43.6875-3.66309 43.9717-5.78809L17.8877-5.78809Q17.5859-5.78809 17.4238-5.94336Q17.2617-6.09863 17.2617-6.41406Q17.2617-10.5898 20.2749-14.3965Q23.2881-18.2031 28.2993-20.6016Q33.3105-23 39.2158-23Q42.1533-23 44.9839-22.3691Q47.8145-21.7383 50.1787-20.6045Q51.2305-22.1025 52.5786-23.437Q53.9268-24.7715 55.6377-25.9111Q52.0459-28.0078 47.7871-29.0913Q43.5283-30.1748 39.2158-30.1748Q33.2373-30.1748 27.9199-28.2061Q22.6025-26.2373 18.5078-22.8281Q14.4131-19.4189 12.0894-15.002Q9.76562-10.585 9.76562-5.72852Q9.76562-2.20605 11.9331-0.400879Q14.1006 1.4043 18.4355 1.4043ZM39.2559-34.0312Q43.29-34.0312 46.6499-36.2217Q50.0098-38.4121 52.0093-42.085Q54.0088-45.7578 54.0088-50.165Q54.0088-54.5459 52.0205-58.1099Q50.0322-61.6738 46.6924-63.7842Q43.3525-65.8945 39.2559-65.8945Q35.1992-65.8945 31.835-63.7441Q28.4707-61.5938 26.4668-58.0098Q24.4629-54.4258 24.4629-50.125Q24.4717-45.6689 26.4868-42.0161Q28.502-38.3633 31.8462-36.1973Q35.1904-34.0312 39.2559-34.0312ZM39.2559-41.2549Q36.1953-41.2549 33.9409-43.8379Q31.6865-46.4209 31.6865-50.125Q31.6865-52.5059 32.7148-54.438Q33.7432-56.3701 35.48-57.5205Q37.2168-58.6709 39.2559-58.6709Q41.335-58.6709 43.0674-57.5405Q44.7998-56.4102 45.8125-54.478Q46.8252-52.5459 46.8252-50.165Q46.8252-46.4609 44.5752-43.8579Q42.3252-41.2549 39.2559-41.2549Z"/>
  </g>
  <g id="Regular-S" transform="matrix(1 0 0 1 1386.54 696)">
   <path d="M59.5215 1.12305L106.738 1.12305Q116.846 1.12305 116.846-5.27344Q116.846-9.0332 114.526-13.3301Q112.207-17.627 107.837-21.4111Q103.467-25.1953 97.2412-27.6123Q91.0156-30.0293 83.1055-30.0293Q75.2441-30.0293 69.0186-27.6123Q62.793-25.1953 58.4229-21.4111Q54.0527-17.627 51.7334-13.3301Q49.4141-9.0332 49.4141-5.27344Q49.4141 1.12305 59.5215 1.12305ZM57.2754-5.46875Q56.8848-5.46875 56.665-5.61523Q56.4453-5.76172 56.4453-6.15234Q56.4453-8.30078 58.1787-11.2305Q59.9121-14.1602 63.3057-16.9434Q66.6992-19.7266 71.6797-21.582Q76.6602-23.4375 83.1055-23.4375Q89.5996-23.4375 94.5801-21.582Q99.5605-19.7266 102.93-16.9434Q106.299-14.1602 108.032-11.2305Q109.766-8.30078 109.766-6.15234Q109.766-5.76172 109.57-5.61523Q109.375-5.46875 108.984-5.46875ZM83.1543-34.5215Q87.7441-34.5215 91.5527-36.9873Q95.3613-39.4531 97.6562-43.5791Q99.9512-47.7051 99.9512-52.6855Q99.9512-57.666 97.6807-61.6699Q95.4102-65.6738 91.6016-68.0176Q87.793-70.3613 83.1543-70.3613Q78.5156-70.3613 74.707-67.9688Q70.8984-65.5762 68.6035-61.5479Q66.3086-57.5195 66.3086-52.5879Q66.3086-47.6562 68.6035-43.5303Q70.8984-39.4043 74.707-36.9629Q78.5156-34.5215 83.1543-34.5215ZM83.1543-41.0645Q80.5176-41.0645 78.2959-42.6025Q76.0742-44.1406 74.7314-46.7529Q73.3887-49.3652 73.3887-52.5879Q73.3887-55.8105 74.707-58.3252Q76.0254-60.8398 78.2471-62.3047Q80.4688-63.7695 83.1543-63.7695Q85.8398-63.7695 88.0371-62.3291Q90.2344-60.8887 91.5527-58.374Q92.8711-55.8594 92.8711-52.6855Q92.8711-49.4629 91.5283-46.8262Q90.1855-44.1895 87.9639-42.627Q85.7422-41.0645 83.1543-41.0645ZM18.0664 1.12305L47.168 1.12305Q45.6055 0.244141 44.6289-1.53809Q43.6523-3.32031 43.9453-5.32227L16.8945-5.32227Q16.6016-5.32227 16.4307-5.46875Q16.2598-5.61523 16.2598-5.95703Q16.2598-10.4492 19.4092-14.502Q22.5586-18.5547 27.7588-21.0938Q32.959-23.6328 39.0137-23.6328Q42.2852-23.6328 45.1904-22.9492Q48.0957-22.2656 50.7324-20.9473Q51.7578-22.2168 52.9785-23.3887Q54.1992-24.5605 55.6641-25.5859Q52.002-27.832 47.7783-28.9551Q43.5547-30.0781 39.0137-30.0781Q33.1055-30.0781 27.832-28.1006Q22.5586-26.123 18.4814-22.7051Q14.4043-19.2871 12.085-14.8438Q9.76562-10.4004 9.76562-5.51758Q9.76562-2.19727 11.8408-0.537109Q13.916 1.12305 18.0664 1.12305ZM39.0625-34.2773Q43.0176-34.2773 46.3379-36.4502Q49.6582-38.623 51.6357-42.2607Q53.6133-45.8984 53.6133-50.2441Q53.6133-54.5898 51.6602-58.1055Q49.707-61.6211 46.4111-63.6963Q43.1152-65.7715 39.0625-65.7715Q35.0586-65.7715 31.7383-63.6475Q28.418-61.5234 26.4404-57.9834Q24.4629-54.4434 24.4629-50.1953Q24.4629-45.8008 26.4648-42.1875Q28.4668-38.5742 31.7627-36.4258Q35.0586-34.2773 39.0625-34.2773ZM39.0625-40.7715Q35.791-40.7715 33.374-43.5303Q30.957-46.2891 30.957-50.1953Q30.957-52.7344 32.0557-54.7852Q33.1543-56.8359 35.0098-58.0566Q36.8652-59.2773 39.0625-59.2773Q41.3086-59.2773 43.1641-58.0811Q45.0195-56.8848 46.0938-54.834Q47.168-52.7832 47.168-50.2441Q47.168-46.3379 44.751-43.5547Q42.334-40.7715 39.0625-40.7715Z"/>
  </g>
  <g id="Light-S" transform="matrix(1 0 0 1 1090.3 696)">
   <path d="M58.3257 0.578054L107.041 0.578054Q115.892 0.578054 115.892-5.2887Q115.892-9.0332 113.603-13.2619Q111.314-17.4906 106.997-21.2143Q102.68-24.9379 96.5525-27.2944Q90.4254-29.6509 82.6665-29.6509Q74.9565-29.6509 68.8293-27.2944Q62.7022-24.9379 58.3851-21.2143Q54.068-17.4906 51.7789-13.2619Q49.4898-9.0332 49.4898-5.2887Q49.4898 0.578054 58.3257 0.578054ZM56.7909-4.54534Q55.7798-4.54534 55.3482-4.84327Q54.9166-5.14119 54.9166-5.89498Q54.9166-8.43709 56.7483-11.6316Q58.58-14.8262 62.1325-17.7684Q65.685-20.7105 70.8547-22.6265Q76.0244-24.5425 82.6665-24.5425Q89.3422-24.5425 94.5196-22.6265Q99.6969-20.7105 103.232-17.7684Q106.768-14.8262 108.6-11.6316Q110.432-8.43709 110.432-5.89498Q110.432-5.14119 110.017-4.84327Q109.602-4.54534 108.576-4.54534ZM82.7304-34.6578Q87.2294-34.6578 90.9246-37.0478Q94.6198-39.4379 96.8238-43.4731Q99.0278-47.5082 99.0278-52.4282Q99.0278-57.2573 96.8254-61.1856Q94.6231-65.1138 90.928-67.4273Q87.233-69.7408 82.7304-69.7408Q78.2433-69.7408 74.5406-67.3936Q70.8379-65.0464 68.6186-61.1014Q66.3994-57.1564 66.4146-52.3608Q66.4296-47.4747 68.6338-43.4395Q70.8379-39.4043 74.5255-37.031Q78.213-34.6578 82.7304-34.6578ZM82.7304-39.7476Q79.7457-39.7476 77.2818-41.4219Q74.8179-43.0962 73.3465-45.9507Q71.875-48.8052 71.875-52.3608Q71.86-55.8258 73.322-58.5902Q74.7841-61.3546 77.2631-62.9859Q79.7422-64.6172 82.7304-64.6172Q85.7188-64.6172 88.1734-63.0103Q90.6281-61.4034 92.0977-58.6314Q93.5674-55.8594 93.5674-52.4282Q93.5674-48.8726 92.0959-46.0013Q90.6245-43.13 88.1531-41.4388Q85.6817-39.7476 82.7304-39.7476ZM17.143 0.578054L47.9248 0.578054Q46.6952-0.104014 45.8625-1.47756Q45.0297-2.8511 45.1261-4.42912L16.3495-4.42912Q15.5421-4.42912 15.182-4.75731Q14.8219-5.0855 14.8219-5.85098Q14.8219-10.7671 18.0923-15.0847Q21.3628-19.4023 26.7901-22.0701Q32.2174-24.7378 38.5897-24.7378Q42.5273-24.7378 45.9927-23.7666Q49.4581-22.7954 52.3824-20.9017Q53.211-21.8686 54.1592-22.768Q55.1074-23.6674 56.2241-24.4659Q52.4562-27.0905 47.9752-28.4178Q43.4942-29.7452 38.5897-29.7452Q32.5152-29.7452 27.2795-27.7298Q22.0439-25.7144 18.103-22.2964Q14.1622-18.8784 11.9639-14.5335Q9.76562-10.1885 9.76562-5.54784Q9.76562-2.46964 11.6062-0.945791Q13.4468 0.578054 17.143 0.578054ZM38.6538-34.2318Q42.5484-34.2318 45.7703-36.329Q48.9922-38.4262 50.9015-41.9655Q52.8109-45.5048 52.8109-49.8052Q52.8109-54.0298 50.9033-57.4698Q48.9957-60.9098 45.7906-62.9547Q42.5855-64.9996 38.6538-64.9996Q34.771-64.9996 31.5414-62.921Q28.3119-60.8424 26.395-57.3855Q24.4781-53.9286 24.4932-49.7714Q24.5084-45.4376 26.4271-41.9151Q28.3457-38.3926 31.5432-36.3122Q34.7407-34.2318 38.6538-34.2318ZM38.6538-39.2881Q34.8979-39.2881 32.2236-42.3269Q29.5494-45.3657 29.5494-49.7714Q29.5494-52.5831 30.7842-54.8836Q32.019-57.1841 34.094-58.5637Q36.1689-59.9434 38.6538-59.9434Q41.1723-59.9434 43.2549-58.5882Q45.3374-57.2329 46.563-54.9324Q47.7885-52.6319 47.7885-49.8052Q47.7885-45.3995 45.0991-42.3438Q42.4098-39.2881 38.6538-39.2881Z"/>
  </g>
  <g id="Thin-S" transform="matrix(1 0 0 1 794.224 696)">
   <path d="M56.7442-0.142744L107.441-0.142744Q114.631-0.142744 114.631-5.30888Q114.631-9.0332 112.382-13.1718Q110.133-17.3104 105.886-20.954Q101.639-24.5976 95.6417-26.874Q89.6447-29.1504 82.086-29.1504Q74.5761-29.1504 68.5791-26.874Q62.5821-24.5976 58.3351-20.954Q54.0882-17.3104 51.8391-13.1718Q49.5901-9.0332 49.5901-5.30888Q49.5901-0.142744 56.7442-0.142744ZM56.1502-3.32405Q54.3183-3.32405 53.6066-3.82228Q52.8948-4.3205 52.8948-5.55459Q52.8948-8.61738 54.8565-12.1622Q56.8182-15.7071 60.5809-18.8595Q64.3437-22.0118 69.7636-24.0079Q75.1835-26.0039 82.086-26.0039Q89.0019-26.0039 94.4395-24.0079Q99.8771-22.0118 103.633-18.8595Q107.389-15.7071 109.351-12.1622Q111.313-8.61738 111.313-5.55459Q111.313-4.3205 110.608-3.82228Q109.902-3.32405 108.035-3.32405ZM82.1697-34.8381Q86.5486-34.8381 90.0938-37.1279Q93.639-39.4177 95.7227-43.3328Q97.8065-47.2479 97.8065-52.0878Q97.8065-56.7168 95.6943-60.545Q93.5821-64.3732 90.0372-66.6466Q86.4923-68.9201 82.1697-68.9201Q77.883-68.9201 74.3204-66.633Q70.7579-64.3458 68.6387-60.5109Q66.5195-56.6761 66.5549-52.0604Q66.5897-47.2345 68.6738-43.3194Q70.7579-39.4043 74.2853-37.1212Q77.8127-34.8381 82.1697-34.8381ZM82.1697-38.006Q78.7249-38.006 75.9406-39.8604Q73.1563-41.7148 71.5147-44.8897Q69.873-48.0646 69.873-52.0604Q69.8382-55.846 71.4903-58.9407Q73.1424-62.0353 75.9618-63.8868Q78.7812-65.7382 82.1697-65.7382Q85.5587-65.7382 88.3537-63.9112Q91.1487-62.0842 92.8185-58.9718Q94.4883-55.8594 94.4883-52.0878Q94.4883-48.092 92.8467-44.9104Q91.205-41.7288 88.4033-39.8674Q85.6016-38.006 82.1697-38.006ZM15.9217-0.142744L48.9258-0.142744Q48.1365-0.564477 47.4939-1.39751Q46.8514-2.23054 46.6878-3.24786L15.6287-3.24786Q14.1409-3.24786 13.5305-3.81637Q12.9202-4.38488 12.9202-5.71072Q12.9202-11.1875 16.3507-15.8555Q19.7813-20.5234 25.509-23.3613Q31.2366-26.1992 38.029-26.1992Q42.8475-26.1992 47.0537-24.8476Q51.2599-23.496 54.5646-20.8415Q55.1329-21.4082 55.7207-21.9472Q56.3085-22.4861 56.9647-22.9847Q53.0569-26.1097 48.2355-27.7073Q43.4141-29.3049 38.029-29.3049Q31.7345-29.3049 26.5488-27.2394Q21.3631-25.1739 17.6025-21.7559Q13.842-18.3379 11.8038-14.1231Q9.76562-9.90837 9.76562-5.58787Q9.76562-2.82987 11.2959-1.4863Q12.8262-0.142744 15.9217-0.142744ZM38.1133-34.1716Q41.9278-34.1716 45.0195-36.1687Q48.1113-38.1659 49.9305-41.575Q51.7497-44.9841 51.7497-49.2247Q51.7497-53.2892 49.9023-56.6291Q48.0549-59.969 44.9699-61.9739Q41.8849-63.9788 38.1133-63.9788Q34.3906-63.9788 31.2811-61.9602Q28.1717-59.9416 26.335-56.5948Q24.4983-53.2479 24.5332-49.2107Q24.5686-44.9573 26.3771-41.5549Q28.1856-38.1525 31.253-36.1621Q34.3203-34.1716 38.1133-34.1716ZM38.1133-37.3261Q33.7166-37.3261 30.7022-40.7353Q27.6877-44.1444 27.6877-49.2107Q27.6877-52.3829 29.1026-55.0137Q30.5176-57.6446 32.8828-59.2344Q35.248-60.8243 38.1133-60.8243Q40.992-60.8243 43.3749-59.2588Q45.7579-57.6934 47.1835-55.0626Q48.6092-52.4318 48.6092-49.2247Q48.6092-44.1583 45.5596-40.7422Q42.51-37.3261 38.1133-37.3261Z"/>
  </g>
  <g id="Ultralight-S" transform="matrix(1 0 0 1 497.836 696)">
   <path d="M55.9341-0.511932L107.646-0.511932Q113.985-0.511932 113.985-5.31921Q113.985-9.0332 111.756-13.1256Q109.528-17.218 105.317-20.8206Q101.105-24.4232 95.1752-26.6586Q89.2448-28.894 81.7886-28.894Q74.3813-28.894 68.4509-26.6586Q62.5206-24.4232 58.3096-20.8206Q54.0985-17.218 51.87-13.1256Q49.6414-9.0332 49.6414-5.31921Q49.6414-0.511932 55.9341-0.511932ZM55.822-2.69852Q53.5698-2.69852 52.7145-3.29933Q51.8593-3.90015 51.8593-5.38025Q51.8593-8.70972 53.8876-12.434Q55.9158-16.1583 59.7862-19.4183Q63.6566-22.6784 69.2047-24.7154Q74.7528-26.7525 81.7886-26.7525Q88.8275-26.7525 94.3985-24.7154Q99.9695-22.6784 103.838-19.4183Q107.706-16.1583 109.735-12.434Q111.764-8.70972 111.764-5.38025Q111.764-3.90015 110.91-3.29933Q110.056-2.69852 107.758-2.69852ZM81.8825-34.9304Q86.2-34.9304 89.6683-37.1689Q93.1366-39.4073 95.1588-43.261Q97.1809-47.1146 97.1809-51.9135Q97.1809-56.44 95.1149-60.2169Q93.0489-63.9938 89.5809-66.2468Q86.113-68.4998 81.8825-68.4998Q77.6985-68.4998 74.2077-66.2434Q70.7169-63.987 68.6489-60.2085Q66.581-56.4301 66.6267-51.9066Q66.6718-47.1115 68.6943-43.2579Q70.7169-39.4043 74.1623-37.1674Q77.6077-34.9304 81.8825-34.9304ZM81.8825-37.114Q78.2021-37.114 75.2537-39.0606Q72.3053-41.0072 70.5765-44.3462Q68.8477-47.6852 68.8477-51.9066Q68.8026-55.8563 70.5521-59.1202Q72.3015-62.384 75.2953-64.3482Q78.289-66.3124 81.8825-66.3124Q85.4767-66.3124 88.446-64.3726Q91.4154-62.4329 93.1877-59.1461Q94.96-55.8594 94.96-51.9135Q94.96-47.6921 93.2312-44.3516Q91.5024-41.011 88.5315-39.0625Q85.5606-37.114 81.8825-37.114ZM15.2962-0.511932L49.4385-0.511932Q48.8747-0.800323 48.3295-1.35651Q47.7844-1.91269 47.4876-2.64282L15.2596-2.64282Q13.4232-2.64282 12.6846-3.33443Q11.9461-4.02603 11.9461-5.63889Q11.9461-11.4029 15.4587-16.2502Q18.9713-21.0976 24.8528-24.0227Q30.7343-26.9478 37.7419-26.9478Q43.0115-26.9478 47.5971-25.4013Q52.1828-23.8548 55.6824-20.8107Q56.1172-21.1723 56.5205-21.5267Q56.9237-21.8811 57.3441-22.226Q53.3646-25.6073 48.3688-27.3434Q43.3731-29.0794 37.7419-29.0794Q31.3347-29.0794 26.1745-26.9882Q21.0144-24.897 17.3462-21.479Q13.678-18.0611 11.7218-13.913Q9.76562-9.76486 9.76562-5.60837Q9.76562-3.01437 11.137-1.76315Q12.5084-0.511932 15.2962-0.511932ZM37.8365-34.1408Q41.61-34.1408 44.635-36.0867Q47.6601-38.0325 49.4331-41.375Q51.2062-44.7174 51.2062-48.9273Q51.2062-52.9099 49.3896-56.1985Q47.5731-59.4872 44.5496-61.4716Q41.526-63.456 37.8365-63.456Q34.1957-63.456 31.1478-61.4681Q28.0998-59.4803 26.3042-56.1897Q24.5087-52.8992 24.5537-48.9235Q24.5995-44.7113 26.3515-41.3704Q28.1036-38.0295 31.1043-36.0851Q34.1049-34.1408 37.8365-34.1408ZM37.8365-36.3213Q33.1116-36.3213 29.9229-39.92Q26.7342-43.5188 26.7342-48.9235Q26.7342-52.2804 28.2413-55.0804Q29.7485-57.8804 32.2624-59.5779Q34.7763-61.2755 37.8365-61.2755Q40.8997-61.2755 43.4364-59.6024Q45.9732-57.9292 47.5014-55.1292Q49.0295-52.3293 49.0295-48.9273Q49.0295-43.5226 45.7954-39.922Q42.5613-36.3213 37.8365-36.3213Z"/>
  </g>
 </g>
</svg>
