<?xml version="1.0" encoding="UTF-8"?>
<!--Generator: Apple Native CoreSVG 175-->
<!DOCTYPE svg
PUBLIC "-//W3C//DTD SVG 1.1//EN"
       "http://www.w3.org/Graphics/SVG/1.1/DTD/svg11.dtd">
<svg version="1.1" xmlns="http://www.w3.org/2000/svg" xmlns:xlink="http://www.w3.org/1999/xlink" width="3300" height="2200">
 <!--glyph: "", point size: 100.0, font version: "17.1d1e1", template writer version: "65.1"-->
 <g id="Notes">
  <rect height="2200" id="artboard" style="fill:white;opacity:1" width="3300" x="0" y="0"/>
  <line style="fill:none;stroke:black;opacity:1;stroke-width:0.5;" x1="263" x2="3036" y1="292" y2="292"/>
  <text style="stroke:none;fill:black;font-family:sans-serif;font-size:13;font-weight:bold;" transform="matrix(1 0 0 1 263 322)">Weight/Scale Variations</text>
  <text style="stroke:none;fill:black;font-family:sans-serif;font-size:13;text-anchor:middle;" transform="matrix(1 0 0 1 559.711 322)">Ultralight</text>
  <text style="stroke:none;fill:black;font-family:sans-serif;font-size:13;text-anchor:middle;" transform="matrix(1 0 0 1 856.422 322)">Thin</text>
  <text style="stroke:none;fill:black;font-family:sans-serif;font-size:13;text-anchor:middle;" transform="matrix(1 0 0 1 1153.13 322)">Light</text>
  <text style="stroke:none;fill:black;font-family:sans-serif;font-size:13;text-anchor:middle;" transform="matrix(1 0 0 1 1449.84 322)">Regular</text>
  <text style="stroke:none;fill:black;font-family:sans-serif;font-size:13;text-anchor:middle;" transform="matrix(1 0 0 1 1746.56 322)">Medium</text>
  <text style="stroke:none;fill:black;font-family:sans-serif;font-size:13;text-anchor:middle;" transform="matrix(1 0 0 1 2043.27 322)">Semibold</text>
  <text style="stroke:none;fill:black;font-family:sans-serif;font-size:13;text-anchor:middle;" transform="matrix(1 0 0 1 2339.98 322)">Bold</text>
  <text style="stroke:none;fill:black;font-family:sans-serif;font-size:13;text-anchor:middle;" transform="matrix(1 0 0 1 2636.69 322)">Heavy</text>
  <text style="stroke:none;fill:black;font-family:sans-serif;font-size:13;text-anchor:middle;" transform="matrix(1 0 0 1 2933.4 322)">Black</text>
  <line style="fill:none;stroke:black;opacity:1;stroke-width:0.5;" x1="263" x2="3036" y1="1903" y2="1903"/>
  <g transform="matrix(1 0 0 1 263 1933)">
   <path d="M9.24805 0.830078Q10.8691 0.830078 12.2949 0.214844Q13.7207-0.400391 14.8096-1.49414Q15.8984-2.58789 16.5186-4.01367Q17.1387-5.43945 17.1387-7.05078Q17.1387-8.66211 16.5186-10.0879Q15.8984-11.5137 14.8047-12.6074Q13.7109-13.7012 12.2852-14.3164Q10.8594-14.9316 9.23828-14.9316Q7.62695-14.9316 6.20117-14.3164Q4.77539-13.7012 3.69141-12.6074Q2.60742-11.5137 1.9873-10.0879Q1.36719-8.66211 1.36719-7.05078Q1.36719-5.43945 1.9873-4.01367Q2.60742-2.58789 3.69629-1.49414Q4.78516-0.400391 6.21094 0.214844Q7.63672 0.830078 9.24805 0.830078ZM9.24805-0.654297Q7.91992-0.654297 6.7627-1.14746Q5.60547-1.64062 4.73145-2.51953Q3.85742-3.39844 3.36426-4.56055Q2.87109-5.72266 2.87109-7.05078Q2.87109-8.37891 3.35938-9.54102Q3.84766-10.7031 4.72168-11.582Q5.5957-12.4609 6.75293-12.9541Q7.91016-13.4473 9.23828-13.4473Q10.5762-13.4473 11.7334-12.9541Q12.8906-12.4609 13.7695-11.582Q14.6484-10.7031 15.1465-9.54102Q15.6445-8.37891 15.6445-7.05078Q15.6445-5.72266 15.1514-4.56055Q14.6582-3.39844 13.7842-2.51953Q12.9102-1.64062 11.748-1.14746Q10.5859-0.654297 9.24805-0.654297ZM5.6543-7.05078Q5.6543-6.72852 5.85938-6.52832Q6.06445-6.32812 6.40625-6.32812L8.51562-6.32812L8.51562-4.20898Q8.51562-3.88672 8.71094-3.67676Q8.90625-3.4668 9.23828-3.4668Q9.56055-3.4668 9.77051-3.67676Q9.98047-3.88672 9.98047-4.20898L9.98047-6.32812L12.0898-6.32812Q12.4219-6.32812 12.627-6.52832Q12.832-6.72852 12.832-7.05078Q12.832-7.38281 12.627-7.58789Q12.4219-7.79297 12.0898-7.79297L9.98047-7.79297L9.98047-9.90234Q9.98047-10.2344 9.77051-10.4443Q9.56055-10.6543 9.23828-10.6543Q8.90625-10.6543 8.71094-10.4443Q8.51562-10.2344 8.51562-9.90234L8.51562-7.79297L6.40625-7.79297Q6.06445-7.79297 5.85938-7.58789Q5.6543-7.38281 5.6543-7.05078Z"/>
  </g>
  <g transform="matrix(1 0 0 1 281.867 1933)">
   <path d="M11.709 2.91016Q13.75 2.91016 15.5518 2.12891Q17.3535 1.34766 18.7305-0.0292969Q20.1074-1.40625 20.8887-3.20801Q21.6699-5.00977 21.6699-7.05078Q21.6699-9.0918 20.8887-10.8936Q20.1074-12.6953 18.7305-14.0723Q17.3535-15.4492 15.5469-16.2305Q13.7402-17.0117 11.6992-17.0117Q9.6582-17.0117 7.85645-16.2305Q6.05469-15.4492 4.68262-14.0723Q3.31055-12.6953 2.5293-10.8936Q1.74805-9.0918 1.74805-7.05078Q1.74805-5.00977 2.5293-3.20801Q3.31055-1.40625 4.6875-0.0292969Q6.06445 1.34766 7.86621 2.12891Q9.66797 2.91016 11.709 2.91016ZM11.709 1.25Q9.98047 1.25 8.47656 0.605469Q6.97266-0.0390625 5.83496-1.17676Q4.69727-2.31445 4.05762-3.81836Q3.41797-5.32227 3.41797-7.05078Q3.41797-8.7793 4.05762-10.2832Q4.69727-11.7871 5.83008-12.9297Q6.96289-14.0723 8.4668-14.7119Q9.9707-15.3516 11.6992-15.3516Q13.4277-15.3516 14.9316-14.7119Q16.4355-14.0723 17.5781-12.9297Q18.7207-11.7871 19.3652-10.2832Q20.0098-8.7793 20.0098-7.05078Q20.0098-5.32227 19.3701-3.81836Q18.7305-2.31445 17.5928-1.17676Q16.4551-0.0390625 14.9463 0.605469Q13.4375 1.25 11.709 1.25ZM7.17773-7.05078Q7.17773-6.69922 7.41211-6.47461Q7.64648-6.25 8.01758-6.25L10.8887-6.25L10.8887-3.36914Q10.8887-2.99805 11.1133-2.76855Q11.3379-2.53906 11.6895-2.53906Q12.0605-2.53906 12.29-2.76855Q12.5195-2.99805 12.5195-3.36914L12.5195-6.25L15.4004-6.25Q15.7715-6.25 16.001-6.47461Q16.2305-6.69922 16.2305-7.05078Q16.2305-7.42188 16.001-7.65137Q15.7715-7.88086 15.4004-7.88086L12.5195-7.88086L12.5195-10.752Q12.5195-11.1328 12.29-11.3623Q12.0605-11.5918 11.6895-11.5918Q11.3379-11.5918 11.1133-11.3574Q10.8887-11.123 10.8887-10.752L10.8887-7.88086L8.01758-7.88086Q7.63672-7.88086 7.40723-7.65137Q7.17773-7.42188 7.17773-7.05078Z"/>
  </g>
  <g transform="matrix(1 0 0 1 305.646 1933)">
   <path d="M14.9707 5.66406Q17.0605 5.66406 18.96 5.01465Q20.8594 4.36523 22.4512 3.19336Q24.043 2.02148 25.2197 0.429688Q26.3965-1.16211 27.0459-3.06641Q27.6953-4.9707 27.6953-7.05078Q27.6953-9.14062 27.0459-11.04Q26.3965-12.9395 25.2197-14.5312Q24.043-16.123 22.4512-17.2998Q20.8594-18.4766 18.9551-19.126Q17.0508-19.7754 14.9609-19.7754Q12.8711-19.7754 10.9717-19.126Q9.07227-18.4766 7.48535-17.2998Q5.89844-16.123 4.72168-14.5312Q3.54492-12.9395 2.90039-11.04Q2.25586-9.14062 2.25586-7.05078Q2.25586-4.9707 2.90527-3.06641Q3.55469-1.16211 4.72656 0.429688Q5.89844 2.02148 7.49023 3.19336Q9.08203 4.36523 10.9814 5.01465Q12.8809 5.66406 14.9707 5.66406ZM14.9707 3.84766Q13.1641 3.84766 11.5283 3.2959Q9.89258 2.74414 8.53516 1.74805Q7.17773 0.751953 6.17676-0.610352Q5.17578-1.97266 4.62891-3.6084Q4.08203-5.24414 4.08203-7.05078Q4.08203-8.86719 4.62891-10.5029Q5.17578-12.1387 6.17188-13.501Q7.16797-14.8633 8.52539-15.8594Q9.88281-16.8555 11.5186-17.4023Q13.1543-17.9492 14.9609-17.9492Q16.7773-17.9492 18.4131-17.4023Q20.0488-16.8555 21.4111-15.8594Q22.7734-14.8633 23.7695-13.501Q24.7656-12.1387 25.3174-10.5029Q25.8691-8.86719 25.8691-7.05078Q25.8789-5.24414 25.332-3.6084Q24.7852-1.97266 23.7842-0.610352Q22.7832 0.751953 21.4209 1.74805Q20.0586 2.74414 18.4229 3.2959Q16.7871 3.84766 14.9707 3.84766ZM9.19922-7.05078Q9.19922-6.66992 9.45801-6.4209Q9.7168-6.17188 10.1172-6.17188L14.0625-6.17188L14.0625-2.2168Q14.0625-1.81641 14.3115-1.55762Q14.5605-1.29883 14.9512-1.29883Q15.3516-1.29883 15.6104-1.55273Q15.8691-1.80664 15.8691-2.2168L15.8691-6.17188L19.8242-6.17188Q20.2246-6.17188 20.4785-6.4209Q20.7324-6.66992 20.7324-7.05078Q20.7324-7.46094 20.4785-7.71484Q20.2246-7.96875 19.8242-7.96875L15.8691-7.96875L15.8691-11.9141Q15.8691-12.3242 15.6104-12.583Q15.3516-12.8418 14.9512-12.8418Q14.5605-12.8418 14.3115-12.583Q14.0625-12.3242 14.0625-11.9141L14.0625-7.96875L10.1172-7.96875Q9.70703-7.96875 9.45312-7.71484Q9.19922-7.46094 9.19922-7.05078Z"/>
  </g>
  <text style="stroke:none;fill:black;font-family:sans-serif;font-size:13;font-weight:bold;" transform="matrix(1 0 0 1 263 1953)">Design Variations</text>
  <text style="stroke:none;fill:black;font-family:sans-serif;font-size:13;" transform="matrix(1 0 0 1 263 1971)">Symbols are supported in up to nine weights and three scales.</text>
  <text style="stroke:none;fill:black;font-family:sans-serif;font-size:13;" transform="matrix(1 0 0 1 263 1989)">For optimal layout with text and other symbols, vertically align</text>
  <text style="stroke:none;fill:black;font-family:sans-serif;font-size:13;" transform="matrix(1 0 0 1 263 2007)">symbols with the adjacent text.</text>
  <line style="fill:none;stroke:#00AEEF;stroke-width:0.5;opacity:1.0;" x1="776" x2="776" y1="1919" y2="1933"/>
  <g transform="matrix(1 0 0 1 776 1933)">
   <path d="M3.31055 0.15625Q3.70117 0.15625 3.91602-0.00976562Q4.13086-0.175781 4.26758-0.585938L5.52734-4.0332L11.2891-4.0332L12.5488-0.585938Q12.6855-0.175781 12.9004-0.00976562Q13.1152 0.15625 13.4961 0.15625Q13.8867 0.15625 14.1162-0.0585938Q14.3457-0.273438 14.3457-0.644531Q14.3457-0.869141 14.2383-1.17188L9.6582-13.3691Q9.48242-13.8184 9.17969-14.043Q8.87695-14.2676 8.4082-14.2676Q7.5-14.2676 7.17773-13.3789L2.59766-1.16211Q2.49023-0.859375 2.49023-0.634766Q2.49023-0.263672 2.70996-0.0537109Q2.92969 0.15625 3.31055 0.15625ZM6.00586-5.51758L8.37891-12.0898L8.42773-12.0898L10.8008-5.51758Z"/>
  </g>
  <line style="fill:none;stroke:#00AEEF;stroke-width:0.5;opacity:1.0;" x1="793.197" x2="793.197" y1="1919" y2="1933"/>
  <text style="stroke:none;fill:black;font-family:sans-serif;font-size:13;font-weight:bold;" transform="matrix(1 0 0 1 776 1953)">Margins</text>
  <text style="stroke:none;fill:black;font-family:sans-serif;font-size:13;" transform="matrix(1 0 0 1 776 1971)">Leading and trailing margins on the left and right side of each symbol</text>
  <text style="stroke:none;fill:black;font-family:sans-serif;font-size:13;" transform="matrix(1 0 0 1 776 1989)">can be adjusted by modifying the x-location of the margin guidelines.</text>
  <text style="stroke:none;fill:black;font-family:sans-serif;font-size:13;" transform="matrix(1 0 0 1 776 2007)">Modifications are automatically applied proportionally to all</text>
  <text style="stroke:none;fill:black;font-family:sans-serif;font-size:13;" transform="matrix(1 0 0 1 776 2025)">scales and weights.</text>
  <g transform="matrix(1 0 0 1 1289 1933)">
   <path d="M2.8418 1.86523L4.54102 3.57422Q5.18555 4.22852 5.90332 4.17969Q6.62109 4.13086 7.31445 3.35938L18.0078-8.42773L17.041-9.4043L6.42578 2.27539Q6.16211 2.57812 5.89355 2.61719Q5.625 2.65625 5.27344 2.30469L4.10156 1.14258Q3.75 0.791016 3.79395 0.522461Q3.83789 0.253906 4.14062-0.0195312L15.6152-10.8203L14.6387-11.7871L3.04688-0.898438Q2.30469-0.214844 2.25098 0.498047Q2.19727 1.21094 2.8418 1.86523ZM9.25781-16.3281Q8.94531-16.0254 8.90625-15.6348Q8.86719-15.2441 9.04297-14.9512Q9.21875-14.6777 9.55566-14.541Q9.89258-14.4043 10.3809-14.5215Q11.4746-14.7754 12.5977-14.7314Q13.7207-14.6875 14.7949-13.9844L14.209-12.5293Q13.9551-11.9043 14.0674-11.4404Q14.1797-10.9766 14.5801-10.5664L16.875-8.25195Q17.2363-7.88086 17.5781-7.82227Q17.9199-7.76367 18.3398-7.8418L19.4043-8.03711L20.0684-7.36328L20.0293-6.80664Q20-6.43555 20.1221-6.12305Q20.2441-5.81055 20.6055-5.44922L21.3672-4.70703Q21.7285-4.3457 22.1533-4.33105Q22.5781-4.31641 22.9297-4.66797L25.8398-7.58789Q26.1914-7.93945 26.1816-8.35449Q26.1719-8.76953 25.8105-9.13086L25.0391-9.89258Q24.6875-10.2539 24.3799-10.3857Q24.0723-10.5176 23.7109-10.4883L23.1348-10.4395L22.4902-11.0742L22.7344-12.1973Q22.832-12.6172 22.6953-12.9834Q22.5586-13.3496 22.1191-13.7891L19.9219-15.9766Q18.6719-17.2168 17.2607-17.8369Q15.8496-18.457 14.4189-18.4814Q12.9883-18.5059 11.665-17.959Q10.3418-17.4121 9.25781-16.3281ZM10.752-15.957Q11.6602-16.6211 12.7002-16.9043Q13.7402-17.1875 14.8047-17.085Q15.8691-16.9824 16.8701-16.5137Q17.8711-16.0449 18.7012-15.2051L21.1328-12.793Q21.3086-12.6172 21.3525-12.4512Q21.3965-12.2852 21.3379-12.0312L21.0156-10.5469L22.5195-9.0625L23.5059-9.12109Q23.6914-9.13086 23.7891-9.09668Q23.8867-9.0625 24.0332-8.91602L24.6094-8.33984L22.168-5.89844L21.5918-6.47461Q21.4453-6.62109 21.4062-6.71875Q21.3672-6.81641 21.377-7.01172L21.4453-7.98828L19.9512-9.47266L18.4277-9.21875Q18.1836-9.16992 18.042-9.2041Q17.9004-9.23828 17.7148-9.41406L15.7129-11.416Q15.5176-11.5918 15.4932-11.7529Q15.4688-11.9141 15.5859-12.1875L16.4648-14.2773Q15.293-15.3711 13.8281-15.791Q12.3633-16.2109 10.8398-15.7617Q10.7227-15.7324 10.6885-15.8057Q10.6543-15.8789 10.752-15.957Z"/>
  </g>
  <text style="stroke:none;fill:black;font-family:sans-serif;font-size:13;font-weight:bold;" transform="matrix(1 0 0 1 1289 1953)">Exporting</text>
  <text style="stroke:none;fill:black;font-family:sans-serif;font-size:13;" transform="matrix(1 0 0 1 1289 1971)">Symbols should be outlined when exporting to ensure the</text>
  <text style="stroke:none;fill:black;font-family:sans-serif;font-size:13;" transform="matrix(1 0 0 1 1289 1989)">design is preserved when submitting to Xcode.</text>
  <text id="template-version" style="stroke:none;fill:black;font-family:sans-serif;font-size:13;text-anchor:end;" transform="matrix(1 0 0 1 3036 1933)">Template v.3.0</text>
  <text style="stroke:none;fill:black;font-family:sans-serif;font-size:13;text-anchor:end;" transform="matrix(1 0 0 1 3036 1951)">Requires Xcode 13 or greater</text>
  <text id="descriptive-name" style="stroke:none;fill:black;font-family:sans-serif;font-size:13;text-anchor:end;" transform="matrix(1 0 0 1 3036 1969)">Generated from custom.flame</text>
  <text style="stroke:none;fill:black;font-family:sans-serif;font-size:13;text-anchor:end;" transform="matrix(1 0 0 1 3036 1987)">Typeset at 100 points</text>
  <text style="stroke:none;fill:black;font-family:sans-serif;font-size:13;" transform="matrix(1 0 0 1 263 726)">Small</text>
  <text style="stroke:none;fill:black;font-family:sans-serif;font-size:13;" transform="matrix(1 0 0 1 263 1156)">Medium</text>
  <text style="stroke:none;fill:black;font-family:sans-serif;font-size:13;" transform="matrix(1 0 0 1 263 1586)">Large</text>
 </g>
 <g id="Guides">
  <g id="H-reference" style="fill:#27AAE1;stroke:none;" transform="matrix(1 0 0 1 339 696)">
   <path d="M0.993347 0L3.6377 0L29.3282-67.1326L30.0301-67.1326L30.0301-70.459L28.1227-70.459ZM11.6882-24.4797L46.9818-24.4797L46.2311-26.7288L12.4382-26.7288ZM55.1193 0L57.7637 0L30.6381-70.459L29.4327-70.459L29.4327-67.1326Z"/>
  </g>
  <line id="Baseline-S" style="fill:none;stroke:#27AAE1;opacity:1;stroke-width:0.5;" x1="263" x2="3036" y1="696" y2="696"/>
  <line id="Capline-S" style="fill:none;stroke:#27AAE1;opacity:1;stroke-width:0.5;" x1="263" x2="3036" y1="625.541" y2="625.541"/>
  <g id="H-reference" style="fill:#27AAE1;stroke:none;" transform="matrix(1 0 0 1 339 1126)">
   <path d="M0.993347 0L3.6377 0L29.3282-67.1326L30.0301-67.1326L30.0301-70.459L28.1227-70.459ZM11.6882-24.4797L46.9818-24.4797L46.2311-26.7288L12.4382-26.7288ZM55.1193 0L57.7637 0L30.6381-70.459L29.4327-70.459L29.4327-67.1326Z"/>
  </g>
  <line id="Baseline-M" style="fill:none;stroke:#27AAE1;opacity:1;stroke-width:0.5;" x1="263" x2="3036" y1="1126" y2="1126"/>
  <line id="Capline-M" style="fill:none;stroke:#27AAE1;opacity:1;stroke-width:0.5;" x1="263" x2="3036" y1="1055.54" y2="1055.54"/>
  <g id="H-reference" style="fill:#27AAE1;stroke:none;" transform="matrix(1 0 0 1 339 1556)">
   <path d="M0.993347 0L3.6377 0L29.3282-67.1326L30.0301-67.1326L30.0301-70.459L28.1227-70.459ZM11.6882-24.4797L46.9818-24.4797L46.2311-26.7288L12.4382-26.7288ZM55.1193 0L57.7637 0L30.6381-70.459L29.4327-70.459L29.4327-67.1326Z"/>
  </g>
  <line id="Baseline-L" style="fill:none;stroke:#27AAE1;opacity:1;stroke-width:0.5;" x1="263" x2="3036" y1="1556" y2="1556"/>
  <line id="Capline-L" style="fill:none;stroke:#27AAE1;opacity:1;stroke-width:0.5;" x1="263" x2="3036" y1="1485.54" y2="1485.54"/>
  <line id="left-margin-Regular-M" style="fill:none;stroke:#00AEEF;stroke-width:0.5;opacity:1.0;" x1="1400.46" x2="1400.46" y1="1030.78" y2="1150.12"/>
  <line id="right-margin-Regular-M" style="fill:none;stroke:#00AEEF;stroke-width:0.5;opacity:1.0;" x1="1499.23" x2="1499.23" y1="1030.78" y2="1150.12"/>
 </g>
 <g id="Symbols">
  <g id="Black-L" transform="matrix(1 0 0 1 2865.11 1556)">
   <path d="M65.1317 31.116Q83.2261 31.116 96.7436 23.568Q110.261 16.0199 117.786 2.445Q125.311-11.1298 125.311-29.2379Q125.311-46.9163 119.835-60.6107Q114.36-74.3053 105.162-84.2379Q95.964-94.1706 84.7467-100.542Q73.5294-106.914 61.8259-109.994Q50.1224-113.074 39.7952-113.074Q33.5409-113.074 29.6482-110.464Q25.7555-107.853 25.7555-102.983Q25.7555-99.2045 28.6754-95.7085Q35.222-87.7064 39.3625-80.6637Q43.503-73.6211 43.5447-65.3004Q43.5447-64.558 43.4568-63.8805Q43.369-63.2027 42.9644-62.3243L45.0952-63.0624Q42.6159-68.8501 39.9736-72.033Q37.3314-75.216 34.6734-76.493Q32.0155-77.77 29.3711-77.77Q26.1491-77.77 24.183-75.8008Q22.217-73.8315 22.217-70.2175Q22.217-68.0171 22.4582-66.0016Q22.6995-63.9864 22.6995-60.8428Q22.6995-55.0528 20.9633-50.6997Q19.2271-46.3467 16.9792-41.8431Q14.7312-37.3395 12.995-31.2114Q11.2588-25.0831 11.2588-15.7274Q11.2588-1.72069 17.9819 8.8378Q24.7049 19.3964 36.8593 25.2562Q49.0138 31.116 65.1317 31.116ZM65.924 14.3924Q54.563 14.3924 46.0367 10.6415Q37.5104 6.8905 32.7761 0.08874Q28.0419-6.71306 28.0419-15.7274Q28.0419-22.1688 29.5064-26.7711Q30.9708-31.3736 32.8587-35.7918Q34.7466-40.21 36.1818-45.894Q37.617-51.5781 37.5585-60.141Q37.5585-61.3082 37.3937-62.3773Q37.2288-63.4464 37.12-64.437L33.3821-64.0022Q36.2605-59.7463 38.128-54.3063Q39.9955-48.8663 40.8841-43.6111Q41.7171-38.8878 45.8458-38.8878Q49.8803-38.8878 52.6819-43.0679Q55.4835-47.2479 56.9891-53.5045Q58.4946-59.7609 58.4946-66.0609Q58.4946-76.0538 54.6598-85.7252Q50.8249-95.3966 44.1664-102.149L39.6112-96.9398Q55.3418-96.0407 67.9818-90.7618Q80.6218-85.4829 89.5813-76.533Q98.5407-67.5831 103.334-55.6905Q108.127-43.7979 108.127-29.6339Q108.127-16.3818 102.841-6.50389Q97.5544 3.37408 88.0817 8.88323Q78.6091 14.3924 65.924 14.3924ZM66.9582 6.00475Q73.5533 6.00475 78.2591 3.21835Q82.965 0.431959 85.511-4.44112Q88.0571-9.3142 88.0571-15.5387Q88.0571-22.1708 85.7069-28.1998Q83.357-34.2291 78.8846-38.9446Q74.4123-43.66 68.0894-46.3113Q67.0447-46.7057 66.22-46.1834Q65.3953-45.6611 65.6301-44.3633Q66.6531-38.4959 66.4069-33.1671Q66.1607-27.838 64.0009-23.433Q63.1075-26.5326 61.882-28.8247Q60.6564-31.117 58.8755-32.8878Q57.9125-33.7716 57.0476-33.3407Q56.1826-32.9098 56.1231-31.9612Q55.6782-27.5695 53.7628-24.6869Q51.8475-21.8044 50.0832-18.6678Q48.3188-15.531 48.3188-10.4965Q48.3188-3.07079 53.436 1.46697Q58.5531 6.00475 66.9582 6.00475Z"/>
  </g>
  <g id="Heavy-L" transform="matrix(1 0 0 1 2569.54 1556)">
   <path d="M64.0487 30.1266Q81.7785 30.1266 95.0316 22.7085Q108.285 15.2903 115.661 1.93655Q123.038-11.4171 123.038-29.2379Q123.038-46.716 117.645-60.2464Q112.251-73.7769 103.179-83.591Q94.1066-93.4051 83.0289-99.7038Q71.951-106.002 60.3738-109.044Q48.7966-112.085 38.5344-112.085Q32.7396-112.085 29.1786-109.741Q25.6177-107.397 25.6177-102.983Q25.6177-99.5734 28.3186-96.3422Q34.6485-88.6488 38.9197-81.3753Q43.191-74.102 43.2513-65.5757Q43.2513-64.4682 43.0755-63.4482Q42.8997-62.428 42.2161-61.1542L44.5612-61.851Q42.335-67.3597 39.6546-70.6198Q36.9743-73.8798 34.1394-75.3303Q31.3045-76.7806 28.5196-76.7806Q25.6159-76.7806 23.8475-74.9838Q22.0792-73.1869 22.0792-69.9551Q22.0792-67.9846 22.3204-65.8636Q22.5617-63.7427 22.5617-60.8428Q22.5617-55.1343 20.8462-50.7293Q19.1307-46.3244 16.9102-41.7329Q14.6899-37.1415 12.9743-31.0073Q11.2588-24.873 11.2588-15.7274Q11.2588-2.00802 17.8426 8.32711Q24.4264 18.6623 36.3318 24.3945Q48.2373 30.1266 64.0487 30.1266ZM64.7968 15.3862Q53.1805 15.3862 44.4652 11.5054Q35.7501 7.62456 30.8996 0.604137Q26.0494-6.41634 26.0494-15.7274Q26.0494-22.4941 27.5692-27.32Q29.0891-32.146 31.0439-36.6202Q32.9988-41.0943 34.4963-46.5755Q35.9938-52.0566 35.9491-60.0733Q35.9491-61.4064 35.7424-62.6167Q35.5356-63.827 35.3623-64.9389L32.1836-64.0461Q35.2703-60.2999 37.372-55.1538Q39.4737-50.0077 40.4985-44.4879Q41.2488-40.4374 44.7501-40.4374Q48.4028-40.4374 50.9943-44.4221Q53.5859-48.4068 55.0018-54.2864Q56.4178-60.1659 56.4178-65.9327Q56.4178-76.0693 52.4606-85.7372Q48.5033-95.4051 41.5949-102.321L37.7389-97.8949Q53.7435-97.1316 66.6716-91.8171Q79.5997-86.5027 88.7951-77.3995Q97.9903-68.2962 102.921-56.1624Q107.851-44.0285 107.851-29.6118Q107.851-16.0857 102.456-5.98189Q97.0603 4.12192 87.3872 9.75406Q77.7141 15.3862 64.7968 15.3862ZM65.7626 6.76151Q72.5621 6.76151 77.3131 3.86376Q82.0642 0.966021 84.5766-4.00295Q87.089-8.9719 87.089-15.1798Q87.089-21.6943 84.7405-27.7554Q82.3922-33.8165 77.8931-38.6533Q73.3941-43.49 66.94-46.2795Q66.0471-46.6188 65.3624-46.1724Q64.6777-45.7259 64.8618-44.6298Q65.8424-38.3298 65.4026-32.7134Q64.9629-27.0969 62.7243-22.934Q61.7714-25.9382 60.4816-28.2446Q59.1918-30.5512 57.3139-32.3551Q56.5069-33.0872 55.7821-32.739Q55.0572-32.3909 55.0069-31.5569Q54.5389-27.3615 52.5701-24.4782Q50.6013-21.5949 48.781-18.356Q46.9608-15.117 46.9608-9.98434Q46.9608-2.44572 52.1234 2.15788Q57.286 6.76151 65.7626 6.76151Z"/>
  </g>
  <g id="Bold-L" transform="matrix(1 0 0 1 2274.21 1556)">
   <path d="M62.7488 28.9048Q80.0253 28.9048 92.9518 21.648Q105.878 14.3912 113.071 1.31023Q120.263-11.7707 120.263-29.2379Q120.263-46.4626 114.97-59.7894Q109.676-73.1162 100.757-82.7843Q91.8388-92.4523 80.9265-98.6627Q70.0141-104.873 58.5795-107.868Q47.1448-110.863 36.9446-110.863Q31.7334-110.863 28.5984-108.846Q25.4635-106.829 25.4635-102.983Q25.4635-100.034 27.8953-97.1261Q33.9936-89.7646 38.415-82.2142Q42.8365-74.664 42.9124-65.9586Q42.9124-64.4052 42.6142-62.97Q42.3159-61.5346 41.3013-59.8212L43.8407-60.4718Q41.8923-65.6497 39.1546-68.9759Q36.4169-72.3022 33.3854-73.9306Q30.3538-75.5588 27.4519-75.5588Q24.9551-75.5588 23.44-73.9882Q21.925-72.4176 21.925-69.6696Q21.925-67.9535 22.1662-65.7131Q22.4075-63.4729 22.4075-60.8428Q22.4075-55.1746 20.7151-50.6969Q19.0227-46.2192 16.8331-41.5387Q14.6436-36.8583 12.9512-30.7388Q11.2588-24.6192 11.2588-15.7274Q11.2588-2.36154 17.6734 7.69694Q24.0881 17.7555 35.6935 23.3301Q47.2991 28.9048 62.7488 28.9048ZM63.4208 16.6157Q51.4893 16.6157 42.5361 12.5736Q33.5828 8.53139 28.5865 1.23824Q23.5902-6.05495 23.5902-15.7274Q23.5902-22.8715 25.1681-27.9367Q26.7459-33.002 28.7703-37.5268Q30.7948-42.0514 32.3579-47.3164Q33.9211-52.5813 33.8918-60.0485Q33.8918-61.559 33.6462-62.9461Q33.4006-64.3331 33.1579-65.6209L30.626-64.2639Q33.9217-61.1626 36.3564-56.3815Q38.791-51.6003 39.9922-45.8248Q40.6499-42.567 43.4199-42.567Q46.5814-42.567 48.9192-46.265Q51.257-49.9629 52.5727-55.3552Q53.8884-60.7474 53.8884-65.9204Q53.8884-76.1295 49.8037-85.7078Q45.7189-95.2862 38.4881-102.544L35.4705-99.041Q51.7387-98.4615 65.0093-93.1235Q78.2798-87.7853 87.7857-78.5013Q97.2916-69.2172 102.417-56.7799Q107.543-44.3427 107.543-29.5737Q107.543-15.7169 102.009-5.3364Q96.4755 5.04416 86.5527 10.8299Q76.63 16.6157 63.4208 16.6157ZM64.302 7.49027Q71.2954 7.49027 76.0742 4.48402Q80.8531 1.47778 83.3158-3.57302Q85.7785-8.6238 85.7785-14.7864Q85.7785-21.14 83.4412-27.2059Q81.1041-33.2719 76.5967-38.2176Q72.0892-43.1632 65.5258-46.0995Q64.8025-46.3771 64.2759-46.0155Q63.7493-45.6538 63.8792-44.7888Q64.8284-38.0181 64.1802-32.1189Q63.532-26.2197 61.2159-22.349Q60.1938-25.2304 58.8308-27.5448Q57.4678-29.8594 55.4894-31.6869Q54.8596-32.2494 54.2927-31.9937Q53.7259-31.7381 53.6834-31.035Q53.1922-27.078 51.173-24.2058Q49.1538-21.3337 47.283-17.9978Q45.4121-14.6619 45.4121-9.4435Q45.4121-1.81875 50.5988 2.83574Q55.7855 7.49027 64.302 7.49027Z"/>
  </g>
  <g id="Semibold-L" transform="matrix(1 0 0 1 1978.46 1556)">
   <path d="M61.8527 28.0625Q78.8167 28.0625 91.518 20.9169Q104.219 13.7713 111.285 0.878452Q118.35-12.0144 118.35-29.2379Q118.35-46.2879 113.125-59.4743Q107.901-72.6608 99.0881-82.2281Q90.2754-91.7955 79.4772-97.945Q68.6788-104.094 57.3425-107.058Q46.0061-110.021 35.8487-110.021Q31.0398-110.021 28.1985-108.229Q25.3572-106.437 25.3572-102.983Q25.3572-100.352 27.6035-97.6665Q33.5421-90.5338 38.0671-82.7926Q42.5922-75.0515 42.6788-66.2226Q42.6788-64.3618 42.2961-62.6403Q41.9134-60.9187 40.6707-58.9023L43.344-59.521Q41.587-64.4709 38.8099-67.8427Q36.0326-71.2146 32.8656-72.9656Q29.6985-74.7165 26.7159-74.7165Q24.4996-74.7165 23.1591-73.3019Q21.8187-71.8873 21.8187-69.4728Q21.8187-67.9321 22.0599-65.6094Q22.3012-63.2868 22.3012-60.8428Q22.3012-55.2024 20.6248-50.6745Q18.9483-46.1467 16.78-41.4049Q14.6117-36.6631 12.9353-30.5537Q11.2588-24.4442 11.2588-15.7274Q11.2588-2.60525 17.5568 7.2625Q23.8549 17.1303 35.2535 22.5964Q46.6523 28.0625 61.8527 28.0625ZM62.4722 17.4633Q50.3235 17.4633 41.2061 13.3099Q32.0887 9.15655 26.9917 1.67539Q21.8949-5.80582 21.8949-15.7274Q21.8949-23.1316 23.5127-28.3618Q25.1305-33.5921 27.2029-38.1518Q29.2753-42.7113 30.8837-47.8271Q32.4921-52.943 32.4735-60.0313Q32.4735-61.6643 32.2012-63.1732Q31.9288-64.682 31.6382-66.091L29.5522-64.414Q32.992-61.7574 35.6562-57.2278Q38.3203-52.6983 39.6431-46.7465Q40.2371-44.0352 42.5029-44.0352Q45.3258-44.0352 47.4886-47.5354Q49.6514-51.0356 50.8981-56.092Q52.1447-61.1483 52.1447-65.912Q52.1447-76.1709 47.9721-85.6876Q43.7994-95.2042 36.3463-102.698L33.9067-99.8311Q50.3567-99.3784 63.8633-94.024Q77.3699-88.6696 87.0899-79.2609Q96.8099-69.852 102.07-57.2056Q107.33-44.5593 107.33-29.5474Q107.33-15.4628 101.701-4.8914Q96.0724 5.67994 85.9774 11.5716Q75.8825 17.4633 62.4722 17.4633ZM63.2951 7.99268Q70.4222 7.99268 75.2202 4.91162Q80.0182 1.83058 82.4466-3.27664Q84.875-8.38382 84.875-14.5152Q84.875-20.7578 82.5455-26.8272Q80.2161-32.8966 75.7029-37.9173Q71.1896-42.938 64.5509-45.9754Q63.9445-46.2105 63.5268-45.9073Q63.1092-45.6041 63.2018-44.8984Q64.1293-37.8032 63.3374-31.7091Q62.5456-25.615 60.1761-21.9457Q59.1062-24.7425 57.6927-27.0624Q56.2792-29.3825 54.2316-31.2262Q53.7239-31.6718 53.266-31.4799Q52.8081-31.288 52.7709-30.6752Q52.2638-26.8825 50.2098-24.0181Q48.1559-21.1536 46.2502-17.7509Q44.3445-14.3482 44.3445-9.07065Q44.3445-1.38652 49.5478 3.30305Q54.751 7.99268 63.2951 7.99268Z"/>
  </g>
  <g id="Medium-L" transform="matrix(1 0 0 1 1682.47 1556)">
   <path d="M61.1732 27.4238Q77.9002 27.4238 90.4308 20.3625Q102.961 13.3013 109.93 0.551059Q116.899-12.1991 116.899-29.2379Q116.899-46.1554 111.727-59.2354Q106.555-72.3154 97.8223-81.8065Q89.0899-91.2975 78.3782-97.4008Q67.6664-103.504 56.4045-106.443Q45.1427-109.382 35.0177-109.382Q30.5139-109.382 27.8952-107.761Q25.2766-106.14 25.2766-102.983Q25.2766-100.593 27.3823-98.0762Q33.1998-91.117 37.8033-83.2311Q42.4069-75.3452 42.5017-66.4228Q42.5017-64.3288 42.055-62.3904Q41.6082-60.4518 40.1925-58.2055L42.9674-58.8Q41.3556-63.577 38.5485-66.9834Q35.7413-70.39 32.4714-72.234Q29.2016-74.0778 26.1578-74.0778Q24.1542-74.0778 22.9461-72.7815Q21.7381-71.4852 21.7381-69.3236Q21.7381-67.9159 21.9793-65.5307Q22.2206-63.1457 22.2206-60.8428Q22.2206-55.2235 20.5563-50.6576Q18.8919-46.0917 16.7397-41.3034Q14.5875-36.5151 12.9232-30.4134Q11.2588-24.3115 11.2588-15.7274Q11.2588-2.79005 17.4684 6.93309Q23.678 16.6563 34.9199 22.04Q46.1619 27.4238 61.1732 27.4238ZM61.7529 18.106Q49.4395 18.106 40.1977 13.8683Q30.9558 9.63057 25.7826 2.00685Q20.6094-5.61691 20.6094-15.7274Q20.6094-23.3288 22.2576-28.6842Q23.9057-34.0396 26.0144-38.6256Q28.1232-43.2116 29.7659-48.2144Q31.4086-53.2172 31.3981-60.0183Q31.3981-61.7441 31.1054-63.3454Q30.8127-64.9466 30.4859-66.4475L28.7381-64.5279Q32.287-62.2084 35.1253-57.8696Q37.9635-53.5308 39.3785-47.4453Q39.9241-45.1484 41.8076-45.1484Q44.3737-45.1484 46.4038-48.4987Q48.434-51.849 49.6283-56.6506Q50.8225-61.4523 50.8225-65.9055Q50.8225-76.2024 46.5833-85.6722Q42.3439-95.1421 34.7223-102.814L32.721-100.43Q49.3088-100.074 62.9943-94.7069Q76.6799-89.3401 86.5623-79.8368Q96.4447-70.3334 101.807-57.5284Q107.169-44.7235 107.169-29.5275Q107.169-15.27 101.468-4.55398Q95.7667 6.16202 85.5412 12.134Q75.3158 18.106 61.7529 18.106ZM62.5316 8.37362Q69.76 8.37362 74.5726 5.23585Q79.3852 2.09809 81.7876-3.05191Q84.19-8.20185 84.19-14.3095Q84.19-20.4681 81.8664-26.54Q79.5428-32.6119 75.0252-37.6896Q70.5075-42.7672 63.8117-45.8813Q63.294-46.0842 62.9589-45.8253Q62.6238-45.5664 62.6881-44.9815Q63.5993-37.6403 62.6984-31.3984Q61.7976-25.1564 59.3876-21.6399Q58.2815-24.3725 56.8298-26.6966Q55.378-29.0209 53.2779-30.8769Q52.8628-31.2338 52.4875-31.0902Q52.1123-30.9468 52.0791-30.4024Q51.5598-26.7343 49.4795-23.8757Q47.3992-21.0171 45.4671-17.5637Q43.535-14.1103 43.535-8.78794Q43.535-1.05879 48.7508 3.65739Q53.9667 8.37362 62.5316 8.37362Z"/>
  </g>
  <g id="Regular-L" transform="matrix(1 0 0 1 1386.71 1556)">
   <path d="M60.287 26.5908Q76.7049 26.5908 89.0127 19.6395Q101.321 12.6882 108.164 0.124024Q115.007-12.4402 115.007-29.2379Q115.007-45.9826 109.903-58.9238Q104.799-71.8649 96.1713-81.2565Q87.5437-90.6479 76.9448-96.6909Q66.3457-102.734 55.1811-105.641Q44.0164-108.549 33.9338-108.549Q29.8279-108.549 27.4996-107.151Q25.1714-105.752 25.1714-102.983Q25.1714-100.907 27.0937-98.6107Q32.7532-91.8778 37.4592-83.803Q42.1652-75.7284 42.2707-66.6839Q42.2707-64.2859 41.7404-62.0643Q41.2101-59.8426 39.5688-57.2967L42.4762-57.8596Q41.0537-62.4111 38.2075-65.8627Q35.3612-69.3143 31.9573-71.2796Q28.5534-73.2448 25.4299-73.2448Q23.7036-73.2448 22.6683-72.1027Q21.633-70.9607 21.633-69.1289Q21.633-67.8947 21.8741-65.4282Q22.1154-62.9618 22.1154-60.8428Q22.1154-55.2509 20.4669-50.6354Q18.8183-46.02 16.6871-41.171Q14.556-36.322 12.9074-30.2303Q11.2588-24.1385 11.2588-15.7274Q11.2588-3.03109 17.3531 6.50342Q23.4474 16.038 34.4847 21.3144Q45.5222 26.5908 60.287 26.5908ZM60.8147 18.9443Q48.2865 18.9443 38.8824 14.5966Q29.4782 10.2489 24.2054 2.4392Q18.9327-5.37051 18.9327-15.7274Q18.9327-23.5861 20.6204-29.1046Q22.3081-34.6232 24.4642-39.2438Q26.6205-43.8642 28.308-48.7196Q29.9954-53.5749 29.9954-60.0014Q29.9954-61.8482 29.6762-63.5699Q29.3571-65.2917 28.9829-66.9124L27.6761-64.6763Q31.3675-62.7966 34.4328-58.7067Q37.498-54.6167 39.0332-48.3568Q39.5158-46.6004 40.9007-46.6004Q43.1318-46.6004 44.989-49.7552Q46.8462-52.91 47.972-57.3793Q49.0979-61.8488 49.0979-65.8972Q49.0979-76.2434 44.7718-85.6522Q40.4455-95.061 32.604-102.966L31.1743-101.212Q47.9419-100.98 61.8609-95.5976Q75.78-90.2146 85.8742-80.588Q95.9683-70.9613 101.463-57.9495Q106.958-44.9377 106.958-29.5015Q106.958-15.0186 101.163-4.11387Q95.368 6.79082 84.9722 12.8676Q74.5766 18.9443 60.8147 18.9443ZM61.5357 8.87051Q68.8964 8.87051 73.7279 5.65875Q78.5595 2.44701 80.928-2.75878Q83.2965-7.96451 83.2965-14.0413Q83.2965-20.0901 80.9805-26.1654Q78.6646-32.2407 74.1412-37.3926Q69.6178-42.5444 62.8475-45.7585Q62.4455-45.9194 62.2181-45.7183Q61.9908-45.5172 62.0182-45.0899Q62.9079-37.4278 61.8649-30.993Q60.822-24.5583 58.3592-21.2411Q57.2059-23.8899 55.7042-26.2195Q54.2025-28.5493 52.0339-30.4213Q51.7396-30.6625 51.4721-30.5821Q51.2046-30.5017 51.1767-30.0465Q50.6416-26.541 48.5269-23.69Q46.4122-20.839 44.4457-17.3196Q42.4791-13.8 42.4791-8.41919Q42.4791-0.631308 47.7113 4.11956Q52.9436 8.87051 61.5357 8.87051Z"/>
  </g>
  <g id="Light-L" transform="matrix(1 0 0 1 1090.83 1556)">
   <path d="M59.6572 25.7702Q75.7506 25.7702 87.839 18.9334Q99.9274 12.0966 106.637-0.286263Q113.347-12.6691 113.347-29.2379Q113.347-45.7725 108.3-58.5706Q103.253-71.3685 94.7208-80.6647Q86.1886-89.9607 75.6566-95.9561Q65.1244-101.951 53.9692-104.84Q42.814-107.729 32.655-107.729Q29.0455-107.729 27.1084-106.531Q25.1714-105.333 25.1714-102.983Q25.1714-101.251 26.9218-99.1452Q32.6577-92.3167 37.3924-84.1085Q42.1271-75.9003 42.1943-67.2184Q42.1943-64.553 41.4924-62.1024Q40.7903-59.6518 39.0153-57.1248L41.5983-57.6877Q40.1376-62.1058 37.1864-65.4143Q34.2351-68.7227 30.8408-70.5735Q27.4465-72.4242 24.6093-72.4242Q23.2457-72.4242 22.4393-71.5207Q21.633-70.6173 21.633-69.1863Q21.633-67.9329 21.8741-65.4569Q22.1154-62.981 22.1154-60.8428Q22.1154-54.8883 20.4669-50.1678Q18.8183-45.4472 16.6871-40.6652Q14.556-35.8831 12.9074-29.944Q11.2588-24.0048 11.2588-15.7274Q11.2588-3.26006 17.2576 6.0835Q23.2566 15.4271 34.1411 20.5987Q45.0258 25.7702 59.6572 25.7702ZM59.9941 19.7841Q47.2559 19.7841 37.661 15.3219Q28.066 10.8597 22.6786 2.84961Q17.2913-5.16045 17.2913-15.7274Q17.2913-23.6817 18.9504-29.1237Q20.6095-34.5658 22.7276-39.1006Q24.8456-43.6353 26.5045-48.5669Q28.1632-53.4986 28.1632-60.364Q28.1632-62.1535 27.9012-64.0089Q27.6393-65.8644 27.2843-67.7712L26.1302-65.8788Q29.6498-64.5333 33.2208-60.701Q36.7919-56.8687 38.4987-50.8951Q38.9813-49.4251 40.1565-49.4251Q41.9294-49.4251 43.653-52.0931Q45.3766-54.7611 46.5025-58.763Q47.6284-62.7649 47.6284-66.8322Q47.6284-76.5487 43.369-85.3468Q39.1096-94.1449 30.9625-103.176L29.9337-101.765Q46.396-101.763 60.4582-96.4946Q74.5204-91.2263 84.9486-81.5328Q95.3767-71.8393 101.168-58.5889Q106.958-45.3385 106.958-29.4059Q106.958-14.7515 101.049-3.67492Q95.139 7.40166 84.5619 13.5929Q73.985 19.7841 59.9941 19.7841ZM60.6577 8.03071Q67.7702 8.03071 72.4396 4.93343Q77.1091 1.83616 79.3917-3.18832Q81.6743-8.21269 81.6743-14.0987Q81.6743-19.9375 79.425-25.7933Q77.1758-31.6491 72.8052-36.6102Q68.4346-41.5712 61.9314-44.7279Q61.5293-44.8888 61.3116-44.6877Q61.0939-44.4866 61.1402-44.0975Q62.1444-36.5309 61.1587-30.3729Q60.173-24.2149 57.7865-21.0503Q56.6143-23.5847 55.103-25.857Q53.5917-28.1295 51.4804-29.9059Q51.2051-30.1472 50.9472-30.0668Q50.6893-29.9864 50.6421-29.5502Q50.1263-26.1784 48.0785-23.4133Q46.0307-20.6482 44.1499-17.2529Q42.269-13.8574 42.269-8.64812Q42.269-1.14663 47.3105 3.44201Q52.352 8.03071 60.6577 8.03071Z"/>
  </g>
  <g id="Thin-L" transform="matrix(1 0 0 1 795.218 1556)">
   <path d="M58.8243 24.685Q74.4885 24.685 86.2866 17.9995Q98.0847 11.3141 104.618-0.828901Q111.151-12.9719 111.151-29.2379Q111.151-45.4947 106.179-58.1034Q101.208-70.712 92.8023-79.882Q84.3964-89.0519 73.9528-94.9843Q63.509-100.917 52.3664-103.78Q41.2237-106.643 30.9637-106.643Q28.0108-106.643 26.591-105.71Q25.1714-104.777 25.1714-102.983Q25.1714-101.705 26.6945-99.8522Q32.5313-92.8973 37.304-84.5124Q42.0766-76.1276 42.0934-67.9254Q42.0934-64.9062 41.1644-62.1528Q40.2352-59.3995 38.2834-56.8975L40.4371-57.4605Q38.926-61.702 35.8359-64.8212Q32.7457-67.9403 29.3642-69.6397Q25.9826-71.3389 23.524-71.3389Q22.6401-71.3389 22.1366-70.7509Q21.633-70.1631 21.633-69.2622Q21.633-67.9834 21.8741-65.4948Q22.1154-63.0065 22.1154-60.8428Q22.1154-54.4086 20.4669-49.5493Q18.8183-44.6898 16.6871-39.9962Q14.556-35.3025 12.9074-29.5652Q11.2588-23.8279 11.2588-15.7274Q11.2588-3.5629 17.1315 5.52812Q23.0042 14.6192 33.6867 19.6521Q44.3692 24.685 58.8243 24.685ZM58.9088 20.8948Q45.8928 20.8948 36.0456 16.2812Q26.1983 11.6676 20.6593 3.39242Q15.1203-4.88263 15.1203-15.7274Q15.1203-23.808 16.7417-29.1489Q18.3631-34.4899 20.4308-38.9112Q22.4983-43.3325 24.1192-48.365Q25.7399-53.3977 25.7399-60.8437Q25.7399-62.5573 25.5536-64.5894Q25.3675-66.6218 25.0379-68.9069L24.0856-67.4691Q27.378-66.8301 31.6179-63.3386Q35.858-59.8471 37.7918-54.2522Q38.2743-53.1609 39.1722-53.1609Q40.3391-53.1609 41.886-55.1852Q43.433-57.2094 44.5589-60.5929Q45.6848-63.9766 45.6848-68.0689Q45.6848-76.9524 41.5138-84.9428Q37.3429-92.9333 28.7916-103.453L28.2929-102.497Q44.3514-102.798 58.6031-97.681Q72.8546-92.5643 83.7245-82.7824Q94.5942-73.0005 100.776-59.4345Q106.958-45.8687 106.958-29.2796Q106.958-14.3982 100.897-3.09437Q94.8361 8.20956 84.0193 14.5522Q73.2026 20.8948 58.9088 20.8948ZM59.4965 6.92001Q66.2808 6.92001 70.7359 3.97412Q75.1909 1.02826 77.3598-3.75641Q79.5287-8.54093 79.5287-14.1746Q79.5287-19.7356 77.3678-25.3011Q75.2067-30.8666 71.0382-35.5754Q66.8697-40.2841 60.7198-43.3649Q60.3177-43.5258 60.1127-43.3247Q59.9078-43.1236 59.9791-42.7849Q61.1346-35.3447 60.2246-29.5527Q59.3146-23.7607 57.0291-20.7979Q55.8318-23.181 54.3078-25.3776Q52.7838-27.5744 50.7484-29.2244Q50.498-29.4657 50.2529-29.3853Q50.0077-29.3049 49.9351-28.8937Q49.4448-25.6988 47.4854-23.0473Q45.526-20.3959 43.7587-17.1646Q41.9912-13.9333 41.9912-8.9509Q41.9912-1.82817 46.7804 2.5459Q51.5696 6.92001 59.4965 6.92001Z"/>
  </g>
  <g id="Ultralight-L" transform="matrix(1 0 0 1 499.07 1556)">
   <path d="M58.3977 24.1291Q73.8421 24.1291 85.4915 17.5212Q97.1409 10.9134 103.583-1.10684Q110.026-13.127 110.026-29.2379Q110.026-45.3524 105.094-57.8642Q100.161-70.3757 91.8197-79.4812Q83.4784-88.5864 73.0801-94.4865Q62.6817-100.387 51.5454-103.237Q40.4091-106.087 30.0974-106.087Q27.4808-106.087 26.326-105.29Q25.1714-104.493 25.1714-102.983Q25.1714-101.937 26.578-100.214Q32.4665-93.1946 37.2587-84.7193Q42.0507-76.244 42.0417-68.2875Q42.0417-65.0872 40.9964-62.1787Q39.9508-59.2702 37.9085-56.7811L39.8424-57.344Q38.3054-61.4952 35.1441-64.5174Q31.9828-67.5395 28.6078-69.1614Q25.2328-70.783 22.9682-70.783Q22.3299-70.783 21.9815-70.3567Q21.633-69.9305 21.633-69.3011Q21.633-68.0092 21.8741-65.5143Q22.1154-63.0195 22.1154-60.8428Q22.1154-54.1629 20.4669-49.2325Q18.8183-44.3018 16.6871-39.6535Q14.556-35.0051 12.9074-29.3713Q11.2588-23.7373 11.2588-15.7274Q11.2588-3.71801 17.0668 5.24366Q22.8749 14.2054 33.454 19.1672Q44.0329 24.1291 58.3977 24.1291ZM58.353 21.4637Q45.1947 21.4637 35.2183 16.7726Q25.2417 12.0814 19.625 3.67044Q14.0083-4.74033 14.0083-15.7274Q14.0083-23.8727 15.6105-29.1619Q17.2125-34.451 19.2543-38.8142Q21.2959-43.1774 22.8974-48.2616Q24.4987-53.3461 24.4987-61.0894Q24.4987-62.7641 24.3512-64.8868Q24.2039-67.0097 23.8873-69.4887L23.0383-68.2837Q26.2144-68.0065 30.7969-64.6896Q35.3797-61.3727 37.4297-55.9717Q37.9122-55.0744 38.668-55.0744Q39.5245-55.0744 40.9809-56.7689Q42.4375-58.4635 43.5634-61.5302Q44.6893-64.5972 44.6893-68.7023Q44.6893-77.1592 40.5636-84.7359Q36.4379-92.3127 27.6797-103.596L27.4525-102.872Q43.3042-103.328 57.6529-98.2886Q72.0014-93.2497 83.0975-83.4225Q94.1934-73.5953 100.576-59.8676Q106.958-46.1402 106.958-29.2149Q106.958-14.2172 100.82-2.79702Q94.681 8.62335 83.7413 15.0435Q72.8018 21.4637 58.353 21.4637ZM58.9018 6.35111Q65.5179 6.35111 69.8632 3.48277Q74.2085 0.614464 76.3191-4.04739Q78.4298-8.70905 78.4298-14.2134Q78.4298-19.6322 76.314-25.049Q74.1981-30.4659 70.1331-35.0455Q66.0682-39.6249 60.0992-42.6667Q59.6971-42.8276 59.4987-42.6265Q59.3002-42.4254 59.3844-42.1127Q60.6174-34.7372 59.7462-29.1326Q58.875-23.5281 56.6411-20.6686Q55.4311-22.9742 53.9005-25.132Q52.37-27.29 50.3734-28.8753Q50.1359-29.1166 49.8973-29.0362Q49.6586-28.9559 49.573-28.5574Q49.0957-25.4531 47.1816-22.8599Q45.2675-20.2666 43.5583-17.1195Q41.8489-13.9721 41.8489-9.10598Q41.8489-2.17726 46.5088 2.08692Q51.1688 6.35111 58.9018 6.35111Z"/>
  </g>
  <g id="Black-M" transform="matrix(1 0 0 1 2879.63 1126)">
   <path d="M51.3057 16.9101Q65.5936 16.9101 76.2637 10.9662Q86.9337 5.02236 92.8727-5.66021Q98.8117-16.3427 98.8117-30.5877Q98.8117-44.4275 94.5067-55.1587Q90.2017-65.8901 82.9808-73.6743Q75.7601-81.4586 66.9587-86.4513Q58.1573-91.4441 48.9829-93.8613Q39.8085-96.2784 31.7413-96.2784Q26.5682-96.2784 23.3203-94.0534Q20.0723-91.8286 20.0723-87.7211Q20.0723-84.5232 22.4994-81.613Q27.7679-75.1352 30.8673-69.8592Q33.9667-64.5833 33.9776-58.3626Q33.9776-58.065 33.962-57.8034Q33.9463-57.5416 33.8545-57.2033L35.2771-57.8108Q33.1337-62.5164 31.105-64.8967Q29.0765-67.2769 27.1707-68.1018Q25.2649-68.9266 23.3757-68.9266Q20.6551-68.9266 18.993-67.2852Q17.3309-65.6436 17.3309-62.5696Q17.3309-60.6646 17.5178-59.1927Q17.7047-57.7208 17.7047-55.0733Q17.7047-50.4684 16.3419-47.1262Q14.979-43.7841 13.2137-40.3796Q11.4484-36.9751 10.0856-32.2532Q8.72266-27.5313 8.72266-20.1205Q8.72266-9.05303 14.0381-0.706814Q19.3534 7.63945 28.9632 12.2748Q38.5732 16.9101 51.3057 16.9101ZM51.9316 2.47424Q43.3208 2.47424 36.8516-0.335676Q30.3825-3.1456 26.7988-8.25443Q23.2153-13.3633 23.2153-20.1205Q23.2153-24.8442 24.2984-28.2074Q25.3814-31.5707 26.7813-34.9339Q28.1812-38.2971 29.2358-42.8855Q30.2903-47.4739 30.2331-54.6369Q30.2331-55.3908 30.1492-56.1158Q30.0652-56.8409 30.0389-57.5428L26.6832-57.6462Q28.7108-53.9834 30.0249-49.5511Q31.3389-45.1187 31.9336-41.3135Q32.65-37.1148 36.3596-37.1148Q39.7512-37.1148 42.0842-40.4552Q44.4172-43.7956 45.6606-48.9034Q46.9041-54.0112 46.9041-59.3529Q46.9041-66.8859 44.0472-74.299Q41.1904-81.7121 36.2052-86.9548L32.1294-82.2933Q44.0398-81.5112 53.6043-77.4674Q63.1688-73.4236 69.9527-66.6125Q76.7365-59.8013 80.3718-50.7627Q84.0072-41.724 84.0072-30.9005Q84.0072-20.8458 79.9901-13.3638Q75.9731-5.88175 68.7819-1.70378Q61.5908 2.47424 51.9316 2.47424ZM52.7839-4.04787Q57.6841-4.04787 61.2691-6.0954Q64.8541-8.14293 66.8439-11.8113Q68.8337-15.4797 68.8337-20.2905Q68.8337-25.5012 67.0206-30.115Q65.2076-34.729 61.7863-38.2522Q58.365-41.7754 53.6153-43.7028Q52.6757-44.0557 51.9176-43.5859Q51.1597-43.1162 51.3878-41.9424Q52.2323-37.7816 52.2156-33.9376Q52.1989-30.0935 50.6037-26.4934Q49.9602-28.9613 49.0646-30.717Q48.1691-32.4728 46.8804-33.8035Q46.0029-34.6185 45.2137-34.2136Q44.4245-33.8087 44.3677-32.9778Q44.0455-29.4247 42.6166-27.2038Q41.1877-24.9829 39.8805-22.6575Q38.5733-20.3319 38.5733-16.5391Q38.5733-10.9219 42.473-7.48491Q46.3725-4.04787 52.7839-4.04787Z"/>
  </g>
  <g id="Heavy-M" transform="matrix(1 0 0 1 2583.95 1126)">
   <path d="M50.3051 16.0187Q64.2665 16.0187 74.6983 10.1912Q85.1301 4.36369 90.9366-6.1194Q96.7432-16.6024 96.7432-30.5877Q96.7432-44.2511 92.5133-54.8352Q88.2833-65.4194 81.1763-73.0965Q74.0693-80.7736 65.3982-85.6993Q56.727-90.6251 47.6752-93.006Q38.6233-95.387 30.6268-95.387Q25.8571-95.387 22.8973-93.4044Q19.9376-91.422 19.9376-87.7211Q19.9376-84.8522 22.1664-82.1832Q27.2161-76.016 30.4406-70.5267Q33.6651-65.0375 33.6979-58.5824Q33.6979-57.9526 33.6121-57.3773Q33.5262-56.8019 33.174-56.0754L34.8361-56.6424Q32.9436-61.0876 30.8874-63.5565Q28.8313-66.0254 26.7516-67.0303Q24.6719-68.0351 22.619-68.0351Q20.176-68.0351 18.6861-66.5402Q17.1961-65.0452 17.1961-62.3078Q17.1961-60.6293 17.383-59.055Q17.57-57.4808 17.57-55.0733Q17.57-50.5815 16.2273-47.1983Q14.8847-43.8152 13.1463-40.3185Q11.408-36.822 10.0653-32.0801Q8.72266-27.3382 8.72266-20.1205Q8.72266-9.31278 13.9107-1.16731Q19.0987 6.9782 28.4793 11.4984Q37.8599 16.0187 50.3051 16.0187ZM50.9054 3.36829Q42.0644 3.36829 35.4281 0.441969Q28.7919-2.48435 25.1053-7.78846Q21.4189-13.0926 21.4189-20.1205Q21.4189-25.1535 22.5588-28.7422Q23.6986-32.3311 25.1675-35.7569Q26.6364-39.1828 27.7545-43.5658Q28.8725-47.9488 28.8288-54.5373Q28.8288-55.4586 28.6987-56.3094Q28.5684-57.1601 28.4773-57.9543L25.6541-57.5782Q27.9013-54.3643 29.3977-50.1955Q30.894-46.0268 31.606-41.9365Q32.2415-38.369 35.3571-38.369Q38.4178-38.369 40.5578-41.5634Q42.6977-44.7577 43.8535-49.5402Q45.0094-54.3226 45.0094-59.1413Q45.0094-66.8729 42.0268-74.3389Q39.0441-81.805 33.8428-87.1042L30.4136-83.1759Q42.6199-82.5053 52.4529-78.4163Q62.2859-74.3272 69.2695-67.3724Q76.253-60.4175 79.9953-51.165Q83.7377-41.9125 83.7377-30.8877Q83.7377-20.581 79.6244-12.894Q75.5112-5.20704 68.1408-0.919396Q60.7705 3.36829 50.9054 3.36829ZM51.6961-3.23062Q56.819-3.23062 60.4632-5.39756Q64.1073-7.5645 66.0722-11.3434Q68.037-15.1222 68.037-19.9344Q68.037-25.0496 66.2193-29.7148Q64.4018-34.3802 60.9403-38.0396Q57.4789-41.6989 52.5763-43.7668Q51.7849-44.0659 51.1629-43.6702Q50.5409-43.2745 50.7177-42.2945Q51.5102-37.7019 51.299-33.5513Q51.0879-29.4007 49.4086-26.0232Q48.7086-28.4084 47.7511-30.1834Q46.7937-31.9585 45.4049-33.3302Q44.6781-33.997 44.025-33.6729Q43.3718-33.3489 43.3259-32.6283Q42.9794-29.2548 41.492-27.0252Q40.0047-24.7956 38.6349-22.3588Q37.2651-19.9219 37.2651-16.0173Q37.2651-10.2633 41.2267-6.74699Q45.1883-3.23062 51.6961-3.23062Z"/>
  </g>
  <g id="Bold-M" transform="matrix(1 0 0 1 2288.4 1126)">
   <path d="M49.1857 15.0214Q62.7819 15.0214 72.9472 9.32415Q83.1125 3.62687 88.7709-6.63308Q94.4293-16.893 94.4293-30.5877Q94.4293-44.0538 90.2833-54.4733Q86.1373-64.8928 79.1577-72.4501Q72.178-80.0074 63.6526-84.8582Q55.1271-89.709 46.2123-92.0493Q37.2975-94.3897 29.38-94.3897Q25.0615-94.3897 22.4242-92.6784Q19.7869-90.9672 19.7869-87.7211Q19.7869-85.2202 21.794-82.821Q26.5988-77.0012 29.9633-71.2733Q33.3278-65.5456 33.385-58.8283Q33.385-57.8268 33.2207-56.9007Q33.0563-55.9744 32.4127-54.8136L34.3428-55.3354Q32.7309-59.4894 30.6439-62.0573Q28.557-64.6253 26.2828-65.8316Q24.0086-67.0379 21.7724-67.0379Q19.6401-67.0379 18.3428-65.7068Q17.0454-64.3757 17.0454-62.0149Q17.0454-60.5898 17.2323-58.901Q17.4192-57.2124 17.4192-55.0733Q17.4192-50.7081 16.0992-47.279Q14.7792-43.8499 13.071-40.2503Q11.3628-36.6507 10.0427-31.8865Q8.72266-27.1222 8.72266-20.1205Q8.72266-9.60335 13.7683-1.68244Q18.8139 6.23849 27.9379 10.63Q37.062 15.0214 49.1857 15.0214ZM49.7575 4.3684Q40.6588 4.3684 33.8357 1.31188Q27.0126-1.74465 23.2109-7.2672Q19.4093-12.7898 19.4093-20.1205Q19.4093-25.4994 20.6128-29.3405Q21.8162-33.1817 23.3622-36.6776Q24.9083-40.1734 26.0974-44.3267Q27.2865-48.48 27.2579-54.4258Q27.2579-55.5345 27.076-56.5259Q26.8941-57.5173 26.7305-58.4146L24.503-57.5021Q26.9957-54.7904 28.696-50.9165Q30.3963-47.0426 31.2395-42.6334Q31.7846-39.7721 34.2356-39.7721Q36.9262-39.7721 38.8502-42.8031Q40.7742-45.834 41.832-50.2525Q42.8899-54.6709 42.8899-58.9046Q42.8899-66.8584 39.7666-74.3836Q36.6432-81.9089 31.2001-87.2714L28.4942-84.1633Q41.0317-83.6174 51.1649-79.4778Q61.2982-75.338 68.5052-68.2225Q75.7122-61.1068 79.5741-51.6151Q83.4362-42.1233 83.4362-30.8734Q83.4362-20.2847 79.2154-12.3685Q74.9946-4.45228 67.4236-0.0419516Q59.8528 4.3684 49.7575 4.3684ZM50.4793-2.3164Q55.8514-2.3164 59.5616-4.61692Q63.2719-6.91744 65.2088-10.8199Q67.1457-14.7223 67.1457-19.536Q67.1457-24.5443 65.323-29.2672Q63.5004-33.9901 59.994-37.8018Q56.4876-41.6134 51.414-43.8385Q50.7884-44.0773 50.3186-43.7645Q49.8488-43.4517 49.9681-42.6884Q50.7024-37.6127 50.2737-33.1192Q49.8451-28.6257 48.0717-25.4972Q47.3086-27.7898 46.2818-29.5864Q45.2551-31.3831 43.7543-32.8008Q43.1962-33.3018 42.6952-33.0681Q42.1942-32.8345 42.1605-32.2374Q41.7867-29.0648 40.234-26.8255Q38.6813-24.5862 37.2415-22.0248Q35.8017-19.4633 35.8017-15.4336Q35.8017-9.52661 39.8327-5.92153Q43.8636-2.3164 50.4793-2.3164Z"/>
  </g>
  <g id="Semibold-M" transform="matrix(1 0 0 1 1992.49 1126)">
   <path d="M48.414 14.3339Q61.7585 14.3339 71.74 8.72643Q81.7216 3.11891 87.2779-6.98721Q92.8342-17.0933 92.8342-30.5877Q92.8342-43.9178 88.746-54.2238Q84.6578-64.5298 77.766-72.0045Q70.8741-79.4791 62.4491-84.2783Q54.0241-89.0774 45.2038-91.3898Q36.3836-93.7023 28.5204-93.7023Q24.513-93.7023 22.098-92.1779Q19.6829-90.6537 19.6829-87.7211Q19.6829-85.4739 21.5372-83.2608Q26.1733-77.6805 29.6342-71.7881Q33.0952-65.8959 33.1693-58.9979Q33.1693-57.7401 32.9508-56.5721Q32.7324-55.4039 31.8879-53.9438L34.0026-54.4344Q32.5843-58.3875 30.4761-61.0238Q28.3679-63.6601 25.9596-65.0053Q23.5513-66.3504 21.1889-66.3504Q19.2707-66.3504 18.1061-65.1323Q16.9415-63.9142 16.9415-61.813Q16.9415-60.5626 17.1284-58.7949Q17.3153-57.0273 17.3153-55.0733Q17.3153-50.7953 16.0109-47.3346Q14.7064-43.8739 13.019-40.2032Q11.3316-36.5326 10.0271-31.753Q8.72266-26.9733 8.72266-20.1205Q8.72266-9.80367 13.6701-2.03757Q18.6175 5.72855 27.5647 10.0312Q36.5119 14.3339 48.414 14.3339ZM48.9661 5.05787Q39.6899 5.05787 32.7379 1.91159Q25.7859-1.23471 21.9049-6.90785Q18.024-12.581 18.024-20.1205Q18.024-25.7379 19.2712-29.7529Q20.5184-33.7681 22.1177-37.3123Q23.717-40.8564 24.9551-44.8513Q26.1932-48.8462 26.175-54.349Q26.175-55.5868 25.9574-56.6752Q25.7398-57.7635 25.5263-58.7319L23.7094-57.4497Q26.3714-55.0841 28.2123-51.4135Q30.0532-47.7428 30.9868-43.1139Q31.4696-40.7394 33.4625-40.7394Q35.8979-40.7394 37.673-43.6578Q39.4481-46.576 40.4384-50.7435Q41.4287-54.911 41.4287-58.7414Q41.4287-66.8484 38.2084-74.4144Q34.988-81.9805 29.3783-87.3866L27.171-84.844Q39.9367-84.3841 50.277-80.2095Q60.6173-76.0348 67.9783-68.8085Q75.3393-61.582 79.2838-51.9253Q83.2284-42.2686 83.2284-30.8636Q83.2284-20.0805 78.9333-12.0062Q74.6384-3.93195 66.9292 0.562953Q59.2202 5.05787 48.9661 5.05787ZM49.6404-1.68614Q55.1843-1.68614 58.9401-4.07875Q62.696-6.47136 64.6137-10.459Q66.5313-14.4466 66.5313-19.2614Q66.5313-24.196 64.7051-28.9586Q62.879-33.7211 59.3416-37.6378Q55.8042-41.5544 50.6127-43.8879Q50.1015-44.0851 49.7365-43.8295Q49.3716-43.5738 49.4513-42.96Q50.1455-37.5512 49.5669-32.8213Q48.9883-28.0914 47.15-25.1345Q46.3434-27.3634 45.2689-29.1748Q44.1944-30.9864 42.6164-32.4358Q42.1745-32.8225 41.7785-32.6512Q41.3824-32.48 41.3571-31.9679Q40.9645-28.9338 39.3667-26.6878Q37.769-24.4418 36.2809-21.7944Q34.7928-19.1471 34.7928-15.0312Q34.7928-9.01872 38.8716-5.35245Q42.9504-1.68614 49.6404-1.68614Z"/>
  </g>
  <g id="Medium-M" transform="matrix(1 0 0 1 1696.38 1126)">
   <path d="M47.8289 13.8127Q60.9825 13.8127 70.8247 8.27321Q80.6669 2.73376 86.1458-7.25572Q91.6246-17.2452 91.6246-30.5877Q91.6246-43.8147 87.5803-54.0346Q83.5361-64.2545 76.7108-71.6666Q69.8855-79.0786 61.5367-83.8386Q53.1877-88.5985 44.4391-90.8897Q35.6905-93.181 27.8687-93.181Q24.0972-93.181 21.8506-91.7984Q19.6041-90.4159 19.6041-87.7211Q19.6041-85.6663 21.3425-83.5942Q25.8506-78.1955 29.3847-72.1784Q32.9189-66.1615 33.0057-59.1264Q33.0057-57.6744 32.7462-56.3229Q32.4867-54.9714 31.49-53.2842L33.7448-53.7512Q32.4731-57.552 30.3489-60.2401Q28.2246-62.9283 25.7146-64.3788Q23.2045-65.8292 20.7464-65.8292Q18.9905-65.8292 17.9266-64.6967Q16.8628-63.5643 16.8628-61.6599Q16.8628-60.5419 17.0496-58.7144Q17.2365-56.887 17.2365-55.0733Q17.2365-50.8614 15.9439-47.3767Q14.6513-43.8921 12.9796-40.1675Q11.308-36.443 10.0153-31.6517Q8.72266-26.8604 8.72266-20.1205Q8.72266-9.95556 13.5956-2.30685Q18.4686 5.34188 27.2817 9.57727Q36.0948 13.8127 47.8289 13.8127ZM48.366 5.58066Q38.9552 5.58066 31.9055 2.36631Q24.8559-0.848048 20.9146-6.63537Q16.9735-12.4228 16.9735-20.1205Q16.9735-25.9187 18.2539-30.0656Q19.5344-34.2127 21.174-37.7935Q22.8136-41.3743 24.0889-45.2491Q25.3641-49.1239 25.3538-54.2907Q25.3538-55.6265 25.1092-56.7884Q24.8646-57.9502 24.6131-58.9725L23.1076-57.41Q25.898-55.3069 27.8455-51.7903Q29.793-48.2738 30.7952-43.4782Q31.2307-41.4728 32.8763-41.4728Q35.1183-41.4728 36.7804-44.3058Q38.4426-47.1387 39.3817-51.1159Q40.3208-55.0931 40.3208-58.6177Q40.3208-66.8408 37.0269-74.4378Q33.733-82.0348 27.9969-87.474L26.1677-85.3601Q39.1065-84.9655 49.6037-80.7644Q60.1011-76.5632 67.5788-69.2528Q75.0566-61.9423 79.0636-52.1605Q83.0708-42.3788 83.0708-30.8561Q83.0708-19.9256 78.7195-11.7315Q74.3683-3.53741 66.5543 1.02162Q58.7405 5.58066 48.366 5.58066ZM49.0043-1.20826Q54.6784-1.20826 58.4689-3.67069Q62.2594-6.13312 64.1624-10.1853Q66.0654-14.2375 66.0654-19.0532Q66.0654-23.9319 64.2365-28.7245Q62.4078-33.5172 58.8469-37.5134Q55.286-41.5097 50.0051-43.9253Q49.5806-44.0911 49.2952-43.8787Q49.0098-43.6664 49.0595-43.1659Q49.7232-37.5046 49.0309-32.5955Q48.3386-27.6863 46.4512-24.8596Q45.6115-27.0401 44.5008-28.8628Q43.3901-30.6856 41.7536-32.1591Q41.3999-32.4591 41.0834-32.335Q40.7669-32.2111 40.7479-31.7635Q40.341-28.8345 38.7091-26.5834Q37.0772-24.3323 35.5525-21.6198Q34.0278-18.9073 34.0278-14.7261Q34.0278-8.63361 38.1429-4.92096Q42.2579-1.20826 49.0043-1.20826Z"/>
  </g>
  <g id="Regular-M" transform="matrix(1 0 0 1 1400.46 1126)">
   <path d="M47.0657 13.1327Q59.9703 13.1327 69.6308 7.68205Q79.2912 2.23138 84.6691-7.60595Q90.047-17.4433 90.047-30.5877Q90.047-43.6802 86.0599-53.7878Q82.0729-63.8955 75.3345-71.2258Q68.596-78.5562 60.3465-83.2651Q52.0968-87.9739 43.4417-90.2374Q34.7866-92.5011 27.0186-92.5011Q23.5547-92.5011 21.528-91.3034Q19.5014-90.1058 19.5014-87.7211Q19.5014-85.9172 21.0886-84.0291Q25.4298-78.8673 29.0593-72.6875Q32.6889-66.5079 32.7923-59.2941Q32.7923-57.5886 32.4794-55.9979Q32.1664-54.4072 30.971-52.4239L33.4084-52.86Q32.3281-56.4623 30.1829-59.2179Q28.0375-61.9737 25.3949-63.5615Q22.7523-65.1492 20.1692-65.1492Q18.6251-65.1492 17.6925-64.1285Q16.76-63.1078 16.76-61.4602Q16.76-60.515 16.9468-58.6094Q17.1337-56.704 17.1337-55.0733Q17.1337-50.9477 15.8566-47.4317Q14.5793-43.9158 12.9282-40.121Q11.2771-36.3262 9.9999-31.5197Q8.72266-26.7132 8.72266-20.1205Q8.72266-10.1537 13.4985-2.65808Q18.2744 4.83754 26.9125 8.98514Q35.5508 13.1327 47.0657 13.1327ZM47.5833 6.26256Q37.9968 6.26256 30.8198 2.95943Q23.6427-0.343707 19.623-6.27997Q15.6033-12.2163 15.6033-20.1205Q15.6033-26.1546 16.9271-30.4735Q18.2509-34.7926 19.9431-38.4212Q21.6354-42.0497 22.9591-45.7679Q24.2828-49.486 24.2828-54.2147Q24.2828-55.6782 24.0029-56.936Q23.723-58.1937 23.4221-59.2864L22.3228-57.3581Q25.2806-55.5974 27.3672-52.2819Q29.4536-48.9664 30.5453-43.9534Q30.9192-42.4295 32.1116-42.4295Q34.1013-42.4295 35.6162-45.151Q37.1311-47.8725 38.0034-51.6016Q38.8756-55.3306 38.8756-58.4563Q38.8756-66.8308 35.4859-74.4682Q32.096-82.1056 26.195-87.588L24.859-86.0333Q38.0236-85.7237 48.7256-81.4881Q59.4277-77.2524 67.0577-69.8324Q74.6878-62.4122 78.7765-52.4674Q82.8652-42.5225 82.8652-30.8463Q82.8652-19.7236 78.4406-11.3732Q74.016-3.0228 66.0653 1.61987Q58.1148 6.26256 47.5833 6.26256ZM48.1746-0.584927Q54.0187-0.584927 57.8542-3.13844Q61.6898-5.69195 63.5738-9.82841Q65.4577-13.9649 65.4577-18.7815Q65.4577-23.5875 63.6254-28.4193Q61.7932-33.2512 58.2016-37.3513Q54.6101-41.4513 49.2126-43.9742Q48.9012-44.0988 48.7195-43.943Q48.5379-43.7872 48.5484-43.4345Q49.1725-37.4438 48.3318-32.3008Q47.4912-27.1579 45.5396-24.5009Q44.6569-26.6183 43.499-28.4558Q42.3411-30.2933 40.6282-31.7981Q40.3895-31.985 40.1767-31.9227Q39.964-31.8604 39.9533-31.497Q39.5278-28.7049 37.8514-26.4472Q36.175-24.1894 34.6025-21.392Q33.03-18.5946 33.03-14.3281Q33.03-8.13129 37.1924-4.35814Q41.3548-0.584927 48.1746-0.584927Z"/>
  </g>
  <g id="Light-M" transform="matrix(1 0 0 1 1104.49 1126)">
   <path d="M46.5011 12.3971Q59.1147 12.3971 68.5784 7.04901Q78.0422 1.70097 83.3003-7.9738Q88.5584-17.6486 88.5584-30.5877Q88.5584-43.4918 84.6226-53.4712Q80.6869-63.4505 74.034-70.6953Q67.381-77.9401 59.1915-82.6063Q51.0018-87.2724 42.3552-89.5189Q33.7085-91.7654 25.8721-91.7654Q22.8533-91.7654 21.1773-90.7474Q19.5014-89.7295 19.5014-87.7211Q19.5014-86.2251 20.9345-84.5083Q25.3441-79.2608 28.9994-72.9614Q32.6547-66.662 32.7239-59.7733Q32.7239-57.8281 32.257-56.0321Q31.79-54.2361 30.4748-52.2698L32.6213-52.706Q31.5067-56.1886 29.2674-58.8159Q27.0279-61.4433 24.3939-62.9285Q21.7599-64.4136 19.4335-64.4136Q18.2146-64.4136 17.4873-63.6067Q16.76-62.7999 16.76-61.5117Q16.76-60.5492 16.9468-58.6352Q17.1337-56.7212 17.1337-55.0733Q17.1337-50.6226 15.8566-47.0125Q14.5793-43.4023 12.9282-39.6675Q11.2771-35.9326 9.9999-31.263Q8.72266-26.5933 8.72266-20.1205Q8.72266-10.359 13.413-3.03456Q18.1033 4.28988 26.6045 8.34347Q35.1057 12.3971 46.5011 12.3971ZM46.8476 7.01548Q37.0729 7.01548 29.7248 3.60972Q22.3766 0.203951 18.2541-5.91201Q14.1317-12.028 14.1317-20.1205Q14.1317-26.2402 15.4299-30.4906Q16.7281-34.7411 18.3861-38.2928Q20.0442-41.8445 21.3422-45.6311Q22.6401-49.4177 22.6401-54.5399Q22.6401-55.952 22.4115-57.3296Q22.183-58.7071 21.8993-60.0563L20.9368-58.4362Q23.7406-57.1544 26.2806-54.0699Q28.8206-50.9854 30.0661-46.2291Q30.4399-44.9619 31.4444-44.9619Q33.0232-44.9619 34.4184-47.2471Q35.8136-49.5322 36.6859-52.8421Q37.5581-56.152 37.5581-59.2946Q37.5581-67.1045 34.2283-74.1944Q30.8984-81.2843 24.7234-87.7763L23.7468-86.5295Q36.6376-86.4252 47.468-82.2923Q58.2984-78.1594 66.2279-70.6794Q74.1574-63.1994 78.5113-53.0406Q82.8652-42.8819 82.8652-30.7607Q82.8652-19.4841 78.338-10.9796Q73.8107-2.47514 65.6975 2.27016Q57.5844 7.01548 46.8476 7.01548ZM47.3875-1.33785Q53.009-1.33785 56.6992-3.78873Q60.3895-6.2396 62.1964-10.2135Q64.0033-14.1874 64.0033-18.833Q64.0033-23.4506 62.2308-28.0857Q60.4584-32.7208 57.0038-36.6498Q53.5493-40.5788 48.3913-43.0502Q48.0798-43.1748 47.9068-43.019Q47.7339-42.8632 47.7613-42.5447Q48.4879-36.6397 47.6986-31.7449Q46.9093-26.85 45.0262-24.3298Q44.1265-26.3447 42.96-28.1308Q41.7934-29.917 40.132-31.3361Q39.9102-31.523 39.7061-31.4607Q39.502-31.3984 39.4741-31.052Q39.0658-28.3798 37.4493-26.1991Q35.8328-24.0184 34.3373-21.3322Q32.8417-18.646 32.8417-14.5333Q32.8417-8.5933 36.833-4.9656Q40.8244-1.33785 47.3875-1.33785Z"/>
  </g>
  <g id="Thin-M" transform="matrix(1 0 0 1 808.766 1126)">
   <path d="M45.7543 11.4241Q57.9832 11.4241 67.1867 6.21177Q76.3901 0.999458 81.4899-8.4603Q86.5896-17.92 86.5896-30.5877Q86.5896-43.2428 82.7217-53.0524Q78.8539-62.8618 72.3141-69.9936Q65.7742-77.1253 57.664-81.735Q49.5536-86.3446 40.9181-88.5686Q32.2827-90.7924 24.3558-90.7924Q21.9256-90.7924 20.7134-90.012Q19.5014-89.2318 19.5014-87.7211Q19.5014-86.6323 20.7307-85.1421Q25.2308-79.7813 28.9201-73.3235Q32.6094-66.8658 32.6334-60.4071Q32.6334-58.1448 31.9629-56.0773Q31.2923-54.0098 29.8185-52.066L31.5802-52.5022Q30.4205-55.8266 28.0565-58.2842Q25.6926-60.7418 23.07-62.0912Q20.4474-63.4405 18.4605-63.4405Q17.6716-63.4405 17.2158-62.9166Q16.76-62.3927 16.76-61.5797Q16.76-60.5945 16.9468-58.6692Q17.1337-56.7441 17.1337-55.0733Q17.1337-50.1925 15.8566-46.4579Q14.5793-42.7232 12.9282-39.0677Q11.2771-35.4121 9.9999-30.9234Q8.72266-26.4347 8.72266-20.1205Q8.72266-10.6305 13.2998-3.53248Q17.8771 3.56556 26.1971 7.49481Q34.5171 11.4241 45.7543 11.4241ZM45.8746 8.01128Q35.8508 8.01128 28.2765 4.46977Q20.7021 0.928273 16.4437-5.42536Q12.1853-11.7789 12.1853-20.1205Q12.1853-26.3535 13.4497-30.5133Q14.714-34.6731 16.3269-38.1231Q17.9396-41.573 19.2036-45.4501Q20.4675-49.3272 20.4675-54.9699Q20.4675-56.314 20.3068-57.85Q20.1461-59.3862 19.8853-61.0745L19.1037-59.862Q21.7038-59.2136 24.8435-56.4347Q27.9833-53.6558 29.4322-49.239Q29.8061-48.3113 30.5619-48.3113Q31.5974-48.3113 32.8342-50.0193Q34.0711-51.7272 34.9433-54.4827Q35.8156-57.2383 35.8156-60.4034Q35.8156-67.4665 32.565-73.8323Q29.3144-80.198 22.777-88.0253L22.2757-87.1857Q34.8045-87.353 45.8048-83.356Q56.8049-79.359 65.1304-71.7998Q73.4558-64.2405 78.1605-53.7988Q82.8652-43.3572 82.8652-30.6474Q82.8652-19.1674 78.2023-10.4591Q73.5392-1.75083 65.211 3.13023Q56.8829 8.01128 45.8746 8.01128ZM46.3464-2.33365Q51.6736-2.33365 55.1717-4.6488Q58.6697-6.96393 60.3747-10.7228Q62.0797-14.4816 62.0797-18.901Q62.0797-23.2696 60.3864-27.6444Q58.693-32.0193 55.4196-35.7221Q52.1463-39.4249 47.305-41.8281Q46.9935-41.9528 46.832-41.797Q46.6704-41.6412 46.7202-41.3679Q47.5826-35.5762 46.8612-31.0095Q46.1398-26.4428 44.3471-24.1036Q43.425-25.9827 42.247-27.7009Q41.0691-29.4193 39.4757-30.7251Q39.2763-30.912 39.0836-30.8497Q38.8909-30.7874 38.8402-30.4634Q38.4548-27.9498 36.9176-25.871Q35.3804-23.7921 33.9865-21.2531Q32.5926-18.7141 32.5926-14.8048Q32.5926-9.20434 36.3577-5.76901Q40.1229-2.33365 46.3464-2.33365Z"/>
  </g>
  <g id="Ultralight-M" transform="matrix(1 0 0 1 512.56 1126)">
   <path d="M45.3719 10.9257Q57.4036 10.9257 66.4738 5.78293Q75.544 0.640148 80.5626-8.70948Q85.5812-18.0591 85.5812-30.5877Q85.5812-43.1152 81.7481-52.8378Q77.915-62.5603 71.4331-69.6342Q64.9512-76.7079 56.8816-81.2887Q48.8118-85.8694 40.1821-88.0818Q31.5524-90.294 23.5792-90.294Q21.4504-90.294 20.4758-89.6354Q19.5014-88.9769 19.5014-87.7211Q19.5014-86.8408 20.6263-85.4668Q25.1727-80.0479 28.8796-73.509Q32.5863-66.9701 32.5871-60.7318Q32.5871-58.307 31.8123-56.1005Q31.0374-53.894 29.4824-51.9617L31.047-52.3978Q29.8641-55.6411 27.4364-58.0119Q25.0087-60.3825 22.3919-61.6624Q19.7752-62.9422 17.9621-62.9422Q17.3935-62.9422 17.0768-62.5631Q16.76-62.1841 16.76-61.6146Q16.76-60.6176 16.9468-58.6866Q17.1337-56.7558 17.1337-55.0733Q17.1337-49.9723 15.8566-46.1739Q14.5793-42.3754 12.9282-38.7605Q11.2771-35.1455 9.9999-30.7495Q8.72266-26.3535 8.72266-20.1205Q8.72266-10.7695 13.2419-3.78752Q17.7612 3.19457 25.9884 7.06014Q34.2156 10.9257 45.3719 10.9257ZM45.3762 8.52132Q35.2249 8.52132 27.5347 4.91029Q19.8444 1.29927 15.5164-5.1761Q11.1884-11.6513 11.1884-20.1205Q11.1884-26.4115 12.4355-30.5249Q13.6825-34.6382 15.2721-38.0361Q16.8617-41.434 18.1083-45.3574Q19.3547-49.2809 19.3547-55.1902Q19.3547-56.4994 19.2288-58.1166Q19.1029-59.734 18.8537-61.5961L18.1648-60.5923Q20.6605-60.2684 24.1074-57.6459Q27.5545-55.0235 29.1076-50.7806Q29.4815-50.0269 30.1098-50.0269Q30.8671-50.0269 32.0227-51.4392Q33.1785-52.8515 34.0508-55.3231Q34.9231-57.7947 34.9231-60.9713Q34.9231-67.6519 31.7131-73.6468Q28.5031-79.6416 21.7801-88.1528L21.5222-87.5218Q33.8656-87.8281 44.9529-83.9008Q56.04-79.9735 64.5683-72.3736Q73.0965-64.7737 77.9809-54.1871Q82.8652-43.6006 82.8652-30.5894Q82.8652-19.0051 78.1328-10.1925Q73.4002-1.37984 64.9618 3.57074Q56.5236 8.52132 45.3762 8.52132ZM45.8131-2.84369Q50.9897-2.84369 54.3893-5.08932Q57.7889-7.33492 59.4417-10.9837Q61.0945-14.6324 61.0945-18.9358Q61.0945-23.1769 59.4417-27.4184Q57.7887-31.66 54.6082-35.247Q51.4277-38.8338 46.7486-41.2022Q46.4371-41.3269 46.2814-41.1711Q46.1257-41.0153 46.187-40.7652Q47.1189-35.0315 46.4322-30.6329Q45.7456-26.2342 43.9993-23.9877Q43.0657-25.7973 41.8819-27.4808Q40.6981-29.1644 39.1396-30.4121Q38.9517-30.599 38.7648-30.5368Q38.578-30.4745 38.5155-30.162Q38.1418-27.7296 36.6452-25.7029Q35.1486-23.6762 33.8069-21.2126Q32.465-18.7489 32.465-14.9438Q32.465-9.51731 36.1143-6.18052Q39.7636-2.84369 45.8131-2.84369Z"/>
  </g>
  <g id="Black-S" transform="matrix(1 0 0 1 2890.99 696)">
   <path d="M40.4785 5.85938Q51.7578 5.85938 60.1807 1.17188Q68.6035-3.51562 73.291-11.9385Q77.9785-20.3613 77.9785-31.5918Q77.9785-42.4805 74.585-50.9277Q71.1914-59.375 65.5029-65.5029Q59.8145-71.6309 52.8809-75.5615Q45.9473-79.4922 38.7207-81.3965Q31.4941-83.3008 25.1465-83.3008Q20.9961-83.3008 18.3838-81.4941Q15.7715-79.6875 15.7715-76.3672Q15.7715-73.7793 17.7246-71.4355Q21.9238-66.2598 24.3164-62.1826Q26.709-58.1055 26.709-53.3203Q26.709-53.1738 26.709-53.0518Q26.709-52.9297 26.709-52.7832L27.7344-53.2715Q25.9766-57.0312 24.3896-58.8623Q22.8027-60.6934 21.3623-61.2793Q19.9219-61.8652 18.5059-61.8652Q16.3086-61.8652 14.9658-60.5469Q13.623-59.2285 13.623-56.7383Q13.623-55.1758 13.7695-54.0527Q13.916-52.9297 13.916-50.7812Q13.916-47.1191 12.8418-44.5068Q11.7676-41.8945 10.376-39.2578Q8.98438-36.6211 7.91016-32.9346Q6.83594-29.248 6.83594-23.3887Q6.83594-14.6484 11.0352-8.05664Q15.2344-1.46484 22.8271 2.19727Q30.4199 5.85938 40.4785 5.85938ZM40.9668-5.9082Q34.2773-5.9082 29.248-8.08105Q24.2188-10.2539 21.4355-14.209Q18.6523-18.1641 18.6523-23.3887Q18.6523-27.002 19.4824-29.5654Q20.3125-32.1289 21.3867-34.7412Q22.4609-37.3535 23.2666-41.0156Q24.0723-44.6777 24.0234-50.4883Q24.0234-51.0254 23.9746-51.5625Q23.9258-52.0996 23.9258-52.6367L21.1426-52.8809Q22.6562-49.9023 23.6572-46.3623Q24.6582-42.8223 25.0977-39.9414Q25.6836-36.4746 28.7598-36.4746Q31.4941-36.4746 33.374-39.1113Q35.2539-41.748 36.2549-45.8252Q37.2559-49.9023 37.2559-54.248Q37.2559-60.0586 35.0586-65.8203Q32.8613-71.582 29.0039-75.7324L25.6348-71.875Q34.8633-71.2402 42.2852-68.0908Q49.707-64.9414 54.9805-59.6436Q60.2539-54.3457 63.0859-47.3145Q65.918-40.2832 65.918-31.8359Q65.918-24.0234 62.793-18.2129Q59.668-12.4023 54.0771-9.15527Q48.4863-5.9082 40.9668-5.9082ZM41.6504-11.084Q45.4102-11.084 48.1934-12.6465Q50.9766-14.209 52.5391-17.041Q54.1016-19.873 54.1016-23.6328Q54.1016-27.7344 52.6855-31.3232Q51.2695-34.9121 48.6084-37.6221Q45.9473-40.332 42.2852-41.7969Q41.5039-42.0898 40.8691-41.6992Q40.2344-41.3086 40.4297-40.332Q41.1133-37.207 41.1621-34.3018Q41.2109-31.3965 39.9902-28.5156Q39.502-30.4688 38.8184-31.8359Q38.1348-33.2031 37.1582-34.2285Q36.4258-34.9121 35.7666-34.5703Q35.1074-34.2285 35.0586-33.5449Q34.8145-30.7129 33.7158-28.9795Q32.6172-27.2461 31.6162-25.4639Q30.6152-23.6816 30.6152-20.752Q30.6152-16.4062 33.6426-13.7451Q36.6699-11.084 41.6504-11.084Z"/>
  </g>
  <g id="Heavy-S" transform="matrix(1 0 0 1 2595.07 696)">
   <path d="M39.6948 5.19096Q50.7321 5.19096 58.9764 0.589892Q67.2206-4.01117 71.8101-12.2842Q76.3997-20.5572 76.3997-31.5918Q76.3997-42.3537 73.0637-50.6915Q69.7278-59.0293 64.1257-65.0765Q58.5237-71.1238 51.6939-75.0026Q44.864-78.8814 37.7411-80.7569Q30.6182-82.6324 24.3398-82.6324Q20.4775-82.6324 18.0669-81.0101Q15.6563-79.3879 15.6563-76.3672Q15.6563-74.0213 17.4595-71.8619Q21.4628-66.9628 23.9591-62.7185Q26.4555-58.4743 26.4785-53.4471Q26.4785-53.047 26.4382-52.683Q26.3978-52.3189 26.1904-51.8382L27.4578-52.2919Q25.919-55.8442 24.3205-57.7675Q22.722-59.6908 21.1318-60.4438Q19.5416-61.1968 17.9527-61.1968Q15.9513-61.1968 14.7295-59.9764Q13.5078-58.756 13.5078-56.5078Q13.5078-55.1412 13.6543-53.9317Q13.8008-52.7223 13.8008-50.7812Q13.8008-47.2574 12.7439-44.622Q11.6869-41.9867 10.3184-39.2636Q8.94981-36.5404 7.89287-32.8194Q6.83594-29.0982 6.83594-23.3887Q6.83594-14.8443 10.9372-8.40237Q15.0385-1.96039 22.4526 1.61528Q29.8667 5.19096 39.6948 5.19096ZM40.1831-5.23978Q33.3208-5.23978 28.1705-7.49906Q23.0202-9.75835 20.162-13.8575Q17.304-17.9567 17.304-23.3887Q17.304-27.2555 18.1859-30.0206Q19.0679-32.7858 20.2054-35.4615Q21.343-38.1372 22.2063-41.6149Q23.0697-45.0926 23.0323-50.3615Q23.0323-51.0484 22.9374-51.6777Q22.8425-52.307 22.7849-52.8902L20.4396-52.685Q22.1607-50.0291 23.2596-46.685Q24.3586-43.3409 24.8787-40.1834Q25.3955-37.2237 27.9877-37.2237Q30.4915-37.2237 32.2216-39.7913Q33.9516-42.3588 34.8777-46.2113Q35.8038-50.0636 35.8038-53.9599Q35.8038-60.0125 33.4913-65.8895Q31.1787-71.7664 27.1715-75.8361L24.3095-72.5665Q33.8261-72.0008 41.4612-68.7996Q49.0962-65.5983 54.5022-60.1852Q59.9082-54.7721 62.7978-47.5853Q65.6875-40.3984 65.6875-31.8359Q65.6875-23.8275 62.4933-17.8614Q59.2992-11.8952 53.5758-8.56752Q47.8525-5.23978 40.1831-5.23978ZM40.8206-10.2888Q44.7994-10.2888 47.6517-11.9666Q50.5041-13.6443 52.0551-16.5915Q53.6061-19.5388 53.6061-23.3217Q53.6061-27.3656 52.1784-31.0236Q50.7509-34.6816 48.0379-37.5299Q45.325-40.3781 41.5015-41.9698Q40.847-42.2166 40.3275-41.8894Q39.808-41.5621 39.9572-40.7469Q40.5832-37.2416 40.4591-34.0425Q40.335-30.8433 39.0337-28.1353Q38.4994-30.0309 37.7639-31.421Q37.0285-32.8113 35.9597-33.8828Q35.354-34.4396 34.8101-34.1669Q34.2661-33.8943 34.2288-33.3029Q33.9617-30.6092 32.8054-28.8585Q31.6491-27.1078 30.5848-25.2161Q29.5204-23.3244 29.5204-20.2795Q29.5204-15.7839 32.6227-13.0364Q35.7249-10.2888 40.8206-10.2888Z"/>
  </g>
  <g id="Bold-S" transform="matrix(1 0 0 1 2299.24 696)">
   <path d="M38.8184 4.44336Q49.5849 4.44336 57.6294-0.061035Q65.6738-4.56543 70.1538-12.6709Q74.6338-20.7764 74.6338-31.5918Q74.6338-42.212 71.3623-50.4272Q68.0908-58.6426 62.5854-64.5996Q57.0801-70.5566 50.3663-74.3775Q43.6523-78.1983 36.6455-80.0415Q29.6386-81.8848 23.4375-81.8848Q19.8974-81.8848 17.7124-80.4688Q15.5273-79.0528 15.5273-76.3672Q15.5273-74.292 17.1631-72.3389Q20.9473-67.7491 23.5596-63.3178Q26.1719-58.8868 26.2207-53.5888Q26.2207-52.9053 26.1352-52.2705Q26.0498-51.6358 25.6103-50.7812L27.1484-51.1963Q25.8545-54.5166 24.2432-56.543Q22.6318-58.5693 20.874-59.5093Q19.1162-60.4492 17.334-60.4492Q15.5517-60.4492 14.4653-59.3384Q13.3789-58.2275 13.3789-56.25Q13.3789-55.1026 13.5253-53.7963Q13.6719-52.4903 13.6719-50.7812Q13.6719-47.4121 12.6343-44.7509Q11.5967-42.0899 10.2539-39.27Q8.91113-36.4502 7.87353-32.6904Q6.83594-28.9307 6.83594-23.3887Q6.83594-15.0635 10.8276-8.78906Q14.8193-2.51464 22.0336 0.964358Q29.248 4.44336 38.8184 4.44336ZM39.3067-4.49219Q32.251-4.49219 26.9653-6.84814Q21.6797-9.2041 18.7378-13.4643Q15.7959-17.7246 15.7959-23.3887Q15.7959-27.5391 16.7358-30.5297Q17.6758-33.5205 18.8842-36.2671Q20.0928-39.0136 21.0205-42.2851Q21.9482-45.5566 21.9238-50.2197Q21.9238-51.0742 21.7773-51.8066Q21.6309-52.539 21.5088-53.1738L19.6534-52.4658Q21.6064-50.1709 22.815-47.0459Q24.0234-43.9209 24.6338-40.4541Q25.0732-38.0615 27.124-38.0615Q29.3701-38.0615 30.9326-40.5518Q32.4951-43.042 33.3374-46.6431Q34.1797-50.2441 34.1797-53.6377Q34.1797-59.9609 31.7383-65.9668Q29.2969-71.9726 25.1221-75.9522L22.8271-73.3399Q32.6661-72.8515 40.5395-69.5923Q48.413-66.333 53.9673-60.791Q59.5215-55.249 62.4755-47.8882Q65.4297-40.5274 65.4297-31.8359Q65.4297-23.6084 62.1582-17.4683Q58.8868-11.3281 53.0151-7.91015Q47.1436-4.49219 39.3067-4.49219ZM39.8926-9.39942Q44.1162-9.39942 47.0459-11.2061Q49.9756-13.0127 51.5137-16.0889Q53.0518-19.165 53.0518-22.9736Q53.0518-26.9532 51.6113-30.6885Q50.1709-34.4238 47.3999-37.4268Q44.6289-40.4296 40.625-42.1631Q40.1123-42.3584 39.7216-42.1021Q39.331-41.8457 39.4287-41.2109Q39.9902-37.2802 39.6729-33.7524Q39.3555-30.2246 37.9639-27.7099Q37.3779-29.541 36.5845-30.957Q35.791-32.373 34.6191-33.4961Q34.1553-33.9112 33.7402-33.7158Q33.3252-33.5205 33.3008-33.0322Q33.0078-30.4932 31.7871-28.7232Q30.5664-26.9531 29.4312-24.939Q28.2959-22.9248 28.2959-19.751Q28.2959-15.0879 31.482-12.2437Q34.6679-9.39942 39.8926-9.39942Z"/>
  </g>
  <g id="Semibold-S" transform="matrix(1 0 0 1 2003.14 696)">
   <path d="M38.2141 3.92793Q48.794 3.92793 56.7007-0.509816Q64.6074-4.94755 69.0119-12.9375Q73.4163-20.9274 73.4163-31.5918Q73.4163-42.1142 70.1892-50.2451Q66.9622-58.376 61.5235-64.2708Q56.0848-70.1656 49.4509-73.9465Q42.817-77.7273 35.8901-79.5483Q28.9633-81.3694 22.8154-81.3694Q19.4975-81.3694 17.468-80.0955Q15.4385-78.8217 15.4385-76.3672Q15.4385-74.4786 16.9587-72.6677Q20.5918-68.2911 23.2841-63.7311Q25.9764-59.1711 26.043-53.6866Q26.043-52.8075 25.9264-51.9862Q25.8099-51.1648 25.2104-50.0525L26.9352-50.4409Q25.8101-53.6013 24.1898-55.6987Q22.5696-57.7962 20.6963-58.865Q18.8229-59.9338 16.9074-59.9338Q15.2763-59.9338 14.2831-58.8985Q13.29-57.8632 13.29-56.0723Q13.29-55.0759 13.4365-53.703Q13.583-52.3303 13.583-50.7812Q13.583-47.5188 12.5588-44.8398Q11.5345-42.161 10.2095-39.2744Q8.88447-36.388 7.8602-32.6016Q6.83594-28.8151 6.83594-23.3887Q6.83594-15.2145 10.7521-9.05566Q14.6683-2.89677 21.7448 0.515577Q28.8215 3.92793 38.2141 3.92793ZM38.7024-3.97676Q31.5134-3.97676 26.1344-6.39936Q20.7555-8.82197 17.7558-13.1933Q14.7562-17.5647 14.7562-23.3887Q14.7562-27.7346 15.7361-30.8808Q16.716-34.027 17.9734-36.8225Q19.2307-39.6179 20.2029-42.7473Q21.1751-45.8765 21.1595-50.122Q21.1595-51.092 20.9776-51.8955Q20.7955-52.699 20.629-53.3693L19.1113-52.3148Q21.2243-50.2687 22.5084-47.2947Q23.7924-44.3208 24.4649-40.6407Q24.8511-38.6391 26.5286-38.6391Q28.597-38.6391 30.0439-41.0761Q31.4909-43.5129 32.2754-46.9407Q33.06-50.3685 33.06-53.4155Q33.06-59.9254 30.5297-66.0201Q27.9994-72.1148 23.7091-76.0321L21.8052-73.8731Q31.8663-73.4381 39.9041-70.1388Q47.9421-66.8395 53.5985-61.2087Q59.2549-55.5778 62.2534-48.097Q65.252-40.6162 65.252-31.8359Q65.252-23.4573 61.9271-17.1972Q58.6024-10.9371 52.6285-7.45693Q46.6548-3.97676 38.7024-3.97676ZM39.2528-8.78623Q43.6453-8.78623 46.6282-10.6817Q49.6112-12.5772 51.1405-15.7423Q52.6697-18.9073 52.6697-22.7337Q52.6697-26.6688 51.2203-30.4574Q49.771-34.2461 46.96-37.3556Q44.149-40.4652 40.0207-42.2964Q39.6058-42.4562 39.304-42.2487Q39.0022-42.0412 39.0643-41.5308Q39.5815-37.3069 39.1308-33.5525Q38.6801-29.798 37.2263-27.4167Q36.6048-29.2033 35.7714-30.6371Q34.9379-32.0709 33.6949-33.2295Q33.3288-33.5468 33.0027-33.4048Q32.6765-33.2628 32.661-32.8456Q32.3502-30.4132 31.0851-28.6298Q29.8199-26.8465 28.6358-24.7479Q27.4517-22.6493 27.4517-19.3866Q27.4517-14.608 30.6955-11.6971Q33.9392-8.78623 39.2528-8.78623Z"/>
  </g>
  <g id="Medium-S" transform="matrix(1 0 0 1 1706.89 696)">
   <path d="M37.7559 3.53711Q48.1943 3.53711 55.9966-0.850101Q63.7988-5.2373 68.146-13.1396Q72.4932-21.042 72.4932-31.5918Q72.4932-42.0401 69.2998-50.107Q66.1064-58.1739 60.7183-64.0215Q55.3301-69.8691 48.7569-73.6197Q42.1836-77.3701 35.3174-79.1743Q28.4512-80.9786 22.3437-80.9786Q19.1943-80.9786 17.2827-79.8125Q15.3711-78.6465 15.3711-76.3672Q15.3711-74.6201 16.8037-72.917Q20.3223-68.7022 23.0752-64.0444Q25.8282-59.3868 25.9082-53.7607Q25.9082-52.7334 25.768-51.7705Q25.6279-50.8076 24.9072-49.5L26.7734-49.8682Q25.7764-52.9073 24.1494-55.0586Q22.5224-57.21 20.5615-58.3765Q18.6006-59.543 16.584-59.543Q15.0674-59.543 14.145-58.565Q13.2227-57.5869 13.2227-55.9375Q13.2227-55.0557 13.3691-53.6323Q13.5156-52.209 13.5156-50.7812Q13.5156-47.5996 12.5015-44.9072Q11.4873-42.2149 10.1758-39.2778Q8.86426-36.3408 7.85009-32.5342Q6.83594-28.7275 6.83594-23.3887Q6.83594-15.3291 10.6948-9.25781Q14.5537-3.18652 21.5258 0.175294Q28.4981 3.53711 37.7559 3.53711ZM38.2442-3.58594Q30.9541-3.58594 25.5044-6.05908Q20.0547-8.53223 17.0112-12.9878Q13.9678-17.4434 13.9678-23.3887Q13.9678-27.8828 14.9781-31.1469Q15.9883-34.4111 17.2827-37.2437Q18.5771-40.0761 19.583-43.0977Q20.5889-46.1191 20.5801-50.0479Q20.5801-51.1054 20.3711-51.9629Q20.1621-52.8203 19.9619-53.5175L18.7002-52.2002Q20.9345-50.3428 22.2759-47.4834Q23.6172-44.624 24.3369-40.7822Q24.6826-39.0771 26.0772-39.0771Q28.0107-39.0771 29.3701-41.4736Q30.7295-43.8701 31.4702-47.1665Q32.2109-50.4629 32.2109-53.247Q32.2109-59.8985 29.6133-66.0606Q27.0156-72.2227 22.6377-76.0928L21.0303-74.2774Q31.2598-73.8828 39.4223-70.5533Q47.5849-67.2236 53.3189-61.5254Q59.0528-55.8271 62.0849-48.2554Q65.1172-40.6836 65.1172-31.8359Q65.1172-23.3428 61.7519-16.9917Q58.3867-10.6406 52.3354-7.11328Q46.2842-3.58594 38.2442-3.58594ZM38.7676-8.32129Q43.2881-8.32129 46.3115-10.2842Q49.335-12.2471 50.8574-15.4795Q52.3799-18.7119 52.3799-22.5518Q52.3799-26.4532 50.9238-30.2822Q49.4678-34.1113 46.6265-37.3017Q43.7851-40.4921 39.5625-42.3975Q39.2217-42.5303 38.9873-42.3599Q38.7529-42.1894 38.7881-41.7734Q39.2715-37.3271 38.7197-33.4009Q38.168-29.4746 36.667-27.1943Q36.0186-28.9473 35.1548-30.3945Q34.291-31.8418 32.9942-33.0274Q32.7022-33.2705 32.4434-33.1689Q32.1846-33.0674 32.1758-32.7041Q31.8516-30.3525 30.5527-28.5591Q29.2539-26.7657 28.0327-24.6031Q26.8115-22.4404 26.8115-19.1104Q26.8115-14.2441 30.0991-11.2827Q33.3867-8.32129 38.7676-8.32129Z"/>
  </g>
  <g id="Regular-S" transform="matrix(1 0 0 1 1410.78 696)">
   <path d="M37.1582 3.02734Q47.4121 3.02734 55.0781-1.29395Q62.7441-5.61523 67.0166-13.4033Q71.2891-21.1914 71.2891-31.5918Q71.2891-41.9434 68.1396-49.9268Q64.9902-57.9102 59.668-63.6963Q54.3457-69.4824 47.8516-73.1934Q41.3574-76.9043 34.5703-78.6865Q27.7832-80.4688 21.7285-80.4688Q18.7988-80.4688 17.041-79.4434Q15.2832-78.418 15.2832-76.3672Q15.2832-74.8047 16.6016-73.2422Q19.9707-69.2383 22.8027-64.4531Q25.6348-59.668 25.7324-53.8574Q25.7324-52.6367 25.5615-51.4893Q25.3906-50.3418 24.5117-48.7793L26.5625-49.1211Q25.7324-52.002 24.0967-54.2236Q22.4609-56.4453 20.3857-57.7393Q18.3105-59.0332 16.1621-59.0332Q14.7949-59.0332 13.9648-58.1299Q13.1348-57.2266 13.1348-55.7617Q13.1348-55.0293 13.2812-53.54Q13.4277-52.0508 13.4277-50.7812Q13.4277-47.7051 12.4268-44.9951Q11.4258-42.2852 10.1318-39.2822Q8.83789-36.2793 7.83691-32.4463Q6.83594-28.6133 6.83594-23.3887Q6.83594-15.4785 10.6201-9.52148Q14.4043-3.56445 21.2402-0.268555Q28.0762 3.02734 37.1582 3.02734ZM37.6465-3.07617Q30.2246-3.07617 24.6826-5.61523Q19.1406-8.1543 16.04-12.7197Q12.9395-17.2852 12.9395-23.3887Q12.9395-28.0762 13.9893-31.4941Q15.0391-34.9121 16.3818-37.793Q17.7246-40.6738 18.7744-43.5547Q19.8242-46.4355 19.8242-49.9512Q19.8242-51.123 19.5801-52.0508Q19.3359-52.9785 19.0918-53.7109L18.1641-52.0508Q20.5566-50.4395 21.9727-47.7295Q23.3887-45.0195 24.1699-40.9668Q24.4629-39.6484 25.4883-39.6484Q27.2461-39.6484 28.4912-41.9922Q29.7363-44.3359 30.4199-47.4609Q31.1035-50.5859 31.1035-53.0273Q31.1035-59.8633 28.418-66.1133Q25.7324-72.3633 21.2402-76.1719L20.0195-74.8047Q30.4688-74.4629 38.7939-71.0938Q47.1191-67.7246 52.9541-61.9385Q58.7891-56.1523 61.8652-48.4619Q64.9414-40.7715 64.9414-31.8359Q64.9414-23.1934 61.5234-16.7236Q58.1055-10.2539 51.9531-6.66504Q45.8008-3.07617 37.6465-3.07617ZM38.1348-7.71484Q42.8223-7.71484 45.8984-9.76562Q48.9746-11.8164 50.4883-15.1367Q52.002-18.457 52.002-22.3145Q52.002-26.1719 50.5371-30.0537Q49.0723-33.9355 46.1914-37.2314Q43.3105-40.5273 38.9648-42.5293Q38.7207-42.627 38.5742-42.5049Q38.4277-42.3828 38.4277-42.0898Q38.8672-37.3535 38.1836-33.2031Q37.5-29.0527 35.9375-26.9043Q35.2539-28.6133 34.3506-30.0781Q33.4473-31.543 32.0801-32.7637Q31.8848-32.9102 31.7139-32.8613Q31.543-32.8125 31.543-32.5195Q31.2012-30.2734 29.8584-28.4668Q28.5156-26.6602 27.2461-24.4141Q25.9766-22.168 25.9766-18.75Q25.9766-13.7695 29.3213-10.7422Q32.666-7.71484 38.1348-7.71484Z"/>
  </g>
  <g id="Light-S" transform="matrix(1 0 0 1 1114.73 696)">
   <path d="M36.6587 2.37655Q46.6553 2.37655 54.1472-1.85395Q61.6391-6.08444 65.8057-13.7287Q69.9723-21.373 69.9723-31.5918Q69.9723-41.7768 66.8682-49.6467Q63.7642-57.5165 58.5176-63.227Q53.271-68.9374 46.8299-72.6106Q40.3887-76.2838 33.6091-78.0509Q26.8295-79.818 20.7143-79.818Q18.1783-79.818 16.7307-78.9515Q15.2832-78.0851 15.2832-76.3672Q15.2832-75.0771 16.4653-73.6661Q19.8949-69.5864 22.7497-64.6953Q25.6045-59.8043 25.6719-54.2813Q25.6719-52.8485 25.3648-51.5195Q25.0577-50.1905 24.0728-48.643L25.8662-48.9848Q25.0058-51.7599 23.2868-53.868Q21.5678-55.9761 19.5002-57.1793Q17.4326-58.3824 15.5113-58.3824Q14.4317-58.3824 13.7832-57.6683Q13.1348-56.9542 13.1348-55.8072Q13.1348-55.0596 13.2812-53.5628Q13.4277-52.0661 13.4277-50.7812Q13.4277-47.4175 12.4268-44.6242Q11.4258-41.831 10.1318-38.881Q8.83789-35.9311 7.83691-32.2192Q6.83594-28.5072 6.83594-23.3887Q6.83594-15.6601 10.5444-9.85452Q14.253-4.04892 20.9677-0.836183Q27.6825 2.37655 36.6587 2.37655ZM36.9957-2.41012Q29.4072-2.41012 23.7139-5.03998Q18.0206-7.66983 14.8291-12.3942Q11.6377-17.1186 11.6377-23.3887Q11.6377-28.152 12.6648-31.5092Q13.692-34.8666 15.0045-37.6794Q16.317-40.4922 17.344-43.4336Q18.3711-46.375 18.3711-50.2388Q18.3711-51.3651 18.1723-52.3989Q17.9736-53.4327 17.7447-54.392L16.938-53.0045Q19.1943-51.8168 21.0115-49.3112Q22.8287-46.8056 23.746-42.9799Q24.039-41.8887 24.898-41.8887Q26.2924-41.8887 27.4316-43.8464Q28.5708-45.8041 29.2544-48.5583Q29.938-51.3125 29.938-53.7689Q29.938-60.1054 27.3055-65.8711Q24.6729-71.6367 19.9384-76.3385L19.0356-75.2436Q29.2427-75.0834 37.6814-71.8052Q46.1202-68.527 52.22-62.6878Q58.3199-56.8486 61.6306-48.969Q64.9414-41.0894 64.9414-31.7601Q64.9414-22.9815 61.4326-16.3755Q57.9239-9.76944 51.6277-6.08978Q45.3316-2.41012 36.9957-2.41012ZM37.4385-8.38089Q41.9291-8.38089 44.8767-10.3409Q47.8243-12.3009 49.2699-15.4774Q50.7154-18.6538 50.7154-22.36Q50.7154-26.0508 49.3034-29.7586Q47.8915-33.4663 45.1318-36.6109Q42.3721-39.7555 38.2382-41.7119Q37.9941-41.8096 37.8553-41.6875Q37.7164-41.5654 37.7314-41.3027Q38.2617-36.6422 37.6235-32.7113Q36.9853-28.7803 35.4833-26.753Q34.7847-28.3712 33.8738-29.7906Q32.9628-31.2101 31.6411-32.355Q31.4608-32.5015 31.2976-32.4526Q31.1343-32.4038 31.119-32.1258Q30.7925-29.9858 29.5027-28.2473Q28.213-26.5089 27.0115-24.3612Q25.81-22.2135 25.81-18.9316Q25.81-14.1782 29.0034-11.2796Q32.1968-8.38089 37.4385-8.38089Z"/>
  </g>
  <g id="Thin-S" transform="matrix(1 0 0 1 818.889 696)">
   <path d="M35.9981 1.51584Q45.6543 1.51584 52.916-2.59459Q60.1777-6.70501 64.2042-14.1591Q68.2306-21.6131 68.2306-31.5918Q68.2306-41.5565 65.1866-49.2762Q62.1426-56.9958 56.9961-62.6062Q51.8495-68.2166 45.4786-71.8399Q39.1076-75.4631 32.3379-77.2102Q25.5682-78.9573 19.3729-78.9573Q17.3576-78.9573 16.3204-78.301Q15.2832-77.6448 15.2832-76.3672Q15.2832-75.4373 16.285-74.2268Q19.7946-70.0469 22.6796-65.0157Q25.5645-59.9846 25.5918-54.842Q25.5918-53.1287 25.1046-51.5595Q24.6174-49.9903 23.4922-48.4627L24.9453-48.8045Q24.0449-51.4396 22.2157-53.3976Q20.3865-55.3555 18.3291-56.4387Q16.2716-57.5217 14.6506-57.5217Q13.9514-57.5217 13.5431-57.0578Q13.1348-56.594 13.1348-55.8675Q13.1348-55.0996 13.2812-53.5929Q13.4277-52.0863 13.4277-50.7812Q13.4277-47.037 12.4268-44.1337Q11.4258-41.2302 10.1318-38.3505Q8.83789-35.4707 7.83691-31.9188Q6.83594-28.367 6.83594-23.3887Q6.83594-15.9003 10.4444-10.295Q14.0528-4.68966 20.6073-1.58692Q27.1618 1.51584 35.9981 1.51584ZM36.135-1.52922Q28.3262-1.52922 22.4328-4.27916Q16.5393-7.02909 13.2276-11.9637Q9.91586-16.8983 9.91586-23.3887Q9.91586-28.2522 10.9131-31.5292Q11.9104-34.8063 13.1828-37.5292Q14.4553-40.2521 15.4523-43.2735Q16.4492-46.295 16.4492-50.6193Q16.4492-51.6854 16.3104-52.8594Q16.1718-54.0334 15.9631-55.2927L15.3165-54.2658Q17.3925-53.6385 19.7402-51.4031Q22.0881-49.1678 23.1853-45.6425Q23.4783-44.8516 24.1174-44.8516Q25.0311-44.8516 26.0302-46.2987Q27.0293-47.7458 27.7129-50.0096Q28.3965-52.2735 28.3965-54.7497Q28.3965-60.4256 25.8341-65.5507Q23.2717-70.6758 18.2166-76.5588L17.7342-75.8242Q27.6212-75.9041 36.2101-72.7462Q44.799-69.5882 51.2492-63.6789Q57.6993-57.7696 61.3203-49.6397Q64.9414-41.5098 64.9414-31.6599Q64.9414-22.7013 61.3126-15.915Q57.6837-9.12869 51.1973-5.32896Q44.711-1.52922 36.135-1.52922ZM36.5175-9.26179Q40.7478-9.26179 43.5254-11.1017Q46.303-12.9416 47.6584-15.9279Q49.0138-18.9142 49.0138-22.4202Q49.0138-25.8907 47.6718-29.3682Q46.3298-32.8457 43.7304-35.7902Q41.131-38.7347 37.2773-40.6309Q37.0332-40.7286 36.9044-40.6065Q36.7756-40.4844 36.8105-40.2617Q37.4608-35.7014 36.8826-32.0608Q36.3045-28.4201 34.8826-26.5528Q34.1641-28.051 33.2431-29.4104Q32.3221-30.7698 31.0606-31.8145Q30.9001-31.961 30.7469-31.9121Q30.5938-31.8633 30.5583-31.6052Q30.252-29.6054 29.0323-27.9571Q27.8127-26.3087 26.7012-24.2912Q25.5897-22.2737 25.5897-19.1717Q25.5897-14.7187 28.583-11.9903Q31.5762-9.26179 36.5175-9.26179Z"/>
  </g>
  <g id="Ultralight-S" transform="matrix(1 0 0 1 522.624 696)">
   <path d="M35.6598 1.07498Q45.1416 1.07498 52.2854-2.97394Q59.4292-7.02286 63.3839-14.3795Q67.3386-21.7361 67.3386-31.5918Q67.3386-41.4436 64.3253-49.0864Q61.3121-56.7291 56.2168-62.2883Q51.1215-67.8474 44.7865-71.4451Q38.4514-75.0427 31.6868-76.7796Q24.9222-78.5164 18.6859-78.5164Q16.9373-78.5164 16.1102-77.9678Q15.2832-77.4193 15.2832-76.3672Q15.2832-75.6218 16.1926-74.514Q19.7433-70.2827 22.6437-65.1798Q25.544-60.0769 25.5508-55.1292Q25.5508-53.2722 24.9714-51.58Q24.3919-49.8878 23.1949-48.3704L24.4736-48.7122Q23.5527-51.2756 21.6671-53.1567Q19.7815-55.0377 17.7292-56.0593Q15.6769-57.0808 14.2097-57.0808Q13.7054-57.0808 13.4201-56.7451Q13.1348-56.4095 13.1348-55.8983Q13.1348-55.1201 13.2812-53.6083Q13.4277-52.0966 13.4277-50.7812Q13.4277-46.8422 12.4268-43.8824Q11.4258-40.9225 10.1318-38.0787Q8.83789-35.2348 7.83691-31.765Q6.83594-28.2951 6.83594-23.3887Q6.83594-16.0233 10.3931-10.5206Q13.9503-5.01785 20.4227-1.97144Q26.8951 1.07498 35.6598 1.07498ZM35.6941-1.07803Q27.7725-1.07803 21.7766-3.88947Q15.7806-6.7009 12.4073-11.7432Q9.03397-16.7854 9.03397-23.3887Q9.03397-28.3035 10.0159-31.5395Q10.9978-34.7755 12.2498-37.4523Q13.5017-40.1291 14.4833-43.1915Q15.4648-46.254 15.4648-50.8141Q15.4648-51.8494 15.3568-53.0952Q15.2489-54.3411 15.0505-55.7541L14.4859-54.9118Q16.4696-54.5715 19.0891-52.4746Q21.7087-50.3777 22.8981-47.0062Q23.1911-46.3692 23.7175-46.3692Q24.3851-46.3692 25.3124-47.5548Q26.2398-48.7404 26.9234-50.753Q27.607-52.7657 27.607-55.2521Q27.607-60.5896 25.0805-65.3866Q22.554-70.1836 17.3347-76.6716L17.0677-76.1215Q26.7906-76.3245 35.4565-73.2281Q44.1223-70.1317 50.7519-64.1865Q57.3814-58.2413 61.1614-49.9832Q64.9414-41.7252 64.9414-31.6086Q64.9414-22.5578 61.2511-15.6792Q57.5607-8.80051 50.9769-4.93927Q44.3932-1.07803 35.6941-1.07803ZM36.0458-9.71298Q40.1428-9.71298 42.8333-11.4914Q45.5238-13.2698 46.833-16.1587Q48.1422-19.0475 48.1422-22.451Q48.1422-25.8087 46.8361-29.1683Q45.5299-32.5279 43.0126-35.3699Q40.4953-38.2118 36.7851-40.0772Q36.541-40.1749 36.4174-40.0528Q36.2938-39.9307 36.3388-39.7285Q37.0506-35.2196 36.5032-31.7276Q35.9558-28.2356 34.5749-26.4503Q33.8463-27.887 32.9201-29.2156Q31.9939-30.5443 30.7632-31.5376Q30.6129-31.6841 30.4649-31.6353Q30.3169-31.5865 30.2711-31.3385Q29.9751-29.4106 28.7914-27.8084Q27.6077-26.2062 26.5423-24.2554Q25.4768-22.3045 25.4768-19.2947Q25.4768-14.9956 28.3676-12.3543Q31.2584-9.71298 36.0458-9.71298Z"/>
  </g>
 </g>
</svg>
