<?xml version="1.0" encoding="UTF-8"?>
<!--Generator: Apple Native CoreSVG 175-->
<!DOCTYPE svg
PUBLIC "-//W3C//DTD SVG 1.1//EN"
       "http://www.w3.org/Graphics/SVG/1.1/DTD/svg11.dtd">
<svg version="1.1" xmlns="http://www.w3.org/2000/svg" xmlns:xlink="http://www.w3.org/1999/xlink" width="3300" height="2200">
 <!--glyph: "uni1007D5.medium", point size: 100.0, font version: "17.1d1e1", template writer version: "65.1"-->
 <g id="Notes">
  <rect height="2200" id="artboard" style="fill:white;opacity:1" width="3300" x="0" y="0"/>
  <line style="fill:none;stroke:black;opacity:1;stroke-width:0.5;" x1="263" x2="3036" y1="292" y2="292"/>
  <text style="stroke:none;fill:black;font-family:sans-serif;font-size:13;font-weight:bold;" transform="matrix(1 0 0 1 263 322)">Weight/Scale Variations</text>
  <text style="stroke:none;fill:black;font-family:sans-serif;font-size:13;text-anchor:middle;" transform="matrix(1 0 0 1 559.711 322)">Ultralight</text>
  <text style="stroke:none;fill:black;font-family:sans-serif;font-size:13;text-anchor:middle;" transform="matrix(1 0 0 1 856.422 322)">Thin</text>
  <text style="stroke:none;fill:black;font-family:sans-serif;font-size:13;text-anchor:middle;" transform="matrix(1 0 0 1 1153.13 322)">Light</text>
  <text style="stroke:none;fill:black;font-family:sans-serif;font-size:13;text-anchor:middle;" transform="matrix(1 0 0 1 1449.84 322)">Regular</text>
  <text style="stroke:none;fill:black;font-family:sans-serif;font-size:13;text-anchor:middle;" transform="matrix(1 0 0 1 1746.56 322)">Medium</text>
  <text style="stroke:none;fill:black;font-family:sans-serif;font-size:13;text-anchor:middle;" transform="matrix(1 0 0 1 2043.27 322)">Semibold</text>
  <text style="stroke:none;fill:black;font-family:sans-serif;font-size:13;text-anchor:middle;" transform="matrix(1 0 0 1 2339.98 322)">Bold</text>
  <text style="stroke:none;fill:black;font-family:sans-serif;font-size:13;text-anchor:middle;" transform="matrix(1 0 0 1 2636.69 322)">Heavy</text>
  <text style="stroke:none;fill:black;font-family:sans-serif;font-size:13;text-anchor:middle;" transform="matrix(1 0 0 1 2933.4 322)">Black</text>
  <line style="fill:none;stroke:black;opacity:1;stroke-width:0.5;" x1="263" x2="3036" y1="1903" y2="1903"/>
  <g transform="matrix(1 0 0 1 263 1933)">
   <path d="M9.24805 0.830078Q10.8691 0.830078 12.2949 0.214844Q13.7207-0.400391 14.8096-1.49414Q15.8984-2.58789 16.5186-4.01367Q17.1387-5.43945 17.1387-7.05078Q17.1387-8.66211 16.5186-10.0879Q15.8984-11.5137 14.8047-12.6074Q13.7109-13.7012 12.2852-14.3164Q10.8594-14.9316 9.23828-14.9316Q7.62695-14.9316 6.20117-14.3164Q4.77539-13.7012 3.69141-12.6074Q2.60742-11.5137 1.9873-10.0879Q1.36719-8.66211 1.36719-7.05078Q1.36719-5.43945 1.9873-4.01367Q2.60742-2.58789 3.69629-1.49414Q4.78516-0.400391 6.21094 0.214844Q7.63672 0.830078 9.24805 0.830078ZM9.24805-0.654297Q7.91992-0.654297 6.7627-1.14746Q5.60547-1.64062 4.73145-2.51953Q3.85742-3.39844 3.36426-4.56055Q2.87109-5.72266 2.87109-7.05078Q2.87109-8.37891 3.35938-9.54102Q3.84766-10.7031 4.72168-11.582Q5.5957-12.4609 6.75293-12.9541Q7.91016-13.4473 9.23828-13.4473Q10.5762-13.4473 11.7334-12.9541Q12.8906-12.4609 13.7695-11.582Q14.6484-10.7031 15.1465-9.54102Q15.6445-8.37891 15.6445-7.05078Q15.6445-5.72266 15.1514-4.56055Q14.6582-3.39844 13.7842-2.51953Q12.9102-1.64062 11.748-1.14746Q10.5859-0.654297 9.24805-0.654297ZM5.6543-7.05078Q5.6543-6.72852 5.85938-6.52832Q6.06445-6.32812 6.40625-6.32812L8.51562-6.32812L8.51562-4.20898Q8.51562-3.88672 8.71094-3.67676Q8.90625-3.4668 9.23828-3.4668Q9.56055-3.4668 9.77051-3.67676Q9.98047-3.88672 9.98047-4.20898L9.98047-6.32812L12.0898-6.32812Q12.4219-6.32812 12.627-6.52832Q12.832-6.72852 12.832-7.05078Q12.832-7.38281 12.627-7.58789Q12.4219-7.79297 12.0898-7.79297L9.98047-7.79297L9.98047-9.90234Q9.98047-10.2344 9.77051-10.4443Q9.56055-10.6543 9.23828-10.6543Q8.90625-10.6543 8.71094-10.4443Q8.51562-10.2344 8.51562-9.90234L8.51562-7.79297L6.40625-7.79297Q6.06445-7.79297 5.85938-7.58789Q5.6543-7.38281 5.6543-7.05078Z"/>
  </g>
  <g transform="matrix(1 0 0 1 281.867 1933)">
   <path d="M11.709 2.91016Q13.75 2.91016 15.5518 2.12891Q17.3535 1.34766 18.7305-0.0292969Q20.1074-1.40625 20.8887-3.20801Q21.6699-5.00977 21.6699-7.05078Q21.6699-9.0918 20.8887-10.8936Q20.1074-12.6953 18.7305-14.0723Q17.3535-15.4492 15.5469-16.2305Q13.7402-17.0117 11.6992-17.0117Q9.6582-17.0117 7.85645-16.2305Q6.05469-15.4492 4.68262-14.0723Q3.31055-12.6953 2.5293-10.8936Q1.74805-9.0918 1.74805-7.05078Q1.74805-5.00977 2.5293-3.20801Q3.31055-1.40625 4.6875-0.0292969Q6.06445 1.34766 7.86621 2.12891Q9.66797 2.91016 11.709 2.91016ZM11.709 1.25Q9.98047 1.25 8.47656 0.605469Q6.97266-0.0390625 5.83496-1.17676Q4.69727-2.31445 4.05762-3.81836Q3.41797-5.32227 3.41797-7.05078Q3.41797-8.7793 4.05762-10.2832Q4.69727-11.7871 5.83008-12.9297Q6.96289-14.0723 8.4668-14.7119Q9.9707-15.3516 11.6992-15.3516Q13.4277-15.3516 14.9316-14.7119Q16.4355-14.0723 17.5781-12.9297Q18.7207-11.7871 19.3652-10.2832Q20.0098-8.7793 20.0098-7.05078Q20.0098-5.32227 19.3701-3.81836Q18.7305-2.31445 17.5928-1.17676Q16.4551-0.0390625 14.9463 0.605469Q13.4375 1.25 11.709 1.25ZM7.17773-7.05078Q7.17773-6.69922 7.41211-6.47461Q7.64648-6.25 8.01758-6.25L10.8887-6.25L10.8887-3.36914Q10.8887-2.99805 11.1133-2.76855Q11.3379-2.53906 11.6895-2.53906Q12.0605-2.53906 12.29-2.76855Q12.5195-2.99805 12.5195-3.36914L12.5195-6.25L15.4004-6.25Q15.7715-6.25 16.001-6.47461Q16.2305-6.69922 16.2305-7.05078Q16.2305-7.42188 16.001-7.65137Q15.7715-7.88086 15.4004-7.88086L12.5195-7.88086L12.5195-10.752Q12.5195-11.1328 12.29-11.3623Q12.0605-11.5918 11.6895-11.5918Q11.3379-11.5918 11.1133-11.3574Q10.8887-11.123 10.8887-10.752L10.8887-7.88086L8.01758-7.88086Q7.63672-7.88086 7.40723-7.65137Q7.17773-7.42188 7.17773-7.05078Z"/>
  </g>
  <g transform="matrix(1 0 0 1 305.646 1933)">
   <path d="M14.9707 5.66406Q17.0605 5.66406 18.96 5.01465Q20.8594 4.36523 22.4512 3.19336Q24.043 2.02148 25.2197 0.429688Q26.3965-1.16211 27.0459-3.06641Q27.6953-4.9707 27.6953-7.05078Q27.6953-9.14062 27.0459-11.04Q26.3965-12.9395 25.2197-14.5312Q24.043-16.123 22.4512-17.2998Q20.8594-18.4766 18.9551-19.126Q17.0508-19.7754 14.9609-19.7754Q12.8711-19.7754 10.9717-19.126Q9.07227-18.4766 7.48535-17.2998Q5.89844-16.123 4.72168-14.5312Q3.54492-12.9395 2.90039-11.04Q2.25586-9.14062 2.25586-7.05078Q2.25586-4.9707 2.90527-3.06641Q3.55469-1.16211 4.72656 0.429688Q5.89844 2.02148 7.49023 3.19336Q9.08203 4.36523 10.9814 5.01465Q12.8809 5.66406 14.9707 5.66406ZM14.9707 3.84766Q13.1641 3.84766 11.5283 3.2959Q9.89258 2.74414 8.53516 1.74805Q7.17773 0.751953 6.17676-0.610352Q5.17578-1.97266 4.62891-3.6084Q4.08203-5.24414 4.08203-7.05078Q4.08203-8.86719 4.62891-10.5029Q5.17578-12.1387 6.17188-13.501Q7.16797-14.8633 8.52539-15.8594Q9.88281-16.8555 11.5186-17.4023Q13.1543-17.9492 14.9609-17.9492Q16.7773-17.9492 18.4131-17.4023Q20.0488-16.8555 21.4111-15.8594Q22.7734-14.8633 23.7695-13.501Q24.7656-12.1387 25.3174-10.5029Q25.8691-8.86719 25.8691-7.05078Q25.8789-5.24414 25.332-3.6084Q24.7852-1.97266 23.7842-0.610352Q22.7832 0.751953 21.4209 1.74805Q20.0586 2.74414 18.4229 3.2959Q16.7871 3.84766 14.9707 3.84766ZM9.19922-7.05078Q9.19922-6.66992 9.45801-6.4209Q9.7168-6.17188 10.1172-6.17188L14.0625-6.17188L14.0625-2.2168Q14.0625-1.81641 14.3115-1.55762Q14.5605-1.29883 14.9512-1.29883Q15.3516-1.29883 15.6104-1.55273Q15.8691-1.80664 15.8691-2.2168L15.8691-6.17188L19.8242-6.17188Q20.2246-6.17188 20.4785-6.4209Q20.7324-6.66992 20.7324-7.05078Q20.7324-7.46094 20.4785-7.71484Q20.2246-7.96875 19.8242-7.96875L15.8691-7.96875L15.8691-11.9141Q15.8691-12.3242 15.6104-12.583Q15.3516-12.8418 14.9512-12.8418Q14.5605-12.8418 14.3115-12.583Q14.0625-12.3242 14.0625-11.9141L14.0625-7.96875L10.1172-7.96875Q9.70703-7.96875 9.45312-7.71484Q9.19922-7.46094 9.19922-7.05078Z"/>
  </g>
  <text style="stroke:none;fill:black;font-family:sans-serif;font-size:13;font-weight:bold;" transform="matrix(1 0 0 1 263 1953)">Design Variations</text>
  <text style="stroke:none;fill:black;font-family:sans-serif;font-size:13;" transform="matrix(1 0 0 1 263 1971)">Symbols are supported in up to nine weights and three scales.</text>
  <text style="stroke:none;fill:black;font-family:sans-serif;font-size:13;" transform="matrix(1 0 0 1 263 1989)">For optimal layout with text and other symbols, vertically align</text>
  <text style="stroke:none;fill:black;font-family:sans-serif;font-size:13;" transform="matrix(1 0 0 1 263 2007)">symbols with the adjacent text.</text>
  <line style="fill:none;stroke:#00AEEF;stroke-width:0.5;opacity:1.0;" x1="776" x2="776" y1="1919" y2="1933"/>
  <g transform="matrix(1 0 0 1 776 1933)">
   <path d="M3.31055 0.15625Q3.70117 0.15625 3.91602-0.00976562Q4.13086-0.175781 4.26758-0.585938L5.52734-4.0332L11.2891-4.0332L12.5488-0.585938Q12.6855-0.175781 12.9004-0.00976562Q13.1152 0.15625 13.4961 0.15625Q13.8867 0.15625 14.1162-0.0585938Q14.3457-0.273438 14.3457-0.644531Q14.3457-0.869141 14.2383-1.17188L9.6582-13.3691Q9.48242-13.8184 9.17969-14.043Q8.87695-14.2676 8.4082-14.2676Q7.5-14.2676 7.17773-13.3789L2.59766-1.16211Q2.49023-0.859375 2.49023-0.634766Q2.49023-0.263672 2.70996-0.0537109Q2.92969 0.15625 3.31055 0.15625ZM6.00586-5.51758L8.37891-12.0898L8.42773-12.0898L10.8008-5.51758Z"/>
  </g>
  <line style="fill:none;stroke:#00AEEF;stroke-width:0.5;opacity:1.0;" x1="793.197" x2="793.197" y1="1919" y2="1933"/>
  <text style="stroke:none;fill:black;font-family:sans-serif;font-size:13;font-weight:bold;" transform="matrix(1 0 0 1 776 1953)">Margins</text>
  <text style="stroke:none;fill:black;font-family:sans-serif;font-size:13;" transform="matrix(1 0 0 1 776 1971)">Leading and trailing margins on the left and right side of each symbol</text>
  <text style="stroke:none;fill:black;font-family:sans-serif;font-size:13;" transform="matrix(1 0 0 1 776 1989)">can be adjusted by modifying the x-location of the margin guidelines.</text>
  <text style="stroke:none;fill:black;font-family:sans-serif;font-size:13;" transform="matrix(1 0 0 1 776 2007)">Modifications are automatically applied proportionally to all</text>
  <text style="stroke:none;fill:black;font-family:sans-serif;font-size:13;" transform="matrix(1 0 0 1 776 2025)">scales and weights.</text>
  <g transform="matrix(1 0 0 1 1289 1933)">
   <path d="M2.8418 1.86523L4.54102 3.57422Q5.18555 4.22852 5.90332 4.17969Q6.62109 4.13086 7.31445 3.35938L18.0078-8.42773L17.041-9.4043L6.42578 2.27539Q6.16211 2.57812 5.89355 2.61719Q5.625 2.65625 5.27344 2.30469L4.10156 1.14258Q3.75 0.791016 3.79395 0.522461Q3.83789 0.253906 4.14062-0.0195312L15.6152-10.8203L14.6387-11.7871L3.04688-0.898438Q2.30469-0.214844 2.25098 0.498047Q2.19727 1.21094 2.8418 1.86523ZM9.25781-16.3281Q8.94531-16.0254 8.90625-15.6348Q8.86719-15.2441 9.04297-14.9512Q9.21875-14.6777 9.55566-14.541Q9.89258-14.4043 10.3809-14.5215Q11.4746-14.7754 12.5977-14.7314Q13.7207-14.6875 14.7949-13.9844L14.209-12.5293Q13.9551-11.9043 14.0674-11.4404Q14.1797-10.9766 14.5801-10.5664L16.875-8.25195Q17.2363-7.88086 17.5781-7.82227Q17.9199-7.76367 18.3398-7.8418L19.4043-8.03711L20.0684-7.36328L20.0293-6.80664Q20-6.43555 20.1221-6.12305Q20.2441-5.81055 20.6055-5.44922L21.3672-4.70703Q21.7285-4.3457 22.1533-4.33105Q22.5781-4.31641 22.9297-4.66797L25.8398-7.58789Q26.1914-7.93945 26.1816-8.35449Q26.1719-8.76953 25.8105-9.13086L25.0391-9.89258Q24.6875-10.2539 24.3799-10.3857Q24.0723-10.5176 23.7109-10.4883L23.1348-10.4395L22.4902-11.0742L22.7344-12.1973Q22.832-12.6172 22.6953-12.9834Q22.5586-13.3496 22.1191-13.7891L19.9219-15.9766Q18.6719-17.2168 17.2607-17.8369Q15.8496-18.457 14.4189-18.4814Q12.9883-18.5059 11.665-17.959Q10.3418-17.4121 9.25781-16.3281ZM10.752-15.957Q11.6602-16.6211 12.7002-16.9043Q13.7402-17.1875 14.8047-17.085Q15.8691-16.9824 16.8701-16.5137Q17.8711-16.0449 18.7012-15.2051L21.1328-12.793Q21.3086-12.6172 21.3525-12.4512Q21.3965-12.2852 21.3379-12.0312L21.0156-10.5469L22.5195-9.0625L23.5059-9.12109Q23.6914-9.13086 23.7891-9.09668Q23.8867-9.0625 24.0332-8.91602L24.6094-8.33984L22.168-5.89844L21.5918-6.47461Q21.4453-6.62109 21.4062-6.71875Q21.3672-6.81641 21.377-7.01172L21.4453-7.98828L19.9512-9.47266L18.4277-9.21875Q18.1836-9.16992 18.042-9.2041Q17.9004-9.23828 17.7148-9.41406L15.7129-11.416Q15.5176-11.5918 15.4932-11.7529Q15.4688-11.9141 15.5859-12.1875L16.4648-14.2773Q15.293-15.3711 13.8281-15.791Q12.3633-16.2109 10.8398-15.7617Q10.7227-15.7324 10.6885-15.8057Q10.6543-15.8789 10.752-15.957Z"/>
  </g>
  <text style="stroke:none;fill:black;font-family:sans-serif;font-size:13;font-weight:bold;" transform="matrix(1 0 0 1 1289 1953)">Exporting</text>
  <text style="stroke:none;fill:black;font-family:sans-serif;font-size:13;" transform="matrix(1 0 0 1 1289 1971)">Symbols should be outlined when exporting to ensure the</text>
  <text style="stroke:none;fill:black;font-family:sans-serif;font-size:13;" transform="matrix(1 0 0 1 1289 1989)">design is preserved when submitting to Xcode.</text>
  <text id="template-version" style="stroke:none;fill:black;font-family:sans-serif;font-size:13;text-anchor:end;" transform="matrix(1 0 0 1 3036 1933)">Template v.3.0</text>
  <text style="stroke:none;fill:black;font-family:sans-serif;font-size:13;text-anchor:end;" transform="matrix(1 0 0 1 3036 1951)">Requires Xcode 13 or greater</text>
  <text id="descriptive-name" style="stroke:none;fill:black;font-family:sans-serif;font-size:13;text-anchor:end;" transform="matrix(1 0 0 1 3036 1969)">Generated from key</text>
  <text style="stroke:none;fill:black;font-family:sans-serif;font-size:13;text-anchor:end;" transform="matrix(1 0 0 1 3036 1987)">Typeset at 100 points</text>
  <text style="stroke:none;fill:black;font-family:sans-serif;font-size:13;" transform="matrix(1 0 0 1 263 726)">Small</text>
  <text style="stroke:none;fill:black;font-family:sans-serif;font-size:13;" transform="matrix(1 0 0 1 263 1156)">Medium</text>
  <text style="stroke:none;fill:black;font-family:sans-serif;font-size:13;" transform="matrix(1 0 0 1 263 1586)">Large</text>
 </g>
 <g id="Guides">
  <g id="H-reference" style="fill:#27AAE1;stroke:none;" transform="matrix(1 0 0 1 339 696)">
   <path d="M0.993347 0L3.6377 0L29.3282-67.1326L30.0301-67.1326L30.0301-70.459L28.1227-70.459ZM11.6882-24.4797L46.9818-24.4797L46.2311-26.7288L12.4382-26.7288ZM55.1193 0L57.7637 0L30.6381-70.459L29.4327-70.459L29.4327-67.1326Z"/>
  </g>
  <line id="Baseline-S" style="fill:none;stroke:#27AAE1;opacity:1;stroke-width:0.5;" x1="263" x2="3036" y1="696" y2="696"/>
  <line id="Capline-S" style="fill:none;stroke:#27AAE1;opacity:1;stroke-width:0.5;" x1="263" x2="3036" y1="625.541" y2="625.541"/>
  <g id="H-reference" style="fill:#27AAE1;stroke:none;" transform="matrix(1 0 0 1 339 1126)">
   <path d="M0.993347 0L3.6377 0L29.3282-67.1326L30.0301-67.1326L30.0301-70.459L28.1227-70.459ZM11.6882-24.4797L46.9818-24.4797L46.2311-26.7288L12.4382-26.7288ZM55.1193 0L57.7637 0L30.6381-70.459L29.4327-70.459L29.4327-67.1326Z"/>
  </g>
  <line id="Baseline-M" style="fill:none;stroke:#27AAE1;opacity:1;stroke-width:0.5;" x1="263" x2="3036" y1="1126" y2="1126"/>
  <line id="Capline-M" style="fill:none;stroke:#27AAE1;opacity:1;stroke-width:0.5;" x1="263" x2="3036" y1="1055.54" y2="1055.54"/>
  <g id="H-reference" style="fill:#27AAE1;stroke:none;" transform="matrix(1 0 0 1 339 1556)">
   <path d="M0.993347 0L3.6377 0L29.3282-67.1326L30.0301-67.1326L30.0301-70.459L28.1227-70.459ZM11.6882-24.4797L46.9818-24.4797L46.2311-26.7288L12.4382-26.7288ZM55.1193 0L57.7637 0L30.6381-70.459L29.4327-70.459L29.4327-67.1326Z"/>
  </g>
  <line id="Baseline-L" style="fill:none;stroke:#27AAE1;opacity:1;stroke-width:0.5;" x1="263" x2="3036" y1="1556" y2="1556"/>
  <line id="Capline-L" style="fill:none;stroke:#27AAE1;opacity:1;stroke-width:0.5;" x1="263" x2="3036" y1="1485.54" y2="1485.54"/>
  <line id="left-margin-Regular-M" style="fill:none;stroke:#00AEEF;stroke-width:0.5;opacity:1.0;" x1="1404.74" x2="1404.74" y1="1030.79" y2="1150.12"/>
  <line id="right-margin-Regular-M" style="fill:none;stroke:#00AEEF;stroke-width:0.5;opacity:1.0;" x1="1494.95" x2="1494.95" y1="1030.79" y2="1150.12"/>
 </g>
 <g id="Symbols">
  <g id="Black-L" transform="matrix(1 0 0 1 2872.38 1556)">
   <path d="M54.6839 43.0377Q57.6103 45.5303 61.1513 45.6601Q64.6924 45.79 67.3655 43.1169L86.8259 23.6565Q89.4794 21.0042 89.4398 17.3535Q89.4001 13.7028 86.7467 10.9934L79.062 3.25144L91.2502-8.99399Q93.8441-11.6242 93.8623-15.3146Q93.8805-19.0049 91.227-21.6571L80.7312-32.1749Q92.921-38.9434 99.4426-49.3084Q105.964-59.6733 105.964-72.102Q105.964-81.4207 102.487-89.557Q99.0105-97.6932 92.8372-103.856Q86.6639-110.018 78.5276-113.485Q70.3914-116.952 61.0143-116.952Q51.636-116.952 43.4992-113.485Q35.3624-110.018 29.2-103.856Q23.0377-97.6932 19.5608-89.557Q16.084-81.4207 16.084-72.102Q16.084-59.1508 22.8107-48.2669Q29.5373-37.383 41.0946-31.6856L41.0946 26.2872Q41.0946 28.3901 41.8682 30.5935Q42.6418 32.7968 44.3914 34.3088ZM61.0143 27.8101L54.6521 21.5062L54.6521-43.0915Q48.1867-44.3578 42.8786-48.4767Q37.5704-52.5955 34.4418-58.7419Q31.3132-64.8882 31.3132-72.102Q31.3132-80.2737 35.3181-86.9922Q39.3229-93.7107 46.0816-97.6765Q52.8403-101.642 61.0143-101.642Q69.2652-101.642 75.9551-97.6771Q82.6449-93.7119 86.6393-86.9934Q90.6337-80.2749 90.6337-72.102Q90.6337-64.9102 87.3854-58.7627Q84.137-52.6151 78.3636-48.4215Q72.5902-44.2278 64.8965-42.9275L64.8965-26.3076L75.8421-15.2451L64.5534-4.11721L64.5534 10.4592L71.4775 17.2445ZM61.0143-72.3534Q65.3651-72.3534 68.4283-75.4465Q71.4915-78.5395 71.4915-82.8318Q71.4915-87.163 68.4283-90.2262Q65.3651-93.2894 61.0143-93.2894Q56.6611-93.2894 53.6089-90.2664Q50.5567-87.2434 50.5567-82.8318Q50.5567-78.5395 53.6199-75.4465Q56.6832-72.3534 61.0143-72.3534Z"/>
  </g>
  <g id="Heavy-L" transform="matrix(1 0 0 1 2576.43 1556)">
   <path d="M54.4622 42.4993Q57.126 44.7745 60.3664 44.9047Q63.6068 45.0348 66.0675 42.5741L85.5235 23.1181Q87.9596 20.6876 87.9222 17.3444Q87.8848 14.0013 85.4487 11.5317L77.2074 3.25144L89.9522-9.53235Q92.3381-11.9271 92.3425-15.3077Q92.3469-18.6882 89.9108-21.1188L78.6829-32.3823Q91.0979-39.0107 97.769-49.3283Q104.44-59.6458 104.44-72.102Q104.44-81.2624 101.022-89.2607Q97.6038-97.2591 91.5276-103.317Q85.4514-109.376 77.4531-112.782Q69.4548-116.187 60.2497-116.187Q51.0391-116.187 43.038-112.782Q35.0369-109.376 28.9785-103.317Q22.9202-97.2591 19.5021-89.2607Q16.084-81.2624 16.084-72.102Q16.084-59.2319 22.8198-48.4702Q29.5556-37.7085 41.0946-32.1782L41.0946 26.1895Q41.0946 28.1479 41.8092 30.1996Q42.5237 32.2512 44.1741 33.6771ZM60.2497 28.6783L53.6921 22.1652L53.6921-42.4948Q47.0018-43.8747 41.6179-48.0984Q36.2339-52.322 33.0868-58.5549Q29.9397-64.7878 29.9397-72.102Q29.9397-80.4419 34.0265-87.2944Q38.1132-94.1469 45.0059-98.1991Q51.8986-102.251 60.2497-102.251Q68.6644-102.251 75.4974-98.2019Q82.3304-94.1526 86.402-87.3001Q90.4736-80.4475 90.4736-72.102Q90.4736-64.8236 87.2233-58.5851Q83.973-52.3466 78.1607-48.0351Q72.3484-43.7237 64.5502-42.2518L64.5502-26.7299L75.9457-15.2451L64.0877-3.5479L64.0877 9.88994L71.5673 17.2445ZM60.2497-72.1887Q64.6843-72.1887 67.8147-75.3443Q70.9452-78.4999 70.9452-82.8898Q70.9452-87.2998 67.8147-90.4302Q64.6843-93.5607 60.2497-93.5607Q55.804-93.5607 52.6914-90.4704Q49.5789-87.3802 49.5789-82.8898Q49.5789-78.4999 52.7093-75.3443Q55.8398-72.1887 60.2497-72.1887Z"/>
  </g>
  <g id="Bold-L" transform="matrix(1 0 0 1 2280.75 1556)">
   <path d="M54.1632 41.7713Q56.4745 43.7551 59.3049 43.8816Q62.1354 44.0081 64.305 41.8384L83.7533 22.3901Q85.8982 20.2583 85.8646 17.3329Q85.8309 14.4074 83.6862 12.2597L74.6938 3.25144L88.1898-10.2604Q90.2921-12.3409 90.2811-15.3Q90.2701-18.259 88.1252-20.3908L75.8938-32.6732Q88.6302-39.1102 95.5006-49.3626Q102.371-59.6149 102.371-72.102Q102.371-81.0479 99.0333-88.8585Q95.6957-96.669 89.7535-102.586Q83.8113-108.502 76.0007-111.827Q68.1902-115.153 59.2151-115.153Q50.2269-115.153 42.4097-111.827Q34.5924-108.502 28.6758-102.586Q22.7593-96.669 19.4216-88.8585Q16.084-81.0479 16.084-72.102Q16.084-59.3468 22.8313-48.7499Q29.5787-38.153 41.0946-32.8524L41.0946 26.0293Q41.0946 27.7886 41.7324 29.6371Q42.3703 31.4856 43.8828 32.7965ZM59.2151 29.7913L52.3371 22.9425L52.3371-41.7496Q45.3926-43.2755 39.9238-47.6297Q34.4551-51.9839 31.2886-58.3244Q28.1222-64.6649 28.1222-72.102Q28.1222-80.6568 32.3126-87.682Q36.503-94.7072 43.5684-98.8707Q50.6339-103.034 59.2151-103.034Q67.8372-103.034 74.8543-98.8773Q81.8715-94.7206 86.0429-87.6954Q90.2142-80.6701 90.2142-72.102Q90.2142-64.7161 86.9564-58.3624Q83.6985-52.0087 77.8065-47.5401Q71.9145-43.0715 63.9113-41.3621L63.9113-27.4164L76.0242-15.2451L63.3847-2.76652L63.3847 9.10856L71.6303 17.2445ZM59.2151-72.0632Q63.7273-72.0632 66.9236-75.2808Q70.1199-78.4983 70.1199-82.9814Q70.1199-87.4688 66.9236-90.6651Q63.7273-93.8614 59.2151-93.8614Q54.6764-93.8614 51.5058-90.7053Q48.3351-87.5492 48.3351-82.9814Q48.3351-78.4983 51.5314-75.2808Q54.7276-72.0632 59.2151-72.0632Z"/>
  </g>
  <g id="Semibold-L" transform="matrix(1 0 0 1 1984.75 1556)">
   <path d="M53.9572 41.2694Q56.0253 43.0524 58.5732 43.1763Q61.121 43.3002 63.09 41.3312L82.533 21.8882Q84.4771 19.9625 84.4461 17.3249Q84.415 14.6873 82.4712 12.7616L72.961 3.25144L86.9747-10.7623Q88.8816-12.6262 88.86-15.2946Q88.8383-17.9631 86.8943-19.8889L73.9709-32.8737Q86.9289-39.1787 93.9367-49.3862Q100.945-59.5937 100.945-72.102Q100.945-80.9 97.6624-88.5811Q94.3802-96.2623 88.5304-102.081Q82.6807-107.9 74.9995-111.17Q67.3184-114.439 58.5018-114.439Q49.667-114.439 41.9765-111.17Q34.286-107.9 28.4672-102.081Q22.6483-96.2623 19.3662-88.5811Q16.084-80.9 16.084-72.102Q16.084-59.426 22.8393-48.9427Q29.5946-38.4594 41.0946-33.3172L41.0946 25.9189Q41.0946 27.5409 41.6795 29.2494Q42.2645 30.9578 43.682 32.1894ZM58.5018 30.5587L51.403 23.4784L51.403-41.2359Q44.2832-42.8623 38.756-47.3066Q33.2287-51.7508 30.049-58.1655Q26.8692-64.5801 26.8692-72.102Q26.8692-80.805 31.1311-87.9492Q35.393-95.0935 42.5774-99.3337Q49.7619-103.574 58.5018-103.574Q67.2669-103.574 74.411-99.343Q81.5551-95.1121 85.7953-87.9679Q90.0354-80.8236 90.0354-72.102Q90.0354-64.6419 86.7724-58.2088Q83.5093-51.7757 77.5624-47.1988Q71.6154-42.6218 63.4708-40.7488L63.4708-27.8897L76.0782-15.2451L62.9001-2.22783L62.9001 8.56987L71.6737 17.2445ZM58.5018-71.9768Q63.0676-71.9768 66.3092-75.237Q69.5509-78.4973 69.5509-83.0445Q69.5509-87.5853 66.3092-90.827Q63.0676-94.0687 58.5018-94.0687Q53.8991-94.0687 50.6884-90.8672Q47.4776-87.6658 47.4776-83.0445Q47.4776-78.4973 50.7193-75.237Q53.961-71.9768 58.5018-71.9768Z"/>
  </g>
  <g id="Medium-L" transform="matrix(1 0 0 1 1688.58 1556)">
   <path d="M53.8009 40.8889Q55.6848 42.5195 58.0183 42.6415Q60.3519 42.7635 62.1687 40.9466L81.6077 21.5077Q83.3996 19.7381 83.3705 17.3189Q83.3414 14.8996 81.5499 13.1422L71.6471 3.25144L86.0534-11.1428Q87.8121-12.8425 87.7824-15.2906Q87.7527-17.7387 85.9609-19.5083L72.513-33.0258Q85.639-39.2307 92.751-49.4041Q99.863-59.5775 99.863-72.102Q99.863-80.7878 96.6229-88.3709Q93.3828-95.9539 87.6031-101.699Q81.8234-107.443 74.2403-110.671Q66.6573-113.899 57.961-113.899Q49.2424-113.899 41.648-110.671Q34.0537-107.443 28.309-101.699Q22.5642-95.9539 19.3241-88.3709Q16.084-80.7878 16.084-72.102Q16.084-59.486 22.8453-49.0888Q29.6067-38.6917 41.0946-33.6697L41.0946 25.8352Q41.0946 27.3531 41.6394 28.9554Q42.1843 30.5576 43.5298 31.729ZM57.961 31.1405L50.6947 23.8847L50.6947-40.8464Q43.442-42.5491 37.8705-47.0616Q32.2989-51.5741 29.109-58.045Q25.9191-64.5158 25.9191-72.102Q25.9191-80.9173 30.2352-88.1519Q34.5513-95.3864 41.826-99.6847Q49.1008-103.983 57.961-103.983Q66.8344-103.983 74.0748-99.6961Q81.3153-95.409 85.6075-88.1745Q89.8998-80.94 89.8998-72.102Q89.8998-64.5857 86.6328-58.0924Q83.3659-51.5991 77.3773-46.94Q71.3886-42.2809 63.1368-40.2837L63.1368-28.2486L76.1192-15.2451L62.5326-1.81938L62.5326 8.16142L71.7066 17.2445ZM57.961-71.9112Q62.5673-71.9112 65.8434-75.2038Q69.1195-78.4965 69.1195-83.0923Q69.1195-87.6737 65.8434-90.9498Q62.5673-94.2259 57.961-94.2259Q53.3097-94.2259 50.0686-90.99Q46.8275-87.7541 46.8275-83.0923Q46.8275-78.4965 50.1036-75.2038Q53.3796-71.9112 57.961-71.9112Z"/>
  </g>
  <g id="Regular-L" transform="matrix(1 0 0 1 1392.58 1556)">
   <path d="M53.5971 40.3925Q55.2406 41.8245 57.2946 41.9439Q59.3487 42.0634 60.967 40.445L80.4008 21.0113Q81.994 19.4454 81.9675 17.311Q81.941 15.1765 80.3482 13.6386L69.9332 3.25144L84.8518-11.6392Q86.4171-13.1246 86.3769-15.2854Q86.3367-17.4461 84.7435-19.0119L70.6113-33.2241Q83.9565-39.2985 91.2044-49.4275Q98.4523-59.5565 98.4523-72.102Q98.4523-80.6416 95.267-88.0966Q92.0818-95.5516 86.3935-101.2Q80.7051-106.848 73.2501-110.02Q65.7951-113.193 57.2556-113.193Q48.6886-113.193 41.2196-110.02Q33.7507-106.848 28.1026-101.2Q22.4545-95.5516 19.2692-88.0966Q16.084-80.6416 16.084-72.102Q16.084-59.5643 22.8532-49.2795Q29.6224-38.9947 41.0946-34.1294L41.0946 25.726Q41.0946 27.1082 41.5871 28.5719Q42.0797 30.0356 43.3312 31.1286ZM57.2556 31.8994L49.7709 24.4147L49.7709-40.3383Q42.3448-42.1405 36.7154-46.7421Q31.0861-51.3436 27.883-57.8878Q24.6799-64.432 24.6799-72.102Q24.6799-81.0639 29.0667-88.4161Q33.4534-95.7684 40.8459-100.143Q48.2384-104.517 57.2556-104.517Q66.2704-104.517 73.6364-100.157Q81.0024-95.7963 85.3627-88.444Q89.7229-81.0917 89.7229-72.102Q89.7229-64.5124 86.4508-57.9406Q83.1788-51.3687 77.1358-46.6024Q71.0928-41.8362 62.7012-39.6771L62.7012-28.7167L76.1727-15.2451L62.0533-1.28662L62.0533 7.62866L71.7496 17.2445ZM57.2556-71.8257Q61.9149-71.8257 65.2358-75.1606Q68.5568-78.4955 68.5568-83.1548Q68.5568-87.789 65.2358-91.1099Q61.9149-94.4309 57.2556-94.4309Q52.541-94.4309 49.2602-91.1501Q45.9794-87.8694 45.9794-83.1548Q45.9794-78.4955 49.3004-75.1606Q52.6214-71.8257 57.2556-71.8257Z"/>
  </g>
  <g id="Light-L" transform="matrix(1 0 0 1 1097.16 1556)">
   <path d="M53.2344 39.4956Q54.4582 40.5838 55.9873 40.6748Q57.5164 40.7657 58.7532 39.5289L78.1677 20.1144Q79.4176 18.9109 79.4005 17.3014Q79.3835 15.6918 78.1344 14.5354L66.8033 3.25144L82.638-12.5361Q83.8407-13.6592 83.8005-15.2854Q83.7603-16.9115 82.5104-18.1151L67.0613-33.6438Q80.9029-39.4704 88.3797-49.5134Q95.8565-59.5565 95.8565-72.102Q95.8565-80.3745 92.7763-87.5909Q89.6961-94.8074 84.1891-100.274Q78.6821-105.741 71.4657-108.828Q64.2492-111.914 55.9768-111.914Q47.658-111.914 40.418-108.828Q33.178-105.741 27.7112-100.274Q22.2445-94.8074 19.1642-87.5909Q16.084-80.3745 16.084-72.102Q16.084-59.7362 22.8628-49.6518Q29.6417-39.5674 41.0946-35.0073L41.0946 25.3633Q41.0946 26.4784 41.5108 27.7036Q41.9271 28.9287 42.9878 29.888ZM55.9768 32.9111L47.7668 24.7011L47.7668-39.7849Q40.3218-41.7208 34.6924-46.4177Q29.063-51.1146 25.8694-57.7351Q22.6758-64.3556 22.6758-72.102Q22.6758-81.2546 27.1485-88.7692Q31.6212-96.2837 39.176-100.763Q46.7307-105.242 55.9768-105.242Q65.1635-105.242 72.7012-100.787Q80.2389-96.3308 84.6946-88.8163Q89.1502-81.3018 89.1502-72.102Q89.1502-64.4361 85.84-57.7688Q82.5297-51.1016 76.2291-46.154Q69.9285-41.2064 60.9071-38.7228L60.9071-30.2436L75.9056-15.2451L60.7556-0.256032L60.7556 6.59807L71.4825 17.2445ZM55.9768-72.2454Q60.5216-72.2454 63.7757-75.5231Q67.0298-78.8007 67.0298-83.3456Q67.0298-87.9034 63.7757-91.1575Q60.5216-94.4116 55.9768-94.4116Q51.3385-94.4116 48.1246-91.1977Q44.9107-87.9839 44.9107-83.3456Q44.9107-78.8007 48.1648-75.5231Q51.4189-72.2454 55.9768-72.2454Z"/>
  </g>
  <g id="Thin-L" transform="matrix(1 0 0 1 802.168 1556)">
   <path d="M52.7548 38.3094Q53.4234 38.943 54.2583 38.9962Q55.0932 39.0494 55.8253 38.3173L75.2144 18.9282Q76.01 18.204 76.0055 17.2886Q76.0009 16.3733 75.2065 15.7216L62.6638 3.25144L79.71-13.7223Q80.4331-14.3661 80.3929-15.2854Q80.3527-16.2046 79.557-16.9289L62.3661-34.199Q76.8642-39.6977 84.6439-49.6271Q92.4235-59.5565 92.4235-72.102Q92.4235-80.0212 89.4822-86.9221Q86.5408-93.8231 81.2737-99.05Q76.0065-104.277 69.1056-107.25Q62.2047-110.223 54.2855-110.223Q46.295-110.223 39.3578-107.25Q32.4206-104.277 27.1936-99.05Q21.9667-93.8231 19.0253-86.9221Q16.084-80.0212 16.084-72.102Q16.084-59.9635 22.8755-50.1442Q29.6671-40.3248 41.0946-36.1685L41.0946 24.8837Q41.0946 25.6455 41.4099 26.5551Q41.7252 27.4648 42.5336 28.2472ZM54.2855 34.2491L45.1162 25.0798L45.1162-39.0529Q37.6462-41.1656 32.0168-45.9887Q26.3874-50.8118 23.2063-57.5333Q20.0252-64.2547 20.0252-72.102Q20.0252-81.507 24.6116-89.2361Q29.198-96.9652 36.9673-101.583Q44.7366-106.201 54.2855-106.201Q63.6995-106.201 71.4643-101.62Q79.2291-97.0378 83.811-89.3087Q88.3928-81.5795 88.3928-72.102Q88.3928-64.3351 85.0321-57.5417Q81.6714-50.7483 75.03-45.5609Q68.3886-40.3735 58.5343-37.4607L58.5343-32.2632L75.5523-15.2451L59.0393 1.107L59.0393 5.23504L71.1292 17.2445ZM54.2855-72.8005Q58.6789-72.8005 61.8446-76.0025Q65.0103-79.2045 65.0103-83.5979Q65.0103-88.0548 61.8446-91.2205Q58.6789-94.3862 54.2855-94.3862Q49.7481-94.3862 46.6227-91.2607Q43.4972-88.1353 43.4972-83.5979Q43.4972-79.2045 46.6629-76.0025Q49.8286-72.8005 54.2855-72.8005Z"/>
  </g>
  <g id="Ultralight-L" transform="matrix(1 0 0 1 506.336 1556)">
   <path d="M52.5091 37.7019Q52.8934 38.1026 53.3727 38.1365Q53.852 38.1703 54.3256 37.6967L73.7016 18.3207Q74.2646 17.8418 74.2665 17.2821Q74.2684 16.7224 73.7068 16.3292L60.5435 3.25144L78.2103-14.3298Q78.6877-14.7282 78.6475-15.2854Q78.6073-15.8425 78.0443-16.3213L59.9613-34.4833Q74.7957-39.8141 82.7304-49.6853Q90.6651-59.5565 90.6651-72.102Q90.6651-79.8403 87.7949-86.5796Q84.9247-93.3189 79.7804-98.423Q74.6361-103.527 67.8968-106.442Q61.1575-109.357 53.4192-109.357Q45.5968-109.357 38.8147-106.442Q32.0326-103.527 26.9285-98.423Q21.8244-93.3189 18.9542-86.5796Q16.084-79.8403 16.084-72.102Q16.084-60.0799 22.8821-50.3964Q29.6801-40.7128 41.0946-36.7632L41.0946 24.638Q41.0946 25.2189 41.3582 25.9669Q41.6218 26.7149 42.3009 27.4068ZM53.4192 34.9344L43.7586 25.2738L43.7586-38.678Q36.2758-40.8813 30.6464-45.769Q25.017-50.6568 21.8423-57.4299Q18.6676-64.203 18.6676-72.102Q18.6676-81.6362 23.3122-89.4753Q27.9568-97.3143 35.836-102.004Q43.7153-106.693 53.4192-106.693Q62.9497-106.693 70.8308-102.046Q78.7119-97.3999 83.3584-89.5609Q88.0049-81.7218 88.0049-72.102Q88.0049-64.2834 84.6183-57.4254Q81.2317-50.5674 74.4158-45.2571Q67.5999-39.9468 57.319-36.8143L57.319-33.2976L75.3714-15.2451L58.1603 1.80514L58.1603 4.5369L70.9483 17.2445ZM53.4192-73.0849Q57.7351-73.0849 60.8555-76.2481Q63.9759-79.4113 63.9759-83.7271Q63.9759-88.1324 60.8555-91.2528Q57.7351-94.3732 53.4192-94.3732Q48.9336-94.3732 45.8534-91.293Q42.7732-88.2128 42.7732-83.7271Q42.7732-79.4113 45.8936-76.2481Q49.014-73.0849 53.4192-73.0849Z"/>
  </g>
  <g id="Black-M" transform="matrix(1 0 0 1 2885.64 1126)">
   <path d="M42.5074 25.7486Q44.9433 27.8199 47.874 27.9164Q50.8047 28.0129 53.0065 25.8111L68.0845 10.7331Q70.2805 8.53687 70.2492 5.51531Q70.2179 2.49376 68.0219 0.240116L62.4225-5.4167L71.511-14.5626Q73.6501-16.7536 73.6761-19.8065Q73.702-22.8593 71.506-25.0556L63.8252-32.7416Q73.1429-38.0722 78.0981-46.1315Q83.0532-54.1909 83.0532-63.7962Q83.0532-71.1156 80.3233-77.5053Q77.5933-83.895 72.7517-88.734Q67.9101-93.573 61.5204-96.3001Q55.1307-99.0271 47.7542-99.0271Q40.3779-99.0271 33.9884-96.3001Q27.5989-93.573 22.7598-88.734Q17.9208-83.895 15.1909-77.5053Q12.4609-71.1156 12.4609-63.7962Q12.4609-53.7159 17.6658-45.2058Q22.8707-36.6958 31.8377-32.1795L31.8377 12.4649Q31.8377 14.1822 32.4774 15.9872Q33.1171 17.7923 34.5321 19.0195ZM47.7542 13.0008L42.8948 8.19852L42.8948-41.7584Q38.0766-42.6599 34.0293-45.7738Q29.982-48.8877 27.5753-53.5855Q25.1686-58.2833 25.1686-63.7962Q25.1686-70.0084 28.2125-75.1203Q31.2565-80.2322 36.3995-83.2447Q41.5425-86.2572 47.7542-86.2572Q54.029-86.2572 59.1122-83.2445Q64.1954-80.2319 67.2366-75.12Q70.2778-70.0081 70.2778-63.7962Q70.2778-58.2885 67.7576-53.591Q65.2374-48.8935 60.7631-45.7212Q56.2888-42.5488 50.3325-41.6449L50.3325-28.1613L58.6329-19.7468L50.2366-11.4751L50.2366 0.51714L55.2632 5.42432ZM47.7542-64.1894Q51.0374-64.1894 53.3438-66.5242Q55.6501-68.859 55.6501-72.0851Q55.6501-75.3625 53.3438-77.6689Q51.0374-79.9753 47.7542-79.9753Q44.4715-79.9753 42.1678-77.7Q39.864-75.4248 39.864-72.0851Q39.864-68.859 42.1704-66.5242Q44.4768-64.1894 47.7542-64.1894Z"/>
  </g>
  <g id="Heavy-M" transform="matrix(1 0 0 1 2589.56 1126)">
   <path d="M42.3241 25.305Q44.542 27.1956 47.2273 27.295Q49.9125 27.3944 51.9418 25.365L67.0173 10.2896Q69.0325 8.27661 69.0025 5.50729Q68.9724 2.73796 66.9573 0.683664L60.8982-5.4167L70.4463-15.0061Q72.4156-17.0004 72.4281-19.7997Q72.4406-22.5991 70.4253-24.612L62.1504-32.9056Q71.6424-38.1222 76.7225-46.1431Q81.8027-54.1639 81.8027-63.7962Q81.8027-70.9855 79.1205-77.2624Q76.4383-83.5393 71.6749-88.2934Q66.9114-93.0474 60.6346-95.7226Q54.3577-98.3977 47.1247-98.3977Q39.8895-98.3977 33.6115-95.7226Q27.3335-93.0474 22.5794-88.2934Q17.8253-83.5393 15.1431-77.2624Q12.4609-70.9855 12.4609-63.7962Q12.4609-53.7794 17.6739-45.3702Q22.8868-36.9611 31.8377-32.58L31.8377 12.4029Q31.8377 14.0035 32.4268 15.6823Q33.0158 17.361 34.3514 18.5165ZM47.1247 13.7562L42.1412 8.8163L42.1412-41.2261Q37.1048-42.2264 32.9834-45.4339Q28.862-48.6415 26.4364-53.4168Q24.0108-58.1922 24.0108-63.7962Q24.0108-70.1552 27.1269-75.3832Q30.2429-80.6111 35.502-83.6983Q40.7611-86.7855 47.1247-86.7855Q53.5438-86.7855 58.7511-83.6995Q63.9583-80.6134 67.0662-75.3855Q70.1741-70.1575 70.1741-63.7962Q70.1741-58.2109 67.6555-53.4332Q65.137-48.6556 60.6484-45.3849Q56.1598-42.1141 50.1596-41.0724L50.1596-28.4332L58.7588-19.7468L49.9011-11.0137L49.9011 0.0556793L55.3756 5.42432ZM47.1247-63.9897Q50.5004-63.9897 52.8787-66.3909Q55.2569-68.7921 55.2569-72.1241Q55.2569-75.4857 52.8787-77.8639Q50.5004-80.2422 47.1247-80.2422Q43.7445-80.2422 41.3756-77.8951Q39.0067-75.548 39.0067-72.1241Q39.0067-68.7921 41.3849-66.3909Q43.7632-63.9897 47.1247-63.9897Z"/>
  </g>
  <g id="Bold-M" transform="matrix(1 0 0 1 2293.55 1126)">
   <path d="M42.119 24.8088Q44.0932 26.4972 46.5038 26.5998Q48.9144 26.7025 50.7509 24.866L65.8234 9.79341Q67.6364 7.98547 67.6078 5.49831Q67.5792 3.01114 65.7663 1.17984L59.1931-5.4167L69.2554-15.5023Q71.0347-17.2765 71.0321-19.7922Q71.0294-22.3079 69.2164-24.1159L60.2768-33.0891Q69.9638-38.1781 75.1838-46.1559Q80.4037-54.1338 80.4037-63.7962Q80.4037-70.84 77.775-76.9907Q75.1462-83.1413 70.4702-87.8004Q65.7943-92.4595 59.6436-95.0765Q53.4929-97.6935 46.4206-97.6935Q39.3431-97.6935 33.1899-95.0765Q27.0366-92.4595 22.3776-87.8004Q17.7185-83.1413 15.0897-76.9907Q12.4609-70.84 12.4609-63.7962Q12.4609-53.8503 17.6828-45.5542Q22.9048-37.258 31.8377-33.0282L31.8377 12.3334Q31.8377 13.8036 32.3701 15.3411Q32.9025 16.8786 34.1492 17.9537ZM46.4206 14.6012L41.2982 9.50737L41.2982-40.6306Q36.0178-41.7414 31.8135-45.0537Q27.6092-48.366 25.1624-53.2281Q22.7156-58.0903 22.7156-63.7962Q22.7156-70.3195 25.9124-75.6773Q29.1092-81.035 34.4981-84.2058Q39.887-87.3766 46.4206-87.3766Q53.0011-87.3766 58.3471-84.2084Q63.6932-81.0402 66.8757-75.6824Q70.0581-70.3247 70.0581-63.7962Q70.0581-58.1241 67.5414-53.2568Q65.0247-48.3895 60.5201-45.0086Q56.0154-41.6278 49.9661-40.432L49.9661-28.7374L58.8996-19.7468L49.5257-10.4975L49.5257-0.460531L55.5014 5.42432ZM46.4206-63.7662Q49.8997-63.7662 52.3584-66.2417Q54.817-68.7172 54.817-72.1678Q54.817-75.6234 52.3584-78.0821Q49.8997-80.5408 46.4206-80.5408Q42.9312-80.5408 40.4894-78.1132Q38.0476-75.6857 38.0476-72.1678Q38.0476-68.7172 40.5063-66.2417Q42.965-63.7662 46.4206-63.7662Z"/>
  </g>
  <g id="Semibold-M" transform="matrix(1 0 0 1 1997.32 1126)">
   <path d="M41.9776 24.4668Q43.7837 26.0157 46.005 26.1206Q48.2263 26.2255 49.9298 24.5219L65.0004 9.45135Q66.674 7.78477 66.6464 5.49212Q66.6188 3.19947 64.9453 1.52189L58.0177-5.4167L68.4343-15.8444Q70.0826-17.4668 70.0696-19.787Q70.0566-22.1072 68.383-23.7738L58.9852-33.2156Q68.8066-38.2166 74.123-46.1648Q79.4393-54.113 79.4393-63.7962Q79.4393-70.7397 76.8474-76.8033Q74.2554-82.867 69.6398-87.4606Q65.0241-92.0542 58.9605-94.6311Q52.8968-97.2081 45.9352-97.2081Q38.9665-97.2081 32.8992-94.6311Q26.832-92.0542 22.2384-87.4606Q17.6448-82.867 15.0529-76.8033Q12.4609-70.7397 12.4609-63.7962Q12.4609-53.8993 17.689-45.681Q22.9171-37.4626 31.8377-33.3371L31.8377 12.2856Q31.8377 13.6658 32.331 15.1059Q32.8244 16.546 34.0098 17.5657ZM45.9352 15.1837L40.717 9.98379L40.717-40.2202Q35.2685-41.4071 31.007-44.7916Q26.7455-48.1761 24.2841-53.0981Q21.8227-58.0201 21.8227-63.7962Q21.8227-70.4327 25.0751-75.88Q28.3276-81.3273 33.806-84.5557Q39.2844-87.7841 45.9352-87.7841Q52.627-87.7841 58.0687-84.5592Q63.5104-81.3344 66.7443-75.8872Q69.9782-70.4399 69.9782-63.7962Q69.9782-58.0642 67.4627-53.1351Q64.9472-48.206 60.4316-44.7493Q55.9159-41.2926 49.8327-39.9905L49.8327-28.9472L58.9967-19.7468L49.267-10.1416L49.267-0.816404L55.5881 5.42432ZM45.9352-63.6121Q49.4856-63.6121 51.9997-66.1389Q54.5138-68.6656 54.5138-72.1979Q54.5138-75.7184 51.9997-78.2325Q49.4856-80.7466 45.9352-80.7466Q42.3705-80.7466 39.8785-78.2636Q37.3865-75.7807 37.3865-72.1979Q37.3865-68.6656 39.9006-66.1389Q42.4147-63.6121 45.9352-63.6121Z"/>
  </g>
  <g id="Medium-M" transform="matrix(1 0 0 1 1700.97 1126)">
   <path d="M41.8704 24.2074Q43.5491 25.6506 45.6268 25.7572Q47.7045 25.8638 49.3073 24.2611L64.3763 9.19199Q65.9443 7.63258 65.9174 5.48742Q65.8905 3.34227 64.3227 1.78126L57.1264-5.4167L67.8118-16.1037Q69.3608-17.6111 69.3399-19.7831Q69.319-21.955 67.7511-23.5144L58.0059-33.3115Q67.9292-38.2459 73.3186-46.1715Q78.7081-54.0972 78.7081-63.7962Q78.7081-70.6636 76.1441-76.6613Q73.58-82.659 69.0101-87.2029Q64.4402-91.7468 58.4425-94.2934Q52.4448-96.84 45.5671-96.84Q38.6809-96.84 32.6789-94.2934Q26.6768-91.7468 22.1329-87.2029Q17.589-82.659 15.0249-76.6613Q12.4609-70.6636 12.4609-63.7962Q12.4609-53.9364 17.6937-45.7771Q22.9265-37.6178 31.8377-33.5713L31.8377 12.2493Q31.8377 13.5613 32.3014 14.9276Q32.7651 16.2938 33.9041 17.2716ZM45.5671 15.6254L40.2764 10.345L40.2764-39.9089Q34.7003-41.1536 30.3955-44.5928Q26.0907-48.0321 23.6182-52.9994Q21.1457-57.9668 21.1457-63.7962Q21.1457-70.5186 24.4403-76.0337Q27.7349-81.5489 33.2812-84.8209Q38.8275-88.093 45.5671-88.093Q52.3433-88.093 57.8575-84.8253Q63.3718-81.5575 66.6447-76.0424Q69.9175-70.5273 69.9175-63.7962Q69.9175-58.0188 67.403-53.0429Q64.8885-48.0669 60.3645-44.5526Q55.8405-41.0384 49.7315-39.6557L49.7315-29.1062L59.0704-19.7468L49.0707-9.87177L49.0707-1.08624L55.6539 5.42432ZM45.5671-63.4953Q49.1716-63.4953 51.7277-66.0609Q54.2839-68.6265 54.2839-72.2207Q54.2839-75.7904 51.7277-78.3465Q49.1716-80.9027 45.5671-80.9027Q41.9454-80.9027 39.4153-78.3777Q36.8851-75.8527 36.8851-72.2207Q36.8851-68.6265 39.4413-66.0609Q41.9974-63.4953 45.5671-63.4953Z"/>
  </g>
  <g id="Regular-M" transform="matrix(1 0 0 1 1404.74 1126)">
   <path d="M41.7306 23.8691Q43.243 25.1744 45.1335 25.2832Q47.024 25.3921 48.4953 23.9208L63.5624 8.85369Q64.9924 7.43408 64.9665 5.4813Q64.9406 3.52853 63.5107 2.11956L55.9638-5.4167L66.9998-16.442Q68.4192-17.7993 68.388-19.7779Q68.3569-21.7565 66.9268-23.1761L56.7285-33.4366Q66.7847-38.284 72.2695-46.1803Q77.7543-54.0767 77.7543-63.7962Q77.7543-70.5643 75.2267-76.476Q72.6991-82.3877 68.1888-86.8668Q63.6785-91.346 57.7668-93.853Q51.8551-96.3599 45.087-96.3599Q38.3084-96.3599 32.3914-93.853Q26.4744-91.346 21.9953-86.8668Q17.5161-82.3877 14.9885-76.476Q12.4609-70.5643 12.4609-63.7962Q12.4609-53.9848 17.6998-45.9025Q22.9388-37.8202 31.8377-33.8769L31.8377 12.2019Q31.8377 13.425 32.2628 14.695Q32.6879 15.9649 33.7662 16.8879ZM45.087 16.2016L39.7016 10.8162L39.7016-39.5029Q33.9591-40.8229 29.5978-44.3336Q25.2365-47.8442 22.7495-52.8708Q20.2626-57.8974 20.2626-63.7962Q20.2626-70.6306 23.6122-76.2342Q26.9619-81.8379 32.5967-85.167Q38.2315-88.496 45.087-88.496Q51.9732-88.496 57.5821-85.1723Q63.191-81.8485 66.5147-76.2449Q69.8385-70.6412 69.8385-63.7962Q69.8385-57.9597 67.3252-52.9226Q64.8119-47.8854 60.277-44.2961Q55.7421-40.7068 49.5996-39.219L49.5996-29.3136L59.1664-19.7468L48.8148-9.5198L48.8148-1.4382L55.7396 5.42432ZM45.087-63.3429Q48.762-63.3429 51.373-65.9592Q53.984-68.5755 53.984-72.2505Q53.984-75.8843 51.373-78.4953Q48.762-81.1063 45.087-81.1063Q41.3909-81.1063 38.8111-78.5264Q36.2312-75.9466 36.2312-72.2505Q36.2312-68.5755 38.8422-65.9592Q41.4532-63.3429 45.087-63.3429Z"/>
  </g>
  <g id="Light-M" transform="matrix(1 0 0 1 1109.19 1126)">
   <path d="M41.4054 23.065Q42.5416 24.0621 43.9614 24.1454Q45.3813 24.2286 46.5105 23.0994L61.5603 8.04959Q62.6825 6.95484 62.6651 5.47268Q62.6476 3.99051 61.5259 2.92365L53.1577-5.4167L65.015-17.2461Q66.1093-18.2786 66.0781-19.7779Q66.0469-21.2773 64.9248-22.3721L53.5457-33.813Q64.047-38.4381 69.737-46.2574Q75.4271-54.0767 75.4271-63.7962Q75.4271-70.3249 72.9936-76.0226Q70.5602-81.7204 66.2125-86.037Q61.8647-90.3536 56.167-92.7835Q50.4692-95.2135 43.9405-95.2135Q37.3844-95.2135 31.6727-92.7835Q25.961-90.3536 21.6444-86.037Q17.3278-81.7204 14.8944-76.0226Q12.4609-70.3249 12.4609-63.7962Q12.4609-54.1389 17.7085-46.2363Q22.956-38.3337 31.8377-34.664L31.8377 11.8768Q31.8377 12.8604 32.1944 13.9164Q32.551 14.9725 33.4583 15.7756ZM43.9405 17.1086L37.9049 11.0729L37.9049-39.0067Q32.1454-40.4466 27.7841-44.0428Q23.4227-47.639 20.9443-52.734Q18.4658-57.8289 18.4658-63.7962Q18.4658-70.8016 21.8925-76.5508Q25.3192-82.2999 31.0995-85.7231Q36.8798-89.1463 43.9405-89.1463Q50.9808-89.1463 56.7437-85.737Q62.5065-82.3278 65.9158-76.5786Q69.325-70.8295 69.325-63.7962Q69.325-57.8912 66.7775-52.7686Q64.23-47.646 59.4641-43.8941Q54.6982-40.1422 47.9911-38.3635L47.9911-30.6826L58.9269-19.7468L47.6514-8.59583L47.6514-2.36218L55.5002 5.42432ZM43.9405-63.7192Q47.5129-63.7192 50.0639-66.2842Q52.615-68.8492 52.615-72.4215Q52.615-75.9869 50.0639-78.538Q47.5129-81.089 43.9405-81.089Q40.3128-81.089 37.7929-78.5691Q35.273-76.0492 35.273-72.4215Q35.273-68.8492 37.8241-66.2842Q40.3751-63.7192 43.9405-63.7192Z"/>
  </g>
  <g id="Thin-M" transform="matrix(1 0 0 1 814.017 1126)">
   <path d="M40.9754 22.0015Q41.6138 22.591 42.4113 22.6404Q43.2087 22.6899 43.8854 22.0131L58.9125 6.98611Q59.6274 6.32101 59.6212 5.46127Q59.615 4.60153 58.9009 3.98713L49.4463-5.4167L62.3899-18.3096Q63.0542-18.9124 63.023-19.7779Q62.9919-20.6435 62.2769-21.3086L49.3363-34.3107Q60.4261-38.6419 66.3877-46.3593Q72.3492-54.0767 72.3492-63.7962Q72.3492-70.0081 70.0403-75.423Q67.7313-80.8379 63.5986-84.9395Q59.4659-89.0411 54.051-91.3691Q48.6361-93.6971 42.4242-93.6971Q36.1624-93.6971 30.7221-91.3691Q25.2819-89.0411 21.1803-84.9395Q17.0788-80.8379 14.7699-75.423Q12.4609-70.0081 12.4609-63.7962Q12.4609-54.3427 17.7199-46.6777Q22.9788-39.0127 31.8377-35.705L31.8377 11.4468Q31.8377 12.1136 32.1039 12.8868Q32.3701 13.66 33.0511 14.3045ZM42.4242 18.3082L35.5285 11.4125L35.5285-38.3505Q29.7466-39.9489 25.3853-43.6582Q21.0239-47.3675 18.5567-52.553Q16.0894-57.7384 16.0894-63.7962Q16.0894-71.0279 19.618-76.9694Q23.1466-82.9109 29.1193-86.4586Q35.092-90.0064 42.4242-90.0064Q49.6683-90.0064 55.6347-86.484Q61.6012-82.9616 65.1236-77.0201Q68.646-71.0786 68.646-63.7962Q68.646-57.8008 66.0532-52.565Q63.4605-47.3292 58.3891-43.3623Q53.3176-39.3954 45.8638-37.2319L45.8638-32.4932L58.6102-19.7468L46.1126-7.3738L46.1126-3.58421L55.1834 5.42432ZM42.4242-64.2169Q45.8608-64.2169 48.3326-66.714Q50.8043-69.2112 50.8043-72.6478Q50.8043-76.1227 48.3326-78.5944Q45.8608-81.0662 42.4242-81.0662Q38.887-81.0662 36.4464-78.6256Q34.0058-76.185 34.0058-72.6478Q34.0058-69.2112 36.4775-66.714Q38.9493-64.2169 42.4242-64.2169Z"/>
  </g>
  <g id="Ultralight-M" transform="matrix(1 0 0 1 518.094 1126)">
   <path d="M40.7551 21.4568Q41.1387 21.8376 41.6173 21.8696Q42.0959 21.9017 42.5409 21.4568L57.5562 6.44141Q58.0626 5.99637 58.0621 5.45543Q58.0617 4.91449 57.5563 4.53184L47.5454-5.4167L61.0454-18.8543Q61.4894-19.237 61.4582-19.7779Q61.4271-20.3188 60.9207-20.7639L47.1802-34.5656Q58.5716-38.7463 64.6721-46.4115Q70.7727-54.0767 70.7727-63.7962Q70.7727-69.8459 68.5276-75.1159Q66.2824-80.3859 62.2598-84.3774Q58.2373-88.3688 52.9673-90.6446Q47.6973-92.9205 41.6475-92.9205Q35.5365-92.9205 30.2353-90.6446Q24.9341-88.3688 20.9426-84.3774Q16.9512-80.3859 14.7061-75.1159Q12.4609-69.8459 12.4609-63.7962Q12.4609-54.447 17.7257-46.9038Q22.9905-39.3606 31.8377-36.2383L31.8377 11.2265Q31.8377 11.7311 32.0575 12.3594Q32.2774 12.9877 32.8425 13.551ZM41.6475 18.9226L34.3113 11.5864L34.3113-38.0143Q28.5179-39.694 24.1566-43.4612Q19.7953-47.2284 17.3338-52.4603Q14.8722-57.6921 14.8722-63.7962Q14.8722-71.1437 18.453-77.1838Q22.0338-83.2239 28.105-86.8354Q34.1763-90.4469 41.6475-90.4469Q48.996-90.4469 55.0668-86.8666Q61.1375-83.2862 64.7178-77.2462Q68.2981-71.2061 68.2981-63.7962Q68.2981-57.7544 65.6822-52.4607Q63.0663-47.167 57.8384-43.09Q52.6105-39.013 44.7742-36.6524L44.7742-33.4206L58.448-19.7468L45.3245-6.74788L45.3245-4.21013L55.0212 5.42432ZM41.6475-64.4718Q45.0146-64.4718 47.4458-66.9342Q49.877-69.3966 49.877-72.7637Q49.877-76.1922 47.4458-78.6233Q45.0146-81.0545 41.6475-81.0545Q38.1567-81.0545 35.7567-78.6545Q33.3567-76.2545 33.3567-72.7637Q33.3567-69.3966 35.7878-66.9342Q38.219-64.4718 41.6475-64.4718Z"/>
  </g>
  <g id="Black-S" transform="matrix(1 0 0 1 2895.85 696)">
   <path d="M33.3496 12.6465Q35.3027 14.3066 37.6465 14.3799Q39.9902 14.4531 41.748 12.6953L53.5645 0.878906Q55.3223-0.878906 55.2979-3.2959Q55.2734-5.71289 53.5156-7.51953L49.2188-11.8652L56.25-18.9453Q57.959-20.7031 57.9834-23.1445Q58.0078-25.5859 56.25-27.3438L50.3418-33.252Q57.6172-37.4512 61.4746-43.7744Q65.332-50.0977 65.332-57.6172Q65.332-63.3789 63.1836-68.4082Q61.0352-73.4375 57.2266-77.2461Q53.418-81.0547 48.3887-83.2031Q43.3594-85.3516 37.5488-85.3516Q31.7383-85.3516 26.709-83.2031Q21.6797-81.0547 17.8711-77.2461Q14.0625-73.4375 11.9141-68.4082Q9.76562-63.3789 9.76562-57.6172Q9.76562-49.707 13.8428-43.0176Q17.9199-36.3281 24.9512-32.7637L24.9512 2.14844Q24.9512 3.51562 25.4639 4.95605Q25.9766 6.39648 27.0996 7.37305ZM37.5488 2.39258L33.7402-1.36719L33.7402-40.4785Q30.0293-41.1621 26.8799-43.5791Q23.7305-45.9961 21.8506-49.6582Q19.9707-53.3203 19.9707-57.6172Q19.9707-62.4512 22.3389-66.4307Q24.707-70.4102 28.7109-72.7539Q32.7148-75.0977 37.5488-75.0977Q42.4316-75.0977 46.3867-72.7539Q50.3418-70.4102 52.71-66.4307Q55.0781-62.4512 55.0781-57.6172Q55.0781-53.3203 53.1006-49.6582Q51.123-45.9961 47.6074-43.5303Q44.0918-41.0645 39.4043-40.3809L39.4043-29.6875L45.8984-23.0957L39.4043-16.6992L39.4043-7.12891L43.2617-3.36914ZM37.5488-58.0078Q40.0879-58.0078 41.8701-59.8145Q43.6523-61.6211 43.6523-64.1113Q43.6523-66.6504 41.8701-68.4326Q40.0879-70.2148 37.5488-70.2148Q35.0098-70.2148 33.2275-68.457Q31.4453-66.6992 31.4453-64.1113Q31.4453-61.6211 33.2275-59.8145Q35.0098-58.0078 37.5488-58.0078Z"/>
  </g>
  <g id="Heavy-S" transform="matrix(1 0 0 1 2599.53 696)">
   <path d="M33.2344 12.3699Q35.0492 13.9148 37.2431 13.9938Q39.4371 14.0728 41.0912 12.4187L52.9076 0.602319Q54.5501-1.04025 54.5257-3.30166Q54.5013-5.56307 52.8587-7.24294L48.2737-11.8652L55.5931-19.2219Q57.1984-20.8529 57.2113-23.1388Q57.2241-25.4246 55.5816-27.0672L49.3161-33.3441Q56.6837-37.4742 60.6218-43.7744Q64.5599-50.0746 64.5599-57.6172Q64.5599-63.2982 62.4403-68.2584Q60.3206-73.2185 56.5581-76.9753Q52.7956-80.732 47.8355-82.8459Q42.8753-84.9597 37.157-84.9597Q31.4386-84.9597 26.4785-82.8459Q21.5183-80.732 17.7616-76.9753Q14.0049-73.2185 11.8853-68.2584Q9.76562-63.2982 9.76562-57.6172Q9.76562-49.7416 13.8485-43.1155Q17.9314-36.4895 24.9512-33.0057L24.9512 2.13691Q24.9512 3.43495 25.4293 4.79471Q25.9074 6.15447 26.9844 7.08494ZM37.157 2.9227L33.3254-0.871635L33.3254-40.0867Q29.43-40.8394 26.2172-43.3256Q23.0044-45.8117 21.1073-49.5314Q19.2101-53.2512 19.2101-57.6172Q19.2101-62.5549 21.6301-66.6151Q24.0501-70.6752 28.1347-73.0708Q32.2193-75.4664 37.157-75.4664Q42.1435-75.4664 46.185-73.0708Q50.2266-70.6752 52.6408-66.6151Q55.0551-62.5549 55.0551-57.6172Q55.0551-53.2627 53.0833-49.543Q51.1115-45.8232 47.6132-43.294Q44.1148-40.7648 39.4619-40.0006L39.4619-29.7451L46.0367-23.0957L39.266-16.4226L39.266-7.40549L43.3885-3.36914ZM37.157-57.7888Q39.7883-57.7888 41.6396-59.6589Q43.491-61.5289 43.491-64.1229Q43.491-66.7426 41.6396-68.594Q39.7883-70.4453 37.157-70.4453Q34.5257-70.4453 32.6801-68.6184Q30.8345-66.7914 30.8345-64.1229Q30.8345-61.5289 32.6859-59.6589Q34.5373-57.7888 37.157-57.7888Z"/>
  </g>
  <g id="Bold-S" transform="matrix(1 0 0 1 2303.25 696)">
   <path d="M33.1055 12.0605Q34.7656 13.4766 36.792 13.562Q38.8184 13.6475 40.3564 12.1094L52.1729 0.292969Q53.6865-1.2207 53.6621-3.30811Q53.6377-5.39551 52.124-6.93359L47.2168-11.8652L54.8584-19.5312Q56.3477-21.0205 56.3477-23.1323Q56.3477-25.2441 54.834-26.7578L48.1689-33.4473Q55.6396-37.5 59.668-43.7744Q63.6963-50.0488 63.6963-57.6172Q63.6963-63.208 61.6089-68.0908Q59.5215-72.9736 55.8105-76.6724Q52.0996-80.3711 47.2168-82.4463Q42.334-84.5215 36.7188-84.5215Q31.1035-84.5215 26.2207-82.4463Q21.3379-80.3711 17.6392-76.6724Q13.9404-72.9736 11.853-68.0908Q9.76562-63.208 9.76562-57.6172Q9.76562-49.7803 13.855-43.2251Q17.9443-36.6699 24.9512-33.2764L24.9512 2.12402Q24.9512 3.34473 25.3906 4.61426Q25.8301 5.88379 26.8555 6.7627ZM36.7188 3.51562L32.8613-0.317383L32.8613-39.6484Q28.7598-40.4785 25.4761-43.042Q22.1924-45.6055 20.2759-49.3896Q18.3594-53.1738 18.3594-57.6172Q18.3594-62.6709 20.8374-66.8213Q23.3154-70.9717 27.4902-73.4253Q31.665-75.8789 36.7188-75.8789Q41.8213-75.8789 45.9595-73.4253Q50.0977-70.9717 52.5635-66.8213Q55.0293-62.6709 55.0293-57.6172Q55.0293-53.1982 53.064-49.4141Q51.0986-45.6299 47.6196-43.0298Q44.1406-40.4297 39.5264-39.5752L39.5264-29.8096L46.1914-23.0957L39.1113-16.1133L39.1113-7.71484L43.5303-3.36914ZM36.7188-57.5439Q39.4531-57.5439 41.3818-59.4849Q43.3105-61.4258 43.3105-64.1357Q43.3105-66.8457 41.3818-68.7744Q39.4531-70.7031 36.7188-70.7031Q33.9844-70.7031 32.0679-68.7988Q30.1514-66.8945 30.1514-64.1357Q30.1514-61.4258 32.0801-59.4849Q34.0088-57.5439 36.7188-57.5439Z"/>
  </g>
  <g id="Semibold-S" transform="matrix(1 0 0 1 2006.83 696)">
   <path d="M33.0166 11.8473Q34.5701 13.1744 36.481 13.2643Q38.3918 13.3542 39.8499 11.8961L51.6663 0.0796875Q53.0911-1.34512 53.0667-3.31255Q53.0423-5.27998 51.6175-6.72031L46.4881-11.8652L54.3519-19.7445Q55.7611-21.136 55.7522-23.1279Q55.7434-25.1197 54.3186-26.5445L47.378-33.5184Q54.9198-37.5178 59.0104-43.7744Q63.1009-50.0311 63.1009-57.6172Q63.1009-63.1458 61.0357-67.9753Q58.9705-72.8048 55.2951-76.4635Q51.6197-80.1223 46.7902-82.1708Q41.9607-84.2193 36.4166-84.2193Q30.8725-84.2193 26.043-82.1708Q21.2135-80.1223 17.5547-76.4635Q13.896-72.8048 11.8308-67.9753Q9.76562-63.1458 9.76562-57.6172Q9.76562-49.8069 13.8594-43.3006Q17.9532-36.7943 24.9512-33.463L24.9512 2.11514Q24.9512 3.28252 25.364 4.48984Q25.7768 5.69717 26.7666 6.54053ZM36.4166 3.92441L32.5414 0.0647461L32.5414-39.3463Q28.2977-40.2297 24.9651-42.8465Q21.6325-45.4633 19.7027-49.2919Q17.7729-53.1205 17.7729-57.6172Q17.7729-62.7509 20.2909-66.9635Q22.8089-71.1761 27.0459-73.6697Q31.2829-76.1633 36.4166-76.1633Q41.5991-76.1633 45.804-73.6697Q50.0088-71.1761 52.5102-66.9635Q55.0115-62.7509 55.0115-57.6172Q55.0115-53.1538 53.0506-49.3252Q51.0897-45.4966 47.6241-42.8476Q44.1584-40.1986 39.5708-39.2819L39.5708-29.854L46.298-23.0957L39.0047-15.9L39.0047-7.92812L43.628-3.36914ZM36.4166-57.3751Q39.2221-57.3751 41.2041-59.3649Q43.1861-61.3547 43.1861-64.1446Q43.1861-66.9168 41.2041-68.8988Q39.2221-70.8809 36.4166-70.8809Q33.6111-70.8809 31.6458-68.9232Q29.6804-66.9656 29.6804-64.1446Q29.6804-61.3547 31.6624-59.3649Q33.6444-57.3751 36.4166-57.3751Z"/>
  </g>
  <g id="Medium-S" transform="matrix(1 0 0 1 1710.35 696)">
   <path d="M32.9492 11.6855Q34.4219 12.9453 36.2451 13.0386Q38.0684 13.1318 39.4658 11.7344L51.2822-0.0820312Q52.6396-1.43945 52.6152-3.31592Q52.5908-5.19238 51.2334-6.55859L45.9355-11.8652L53.9678-19.9062Q55.3164-21.2236 55.3008-23.1245Q55.2852-25.0254 53.9277-26.3828L46.7783-33.5723Q54.374-37.5312 58.5117-43.7744Q62.6494-50.0176 62.6494-57.6172Q62.6494-63.0986 60.6011-67.8877Q58.5527-72.6768 54.9043-76.3052Q51.2559-79.9336 46.4668-81.9619Q41.6777-83.9902 36.1875-83.9902Q30.6973-83.9902 25.9082-81.9619Q21.1191-79.9336 17.4907-76.3052Q13.8623-72.6768 11.814-67.8877Q9.76562-63.0986 9.76562-57.6172Q9.76562-49.8271 13.8628-43.3579Q17.96-36.8887 24.9512-33.6045L24.9512 2.1084Q24.9512 3.23535 25.3438 4.39551Q25.7363 5.55566 26.6992 6.37207ZM36.1875 4.23438L32.2988 0.354492L32.2988-39.1172Q27.9473-40.041 24.5776-42.6982Q21.208-45.3555 19.2681-49.2178Q17.3281-53.0801 17.3281-57.6172Q17.3281-62.8115 19.8765-67.0713Q22.4248-71.3311 26.709-73.855Q30.9932-76.3789 36.1875-76.3789Q41.4307-76.3789 45.686-73.855Q49.9414-71.3311 52.4697-67.0713Q54.998-62.8115 54.998-57.6172Q54.998-53.1201 53.0405-49.2578Q51.083-45.3955 47.6274-42.7095Q44.1719-40.0234 39.6045-39.0596L39.6045-29.8877L46.3789-23.0957L38.9238-15.7383L38.9238-8.08984L43.7021-3.36914ZM36.1875-57.2471Q39.0469-57.2471 41.0693-59.2739Q43.0918-61.3008 43.0918-64.1514Q43.0918-66.9707 41.0693-68.9932Q39.0469-71.0156 36.1875-71.0156Q33.3281-71.0156 31.3257-69.0176Q29.3232-67.0195 29.3232-64.1514Q29.3232-61.3008 31.3457-59.2739Q33.3682-57.2471 36.1875-57.2471Z"/>
  </g>
  <g id="Regular-S" transform="matrix(1 0 0 1 1413.93 696)">
   <path d="M32.8613 11.4746Q34.2285 12.6465 35.9375 12.7441Q37.6465 12.8418 38.9648 11.5234L50.7812-0.292969Q52.0508-1.5625 52.0264-3.32031Q52.002-5.07812 50.7324-6.34766L45.2148-11.8652L53.4668-20.1172Q54.7363-21.3379 54.7119-23.1201Q54.6875-24.9023 53.418-26.1719L45.9961-33.6426Q53.6621-37.5488 57.8613-43.7744Q62.0605-50 62.0605-57.6172Q62.0605-63.0371 60.0342-67.7734Q58.0078-72.5098 54.3945-76.0986Q50.7812-79.6875 46.0449-81.6895Q41.3086-83.6914 35.8887-83.6914Q30.4688-83.6914 25.7324-81.6895Q20.9961-79.6875 17.4072-76.0986Q13.8184-72.5098 11.792-67.7734Q9.76562-63.0371 9.76562-57.6172Q9.76562-49.8535 13.8672-43.4326Q17.9688-37.0117 24.9512-33.7891L24.9512 2.09961Q24.9512 3.17383 25.3174 4.27246Q25.6836 5.37109 26.6113 6.15234ZM35.8887 4.63867L31.9824 0.732422L31.9824-38.8184Q27.4902-39.7949 24.0723-42.5049Q20.6543-45.2148 18.7012-49.1211Q16.748-53.0273 16.748-57.6172Q16.748-62.8906 19.3359-67.2119Q21.9238-71.5332 26.2695-74.0967Q30.6152-76.6602 35.8887-76.6602Q41.2109-76.6602 45.5322-74.0967Q49.8535-71.5332 52.417-67.2119Q54.9805-62.8906 54.9805-57.6172Q54.9805-53.0762 53.0273-49.1699Q51.0742-45.2637 47.6318-42.5293Q44.1895-39.7949 39.6484-38.7695L39.6484-29.9316L46.4844-23.0957L38.8184-15.5273L38.8184-8.30078L43.7988-3.36914ZM35.8887-57.0801Q38.8184-57.0801 40.8936-59.1553Q42.9688-61.2305 42.9688-64.1602Q42.9688-67.041 40.8936-69.1162Q38.8184-71.1914 35.8887-71.1914Q32.959-71.1914 30.9082-69.1406Q28.8574-67.0898 28.8574-64.1602Q28.8574-61.2305 30.9326-59.1553Q33.0078-57.0801 35.8887-57.0801Z"/>
  </g>
  <g id="Light-S" transform="matrix(1 0 0 1 1118.25 696)">
   <path d="M32.5737 10.7633Q33.608 11.6625 34.9007 11.7376Q36.1933 11.8126 37.2091 10.7969L49.0102-1.00428Q50.0074-1.98644 49.9905-3.32794Q49.9736-4.66944 48.9766-5.63634L42.7325-11.8652L51.711-20.8285Q52.6929-21.7618 52.6685-23.1201Q52.6441-24.4784 51.6469-25.4606L43.1806-33.9755Q51.2403-37.6851 55.6211-43.8426Q60.0019-50 60.0019-57.6172Q60.0019-62.8253 58.0588-67.3724Q56.1157-71.9195 52.6463-75.3646Q49.1768-78.8096 44.6297-80.7434Q40.0826-82.6772 34.8745-82.6772Q29.6514-82.6772 25.0966-80.7434Q20.5419-78.8096 17.0968-75.3646Q13.6518-71.9195 11.7087-67.3724Q9.76562-62.8253 9.76562-57.6172Q9.76562-49.9898 13.8748-43.7279Q17.984-37.4659 24.9512-34.4854L24.9512 1.81198Q24.9512 2.67436 25.2569 3.58378Q25.5625 4.4932 26.339 5.16841ZM34.8745 5.44103L30.393 0.959524L30.393-38.3794Q25.8858-39.462 22.4678-42.2476Q19.0498-45.0333 17.1042-49Q15.1586-52.9668 15.1586-57.6172Q15.1586-63.0419 17.8146-67.4919Q20.4707-71.9419 24.9451-74.5886Q29.4195-77.2354 34.8745-77.2354Q40.333-77.2354 44.7905-74.5963Q49.248-71.9571 51.8871-67.5072Q54.5263-63.0572 54.5263-57.6172Q54.5263-53.0156 52.5429-49.0337Q50.5595-45.0518 46.9128-42.1736Q43.266-39.2955 38.2256-38.0127L38.2256-31.1427L46.2725-23.0957L37.7892-14.71L37.7892-9.11814L43.587-3.36914ZM34.8745-57.413Q37.7134-57.413 39.7355-59.4428Q41.7577-61.4726 41.7577-64.3115Q41.7577-67.1318 39.7355-69.154Q37.7134-71.1761 34.8745-71.1761Q32.0053-71.1761 30.0076-69.1784Q28.0098-67.1806 28.0098-64.3115Q28.0098-61.4726 30.032-59.4428Q32.0541-57.413 34.8745-57.413Z"/>
  </g>
  <g id="Thin-S" transform="matrix(1 0 0 1 822.9 696)">
   <path d="M32.1933 9.82253Q32.7873 10.3612 33.5294 10.4063Q34.2714 10.4514 34.8869 9.83591L46.6679-1.94505Q47.3048-2.54713 47.2978-3.33803Q47.2908-4.12893 46.6545-4.69557L39.4494-11.8652L49.3889-21.7693Q49.9904-22.3225 49.9659-23.1201Q49.9415-23.9177 49.3046-24.5198L39.4569-34.4158Q48.0372-37.8654 52.6582-43.9327Q57.2791-50 57.2791-57.6172Q57.2791-62.5451 55.4462-66.842Q53.6133-71.1388 50.334-74.3937Q47.0548-77.6485 42.7579-79.4922Q38.461-81.3358 33.5331-81.3358Q28.5704-81.3358 24.2558-79.4922Q19.9412-77.6485 16.6863-74.3937Q13.4315-71.1388 11.5986-66.842Q9.76562-62.5451 9.76562-57.6172Q9.76562-50.1701 13.8849-44.1184Q18.0042-38.0666 24.9512-35.4063L24.9512 1.43157Q24.9512 2.01377 25.1768 2.67295Q25.4024 3.33213 25.9787 3.86707ZM33.5331 6.50221L28.2908 1.25988L28.2908-37.7989Q23.7637-39.0217 20.3458-41.9074Q16.9278-44.7931 14.9921-48.8399Q13.0564-52.8868 13.0564-57.6172Q13.0564-63.2421 15.8026-67.8622Q18.5488-72.4824 23.1934-75.2393Q27.8379-77.9962 33.5331-77.9962Q39.172-77.9962 43.8096-75.257Q48.4471-72.5178 51.1863-67.8977Q53.9255-63.2775 53.9255-57.6172Q53.9255-52.9356 51.9021-48.8536Q49.8787-44.7716 45.9617-41.7033Q42.0448-38.6349 36.3437-37.0117L36.3437-32.7444L45.9924-23.0957L36.4279-13.629L36.4279-10.1992L43.3068-3.36914ZM33.5331-57.8533Q36.2519-57.8533 38.204-59.823Q40.156-61.7928 40.156-64.5116Q40.156-67.2519 38.204-69.2039Q36.2519-71.156 33.5331-71.156Q30.744-71.156 28.8164-69.2283Q26.8887-67.3007 26.8887-64.5116Q26.8887-61.7928 28.8408-59.823Q30.7928-57.8533 33.5331-57.8533Z"/>
  </g>
  <g id="Ultralight-S" transform="matrix(1 0 0 1 526.886 696)">
   <path d="M31.9984 9.34067Q32.3669 9.69467 32.827 9.72443Q33.287 9.75418 33.6975 9.34372L45.4681-2.42691Q45.9206-2.83432 45.9187-3.3432Q45.9167-3.85208 45.4651-4.21371L37.7678-11.8652L48.1995-22.2511Q48.6061-22.6097 48.5817-23.1201Q48.5573-23.6305 48.1049-24.0379L37.5496-34.6413Q46.3966-37.9578 51.1406-43.9789Q55.8846-50 55.8846-57.6172Q55.8846-62.4016 54.108-66.5703Q52.3315-70.739 49.1497-73.8964Q45.9679-77.0538 41.7992-78.8513Q37.6305-80.6488 32.8461-80.6488Q28.0167-80.6488 23.8251-78.8513Q19.6335-77.0538 16.4761-73.8964Q13.3186-70.739 11.5421-66.5703Q9.76562-62.4016 9.76562-57.6172Q9.76562-50.2625 13.8901-44.3184Q18.0145-38.3743 24.9512-35.878L24.9512 1.23672Q24.9512 1.67542 25.1358 2.20642Q25.3204 2.73743 25.7942 3.20053ZM32.8461 7.04575L27.2141 1.41373L27.2141-37.5015Q22.6768-38.7962 19.2589-41.7332Q15.8409-44.6701 13.9103-48.7579Q11.9797-52.8458 11.9797-57.6172Q11.9797-63.3446 14.772-68.0519Q17.5644-72.7592 22.2961-75.5726Q27.0279-78.3859 32.8461-78.3859Q38.5773-78.3859 43.3071-75.5955Q48.037-72.805 50.8274-68.0977Q53.6179-63.3904 53.6179-57.6172Q53.6179-52.8946 51.5739-48.7614Q49.53-44.6281 45.4746-41.4623Q41.4192-38.2965 35.3798-36.499L35.3798-33.5648L45.8488-23.0957L35.7307-13.0753L35.7307-10.7529L43.1633-3.36914ZM32.8461-58.0788Q35.5034-58.0788 37.4195-60.0178Q39.3356-61.9568 39.3356-64.6141Q39.3356-67.3134 37.4195-69.2295Q35.5034-71.1456 32.8461-71.1456Q30.098-71.1456 28.2063-69.2539Q26.3145-67.3622 26.3145-64.6141Q26.3145-61.9568 28.2307-60.0178Q30.1468-58.0788 32.8461-58.0788Z"/>
  </g>
 </g>
</svg>
